<svg xmlns="http://www.w3.org/2000/svg" viewBox="0 0 566.9 105" xml:space="preserve"><path fill="#c3c6c5" d="M407 61.5h-7.9V34.9h29c5 0 8.9 3.6 9.1 8.6v18.1h-7.4V45c0-2.5-1.4-4.2-3.9-4.4-1.3-.1-2.7 0-4.1 0v21H414V40.5h-6.9c-.1 6.9-.1 21-.1 21zM526.7 61.5h-7.9V34.9h29c5 0 8.9 3.6 9.1 8.6v18.1h-7.4V45c0-2.5-1.4-4.2-3.9-4.4-1.3-.1-2.7 0-4.1 0v21h-7.8V40.5h-6.9c-.1 6.9-.1 21-.1 21zM311.7 51.4c2.5 3.3 5.1 6.8 7.7 10.2h-8.8l-6.8-9.9h-7.5v9.9h-7.8V35H309.9c5.5 0 9.5 5 8.4 10.4-.6 3-2.5 4.8-5.3 5.7-.4 0-.8.1-1.3.3zm-15.4-4.5h10.2c.5 0 1.1-.2 1.6-.5 1.1-.5 1.9-1.2 1.9-2.6 0-1.4-.5-2.5-1.9-3.1-.8-.3-1.6-.5-2.4-.5h-9.4v6.7zM394.7 61.5h-19.8c-1.5 0-3-.3-4.4-.7-3.6-1.1-5.6-4-5.3-7.7.2-3.8 2.6-6.7 6.2-7.5.8-.2 1.7-.3 2.6-.3h12.6c.3 0-.3 0 0 0 0-2.9-2.4-5.3-5.5-5.3h-13.8v-5.1h16.1c6.2 0 11 4.6 11.2 10.8v15.8h.1zm-7.8-11.2h-9.7c-2 0-3.4 1.2-3.5 3.1 0 1.8 1.3 3 3.4 3h9.8v-6.1zM161.6 61.5v-5.2H179c1.6 0 2.6-.8 2.9-2.4.3-1.2-.5-2.4-1.9-2.9-.6-.2-1.3-.4-2-.4h-10.7c-4.4-.1-6.9-2.7-7.3-7.3-.3-3.6 2.4-7.7 6-8.4h22.9v5.4H172.5c-.5 0-1 0-1.4.1-1.2.2-2.1 1-2.3 2.1-.2 1.1.3 2.2 1.2 2.9.3.2.8.3 1.2.3h11.6c2.9.1 5.6.8 7 3.6 2.5 4.9.6 12-6.9 12.1l-21.3.1zM498.7 34.3c3 .1 5.9.4 8.6 1.7 3.8 1.7 6.6 4.5 7.4 8.6 1 5.2.1 10.1-4.1 13.8-2.4 2.1-5.4 3-8.4 3.6-4.8.8-9.3 0-13.6-2.1-4-2-5.7-5.6-6.2-9.8-.2-2.2-.2-4.3.5-6.4 1.6-4.9 5.3-7.4 10-8.5 1.9-.5 3-.8 5.8-.9zm8.7 13.9c0-.5 0-1-.1-1.5-.2-3.6-2.4-6.4-5.7-7.3-2-.5-3.9-.5-5.9 0-2.8.6-4.7 2.3-5.5 5.1-.6 2.2-.6 4.5-.3 6.7.4 2.6 2 4.4 4.5 5.1 1.5.4 3.1.6 4.7.5 5.5-.1 8.4-3.2 8.3-8.6zM284.3 45.6v5.1h-18.5c0 3.2 2.3 5.5 5.4 5.5h13v5.4h-14.9c-7.4-.3-11.9-5.6-11.7-12.5.1-2.3.2-4.5 1.1-6.6 1.8-4.6 6-7.5 11-7.5h14.7v5.4h-12.5c-3 0-5.4 2.2-5.8 5.3 6-.1 12-.1 18.2-.1zM214 56.1V34.9h7.6v26.6h-20c-2.5 0-4.5-.9-6-2.8-1.5-1.8-2.4-3.7-2.3-6.2.1-5.3 0-17.6 0-17.6h7.6v17c-.1 2.5 1.3 4 3.6 4.2h9.5zM233.6 52.5v9h-7.4V34.9h20.2c3.6-.1 7.2 2.6 8.2 6.5 1.6 5.8-2.5 11.1-8.5 11.1h-12.5zm.2-5.1H244c.4 0 .9-.3 1.2-.5 1.1-.8 1.9-2.8 1.5-3.9-.6-1.8-1.7-2.6-3.5-2.6h-9.5v7h.1zM363.1 34.9V40h-13c-2.2.1-4.1 1.1-5.4 2.9-.4.6-.7 1.4-.8 2.5h18.8V51h-18.9v10.5h-7.7V45.8c0-5.7 4.3-10.7 10-10.9h17zM480 56.3v5.2h-14c-5.8 0-10.2-3.4-11.7-9.1-1.1-4.4-.6-8.9 1.9-12.7 2.1-3.2 5.1-4.8 9-4.8h15v5.3h-12.7c-2.5 0-4.1 1.2-4.9 3.5-1 2.7-1.1 5.8-.2 8.6.8 2.6 2.8 4 5.6 4h12zM311.4 85.8V81h18.5v-7.9h-18.2v-4.6h22.2v17.3h-22.5zM160.6 72.9v-4.7h18.5c.5 3.4.2 6.6-.9 9.8-.1.3-.3.8-.3.8s3.4 4.8 5 7h-5.2s-1.8-2.4-2.5-3.4c-.4.3-.7.5-1 .8-2.2 1.7-4.5 2.7-7.4 2.6h-6.9V81h4.9c2.1 0 4.1-.2 6-.9 3-1.2 4.8-3.9 4.6-7.2h-14.8zM441.9 34.9h8.2v26.6h-8.2zM245.2 85.8V81h9.6c3.9.2 6.9-2.3 6.8-7.1 0-.3 0-.6-.1-1H244v-4.5h21.1V77c0 .8-.3 1.7-.6 2.4-1.4 3.8-4.3 6.1-8.3 6.4h-11zM266.9 76.5v-4.1h18.6v6.1c0 2.4-1.7 3.5-8.6 3.5 0 0-.1 1.1-.3 1.4-.7 1.8-2.1 2.5-4.2 2.5H268v-4.2h4.4c1.4 0 1.9-.3 2.1-1.8.1-.4.1-.9.2-1.4h5.7c1.3 0 1.7-.4 1.7-1.9-5-.1-10.1-.1-15.2-.1zM358.4 68.6v9.8c-.8 5.5-5.7 7.5-9.3 7.4h-12.8V81h13.1c2.7.1 5.4-2.4 5.4-5.5V68.7c1.3-.1 2.5-.1 3.6-.1zM210.3 68.2h4V75c-.3 4.5 2.9 5.8 5.8 5.8h1.2v4.8c-6.5.4-10.8-2.5-11-8.9-.1-2.5 0-5 0-7.5v-1zM309.3 80.3l-21.8-2.7v-4.3l21.8 2.6zM309.3 74.6l-21.8-2.8v-4.2l21.8 2.6zM309.3 81.8v4.4c-7.3-.9-14.6-1.8-21.9-2.8v-4.3c7.3.8 14.6 1.9 21.9 2.7zM197.5 85.7v-4.8c1-.1 1.9-.1 2.8-.2 2.7-.4 4.2-2.3 4.2-5v-7.3h4.1v5.9c0 1.3 0 2.7-.2 3.9-.9 4.5-3.7 6.8-8.4 7.2-.8.2-1.6.2-2.5.3z"/><path fill="#c3c6c5" d="M197.9 74.8v4.4h-16.7v-4.4h16.7zM221.5 74.6h16.7V79h-16.7v-4.4zM349.5 68.4V73h-13.2v-4.6h13.2zM221.7 71.2c0 1.8-1.5 3.2-3.2 3.2-1.7 0-3.2-1.4-3.2-3.2 0-1.8 1.4-3.3 3.2-3.3 1.8.1 3.2 1.5 3.2 3.3zm-2 0c0-.7-.7-1.4-1.4-1.4s-1.4.7-1.3 1.5c.1.8.6 1.3 1.4 1.3.9-.1 1.3-.6 1.3-1.4zM361.8 71.5v-4.2h1.9c.4 0 .7 0 .9.1.2.1.4.2.5.4.1.2.2.4.2.6 0 .3-.1.6-.3.8-.2.2-.5.3-.9.4.1.1.3.1.3.2.2.1.3.3.5.6l.7 1.2h-.7l-.6-.9c-.2-.3-.3-.4-.4-.6l-.3-.3c-.1-.1-.2-.1-.3-.1H362.4v1.9h-.6v-.1zm.6-2.4h1.2c.3 0 .5 0 .6-.1.1-.1.3-.1.3-.3.1-.1.1-.2.1-.4s-.1-.4-.2-.5c-.1-.1-.4-.2-.7-.2h-1.3v1.5z"/><path fill="#c3c6c5" d="M363.5 73.4c-2.2 0-3.9-1.8-3.9-3.9s1.8-3.9 3.9-3.9c2.2 0 3.9 1.8 3.9 3.9s-1.7 3.9-3.9 3.9zm0-7.2c-1.8 0-3.2 1.4-3.2 3.2s1.4 3.2 3.2 3.2c1.8 0 3.2-1.4 3.2-3.2s-1.4-3.2-3.2-3.2zM560.6 37v-4.2h1.9c.4 0 .7 0 .9.1.2.1.4.2.5.4.1.2.2.4.2.6 0 .3-.1.6-.3.8-.2.2-.5.3-.9.4.1.1.3.1.3.2.2.2.3.3.5.6l.7 1.2h-.7l-.6-.9c-.2-.3-.3-.4-.4-.6l-.3-.3c-.1-.1-.2-.1-.3-.1H561.2V37h-.6zm.5-2.4h1.2c.3 0 .5 0 .6-.1.1-.1.3-.1.3-.3.1-.1.1-.2.1-.4s-.1-.4-.2-.5c-.1-.1-.4-.2-.7-.2h-1.3v1.5z"/><path fill="#c3c6c5" d="M562.2 38.9c-2.2 0-3.9-1.8-3.9-3.9s1.8-3.9 3.9-3.9c2.2 0 3.9 1.8 3.9 3.9s-1.7 3.9-3.9 3.9zm0-7.2c-1.8 0-3.2 1.4-3.2 3.2s1.4 3.2 3.2 3.2 3.2-1.4 3.2-3.2-1.4-3.2-3.2-3.2z"/><path fill="#01954B" d="M62.8 64c0 8.8-14.2 15.9-31.8 15.9C13.5 79.9-.8 72.8-.8 64S13.4 48.1 31 48.1 62.8 55.2 62.8 64z"/><path fill="#F9EC2B" d="M117.6 89.1c0 8.8-14.2 15.9-31.8 15.9C68.3 105 54 97.9 54 89.1s14.2-15.9 31.8-15.9 31.8 7.1 31.8 15.9z"/><path fill="#323B98" d="M64 0C48 0 35 12.8 34.6 28.8c.7 0 1.3-.1 2-.1C52.9 28.7 66 41.9 66 58.2v.7c15.3-1 27.4-13.8 27.4-29.4C93.5 13.2 80.3 0 64 0z"/><path fill="#EB2D2F" d="M119.8 25.8c-16.3 0-29.4 13.2-29.4 29.5v1.1h1.2c15.9 0 28.9 12.6 29.4 28.4 15.7-.6 28.3-13.5 28.3-29.4-.1-16.4-13.3-29.6-29.5-29.6z"/></svg>