<svg xmlns="http://www.w3.org/2000/svg" viewBox="0 0 612 792" xml:space="preserve"><g fill="#c3c6c5" stroke="#FFF"><path d="m56.92 415.401-11.9 22.2-44.5-83.1h23.8l32.6 60.9zM48.02 387.701l17.8-33.2h23.7l-29.7 55.4-11.8-22.2zM95.62 354.401h20.8l-.1 83.1h-20.8l.1-83.1zM125.32 354.401h20.8l-.1 83.1h-20.8l.1-83.1zM151.92 375.201v-20.8h8.9c11.5 0 21.2 4 29.4 12.2 8.1 8.1 12.2 17.9 12.2 29.4s-4 21.2-12.2 29.4c-8.1 8.1-17.9 12.2-29.4 12.2h-8.9v-20.7h8.9c5.7 0 10.6-2 14.7-6.1 4-4 6.1-8.9 6.1-14.7s-2-10.6-6.1-14.7c-4-4-8.9-6.1-14.7-6.1l-8.9-.1zM211.52 354.401h20.8l-.1 83.1h-20.8l.1-83.1zM238.22 354.401h32.6v20.8h-32.6v-20.8zM238.22 416.801h32.6v20.8h-32.6v-20.8zM238.22 385.501h32.6v20.8h-32.6v-20.8zM342.02 398.901h20.9c-.6 10.2-4.7 19-12.1 26.4-8.1 8.1-17.9 12.2-29.4 12.2s-21.2-4-29.4-12.2c-7.4-7.4-11.5-16.2-12-26.4h20.8c.6 4.5 2.5 8.4 5.8 11.7 4 4 8.9 6.2 14.7 6.2s10.6-2 14.8-6.2c3.3-3.3 5.3-7.2 5.9-11.7zM300.82 393.001h-20.9c.6-10.2 4.7-19 12-26.4 8.1-8.1 17.9-12.2 29.4-12.2s21.2 4 29.4 12.2c7.4 7.4 11.5 16.2 12.1 26.4h-20.9c-.6-4.5-2.5-8.4-5.8-11.8-4-4-9-6.1-14.8-6.1s-10.6 2-14.7 6.1c-3.3 3.4-5.2 7.3-5.8 11.8zM371.92 354.401h20.8v83.1h-20.8v-83.1zM398.72 375.201v-20.8h11.1c7.1 0 13.3 2.5 18.4 7.6 5.1 5.1 7.6 11.1 7.6 18.4 0 7.2-2.5 13.4-7.6 18.4-5.1 5.1-11.1 7.6-18.4 7.6h-11.1v-20.8h11.1c1.4 0 2.7-.5 3.6-1.5 1.1-1.1 1.5-2.2 1.5-3.7 0-1.4-.5-2.7-1.5-3.6-1.1-1.1-2.2-1.5-3.6-1.5l-11.1-.1zM481.72 404.301l-17.8 33.2h-23.8l29.7-55.4 11.9 22.2z"/><path d="m490.42 409.301-17.6-32.8 11.9-22.2 44.5 83.1h-23.8l-3.9-7.4h-27.6l11.1-20.8 5.4.1zM573.92 416.501v20.8c-10.2-.6-19-4.7-26.4-12-8.1-8.1-12.2-17.9-12.2-29.4s4-21.2 12.2-29.4c7.4-7.4 16.2-11.5 26.4-12v20.8c-4.5.6-8.4 2.5-11.7 5.8-4 4-6.2 9-6.2 14.8 0 5.7 2 10.6 6.2 14.7 3.3 3.4 7.2 5.4 11.7 5.9zM594.22 384.401c-.7-1.1-1.6-2.1-2.7-3.2-3.4-3.3-7.3-5.3-11.8-5.8v-20.8c10.2.6 19 4.7 26.4 12 2 2 3.7 4 5.2 6.3l-17.1 11.5zM611.52 419.101c-1.5 2.2-3.3 4.4-5.2 6.3-7.4 7.4-16.2 11.5-26.4 12v-20.8c4.5-.6 8.4-2.5 11.8-5.9 1-1 1.9-2 2.7-3.1l17.1 11.5z"/></g></svg>