<svg xmlns="http://www.w3.org/2000/svg" width="576.386" height="79.261"><path d="m129.285 258.009-11.18 20.85L76.18 200.6h22.36zM120.9 231.903l16.77-31.304h22.36l-27.95 52.155zM165.733 200.599h19.62l-.055 78.26h-19.565zM193.683 200.599h19.621l-.056 78.26h-19.565zM218.838 220.164v-19.565h8.385c10.808 0 20.031 3.82 27.671 11.46 7.64 7.64 11.46 16.863 11.46 27.67 0 10.808-3.82 20.031-11.46 27.671-7.64 7.64-16.863 11.46-27.67 11.46h-8.386v-19.566h8.385c5.404 0 10.016-1.91 13.836-5.73 3.82-3.82 5.73-8.431 5.73-13.835 0-5.404-1.91-10.015-5.73-13.835-3.82-3.82-8.432-5.73-13.836-5.73zM274.85 200.599h19.622l-.056 78.26h-19.565zM300.006 200.599h30.746v19.565h-30.746zM300.006 259.294h30.746v19.566h-30.746zM300.006 229.946h30.746v19.566h-30.746zM397.777 242.524h19.677c-.597 9.615-4.398 17.907-11.404 24.876-7.64 7.64-16.864 11.46-27.671 11.46-10.807 0-20.031-3.82-27.67-11.46-6.97-6.969-10.752-15.26-11.349-24.876h19.677c.56 4.211 2.404 7.882 5.535 11.013 3.8 3.838 8.403 5.757 13.807 5.757s10.025-1.919 13.863-5.757c3.13-3.13 4.976-6.802 5.535-11.013zM359.037 236.934H339.36c.597-9.615 4.38-17.907 11.348-24.876 7.64-7.64 16.864-11.46 27.671-11.46 10.807 0 20.031 3.82 27.67 11.46 7.007 6.97 10.808 15.261 11.405 24.876h-19.677c-.56-4.211-2.404-7.9-5.535-11.068-3.838-3.801-8.46-5.702-13.863-5.702-5.404 0-10.006 1.9-13.807 5.702-3.13 3.167-4.976 6.857-5.535 11.068zM426.006 200.599h19.566v78.26h-19.566zM451.162 220.164v-19.565h10.51c6.744 0 12.502 2.385 17.272 7.155 4.77 4.77 7.156 10.528 7.156 17.273 0 6.783-2.385 12.56-7.156 17.33-4.77 4.77-10.528 7.155-17.273 7.155h-10.51v-19.566h10.51c1.342 0 2.488-.475 3.438-1.425.95-.95 1.425-2.115 1.426-3.494 0-1.341-.476-2.487-1.426-3.438-.95-.95-2.096-1.425-3.438-1.425zM529.423 247.555l-16.77 31.305h-22.36l27.95-52.156z" style="font-size:40px;font-style:normal;font-weight:400;line-height:125%;letter-spacing:0;word-spacing:0;fill:#000;fill-opacity:1;stroke:#000;stroke-opacity:1;font-family:Videopac;-inkscape-font-specification:Videopac" transform="translate(-75.68 -200.099)"/><path d="m537.584 252.307-16.546-30.857 11.18-20.851 41.925 78.26h-22.36l-3.745-6.987h-26.05l10.453-19.565zM616.18 259.127v19.62c-9.614-.595-17.906-4.378-24.875-11.347-7.64-7.64-11.46-16.863-11.46-27.67 0-10.808 3.82-20.032 11.46-27.672 6.969-6.969 15.26-10.751 24.876-11.348v19.622c-4.211.559-7.882 2.403-11.013 5.534-3.838 3.838-5.757 8.46-5.757 13.863 0 5.404 1.919 10.006 5.757 13.808 3.13 3.167 6.802 5.03 11.013 5.59zM635.299 228.828a20.355 20.355 0 0 0-2.46-2.962c-3.168-3.13-6.857-4.975-11.068-5.534V200.71c9.615.597 17.907 4.38 24.876 11.348a40.704 40.704 0 0 1 4.919 5.926zM651.566 261.475a40.696 40.696 0 0 1-4.92 5.925c-6.968 6.969-15.26 10.752-24.875 11.348v-19.621c4.211-.56 7.9-2.423 11.068-5.59.932-.932 1.752-1.901 2.46-2.907z" style="font-size:40px;font-style:normal;font-weight:400;line-height:125%;letter-spacing:0;word-spacing:0;fill:#000;fill-opacity:1;stroke:#000;stroke-opacity:1;font-family:Videopac;-inkscape-font-specification:Videopac" transform="translate(-75.68 -200.099)"/></svg>