<?xml version="1.0" encoding="utf-8"?>
<!-- Generator: Adobe Illustrator 18.0.0, SVG Export Plug-In . SVG Version: 6.00 Build 0)  -->
<!DOCTYPE svg PUBLIC "-//W3C//DTD SVG 1.1//EN" "http://www.w3.org/Graphics/SVG/1.1/DTD/svg11.dtd">
<svg version="1.1"
	 id="svg2" xmlns:svg="http://www.w3.org/2000/svg" xmlns:inkscape="http://www.inkscape.org/namespaces/inkscape" xmlns:rdf="http://www.w3.org/1999/02/22-rdf-syntax-ns#" xmlns:dc="http://purl.org/dc/elements/1.1/" xmlns:sodipodi="http://sodipodi.sourceforge.net/DTD/sodipodi-0.dtd" xmlns:cc="http://creativecommons.org/ns#" inkscape:version="0.48.5 r10040" sodipodi:docname="videopac.svg"
	 xmlns="http://www.w3.org/2000/svg" xmlns:xlink="http://www.w3.org/1999/xlink" x="0px" y="0px" viewBox="0 0 612 792"
	 enable-background="new 0 0 612 792" xml:space="preserve">
<sodipodi:namedview  inkscape:cy="4.2432137" showgrid="false" borderopacity="1.0" id="base" bordercolor="#666666" fit-margin-top="0" pagecolor="#ffffff" inkscape:cx="284.52909" inkscape:zoom="1.4" fit-margin-left="0" fit-margin-bottom="0" inkscape:document-units="px" inkscape:window-height="706" fit-margin-right="0" inkscape:window-maximized="1" inkscape:current-layer="layer1" inkscape:pageshadow="2" inkscape:pageopacity="0.0" inkscape:window-width="1366" inkscape:window-y="-8" inkscape:window-x="-8">
	</sodipodi:namedview>
<g id="layer1" transform="translate(-75.679683,-200.09862)" inkscape:groupmode="layer" inkscape:label="Layer 1">
	<g id="g3936">
		<path id="path3904" fill="#7b7d7f" stroke="#FFFFFF" d="M132.6,615.5l-11.9,22.2l-44.5-83.1H100L132.6,615.5z"/>
		<path id="path2987" fill="#7b7d7f" stroke="#FFFFFF" d="M123.7,587.8l17.8-33.2h23.7L135.5,610L123.7,587.8z"/>
		<path id="path2989" inkscape:connector-curvature="0" fill="#7b7d7f" stroke="#FFFFFF" d="M171.3,554.5h20.8l-0.1,83.1h-20.8
			L171.3,554.5z"/>
		<path id="path3908" fill="#7b7d7f" stroke="#FFFFFF" d="M201,554.5h20.8l-0.1,83.1h-20.8L201,554.5z"/>
		<path id="path2991" fill="#7b7d7f" stroke="#FFFFFF" d="M227.6,575.3v-20.8h8.9c11.5,0,21.2,4,29.4,12.2
			c8.1,8.1,12.2,17.9,12.2,29.4s-4,21.2-12.2,29.4c-8.1,8.1-17.9,12.2-29.4,12.2h-8.9V617h8.9c5.7,0,10.6-2,14.7-6.1
			c4-4,6.1-8.9,6.1-14.7s-2-10.6-6.1-14.7c-4-4-8.9-6.1-14.7-6.1L227.6,575.3z"/>
		<path id="path3916" fill="#7b7d7f" stroke="#FFFFFF" d="M287.2,554.5H308l-0.1,83.1h-20.8L287.2,554.5z"/>
		<path id="path3914" fill="#7b7d7f" stroke="#FFFFFF" d="M313.9,554.5h32.6v20.8h-32.6V554.5z"/>
		<path id="path3912" fill="#7b7d7f" stroke="#FFFFFF" d="M313.9,616.9h32.6v20.8h-32.6V616.9z"/>
		<path id="path2993" fill="#7b7d7f" stroke="#FFFFFF" d="M313.9,585.6h32.6v20.8h-32.6V585.6z"/>
		<path id="path3920" fill="#7b7d7f" stroke="#FFFFFF" d="M417.7,599h20.9c-0.6,10.2-4.7,19-12.1,26.4c-8.1,8.1-17.9,12.2-29.4,12.2
			c-11.5,0-21.2-4-29.4-12.2c-7.4-7.4-11.5-16.2-12-26.4h20.8c0.6,4.5,2.5,8.4,5.8,11.7c4,4,8.9,6.2,14.7,6.2s10.6-2,14.8-6.2
			C415.1,607.4,417.1,603.5,417.7,599z"/>
		<path id="path2995" fill="#7b7d7f" stroke="#FFFFFF" d="M376.5,593.1h-20.9c0.6-10.2,4.7-19,12-26.4c8.1-8.1,17.9-12.2,29.4-12.2
			c11.5,0,21.2,4,29.4,12.2c7.4,7.4,11.5,16.2,12.1,26.4h-20.9c-0.6-4.5-2.5-8.4-5.8-11.8c-4-4-9-6.1-14.8-6.1s-10.6,2-14.7,6.1
			C379,584.7,377.1,588.6,376.5,593.1z"/>
		<path id="path3924" fill="#7b7d7f" stroke="#FFFFFF" d="M447.6,554.5h20.8v83.1h-20.8V554.5z"/>
		<path id="path2997" fill="#7b7d7f" stroke="#FFFFFF" d="M474.4,575.3v-20.8h11.1c7.1,0,13.3,2.5,18.4,7.6
			c5.1,5.1,7.6,11.1,7.6,18.4c0,7.2-2.5,13.4-7.6,18.4c-5.1,5.1-11.1,7.6-18.4,7.6h-11.1v-20.8h11.1c1.4,0,2.7-0.5,3.6-1.5
			c1.1-1.1,1.5-2.2,1.5-3.7c0-1.4-0.5-2.7-1.5-3.6c-1.1-1.1-2.2-1.5-3.6-1.5L474.4,575.3z"/>
		<path id="path3928" fill="#7b7d7f" stroke="#FFFFFF" d="M557.4,604.4l-17.8,33.2h-23.8l29.7-55.4L557.4,604.4z"/>
		<path id="path2999" fill="#7b7d7f" stroke="#FFFFFF" d="M566.1,609.4l-17.6-32.8l11.9-22.2l44.5,83.1h-23.8l-3.9-7.4h-27.6
			l11.1-20.8L566.1,609.4z"/>
		<path id="path3934" fill="#7b7d7f" stroke="#FFFFFF" d="M649.6,616.6v20.8c-10.2-0.6-19-4.7-26.4-12c-8.1-8.1-12.2-17.9-12.2-29.4
			s4-21.2,12.2-29.4c7.4-7.4,16.2-11.5,26.4-12v20.8c-4.5,0.6-8.4,2.5-11.7,5.8c-4,4-6.2,9-6.2,14.8c0,5.7,2,10.6,6.2,14.7
			C641.2,614.1,645.1,616.1,649.6,616.6z"/>
		<path id="path3932" fill="#7b7d7f" stroke="#FFFFFF" d="M669.9,584.5c-0.7-1.1-1.6-2.1-2.7-3.2c-3.4-3.3-7.3-5.3-11.8-5.8v-20.8
			c10.2,0.6,19,4.7,26.4,12c2,2,3.7,4,5.2,6.3L669.9,584.5z"/>
		<path id="path3001" fill="#7b7d7f" stroke="#FFFFFF" d="M687.2,619.2c-1.5,2.2-3.3,4.4-5.2,6.3c-7.4,7.4-16.2,11.5-26.4,12v-20.8
			c4.5-0.6,8.4-2.5,11.8-5.9c1-1,1.9-2,2.7-3.1L687.2,619.2z"/>
	</g>
</g>
</svg>
