<svg xmlns="http://www.w3.org/2000/svg" width="598.9" height="351" xml:space="preserve"><g fill="#FFF"><path d="M140.957 37.115c-10.236 0-18.582 8.294-18.582 18.582V297.734c0 8.924 7.244 16.167 16.167 16.167h321.824c8.923 0 16.167-7.243 16.167-16.167V79.056c0-8.924-7.244-16.168-16.167-16.168H256.49c-4.83 0-12.493-3.307-15.328-12.755-1.574-5.354-5.459-8.661-9.238-10.55-3.727-1.89-7.244-2.468-8.819-2.468H140.957zm0 2.415h82.201c.892 0 4.41.525 7.716 2.204 3.36 1.68 6.667 4.462 8.031 9.081 3.097 10.446 11.706 14.435 17.585 14.435h203.824a13.7 13.7 0 0 1 13.752 13.753V297.63a13.7 13.7 0 0 1-13.753 13.753h-321.77a13.7 13.7 0 0 1-13.754-13.753V55.697a16.107 16.107 0 0 1 16.168-16.167z"/><path d="M141.64 79.476c-10.657 0-19.265 8.608-19.265 19.264V278.47h2.414V98.688c0-9.344 7.507-16.85 16.85-16.85h315.63c9.343 0 16.85 7.506 16.85 16.85V278.47h2.414V98.688c0-10.656-8.608-19.265-19.264-19.265h-315.63zM123.11 285.136v9.396h352.688v-9.396H123.11zm.945.945h350.798v7.559H124.055v-7.559z"/><path d="M123.11 293.64v8.293h352.688v-8.293H123.11zm.945.945h350.798v6.456H124.055v-6.456zM217.594 217.895V266.135h48.24v-48.24h-48.24zm2.467 2.467h43.253v43.253H220.06v-43.253zM275.334 217.895V266.135h48.24v-48.24h-48.24zm2.467 2.467h43.253v43.253h-43.253v-43.253zM333.075 217.895V266.135h48.24v-48.24h-48.24zm2.467 2.467h43.252v43.253h-43.252v-43.253zM217.594 102.414V150.654h48.24v-48.24h-48.24zm2.467 2.467h43.253v43.253H220.06v-43.253zM275.334 102.414V150.654h48.24v-48.24h-48.24zm2.467 2.467h43.253v43.253h-43.253v-43.253zM333.075 102.414V150.654h48.24v-48.24h-48.24zm2.467 2.467h43.252v43.253h-43.252v-43.253zM217.594 160.155v48.239h48.24v-48.24h-48.24zm2.467 2.467h43.253v43.252H220.06v-43.252zM275.334 160.155v48.239h48.24v-48.24h-48.24zm2.467 2.467h43.253v43.252h-43.253v-43.252zM333.075 160.155v48.239h48.24v-48.24h-48.24zm2.467 2.467h43.252v43.252h-43.252v-43.252z"/></g></svg>