<?xml version="1.0" encoding="utf-8"?>
<!-- Generator: Adobe Illustrator 18.0.0, SVG Export Plug-In . SVG Version: 6.00 Build 0)  -->
<!DOCTYPE svg PUBLIC "-//W3C//DTD SVG 1.1//EN" "http://www.w3.org/Graphics/SVG/1.1/DTD/svg11.dtd">
<svg version="1.1"
	 id="svg9136" xmlns:dc="http://purl.org/dc/elements/1.1/" xmlns:cc="http://creativecommons.org/ns#" xmlns:inkscape="http://www.inkscape.org/namespaces/inkscape" xmlns:sodipodi="http://sodipodi.sourceforge.net/DTD/sodipodi-0.dtd" xmlns:svg="http://www.w3.org/2000/svg" xmlns:rdf="http://www.w3.org/1999/02/22-rdf-syntax-ns#" sodipodi:docname="controller.svg" inkscape:version="0.91 r13725"
	 xmlns="http://www.w3.org/2000/svg" xmlns:xlink="http://www.w3.org/1999/xlink" x="0px" y="0px" width="598.9px" height="351px"
	 viewBox="0 0 598.9 351" enable-background="new 0 0 598.9 351" xml:space="preserve">
<sodipodi:namedview  inkscape:zoom="0.98994949" units="px" pagecolor="#ffffff" inkscape:cx="234.628" bordercolor="#666666" borderopacity="1.0" fit-margin-top="0" inkscape:cy="216.87511" showgrid="false" fit-margin-left="0" showguides="false" id="base" inkscape:bbox-nodes="true" inkscape:bbox-paths="true" inkscape:snap-bbox="true" inkscape:snap-global="false" fit-margin-bottom="0" fit-margin-right="0" inkscape:window-maximized="1" inkscape:window-y="1" inkscape:current-layer="layer1" inkscape:document-units="px" inkscape:pageopacity="0" inkscape:window-height="808" inkscape:window-x="0" inkscape:window-width="1440" inkscape:pageshadow="2">
	</sodipodi:namedview>
<g id="layer1" transform="translate(9.2011719,-238.94944)" inkscape:label="Layer 1" inkscape:groupmode="layer">
	<g id="g5316" transform="matrix(0.06841316,0,0,0.06841316,13.37323,279.01986)">
	</g>
	<g id="g52354" transform="matrix(0.52491233,0,0,0.52491233,-33.224401,131.08374)">
		<g id="g52401">
			<path id="path7905" inkscape:connector-curvature="0" fill="#FFFFFF" d="M314.3,276.2c-19.5,0-35.4,15.8-35.4,35.4v44.5v13v403.6
				c0,17,13.8,30.8,30.8,30.8h613.1c17,0,30.8-13.8,30.8-30.8V356.1c0-17-13.8-30.8-30.8-30.8H542.6h-8.2c-9.2,0-23.8-6.3-29.2-24.3
				c-3-10.2-10.4-16.5-17.6-20.1c-7.1-3.6-13.8-4.7-16.8-4.7c-42.3,0-119.4,0-154.4,0L314.3,276.2z M314.3,280.8
				c34.2,0,113.7,0,156.6,0c1.7,0,8.4,1,14.7,4.2c6.4,3.2,12.7,8.5,15.3,17.3c5.9,19.9,22.3,27.5,33.5,27.5h8.2h380.1
				c14.6,0,26.2,11.7,26.2,26.2v416.5c0,14.6-11.7,26.2-26.2,26.2H309.7c-14.6,0-26.2-11.7-26.2-26.2V369.1v-13v-44.5
				C283.5,294.5,297.2,280.8,314.3,280.8L314.3,280.8z"/>
			<path id="path7907" inkscape:connector-curvature="0" fill="#FFFFFF" d="M315.6,356.9c-20.3,0-36.7,16.4-36.7,36.7v57v246.8V736
				h4.6v-38.6V450.5v-57c0-17.8,14.3-32.1,32.1-32.1h601.3c17.8,0,32.1,14.3,32.1,32.1v57v246.8V736h4.6v-38.6V450.5v-57
				c0-20.3-16.4-36.7-36.7-36.7H315.6z"/>
			<path id="rect7909" inkscape:connector-curvature="0" fill="#FFFFFF" d="M280.3,748.7v0.9v17h671.9v-17.9H280.3z M282.1,750.5
				h668.3v14.4H282.1V750.5z"/>
			<path id="rect5420" inkscape:connector-curvature="0" fill="#FFFFFF" d="M280.3,764.9v0.9v14.9h671.9v-15.8H280.3z M282.1,766.7
				h668.3v12.3H282.1V766.7z"/>
			<path id="rect52301" inkscape:connector-curvature="0" fill="#FFFFFF" d="M460.3,620.6v2.4v89.5h91.9v-91.9H460.3z M465,625.3
				h82.4v82.4H465V625.3z"/>
			<path id="rect52303" inkscape:connector-curvature="0" fill="#FFFFFF" d="M570.3,620.6v2.4v89.5h91.9v-91.9H570.3z M575,625.3
				h82.4v82.4H575V625.3z"/>
			<path id="rect52305" inkscape:connector-curvature="0" fill="#FFFFFF" d="M680.3,620.6v2.4v89.5h91.9v-91.9H680.3z M685,625.3
				h82.4v82.4H685V625.3z"/>
			<path id="rect52309" inkscape:connector-curvature="0" fill="#FFFFFF" d="M460.3,400.6v2.4v89.5h91.9v-91.9H460.3z M465,405.3
				h82.4v82.4H465V405.3z"/>
			<path id="rect52311" inkscape:connector-curvature="0" fill="#FFFFFF" d="M570.3,400.6v2.4v89.5h91.9v-91.9H570.3z M575,405.3
				h82.4v82.4H575V405.3z"/>
			<path id="rect52313" inkscape:connector-curvature="0" fill="#FFFFFF" d="M680.3,400.6v2.4v89.5h91.9v-91.9H680.3z M685,405.3
				h82.4v82.4H685V405.3z"/>
			<path id="rect52325" inkscape:connector-curvature="0" fill="#FFFFFF" d="M460.3,510.6v2.4v89.5h91.9v-91.9H460.3z M465,515.3
				h82.4v82.4H465V515.3z"/>
			<path id="rect52327" inkscape:connector-curvature="0" fill="#FFFFFF" d="M570.3,510.6v2.4v89.5h91.9v-91.9H570.3z M575,515.3
				h82.4v82.4H575V515.3z"/>
			<path id="rect52329" inkscape:connector-curvature="0" fill="#FFFFFF" d="M680.3,510.6v2.4v89.5h91.9v-91.9H680.3z M685,515.3
				h82.4v82.4H685V515.3z"/>
		</g>
	</g>
</g>
</svg>
