<svg xmlns="http://www.w3.org/2000/svg" viewBox="0 0 566.9 185.1" xml:space="preserve"><g fill="#c3c6c5"><path d="M103.222 160.874c5.3 0 8.5-1.1 8.5-6.2 0-3.8-2.3-5.8-7.7-5.8h-7.4v11.9h6.6zm-9.3 15.7v-30h11c7.8 0 9.8 3.9 9.8 8.4 0 6.7-6 8.4-11.5 8.4h-6.4v13.2h-2.9M118.422 176.574h2.4v-30h-2.4v30zM141.222 165.274c-2.1.9-4.4 1-6.5 1.2-3.8.3-6.1 1.7-6.1 4.6 0 2.6 2.3 3.9 4.7 3.9 4 0 7.9-1.9 7.9-6.3v-3.4zm-4.2-1.3c1-.1 2.5-.3 3.3-.7.9-.4 1-1.5 1-2.2 0-2.5-1.6-4.4-5.4-4.4-3.4 0-5.8 1.1-6.3 4.9h-2.5c.4-5.1 4.2-7.1 8.9-7.1 4.4 0 7.8 1.7 7.8 6.7v11.7c0 2 .6 2.4 2.6 1.7v2c-.3.1-1.2.4-1.9.4-.4 0-.7 0-1.1-.1-1.7-.2-2-1.7-2-3.2-2 2.3-4.9 3.6-8 3.6-3.8 0-7.2-2-7.2-6.2 0-3.6 2.5-5.8 7.6-6.5l3.2-.6M149.922 182.474c.7.1 1.4.3 2 .3 2.9 0 3.3-4.1 4.3-6l-8.4-21.7h2.8l7 18.5 6.9-18.5h2.7l-8 21.3c-2 5.4-3.4 8.8-6.9 8.8-.9 0-1.6-.1-2.3-.3l-.1-2.4M173.022 167.574c.5 5.4 4 7.3 8.6 7.3 5.3 0 7.6-2.9 7.6-6.2 0-9.3-18.2-3.1-18.2-14.9 0-4.2 3.4-8 10.2-8 6.7 0 10.1 4.1 10 9h-2.6c0-4.6-3.6-6.5-7.4-6.5-5.8 0-7.9 3.5-7.4 6.6 1.3 7.7 18.3 2.2 18.3 13.8 0 5.5-4.1 8.7-11 8.7-6.3 0-11-3.2-11-9.7l2.9-.1M205.122 176.674c-.6.1-1.6.5-2.9.5-2.4 0-3.8-1.1-3.8-4.3v-15.8h-3.1v-2.1h3.1v-6h2.5v6h4v2.1h-4v14.8c0 2.1 0 3 2.1 3 .7 0 1.4-.1 2-.3v2.1M223.822 165.274c-2.1.9-4.3 1-6.4 1.2-3.8.3-6.1 1.7-6.1 4.6 0 2.6 2.3 3.9 4.7 3.9 4 0 7.9-1.9 7.9-6.3l-.1-3.4zm-4.1-1.3c.9-.1 2.4-.3 3.3-.7.8-.4.9-1.5.9-2.2 0-2.5-1.5-4.4-5.3-4.4-3.5 0-5.8 1.1-6.3 4.9h-2.5c.4-5.1 4.2-7.1 8.8-7.1 4.4 0 7.9 1.7 7.9 6.7v11.7c0 2 .5 2.4 2.6 1.7v2c-.4.1-1.3.4-1.9.4-.4 0-.8 0-1.2-.1-1.6-.2-1.9-1.7-1.9-3.2-2.1 2.3-4.9 3.6-8 3.6-3.8 0-7.3-2-7.3-6.2 0-3.6 2.5-5.8 7.6-6.5l3.3-.6M241.122 176.674c-.6.1-1.6.5-2.9.5-2.4 0-3.8-1.1-3.8-4.3v-15.8h-3v-2.1h3v-6h2.5v6h4v2.1h-4v14.8c0 2.1 0 3 2.1 3 .7 0 1.4-.1 2-.3l.1 2.1M248.522 176.574h-2.4v-21.6h2.4v21.6zm-2.6-26.3v-3.7h2.8v3.7h-2.8M263.322 156.674c-5.2 0-7.3 4.4-7.3 9.1 0 5.4 2.5 9.1 7.3 9.1 5.2 0 7.4-4.5 7.4-9.1-.1-5.1-2.1-9.1-7.4-9.1zm-10 9.1c0-6.3 3.4-11.4 10-11.4 6.8 0 10.1 5 10.1 11.4 0 6.8-4 11.4-10.1 11.4-5.5-.1-10-3.9-10-11.4M279.422 176.574h-2.5v-21.6h2.5v3c1.9-2.1 4-3.6 6.9-3.6 2.7 0 5 .8 6.6 3.1 1.1 1.6 1.2 3.2 1.2 5v14.1h-2.5v-14.1c0-3.9-1.6-5.8-5.6-5.8-3.1 0-5.2 2-6 4.2-.5 1.4-.5 2.6-.5 4.1l-.1 11.6M303.822 169.574c-.3-.1-.7-.2-1.3-.2h-.8v2h.9c.4 0 .8 0 1-.1.4-.2.6-.4.6-.9 0-.4-.2-.7-.4-.8zm-1.1-.9c.7 0 1.2.1 1.6.2.6.2.8.7.8 1.4 0 .5-.1.9-.5 1.1-.2.1-.5.2-.8.3.4.1.7.3.9.6.2.3.3.6.3.9v.4c0 .1 0 .3.1.4v.4h-.9v-.1l-.1-.2v-.4c0-.7-.2-1.1-.5-1.3-.2-.1-.6-.2-1.1-.2h-.8v2.2h-1v-5.6l2-.1zm-3-.3c-.9.9-1.3 1.9-1.3 3.1 0 1.2.4 2.3 1.3 3.1.9.9 1.8 1.3 3.1 1.3s2.2-.4 3.1-1.3c.9-.9 1.3-1.9 1.3-3.1 0-1.2-.4-2.2-1.3-3.1-.9-.9-1.8-1.3-3.1-1.3-1.2 0-2.2.5-3.1 1.3zm6.7 6.7c-1 1-2.2 1.5-3.6 1.5s-2.6-.5-3.6-1.5-1.5-2.2-1.5-3.6.5-2.6 1.5-3.6 2.2-1.5 3.6-1.5 2.6.5 3.6 1.5 1.5 2.2 1.5 3.6-.5 2.6-1.5 3.6M324.922 160.874c5.3 0 8.6-1.1 8.6-6.2 0-3.8-2.4-5.8-7.8-5.8h-7.4v11.9h6.6zm-9.3 15.7v-30h11c7.8 0 9.8 3.9 9.8 8.4 0 6.7-5.9 8.4-11.5 8.4h-6.4v13.2h-2.9M347.522 156.674c-5.2 0-7.4 4.4-7.4 9.1 0 5.4 2.6 9.1 7.4 9.1 5.2 0 7.4-4.5 7.4-9.1-.1-5.1-2-9.1-7.4-9.1zm-10 9.1c0-6.3 3.3-11.4 10-11.4 6.8 0 10 5 10 11.4 0 6.8-4 11.4-10 11.4-5.5-.1-10-3.9-10-11.4M363.722 176.574h-2.5v-21.6h2.5v4h.1c1.4-3.5 3.4-4.6 7-4.6v2.7c-5.6-.1-7.1 4-7.1 8.9v10.6M384.822 176.674c-.6.1-1.6.5-2.8.5-2.5 0-3.9-1.1-3.9-4.3v-15.8h-3v-2.1h3v-6h2.5v6h4.1v2.1h-4.1v14.8c0 2.1.1 3 2.1 3 .7 0 1.5-.1 2-.3l.1 2.1M402.722 165.274c-2.1.9-4.3 1-6.4 1.2-3.8.3-6.1 1.7-6.1 4.6 0 2.6 2.3 3.9 4.7 3.9 4 0 7.9-1.9 7.9-6.3l-.1-3.4zm-4.2-1.3c.9-.1 2.4-.3 3.3-.7.8-.4.9-1.5.9-2.2 0-2.5-1.5-4.4-5.3-4.4-3.5 0-5.8 1.1-6.3 4.9h-2.5c.4-5.1 4.2-7.1 8.8-7.1 4.4 0 7.9 1.7 7.9 6.7v11.7c0 2 .5 2.4 2.6 1.7v2c-.4.1-1.3.4-1.9.4-.4 0-.8 0-1.2-.1-1.6-.2-1.9-1.7-1.9-3.2-2.1 2.3-4.9 3.6-8 3.6-3.8 0-7.3-2-7.3-6.2 0-3.6 2.5-5.8 7.6-6.5l3.3-.6M422.522 174.874c4.2 0 7.3-3 7.4-8.5.2-5.4-2.2-9.8-7.4-9.8-4.6 0-7.3 4.2-7.3 9 0 5.3 2.5 9.3 7.3 9.3zm-7.3 1.7h-2.5v-30h2.5v11.9c1.6-2.6 4.7-4 7.7-4 6.6 0 9.6 5.4 9.6 11.4 0 6.4-2.7 11.3-9.7 11.3-2.8 0-6-1.5-7.6-4.4v3.8M438.022 176.574h2.5v-30h-2.5v30zM462.222 164.274c0-4.2-2.3-7.6-6.8-7.6s-6.8 3.5-7.3 7.6h14.1zm-14 2.1c0 4.7 2.5 8.5 7.3 8.5 3.2 0 5.8-1.8 6.5-5h2.8c-1.3 4.1-3.8 7.2-9.3 7.2-6.9 0-9.9-4.9-9.9-11.3 0-6.3 3.7-11.5 9.9-11.5 5.9 0 9.5 4.2 9.5 12l-16.8.1M.022-.026h176.6v52.4H7.022v45.4h-7v-52.4h169.7v-38.4H.022v-7M397.322 52.374v45.4h-7v-52.4h169.6v-38.4h-169.6v-7h176.6v52.4h-169.6M266.722-.026v90.8h-90.1v7h97.4v-90.8h90.1v-7h-97.4"/></g></svg>