<?xml version="1.0" encoding="utf-8"?>
<!-- Generator: Adobe Illustrator 18.0.0, SVG Export Plug-In . SVG Version: 6.00 Build 0)  -->
<!DOCTYPE svg PUBLIC "-//W3C//DTD SVG 1.1//EN" "http://www.w3.org/Graphics/SVG/1.1/DTD/svg11.dtd">
<svg version="1.1"
	 id="svg4237" xmlns:svg="http://www.w3.org/2000/svg" xmlns:inkscape="http://www.inkscape.org/namespaces/inkscape" xmlns:rdf="http://www.w3.org/1999/02/22-rdf-syntax-ns#" xmlns:dc="http://purl.org/dc/elements/1.1/" xmlns:sodipodi="http://sodipodi.sourceforge.net/DTD/sodipodi-0.dtd" xmlns:cc="http://web.resource.org/cc/" sodipodi:version="0.32" sodipodi:docbase="F:\Logos" inkscape:version="0.44" sodipodi:docname="PlaystationPortable.svg"
	 xmlns="http://www.w3.org/2000/svg" xmlns:xlink="http://www.w3.org/1999/xlink" x="0px" y="0px" viewBox="0 0 566.9 185.1"
	 enable-background="new 0 0 566.9 185.1" xml:space="preserve">
<sodipodi:namedview  inkscape:cy="-11.131139" borderopacity="1.0" id="base" bordercolor="#666666" pagecolor="#ffffff" inkscape:cx="522.4006" inkscape:zoom="0.35" inkscape:document-units="px" inkscape:window-height="573" inkscape:current-layer="layer1" inkscape:pageshadow="2" inkscape:pageopacity="0.0" inkscape:window-width="925" inkscape:window-y="378" inkscape:window-x="10">
	</sodipodi:namedview>
<g id="layer1" transform="translate(2.322326,-490.7257)" inkscape:groupmode="layer" inkscape:label="Ebene 1">
	<path id="path6905" fill="#9e9e9e" d="M100.9,651.6c5.3,0,8.5-1.1,8.5-6.2c0-3.8-2.3-5.8-7.7-5.8h-7.4v11.9H100.9z M91.6,667.3v-30
		h11c7.8,0,9.8,3.9,9.8,8.4c0,6.7-6,8.4-11.5,8.4h-6.4v13.2L91.6,667.3"/>
	<path id="path6907" fill="#9e9e9e" d="M116.1,667.3h2.4v-30h-2.4V667.3z"/>
	<path id="path6909" fill="#9e9e9e" d="M138.9,656c-2.1,0.9-4.4,1-6.5,1.2c-3.8,0.3-6.1,1.7-6.1,4.6c0,2.6,2.3,3.9,4.7,3.9
		c4,0,7.9-1.9,7.9-6.3L138.9,656L138.9,656z M134.7,654.7c1-0.1,2.5-0.3,3.3-0.7c0.9-0.4,1-1.5,1-2.2c0-2.5-1.6-4.4-5.4-4.4
		c-3.4,0-5.8,1.1-6.3,4.9h-2.5c0.4-5.1,4.2-7.1,8.9-7.1c4.4,0,7.8,1.7,7.8,6.7v11.7c0,2,0.6,2.4,2.6,1.7v2c-0.3,0.1-1.2,0.4-1.9,0.4
		c-0.4,0-0.7,0-1.1-0.1c-1.7-0.2-2-1.7-2-3.2c-2,2.3-4.9,3.6-8,3.6c-3.8,0-7.2-2-7.2-6.2c0-3.6,2.5-5.8,7.6-6.5L134.7,654.7"/>
	<path id="path6911" fill="#9e9e9e" d="M147.6,673.2c0.7,0.1,1.4,0.3,2,0.3c2.9,0,3.3-4.1,4.3-6l-8.4-21.7h2.8l7,18.5l6.9-18.5h2.7
		l-8,21.3c-2,5.4-3.4,8.8-6.9,8.8c-0.9,0-1.6-0.1-2.3-0.3L147.6,673.2"/>
	<path id="path6913" fill="#9e9e9e" d="M170.7,658.3c0.5,5.4,4,7.3,8.6,7.3c5.3,0,7.6-2.9,7.6-6.2c0-9.3-18.2-3.1-18.2-14.9
		c0-4.2,3.4-8,10.2-8c6.7,0,10.1,4.1,10,9h-2.6c0-4.6-3.6-6.5-7.4-6.5c-5.8,0-7.9,3.5-7.4,6.6c1.3,7.7,18.3,2.2,18.3,13.8
		c0,5.5-4.1,8.7-11,8.7c-6.3,0-11-3.2-11-9.7L170.7,658.3"/>
	<path id="path6915" fill="#9e9e9e" d="M202.8,667.4c-0.6,0.1-1.6,0.5-2.9,0.5c-2.4,0-3.8-1.1-3.8-4.3v-15.8H193v-2.1h3.1v-6h2.5v6
		h4v2.1h-4v14.8c0,2.1,0,3,2.1,3c0.7,0,1.4-0.1,2-0.3V667.4"/>
	<path id="path6917" fill="#9e9e9e" d="M221.5,656c-2.1,0.9-4.3,1-6.4,1.2c-3.8,0.3-6.1,1.7-6.1,4.6c0,2.6,2.3,3.9,4.7,3.9
		c4,0,7.9-1.9,7.9-6.3L221.5,656L221.5,656z M217.4,654.7c0.9-0.1,2.4-0.3,3.3-0.7c0.8-0.4,0.9-1.5,0.9-2.2c0-2.5-1.5-4.4-5.3-4.4
		c-3.5,0-5.8,1.1-6.3,4.9h-2.5c0.4-5.1,4.2-7.1,8.8-7.1c4.4,0,7.9,1.7,7.9,6.7v11.7c0,2,0.5,2.4,2.6,1.7v2c-0.4,0.1-1.3,0.4-1.9,0.4
		c-0.4,0-0.8,0-1.2-0.1c-1.6-0.2-1.9-1.7-1.9-3.2c-2.1,2.3-4.9,3.6-8,3.6c-3.8,0-7.3-2-7.3-6.2c0-3.6,2.5-5.8,7.6-6.5L217.4,654.7"
		/>
	<path id="path6919" fill="#9e9e9e" d="M238.8,667.4c-0.6,0.1-1.6,0.5-2.9,0.5c-2.4,0-3.8-1.1-3.8-4.3v-15.8h-3v-2.1h3v-6h2.5v6h4
		v2.1h-4v14.8c0,2.1,0,3,2.1,3c0.7,0,1.4-0.1,2-0.3L238.8,667.4"/>
	<path id="path6921" fill="#9e9e9e" d="M246.2,667.3h-2.4v-21.6h2.4V667.3z M243.6,641v-3.7h2.8v3.7H243.6"/>
	<path id="path6923" fill="#9e9e9e" d="M261,647.4c-5.2,0-7.3,4.4-7.3,9.1c0,5.4,2.5,9.1,7.3,9.1c5.2,0,7.4-4.5,7.4-9.1
		C268.3,651.4,266.3,647.4,261,647.4z M251,656.5c0-6.3,3.4-11.4,10-11.4c6.8,0,10.1,5,10.1,11.4c0,6.8-4,11.4-10.1,11.4
		C255.5,667.8,251,664,251,656.5"/>
	<path id="path6925" fill="#9e9e9e" d="M277.1,667.3h-2.5v-21.6h2.5v3c1.9-2.1,4-3.6,6.9-3.6c2.7,0,5,0.8,6.6,3.1
		c1.1,1.6,1.2,3.2,1.2,5v14.1h-2.5v-14.1c0-3.9-1.6-5.8-5.6-5.8c-3.1,0-5.2,2-6,4.2c-0.5,1.4-0.5,2.6-0.5,4.1L277.1,667.3"/>
	<path id="path6927" fill="#9e9e9e" d="M301.5,660.3c-0.3-0.1-0.7-0.2-1.3-0.2h-0.8v2h0.9c0.4,0,0.8,0,1-0.1
		c0.4-0.2,0.6-0.4,0.6-0.9C301.9,660.7,301.7,660.4,301.5,660.3z M300.4,659.4c0.7,0,1.2,0.1,1.6,0.2c0.6,0.2,0.8,0.7,0.8,1.4
		c0,0.5-0.1,0.9-0.5,1.1c-0.2,0.1-0.5,0.2-0.8,0.3c0.4,0.1,0.7,0.3,0.9,0.6c0.2,0.3,0.3,0.6,0.3,0.9v0.4c0,0.1,0,0.3,0.1,0.4
		c0,0.2,0,0.3,0,0.3v0.1h-0.9c0,0,0,0,0,0c0,0,0,0,0-0.1l-0.1-0.2v-0.4c0-0.7-0.2-1.1-0.5-1.3c-0.2-0.1-0.6-0.2-1.1-0.2h-0.8v2.2h-1
		v-5.6L300.4,659.4L300.4,659.4L300.4,659.4z M297.4,659.1c-0.9,0.9-1.3,1.9-1.3,3.1c0,1.2,0.4,2.3,1.3,3.1c0.9,0.9,1.8,1.3,3.1,1.3
		c1.3,0,2.2-0.4,3.1-1.3c0.9-0.9,1.3-1.9,1.3-3.1c0-1.2-0.4-2.2-1.3-3.1c-0.9-0.9-1.8-1.3-3.1-1.3
		C299.3,657.8,298.3,658.3,297.4,659.1z M304.1,665.8c-1,1-2.2,1.5-3.6,1.5c-1.4,0-2.6-0.5-3.6-1.5c-1-1-1.5-2.2-1.5-3.6
		c0-1.4,0.5-2.6,1.5-3.6c1-1,2.2-1.5,3.6-1.5c1.4,0,2.6,0.5,3.6,1.5c1,1,1.5,2.2,1.5,3.6C305.6,663.6,305.1,664.8,304.1,665.8"/>
	<path id="path6929" fill="#9e9e9e" d="M322.6,651.6c5.3,0,8.6-1.1,8.6-6.2c0-3.8-2.4-5.8-7.8-5.8h-7.4v11.9H322.6z M313.3,667.3
		v-30h11c7.8,0,9.8,3.9,9.8,8.4c0,6.7-5.9,8.4-11.5,8.4h-6.4v13.2L313.3,667.3"/>
	<path id="path6931" fill="#9e9e9e" d="M345.2,647.4c-5.2,0-7.4,4.4-7.4,9.1c0,5.4,2.6,9.1,7.4,9.1c5.2,0,7.4-4.5,7.4-9.1
		C352.5,651.4,350.6,647.4,345.2,647.4z M335.2,656.5c0-6.3,3.3-11.4,10-11.4c6.8,0,10,5,10,11.4c0,6.8-4,11.4-10,11.4
		C339.7,667.8,335.2,664,335.2,656.5"/>
	<path id="path6933" fill="#9e9e9e" d="M361.4,667.3h-2.5v-21.6h2.5v4h0.1c1.4-3.5,3.4-4.6,7-4.6v2.7c-5.6-0.1-7.1,4-7.1,8.9
		L361.4,667.3"/>
	<path id="path6935" fill="#9e9e9e" d="M382.5,667.4c-0.6,0.1-1.6,0.5-2.8,0.5c-2.5,0-3.9-1.1-3.9-4.3v-15.8h-3v-2.1h3v-6h2.5v6h4.1
		v2.1h-4.1v14.8c0,2.1,0.1,3,2.1,3c0.7,0,1.5-0.1,2-0.3L382.5,667.4"/>
	<path id="path6937" fill="#9e9e9e" d="M400.4,656c-2.1,0.9-4.3,1-6.4,1.2c-3.8,0.3-6.1,1.7-6.1,4.6c0,2.6,2.3,3.9,4.7,3.9
		c4,0,7.9-1.9,7.9-6.3L400.4,656L400.4,656z M396.2,654.7c0.9-0.1,2.4-0.3,3.3-0.7c0.8-0.4,0.9-1.5,0.9-2.2c0-2.5-1.5-4.4-5.3-4.4
		c-3.5,0-5.8,1.1-6.3,4.9h-2.5c0.4-5.1,4.2-7.1,8.8-7.1c4.4,0,7.9,1.7,7.9,6.7v11.7c0,2,0.5,2.4,2.6,1.7v2c-0.4,0.1-1.3,0.4-1.9,0.4
		c-0.4,0-0.8,0-1.2-0.1c-1.6-0.2-1.9-1.7-1.9-3.2c-2.1,2.3-4.9,3.6-8,3.6c-3.8,0-7.3-2-7.3-6.2c0-3.6,2.5-5.8,7.6-6.5L396.2,654.7"
		/>
	<path id="path6939" fill="#9e9e9e" d="M420.2,665.6c4.2,0,7.3-3,7.4-8.5c0.2-5.4-2.2-9.8-7.4-9.8c-4.6,0-7.3,4.2-7.3,9
		C412.9,661.6,415.4,665.6,420.2,665.6z M412.9,667.3h-2.5v-30h2.5v11.9c1.6-2.6,4.7-4,7.7-4c6.6,0,9.6,5.4,9.6,11.4
		c0,6.4-2.7,11.3-9.7,11.3c-2.8,0-6-1.5-7.6-4.4l0,0L412.9,667.3"/>
	<path id="path6941" fill="#9e9e9e" d="M435.7,667.3h2.5v-30h-2.5V667.3z"/>
	<path id="path6943" fill="#9e9e9e" d="M459.9,655c0-4.2-2.3-7.6-6.8-7.6c-4.5,0-6.8,3.5-7.3,7.6H459.9z M445.9,657.1
		c0,4.7,2.5,8.5,7.3,8.5c3.2,0,5.8-1.8,6.5-5h2.8c-1.3,4.1-3.8,7.2-9.3,7.2c-6.9,0-9.9-4.9-9.9-11.3c0-6.3,3.7-11.5,9.9-11.5
		c5.9,0,9.5,4.2,9.5,12L445.9,657.1"/>
	<path id="path6945" fill="#9e9e9e" d="M-2.3,490.7h176.6v52.4H4.7v45.4h-7v-52.4h169.7v-38.4H-2.3V490.7"/>
	<path id="path6947" fill="#9e9e9e" d="M395,543.1v45.4h-7v-52.4h169.6v-38.4H388v-7h176.6v52.4H395"/>
	<path id="path6949" fill="#9e9e9e" d="M264.4,490.7v90.8h-90.1v7h97.4v-90.8h90.1v-7H264.4"/>
</g>
</svg>
