<svg xmlns="http://www.w3.org/2000/svg" viewBox="0 0 566.9 98.4" xml:space="preserve"><path fill="#01954B" d="M59.3 59.9c0 8.2-13.3 14.8-29.7 14.8C13.3 74.8 0 68.1 0 59.9c0-8.2 13.3-14.8 29.7-14.8 16.3 0 29.6 6.6 29.6 14.8z"/><path fill="#F9EC2B" d="M110.4 83.4c0 8.2-13.3 14.8-29.7 14.8S51 91.6 51 83.4c0-8.2 13.3-14.8 29.7-14.8 16.4-.1 29.7 6.6 29.7 14.8z"/><path fill="#323B98" d="M60.4.3C45.5.3 33.3 12.2 33 27.1c.6 0 1.2-.1 1.9-.1C50 27 62.3 39.3 62.3 54.5v.7c14.3-1 25.6-12.9 25.6-27.4C87.9 12.6 75.6.3 60.4.3z"/><path fill="#EB2D2F" d="M112.4 24.3c-15.2 0-27.5 12.3-27.5 27.5v1H86c14.8 0 26.9 11.8 27.4 26.5 14.7-.6 26.4-12.6 26.4-27.4.1-15.3-12.2-27.6-27.4-27.6z"/><path fill="#c3c6c5" d="M186.9 0c-3.8 0-7.4 3.1-8.1 6.9V7.2l-.1.1v.2l-.1.1v.1l-.1.1V8l-.1.1v.2l-.1.2-.1.2-.1.4-.1.5-.1.5-.1.5-.1.5-.1.5-.1.6-.1.5-.2 1.2-.1.6-.1.5-.1.5-.1.5-.1.5-.1.5-.1.5-.1.4-.1.5v.6l-.1.1V19.4l-.1.2v.2l-.1.1v.2c-.1 1.7.2 4 .7 4.4.7 3.7 13 20.8 12.6 23.4-.3 2.6-1.8 10.3-1.8 10.3-.4 2.6-2.2 4.7-4.8 4.7-2.6 0-4.4-2.1-3.9-4.7l2.3-12.7h-9.2L169 63.2c-.6 3.6 1.8 6.4 5.4 6.4h13.1c3.6 0 7.1-2.8 7.7-6.4 0 0 3.4-16.5 3.4-17.7 0-1.2-.3-1.3-.3-1.3 0-1.3-10.9-19.4-12.1-20.1-.5-.3-.9-2.1-.9-3.1 0-1.1 1.4-8.3 1.4-8.3.4-2.6 2.9-4.7 5.5-4.7s3.7 2.1 3.2 4.7l-2 11.4h9.2l3.2-17.2c.7-3.8-1.7-6.9-5.5-6.9h-13.4zm25.2 0-11 63.2c-.6 3.6 1.8 6.4 5.4 6.4h13.1c3.6 0 7.1-2.8 7.8-6.4L239.2 0H231l-11.2 61.4c-.2.9-1 1.6-1.9 1.6h-6.5c-.9 0-1.5-.7-1.4-1.6L220.9 0h-8.8zm31.5 0-13.2 69.6h8.8l6-31.5h11.2c3.6 0 7.1-2.9 7.7-6.4L268.9 7c.7-3.8-1.7-6.9-5.5-6.9h-19.8zm31.3 0-13.7 69.6h19.7l1.4-8.6h-9.7l4-23.5h9.7l1.4-7.3H278l4.3-21.6h9.7l1.4-8.6h-18.5zm23.6 0-13.2 69.6h8.8l6-31.5h6.2c.8.8.9 2.2 1 2.9.2 1 .3 2.3.2 3.4-.1 1-4.8 25.3-4.8 25.3h8.8s4.9-26.4 4.9-26.9c0-.4 0-1.8-.5-2.5-.3-.5-.9-1.6-1.5-2-1.2-.8-2.6-1.3-2.6-1.3h-.6c2.5-1 7.2-2.6 7.7-5.3L323.7 7c.7-3.8-1.7-6.9-5.5-6.9h-19.7zm46.9 0-13.2 69.6h10.1l8.1-40.3 3.2 40.3h8.8L375.6 0h-10.1l-6.9 36.4L354.2 0h-8.8zm34.8 0L367 69.6h8.8L389 0h-8.8zm13.4 0-13.2 69.6h10.1l8.2-40.3 3.2 40.3h8.8L423.8 0h-10.1l-6.8 36.4L402.4 0h-8.8zm33.9 0-1.6 8.6h5.5l-10.8 61h10l11-61h5.3l1.4-8.6h-20.8zm24.1 0L438 69.6h19.7L459 61h-9.7l4-23.5h9.7l1.4-7.3h-9.7L459 8.6h9.7l1.4-8.6h-18.5zm22.3 0-13.2 69.6h10.1l8.2-40.3 3.2 40.3h8.8L504.2 0h-10.1l-6.8 36.4L482.7 0h-8.8zm34.9 0-13.2 69.6h20c3.6 0 7.1-2.8 7.8-6.4L534 6.9c.7-3.8-1.7-6.9-5.5-6.9h-19.7zm37.6 0c-3.8 0-7.3 3.1-8 6.9l-9.8 56.2c-.6 3.6 1.7 6.4 5.3 6.4h14.5c3.6 0 7.1-2.8 7.8-6.4l10.6-56.2c.7-3.8-1.7-6.9-5.5-6.9h-14.9zm-30.2 8h4c2.6 0 4.3 2.1 3.9 4.7l-8.6 45.6c-.5 2.6-3 4.7-5.5 4.7h-4l10.2-55zm35.3 0h.3c2.6 0 4.3 2.1 3.8 4.7l-8.2 45.6c-.4 2.6-2.8 4.7-5.4 4.7-2.6 0-3.7-2.1-3.2-4.7l8.2-45.6.1-.2.1-.2.1-.3.1-.2.1-.3.1-.2.1-.2.1-.2.1-.2.1-.2.1-.2.1-.2.1-.1.1-.2.1-.2.2-.1.1-.1.1-.1.2-.1.2-.1.1-.1.2-.1.2-.1.2-.1.1-.1.3-.1.2-.1h.2l.2-.1h.3l.2-.3zM252 8.3h4.2c.9 0 2.9 2.1 2.7 3.1l-3.6 17.2c-.2.9-1.4 2.9-2.3 2.9H247.8l-.1-.1h-.4v-.1h-.2l-.1-.1h-.1l-.1-.1-.1-.1h.3v-.1.1l-.1-.1v-.1l-.1-.1-.1-.1v-.2l-.1-.1v-.2l-.1-.1v-.5l4.1-21c.5 0 1-.2 1.4-.2zm54.6 0h4.3c.9 0 2.9 2.1 2.7 3.1L310 28.5c-.2.9-2.4 3-3.3 3h-3.8c-.8 0-1.3-.5-1.4-1.2v-.4l4-21 .1-.1.1-.1.1-.1h.1l.1-.1.1-.1h.1l.1-.1h.1l.1-.1h.1v.1zM167.4 75.6v22.8h391V75.6h-391zM454.9 78h3.4c.8 0 1.4.7 1.2 1.5l-.8 3.8h-1.8l.4-2.5c.1-.6-.2-1-.8-1-.6 0-1.1.5-1.2 1l-.3 1.8c-.1.1.1.6.2.7.3.1 2.7 4.2 2.7 4.5.1.1.1.2.1.3-.1.5-.8 3.9-.8 3.9-.1.8-.9 1.4-1.7 1.4h-2.9c-.8 0-1.3-.7-1.2-1.4l.7-3.9h2l-.5 2.8c-.1.6.2 1.1.8 1.1.6 0 1.1-.5 1.2-1.1l.4-2.3c-.4-.9-2.8-4.4-2.9-5.2-.1-.1-.2-.6-.1-1 0-.4.5-2.9.5-2.9h.1V79.2l.1-.1V79l.1-.1v.1l.1-.1v-.1l.1-.1.1-.1v-.1h.1l.1-.1.1-.1.1-.1v-.1h.1l.1-.1.1-.1h.1l.1-.1h.1l.1-.1h.1l-.4.3zm15.7 0h2.5l.3 5.8 3.1-5.8h2.5l-5.1 8.9-1.2 6.5h-2.2l1.1-7-1-8.4zm22.4 0h3.4c.8 0 1.4.7 1.2 1.5l-.8 3.8H495l.4-2.5c.1-.6-.2-1-.8-1-.6 0-1.1.5-1.2 1l-.3 1.8c-.1.1.1.6.2.7.2.1 2.7 4.2 2.7 4.5v.3c-.1.5-.7 3.9-.7 3.9-.1.8-.9 1.4-1.7 1.4h-2.9c-.8 0-1.3-.7-1.2-1.4l.7-3.9h2l-.5 2.8c-.1.6.3 1.1.8 1.1.6 0 1.1-.5 1.2-1.1l.4-2.3c-.4-.9-2.8-4.4-2.9-5.2-.1-.1-.1-.6-.1-1s.5-2.9.5-2.9l.1-.1v-.2l.1-.1V79l.1-.1v.1l.1-.1v-.1l.1-.1.1-.1v-.1h.1l.1-.1.1-.1.1-.1.1-.1.1-.1.1-.1h.1l.1-.1h.1l.1-.1h.1l-.4.3zm16 0h4.6l-.3 1.9h-1.2l-2.4 13.6h-2.3l2.4-13.6h-1.2l.4-1.9zm17.9 0h4.1l-.3 1.9h-2.1l-1 4.9h2.2l-.3 1.6h-2.1l-.9 5.2h2.1l-.3 1.9h-4.4l3-15.5zm17 0h2.5l.4 8.9 3.9-8.8 2.5-.1-2.6 15.4h-1.9l1.2-8.2-3.4 8.2h-1.4l-.4-8.4-1.5 8.4h-2.3l3-15.4zm-368 .6h4l-.3 1.9h-2.2l-.9 4.8h2.1l-.3 1.6h-2.2l-.8 5.2h2.1l-.3 1.9h-4.4l3.2-15.4zm18.9 0h1.9l1 8.1 1.5-8.1h2.3l-2.9 15.5h-1.9l-.8-9-1.8 9h-2.3l3-15.5zm20.6 0h4.5l-.3 1.9h-1.2L216 94.1h-2.2l2.4-13.6H215l.4-1.9zm19.9 0h4.1l-.3 1.9H237l-1 4.8h2.1l-.3 1.6h-2.1l-.9 5.2h2.1l-.3 1.9h-4.4l3.1-15.4zm19.3 0h4.4c.8 0 1.3.7 1.2 1.6l-1 5.5c-.1.6-1.2 1.1-1.7 1.3h.7l.1.1H258.6v.1h.2v.1h.1c.1.2.1.7.1.8 0 .1-1.1 6.1-1.1 6.1h-2s1.1-5.4 1.1-5.6c0-.2 0-.5-.1-.8 0-.2 0-.4-.2-.6H255l-1.3 7h-2l2.9-15.6zm19.6 0h4.6l-.3 1.9h-1.2l-2.5 13.6h-2.2l2.4-13.6h-1.2l.4-1.9zm22.8 0h2.6l-.8 15.5h-2.6l.3-3.6H295l-1.3 3.6h-2.3l5.6-15.5zm18.3 0h2l-2.9 15.5h-1.9l2.8-15.5zm17.6 0h1.9l1 8.1 1.5-8.1h2.2l-2.9 15.5h-2l-.7-9-1.8 9H330l2.9-15.5zm22.7 0h2.5l.4 9 3.9-8.9h2.5l-2.6 15.4h-1.9l1.2-8.2-3.4 8.2h-1.4l-.4-8.4-1.5 8.4h-2.2l2.9-15.5zm24.9 0h4l-.3 1.9H382l-.9 4.8h2.1l-.3 1.6h-2.2l-.9 5.2h2.2l-.3 1.9h-4.3l3.1-15.4zm19.8 0h1.9l1 8.1 1.5-8.1h2.2L404 94.1h-1.9l-.8-9-1.8 9h-2.3l3.1-15.5zm20.4 0h4.6l-.3 1.9h-1.2l-2.4 13.6h-2.2l2.4-13.6h-1.2l.3-1.9zm-164.2 1.8c-.1 0-.2.1-.3.1l-.9 4.7v.1c0 .1.1.3.3.3h.8c.2 0 .7-.4.8-.6l.8-3.8c0-.2-.3-.7-.5-.7l-1-.1zm40.5 4.7-1.4 3.9h1.1l.3-3.9z"/></svg>