<svg version="1.2" baseProfile="tiny" xmlns="http://www.w3.org/2000/svg" width="598.189" height="350.26" xml:space="preserve"><g fill="#F4F4F4"><path d="M357.364 7.752a8.474 8.474 0 0 0-1.761.234c-1.187.297-2.27.964-3.254 1.593-.984.628-1.897 1.236-2.245 1.392-.554.247-.757.29-.707.284.054-.002.054-.017-.334-.1.175.038.18.085-.136-.202a3.42 3.42 0 0 0-1.76-.838c-1.056-.151-3.114-.512-5.115.186-1.075.373-2.087 1.083-3.036 1.76-.937.668-1.825 1.33-2.114 1.494-.35-.282-.843-.465-1.392-.505-.87-.059-3.22-.395-5.148.066-1.818.439-3.536 1.492-4.748 2.333-1.43.992-2.3 2.359-2.7 2.734-.426.396-.601.718-.604.737-.012-.005-.034-.017-.202.018-.124.024-1 0-1.964-.05-.96-.049-2.084-.09-3.202.351-2 .797-3.435 2.465-4.881 3.759-1.543 1.378-3.241 3.014-4.713 4.713-1.466 1.691-3.009 3.76-4.025 5.383-1.067 1.706-1.324 2.943-1.911 4.093-.597 1.162-1.391 2.005-2.249 3.993-.457 1.058-.92 2.609-1.376 4.04-.085.268-.151.472-.235.723-.532-1.403-1.374-4.427-2.314-6.526-.932-2.082-1.68-3.39-3.153-5.551-1.48-2.169-3.874-5.43-5.77-7.547-1.91-2.134-3.996-3.762-5.368-4.898-.67-.554-1.143-1-1.677-1.41a5.99 5.99 0 0 0-1.912-1.006c-1.028-.317-1.914-.107-2.633-.015-.72.09-1.23.08-1.493-.035-.328-.14-.875-.613-1.443-1.224-.566-.613-1.165-1.337-1.911-1.928-.508-.401-.921-.844-1.51-1.308a6.231 6.231 0 0 0-2.382-1.175c-1.102-.283-2.43-.312-3.758-.336-1.328-.023-2.646-.018-3.303-.067-.82-.062-1.303-.068-1.543-.084-.24-.018-.234-.01-.553-.151-.099-.045-.372-.262-.739-.621s-.843-.84-1.56-1.175c-1.171-.545-2.504-.759-3.606-.887-1.14-.136-2.328-.154-3.422.049-.738.139-1.262.47-1.643.687-.382.218-.625.272-.505.27-.01 0-.003.022-.2-.101-.197-.124-.53-.394-1.023-.638-.615-.305-1.638-.93-2.499-1.259a3.213 3.213 0 0 0-1.09-.2c-.13-.188-.254-.39-.487-.537a2.472 2.472 0 0 0-1.006-.35c-1.314-.179-3.835-.142-5.083.032-.344.046-.677.133-1.023.385-.16.117-.182.272-.285.437-.103.008-.238.04-.553.067a8.465 8.465 0 0 0-.672.084c-.238.037-.49.033-.887.285-.269.169-.443.487-.554.803a5.402 5.402 0 0 1-.688-.116c-.046-.012-.141-.086-.587-.403a4.473 4.473 0 0 0-2.18-.771c-1.704-.146-5.117-.272-7.314.385-1.182.354-2.007 1.101-2.617 1.73-.564.577-.983 1-1.023 1.055-.208-.055-.407-.11-.654-.116-.23-.008-.992-.151-1.862-.253-.869-.1-1.915-.16-3.002.168-1.11.334-2.192 1.014-3.22 1.677-1.03.662-2.023 1.33-2.399 1.51-.215.104-.296.142-.386.183a4.572 4.572 0 0 0-.72-.032c-.48.013-1.498-.042-2.567-.084-1.072-.044-2.199-.088-3.137.018-1.747.193-3.052.735-4.143 1.207-1.208.521-2.14 1.174-2.969 1.862-.655.544-.918 1.144-1.14 1.493-.223.346-.295.43-.504.502-.174.06-.885.087-1.727.035-.842-.054-1.83-.146-2.835.015-1.648.269-3.507.742-4.948 1.56-1.426.81-2.42 1.968-3.086 3.103-.816 1.39-.886 3.002-1.024 3.69-.17.858-.223 1.37-.15 2.13.084.864.344 1.848.604 2.652.336 1.04.802 1.73.82 1.827.11.566.164.52-.032.89.04-.077-.233.225-.637.586-.405.361-.96.853-1.274 1.662-.544 1.384-.45 2.96-.421 3.941.035 1.158.355 1.76.538 2.466.185.716.333 1.993.905 3.135.364.73.881 1.128 1.208 1.426.326.3.395.47.368.335-.023-.12-.017.026-.2.42-.184.393-.511.98-.571 1.795-.055.744-.397 1.976.403 3.924.427 1.044 1.236 2.389 2.046 3.741.81 1.353 1.622 2.706 1.912 3.287.135.272.174.376.218.47a2.814 2.814 0 0 0 0 .739c.036.274-.026 1.073-.017 2.012.01.938.113 2.073.621 3.202.507 1.133 1.384 2.283 2.265 3.39.88 1.106 1.77 2.145 2.146 2.666.465.643.752.977.856 1.108-.008.018-.005-.013-.016.018-.137.338-.28 1.075-.102 1.826.22.928.51 3.275 1.913 5.1.708.924 1.709 1.723 2.7 2.465.992.742 1.976 1.4 2.5 1.795.696.527 1.293.77 1.559.873.267.1.076-.065.218.133.206.285.545 1.674 1.056 2.953.32.796.377 2.195 1.611 3.588 1.144 1.292 3.068 2.717 4.747 3.556.994.497 2.008.64 2.852.77.842.134 1.528.322 1.577.354.128.087.075.011.133.337.058.323.066.97.453 1.708.326.623.613 1.953 2.013 3.037 1.415 1.095 3.91 2.147 5.2 2.633.691.262 1.257.265 1.694.252-.182.166-.361.337-.537.453-.343.228-1.292.29-2.718 1.157-1.265.772-3.03 2.023-4.51 3.255-1.493 1.24-2.69 2.497-4.261 4.025-1.539 1.494-3.771 3.383-5.435 5.4-1.619 1.964-2.97 4.085-4.126 6.207-1.185 2.168-1.953 4.275-2.851 6.557-.904 2.293-2.01 5.043-2.684 7.498-.657 2.391-.997 4.186-1.258 6.894-.272 2.809-.246 7.552-.336 9.36-.047.966-.017 1.38-.016 1.46l-.135.352c-.336.882-.895 2.129-1.627 2.918-.669.72-2.08 1.33-3.674 2.685-1.45 1.23-3.252 2.868-4.83 4.545-1.511 1.604-2.878 2.947-4.595 5.467-1.667 2.446-3.965 5.87-5.602 9.51-1.622 3.605-3.207 8.319-4.043 11.942-.827 3.586-.883 5.31-.94 9.662-.056 4.354-.13 11.352.587 16.891.702 5.405 1.405 10.072 3.69 15.934 2.257 5.789 5.644 13.394 9.963 19.088 4.303 5.672 9.965 10.377 15.55 14.545 2.886 2.15 6.586 4.16 9.979 5.968 3.394 1.809 6.518 3.451 8.002 4.562.784.592 1.216 1.01 1.408 1.259.193.25.165.243.168.286.001.042-.032.242-.084.653a3.995 3.995 0 0 0 .151 1.662c.489 1.552.413 3.575 1.375 6.523.903 2.77 2.276 6.882 4.11 10.231a49.832 49.832 0 0 0 6.642 9.41c2.66 2.97 5.839 5.974 9.41 8.503 3.548 2.515 7.377 4.646 11.874 6.575 4.522 1.941 10.23 3.751 15.096 5.017 4.91 1.276 10.342 2.083 14.123 2.582 3.8.505 4.198.376 8.755.453 4.614.078 13.578.074 18.92.033 5.333-.039 9.39-.063 13.182-.269 3.772-.2 6.07-.412 9.513-.954 3.34-.527 6.02-.685 11.22-2.332 5.107-1.617 14.137-4.449 19.81-7.496 5.616-3.02 9.92-6.84 13.485-10.433 3.61-3.64 5.97-7.098 8.185-11.406 2.28-4.442 4.248-11.207 5.184-14.526.504-1.8.494-3.11.418-3.994-.077-.88-.12-1.107-.018-1.324.21-.44-.056-.166.219-.269.275-.1 1.075-.3 2.18-.889 1.792-.95 4.89-1.87 9.159-4.696 4.176-2.765 11.637-8.027 15.916-11.925 4.262-3.883 6.887-7.611 9.345-11.12 2.52-3.6 4.147-6.965 5.685-10.317 1.555-3.385 2.738-6.535 3.69-10.096.963-3.6 1.515-7.586 2.014-11.19.5-3.621.885-7.074 1.02-10.7.138-3.582.228-7.644-.216-11.054-.447-3.435-1.535-6.162-2.38-8.889-.862-2.77-1.643-5.582-2.919-8.234-1.283-2.666-3.061-5.07-4.53-7.23-1.494-2.196-2.997-4.347-4.594-6.173-1.608-1.837-3.438-3.431-4.832-4.597-.794-.66-1.519-1.033-2.082-1.342-.56-.307-.955-.544-1.39-.989-1.01-1.026-2.458-2.995-2.885-4.026-.205-.492-.221-.789-.2-1.273.014-.485.108-1.14.064-2.013-.07-1.456-.085-3.405-.201-5.284-.107-1.77-.071-3.581-.486-5.888-.406-2.267-1.17-5.123-1.93-7.514-.736-2.322-1.266-4.245-2.65-6.911-1.376-2.659-3.754-6.43-5.518-8.839-1.777-2.432-3.405-3.912-4.946-5.452-1.616-1.614-3.156-2.91-4.68-4.193-1.535-1.291-3.21-2.659-4.628-3.64-1.392-.96-2.73-1.578-3.44-1.979.198-.046.34-.088.738-.217.08-.014.16-.037.234-.066.816-.295 2.211-.774 3.22-1.242.813-.376 1.81-.662 2.7-1.595.93-.969 1.384-2.23 1.745-3.036.302-.67.337-1.25.386-1.575.05-.33.052-.322.068-.336.037-.035.314-.186.806-.334.49-.151 1.164-.317 1.876-.638 1.185-.537 3.006-1.375 4.145-2.047.418-.248.7-.337 1.157-.621.457-.285.917-.744 1.325-1.41.476-.777.85-1.822 1.24-2.868.392-1.044.784-2.097.975-2.498.524-1.117-.169-.162.587-.823.417-.363 1.879-1.214 3.002-2.164 1.03-.868 2.169-1.96 2.97-2.882.776-.898 1.315-1.692 1.774-2.635.483-.978.852-2.104.992-3.085.102-.722-.098-1.296-.185-1.595-.087-.3-.035-.248-.084-.117-.004.018.548-.53 1.276-1.192.341-.31 1.387-.676 2.315-1.928.743-1.004 1.873-2.616 2.296-4.43.244-1.03.12-2.006.035-2.867-.086-.86-.131-1.61-.067-1.894.178-.801.84-1.212 1.593-2.451.531-.875 1.235-1.795 1.777-3.019.439-.984 1.195-2.267 1.224-3.942.02-1.011-.328-1.857-.585-2.598-.258-.742-.398-1.395-.387-1.544.048-.54.74-1.213 1.427-2.331.16-.26.362-.457.668-.806.312-.346.7-.884.907-1.593.315-1.079.703-2.737.32-4.512-.229-1.044-.773-1.9-1.243-2.718-.47-.816-.845-1.612-.888-1.86-.064-.363-.01-.561.152-.957.16-.398.466-.93.636-1.694.2-.893.78-2.08.67-3.723-.09-1.422-.366-3.4-1.325-4.965-.94-1.536-2.458-2.535-3.721-3.238-1.39-.774-2.817-1.04-4.194-1.276-.933-.155-1.753-.039-2.452 0-.694.04-1.221.005-1.574-.15-.318-.14-.823-.596-1.392-1.224-.569-.626-1.212-1.402-2.164-1.961-1.568-.925-3.414-1.573-5.215-1.896-1.973-.354-4.297-.065-5.368-.05-.75.01-1.308.148-1.546.2-.234.055-.03.072-.165.017-.003 0-.25-.185-.586-.536-.338-.354-.781-.838-1.427-1.241-.912-.569-2.14-1.385-3.707-1.728-1.656-.365-3.797-.16-4.645-.135-.32.01-.606.095-.873.201-.131-.109-.337-.264-.704-.603-.482-.443-1.017-.972-1.73-1.343-1.046-.544-1.963-.76-3.37-.905-1.434-.148-3.911-.319-5.569-.049-.91.145-1.586.55-2.044.873-.46.319-.723.497-.74.502-.333.096-.645.027-.905-.018a1.642 1.642 0 0 0-.69-.72c-.462-.254-.707-.22-.954-.234-.057-.198-.123-.406-.267-.571-.366-.418-.771-.53-1.157-.604-.768-.15-2.465-.517-4.23-.45zm1.426 2.615c.735.063 1.31.166 1.813.253.01.04 0 .056.015.098.108.302.351.59.588.74.601.378.964.334 1.26.368.1.013.031-.016.1 0 .042.099.054.156.148.285.187.252.525.512.856.62.658.218 1.597.362 2.685.052.75-.215 1.162-.612 1.509-.855.346-.243.602-.388 1.009-.452.97-.158 3.612-.068 4.895.066 1.312.134 1.648.21 2.465.636.224.116.711.526 1.175.957.466.43.826.865 1.543 1.206.258.124.555.273 1.025.22.425-.048.69-.289.805-.385-.073.035-.103.035 0 .033 1.004-.03 3.114-.13 4.006.066.984.215 2.004.826 2.937 1.41.278.173.567.485.923.855.354.371.759.833 1.49 1.125.6.235 1.283.198 1.645.117.366-.082.554-.143 1.024-.151 1.367-.02 3.543-.222 4.881.017 1.506.27 3.118.833 4.38 1.575.46.272.986.848 1.575 1.494.587.648 1.23 1.386 2.247 1.827.982.427 1.939.398 2.735.353.794-.044 1.473-.088 1.894-.016 1.328.224 2.429.454 3.388.988 1.088.607 2.26 1.491 2.785 2.35.509.828.879 2.645.956 3.808.062.936-.321 1.725-.603 3.001-.072.32-.285.708-.522 1.29-.238.587-.462 1.416-.3 2.35.181 1.048.72 1.865 1.19 2.684.47.818.89 1.619.974 1.995.229 1.066-.02 2.361-.286 3.271-.085.285-.16.384-.369.62-.21.238-.59.592-.94 1.158-.33.54-1.63 1.592-1.794 3.422-.093 1.037.26 1.862.521 2.617.26.754.454 1.444.45 1.71-.015.888-.485 1.84-.99 2.97-.394.888-1.023 1.709-1.641 2.733-.4.663-1.506 1.476-1.896 3.204-.22.98-.07 1.875.017 2.718.084.841.113 1.608.015 2.03-.255 1.096-1.197 2.592-1.86 3.49-.485.65-1.07.729-1.978 1.557-.53.48-1.47.927-1.949 2.164-.284.741-.081 1.404.019 1.746.1.34.125.46.115.518-.082.584-.405 1.626-.752 2.332-.366.745-.73 1.276-1.426 2.08-.676.776-1.768 1.842-2.683 2.616-.826.698-2.146 1.407-3.036 2.181-.554.483-.733.621-1.228 1.662-.317.677-.657 1.666-1.039 2.682-.379 1.017-.814 2.07-1.037 2.433-.292.475-.351.5-.488.587-.137.086-.531.237-1.124.586-.885.523-2.743 1.387-3.907 1.914-.462.207-.992.36-1.561.536-.568.173-1.207.353-1.794.905-.611.573-.784 1.338-.856 1.813-.07.474-.094.744-.167.904-.386.86-.93 1.97-1.276 2.332-.38.398-.93.577-1.928 1.038-.771.36-2.065.824-2.902 1.126-.032.013-.084.022-.116.032-.659.237-1.215.183-2.046.69a3.708 3.708 0 0 0-.908.754c-.279.32-.69.762-.502 1.627.065.304.253.643.45.838.2.196.382.292.522.369.284.156.512.247.856.453.952.568 2.292 1.146 3.523 1.998 1.281.885 2.918 2.217 4.427 3.486 1.518 1.278 2.985 2.532 4.512 4.06 1.6 1.6 3.082 2.92 4.712 5.148 1.65 2.256 4.02 6.048 5.301 8.521 1.28 2.47 1.75 4.146 2.498 6.508.73 2.297 1.453 5.104 1.83 7.196.37 2.055.337 3.689.453 5.585.11 1.788.126 3.71.2 5.25.03.625-.042 1.148-.067 1.813a5.475 5.475 0 0 0 .402 2.332c.702 1.684 2.196 3.575 3.422 4.829.682.697 1.37 1.097 1.963 1.426.593.327 1.095.59 1.677 1.074 1.355 1.127 3.105 2.663 4.565 4.327 1.464 1.674 2.912 3.743 4.391 5.92 1.506 2.212 3.185 4.532 4.33 6.91 1.147 2.39 1.911 5.072 2.783 7.883.887 2.854 1.913 5.398 2.316 8.473.402 3.097.317 7.064.184 10.615-.132 3.51-.496 6.871-.99 10.45-.497 3.6-1.04 7.509-1.947 10.887-.914 3.415-2.044 6.404-3.556 9.692-1.523 3.326-3.061 6.522-5.449 9.93-2.454 3.505-4.926 6.996-8.974 10.685-4.029 3.67-11.517 8.979-15.615 11.692-4.009 2.653-6.746 3.404-8.958 4.58-.897.475-1.29.534-1.846.735-.556.206-1.299.813-1.659 1.58-.47.988-.281 1.87-.22 2.615.065.742.104 1.586-.319 3.086-.92 3.277-2.947 10.03-5.015 14.055-2.136 4.157-4.28 7.324-7.714 10.786-3.479 3.505-7.572 7.126-12.883 9.98-5.252 2.823-14.268 5.696-19.371 7.315-5.01 1.585-7.384 1.698-10.853 2.248-3.37.528-5.542.721-9.275.92-3.71.199-7.715.23-13.051.268-5.323.04-14.297.045-18.852-.031-4.612-.08-4.763.055-8.487-.438-3.744-.495-9.087-1.289-13.805-2.515-4.76-1.239-10.408-3.036-14.743-4.899-4.357-1.869-8.009-3.9-11.406-6.305-3.374-2.391-6.412-5.28-8.973-8.136a47.19 47.19 0 0 1-6.308-8.923c-1.666-3.047-3.045-7.068-3.941-9.813-.837-2.563-.695-4.376-1.359-6.49a1.113 1.113 0 0 1-.05-.588c.027-.214.13-.57.101-1.106-.029-.54-.267-1.17-.688-1.711-.421-.544-1.01-1.066-1.895-1.729-1.86-1.394-4.962-2.964-8.336-4.761-3.374-1.798-6.984-3.786-9.645-5.772-5.512-4.104-10.986-8.684-15.049-14.036-4.045-5.331-7.412-12.798-9.629-18.484-2.187-5.61-2.858-9.957-3.556-15.33-.68-5.24-.61-12.191-.553-16.538.056-4.347.077-5.677.872-9.124.785-3.408 2.342-8.065 3.875-11.474 1.516-3.37 3.745-6.693 5.4-9.124 1.604-2.354 2.777-3.501 4.328-5.15 1.486-1.578 3.24-3.179 4.629-4.36 1.248-1.061 2.69-1.573 3.908-2.885 1.159-1.247 1.762-2.778 2.13-3.742.087-.225.145-.352.201-.537.058-.182.098-.447.1-.62.005-.341-.027-.522.018-1.442.1-2.027.093-6.728.335-9.243.254-2.613.528-4.161 1.157-6.456.612-2.23 1.71-4.943 2.618-7.245.911-2.314 1.642-4.304 2.717-6.273 1.1-2.018 2.368-3.999 3.857-5.804 1.445-1.753 3.596-3.607 5.233-5.2 1.605-1.56 2.768-2.762 4.126-3.892 1.37-1.137 3.106-2.364 4.21-3.037.947-.574 1.662-.46 2.785-1.206a7.61 7.61 0 0 0 1.275-1.073c.37-.391.687-.708.89-1.36.202-.66-.105-1.45-.472-1.827-.364-.38-.738-.55-1.089-.688-.676-.267-1.146-.134-1.41-.117-.262.016-.443.038-.855-.118-1.08-.409-3.762-1.672-4.529-2.265-.78-.603-.772-1.125-1.34-2.213-.06-.113-.085-.41-.186-.974-.1-.561-.44-1.476-1.24-2.014-.881-.588-1.733-.623-2.567-.753-.834-.131-1.637-.272-2.13-.52-1.297-.648-3.208-2.102-3.975-2.97-.679-.764-.6-1.5-1.142-2.85-.348-.868-.48-2.275-1.358-3.49-.4-.55-1.03-.895-1.359-1.021-.327-.129-.484-.163-.956-.522-.645-.487-1.592-1.12-2.516-1.81-.922-.69-1.815-1.461-2.213-1.98-.814-1.058-1.16-2.945-1.443-4.142-.074-.312-.05-.176 0-.302.051-.129.343-.803.151-1.493a3.216 3.216 0 0 0-.503-1.007c-.19-.242-.361-.447-.789-1.04-.524-.726-1.39-1.712-2.23-2.768-.84-1.056-1.655-2.198-1.946-2.85-.292-.653-.379-1.403-.386-2.182-.008-.776.087-1.525-.016-2.332-.026-.193.003-.207-.018-.098-.02.108-.065.296.034-.102.1-.398-.015-.794-.1-1.006a11.167 11.167 0 0 0-.37-.789c-.42-.843-1.212-2.121-2.012-3.454-.8-1.336-1.603-2.733-1.878-3.405-.61-1.484-.292-1.563-.202-2.784.012-.169.129-.48.336-.923.205-.442.55-1.088.369-1.98-.183-.906-.754-1.353-1.124-1.694-.37-.34-.605-.606-.654-.705-.256-.512-.453-1.661-.704-2.633-.256-.985-.449-1.175-.47-1.895-.027-.897.066-2.48.251-2.952.047-.121.245-.383.586-.687.344-.304.817-.596 1.192-1.308.476-.905.428-1.87.303-2.535-.217-1.132-.79-1.716-.923-2.129-.21-.65-.42-1.59-.47-2.114-.06-.626-.047-.579.117-1.41.2-.999.376-2.31.721-2.9.497-.846 1.192-1.637 2.147-2.181.941-.534 2.66-1.021 4.11-1.259.546-.086 1.38-.037 2.247.018.869.057 1.758.157 2.718-.168.926-.315 1.49-1.024 1.81-1.526.323-.502.511-.816.639-.922.737-.611 1.392-1.071 2.331-1.476 1.056-.458 2.054-.871 3.439-1.024.627-.07 1.711-.043 2.75 0 1.039.042 2.027.104 2.752.084a3.11 3.11 0 0 1 .368 0c.029.005.003.027.319.051.316.023.636-.076.805-.152.17-.075.332-.162.62-.302.798-.383 1.702-1.026 2.684-1.66.982-.633 2.027-1.228 2.566-1.392.563-.17 1.268-.168 1.98-.084.71.084 1.36.265 2.08.285.093.002.051-.013.034-.018.17.112.838.29 1.174.203.333-.087.478-.188.704-.319.82-.475 1.167-1.07 1.66-1.578.494-.506.992-.894 1.527-1.055 1.236-.371 4.947-.425 6.374-.302.575.05.701.151.94.32.236.167.636.587 1.392.788a7.99 7.99 0 0 0 1.542.235c.497.027.861.094 1.477-.136.25-.094.573-.324.754-.653.094-.173.064-.297.084-.452.355-.02.705-.005 1.24-.204.276-.1.522-.395.722-.67.74-.076 3.485-.105 4.143-.034.132.228.407.553.755.704.476.209.907.187 1.074.187.166 0 .173 0 .301.048.37.142 1.481.77 2.265 1.158.204.101.426.274.788.504.36.228.927.52 1.61.502.815-.02 1.3-.38 1.694-.603.393-.223.694-.374.856-.403.706-.132 1.732-.129 2.683-.018.99.116 2.162.36 2.834.673.208.096.481.336.839.687.359.35.786.81 1.493 1.123.485.218.966.34 1.393.37.425.03.803.01 1.543.068.901.067 2.162.059 3.438.084 1.277.022 2.578.096 3.187.25.688.175 1.043.388 1.442.704.4.317.843.782 1.51 1.309.426.339.988 1.004 1.61 1.679.624.672 1.295 1.382 2.282 1.81 1.05.457 2.061.316 2.833.218.774-.097 1.353-.13 1.56-.068.475.146.74.31 1.124.606.385.294.866.737 1.595 1.34 1.422 1.18 3.375 2.72 5.098 4.646 1.739 1.942 4.142 5.19 5.569 7.28 1.433 2.1 2.062 3.178 2.952 5.166.826 1.844 1.69 5.109 2.398 6.81.256.613.371 1.236.604 1.845.057.153.123.309.252.504.128.196.352.487.804.638.453.149.988.005 1.26-.169.27-.175.405-.346.536-.518.367-.493.5-.946.72-1.543.221-.601.457-1.306.688-2.03.463-1.452.957-3.03 1.293-3.809.73-1.693 1.421-2.364 2.178-3.84.765-1.488.923-2.54 1.779-3.91.91-1.45 2.453-3.481 3.825-5.064 1.367-1.58 2.99-3.15 4.479-4.48 1.582-1.412 2.957-2.846 4.109-3.304.46-.183 1.286-.227 2.146-.183.86.045 1.681.208 2.616.015.645-.13 1.262-.442 1.578-.82.316-.38.24-.389.435-.572.92-.856 1.553-1.902 2.416-2.498 1.08-.749 2.678-1.656 3.892-1.946 1.1-.265 3.325-.091 4.377-.017.094.008.07.003.084 0 .056.052.155.067.234.117.015.01.02.027.036.034-.028-.015.063.178.47.368.434.208.892.134 1.157.053.261-.083.466-.184.753-.337.73-.393 1.516-1.037 2.416-1.677.9-.642 1.884-1.263 2.399-1.443 1.172-.409 2.883-.218 3.941-.067.243.034.223.04.4.202.18.161.55.656 1.327.821.217.047.53.17 1.04.134.513-.037.913-.203 1.543-.487.836-.374 1.68-.99 2.6-1.576.924-.588 1.899-1.125 2.5-1.276.647-.16 1.628-.145 2.566-.066l.005-.003zm-21.619 3.423c.033.01.034-.017.067 0 .343.163.427.341.301.2-.048-.054-.239-.106-.353-.185-.003-.003-.01-.013-.015-.015z"/><path d="M239.938 17.775c-.29-.014-.892.105-1.224.572-.333.467-.262.87-.219 1.09.088.438.22.594.336.79.23.387.522.825.487.754.16.315.315.425.418.52.046.333.065 1.554.018 1.762-.02.084-.031.109-.05.182-.282-.155-.637-.358-1.191-.637-1.042-.522-2.95-1.784-4.966-2.634a61.153 61.153 0 0 0-3.522-1.34c-1.234-.425-2.249-.767-3.12-.855-.238-.025-.487-.04-.788.05-.302.088-.665.33-.871.654-.416.644-.235 1.16-.135 1.476.2.629.53 1.093.536 1.106.324.648.761.85 1.04 1.024.279.175.453.328.369.235.305.339.235.185.285.435.02.099.008.564 0 .957-.133-.045-.11-.035-.302-.101-1.013-.349-3.596-1.534-5.702-2.13a49.208 49.208 0 0 0-3.473-.823c-1.17-.233-2.089-.407-2.851-.4-.21.002-.433.005-.754.15-.323.144-.763.633-.822 1.106-.06.474.085.745.184.925.1.177.197.281.286.385.353.408.764.789.687.688.418.55.82.69.973.786.15.098.058.01.051-.015.04.136.136.74.151 1.241.004.164-.01.285-.017.418-.197-.032-.202-.022-.672-.116-.63-.128-1.983-.571-3.42-1.024-1.439-.452-3.008-.932-4.43-1.107a35.78 35.78 0 0 0-4.495-.25c-.749.005-1.444.04-2.062.133-.619.094-1.15.092-1.778.72-.438.438-.506 1.241-.37 1.644.137.404.327.644.52.873.388.46.867.858 1.325 1.259.241.207.395.363.604.553-.742.095-1.769.151-2.936.219-.988.056-3.14-.144-5.148-.288-1.004-.068-1.996-.123-2.852-.116-.855.008-1.522-.034-2.315.386-.355.188-.711.53-.888.957a1.95 1.95 0 0 0-.084 1.19c.152.662.48 1.097.805 1.542.647.89 1.43 1.813 1.627 2.23.748 1.596 1.819 3.505 2.197 4.664.252.774.565 1.524.705 2.03h-.017c-.459-.067-1.095-.212-1.728-.353-.634-.139-1.275-.287-1.879-.351a3.73 3.73 0 0 0-.923 0c-.337.044-.839.148-1.223.67-.512.697-.372 1.4-.22 1.913.155.515.41.98.706 1.477.592.989 1.404 2.033 2.18 2.935.918 1.064 2.336 2.114 3.64 3.135a41.189 41.189 0 0 1 1.728 1.428c.273.24.33.313.47.47-.33.115-.729.236-1.175.368-.075.022-.747.046-1.408-.035-.662-.079-1.213-.252-2.013-.151.042-.004-.05.006-.185-.017-.135-.02-.252-.097-.67-.081a1.275 1.275 0 0 0-1.074.55c-.392.53-.257 1.091-.168 1.326.18.472.355.633.638.974.628.76 1.896 1.999 3.27 3.338s2.809 2.72 3.573 3.472c1.332 1.313 1.738 1.63 2.08 1.979-.38.011-.703.024-1.258.017-.838-.01-1.623-.05-2.199 0a.705.705 0 0 1-.15-.017c-.063-.013-.058-.018-.301-.067-.062-.013-.144-.045-.353-.036-.105.006-.253.02-.47.12a1.384 1.384 0 0 0-.637.652c-.272.618-.038.947.034 1.09.072.147.112.203.151.253.153.198.233.272.419.47.856.922 3.125 3.064 5.149 4.646 1.08.844 2.573 1.753 3.89 2.584.584.366 1.101.7 1.544 1.006-.199.04-.318.065-.52.117-.108.03-.752.047-1.374.017-.311-.015-.63-.034-.94-.034-.312 0-.578-.023-1.057.167-.092.038-.232.075-.452.187-.22.108-.688.352-.84 1.005-.15.65.157 1.128.37 1.393.211.261.428.457.737.705 1.345 1.07 4.91 3.201 6.509 4.158 1.643.982 2.226 1.153 3.203 1.66.909.472 1.95.986 2.667 1.377-.217.032-.264.056-.487.084-.868.106-1.719.205-2.23.284-.33.052-.275.025-.353.018-.019-.003.011-.062-.402.014-.104.02-.238.058-.42.168-.09.058-.285.236-.285.236l-.2.319s-.085.225-.1.318c-.006.028.001.042 0 .068a1.42 1.42 0 0 0-.136.77c.063.57.41.924.705 1.158.295.237.622.418 1.09.638 1.849.865 6.966 2.802 9.242 3.59 2.07.715 3.233.828 3.657.906-.205.106-.448.214-.721.336-.627.275-1.187.412-1.83.904-.03.023-.09.075-.2.134-.11.06-.233.017-.605.435-.185.21-.43.792-.283 1.276.144.485.412.646.57.755.316.217.509.277.822.386 1.254.442 4.197 1.258 6.96 1.627 1.45.195 3.32.23 5.048.269 1.728.037 3.4.13 3.875.25-.035.101-.02.03-.1.203.153-.337-.246.2-.756.536-.509.337-1.026.562-1.558 1.123-.224.234-.455.349-.723.94-.133.296-.21.963.102 1.426.312.462.675.576.938.653.303.091.744.193 1.31.203.564.01 1.293-.04 2.532-.15 2.376-.216 7.272-.451 11.423-1.344 3.968-.853 9.011-1.79 13.032-3.959 3.993-2.153 7.834-5.815 10.214-8.62 2.443-2.878 4.08-6.137 4.21-8.639.032-.594-.027-1.158-.285-1.676-.259-.52-.671-.868-1.022-1.108-.705-.478-1.375-.767-2.433-1.744-2.335-2.155-7.107-6.557-10.751-9.46-3.624-2.886-7.044-5.2-10.853-7.75a275.81 275.81 0 0 0-12.11-7.63c-4.18-2.496-9.238-5.268-12.864-7.28 6.382 2.71 15.952 6.879 20.312 8.872 5.295 2.423 2.801 1.16 7.028 3.707 4.182 2.522 13.544 8.3 17.948 11.371 2.118 1.479 3.666 3.113 5.032 4.513 1.365 1.4 2.561 2.684 4.327 3.037.121.022.245.03.368.017.011 0 .022-.003.034 0 1.603.138 2.957-.747 3.925-1.729 1.05-1.065 1.9-2.302 2.616-3.053 1.666-1.746 3.528-3.69 4.495-6.558.878-2.6 1.754-5.67 1.024-9.913-.72-4.179-2.732-10.297-5.217-14.977-2.525-4.758-7.603-11.004-9.56-12.866-.276-.262-.522-.482-.956-.638-.433-.153-1.29-.015-1.661.42-.37.433-.39.78-.42 1.057a4.66 4.66 0 0 0 0 .77c.033.503.096 1.003.136 1.393.015.154.03.26.033.354-.11.2-.136.225-.42.334a.323.323 0 0 1-.134-.015c-.164-.193-.398-.47-.789-.89-.769-.831-2.576-2.915-4.36-4.913a120.626 120.626 0 0 0-2.55-2.785c-.772-.816-1.382-1.434-1.928-1.847-.266-.198-.516-.373-.94-.47-.423-.094-1.18.097-1.51.521-.328.426-.34.763-.352 1.025-.012.26.005.487.034.702.059.435.168.853.235 1.191.068.34.021.728.084.37-.07.402-.084.706-.1.872-.018.165-.027.17-.069.27-.061.145-.163.36-.268.536-.124-.158-.184-.267-.452-.537-.803-.81-2.986-3.153-4.361-4.38-.63-.56-1.333-1.19-1.979-1.71a9.009 9.009 0 0 0-.956-.67c-.32-.195-.597-.42-1.208-.435a1.655 1.655 0 0 0-1.123.452c-.27.275-.366.557-.42.772-.11.428-.082.737-.068 1.038.032.604.065 1.247.069 1.224-.128.883-.183 1.499-.22 1.56-.11.19-.211.32-.301.438-.06-.042-.051-.042-.285-.252-.367-.332-.89-.835-1.627-1.392-1.303-.984-3.93-3.103-5.519-4.127-.775-.5-1.512-.902-2.147-1.19-.635-.289-1.007-.481-1.693-.521zm-10.686 3.476c1.16.4 2.422.884 3.303 1.258 1.708.717 3.487 1.896 4.815 2.564.542.275.936.51 1.341.722.406.213.938.473 1.61.385.8-.103 1.307-.743 1.527-1.192.22-.444.296-.83.369-1.156.184-.81.147-1.598.067-2.28.044.027.073.039.118.066 1.302.839 3.99 2.968 5.367 4.008.602.456 1.032.891 1.46 1.276.427.386.871.814 1.643.972.855.176 1.628-.284 2.029-.687.402-.403.627-.814.789-1.09.584-1 .468-1.878.554-2.466.027-.197-.018-.281-.018-.453.478.404.977.848 1.493 1.308 1.172 1.044 3.38 3.373 4.26 4.261.387.39.407.453.37.386-.01-.017-.03-.027.015.05.046.076.18.252.304.353.241.203.278.178.35.218.176.09.448.235.822.336.376.099.954.176 1.527-.15.563-.325.742-.671.957-1.007.214-.34.376-.675.502-.974.155-.367.224-.742.253-1.007.027-.262.038-.428.082-.687.021-.124-.022-.136-.016-.235.023.024.027.024.05.05.742.784 1.633 1.746 2.516 2.734 1.766 1.981 3.523 4.024 4.378 4.949.399.432.642.704.771.855.066.077.106.118.118.134.013.016.032.098-.085-.134-.007-.015-.023-.044-.033-.067a.867.867 0 0 0 .118.201c.03.034.065.113.1.15.026.03.065.055.118.101.026.026.046.047.1.084.028.02.072.042.118.068.045.024.184.083.184.083l.403.084s.045.003.066 0c.55.164 1.132.209 1.712-.016.466-.182 1.378-.666 1.862-1.645.214-.435.184-.68.184-.922 2.111 2.4 5.752 6.975 7.648 10.55 2.317 4.368 4.312 10.433 4.965 14.224.642 3.726-.07 6.162-.922 8.69-.763 2.259-2.276 3.854-3.941 5.602-.95.994-1.771 2.21-2.585 3.034-.813.826-1.376 1.138-2.029 1.007-.676-.134-1.665-.944-3.003-2.315-1.337-1.37-3.02-3.18-5.383-4.829-4.563-3.183-13.887-8.917-18.1-11.456-4.167-2.515-2.007-1.432-7.277-3.843-5.31-2.427-19.29-8.6-24.607-10.75-2.659-1.075-4.203-1.566-5.266-1.81-1.065-.246-1.645-.243-1.997-.285-.313-.04-.477-.188-1.157.116-.17.077-.41.217-.588.487s-.232.63-.2.888c.062.517.263.682.386.823.494.556.952.784 1.81 1.308 1.806 1.1 5.409 2.865 9.008 4.864 3.64 2.02 8.699 4.793 12.815 7.245 4.13 2.466 8.209 5.015 11.992 7.549 3.803 2.544 7.155 4.817 10.685 7.63 3.508 2.798 8.283 7.186 10.617 9.343 1.278 1.18 2.332 1.708 2.733 1.98.202.136.177.149.168.134-.008-.017.037.062.018.417-.068 1.304-1.46 4.62-3.607 7.147-2.208 2.601-5.975 6.137-9.494 8.033-3.491 1.885-8.328 2.83-12.345 3.692-3.836.824-8.614 1.08-11.121 1.309-.185.014-.19.002-.352.014.372-.244.734-.54 1.023-1.172.109-.24.516-.729.47-1.661a2.1 2.1 0 0 0-.654-1.375c-.392-.351-.863-.554-1.393-.687-1.158-.298-2.69-.282-4.428-.32-1.738-.04-3.6-.078-4.78-.234-1.491-.2-3.002-.562-4.31-.905.192-.092.384-.168.57-.27.327-.175.633-.33.973-.737.401-.482.69-1.16.57-1.88-.12-.719-.622-1.315-1.224-1.675-1.382-.834-2.425-.488-4.463-1.192-1.7-.59-4.846-1.83-7.06-2.735.746-.089 1.458-.145 2.063-.351.312-.106.615-.254.889-.522.274-.265.472-.692.503-1.056.061-.724-.224-1.063-.235-1.09-.169-.419-.531-.754-.805-.94-.273-.183-.515-.307-.855-.502-.808-.467-2.202-1.157-3.238-1.694-1.129-.588-1.544-.664-3.07-1.577-1.159-.693-3.106-1.947-4.612-2.935.331-.008.622.047.99-.05.27-.071 1.06-.15 1.812-.403.375-.126.826-.258 1.224-.855.2-.3.321-.757.268-1.14-.053-.386-.222-.668-.403-.907-.382-.508-.812-.822-1.358-1.208-.546-.385-1.191-.786-1.862-1.207-1.34-.845-2.808-1.757-3.673-2.432-1.108-.866-1.896-1.674-2.886-2.6.702.01 1.392.028 1.947-.051a2.53 2.53 0 0 0 .787-.217c.275-.126.59-.389.756-.705.136-.26.141-.42.15-.537.003-.024.033-.101.034-.116.022.007.119-.035.184-.504.082-.575-.18-1.143-.503-1.561-.611-.789-1.196-1.135-2.717-2.633-.797-.784-2.228-2.144-3.59-3.472-.686-.668-1.004-1.011-1.56-1.575.648.079 1.346.143 2.132-.084.4-.119 1.197-.247 1.979-.655.39-.203.837-.504 1.122-1.09.287-.586.204-1.373-.1-1.93-.34-.622-.794-1.026-1.341-1.508-.548-.482-1.187-.979-1.845-1.493-1.317-1.032-2.719-2.142-3.289-2.802-.708-.82-1.462-1.805-1.928-2.581-.026-.045-.026-.06-.05-.102.297.055.544.092.888.168.625.136 1.278.28 1.896.368.617.09 1.153.307 2.03-.217.56-.336.893-.99.955-1.51.063-.523-.026-.965-.134-1.376-.216-.823-.572-1.602-.77-2.213-.537-1.649-1.628-3.521-2.3-4.948-.512-1.093-1.374-1.958-1.877-2.65-.005-.008.004-.01 0-.017.207-.03.176-.03.47-.035.722-.005 1.654.05 2.633.119 1.959.138 4.04.35 5.484.27 1.2-.07 2.342-.095 3.321-.236.49-.072.941-.173 1.392-.37.451-.197.983-.565 1.208-1.225.22-.643-.013-1.13-.184-1.425a3.634 3.634 0 0 0-.553-.72c-.41-.432-.896-.834-1.342-1.225-.06-.052-.077-.084-.135-.136.295-.018.53-.047.873-.05a34.482 34.482 0 0 1 4.159.235c1.086.134 2.575.566 3.975 1.007 1.4.439 2.68.89 3.673 1.09.805.16 1.166.296 1.796.269.313-.015.76-.155 1.04-.388.279-.23.39-.435.486-.586.278-.435.326-.782.369-1.122.043-.344.043-.68.033-1.024-.019-.69-.088-1.323-.25-1.88-.038-.126-.115-.207-.17-.318.968.202 1.99.453 2.769.672 1.763.497 4.214 1.613 5.569 2.08.587.203.85.307 1.173.386.324.076.802.029.956 0 .423-.087.95-.44 1.175-.824.225-.381.272-.665.319-.922a6.4 6.4 0 0 0-.018-2.398c-.1-.5-.331-.883-.57-1.207h.003zM359.008 17.76c-.685.038-1.061.248-1.694.537-.635.29-1.372.693-2.146 1.192-1.59 1.022-4.218 3.141-5.52 4.125-.736.559-1.26 1.06-1.626 1.392-.223.203-.218.19-.287.235-.09-.116-.19-.248-.302-.435-.034-.062-.107-.663-.232-1.543.003.022.051-.638.084-1.241a3.128 3.128 0 0 0-.084-1.024 1.617 1.617 0 0 0-.42-.772 1.627 1.627 0 0 0-1.109-.452c-.61.018-.904.225-1.223.418-.319.195-.631.43-.958.69-.645.52-1.33 1.147-1.96 1.708-1.377 1.226-3.558 3.568-4.363 4.38-.266.27-.328.378-.452.537a4.857 4.857 0 0 1-.284-.538c-.042-.099-.032-.104-.052-.27a10.82 10.82 0 0 0-.116-.87c.061.357.032-.03.102-.37.066-.336.158-.772.217-1.208.03-.217.062-.427.049-.687-.013-.26-.022-.598-.35-1.024-.332-.425-1.104-.63-1.529-.536-.423.094-.673.27-.94.47-.544.41-1.137 1.031-1.911 1.844-.774.816-1.674 1.804-2.564 2.802-1.786 1.998-3.593 4.082-4.362 4.913-.399.43-.623.697-.79.89a.303.303 0 0 1-.115.018c-.286-.111-.326-.134-.438-.336.002-.094.018-.2.032-.351.04-.393.12-.893.154-1.393.015-.252.01-.494-.017-.771-.027-.28-.033-.623-.403-1.058-.371-.433-1.244-.59-1.677-.436-.436.156-.665.376-.94.638-1.958 1.863-7.035 8.106-9.56 12.863-2.484 4.684-4.515 10.816-5.232 14.997-.732 4.244.16 7.33 1.04 9.929.968 2.868 2.828 4.794 4.495 6.543.716.751 1.564 1.988 2.616 3.053.95.96 2.262 1.82 3.822 1.726h.02c.159.027.326.02.485-.017 1.765-.353 2.962-1.635 4.327-3.034 1.365-1.4 2.898-3.034 5.015-4.513 4.406-3.07 13.783-8.85 17.964-11.372 4.226-2.55 1.731-1.283 7.03-3.707 4.358-1.995 13.927-6.162 20.31-8.871-3.627 2.012-8.683 4.784-12.864 7.277a277.304 277.304 0 0 0-12.11 7.633c-3.808 2.549-7.245 4.86-10.87 7.75-3.645 2.902-8.417 7.318-10.751 9.475-1.059.976-1.726 1.25-2.434 1.728-.35.238-.76.588-1.02 1.108-.26.52-.317 1.083-.284 1.676.128 2.503 1.782 5.762 4.225 8.637 2.38 2.807 6.219 6.486 10.215 8.64 4.02 2.166 9.045 3.088 13.015 3.942 4.15.89 9.046 1.127 11.422 1.34 1.24.114 1.985.16 2.55.153a4.748 4.748 0 0 0 1.308-.203c.264-.079.628-.173.94-.637.312-.463.235-1.128.1-1.425-.266-.594-.498-.722-.72-.957-.535-.561-1.052-.787-1.561-1.122-.51-.34-.908-.873-.754-.537-.08-.175-.065-.101-.099-.203.475-.121 2.146-.212 3.872-.252 1.729-.037 3.581-.057 5.033-.25 2.76-.369 5.723-1.201 6.977-1.644.314-.111.505-.15.822-.369.16-.108.427-.286.57-.77.146-.488-.098-1.066-.284-1.277-.373-.42-.493-.378-.606-.435-.108-.06-.188-.094-.218-.119-.641-.492-1.181-.645-1.81-.922-.275-.122-.534-.23-.735-.334.409-.08 1.583-.185 3.67-.908 2.279-.786 7.391-2.722 9.24-3.587.471-.22.797-.404 1.095-.639.294-.234.64-.587.702-1.156a1.444 1.444 0 0 0-.133-.772c-.003-.025.004-.04 0-.067-.019-.096-.1-.319-.103-.319l-.2-.319s-.195-.178-.286-.235a1.22 1.22 0 0 0-.436-.168c-.412-.076-.366 0-.386 0-.075.008-.02.018-.35-.032-.513-.081-1.38-.178-2.248-.287-.208-.024-.25-.037-.453-.066.718-.39 1.746-.923 2.651-1.393.975-.507 1.558-.677 3.202-1.659 1.6-.957 5.166-3.088 6.508-4.161.31-.245.527-.44.74-.705.21-.262.518-.722.366-1.375-.151-.65-.618-.912-.836-1.023-.223-.11-.36-.147-.454-.184-.481-.19-.745-.167-1.056-.167-.313 0-.629.016-.941.034-.62.029-1.265.01-1.374-.018a7.011 7.011 0 0 0-.522-.119c.445-.306.962-.637 1.542-1.005 1.322-.831 2.815-1.74 3.893-2.582 2.025-1.583 4.292-3.727 5.15-4.647.187-.2.265-.272.418-.47.041-.048.08-.108.155-.251.068-.144.301-.476.032-1.091a1.385 1.385 0 0 0-.638-.653 1.182 1.182 0 0 0-.469-.119c-.212-.01-.291.023-.353.035-.245.047-.24.055-.302.066a.79.79 0 0 1-.168.018c-.576-.05-1.342-.01-2.18 0-.552.005-.88-.008-1.26-.018.342-.35.748-.667 2.083-1.98.762-.749 2.196-2.131 3.57-3.472 1.375-1.337 2.642-2.576 3.272-3.338.281-.341.458-.499.637-.972.09-.237.226-.796-.167-1.324a1.282 1.282 0 0 0-1.074-.555c-.418-.012-.537.063-.67.084-.135.022-.226.013-.185.018-.8-.102-1.353.071-2.012.15-.66.08-1.333.055-1.41.036a21.895 21.895 0 0 1-1.174-.371c.138-.154.197-.229.47-.47.47-.41 1.075-.916 1.727-1.425 1.304-1.022 2.723-2.074 3.64-3.138.777-.9 1.588-1.944 2.179-2.935.297-.495.555-.96.707-1.476.154-.514.292-1.214-.217-1.911-.386-.525-.888-.628-1.228-.67a3.635 3.635 0 0 0-.92 0c-.605.064-1.245.212-1.878.35-.635.141-1.27.27-1.73.337-.006 0-.009-.003-.016 0 .14-.507.453-1.239.706-2.013.378-1.162 1.445-3.071 2.197-4.663.196-.418.98-1.34 1.628-2.23.321-.446.652-.88.803-1.543a1.96 1.96 0 0 0-.084-1.192 1.974 1.974 0 0 0-.888-.955c-.796-.42-1.46-.378-2.315-.386-.855-.01-1.85.045-2.854.117-2.007.14-4.159.323-5.147.269-1.168-.067-2.195-.106-2.936-.203.21-.187.365-.343.604-.554.458-.4.937-.813 1.325-1.273.193-.23.383-.453.52-.856.135-.402.066-1.207-.37-1.644-.626-.628-1.16-.625-1.776-.722a15.074 15.074 0 0 0-2.08-.15c-1.5-.013-3.182.106-4.495.268-1.422.176-2.992.638-4.43 1.091-1.437.452-2.774.912-3.404 1.039-.47.096-.476.086-.67.118-.008-.136-.022-.254-.017-.42.014-.5.111-1.103.15-1.242-.007.028-.1.1.052 0 .148-.095.553-.217.971-.77-.078.103.335-.278.688-.689.09-.1.187-.222.284-.402.1-.179.245-.45.187-.922-.063-.473-.502-.945-.824-1.09a1.695 1.695 0 0 0-.755-.152c-.761-.005-1.678.171-2.85.403a47.353 47.353 0 0 0-3.49.824c-2.104.593-4.67 1.78-5.684 2.129-.197.069-.183.054-.319.101-.008-.393-.02-.858 0-.957.049-.252-.02-.098.284-.436-.084.092.11-.061.386-.234.277-.176.717-.376 1.039-1.024.01-.015.337-.476.538-1.108.1-.314.28-.848-.133-1.49a1.627 1.627 0 0 0-.875-.638c-.301-.09-.55-.074-.786-.05-.87.087-1.888.428-3.122.854a62.37 62.37 0 0 0-3.52 1.342c-2.018.848-3.942 2.109-4.983 2.633-.547.277-.892.483-1.175.638-.02-.076-.029-.096-.048-.185-.047-.205-.03-1.427.014-1.761.107-.094.257-.203.42-.519-.034.069.258-.366.487-.757.117-.193.25-.349.335-.786.044-.22.1-.64-.233-1.107-.33-.468-.92-.587-1.206-.572h-.004zm10.667 3.507c-.234.322-.473.698-.571 1.19a6.425 6.425 0 0 0 0 2.398c.05.258.079.541.301.922.228.384.769.74 1.193.824.152.03.634.06.956-.017.325-.08.586-.166 1.175-.369 1.354-.467 3.803-1.6 5.57-2.096.775-.22 1.798-.454 2.766-.656-.052.109-.132.18-.168.302-.166.559-.234 1.207-.253 1.897-.007.343-.01.68.035 1.023.042.34.089.687.367 1.123.098.15.21.338.488.57.28.23.725.389 1.042.401.627.03.989-.106 1.793-.267.997-.2 2.271-.665 3.671-1.108 1.402-.44 2.894-.855 3.976-.989a34.21 34.21 0 0 1 4.16-.251c.35.004.591.046.89.066-.06.054-.09.08-.15.136-.45.39-.933.794-1.344 1.224-.204.215-.38.425-.554.722-.171.294-.401.781-.183 1.424.225.66.756 1.029 1.206 1.225.45.197.907.281 1.396.353.978.14 2.119.183 3.317.25 1.444.084 3.527-.146 5.486-.285.978-.069 1.91-.106 2.636-.101.291.005.262.005.47.035-.006.007.004.01 0 .017-.505.692-1.366 1.558-1.88 2.65-.673 1.427-1.76 3.3-2.3 4.948-.198.612-.554 1.39-.771 2.214-.109.41-.199.835-.134 1.357.064.524.395 1.192.957 1.528.877.525 1.411.306 2.03.218.615-.09 1.269-.25 1.894-.386.346-.076.593-.111.89-.168-.027.047-.022.07-.052.12-.465.775-1.22 1.742-1.93 2.563-.567.66-1.969 1.788-3.284 2.819-.658.514-1.298 1.011-1.845 1.493-.549.483-1.004.886-1.342 1.508-.305.557-.389 1.344-.103 1.93.287.586.735.87 1.124 1.072.78.409 1.58.554 1.98.674.783.227 1.484.162 2.129.084-.554.563-.873.907-1.558 1.574-1.363 1.328-2.795 2.688-3.59 3.472-1.521 1.498-2.107 1.845-2.718 2.633-.325.418-.583.987-.502 1.56.08.577.267.755.217.621.01.117.015.277.152.537.165.317.482.58.753.705.273.129.515.18.789.217.556.08 1.244.062 1.946.052-.988.925-1.777 1.734-2.886 2.6-.862.675-2.332 1.587-3.672 2.432-.672.42-1.318.839-1.864 1.224-.544.386-.974.682-1.356 1.19-.182.24-.35.539-.405.922-.051.386.07.826.27 1.125.397.598.847.73 1.223.855.752.253 1.544.332 1.81.404.372.096.658.042.992.05-1.506.988-3.454 2.242-4.61 2.934-1.527.913-1.943.99-3.072 1.578-1.037.537-2.427 1.227-3.237 1.693-.339.196-.582.32-.855.502-.275.186-.635.54-.803.957-.013.028-.298.35-.238 1.074.029.363.23.79.503 1.055.276.268.58.416.891.522.603.206 1.315.263 2.062.351-2.214.906-5.361 2.146-7.062 2.735-2.037.705-3.081.359-4.461 1.19-.603.362-1.105.959-1.227 1.678-.119.72.168 1.398.57 1.88.34.406.647.558.974.736.185.1.38.181.57.27-1.307.344-2.833.705-4.327.906-1.178.155-3.024.194-4.761.234-1.74.038-3.287.04-4.448.335-.528.135-.981.32-1.374.671-.392.352-.648.91-.67 1.375-.046.933.362 1.422.47 1.662.287.63.653.927 1.024 1.172-.158-.013-.158 0-.336-.015-2.508-.228-7.285-.484-11.123-1.308-4.016-.863-8.867-1.807-12.36-3.692-3.52-1.897-7.268-5.432-9.48-8.034-2.145-2.53-3.555-5.843-3.618-7.146-.02-.356.024-.435.014-.418-.008.015-.014.003.185-.133.403-.275 1.457-.801 2.733-1.98 2.337-2.157 7.092-6.546 10.603-9.343 3.53-2.813 6.896-5.086 10.702-7.63 3.783-2.535 7.857-5.084 11.992-7.55 4.114-2.455 9.154-5.224 12.796-7.245 3.602-1.998 7.219-3.763 9.023-4.863.862-.525 1.319-.752 1.814-1.309.123-.14.323-.306.385-.822a1.39 1.39 0 0 0-.2-.889 1.354 1.354 0 0 0-.59-.486c-.677-.305-.842-.157-1.156-.117-.352.042-.932.04-1.996.285-1.065.245-2.609.736-5.266 1.81-5.32 2.151-19.295 8.323-24.607 10.75-5.271 2.412-3.11 1.329-7.28 3.843-4.212 2.54-13.535 8.272-18.097 11.457-2.367 1.649-4.048 3.46-5.383 4.83-1.337 1.37-2.344 2.18-3.022 2.314-.653.13-1.214-.182-2.027-1.007-.814-.824-1.635-2.04-2.584-3.034-1.664-1.749-3.163-3.343-3.924-5.603-.854-2.527-1.583-4.963-.94-8.69.653-3.79 2.648-9.856 4.964-14.223 1.895-3.568 5.535-8.128 7.649-10.534 0 .238-.01.477.2.905.485.98 1.38 1.464 1.845 1.645.576.222 1.168.158 1.712 0 .024.002.069.017.069.017l.4-.084s.158-.06.203-.084a.698.698 0 0 0 .098-.067c.055-.037.095-.062.12-.084.054-.047.073-.071.099-.101.036-.037.073-.117.103-.15a.746.746 0 0 0 .148-.268c-.021.064-.052.104-.063.133-.12.233-.1.151-.084.134.011-.017.048-.057.115-.134.132-.15.374-.423.772-.855.856-.925 2.628-2.967 4.394-4.949.886-.988 1.759-1.967 2.5-2.75.032-.033.037-.033.066-.068.005.104-.039.119-.016.253.046.259.039.44.066.704.03.265.1.64.252 1.006.126.3.287.636.505.972.213.339.408.685.972 1.007.573.329 1.15.252 1.525.153.376-.101.649-.245.822-.336.074-.04.093-.015.336-.218.124-.1.257-.277.301-.353.044-.077.044-.067.034-.05-.039.067-.02.005.37-.386.88-.888 3.073-3.217 4.246-4.26.513-.46 1.028-.905 1.507-1.309 0 .172-.044.256-.017.453.087.588-.031 1.466.553 2.465.162.277.389.688.79 1.091s1.171.863 2.028.687c.771-.158 1.216-.602 1.643-.99.428-.384.859-.802 1.462-1.258 1.374-1.04 4.046-3.169 5.348-4.008.048-.03.088-.037.136-.066-.083.682-.119 1.454.065 2.264.074.324.15.728.37 1.172.22.449.727 1.074 1.526 1.176.672.086 1.204-.157 1.61-.37.406-.211.782-.464 1.326-.736 1.33-.67 3.125-1.832 4.83-2.552a57.99 57.99 0 0 1 3.29-1.24h-.002zm19.423 66.47c-.004.037.02.046.019.083-.01.003-.01.013-.019.015v-.099zM299.247 105.317c-9.724 0-18.541 2.268-25.025 6.024-6.483 3.757-10.735 9.122-10.735 15.23 0 6.107 4.25 11.473 10.735 15.23 6.484 3.755 15.3 6.02 25.025 6.02 9.726 0 18.543-2.265 25.027-6.02 6.483-3.757 10.734-9.123 10.734-15.23 0-6.108-4.25-11.473-10.734-15.23-6.484-3.756-15.3-6.024-25.027-6.024zm0 2.535c9.328 0 17.752 2.211 23.75 5.685 6.002 3.477 9.477 8.105 9.477 13.034 0 4.928-3.475 9.557-9.477 13.03-5.998 3.477-14.422 5.688-23.75 5.688-9.326 0-17.766-2.21-23.768-5.687-6-3.471-9.462-8.103-9.462-13.031 0-4.929 3.46-9.557 9.46-13.031 6.002-3.477 14.44-5.688 23.768-5.688h.002zM337.894 146.995c-4.768.057-9.407 1.155-13.62 3.306-17.542 8.947-22.927 33.009-12.413 53.624 10.516 20.615 33.164 30.382 50.705 21.436 17.54-8.949 22.928-33.026 12.414-53.641-5.056-9.906-13.185-17.727-22.68-21.773-4.748-2.02-9.638-3.006-14.406-2.95v-.002zm.032 2.517c4.399-.052 8.94.858 13.385 2.75 8.887 3.789 16.621 11.21 21.418 20.616 9.998 19.595 4.76 42.03-11.32 50.236-16.082 8.202-37.304-.733-47.3-20.33-9.997-19.598-4.76-42.03 11.322-50.235 3.857-1.968 8.099-2.984 12.495-3.037zM259.948 149.347c-4.768-.057-9.677.93-14.426 2.952-9.493 4.045-17.624 11.884-22.676 21.79-10.516 20.615-5.11 44.675 12.429 53.623 17.539 8.946 40.188-.803 50.704-21.42 10.517-20.616 5.127-44.693-12.412-53.642-4.215-2.149-8.851-3.247-13.62-3.303zm-.052 2.517c4.398.05 8.656 1.068 12.514 3.034 16.081 8.205 21.319 30.64 11.321 50.235-9.996 19.597-31.235 28.533-47.315 20.331-16.082-8.204-21.301-30.638-11.305-50.235 4.797-9.406 12.513-16.812 21.402-20.598 4.443-1.894 8.987-2.818 13.385-2.766h-.002zM345.322 112.528c-2.358.127-4.877.428-6.34.82-.643.174-1.103.226-1.662.688-.277.233-.53.623-.621.957-.091.332-.075.591-.067.839.032.994.421 2.196 1.796 4.126 1.4 1.961 4.406 5.51 6.406 7.75 2 2.238 3.173 3.353 5.604 5.703a467.16 467.16 0 0 0 9.093 8.503c2.634 2.394 4.06 3.744 6.873 5.989 2.83 2.252 7.267 5.502 9.948 7.43 2.67 1.92 4.186 3.025 6.224 4.192 2.069 1.189 4.52 2.243 5.92 2.769.692.26 1.162.426 1.676.485.513.06 1.028-.05 1.374-.166.174-.06.634-.096 1.178-.522.541-.425.856-1.132.988-1.946.27-1.651.124-4.366-.035-6.607-.152-2.181-.23-4.366-.904-7.128-.666-2.72-1.842-6.331-3.07-9.125-1.213-2.76-2.539-5.141-4.245-7.48-1.708-2.346-3.795-4.605-5.97-6.525-2.184-1.93-4.588-3.59-7.06-4.998-2.51-1.429-5.46-2.667-7.817-3.489-2.43-.848-4.532-1.113-6.34-1.462a1.51 1.51 0 0 0-.136-.014c-1.756-.342-2.91-.609-5.03-.74-2.17-.133-5.417-.175-7.783-.049zm.132 2.532c2.21-.119 5.455-.094 7.498.035 2.035.123 2.95.356 4.832.72.044.007.088.014.133.017 1.874.356 3.764.623 5.87 1.357 2.234.779 5.075 1.973 7.381 3.289 2.345 1.335 4.613 2.903 6.642 4.695 2.04 1.803 4.013 3.944 5.603 6.123 1.593 2.186 2.821 4.381 3.974 7.01 1.143 2.596 2.294 6.152 2.918 8.707.616 2.512.7 4.463.855 6.69.154 2.172.208 5.08.052 6.024-.078.485-.13.433-.052.369.084-.065-.003-.023-.418.116-.239.082-.175.064-.284.051-.111-.011-.444-.098-1.073-.336-1.25-.47-3.67-1.518-5.554-2.598-1.917-1.103-3.333-2.141-6.004-4.06-2.66-1.912-7.1-5.158-9.846-7.347-2.754-2.198-4.107-3.482-6.76-5.887a463.977 463.977 0 0 1-9.023-8.437c-2.436-2.355-3.516-3.383-5.468-5.569-1.953-2.186-5.01-5.804-6.24-7.532-1.147-1.612-1.262-2.084-1.292-2.581.095-.034.066-.018.436-.119 1.034-.277 3.606-.618 5.82-.737zM246.277 110.884a28.507 28.507 0 0 0-3.842.052c-2.79.224-6.539.789-9.494 1.56-2.918.759-5.487 1.703-8.067 3.02a41.324 41.324 0 0 0-7.38 4.845c-2.251 1.85-4.273 3.97-6.055 6.19-1.808 2.25-3.494 4.965-4.68 7.16-1.222 2.268-1.817 4.31-2.448 6.039-.643 1.763-1.081 2.836-1.56 4.965-.478 2.122-1.041 5.344-1.293 7.7-.248 2.347-.34 4.864-.183 6.373.067.662.05 1.137.418 1.763.186.31.526.61.84.753.314.144.575.186.821.219.988.125 2.236-.09 4.362-1.14 2.16-1.07 6.142-3.463 8.67-5.085 2.53-1.62 3.804-2.6 6.508-4.629a466.998 466.998 0 0 0 9.848-7.63c2.781-2.225 4.332-3.416 6.994-5.838 2.672-2.434 6.595-6.296 8.921-8.637 2.319-2.333 3.64-3.677 5.117-5.502 1.502-1.855 2.933-4.105 3.673-5.4.368-.643.616-1.079.755-1.578.14-.497.11-1.012.05-1.375-.029-.178-.001-.656-.335-1.259-.334-.603-.98-1.03-1.762-1.29-1.587-.53-4.305-.806-6.541-1.007-1.088-.097-2.17-.207-3.337-.27zm-.118 2.534c1.086.057 2.125.153 3.237.252 2.166.194 5.047.604 5.955.905.466.157.401.19.352.102-.05-.092-.02.002.05.436.041.246.03.177 0 .283-.03.11-.169.423-.503 1.007-.66 1.157-2.073 3.38-3.44 5.066-1.39 1.72-2.645 2.968-4.963 5.3-2.308 2.324-6.228 6.194-8.823 8.555-2.606 2.371-4.064 3.499-6.86 5.737a463.227 463.227 0 0 1-9.78 7.581c-2.71 2.033-3.905 2.93-6.374 4.513-2.467 1.58-6.519 4.023-8.42 4.965-1.762.873-2.257.917-2.75.87-.016-.094-.01-.061-.051-.452-.11-1.064-.049-3.662.184-5.87.234-2.199.793-5.383 1.242-7.381.447-1.988.82-2.863 1.476-4.664.669-1.832 1.213-3.689 2.298-5.702 1.123-2.08 2.747-4.706 4.412-6.775 1.689-2.104 3.608-4.1 5.702-5.82 2.102-1.727 4.524-3.34 6.927-4.563 2.41-1.227 4.77-2.095 7.548-2.819 2.742-.714 6.452-1.28 9.074-1.491 1.29-.107 2.42-.091 3.507-.035zM396.042 169.823a3.462 3.462 0 0 0-1.642.42c-.91.502-1.717 1.319-2.517 2.582-.683 1.078-1.823 2.585-2.498 5.168-.653 2.488-1.24 6.177-1.409 9.66-.168 3.435-.084 6.503.4 11.071.488 4.563 1.425 11.484 2.518 16.404 1.087 4.916 2.705 9.655 3.976 12.881 1.29 3.291 2.577 5.076 3.74 6.66 1.29 1.754 2.751 2.768 3.689 3.387.472.31.881.589 1.444.754.557.168 1.212.108 1.76-.067 1.103-.351 2.014-1.092 3.303-2.43 1.266-1.317 3.407-3.631 4.815-5.84 1.401-2.2 2.46-4.85 3.286-6.858a40.148 40.148 0 0 0 1.879-5.603c.47-1.818.805-3.29 1.008-5.586.202-2.295.312-5.74.202-8.118-.112-2.394-.528-4.194-.856-5.903-.334-1.738-.615-3.283-1.224-4.916-.623-1.67-1.548-3.137-2.283-4.51-.759-1.424-1.515-2.806-2.397-4.228-.874-1.407-1.923-3.004-2.853-4.226-.927-1.216-1.745-2.072-2.665-3.001-.959-.967-1.993-1.863-2.97-2.686a61.124 61.124 0 0 0-3.004-2.347 25.186 25.186 0 0 0-2.162-1.444c-.553-.33-1.18-.883-2.216-1.09a6.235 6.235 0 0 0-1.324-.134zm.841 2.616c.269.055.672.352 1.407.79.62.368 1.14.717 1.946 1.307a64.24 64.24 0 0 1 2.886 2.248c.965.811 1.946 1.652 2.802 2.517.89.899 1.596 1.65 2.448 2.768.847 1.112 1.874 2.655 2.717 4.007.83 1.338 1.555 2.676 2.313 4.092.784 1.47 1.629 2.862 2.13 4.212.52 1.39.79 2.755 1.125 4.495.34 1.769.705 3.388.804 5.552.103 2.18.006 5.617-.183 7.767-.188 2.145-.495 3.41-.958 5.2a36.892 36.892 0 0 1-1.742 5.266c-.836 2.026-1.876 4.558-3.086 6.456-1.206 1.892-3.28 4.17-4.496 5.435-1.194 1.242-1.733 1.608-2.265 1.778-.267.084-.227.068-.287.05-.056-.018-.292-.143-.736-.436-.89-.587-2.043-1.386-3.07-2.784-1.154-1.57-2.216-3.01-3.42-6.073-1.23-3.123-2.808-7.76-3.858-12.494-1.049-4.73-1.988-11.651-2.466-16.135-.477-4.48-.547-7.358-.385-10.684.157-3.279.736-6.894 1.325-9.142.564-2.153 1.409-3.202 2.196-4.446.667-1.053 1.117-1.461 1.595-1.726.264-.148.66-.136 1.258-.017v-.003zM198.524 170.748a6.067 6.067 0 0 0-1.343.134c-1.035.208-1.66.762-2.213 1.09-.672.398-1.29.811-2.147 1.442-.854.628-2 1.506-3.003 2.349-.978.82-2.029 1.719-2.986 2.683-.922.93-1.723 1.786-2.65 3.002-.93 1.224-1.994 2.82-2.869 4.228-.882 1.422-1.62 2.802-2.38 4.226-.735 1.373-1.659 2.841-2.282 4.512-.608 1.632-.89 3.176-1.224 4.913-.33 1.712-.744 3.512-.856 5.906-.11 2.376-.001 5.823.203 8.118.2 2.294.536 3.766 1.006 5.586a40.318 40.318 0 0 0 1.86 5.6c.83 2.008 1.886 4.66 3.287 6.863 1.41 2.207 3.55 4.521 4.815 5.835 1.288 1.34 2.22 2.079 3.321 2.433.549.175 1.2.232 1.762.067.56-.166.954-.443 1.425-.754.938-.621 2.416-1.635 3.707-3.388 1.164-1.583 2.447-3.37 3.74-6.659 1.27-3.23 2.885-7.965 3.975-12.883 1.091-4.92 2.03-11.841 2.517-16.404.486-4.568.568-7.636.402-11.07-.168-3.482-.757-7.174-1.408-9.661-.677-2.582-1.835-4.09-2.517-5.166-.801-1.265-1.606-2.08-2.515-2.583a3.43 3.43 0 0 0-1.627-.419zm-.84 2.616c.597-.118.976-.13 1.242.018.478.262.942.672 1.61 1.726.788 1.244 1.632 2.292 2.197 4.445.59 2.248 1.168 5.863 1.326 9.142.16 3.326.09 6.204-.386 10.682-.478 4.487-1.434 11.407-2.482 16.137-1.05 4.734-2.63 9.372-3.859 12.495-1.204 3.064-2.267 4.503-3.421 6.073-1.027 1.397-2.161 2.196-3.053 2.785-.444.292-.695.418-.755.434-.058.018-.001.035-.268-.049-.532-.17-1.07-.539-2.264-1.778-1.218-1.265-3.29-3.546-4.496-5.434-1.21-1.9-2.248-4.431-3.085-6.46a37.498 37.498 0 0 1-1.762-5.264c-.461-1.792-.75-3.054-.939-5.2-.189-2.149-.303-5.586-.201-7.767.1-2.164.482-3.783.821-5.552.335-1.74.59-3.107 1.108-4.495.503-1.35 1.36-2.742 2.146-4.21.759-1.418 1.483-2.755 2.316-4.092.84-1.353 1.868-2.896 2.715-4.01.854-1.117 1.544-1.868 2.434-2.766.855-.865 1.852-1.707 2.818-2.517.94-.79 2.055-1.65 2.867-2.247.807-.595 1.344-.94 1.963-1.31.737-.437 1.138-.733 1.408-.788v.002zM296.43 237.538a96.277 96.277 0 0 0-6.324.068c-4.382.202-9.542.608-14.224 1.36-4.663.746-8.735 1.726-13.703 3.118-4.94 1.387-10.945 3.053-16.254 5.284-5.327 2.24-11.626 5.913-15.23 7.95a1.44 1.44 0 0 0-.2.133c-3.426 1.954-4.443 2.785-6.542 4.344-2.261 1.683-5.117 4.222-6.508 5.37-.668.55-1.023.766-1.375 1.006-.353.24-.797.638-1.073 1.14-.236.425-.393 1.058-.37 1.441.024.386.08.66.068 1.494-.028 1.75-.192 5.658-.034 8.503.154 2.794.507 5.54.957 8.135.44 2.562.832 4.823 1.76 7.565.915 2.708 2.239 5.976 3.741 8.706 1.489 2.708 3.211 5.166 5.183 7.515 1.988 2.37 4.391 4.66 6.658 6.592 2.236 1.904 3.95 3.296 7.028 5.064 3.095 1.778 8.061 4.146 11.355 5.502 3.299 1.36 5.272 1.81 8.304 2.599 2.992.78 5.521 1.66 10.299 2.248 4.74.583 11.594 1.085 18.064 1.258 6.489.176 15.497-.038 20.715-.2 5.227-.163 7.117-.381 10.702-.79 3.62-.412 7.473-1.014 11.004-1.693 3.521-.675 7.237-1.468 10.212-2.365 2.968-.894 4.757-1.723 7.448-2.95 2.7-1.235 6.256-2.876 9.024-4.564 2.746-1.675 5.271-3.643 7.279-5.402 2.03-1.776 3.196-3.19 4.814-5.183 1.593-1.96 3.585-4.216 5.165-7.093 1.548-2.817 3.072-6.386 4.06-9.711.987-3.333 1.483-6.65 1.828-10.099.35-3.523.337-8.19.267-10.77-.068-2.555-.18-3.625-.751-5.062-.584-1.464-1.316-2.3-2.785-3.725-1.498-1.45-3.961-3.631-6.41-5.301-2.403-1.636-4.682-2.915-8-4.528-3.344-1.627-7.896-3.521-11.96-5.199-4.034-1.667-7.902-3.418-12.56-4.93-4.656-1.512-10.935-3.087-15.149-4.044-4.23-.962-6.772-1.286-10.181-1.71-3.44-.428-6.734-.703-10.5-.871-1.867-.085-3.791-.165-5.803-.205zm-.05 2.516c1.971.04 3.87.136 5.736.22 3.704.165 6.918.432 10.298.855 3.412.423 5.814.72 9.946 1.66 4.15.944 10.397 2.527 14.913 3.994 4.508 1.46 8.311 3.174 12.395 4.863 4.056 1.677 8.578 3.56 11.808 5.131 3.259 1.585 5.39 2.784 7.682 4.345 2.245 1.53 4.661 3.65 6.07 5.014 1.438 1.395 1.714 1.677 2.181 2.854.479 1.201.522 1.674.586 4.19.068 2.501.062 7.155-.267 10.451-.336 3.373-.805 6.517-1.728 9.63-.924 3.112-2.406 6.566-3.858 9.207-1.416 2.579-3.261 4.707-4.897 6.725-1.613 1.988-2.62 3.21-4.512 4.864-1.918 1.677-4.36 3.573-6.945 5.15-2.564 1.567-6.065 3.2-8.756 4.427-2.695 1.23-4.285 1.969-7.111 2.819-2.817.848-6.501 1.65-9.98 2.314a148.359 148.359 0 0 1-10.801 1.662c-3.582.409-5.319.609-10.5.772-5.194.16-14.177.373-20.548.2-6.388-.173-13.211-.673-17.83-1.241-4.582-.564-6.86-1.372-9.962-2.182-3.063-.795-4.847-1.181-8-2.481-3.159-1.302-8.132-3.69-11.055-5.367-2.937-1.688-4.442-2.91-6.657-4.796-2.185-1.863-4.499-4.076-6.357-6.292a43.666 43.666 0 0 1-4.882-7.11c-1.394-2.538-2.698-5.705-3.573-8.286-.86-2.548-1.219-4.638-1.66-7.196-.435-2.526-.775-5.16-.923-7.834-.143-2.621.006-6.495.035-8.335.014-.962-.058-1.509-.068-1.677-.011-.17-.095.193.051-.07.103-.185.001-.086.268-.267.267-.181.81-.524 1.577-1.156 1.482-1.224 4.324-3.721 6.424-5.285 2.206-1.64 2.898-2.287 6.473-4.309.036-.022.068-.045.102-.067 3.645-2.066 9.828-5.636 14.861-7.75 5.092-2.142 11.007-3.795 15.951-5.183 4.917-1.38 8.851-2.324 13.4-3.053 4.535-.728 9.639-1.127 13.957-1.326a94.75 94.75 0 0 1 6.156-.084z"/><path d="M269.759 251.463c-1.474 0-2.67.94-3.59 2.213-.92 1.273-1.672 2.97-2.298 5.014-1.25 4.093-1.995 9.6-1.995 15.685 0 5.846.7 11.44 1.995 15.682.648 2.12 1.42 3.825 2.35 5.082.927 1.258 2.112 2.163 3.538 2.163 1.474 0 2.687-.957 3.607-2.23.92-1.274 1.672-2.97 2.296-5.015 1.252-4.093 1.997-9.6 1.997-15.682 0-5.846-.7-11.443-1.997-15.685-.648-2.119-1.42-3.808-2.348-5.063-.927-1.26-2.128-2.164-3.555-2.164zm0 2.531c.329 0 .863.226 1.527 1.124.663.9 1.352 2.37 1.945 4.311 1.186 3.883 1.895 9.304 1.895 14.946 0 5.875-.75 11.197-1.895 14.943-.573 1.874-1.248 3.36-1.912 4.277-.664.92-1.205 1.175-1.56 1.175-.329 0-.846-.242-1.51-1.14-.663-.9-1.352-2.37-1.946-4.31-1.19-3.881-1.899-9.307-1.899-14.95 0-5.875.75-11.197 1.896-14.945.572-1.872 1.247-3.34 1.911-4.26.664-.919 1.19-1.173 1.543-1.173l.005.002zM325.042 251.463c-1.473 0-2.667.94-3.587 2.213-.92 1.273-1.675 2.97-2.3 5.014-1.252 4.093-1.996 9.6-1.996 15.685 0 5.846.7 11.44 1.996 15.682.648 2.12 1.422 3.825 2.349 5.082.928 1.258 2.111 2.163 3.538 2.163 1.474 0 2.688-.957 3.608-2.23.92-1.274 1.671-2.97 2.297-5.015 1.25-4.093 1.995-9.6 1.995-15.682 0-5.846-.699-11.443-1.995-15.685-.647-2.119-1.421-3.808-2.348-5.063-.928-1.26-2.13-2.164-3.557-2.164zm0 2.531c.33 0 .863.226 1.526 1.124.664.9 1.355 2.37 1.946 4.311 1.188 3.883 1.896 9.304 1.896 14.946 0 5.875-.75 11.197-1.896 14.943-.571 1.874-1.248 3.36-1.911 4.277-.662.92-1.206 1.175-1.56 1.175-.329 0-.847-.242-1.512-1.14-.662-.9-1.35-2.37-1.943-4.31-1.191-3.881-1.9-9.307-1.9-14.95 0-5.875.75-11.197 1.895-14.945.574-1.872 1.25-3.34 1.911-4.26.665-.919 1.19-1.173 1.543-1.173l.005.002z"/></g></svg>