<svg xmlns="http://www.w3.org/2000/svg" viewBox="0 0 566.9 150.8" xml:space="preserve"><path fill="#c3c6c5" d="M79.8 76c8.3-9.7 20.7-15.9 34.5-15.9 2.8 0 5.5.3 8.1.7 1.8-4.9 2.7-10.1 2.7-15.6 0-25-20.3-45.3-45.3-45.3-25 0-45.3 20.3-45.3 45.3 0 5.5 1 10.7 2.8 15.6 2.7-.5 5.4-.8 8.2-.8 13.6.2 26 6.3 34.3 16zm42.6-15.1C117 75.8 103.9 87 88 89.9c1.8 4.9 2.7 10.1 2.7 15.6 0 11.3-4.1 21.5-10.9 29.5 8.3 9.7 20.7 15.9 34.5 15.9 25 0 45.3-20.3 45.3-45.3 0-22.4-16.1-40.9-37.2-44.7zm-50.7 29c-16-2.9-29-14.1-34.5-29C16 64.8 0 83.3 0 105.5c0 25 20.3 45.3 45.3 45.3 13.8 0 26.1-6.2 34.5-15.9-6.8-7.9-10.9-18.2-10.9-29.5 0-5.4 1-10.6 2.8-15.5zm0 0c2.6.5 5.3.7 8.1.7s5.5-.3 8.2-.7c-1.9-5.1-4.7-9.8-8.1-13.9-3.6 4.1-6.4 8.8-8.2 13.9z"/><g fill="#c3c6c5"><path d="M253.2 55.9c0 8.9-3 15.7-9.1 20.5-6 4.7-14.6 7.1-25.7 7.1h-14.2v38.1h-6.4V29.5h22.6c21.8 0 32.8 8.8 32.8 26.4zm-49 22.1h12.7c10.4 0 17.9-1.7 22.5-5.1 4.6-3.4 6.9-9 6.9-16.7 0-7.1-2.2-12.4-6.6-15.8-4.4-3.4-11.1-5.1-20.3-5.1h-15.2V78zM350.7 75.4c0 14.6-3.7 26.2-11 34.7-7.3 8.5-17.4 12.8-30.2 12.8s-22.9-4.3-30.2-12.8c-7.3-8.5-11-20.1-11-34.8 0-14.7 3.7-26.2 11.1-34.6 7.4-8.4 17.4-12.6 30.2-12.6 12.9 0 22.9 4.2 30.2 12.7 7.2 8.4 10.9 19.9 10.9 34.6zm-75.4 0c0 13.2 2.9 23.4 8.8 30.6 5.9 7.2 14.3 10.8 25.3 10.8 11.1 0 19.6-3.6 25.4-10.7 5.9-7.1 8.8-17.4 8.8-30.7s-2.9-23.4-8.8-30.5c-5.9-7.1-14.3-10.6-25.3-10.6s-19.4 3.6-25.4 10.7c-5.8 7.1-8.8 17.2-8.8 30.4zM378.2 81.4v40.1h-6.4v-92h21.9c11.4 0 19.9 2.1 25.3 6.3 5.5 4.2 8.2 10.6 8.2 19.1 0 6.2-1.6 11.4-4.9 15.6-3.3 4.2-8.2 7.3-14.8 9.1l25 42h-7.7L401 81.5h-22.8v-.1zm0-5.5h17.6c7.8 0 13.8-1.7 18.1-5.2 4.3-3.5 6.4-8.6 6.4-15.3 0-7-2.1-12.1-6.3-15.3-4.2-3.2-11.1-4.8-20.5-4.8h-15.2v40.6zM472.5 121.6H466V35.5h-29.9v-6h66.3v6h-29.9v86.1zM566.9 97.8c0 7.7-2.8 13.8-8.5 18.3-5.6 4.5-13.2 6.7-22.5 6.7-11.3 0-19.9-1.2-25.9-3.7v-6.4c6.6 2.8 15.1 4.2 25.4 4.2 7.6 0 13.6-1.7 18-5.2s6.6-8 6.6-13.6c0-3.5-.7-6.4-2.2-8.7-1.5-2.3-3.9-4.4-7.2-6.3-3.3-1.9-8.2-3.9-14.6-6.1-9.4-3.2-15.9-6.7-19.5-10.5-3.6-3.8-5.4-8.8-5.4-15 0-6.9 2.7-12.5 8.1-16.9 5.4-4.3 12.3-6.5 20.8-6.5 8.7 0 16.8 1.6 24.4 4.9l-2.3 5.5c-7.6-3.2-15-4.8-21.9-4.8-6.8 0-12.2 1.6-16.3 4.7-4 3.1-6 7.4-6 12.9 0 3.4.6 6.2 1.9 8.4 1.2 2.2 3.3 4.1 6.1 5.9 2.8 1.7 7.6 3.8 14.5 6.3 7.2 2.5 12.6 4.9 16.2 7.2 3.6 2.3 6.2 5 7.9 7.9 1.6 3 2.4 6.6 2.4 10.8z"/></g></svg>