<svg xmlns="http://www.w3.org/2000/svg" width="598.9" height="351" xml:space="preserve"><g fill="#FFF"><path d="M140.92 37.153c-10.23 0-18.522 8.292-18.522 18.521v241.954a16.13 16.13 0 0 0 16.152 16.152h321.852a16.13 16.13 0 0 0 16.152-16.152V79.04a16.13 16.13 0 0 0-16.152-16.151H256.458c-4.845 0-12.49-3.23-15.29-12.707-1.615-5.383-5.492-8.614-9.26-10.552s-7.215-2.477-8.83-2.477H140.92zm0 2.37h82.266c.861 0 4.415.538 7.753 2.153s6.676 4.522 7.968 9.045c3.123 10.445 11.737 14.429 17.551 14.429H460.294a13.74 13.74 0 0 1 13.783 13.783V297.52a13.74 13.74 0 0 1-13.783 13.783H138.55a13.74 13.74 0 0 1-13.783-13.783V55.674a16.13 16.13 0 0 1 16.152-16.152z"/><path d="M141.673 79.471c-10.66 0-19.275 8.614-19.275 19.275V278.46h2.37V98.638a16.866 16.866 0 0 1 16.905-16.906h315.606a16.866 16.866 0 0 1 16.906 16.906v179.716h2.369V98.638c0-10.66-8.615-19.275-19.275-19.275H141.673zM123.152 285.137V294.505H475.8v-9.368H123.152zm.862.97H474.83v7.537H124.014v-7.537z"/><path d="M123.152 293.644v8.291H475.8v-8.291H123.152zm.862.97H474.83v6.46H124.014v-6.46zM237.4 117.912v.539c-2.047.646-3.77 2.153-3.877 4.415L223.4 255.849c-.215 2.907 2.046 5.6 4.953 5.814l85.497 6.569c2.37.215 4.415-1.185 5.384-3.23l.646-1.508-78.605-17.336c-1.508-.323-2.37-1.723-2.046-3.23l27.027-122.97-26.92-2.046H237.4zm1.4 2.692h.215l23.797 1.83-26.49 119.955c-.646 2.907 1.185 5.815 4.092 6.46l74.083 16.368c-.323.108-.43.43-.646.43l-85.497-6.568c-1.507-.108-2.584-1.4-2.476-2.907L236 123.189c.323-1.508 1.507-2.477 2.8-2.585z"/><path d="M270.564 107.898c-2.476 0-4.737 1.723-5.384 4.2l-28.75 130.291c-.646 2.907 1.185 5.815 4.092 6.46l83.666 18.414c2.908.646 5.815-1.185 6.461-4.092l.538-2.369-74.298-24.55c-1.4-.431-2.153-1.939-1.723-3.446l39.626-119.74-23.043-5.06v-.108h-1.185zm0 2.692c.216 0 .323 0 .539.108l20.243 4.415-38.656 116.831c-.97 2.8.646 5.922 3.445 6.784l72.037 23.797c-.323 1.507-1.722 2.369-3.23 2.046l-83.666-18.413c-1.508-.323-2.37-1.723-2.046-3.23l28.75-130.292c.215-1.292 1.292-2.046 2.584-2.046z"/><path d="M301.36 101.868c-2.8-.969-5.922.646-6.783 3.446l-41.887 126.63c-.97 2.8.646 5.922 3.445 6.784l81.406 26.92c2.8.969 5.922-.647 6.783-3.446l41.887-126.63c.97-2.8-.646-5.923-3.445-6.784l-81.406-26.92zm-.861 2.585 81.405 26.92c1.4.43 2.154 1.937 1.723 3.445l-41.887 126.63c-.43 1.4-1.938 2.154-3.446 1.723l-81.405-26.92c-1.4-.43-2.153-1.938-1.723-3.445l41.887-126.63c.539-1.4 2.046-2.154 3.446-1.723z"/></g></svg>