<?xml version="1.0" encoding="utf-8"?>
<!-- Generator: Adobe Illustrator 18.0.0, SVG Export Plug-In . SVG Version: 6.00 Build 0)  -->
<!DOCTYPE svg PUBLIC "-//W3C//DTD SVG 1.1//EN" "http://www.w3.org/Graphics/SVG/1.1/DTD/svg11.dtd">
<svg version="1.1"
	 id="svg9136" xmlns:dc="http://purl.org/dc/elements/1.1/" xmlns:cc="http://creativecommons.org/ns#" xmlns:inkscape="http://www.inkscape.org/namespaces/inkscape" xmlns:sodipodi="http://sodipodi.sourceforge.net/DTD/sodipodi-0.dtd" xmlns:svg="http://www.w3.org/2000/svg" xmlns:rdf="http://www.w3.org/1999/02/22-rdf-syntax-ns#" sodipodi:docname="controller.svg" inkscape:version="0.91 r13725"
	 xmlns="http://www.w3.org/2000/svg" xmlns:xlink="http://www.w3.org/1999/xlink" x="0px" y="0px" width="598.9px" height="351px"
	 viewBox="0 0 598.9 351" enable-background="new 0 0 598.9 351" xml:space="preserve">
<sodipodi:namedview  inkscape:zoom="0.26563649" units="px" pagecolor="#ffffff" inkscape:cx="116.9039" bordercolor="#666666" borderopacity="1.0" fit-margin-top="0" inkscape:cy="28.435225" showgrid="false" fit-margin-left="0" showguides="false" id="base" inkscape:bbox-nodes="true" inkscape:bbox-paths="true" inkscape:snap-bbox="true" inkscape:snap-global="false" fit-margin-bottom="0" fit-margin-right="0" inkscape:window-maximized="0" inkscape:window-y="107" inkscape:current-layer="layer1" inkscape:document-units="px" inkscape:pageopacity="0.0" inkscape:window-height="808" inkscape:window-x="-2" inkscape:window-width="1440" inkscape:pageshadow="2">
	</sodipodi:namedview>
<g id="layer1" transform="translate(9.2011719,-238.94944)" inkscape:label="Layer 1" inkscape:groupmode="layer">
	<g id="g5316" transform="matrix(0.06841316,0,0,0.06841316,13.37323,279.01986)">
	</g>
	<g id="g54449" transform="matrix(1.0767869,0,0,1.0767869,33.084373,-35.303962)">
		<g id="g54400">
			<path id="path7905" inkscape:connector-curvature="0" fill="#FFFFFF" d="M91.6,289.2c-9.5,0-17.2,7.7-17.2,17.2v21.7v6.3v196.7
				c0,8.3,6.7,15,15,15h298.9c8.3,0,15-6.7,15-15v-203c0-8.3-6.7-15-15-15H202.9h-4c-4.5,0-11.6-3-14.2-11.8c-1.5-5-5.1-8-8.6-9.8
				s-6.7-2.3-8.2-2.3c-20.6,0-58.2,0-75.3,0L91.6,289.2z M91.6,291.4c16.7,0,55.4,0,76.4,0c0.8,0,4.1,0.5,7.2,2s6.2,4.2,7.4,8.4
				c2.9,9.7,10.9,13.4,16.3,13.4h4h185.3c7.1,0,12.8,5.7,12.8,12.8v203c0,7.1-5.7,12.8-12.8,12.8H89.4c-7.1,0-12.8-5.7-12.8-12.8
				V334.4v-6.3v-21.7C76.6,298.1,83.3,291.4,91.6,291.4L91.6,291.4z"/>
			<path id="path7907" inkscape:connector-curvature="0" fill="#FFFFFF" d="M92.3,328.5c-9.9,0-17.9,8-17.9,17.9v27.8v120.3v18.8
				h2.2v-18.8V374.1v-27.8c0-8.7,7-15.7,15.7-15.7h293.1c8.7,0,15.7,7,15.7,15.7v27.8v120.3v18.8h2.2v-18.8V374.1v-27.8
				c0-9.9-8-17.9-17.9-17.9H92.3z"/>
			<path id="rect7909" inkscape:connector-curvature="0" fill="#FFFFFF" d="M75.1,519.5v0.4v8.3h327.5v-8.7H75.1z M75.9,520.4h325.8
				v7H75.9L75.9,520.4z"/>
			<path id="rect5420" inkscape:connector-curvature="0" fill="#FFFFFF" d="M75.1,527.4v0.4v7.3h327.5v-7.7H75.1z M75.9,528.3h325.8
				v6H75.9L75.9,528.3z"/>
		</g>
		<path id="rect54402" inkscape:connector-curvature="0" fill="#FFFFFF" d="M181.2,364.2v0.5c-1.9,0.6-3.5,2-3.6,4.1l-9.4,123.5
			c-0.2,2.7,1.9,5.2,4.6,5.4l79.4,6.1c2.2,0.2,4.1-1.1,5-3l0.6-1.4l-73-16.1c-1.4-0.3-2.2-1.6-1.9-3L208,366.1l-25-1.9h0
			c-0.2,0-0.4,0-0.5,0h0L181.2,364.2z M182.5,366.7c0.1,0,0.2,0,0.2,0h0l22.1,1.7l-24.6,111.4c-0.6,2.7,1.1,5.4,3.8,6l68.8,15.2
			c-0.3,0.1-0.4,0.4-0.6,0.4l-79.4-6.1c-1.4-0.1-2.4-1.3-2.3-2.7l9.4-123.5C180.2,367.7,181.3,366.8,182.5,366.7L182.5,366.7z"/>
		<path id="rect54404" inkscape:connector-curvature="0" fill="#FFFFFF" d="M212,354.9c-2.3,0-4.4,1.6-5,3.9l-26.7,121
			c-0.6,2.7,1.1,5.4,3.8,6l77.7,17.1c2.7,0.6,5.4-1.1,6-3.8l0.5-2.2l-69-22.8c-1.3-0.4-2-1.8-1.6-3.2l36.8-111.2l-21.4-4.7l0-0.1
			L212,354.9z M212,357.4c0.2,0,0.3,0,0.5,0.1l18.8,4.1l-35.9,108.5c-0.9,2.6,0.6,5.5,3.2,6.3l66.9,22.1c-0.3,1.4-1.6,2.2-3,1.9
			l-77.7-17.1c-1.4-0.3-2.2-1.6-1.9-3l26.7-121C209.8,358.1,210.8,357.4,212,357.4L212,357.4z"/>
		<path id="rect54408" inkscape:connector-curvature="0" fill="#FFFFFF" d="M240.6,349.3c-2.6-0.9-5.5,0.6-6.3,3.2l-38.9,117.6
			c-0.9,2.6,0.6,5.5,3.2,6.3l75.6,25c2.6,0.9,5.5-0.6,6.3-3.2l38.9-117.6c0.9-2.6-0.6-5.5-3.2-6.3L240.6,349.3z M239.8,351.7
			l75.6,25c1.3,0.4,2,1.8,1.6,3.2l-38.9,117.6c-0.4,1.3-1.8,2-3.2,1.6l-75.6-25c-1.3-0.4-2-1.8-1.6-3.2l38.9-117.6
			C237.1,352,238.5,351.3,239.8,351.7L239.8,351.7z"/>
	</g>
</g>
</svg>
