<svg xmlns="http://www.w3.org/2000/svg" xmlns:xlink="http://www.w3.org/1999/xlink" width="302.341" height="66.534" viewBox="0 0 79.994 17.604"><defs><linearGradient id="b"><stop style="stop-color:#000;stop-opacity:1" offset="0"/><stop offset=".007" style="stop-color:#c5bb8f;stop-opacity:1"/><stop style="stop-color:#fbe38c;stop-opacity:1" offset=".018"/><stop style="stop-color:#fffbb1;stop-opacity:0" offset="1"/></linearGradient><linearGradient id="a"><stop style="stop-color:#ffcf64;stop-opacity:1" offset="0"/><stop style="stop-color:#d09236;stop-opacity:1" offset="1"/></linearGradient><linearGradient xlink:href="#b" id="d" x1="17.804" y1="17.983" x2="17.804" y2="46.173" gradientUnits="userSpaceOnUse"/><radialGradient xlink:href="#a" id="c" cx="55.191" cy="275.031" fx="55.191" fy="275.031" r="39.815" gradientTransform="matrix(1.04652 0 0 .38403 -2.567 169.728)" gradientUnits="userSpaceOnUse"/></defs><g aria-label="All Games" style="font-style:normal;font-variant:normal;font-weight:400;font-stretch:normal;font-size:20.44046021px;line-height:12.77528667px;font-family:'namco regular';-inkscape-font-specification:'namco regular, ';letter-spacing:0;word-spacing:0;fill:#fbe01b;fill-opacity:1;stroke:none;stroke-width:.51101148px;stroke-linecap:butt;stroke-linejoin:miter;stroke-opacity:1"><g style="font-style:normal;font-variant:normal;font-weight:400;font-stretch:normal;font-size:medium;line-height:4.55890989px;font-family:'namco regular';-inkscape-font-specification:'namco regular, ';letter-spacing:0;word-spacing:0;fill:#000;fill-opacity:1;stroke:none;stroke-width:.18235639px;stroke-linecap:butt;stroke-linejoin:miter;stroke-opacity:1"><path d="M48.426 171.732a.631.631 0 0 0-.447.184l-3.446 3.445a.631.631 0 0 0-.183.448v20.677c-.001.168.065.329.183.448l3.446 3.445c.118.118.28.184.447.184h20.678c.348 0 .63-.283.63-.631v-6.893a.631.631 0 0 0-.63-.63H52.502v-12.522h13.154a.631.631 0 0 0 .565-.348l3.447-6.893a.631.631 0 0 0-.564-.914zm27.191 0a.632.632 0 0 0-.447.184l-3.445 3.445a.631.631 0 0 0-.184.448v20.677c0 .168.065.329.184.448l3.445 3.445c.119.118.28.184.447.184h17.23a.631.631 0 0 0 .448-.184l3.447-3.445a.631.631 0 0 0 .184-.448V175.81a.631.631 0 0 0-.184-.448l-3.447-3.445a.631.631 0 0 0-.447-.184zm23.746 0a.631.631 0 0 0-.63.631v27.569c0 .348.282.63.63.63h20.678a.631.631 0 0 0 .564-.347l3.446-6.893a.631.631 0 0 0-.565-.914h-16.6v-20.045a.631.631 0 0 0-.63-.63zm27.192 0a.631.631 0 0 0-.631.631v27.569c0 .348.282.63.63.63h20.678a.631.631 0 0 0 .565-.347l3.445-6.893a.631.631 0 0 0-.564-.914h-16.6v-20.045a.631.631 0 0 0-.63-.63zm27.193 0a.631.631 0 0 0-.63.631v27.569c0 .348.282.63.63.63h20.676c.348 0 .63-.282.63-.63v-6.893a.631.631 0 0 0-.63-.63H161.27v-2.184h13.153c.348 0 .63-.283.63-.631V182.7a.631.631 0 0 0-.63-.63H161.27v-2.184h13.153c.348 0 .63-.283.63-.631v-6.893a.631.631 0 0 0-.63-.63zm27.191 0a.631.631 0 0 0-.447.184l-3.445 3.445a.631.631 0 0 0-.184.448v20.677c0 .168.066.329.184.448l3.445 3.445c.119.118.28.184.447.184h20.676c.349 0 .63-.283.631-.631v-6.893a.631.631 0 0 0-.63-.63h-16.6v-12.522h13.154a.631.631 0 0 0 .564-.348l3.446-6.893a.631.631 0 0 0-.565-.914zm23.747 0a.631.631 0 0 0-.631.631v6.893c0 .348.282.63.63.63h7.985v20.046c0 .348.282.63.63.63h6.893c.349 0 .63-.282.631-.63v-20.045h7.985c.348 0 .63-.283.63-.631v-6.893a.631.631 0 0 0-.63-.63zm27.19 0a.631.631 0 0 0-.63.631v27.569c0 .348.283.63.63.63h6.894c.348 0 .63-.282.63-.63v-27.569a.631.631 0 0 0-.63-.63zm13.41 0a.631.631 0 0 0-.448.184l-3.447 3.445a.631.631 0 0 0-.184.448v20.677c0 .168.066.329.184.448l3.447 3.445c.119.118.28.184.447.184h17.23a.632.632 0 0 0 .448-.184l3.445-3.445a.631.631 0 0 0 .184-.448V175.81a.631.631 0 0 0-.184-.448l-3.445-3.445a.631.631 0 0 0-.447-.184zm23.745 0a.631.631 0 0 0-.63.631v27.569c0 .348.282.63.63.63h6.89c.35 0 .631-.282.632-.63v-14.557l7.42 14.84a.631.631 0 0 0 .564.348h8.615c.349 0 .63-.283.631-.631v-27.569a.631.631 0 0 0-.63-.63h-6.891a.631.631 0 0 0-.631.63v14.557l-7.42-14.84a.631.631 0 0 0-.565-.348zm30.637 0a.631.631 0 0 0-.447.184l-3.446 3.445a.631.631 0 0 0-.183.448v10.34c0 .167.065.328.183.447l3.446 3.445c.119.118.28.184.447.184h13.154v2.183h-16.6a.631.631 0 0 0-.63.631v6.893c0 .348.282.63.63.63h17.231a.632.632 0 0 0 .447-.183l6.893-6.893a.631.631 0 0 0 .184-.447v-10.338a.631.631 0 0 0-.631-.63h-16.6v-2.184h13.258c.349 0 .484-.313.631-.631l3.342-6.893a.424.424 0 0 0-.05-.457c-.115-.154-.374-.173-.581-.174zm-219.973 8.155h9.076v12.521h-9.076zm169.666 0h9.076v12.521h-9.076z" style="font-style:normal;font-variant:normal;font-weight:400;font-stretch:normal;line-height:8.9508543px;font-family:Guardians;-inkscape-font-specification:Guardians;text-align:center;text-anchor:middle;stroke-width:.68922102px" transform="matrix(.28918 0 0 .28918 -12.825 -45.028)"/></g><path style="font-style:normal;font-variant:normal;font-weight:400;font-stretch:normal;font-size:medium;line-height:8.9508543px;font-family:Guardians;-inkscape-font-specification:Guardians;text-align:center;letter-spacing:0;word-spacing:0;text-anchor:middle;fill:url(#c);fill-opacity:1;stroke:none;stroke-width:.19930761px;stroke-linecap:butt;stroke-linejoin:miter;stroke-opacity:1" d="m16.77 271.561-.996.997v5.98l.996.995h5.98v-1.993h-4.984v-3.986h3.986l.997-1.993zm7.863 0-.996.997v5.98l.996.995h4.983l.997-.996v-5.98l-.997-.996zm6.867 0v7.972h5.98l.996-1.993h-4.983v-5.979zm7.863 0v7.972h5.98l.996-1.993h-4.983v-5.979zm7.864 0v7.972h5.979v-1.993H49.22v-.996h3.986v-1.993H49.22v-.997h3.986v-1.993zm7.863 0-.996.997v5.98l.996.995h5.979v-1.993h-4.983v-3.986h3.987l.996-1.993zm6.867 0v1.993h2.491v5.98h1.993v-5.98h2.492v-1.993zm7.863 0v7.972h1.993v-7.972zm3.877 0-.997.997v5.98l.997.995h4.983l.996-.996v-5.98l-.996-.996Zm6.867 0v7.972h1.993v-4.982l2.491 4.982h2.491v-7.972h-1.992v4.983l-2.492-4.983zm8.86 0-.997.997v2.99l.997.996h3.986v.996h-4.983v1.993h4.983l1.993-1.993v-2.99H90.42v-.996h3.987l.996-1.993zm-63.794 1.993h2.99v3.986h-2.99zm49.064 0h2.989v3.986h-2.99z" transform="translate(-15.591 -266.745)"/><path style="font-style:normal;font-variant:normal;font-weight:400;font-stretch:normal;font-size:medium;line-height:8.9508543px;font-family:Guardians;-inkscape-font-specification:Guardians;text-align:center;letter-spacing:0;word-spacing:0;text-anchor:middle;fill:url(#d);fill-opacity:1;stroke:none;stroke-width:.75328863px;stroke-linecap:butt;stroke-linejoin:miter;stroke-opacity:1" d="M4.455 18.201.69 21.967v22.6l3.766 3.765h.18l-3.498-3.498v-22.6l3.765-3.765H26.92l.135-.268zm29.719 0-3.766 3.766v22.6l3.766 3.765h.18l-3.499-3.498v-22.6l3.766-3.765h18.652l-.267-.268zm25.953 0v30.131h.447V18.469h7.086V18.2zm29.719 0v30.131h.447V18.469h7.086V18.2zm29.722 0v30.131h.446V18.469h22.152V18.2zm29.72 0-3.767 3.766v22.6l3.766 3.765h.178l-3.498-3.498v-22.6l3.765-3.765h22.02l.133-.268zm25.952 0v7.533h.447V18.47h25.918V18.2zm29.719 0v30.131h.447V18.469h7.086V18.2zm14.654 0-3.767 3.766v22.6l3.767 3.765h.18l-3.5-3.498v-22.6l3.768-3.765h18.652l-.268-.268zm25.953 0v30.131h.448V18.469h9.103l-.135-.268zm18.832 0v18.205l.448.895V18.469h7.084V18.2zm14.655 0-3.766 3.766v11.3l3.766 3.766h.177l-3.498-3.498v-11.3l3.766-3.766h22.018l.136-.268zM49.24 26.002v14.797H38.39v.267h11.298V26.002Zm135.416 0v22.33h.448v-22.33Zm50.022 0v14.797h-10.852v.267h11.299V26.002ZM127.547 29.5v.268h14.619V29.5Zm155.719 0v.268h18.386V29.5Zm-29.721.268v.627l8.969 17.937h.314zm40.574 7.533v3.498h-18.832v7.533h.445v-7.266h18.832v-3.765ZM8.668 40.799v.267h18.387V40.8zm59.44 0v.267h18.251l.133-.267zm29.718 0v.267h18.254l.133-.267zm29.72 0v.267h14.62V40.8zm25.952 0v.267h18.387V40.8z" transform="scale(.26458)"/></g></svg>