<svg version="1.2" baseProfile="tiny" xmlns="http://www.w3.org/2000/svg" width="598.189" height="350.26" xml:space="preserve"><path fill="#F4F4F4" d="M205.004 44.494a4.313 4.313 0 0 0-4.299 4.299v138.192a4.315 4.315 0 0 0 4.299 4.301h184.914c2.363 0 4.276-1.937 4.276-4.301V48.793c0-2.363-1.912-4.299-4.276-4.299H205.004zm0 1.433h184.914c1.589 0 2.843 1.276 2.843 2.866v138.192c0 1.59-1.254 2.866-2.843 2.866H205.004a2.857 2.857 0 0 1-2.866-2.866V48.793a2.858 2.858 0 0 1 2.866-2.866z"/><path fill="#F4F4F4" d="M192.667 27.187a4.312 4.312 0 0 0-4.299 4.299V284.8c0 2.365 1.935 4.3 4.299 4.3h209.568a4.314 4.314 0 0 0 4.299-4.3V31.485a4.314 4.314 0 0 0-4.299-4.299H192.667zm0 1.432h209.568a2.856 2.856 0 0 1 2.865 2.866V284.8a2.855 2.855 0 0 1-2.865 2.865H192.667a2.856 2.856 0 0 1-2.866-2.865V31.485a2.858 2.858 0 0 1 2.866-2.866z"/><path fill="#F4F4F4" d="M190.876 16.059c-5.658 0-10.254 4.596-10.254 10.254v256.904c0 5.658 4.597 10.254 10.254 10.254h213.149c5.659 0 10.255-4.597 10.255-10.254V26.32c0-5.663-4.592-10.26-10.253-10.26h-213.15l-.001-.001zm0 1.433h213.149a8.805 8.805 0 0 1 8.821 8.821V283.21a8.807 8.807 0 0 1-8.821 8.822H190.876a8.798 8.798 0 0 1-8.82-8.813V26.314a8.808 8.808 0 0 1 8.82-8.822z"/><path fill="#F4F4F4" d="M201.176 242.62c-1.046 0-1.903.881-1.903 1.927v13.412a1.91 1.91 0 0 0 1.903 1.903h13.523a1.91 1.91 0 0 0 1.903-1.903v-13.412c0-1.046-.857-1.927-1.903-1.927h-13.523zm0 1.434h13.523c.271 0 .47.221.47.493v13.412c0 .27-.199.47-.47.47h-13.523c-.271 0-.47-.2-.47-.47v-13.412c0-.273.199-.493.47-.493zM351.881 305.155c-1.927 0-3.493 1.591-3.493 3.515v15.001a3.499 3.499 0 0 0 3.493 3.494h32.263a3.498 3.498 0 0 0 3.491-3.494V308.67c0-1.924-1.566-3.515-3.491-3.515h-32.263zm0 1.433h32.263c1.15 0 2.06.932 2.06 2.082v15.001c0 1.15-.909 2.06-2.06 2.06h-32.263a2.045 2.045 0 0 1-2.061-2.06V308.67c0-1.15.91-2.082 2.061-2.082z"/><path fill="#F4F4F4" d="M371.268 308.199c-.826 0-1.501.674-1.501 1.5v11.599c0 .828.675 1.5 1.501 1.5h10.635c.827 0 1.523-.672 1.523-1.5v-11.599c0-.826-.698-1.5-1.523-1.5h-10.635zm0 1.435h10.635c.054 0 .09.015.09.065v11.599c0 .052-.038.067-.09.067h-10.635c-.052 0-.067-.016-.067-.067v-11.599c-.001-.051.015-.065.067-.065zM358.6 220.854c-2.582 0-4.701 2.118-4.701 4.703v.648c0 .224-.05.376-.112.446-.062.073-.157.158-.56.158h-60.631a3.13 3.13 0 0 0-3.112 3.112v6.649a3.13 3.13 0 0 0 3.112 3.112h60.631c.451 0 .547.07.583.113.033.041.089.229.089.625v1.321c0 2.583 2.119 4.702 4.701 4.702h33.205c2.582 0 4.701-2.119 4.701-4.702v-16.187c0-2.585-2.117-4.703-4.701-4.703H358.6v.003zm0 1.433h33.205a3.264 3.264 0 0 1 3.268 3.271v16.187a3.262 3.262 0 0 1-3.268 3.269H358.6a3.263 3.263 0 0 1-3.269-3.269v-1.321c0-.531-.045-1.067-.426-1.521-.379-.456-1.003-.651-1.679-.651h-60.631c-.93 0-1.679-.747-1.679-1.679v-6.649c0-.931.749-1.68 1.679-1.68h60.631c.691 0 1.296-.226 1.657-.649.36-.424.447-.949.447-1.388v-.648a3.267 3.267 0 0 1 3.27-3.272z"/><path fill="#F4F4F4" d="M299.441 229.747c-.827 0-1.5.673-1.5 1.499v3.718c0 .825.673 1.499 1.5 1.499h61.369c.245 0 .256.057.246.046-.009-.013.046.057.046.313v5.888c0 .825.674 1.522 1.499 1.522h23.601c.825 0 1.5-.696 1.5-1.522v-11.464c0-.826-.675-1.499-1.5-1.499h-86.761zm0 1.433h86.758c.052 0 .066.015.066.066v11.464c0 .052-.015.089-.066.089h-23.601c-.051 0-.066-.036-.066-.089v-5.888c0-.439-.077-.91-.403-1.276-.323-.368-.837-.516-1.321-.516h-61.369c-.051 0-.068-.017-.068-.066v-3.718c0-.052.017-.066.068-.066h.002zM392.003 236.331c-1.018 0-1.859.818-1.859 1.834 0 1.019.842 1.86 1.859 1.86s1.858-.842 1.858-1.86c0-1.016-.84-1.834-1.858-1.834zM197.033 292.437l-1.208.784c2.469 3.905 6.82 6.493 11.777 6.493 4.954 0 9.329-2.592 11.8-6.493l-1.209-.761a12.518 12.518 0 0 1-10.59 5.82c-4.458 0-8.353-2.338-10.57-5.843z"/><path fill="#F4F4F4" d="M201.668 292.999a9.296 9.296 0 0 0 5.934 2.127c2.28 0 4.377-.815 6-2.173"/><path fill="#F4F4F4" d="M185.995 291.563v40.369c0 2.364 1.936 4.276 4.299 4.276h214.339c2.364 0 4.298-1.912 4.298-4.276v-39.965H407.5v39.965c0 1.589-1.277 2.843-2.866 2.843h-214.34c-1.59 0-2.867-1.254-2.867-2.843v-40.369h-1.432zM298.546 48.188c-24.74.04-49.859 1.377-76.275 3.895h-.022c-8.093.952-14.464 7.604-14.464 15.853v99.883c0 8.25 6.372 14.921 14.464 15.875h.022c52.839 5.037 100.427 5.354 150.395 0 8.11-.869 14.464-7.626 14.464-15.875V67.936c0-8.248-6.354-14.983-14.464-15.853a680.219 680.219 0 0 0-74.111-3.896l-.009.001zm0 1.433a678.608 678.608 0 0 1 73.953 3.896c7.413.794 13.188 6.907 13.188 14.419v99.883c0 7.514-5.775 13.647-13.188 14.441-49.855 5.345-97.325 5.026-150.078 0h-.022c-7.402-.881-13.188-6.936-13.188-14.441V67.936c0-7.505 5.785-13.538 13.188-14.419h.022c26.373-2.514 51.436-3.856 76.125-3.896z"/></svg>