<svg xmlns="http://www.w3.org/2000/svg" viewBox="0 0 566.9 118.9" xml:space="preserve"><path fill="#c3c6c5" d="M177.6 103.7c0-1.6 1.4-1.9 4.8-2.3 4.2-.4 4.4-2.2 4.4-8.2 0-14-.9-39.8-1.4-53.7-.1-1.9-.1-2.6-.6-2.6s-.7.8-1.2 2c-2.5 6.5-6.5 19.2-16.5 51.2-3.6 12.1-3.3 14.6-5.7 14.6-1.6 0-1.9-1-3.3-6.5-4.3-16.1-14.3-49-17.5-59.1-.4-1.2-.6-1.8-1.3-1.8-.5 0-.5 1-.8 2.9-.9 12.2-1.7 33.1-1.7 44.4 0 8.6-.1 16.2 4.3 16.9 2.3.4 5.7.5 5.7 2.3 0 1-.8 1.8-2.6 1.8-2.6 0-4.7-.5-9.6-.5-4.5 0-7.1.5-9 .5-1.3 0-2.1-.3-2.1-1.8 0-1.9 1.9-1.7 4.2-2.2 3.8-.8 4.3-3.8 4.7-10.1.8-13.9 2.2-44.3 2.2-55.1.1-7 0-8.3-4.4-9-2.2-.3-4.3-.5-4.3-2.1 0-1.8 1.7-1.9 3.5-2 2.7 0 6.4.4 9.2.4 2.2 0 5.6-.4 7.7-.4 1.4 0 1.9.4 2.6 2.3 4.8 15.9 9.6 31.7 14.3 47.4 1 3.8 1.8 6.8 2.7 6.8.8 0 1.4-1.8 2.6-5.6 4.9-15.9 9.9-31.7 14.8-47.4.8-2.5 1.6-3.5 3-3.5 1.9 0 5.2.4 7.7.4 2.6 0 6.4-.4 9.1-.4 1.4 0 2.7.5 2.7 1.8 0 1.7-1.7 2.1-5.5 2.3-2.3.3-3 2-3 7.8 0 12.9 1.6 43.3 1.9 59.3 0 4.8 1.2 6.6 3.8 6.9 3.3.8 4.7 1 4.7 2.5s-1.2 1.7-3 1.7c-2.7 0-5.9-.5-11.8-.5-5.2 0-9.5.5-12.3.5-1.7 0-3-.5-3-1.7v-.2zM239.6 57c0-6.1-1.4-8.6-5.5-8.6-6.2 0-9.1 4.7-11.2 11-.9 2.7-2.5 4.9-4.4 6.2-1.4 1-3.3 1.8-5.2 1.8-2.5 0-3.4-1-3.4-3.4 0-7.5 11.2-19.4 27.3-19.4 4.8 0 8.6.6 10.8 2.6 2.2 1.7 2.7 4.2 2.7 8.2v37.2c0 3.3 1 5.6 3.6 5.6 2.1 0 3.3-1.2 3.9-2.3.5-1.2 1-2.5 1.8-2.5s1 .6 1 2.2c0 2.9-4.4 10.5-12 10.5-5.5 0-7-4.4-8.1-7-.4-1-.8-1.8-1.4-1.8-1 0-3.1 2.5-6.4 4.8-3 2.3-7 4.4-12.2 4.4-6.1 0-10.9-4.2-10.9-11.7 0-6.9 4.8-11.6 15.3-18.1 4.2-2.7 7.3-4.5 9.6-6.1 3.5-2.1 4.4-3.3 4.4-6.2l.3-7.4zM222 92.6c0 4.8 2.7 7.3 6.5 7.3 2.9 0 5.6-1.7 8.1-4.2 2.3-2.3 3.1-4.2 3.1-7.4V75.1c0-1.6-.3-1.9-.9-1.9-.6 0-1.3.3-3 1.3-2.7 1.8-5.3 3.9-7.5 6.1-3.6 3.4-6.2 7.3-6.2 12h-.1zM259.8 77.7c0-19 12.3-32.9 28.1-32.9 3.5 0 8.2.6 11.2 2.5 2.7 1.6 3 2.1 3.1 5.2v4.7c0 1.2-.1 3.1-.4 4.3-.3 2.3-1.2 3.1-2.9 3.1-2.3 0-3-3.4-5.5-8.8-1.8-4.3-3.5-6.5-7.3-6.5-7.5 0-14.2 9.9-14.2 23.8 0 18.5 7 26.6 15.7 26.6 4.7 0 8.2-1.9 10.8-5.7 1.6-2.3 2.6-5.6 3.6-5.6.8 0 1.3.8 1.3 1.8 0 6.1-6.5 16.5-19.6 16.5-14.4 0-24-11.8-24-28.9l.1-.1zM312.4 60.8c0-4.2-.9-5.2-4.9-5.8-1.6-.3-2.2-.6-2.2-1.6 0-1.2 1.2-1.7 4.2-2.6 4.2-1.2 7.8-3.1 10.5-4.7 1.3-.8 2.1-1.3 2.6-1.3.8 0 1 .5 1 1.9v48c0 4.4 0 6.6 1.6 7.1 2.3.7 3.3.8 3.3 2.1 0 1.2-.5 1.6-2.1 1.6-2.7 0-2.7-.5-8.4-.5-6.2 0-6.1.5-8.5.5-1 0-2-.5-2-1.6 0-1.3.9-1.7 2.6-2.1 2.1-.5 2.3-1.6 2.3-6.8V60.8zm5.6-24.2c-3.4 0-6.5-2.7-6.5-7.7 0-4.8 2.9-7.8 6.6-7.8 3.6 0 6.5 2.9 6.5 7.7 0 5.1-2.9 7.8-6.5 7.8h-.1zM338.9 60.8c0-4.4-.5-4.9-3.8-5.3-2.3-.3-3.1-.4-3.1-1.4 0-1.3 1.3-1.6 4-2.5 4.7-1.7 8.3-3.8 10.3-5.3 1.2-.9 1.8-1.4 2.5-1.4.8 0 1 1 1 2.2v5.2c0 1.8.1 2.2.5 2.2 1.2 0 3.2-2.2 6.1-4.4 3-2.2 7-4.5 11.8-4.5 4.4 0 8.6 1.4 11.6 4.5 2.7 2.9 4.3 7 4.3 12.5v33.1c0 4.5 1.2 6 4.1 6.4 0 0 1.9.7 1.9 2 0 1.2-.9 1.6-2.3 1.6-1.6 0-3.3-.5-9.4-.5-5.8 0-6.5.5-8.6.5-1.4 0-2.1-.4-2.1-1.7 0-.9.9-1.4 2.2-1.7 1.2-.3 3-1.7 3-5.3V64c0-3.1-.6-5.8-2.2-7.9-1.8-2.3-4.5-3.6-7.8-3.6-3.4 0-6.6 1.3-9.1 3.5-2.3 2.2-3.6 4.8-3.6 7.9V97c0 3.4.6 4.8 3.8 5.3.5.1 1.1.4 1.1 1.5 0 1.3-.9 1.7-2 1.7-1.6 0-1.1-.4-8.8-.4-6.6 0-6.7.5-8.8.5-1.6 0-2.5-.5-2.5-1.7s1-1.8 2.3-1.9c2.8-.4 3.5-2.1 3.5-7.3V60.8h.1zM407.8 92.4c0 5.1 1.4 7.3 4.6 7.3 2.5 0 4-1.7 5.1-3.2 1.2-1.6 1.9-3.1 3-3.1.8 0 1.3.4 1.3 1.3 0 1.9-3.5 12.1-13.6 12.1-3.8 0-6.6-1-8.6-3.1-2.1-2.3-2.9-5.5-2.9-10.4v-40c0-1.4-.6-2-1.6-2.1-.9-.1-2.1-.1-3.1-.1-1.2 0-2.2-.1-2.2-1.6 0-.9.8-1.8 2.5-3.4 4-3.1 7.4-6.6 11.8-14.4 1.2-2.2 1.6-3 2.5-3 .9 0 1.3.5 1.3 2.7v12.3c0 2 .6 2.7 2.6 2.7h7c2.2 0 2.7.5 2.7 2.3 0 2.1-.5 2.7-3 2.7-2.2 0-4.5-.1-6.8-.1-2.1 0-2.6.5-2.6 2.9v38.2z"/><path fill="#c3c6c5" d="M446.1 106.7c-15.1 0-25.5-14-25.5-30.9 0-16.6 10-30.9 25.6-30.9 15.9 0 25.6 14.4 25.6 30.8 0 17-10.4 31.1-25.6 31.1h-.1zm.5-3.7c9 0 13.1-13.6 13.1-26 0-14.4-4.5-28.6-13.8-28.6-9 0-13.3 13-13.3 26 0 14.4 4.7 28.6 13.8 28.6h.2zM472.9 61.3c0-10.9 9.5-16.5 20.7-16.5 4.2 0 8.8.8 11.3 2.1.6.4.9 1.3 1 3.1.1 1.2.1 2.6.1 4.5v3.4c-.1 2.1-.4 3.3-1.6 3.3-1.7 0-1.9-2.5-4-6.9-1.6-3.4-3.8-6-7.9-6-5.1 0-9.1 3.5-9.1 8.3 0 6.2 6.2 9.2 12.7 13 6.4 3.8 13 8.3 13 17.7 0 12.6-10.1 19.4-22.4 19.4-3.9 0-7.7-.6-10.3-1.6-.9-.3-1.8-.5-2.5-1-.6-.4-1.2-1-1.3-3.6-.1-1.8-.1-4.3-.1-7.7 0-5.2.4-6.6 1.7-6.6 1.8 0 1.9 2.1 3.9 7.5 1.9 5.1 4.9 9.4 10.3 9.4 5.8 0 10-3.9 10-9.7 0-7.7-6.1-11-12.1-14.7-6.5-3.6-13.5-7.8-13.5-17.2l.1-.2z"/><path fill="#c3c6c5" d="M514.2 27.8c0-3.8-.5-4.7-4-5.1-2.2-.5-3-.6-3-1.8 0-1.3.9-1.4 3.6-2.2 5.2-1.6 8.4-2.7 10.5-3.9 1.7-.8 2.5-1.2 3.3-1.2.8 0 .9.5.9 2.3v36.9c0 .8.3 1.2.8 1.2s1.2-.4 1.7-.9c3.3-3 8.3-7.7 15.9-7.7 9.7 0 15.5 6.6 15.7 16.9v33.3c0 4.4 1.2 6.1 4.3 6.5 2.1.3 3.1.7 3.1 1.8 0 1.2-.9 1.6-1.9 1.6-1.2 0-5.1-.5-10.8-.5-6.2 0-8.6.5-10.4.5-1.4 0-2.2-.5-2.2-1.7s.9-1.4 2.3-1.7c3.3-.5 4.3-1.7 4.3-5.3v-33c0-3.3-.5-6.1-2.1-8.1-1.8-2.5-4.6-3.6-8.1-3.6-3.4 0-6.6 1.3-9.1 3.5-2.3 2.2-3.5 4.8-3.5 8.1v32.8c0 3.4 1.2 5.1 5.1 5.7 2 .4 2.5.7 2.5 1.8 0 1.2-.9 1.6-1.9 1.6-1.6 0-3.5-.5-11.4-.5-6.4 0-8.4.5-10.7.5-1.2 0-2.1-.4-2.1-1.7 0-1.2 1.2-1.8 2.5-1.9 4.2-.4 4.8-1.9 4.8-7.3l-.1-66.9z"/><path fill="green" d="M66.3 21.2C70.7 16.3 73 9.5 73.4.3V0l-.3.1C57.5 3.2 49.5 13 49.2 29v.3h.3c7.4-1.2 12.9-3.8 16.8-8.1z"/><path fill="#00F" d="m12.8 103.7.3.4c2.6 3.7 5.5 7.3 8.8 10.7 2.5 2.6 6.4 4 11.1 4 3.4 0 7-.8 9.3-2.1 4.7-2.7 7.3-2.7 9.1-2.7h1.3c.4 0 .8-.1 1.3-.1 1.6 0 4.1.3 8.5 2.8 3.1 1.3 6.1 1.9 8.9 1.9 7.7 0 14.4-4.8 20.5-14.6l.3-.4-79.4.1z"/><path fill="green" d="M92.9 42.3c1-1 2.1-2 3.3-3l.2-.2-.2-.2c-5.8-7.1-13.7-11-22.9-11.1h-.4c-4.7 0-8.8.9-11.9 2.5-4.1 2.1-7.1 2.6-7.1 2.6h-3.6c-1.3-.2-4.6-.7-7.3-2.1-3.7-1.9-7.7-3-11.8-3h-.3c-10.7.1-19.7 5.3-25.2 14.5h87.2z"/><path fill="#FF0" d="M84 57.5c1.1-5.1 3.9-10 8.5-14.8l.4-.4h-87l-.1.1C3.1 46.8 1.4 51.9.5 57.5H84z"/><path fill="#F60" d="M86 72.5c-2.1-4.3-3.1-9.3-2.1-14.7l.1-.3H.6v.2c-.7 4.8-.7 9.8-.1 14.8H86z"/><path fill="red" d="M4.6 88.3h95.3l.6-1.2-.2-.1c-4.6-2.3-10.7-7.2-14.2-14.3l-.1-.2H.5v.3c.6 4.4 1.8 9.6 4.1 15.5z"/><path fill="purple" d="M12.8 103.7H92c3-4.9 5.5-10.3 7.7-15l.2-.4H4.6l.1.4c2.1 5.2 4.8 10.2 8.1 15z"/></svg>