<svg xmlns="http://www.w3.org/2000/svg" version="1.2" width="593.798" height="308" xml:space="preserve"><path d="M95.188 104.469c-1.04 0-1.907.866-1.907 1.906V128c0 1.04.866 1.906 1.906 1.906h25.344a1.924 1.924 0 0 0 1.906-1.906v-21.625c0-1.04-.866-1.906-1.906-1.906H95.187zm.093 2h25.156v21.437H95.281V106.47zM125.281 102.094a1.924 1.924 0 0 0-1.906 1.906v24.906c0 1.039.866 1.906 1.906 1.906H293.5c1.04 0 1.906-.866 1.906-1.906V104a1.924 1.924 0 0 0-1.906-1.906H125.281zm.094 2h168.031v24.719H125.375v-24.72z" style="font-size:medium;font-style:normal;font-variant:normal;font-weight:400;font-stretch:normal;text-indent:0;text-align:start;text-decoration:none;line-height:normal;letter-spacing:normal;word-spacing:normal;text-transform:none;direction:ltr;block-progression:tb;writing-mode:lr-tb;text-anchor:start;baseline-shift:baseline;color:#000;fill:#f4f4f4;fill-opacity:1;stroke:none;stroke-width:2;marker:none;visibility:visible;display:inline;overflow:visible;enable-background:accumulate;font-family:Sans;-inkscape-font-specification:Sans"/><path d="M86.656 15.188V45.03h4.875V15.188h-4.875zm1 1h2.875V44.03h-2.875V16.188zM93.25 15.188V45.03h4.875V15.188H93.25zm1 1h2.875V44.03H94.25V16.188zM99.844 15.188V45.03H104.75V15.188H99.844zm1 1h2.906V44.03h-2.906V16.188zM106.438 15.188V45.03H111.344V15.188H106.438zm1 1h2.906V44.03h-2.906V16.188zM113.063 15.188V45.03H117.936V15.188H113.064zm1 1h2.874V44.03h-2.874V16.188zM119.656 15.188V45.03h4.875V15.188h-4.875zm1 1h2.875V44.03h-2.875V16.188zM126.25 15.188V45.03H131.156V15.188H126.25zm1 1h2.906V44.03h-2.906V16.188zM132.844 15.188V45.03H137.75V15.188H132.844zm1 1h2.906V44.03h-2.906V16.188zM139.469 15.188V45.03h4.875V15.188h-4.875zm1 1h2.875V44.03h-2.875V16.188zM146.063 15.188V45.03h4.875V15.188h-4.875zm1 1h2.875V44.03h-2.875V16.188zM152.656 15.188V45.03H157.562V15.188H152.656zm1 1h2.906V44.03h-2.906V16.188zM159.25 15.188V45.03H164.156V15.188H159.25zm1 1h2.906V44.03h-2.906V16.188zM165.875 15.188V45.03h4.875V15.188h-4.875zm1 1h2.875V44.03h-2.875V16.188zM172.469 15.188V45.03h4.875V15.188h-4.875zm1 1h2.875V44.03h-2.875V16.188zM179.063 15.188V45.03H183.969V15.188H179.063zm1 1h2.906V44.03h-2.906V16.188zM185.656 15.188V45.03H190.562V15.188H185.656zm1 1h2.906V44.03h-2.906V16.188zM192.281 15.188V45.03h4.875V15.188h-4.875zm1 1h2.875V44.03h-2.875V16.188zM198.875 15.188V45.03H203.781V15.188H198.875zm1 1h2.906V44.03h-2.906V16.188zM205.469 15.188V45.03H210.375V15.188H205.469zm1 1h2.906V44.03h-2.906V16.188zM212.063 15.188V45.03H216.969V15.188H212.063zm1 1h2.906V44.03h-2.906V16.188zM218.688 15.188V45.03h4.875V15.188h-4.875zm1 1h2.875V44.03h-2.875V16.188zM225.281 15.188V45.03H230.187V15.188H225.281zm1 1h2.906V44.03h-2.906V16.188zM231.875 15.188V45.03H236.781V15.188H231.875zm1 1h2.906V44.03h-2.906V16.188zM238.5 15.188V45.03h4.875V15.188H238.5zm1 1h2.875V44.03H239.5V16.188zM245.094 15.188V45.03h4.875V15.188h-4.875zm1 1h2.875V44.03h-2.875V16.188zM251.688 15.188V45.03H256.594V15.188H251.688zm1 1h2.906V44.03h-2.906V16.188zM258.281 15.188V45.03H263.187V15.188H258.281zm1 1h2.906V44.03h-2.906V16.188zM264.906 15.188V45.03h4.875V15.188h-4.875zm1 1h2.875V44.03h-2.875V16.188zM271.5 15.188V45.03h4.875V15.188H271.5zm1 1h2.875V44.03H272.5V16.188zM278.094 15.188V45.03H283V15.188H278.094zm1 1H282V44.03h-2.906V16.188zM284.688 15.188V45.03H289.594V15.188H284.688zm1 1h2.906V44.03h-2.906V16.188zM291.313 15.188V45.03h4.875V15.188h-4.875zm1 1h2.875V44.03h-2.875V16.188zM297.906 15.188V45.03h4.875V15.188h-4.875zm1 1h2.875V44.03h-2.875V16.188zM304.5 15.188V45.03H309.406V15.188H304.5zm1 1h2.906V44.03H305.5V16.188zM311.094 15.188V45.03H316V15.188H311.094zm1 1H315V44.03h-2.906V16.188zM317.719 15.188V45.03h4.875V15.188h-4.875zm1 1h2.875V44.03h-2.875V16.188zM324.313 15.188V45.03H329.219V15.188H324.313zm1 1h2.906V44.03h-2.906V16.188zM330.906 15.188V45.03H335.812V15.188H330.906zm1 1h2.906V44.03h-2.906V16.188zM337.5 15.188V45.03H342.406V15.188H337.5zm1 1h2.906V44.03H338.5V16.188zM344.125 15.188V45.03H349V15.188h-4.875zm1 1H348V44.03h-2.875V16.188zM350.719 15.188V45.03H355.625V15.188H350.719zm1 1h2.906V44.03h-2.906V16.188zM357.313 15.188V45.03H362.219V15.188H357.313zm1 1h2.906V44.03h-2.906V16.188zM363.938 15.188V45.03h4.875V15.188h-4.875zm1 1h2.875V44.03h-2.875V16.188zM370.531 15.188V45.03h4.875V15.188h-4.875zm1 1h2.875V44.03h-2.875V16.188zM377.125 15.188V45.03H382.031V15.188H377.125zm1 1h2.906V44.03h-2.906V16.188zM383.719 15.188V45.03H388.625V15.188H383.719zm1 1h2.906V44.03h-2.906V16.188zM390.344 15.188V45.03h4.875V15.188h-4.875zm1 1h2.875V44.03h-2.875V16.188zM396.938 15.188V45.03h4.875V15.188h-4.875zm1 1h2.875V44.03h-2.875V16.188zM403.531 15.188V45.03H408.437V15.188H403.531zm1 1h2.906V44.03h-2.906V16.188zM410.125 15.188V45.03H415.031V15.188H410.125zm1 1h2.906V44.03h-2.906V16.188zM416.75 15.188V45.03h4.875V15.188h-4.875zm1 1h2.875V44.03h-2.875V16.188zM423.344 15.188V45.03h4.875V15.188h-4.875zm1 1h2.875V44.03h-2.875V16.188zM429.938 15.188V45.03H434.844V15.188H429.938zm1 1h2.906V44.03h-2.906V16.188zM436.531 15.188V45.03H441.437V15.188H436.531zm1 1h2.906V44.03h-2.906V16.188zM443.156 15.188V45.03h4.875V15.188h-4.875zm1 1h2.875V44.03h-2.875V16.188zM449.75 15.188V45.03H454.656V15.188H449.75zm1 1h2.906V44.03h-2.906V16.188zM456.344 15.188V45.03H461.25V15.188H456.344zm1 1h2.906V44.03h-2.906V16.188zM462.938 15.188V45.03H467.844V15.188H462.938zm1 1h2.906V44.03h-2.906V16.188zM469.563 15.188V45.03h4.875V15.188h-4.875zm1 1h2.875V44.03h-2.875V16.188zM476.156 15.188V45.03H481.062V15.188H476.156zm1 1h2.906V44.03h-2.906V16.188zM482.75 15.188V45.03H487.656V15.188H482.75zm1 1h2.906V44.03h-2.906V16.188zM489.344 15.188V45.03H494.25V15.188H489.344zm1 1h2.906V44.03h-2.906V16.188zM495.969 15.188V45.03h4.875V15.188h-4.875zm1 1h2.875V44.03h-2.875V16.188zM502.563 15.188V45.03H507.469V15.188H502.563zm1 1h2.906V44.03h-2.906V16.188z" style="font-size:medium;font-style:normal;font-variant:normal;font-weight:400;font-stretch:normal;text-indent:0;text-align:start;text-decoration:none;line-height:normal;letter-spacing:normal;word-spacing:normal;text-transform:none;direction:ltr;block-progression:tb;writing-mode:lr-tb;text-anchor:start;baseline-shift:baseline;color:#000;fill:#f4f4f4;fill-opacity:1;fill-rule:nonzero;stroke:none;stroke-width:2;marker:none;visibility:visible;display:inline;overflow:visible;enable-background:accumulate;font-family:Sans;-inkscape-font-specification:Sans"/><path d="M82.313.156V141.97a4.609 4.609 0 0 0 4.593 4.594h159.469V165.469H44.094v56.812h7.312v55.406h72.063v28.563h261.875v-28.563h87.062v-55.406h7.281V165.47H343.031v-18.907h164.563a4.609 4.609 0 0 0 4.594-4.593V.156h-2V141.97a2.577 2.577 0 0 1-2.594 2.594H340.03V147.625h1v19.844h136.656v52.812h-7.28v55.406h-87.063v28.563H125.469v-28.563H53.406v-55.406h-7.312V167.47h202.281v-19.844h1V144.562H86.906a2.577 2.577 0 0 1-2.594-2.593V.156h-2z" style="font-size:medium;font-style:normal;font-variant:normal;font-weight:400;font-stretch:normal;text-indent:0;text-align:start;text-decoration:none;line-height:normal;letter-spacing:normal;word-spacing:normal;text-transform:none;direction:ltr;block-progression:tb;writing-mode:lr-tb;text-anchor:start;baseline-shift:baseline;color:#000;fill:#f4f4f4;fill-opacity:1;stroke:none;stroke-width:2;marker:none;visibility:visible;display:inline;overflow:visible;enable-background:accumulate;font-family:Sans;-inkscape-font-specification:Sans"/><path d="M84.781 95.5v2h424.844v-2H84.781z" style="font-size:medium;font-style:normal;font-variant:normal;font-weight:400;font-stretch:normal;text-indent:0;text-align:start;text-decoration:none;line-height:normal;letter-spacing:normal;word-spacing:normal;text-transform:none;direction:ltr;block-progression:tb;writing-mode:lr-tb;text-anchor:start;baseline-shift:baseline;color:#000;fill:#f4f4f4;fill-opacity:1;stroke:none;stroke-width:2;marker:none;visibility:visible;display:inline;overflow:visible;enable-background:accumulate;font-family:Sans;-inkscape-font-specification:Sans"/><path d="M71.656 12.031V97.5h11.656v-2h-9.656V14.031h446.469V95.5h-8.875v2h10.875V12.031H71.656z" style="font-size:medium;font-style:normal;font-variant:normal;font-weight:400;font-stretch:normal;text-indent:0;text-align:start;text-decoration:none;line-height:normal;letter-spacing:normal;word-spacing:normal;text-transform:none;direction:ltr;block-progression:tb;writing-mode:lr-tb;text-anchor:start;baseline-shift:baseline;color:#000;fill:#f4f4f4;fill-opacity:1;stroke:none;stroke-width:2;marker:none;visibility:visible;display:inline;overflow:visible;enable-background:accumulate;font-family:Sans;-inkscape-font-specification:Sans"/><path d="M72.094 95.688 0 147.188l1.156 1.625 72.094-51.5-1.156-1.626zM521.719 95.688l-1.157 1.624 72.063 51.5 1.188-1.625-72.094-51.5zM508.594 0v141.656c0 .841-.154.995-.344 1.125-.19.13-.682.25-1.344.25H342.937v-3.406c0-.985-.334-2.232-.843-3.656-.51-1.424-1.226-2.953-2.063-4.125l-1.625 1.187c.66.925 1.318 2.298 1.781 3.594.464 1.296.75 2.587.75 3v5.406h165.97c.798 0 1.687-.056 2.468-.594.78-.537 1.219-1.55 1.219-2.78V0h-2zM83.75 0v141.656c0 1.23.438 2.244 1.219 2.781.78.538 1.639.594 2.437.594h163.906v-5.406c0-.413.255-1.704.72-3 .463-1.296 1.12-2.669 1.78-3.594l-1.625-1.187c-.837 1.172-1.521 2.7-2.03 4.125-.51 1.424-.845 2.671-.845 3.656v3.406H87.406c-.661 0-1.123-.12-1.312-.25-.19-.13-.344-.284-.344-1.125V0h-2zM283.719 157.781l2.844 1.844 5.406 3.5.25.156h.625l.218-.125 6.594-3.469-.469-1.906H283.72zm6.781 2h4.688l-2.563 1.375-2.125-1.375z" style="font-size:medium;font-style:normal;font-variant:normal;font-weight:400;font-stretch:normal;text-indent:0;text-align:start;text-decoration:none;line-height:normal;letter-spacing:normal;word-spacing:normal;text-transform:none;direction:ltr;block-progression:tb;writing-mode:lr-tb;text-anchor:start;baseline-shift:baseline;color:#000;fill:#f4f4f4;fill-opacity:1;stroke:none;stroke-width:2;marker:none;visibility:visible;display:inline;overflow:visible;enable-background:accumulate;font-family:Sans;-inkscape-font-specification:Sans"/><path d="M250.469 143.281v3h-1.938v21.094h92.063v-21.094h-1.188v-3H250.47zm2 2h84.937v3h1.188v17.094H250.53v-17.094h1.938v-3zM51 168.375a4.609 4.609 0 0 0-4.594 4.594v16.375A4.609 4.609 0 0 0 51 193.938h16.375a4.609 4.609 0 0 0 4.594-4.594v-16.375a4.609 4.609 0 0 0-4.594-4.594H51zm0 2h16.375a2.578 2.578 0 0 1 2.594 2.594v16.375a2.578 2.578 0 0 1-2.594 2.594H51a2.577 2.577 0 0 1-2.594-2.594v-16.375A2.58 2.58 0 0 1 51 170.375zM79.906 168.375a4.609 4.609 0 0 0-4.594 4.594v16.375a4.609 4.609 0 0 0 4.594 4.594H96.25c2.171 0 3.935-1.56 4.406-3.594h.219v-17.375a4.609 4.609 0 0 0-4.594-4.594H79.906zm0 2h16.375a2.578 2.578 0 0 1 2.594 2.594v15.375h-.031v1a2.578 2.578 0 0 1-2.594 2.594H79.906a2.577 2.577 0 0 1-2.594-2.594v-16.375a2.58 2.58 0 0 1 2.594-2.594zM108.781 168.375a4.609 4.609 0 0 0-4.594 4.594v16.375a4.609 4.609 0 0 0 4.594 4.594h16.375a4.609 4.609 0 0 0 4.594-4.594v-16.375a4.609 4.609 0 0 0-4.594-4.594h-16.375zm0 2h16.375a2.578 2.578 0 0 1 2.594 2.594v16.375a2.578 2.578 0 0 1-2.594 2.594h-16.375a2.577 2.577 0 0 1-2.594-2.594v-16.375a2.58 2.58 0 0 1 2.594-2.594zM137.688 168.375a4.609 4.609 0 0 0-4.594 4.594v16.375a4.609 4.609 0 0 0 4.594 4.594h16.375a4.609 4.609 0 0 0 4.593-4.594v-16.375a4.609 4.609 0 0 0-4.594-4.594h-16.375zm0 2h16.375a2.578 2.578 0 0 1 2.593 2.594v16.375a2.578 2.578 0 0 1-2.594 2.594h-16.375a2.577 2.577 0 0 1-2.593-2.594v-16.375a2.58 2.58 0 0 1 2.594-2.594zM166.563 168.375a4.609 4.609 0 0 0-4.594 4.594v16.375a4.609 4.609 0 0 0 4.594 4.594h16.375a4.609 4.609 0 0 0 4.593-4.594v-16.375a4.609 4.609 0 0 0-4.594-4.594h-16.375zm0 2h16.375a2.578 2.578 0 0 1 2.593 2.594v16.375a2.578 2.578 0 0 1-2.594 2.594h-16.375a2.577 2.577 0 0 1-2.593-2.594v-16.375a2.58 2.58 0 0 1 2.594-2.594zM195.469 168.375a4.609 4.609 0 0 0-4.594 4.594v16.375a4.609 4.609 0 0 0 4.594 4.594h16.375a4.609 4.609 0 0 0 4.594-4.594v-16.375a4.609 4.609 0 0 0-4.594-4.594h-16.375zm0 2h16.375a2.578 2.578 0 0 1 2.594 2.594v16.375a2.578 2.578 0 0 1-2.594 2.594h-16.375a2.577 2.577 0 0 1-2.594-2.594v-16.375a2.58 2.58 0 0 1 2.594-2.594zM224.344 168.375a4.609 4.609 0 0 0-4.594 4.594v16.375a4.609 4.609 0 0 0 4.594 4.594h16.375a4.609 4.609 0 0 0 4.594-4.594v-16.375a4.609 4.609 0 0 0-4.594-4.594h-16.375zm0 2h16.375a2.578 2.578 0 0 1 2.594 2.594v16.375a2.578 2.578 0 0 1-2.594 2.594h-16.375a2.577 2.577 0 0 1-2.594-2.594v-16.375a2.58 2.58 0 0 1 2.594-2.594zM253.25 168.375a4.609 4.609 0 0 0-4.594 4.594v16.375a4.609 4.609 0 0 0 4.594 4.594h16.375a4.609 4.609 0 0 0 4.594-4.594v-16.375a4.609 4.609 0 0 0-4.594-4.594H253.25zm0 2h16.375a2.578 2.578 0 0 1 2.594 2.594v16.375a2.578 2.578 0 0 1-2.594 2.594H253.25a2.577 2.577 0 0 1-2.594-2.594v-16.375a2.58 2.58 0 0 1 2.594-2.594zM282.125 168.375a4.609 4.609 0 0 0-4.594 4.594v16.375a4.609 4.609 0 0 0 4.594 4.594H298.5a4.609 4.609 0 0 0 4.594-4.594v-16.375a4.609 4.609 0 0 0-4.594-4.594h-16.375zm0 2H298.5a2.58 2.58 0 0 1 2.594 2.594v16.375a2.578 2.578 0 0 1-2.594 2.594h-16.375a2.577 2.577 0 0 1-2.594-2.594v-16.375a2.58 2.58 0 0 1 2.594-2.594zM311.031 168.375a4.609 4.609 0 0 0-4.594 4.594v16.375a4.609 4.609 0 0 0 4.594 4.594h16.375a4.608 4.608 0 0 0 4.594-4.594v-16.375a4.609 4.609 0 0 0-4.594-4.594h-16.375zm0 2h16.375a2.579 2.579 0 0 1 2.594 2.594v16.375a2.578 2.578 0 0 1-2.594 2.594h-16.375a2.578 2.578 0 0 1-2.594-2.594v-16.375a2.58 2.58 0 0 1 2.594-2.594zM339.938 168.375c-2.527 0-4.625 2.07-4.625 4.594v16.375c0 2.526 2.1 4.594 4.625 4.594h16.343a4.609 4.609 0 0 0 4.594-4.594v-16.375a4.609 4.609 0 0 0-4.594-4.594h-16.344zm0 2h16.343a2.578 2.578 0 0 1 2.594 2.594v16.375a2.577 2.577 0 0 1-2.594 2.594h-16.344c-1.444 0-2.625-1.149-2.625-2.594v-16.375c0-1.444 1.18-2.594 2.625-2.594zM368.813 168.375a4.609 4.609 0 0 0-4.594 4.594v16.375a4.609 4.609 0 0 0 4.594 4.594h16.375a4.609 4.609 0 0 0 4.593-4.594v-16.375a4.609 4.609 0 0 0-4.594-4.594h-16.375zm0 2h16.375a2.58 2.58 0 0 1 2.593 2.594v16.375a2.579 2.579 0 0 1-2.594 2.594h-16.375a2.578 2.578 0 0 1-2.593-2.594v-16.375a2.58 2.58 0 0 1 2.594-2.594zM397.719 168.375a4.609 4.609 0 0 0-4.594 4.594v16.375a4.608 4.608 0 0 0 4.594 4.594h16.375a4.608 4.608 0 0 0 4.594-4.594v-16.375a4.609 4.609 0 0 0-4.594-4.594h-16.375zm0 2h16.375a2.579 2.579 0 0 1 2.594 2.594v16.375a2.578 2.578 0 0 1-2.594 2.594h-16.375a2.578 2.578 0 0 1-2.594-2.594v-16.375a2.579 2.579 0 0 1 2.594-2.594zM426.594 168.375a4.609 4.609 0 0 0-4.594 4.594v16.375a4.609 4.609 0 0 0 4.594 4.594h16.375a4.608 4.608 0 0 0 4.594-4.594v-16.375a4.609 4.609 0 0 0-4.594-4.594h-16.375zm0 2h16.375a2.579 2.579 0 0 1 2.594 2.594v16.375a2.578 2.578 0 0 1-2.594 2.594h-16.375a2.578 2.578 0 0 1-2.594-2.594v-16.375a2.58 2.58 0 0 1 2.594-2.594zM455.5 168.375a4.609 4.609 0 0 0-4.594 4.594v16.375a4.609 4.609 0 0 0 4.594 4.594h16.375a4.609 4.609 0 0 0 4.594-4.594v-16.375a4.609 4.609 0 0 0-4.594-4.594H455.5zm0 2h16.375a2.58 2.58 0 0 1 2.594 2.594v16.375a2.579 2.579 0 0 1-2.594 2.594H455.5a2.578 2.578 0 0 1-2.594-2.594v-16.375a2.58 2.58 0 0 1 2.594-2.594zM58.188 222a4.609 4.609 0 0 0-4.594 4.594v16.375a4.608 4.608 0 0 0 4.593 4.594h30.438c2.172 0 3.935-1.56 4.406-3.594h.188v-17.375A4.608 4.608 0 0 0 88.625 222H58.187zm0 2h30.437a2.578 2.578 0 0 1 2.594 2.594v16.375a2.579 2.579 0 0 1-2.594 2.594H58.187a2.578 2.578 0 0 1-2.593-2.594v-16.375A2.579 2.579 0 0 1 58.187 224zM101.156 222a4.609 4.609 0 0 0-4.594 4.594v16.375a4.608 4.608 0 0 0 4.594 4.594h16.375a4.609 4.609 0 0 0 4.594-4.594v-16.375a4.608 4.608 0 0 0-4.594-4.594h-16.375zm0 2h16.375a2.578 2.578 0 0 1 2.594 2.594v16.375a2.579 2.579 0 0 1-2.594 2.594h-16.375a2.578 2.578 0 0 1-2.594-2.594v-16.375a2.579 2.579 0 0 1 2.594-2.594zM130.063 222a4.609 4.609 0 0 0-4.594 4.594v16.375a4.609 4.609 0 0 0 4.594 4.594h16.375a4.609 4.609 0 0 0 4.593-4.594v-16.375a4.608 4.608 0 0 0-4.594-4.594h-16.375zm0 2h16.375a2.578 2.578 0 0 1 2.593 2.594v16.375a2.579 2.579 0 0 1-2.594 2.594h-16.375a2.579 2.579 0 0 1-2.593-2.594v-16.375a2.579 2.579 0 0 1 2.594-2.594zM158.938 222a4.609 4.609 0 0 0-4.594 4.594v16.375a4.608 4.608 0 0 0 4.594 4.594h16.375a4.609 4.609 0 0 0 4.593-4.594v-16.375a4.608 4.608 0 0 0-4.594-4.594h-16.375zm0 2h16.375a2.578 2.578 0 0 1 2.593 2.594v16.375a2.579 2.579 0 0 1-2.594 2.594h-16.375a2.578 2.578 0 0 1-2.593-2.594v-16.375a2.579 2.579 0 0 1 2.594-2.594zM187.844 222a4.609 4.609 0 0 0-4.594 4.594v16.375a4.608 4.608 0 0 0 4.594 4.594h16.375a4.609 4.609 0 0 0 4.594-4.594v-16.375a4.608 4.608 0 0 0-4.594-4.594h-16.375zm0 2h16.375a2.578 2.578 0 0 1 2.594 2.594v16.375a2.579 2.579 0 0 1-2.594 2.594h-16.375a2.578 2.578 0 0 1-2.594-2.594v-16.375a2.579 2.579 0 0 1 2.594-2.594zM216.719 222a4.609 4.609 0 0 0-4.594 4.594v16.375a4.608 4.608 0 0 0 4.594 4.594h16.375a4.609 4.609 0 0 0 4.594-4.594v-16.375a4.608 4.608 0 0 0-4.594-4.594h-16.375zm0 2h16.375a2.578 2.578 0 0 1 2.594 2.594v16.375a2.579 2.579 0 0 1-2.594 2.594h-16.375a2.578 2.578 0 0 1-2.594-2.594v-16.375a2.579 2.579 0 0 1 2.594-2.594zM245.625 222a4.609 4.609 0 0 0-4.594 4.594v16.375a4.608 4.608 0 0 0 4.594 4.594H262a4.609 4.609 0 0 0 4.594-4.594v-16.375A4.608 4.608 0 0 0 262 222h-16.375zm0 2H262a2.578 2.578 0 0 1 2.594 2.594v16.375a2.579 2.579 0 0 1-2.594 2.594h-16.375a2.578 2.578 0 0 1-2.594-2.594v-16.375a2.579 2.579 0 0 1 2.594-2.594zM274.5 222a4.609 4.609 0 0 0-4.594 4.594v16.375a4.608 4.608 0 0 0 4.594 4.594h16.375a4.609 4.609 0 0 0 4.594-4.594v-16.375a4.609 4.609 0 0 0-4.594-4.594H274.5zm0 2h16.375a2.579 2.579 0 0 1 2.594 2.594v16.375a2.58 2.58 0 0 1-2.594 2.594H274.5a2.578 2.578 0 0 1-2.594-2.594v-16.375A2.579 2.579 0 0 1 274.5 224zM303.406 222a4.609 4.609 0 0 0-4.594 4.594v16.375a4.609 4.609 0 0 0 4.594 4.594h16.375a4.608 4.608 0 0 0 4.594-4.594v-16.375a4.608 4.608 0 0 0-4.594-4.594h-16.375zm0 2h16.375a2.578 2.578 0 0 1 2.594 2.594v16.375a2.578 2.578 0 0 1-2.594 2.594h-16.375a2.579 2.579 0 0 1-2.594-2.594v-16.375a2.579 2.579 0 0 1 2.594-2.594zM332.281 222a4.608 4.608 0 0 0-4.594 4.594v16.375a4.608 4.608 0 0 0 4.594 4.594h16.375a4.609 4.609 0 0 0 4.594-4.594v-16.375a4.609 4.609 0 0 0-4.594-4.594h-16.375zm0 2h16.375a2.579 2.579 0 0 1 2.594 2.594v16.375a2.579 2.579 0 0 1-2.594 2.594h-16.375a2.578 2.578 0 0 1-2.594-2.594v-16.375a2.578 2.578 0 0 1 2.594-2.594zM361.188 222a4.609 4.609 0 0 0-4.594 4.594v16.375a4.609 4.609 0 0 0 4.594 4.594h16.375a4.609 4.609 0 0 0 4.593-4.594v-16.375a4.609 4.609 0 0 0-4.594-4.594h-16.375zm0 2h16.375a2.579 2.579 0 0 1 2.593 2.594v16.375a2.579 2.579 0 0 1-2.594 2.594h-16.375a2.579 2.579 0 0 1-2.593-2.594v-16.375a2.579 2.579 0 0 1 2.594-2.594zM390.094 222c-2.526 0-4.625 2.068-4.625 4.594v16.375c0 2.527 2.1 4.594 4.625 4.594h16.344c2.525 0 4.625-2.069 4.625-4.594v-16.375c0-2.527-2.1-4.594-4.625-4.594h-16.344zm0 2h16.344c1.443 0 2.625 1.148 2.625 2.594v16.375c0 1.444-1.181 2.594-2.625 2.594h-16.344c-1.444 0-2.625-1.149-2.625-2.594v-16.375c0-1.445 1.18-2.594 2.625-2.594zM418.969 222a4.609 4.609 0 0 0-4.594 4.594v16.375a4.609 4.609 0 0 0 4.594 4.594h16.375a4.608 4.608 0 0 0 4.594-4.594v-16.375a4.608 4.608 0 0 0-4.594-4.594h-16.375zm0 2h16.375a2.578 2.578 0 0 1 2.594 2.594v16.375a2.578 2.578 0 0 1-2.594 2.594h-16.375a2.579 2.579 0 0 1-2.594-2.594v-16.375a2.579 2.579 0 0 1 2.594-2.594zM447.875 222a4.609 4.609 0 0 0-4.594 4.594v16.375a4.609 4.609 0 0 0 4.594 4.594h16.375a4.608 4.608 0 0 0 4.594-4.594v-16.375A4.608 4.608 0 0 0 464.25 222h-16.375zm0 2h16.375a2.578 2.578 0 0 1 2.594 2.594v16.375a2.578 2.578 0 0 1-2.594 2.594h-16.375a2.579 2.579 0 0 1-2.594-2.594v-16.375a2.579 2.579 0 0 1 2.594-2.594zM58.5 249.25a4.609 4.609 0 0 0-4.594 4.594v16.375a4.608 4.608 0 0 0 4.594 4.594h41.813a4.609 4.609 0 0 0 4.593-4.594v-16.375a4.608 4.608 0 0 0-4.594-4.594H58.5zm0 2h41.813a2.578 2.578 0 0 1 2.593 2.594v16.375a2.579 2.579 0 0 1-2.594 2.594H58.5a2.578 2.578 0 0 1-2.594-2.594v-16.375a2.579 2.579 0 0 1 2.594-2.594zM130.969 277.844a4.609 4.609 0 0 0-4.594 4.594v16.375a4.609 4.609 0 0 0 4.594 4.593h246.687a4.609 4.609 0 0 0 4.594-4.594v-16.375a4.608 4.608 0 0 0-4.594-4.593H130.97zm0 2h246.687a2.578 2.578 0 0 1 2.594 2.594v16.375a2.579 2.579 0 0 1-2.594 2.593H130.97a2.58 2.58 0 0 1-2.594-2.594v-16.375a2.579 2.579 0 0 1 2.594-2.593zM112.844 249.25a4.609 4.609 0 0 0-4.594 4.594v16.375a4.608 4.608 0 0 0 4.594 4.594h16.375a4.609 4.609 0 0 0 4.594-4.594v-16.375a4.608 4.608 0 0 0-4.594-4.594h-16.375zm0 2h16.375a2.578 2.578 0 0 1 2.594 2.594v16.375a2.579 2.579 0 0 1-2.594 2.594h-16.375a2.578 2.578 0 0 1-2.594-2.594v-16.375a2.579 2.579 0 0 1 2.594-2.594zM141.719 249.25a4.609 4.609 0 0 0-4.594 4.594v16.375a4.608 4.608 0 0 0 4.594 4.594h16.375a4.609 4.609 0 0 0 4.594-4.594v-16.375a4.608 4.608 0 0 0-4.594-4.594h-16.375zm0 2h16.375a2.578 2.578 0 0 1 2.594 2.594v16.375a2.579 2.579 0 0 1-2.594 2.594h-16.375a2.578 2.578 0 0 1-2.594-2.594v-16.375a2.579 2.579 0 0 1 2.594-2.594zM170.625 249.25a4.609 4.609 0 0 0-4.594 4.594v16.375a4.608 4.608 0 0 0 4.594 4.594H187a4.609 4.609 0 0 0 4.594-4.594v-16.375A4.608 4.608 0 0 0 187 249.25h-16.375zm0 2H187a2.578 2.578 0 0 1 2.594 2.594v16.375a2.579 2.579 0 0 1-2.594 2.594h-16.375a2.578 2.578 0 0 1-2.594-2.594v-16.375a2.579 2.579 0 0 1 2.594-2.594zM199.5 249.25a4.609 4.609 0 0 0-4.594 4.594v16.375a4.608 4.608 0 0 0 4.594 4.594h16.375a4.609 4.609 0 0 0 4.594-4.594v-16.375a4.608 4.608 0 0 0-4.594-4.594H199.5zm0 2h16.375a2.578 2.578 0 0 1 2.594 2.594v16.375a2.579 2.579 0 0 1-2.594 2.594H199.5a2.578 2.578 0 0 1-2.594-2.594v-16.375a2.579 2.579 0 0 1 2.594-2.594zM228.406 249.25a4.609 4.609 0 0 0-4.594 4.594v16.375a4.608 4.608 0 0 0 4.594 4.594h16.375a4.609 4.609 0 0 0 4.594-4.594v-16.375a4.608 4.608 0 0 0-4.594-4.594h-16.375zm0 2h16.375a2.578 2.578 0 0 1 2.594 2.594v16.375a2.579 2.579 0 0 1-2.594 2.594h-16.375a2.578 2.578 0 0 1-2.594-2.594v-16.375a2.579 2.579 0 0 1 2.594-2.594zM257.313 249.25a4.609 4.609 0 0 0-4.594 4.594v16.375a4.608 4.608 0 0 0 4.594 4.594h16.375a4.609 4.609 0 0 0 4.593-4.594v-16.375a4.608 4.608 0 0 0-4.594-4.594h-16.375zm0 2h16.375a2.578 2.578 0 0 1 2.593 2.594v16.375a2.579 2.579 0 0 1-2.594 2.594h-16.375a2.578 2.578 0 0 1-2.593-2.594v-16.375a2.579 2.579 0 0 1 2.594-2.594zM286.188 249.25a4.609 4.609 0 0 0-4.594 4.594v16.375a4.608 4.608 0 0 0 4.594 4.594h16.375a4.608 4.608 0 0 0 4.593-4.594v-16.375a4.608 4.608 0 0 0-4.594-4.594h-16.375zm0 2h16.375a2.578 2.578 0 0 1 2.593 2.594v16.375a2.578 2.578 0 0 1-2.594 2.594h-16.375a2.578 2.578 0 0 1-2.593-2.594v-16.375a2.579 2.579 0 0 1 2.594-2.594zM315.094 249.25a4.609 4.609 0 0 0-4.594 4.594v16.375a4.609 4.609 0 0 0 4.594 4.594h16.375a4.608 4.608 0 0 0 4.594-4.594v-16.375a4.608 4.608 0 0 0-4.594-4.594h-16.375zm0 2h16.375a2.578 2.578 0 0 1 2.594 2.594v16.375a2.578 2.578 0 0 1-2.594 2.594h-16.375a2.579 2.579 0 0 1-2.594-2.594v-16.375a2.579 2.579 0 0 1 2.594-2.594zM343.969 249.25a4.609 4.609 0 0 0-4.594 4.594v16.375a4.609 4.609 0 0 0 4.594 4.594h16.375a4.609 4.609 0 0 0 4.594-4.594v-16.375a4.609 4.609 0 0 0-4.594-4.594h-16.375zm0 2h16.375a2.579 2.579 0 0 1 2.594 2.594v16.375a2.579 2.579 0 0 1-2.594 2.594h-16.375a2.579 2.579 0 0 1-2.594-2.594v-16.375a2.579 2.579 0 0 1 2.594-2.594zM372.875 249.25a4.608 4.608 0 0 0-4.594 4.594v16.375a4.608 4.608 0 0 0 4.594 4.594h16.375a4.608 4.608 0 0 0 4.594-4.594v-16.375a4.608 4.608 0 0 0-4.594-4.594h-16.375zm0 2h16.375a2.578 2.578 0 0 1 2.594 2.594v16.375a2.578 2.578 0 0 1-2.594 2.594h-16.375a2.578 2.578 0 0 1-2.594-2.594v-16.375a2.578 2.578 0 0 1 2.594-2.594zM401.75 249.25a4.609 4.609 0 0 0-4.594 4.594v16.375a4.609 4.609 0 0 0 4.594 4.594h16.375a4.608 4.608 0 0 0 4.594-4.594v-16.375a4.608 4.608 0 0 0-4.594-4.594H401.75zm0 2h16.375a2.578 2.578 0 0 1 2.594 2.594v16.375a2.578 2.578 0 0 1-2.594 2.594H401.75a2.579 2.579 0 0 1-2.594-2.594v-16.375a2.579 2.579 0 0 1 2.594-2.594zM430.656 249.25a4.608 4.608 0 0 0-4.594 4.594v16.375a4.608 4.608 0 0 0 4.594 4.594H465a4.608 4.608 0 0 0 4.594-4.594v-16.375A4.608 4.608 0 0 0 465 249.25h-34.344zm0 2H465a2.578 2.578 0 0 1 2.594 2.594v16.375a2.578 2.578 0 0 1-2.594 2.594h-34.344a2.578 2.578 0 0 1-2.594-2.594v-16.375a2.578 2.578 0 0 1 2.594-2.594zM51 194.719a4.609 4.609 0 0 0-4.594 4.594v16.375A4.609 4.609 0 0 0 51 220.28h29.25a4.609 4.609 0 0 0 4.594-4.594v-16.375a4.609 4.609 0 0 0-4.594-4.593H51zm0 2h29.25a2.578 2.578 0 0 1 2.594 2.594v16.375a2.58 2.58 0 0 1-2.594 2.593H51a2.578 2.578 0 0 1-2.594-2.594v-16.375A2.58 2.58 0 0 1 51 196.72zM92.781 194.719a4.609 4.609 0 0 0-4.594 4.594v16.375a4.609 4.609 0 0 0 4.594 4.593h16.375c2.17 0 3.903-1.561 4.375-3.594h.219v-17.375a4.609 4.609 0 0 0-4.594-4.593H92.781zm0 2h16.375a2.578 2.578 0 0 1 2.594 2.594v16.375a2.58 2.58 0 0 1-2.594 2.593H92.781a2.578 2.578 0 0 1-2.594-2.594v-16.375a2.58 2.58 0 0 1 2.594-2.593zM121.656 194.719a4.609 4.609 0 0 0-4.594 4.594v16.375a4.609 4.609 0 0 0 4.594 4.593h16.375a4.609 4.609 0 0 0 4.594-4.594v-16.375a4.609 4.609 0 0 0-4.594-4.593h-16.375zm0 2h16.375a2.578 2.578 0 0 1 2.594 2.594v16.375a2.58 2.58 0 0 1-2.594 2.593h-16.375a2.578 2.578 0 0 1-2.594-2.594v-16.375a2.58 2.58 0 0 1 2.594-2.593zM150.563 194.719a4.609 4.609 0 0 0-4.594 4.594v16.375a4.609 4.609 0 0 0 4.594 4.593h16.375a4.609 4.609 0 0 0 4.593-4.594v-16.375a4.609 4.609 0 0 0-4.594-4.593h-16.375zm0 2h16.375a2.578 2.578 0 0 1 2.593 2.594v16.375a2.58 2.58 0 0 1-2.594 2.593h-16.375a2.578 2.578 0 0 1-2.593-2.594v-16.375a2.58 2.58 0 0 1 2.594-2.593zM179.438 194.719a4.609 4.609 0 0 0-4.594 4.594v16.375a4.609 4.609 0 0 0 4.594 4.593h16.375a4.609 4.609 0 0 0 4.593-4.594v-16.375a4.609 4.609 0 0 0-4.594-4.593h-16.375zm0 2h16.375a2.578 2.578 0 0 1 2.593 2.594v16.375a2.58 2.58 0 0 1-2.594 2.593h-16.375a2.578 2.578 0 0 1-2.593-2.594v-16.375a2.58 2.58 0 0 1 2.594-2.593zM208.344 194.719a4.609 4.609 0 0 0-4.594 4.594v16.375a4.609 4.609 0 0 0 4.594 4.593h16.375a4.609 4.609 0 0 0 4.594-4.594v-16.375a4.609 4.609 0 0 0-4.594-4.593h-16.375zm0 2h16.375a2.578 2.578 0 0 1 2.594 2.594v16.375a2.58 2.58 0 0 1-2.594 2.593h-16.375a2.578 2.578 0 0 1-2.594-2.594v-16.375a2.58 2.58 0 0 1 2.594-2.593zM237.219 194.719a4.609 4.609 0 0 0-4.594 4.594v16.375a4.609 4.609 0 0 0 4.594 4.593h16.375a4.609 4.609 0 0 0 4.594-4.594v-16.375a4.609 4.609 0 0 0-4.594-4.593h-16.375zm0 2h16.375a2.578 2.578 0 0 1 2.594 2.594v16.375a2.58 2.58 0 0 1-2.594 2.593h-16.375a2.578 2.578 0 0 1-2.594-2.594v-16.375a2.58 2.58 0 0 1 2.594-2.593zM266.125 194.719a4.609 4.609 0 0 0-4.594 4.594v16.375a4.609 4.609 0 0 0 4.594 4.593H282.5a4.609 4.609 0 0 0 4.594-4.594v-16.375a4.609 4.609 0 0 0-4.594-4.593h-16.375zm0 2H282.5a2.578 2.578 0 0 1 2.594 2.594v16.375a2.58 2.58 0 0 1-2.594 2.593h-16.375a2.578 2.578 0 0 1-2.594-2.594v-16.375a2.58 2.58 0 0 1 2.594-2.593zM295 194.719a4.609 4.609 0 0 0-4.594 4.594v16.375A4.609 4.609 0 0 0 295 220.28h16.375a4.609 4.609 0 0 0 4.594-4.594v-16.375a4.609 4.609 0 0 0-4.594-4.593H295zm0 2h16.375a2.578 2.578 0 0 1 2.594 2.594v16.375a2.578 2.578 0 0 1-2.594 2.593H295a2.58 2.58 0 0 1-2.594-2.594v-16.375A2.58 2.58 0 0 1 295 196.72zM323.906 194.719a4.609 4.609 0 0 0-4.594 4.594v16.375a4.609 4.609 0 0 0 4.594 4.593h16.375a4.609 4.609 0 0 0 4.594-4.594v-16.375a4.609 4.609 0 0 0-4.594-4.593h-16.375zm0 2h16.375a2.58 2.58 0 0 1 2.594 2.594v16.375a2.58 2.58 0 0 1-2.594 2.593h-16.375a2.58 2.58 0 0 1-2.594-2.594v-16.375a2.58 2.58 0 0 1 2.594-2.593zM352.813 194.719a4.609 4.609 0 0 0-4.594 4.594v16.375a4.609 4.609 0 0 0 4.594 4.593h16.375a4.609 4.609 0 0 0 4.593-4.594v-16.375a4.609 4.609 0 0 0-4.594-4.593h-16.375zm0 2h16.375a2.579 2.579 0 0 1 2.593 2.594v16.375a2.579 2.579 0 0 1-2.594 2.593h-16.375a2.579 2.579 0 0 1-2.593-2.594v-16.375a2.579 2.579 0 0 1 2.594-2.593zM381.688 194.719a4.609 4.609 0 0 0-4.594 4.594v16.375a4.609 4.609 0 0 0 4.594 4.593h16.375a4.609 4.609 0 0 0 4.593-4.594v-16.375a4.609 4.609 0 0 0-4.594-4.593h-16.375zm0 2h16.375a2.58 2.58 0 0 1 2.593 2.594v16.375a2.58 2.58 0 0 1-2.594 2.593h-16.375a2.58 2.58 0 0 1-2.593-2.594v-16.375a2.58 2.58 0 0 1 2.594-2.593zM410.594 194.719a4.609 4.609 0 0 0-4.594 4.594v16.375a4.609 4.609 0 0 0 4.594 4.593h16.375a4.609 4.609 0 0 0 4.594-4.594v-16.375a4.609 4.609 0 0 0-4.594-4.593h-16.375zm0 2h16.375a2.58 2.58 0 0 1 2.594 2.594v16.375a2.58 2.58 0 0 1-2.594 2.593h-16.375a2.579 2.579 0 0 1-2.594-2.594v-16.375a2.579 2.579 0 0 1 2.594-2.593zM439.469 194.719a4.609 4.609 0 0 0-4.594 4.594v16.375a4.609 4.609 0 0 0 4.594 4.593h32.844a4.609 4.609 0 0 0 4.593-4.594v-16.375a4.609 4.609 0 0 0-4.594-4.593H439.47zm0 2h32.844a2.58 2.58 0 0 1 2.593 2.594v16.375a2.58 2.58 0 0 1-2.594 2.593H439.47a2.578 2.578 0 0 1-2.594-2.594v-16.375a2.578 2.578 0 0 1 2.594-2.593zM501.156 165.688V308h46.031V165.687h-46.03zm2 2h42.031V306h-42.03V167.687z" style="font-size:medium;font-style:normal;font-variant:normal;font-weight:400;font-stretch:normal;text-indent:0;text-align:start;text-decoration:none;line-height:normal;letter-spacing:normal;word-spacing:normal;text-transform:none;direction:ltr;block-progression:tb;writing-mode:lr-tb;text-anchor:start;baseline-shift:baseline;color:#000;fill:#f4f4f4;fill-opacity:1;stroke:none;stroke-width:2;marker:none;visibility:visible;display:inline;overflow:visible;enable-background:accumulate;font-family:Sans;-inkscape-font-specification:Sans"/><path d="M503.5 167.781v27.438h41.375V167.78H503.5zm2 2h37.375v23.438H505.5V169.78zM503.5 195.375v27.469h41.375v-27.469H503.5zm2 2h37.375v23.469H505.5v-23.469zM503.5 223v27.469h41.375V223H503.5zm2 2h37.375v23.469H505.5V225zM503.5 250.594v27.469h41.375v-27.47H503.5zm2 2h37.375v23.469H505.5v-23.47zM503.5 278.219v27.469h41.375v-27.47H503.5zm2 2h37.375v23.469H505.5v-23.47z" style="font-size:medium;font-style:normal;font-variant:normal;font-weight:400;font-stretch:normal;text-indent:0;text-align:start;text-decoration:none;line-height:normal;letter-spacing:normal;word-spacing:normal;text-transform:none;direction:ltr;block-progression:tb;writing-mode:lr-tb;text-anchor:start;baseline-shift:baseline;color:#000;fill:#f4f4f4;fill-opacity:1;stroke:none;stroke-width:2;marker:none;visibility:visible;display:inline;overflow:visible;enable-background:accumulate;font-family:Sans;-inkscape-font-specification:Sans"/></svg>