<svg xmlns="http://www.w3.org/2000/svg" viewBox="0 0 566.9 79.2" xml:space="preserve"><g fill="#c3c6c5"><path d="M123.4 3.4c3.1-3.9 9.4-4.6 13.2-1.3 1.5 1.3 2.6 3.1 3.2 5 7 24 14 48 21 72.1h-12.4c-1.9-6.6-3.8-13.3-5.8-19.9h-23.9c-2 6.6-3.9 13.3-5.8 19.9h-12.3c6.6-22.9 13.3-45.8 19.9-68.7.9-2.4 1.2-5.1 2.9-7.1m7.3 14.8c-2.9 10-5.8 19.9-8.7 29.9h17.4c-2.9-10-5.8-20-8.7-29.9zM210.2 4c2.1-3.1 6.3-4.6 10-3.7 3.3.8 5.9 3.7 6.8 6.9 7 24 14 48 20.9 72h-12.4c-1.9-6.6-3.8-13.3-5.7-19.9h-23.9c-1.9 6.6-3.9 13.3-5.8 19.9h-12.3c6.6-23 13.3-46.1 20-69.1.8-2.1 1.1-4.4 2.4-6.1m-1 44h17.3c-2.9-10-5.8-20-8.6-29.9-2.9 10-5.8 20-8.7 29.9zM151.6.2h44.7v12.1h-16.5v67H168v-67h-16.5c.1-4.1.1-8.1.1-12.1zM261 .7c1.1-.4 2.3-.5 3.5-.5h14.1c7.9.1 15.5 5.1 18.9 12.2 2.4 4.6 2.6 10 2 15.1-.4 5.3-2.6 10.6-6.7 14.1-2.2 1.9-4.8 3.1-7.2 4.8-1.3 1-1.3 2.8-.7 4.2 6.2 9.6 12.7 19.1 19.1 28.7h-14c-6.1-9.2-12.1-18.4-18.2-27.5-1.8-2.6-2.3-6.1-1.2-9 .8-2.3 2.8-4 5.1-4.8 4.2-1.6 8.4-4.2 10.8-8.2 1.8-3 1.7-6.7.9-10-.9-4.3-5.1-7.6-9.5-7.5h-9.1c-1.4 0-2.7 1.2-2.7 2.6v64.5h-11.9V10c.1-4.3 3-8.1 6.8-9.3zM310.3.2h12.5v79h-12.5V.2z"/></g><path fill="#c3c6c5" d="M527.3 79.2c-21.8 0-39.6-17.8-39.6-39.6S505.5 0 527.3 0s39.6 17.8 39.6 39.6-17.7 39.6-39.6 39.6zm0-76.3c-20.2 0-36.7 16.5-36.7 36.7 0 20.2 16.5 36.7 36.7 36.7 20.2 0 36.7-16.5 36.7-36.7 0-20.2-16.4-36.7-36.7-36.7z"/><path fill="#c3c6c5" d="M527.3 66.6c-14.9 0-27-12.1-27-27s12.1-27 27-27 27 12.1 27 27-12.1 27-27 27zm0-51.1c-13.3 0-24.1 10.8-24.1 24.1s10.8 24.1 24.1 24.1 24.1-10.8 24.1-24.1-10.8-24.1-24.1-24.1zM446.3 79.2c-21.8 0-39.6-17.8-39.6-39.6S424.5 0 446.3 0s39.6 17.8 39.6 39.6-17.8 39.6-39.6 39.6zm0-76.3c-20.2 0-36.7 16.5-36.7 36.7 0 20.2 16.5 36.7 36.7 36.7S483 59.8 483 39.6c0-20.2-16.5-36.7-36.7-36.7z"/><path fill="#c3c6c5" d="M446.3 66.6c-14.9 0-27-12.1-27-27s12.1-27 27-27 27 12.1 27 27c-.1 14.9-12.2 27-27 27zm0-51.1c-13.3 0-24.1 10.8-24.1 24.1s10.8 24.1 24.1 24.1 24.1-10.8 24.1-24.1c-.1-13.3-10.9-24.1-24.1-24.1zM378.4 79.2c-15.3 0-27.7-12.4-27.7-27.7 0-9.2 4.6-17.8 12.2-23-1.9-3-2.9-6.4-2.9-10C360 8.3 368.3 0 378.5 0S397 8.3 397 18.5c0 3.6-1 7-2.9 10 7.6 5.1 12.2 13.8 12.2 23-.2 15.3-12.6 27.7-27.9 27.7zm0-76.3c-8.6 0-15.6 7-15.6 15.6 0 3.5 1.1 6.8 3.3 9.5l1 1.3-1.4.8c-7.5 4.5-12.1 12.6-12.1 21.3 0 13.7 11.1 24.8 24.8 24.8 13.7 0 24.8-11.1 24.8-24.8 0-8.7-4.6-16.9-12.1-21.3l-1.4-.8 1-1.3c2.1-2.8 3.3-6 3.3-9.5 0-8.6-7-15.6-15.6-15.6z"/><path fill="#c3c6c5" d="M378.4 67.7c-8.9 0-16.2-7.3-16.2-16.2 0-8.9 7.3-16.2 16.2-16.2 8.9 0 16.2 7.3 16.2 16.2 0 8.9-7.3 16.2-16.2 16.2zm0-29.5c-7.3 0-13.3 6-13.3 13.3 0 7.3 6 13.3 13.3 13.3 7.3 0 13.3-6 13.3-13.3 0-7.4-6-13.3-13.3-13.3zM378.4 26.6c-4.5 0-8.2-3.7-8.2-8.2 0-4.5 3.7-8.2 8.2-8.2s8.2 3.7 8.2 8.2c0 4.6-3.7 8.2-8.2 8.2zm0-13.4c-2.9 0-5.2 2.4-5.2 5.2 0 2.9 2.4 5.2 5.2 5.2 2.9 0 5.2-2.4 5.2-5.2 0-2.8-2.3-5.2-5.2-5.2zM0 70.5c0 4.8 3.9 8.8 8.8 8.8h61.7c4.8 0 8.8-3.9 8.8-8.8V8.8C79.3 4 75.4 0 70.5 0H8.8C3.9 0 0 3.9 0 8.8v61.7z"/><g fill="#211915"><path d="M30.5 15h3.9v9.2c0 2.6-.1 5.1-.2 7.7-.2 3.7-.4 7.4-1 11-.4 2.5-1.3 4.9-2.4 7.2-1.8 3.7-4.5 6.9-7.6 9.5-2.8 2.4-6.1 4.2-9.6 5.4-2 .7-4 1.2-6.1 1.5v-7.7c2.5-.4 4.9-1.3 7.1-2.4 2.6-1.4 5-3.3 7-5.5 2.1-2.3 3.7-4.9 5-7.7 1.5-3.2 2.3-6.7 2.8-10.2.7-4.4 1-8.9 1.1-13.4V15zM36 15h7.2v51.6H36V15zM44.8 15h3.9c0 5.2.1 10.5.8 15.7.5 4 1.2 8.1 2.8 11.9 1.5 3.6 3.7 7 6.6 9.8 2.7 2.6 6.1 4.6 9.7 5.8 1 .3 2 .6 3.1.7v7.7c-2.1-.3-4.1-.8-6-1.5-2.3-.8-4.6-1.9-6.7-3.2-1.5-1-2.9-2.1-4.2-3.4-2.2-2-4.1-4.3-5.6-6.9-1.1-2-2-4.2-2.6-6.4-.6-2.2-.9-4.5-1.1-6.8-.5-5-.6-9.9-.6-14.9-.1-2.9-.1-5.7-.1-8.5z"/><path d="M36 15v51.5h7.2V14.9c-2.4.1-4.8.1-7.2.1M44.8 15v8.5c0 5 .1 10 .6 14.9.2 2.3.5 4.6 1.1 6.8.7 2.2 1.5 4.4 2.6 6.4 1.5 2.6 3.4 4.9 5.6 6.9 1.3 1.2 2.7 2.4 4.2 3.4 2.1 1.4 4.3 2.4 6.7 3.2 2 .7 4 1.2 6 1.5v-7.7c-1-.2-2.1-.4-3.1-.7-3.5-1.2-6.9-3.2-9.6-5.9-2.9-2.7-5.1-6.1-6.6-9.8-1.6-3.8-2.3-7.8-2.8-11.9-.6-5.2-.8-10.5-.8-15.7-1.3.1-2.6.1-3.9.1"/></g></svg>