<svg xmlns="http://www.w3.org/2000/svg" viewBox="0 0 566.9 67.6" xml:space="preserve"><g fill="#c3c6c5"><path d="M213.3 56.3c-4.8 6.5-9.5 8.3-11.6 9.3-2.1 1-5.2 1.8-7.9 1.8-7.7 0-13.7-2.5-18-7.5-4.3-5-6.5-12-6.5-21.2 0-10.8 2.7-19.9 8.2-27.5C182.9 3.7 190.2 0 199.2 0c6.8 0 12.4 1.9 16.8 5.8 4.4 3.8 6.6 9.9 6.6 18.1h-13.2c0-3.9-.9-6.7-2.6-8.3-1.7-1.6-4.2-2.4-7.5-2.4-5.3 0-9.4 2.6-12.4 7.8-2.9 5.2-4.4 11.1-4.4 17.7 0 4.5 1 8.2 2.8 11.1 1.9 2.9 4.7 4.3 8.5 4.3 3.9 0 7-1.1 9.2-3.4 2.2-2.2 3.8-5.1 4.8-8.6h-12.3l2-12h24l-2 11.6c.1.2-1.4 8.1-6.2 14.6zM327.6 1.7l-10.7 64.1h-11.6l9.1-49.7-20.1 49.7h-9.5l-4.4-49.7-6.9 49.7h-11.7l10.7-64.1h16.4l3.7 45.2 18.5-45.4zM339.9 26.5h18.9l-2 12.5h-18.9l-2.4 13.6h21.3l-2.1 13.2h-33.6l10.6-64.2H365l-2.1 13.3H342zM239.1 1.5l-25.9 64.3h12.6l4.6-12.5h16.5l1.1 12.5h12.2l-7.3-64.3h-13.8zm-4.7 40.8 9.4-25.6 2.2 25.6h-11.6z"/></g><g fill="#c3c6c5"><path d="M430.3 56.3c-4.8 6.5-9.5 8.3-11.6 9.3-2.1 1-5.2 1.8-7.9 1.8-7.7 0-13.7-2.5-18-7.5-4.3-5-6.5-12-6.5-21.2 0-10.8 2.7-19.9 8.2-27.5C399.9 3.8 407.2 0 416.2 0c6.8 0 12.4 1.9 16.8 5.8 4.4 3.8 6.6 9.9 6.6 18.1h-13.2c0-3.9-.9-6.7-2.6-8.3-1.7-1.6-4.2-2.4-7.5-2.4-5.3 0-9.4 2.6-12.4 7.8-2.9 5.2-4.4 11.1-4.4 17.7 0 4.5 1 8.2 2.8 11.1 1.9 2.9 4.7 4.3 8.5 4.3 3.9 0 7-1.1 9.2-3.4 2.2-2.2 3.8-5.1 4.8-8.6h-12.3l2-12h24l-2 11.6c.1.2-1.5 8.1-6.2 14.6zM455 26.5h18.9l-2 12.5H453l-2.4 13.6h21.3l-2.1 13.3h-33.6l10.6-64.3h33.3L478 14.9h-20.9zM496.8 1.6l-25.9 64.3h12.6l4.6-12.5h16.5l1.1 12.5h12.2l-7.3-64.3h-13.8zm-4.6 40.7 9.4-25.6 2.2 25.6h-11.6zM537.5 29.8l2.8-15.8h6.8c2.5 0 4.3.4 5.6 1.3 1.2.9 1.9 2.7 1.9 5.4 0 3-1 5.3-3 6.8s-4.6 2.2-7.7 2.2l-6.4.1zm-7.6-28.2-10.6 64.3h12.3l4.1-24.5h5.7l9.5 24.5H565l-10.5-27.1c3.7-1.9 6.8-5 9-8.3 2.3-3.4 3.4-7.3 3.4-11.7 0-6.1-1.4-10.4-4.1-13.1-2.7-2.7-6.6-4-11.6-4l-21.3-.1z"/></g><path fill="#D61808" d="M10.3 26.3C21.1 8.1 36.1-3.3 43.7.9c7.6 4.2 4.9 22.3-6 40.5S11.9 70.9 4.3 66.8c-7.6-4.2-4.9-22.3 6-40.5z"/><path fill="#008400" d="M58.8 26.3C69.7 8.1 84.6-3.3 92.2.9c7.6 4.2 4.9 22.3-6 40.5-10.8 18.2-25.8 29.5-33.3 25.4-7.6-4.2-4.9-22.3 5.9-40.5z"/><path fill="#00F" d="M107.4 26.3C118.3 8.1 133.2-3.3 140.8.9c7.6 4.2 4.9 22.3-6 40.5C124 59.6 109 70.9 101.5 66.8c-7.6-4.2-4.9-22.3 5.9-40.5z"/></svg>