<svg xmlns="http://www.w3.org/2000/svg" width="598.189" height="350.26" xml:space="preserve"><path fill="#F4F4F4" d="M105.619 240.402c0-14.178 11.491-25.669 25.668-25.672 14.175.003 25.667 11.494 25.667 25.672 0 14.174-11.491 25.665-25.667 25.668-14.177-.003-25.668-11.494-25.668-25.668zm2.367 0c.025 12.866 10.434 23.272 23.301 23.297 12.865-.024 23.274-10.431 23.298-23.297-.024-12.871-10.434-23.276-23.298-23.301-12.868.025-23.276 10.43-23.301 23.301z"/><path fill="#F4F4F4" d="M112.429 240.402c.002-10.415 8.442-18.856 18.858-18.856 10.413 0 18.854 8.441 18.854 18.856 0 10.412-8.44 18.854-18.854 18.854-10.416.001-18.856-8.442-18.858-18.854zm2.369 0c.017 9.104 7.384 16.468 16.489 16.485 9.104-.018 16.47-7.382 16.486-16.485-.017-9.106-7.382-16.471-16.486-16.488-9.105.018-16.472 7.382-16.489 16.488zM457.859 240.402c.003-14.179 11.492-25.668 25.672-25.671 14.173.003 25.664 11.492 25.667 25.671-.003 14.174-11.494 25.665-25.667 25.668-14.179-.003-25.669-11.494-25.672-25.668zm2.373 0c.021 12.865 10.428 23.273 23.299 23.296 12.864-.022 23.272-10.431 23.295-23.296-.022-12.87-10.431-23.276-23.295-23.298-12.871.022-23.277 10.428-23.299 23.298z"/><path fill="#F4F4F4" d="M464.674 240.402c0-10.414 8.44-18.854 18.853-18.854 10.415 0 18.858 8.44 18.858 18.854 0 10.413-8.443 18.854-18.858 18.854-10.413.001-18.853-8.441-18.853-18.854zm2.368 0c.018 9.106 7.383 16.467 16.484 16.484 9.107-.018 16.472-7.378 16.489-16.484-.018-9.106-7.382-16.471-16.489-16.488-9.101.018-16.466 7.382-16.484 16.488zM220.286 287.542a7.105 7.105 0 0 1 7.107-7.108 7.109 7.109 0 0 1 7.108 7.108 7.113 7.113 0 0 1-7.108 7.107 7.109 7.109 0 0 1-7.107-7.107zm2.369 0a4.75 4.75 0 0 0 4.738 4.737 4.75 4.75 0 0 0 4.738-4.737 4.745 4.745 0 0 0-4.738-4.74 4.745 4.745 0 0 0-4.738 4.74zM308.148 301.954v-2.373h11.847c6.649-.012 12.03-5.393 12.042-12.04-.012-6.655-5.393-12.036-12.042-12.048h-11.847c-6.651.012-12.034 5.393-12.044 12.048.01 6.647 5.393 12.028 12.044 12.04v2.373c-7.962-.002-14.414-6.455-14.414-14.412 0-7.963 6.452-14.417 14.414-14.417h11.847c7.961 0 14.41 6.454 14.414 14.417-.004 7.957-6.453 14.41-14.414 14.412h-11.847z"/><path fill="#F4F4F4" d="M308.938 295.636v-2.372h11.453a6.13 6.13 0 0 0 6.12-6.119 6.13 6.13 0 0 0-6.12-6.122h-11.453a6.132 6.132 0 0 0-6.123 6.122 6.13 6.13 0 0 0 6.123 6.119v2.372a8.491 8.491 0 0 1-8.49-8.49 8.494 8.494 0 0 1 8.49-8.493h11.453a8.491 8.491 0 0 1 8.487 8.493 8.489 8.489 0 0 1-8.487 8.49h-11.453zM358.101 301.954v-2.373h11.85c6.649-.012 12.029-5.393 12.042-12.04-.013-6.655-5.393-12.036-12.042-12.048h-11.85c-6.65.012-12.032 5.393-12.042 12.048.01 6.647 5.392 12.028 12.042 12.04v2.373c-7.962-.002-14.411-6.455-14.414-14.412.003-7.963 6.452-14.417 14.414-14.417h11.85c7.959 0 14.412 6.454 14.412 14.417 0 7.957-6.453 14.41-14.412 14.412h-11.85zM408.647 301.954v-2.373h11.848c6.649-.012 12.03-5.393 12.041-12.04-.011-6.655-5.392-12.036-12.041-12.048h-11.848c-6.652.012-12.032 5.393-12.045 12.048.013 6.647 5.393 12.028 12.045 12.04v2.373c-7.964-.002-14.414-6.455-14.414-14.412 0-7.963 6.45-14.417 14.414-14.417h11.848c7.961 0 14.41 6.454 14.413 14.417-.003 7.957-6.452 14.41-14.413 14.412h-11.848z"/><path fill="#F4F4F4" d="M358.894 295.636v-2.372h11.453a6.129 6.129 0 0 0 6.118-6.119 6.13 6.13 0 0 0-6.118-6.122h-11.453a6.135 6.135 0 0 0-6.126 6.122 6.137 6.137 0 0 0 6.126 6.121v2.37a8.49 8.49 0 0 1-8.492-8.49 8.493 8.493 0 0 1 8.492-8.493h11.453a8.49 8.49 0 0 1 8.485 8.493c0 4.688-3.797 8.49-8.485 8.49h-11.453zM204.619 235.117c-6.542 0-11.845-5.302-11.847-11.845V89.008c.002-6.543 5.305-11.845 11.847-11.847l204.556.002c6.542 0 11.844 5.302 11.848 11.845v134.265h-.004c0 6.543-5.302 11.845-11.844 11.847l-204.556-.003zm-9.476-146.109v134.265a9.491 9.491 0 0 0 9.477 9.477h204.556a9.491 9.491 0 0 0 9.477-9.477V89.008a9.491 9.491 0 0 0-9.477-9.477H204.619a9.49 9.49 0 0 0-9.476 9.477z"/><path fill="#F4F4F4" d="M205.806 227.813a5.923 5.923 0 0 1-5.923-5.923V90.391a5.922 5.922 0 0 1 5.923-5.923H407.99a5.923 5.923 0 0 1 5.923 5.923V221.89a5.923 5.923 0 0 1-5.923 5.923H205.806zm-3.554-137.422V221.89a3.56 3.56 0 0 0 3.554 3.553l202.184.002a3.565 3.565 0 0 0 3.554-3.555V90.391a3.562 3.562 0 0 0-3.554-3.555H205.806a3.56 3.56 0 0 0-3.554 3.555z"/><path fill="#F4F4F4" d="M176.584 268.584a5.921 5.921 0 0 1-5.924-5.921V52.974a5.923 5.923 0 0 1 5.924-5.923h260.627a5.925 5.925 0 0 1 5.923 5.923v209.689a5.923 5.923 0 0 1-5.923 5.923l-260.627-.002zm-3.556-215.61v209.689a3.561 3.561 0 0 0 3.556 3.552h260.627a3.56 3.56 0 0 0 3.554-3.552V52.974a3.561 3.561 0 0 0-3.554-3.553H176.584a3.562 3.562 0 0 0-3.556 3.553z"/><path fill="#F4F4F4" d="M83.751 316.07a2.368 2.368 0 0 1-2.37-2.368V33.725a2.37 2.37 0 0 1 2.37-2.37h445.832a2.37 2.37 0 0 1 2.37 2.37v279.978h-.002a2.372 2.372 0 0 1-2.368 2.371l-445.832-.004zm0-282.345v279.978h445.83l.002-279.978s0-.002 0 0l-445.832-.003v.003z"/><path fill="#F4F4F4" d="M73.287 330.879a7.107 7.107 0 0 1-7.108-7.108l-.003-300.116a7.11 7.11 0 0 1 7.11-7.108h466.76a7.106 7.106 0 0 1 7.108 7.108V323.77a7.106 7.106 0 0 1-7.108 7.108H73.287v.001zM68.548 23.655V323.77a4.747 4.747 0 0 0 4.739 4.74h466.76a4.747 4.747 0 0 0 4.739-4.74l-.002-300.115a4.743 4.743 0 0 0-4.737-4.739H73.287a4.745 4.745 0 0 0-4.739 4.739z"/><path fill="#F4F4F4" d="M108.924 105.89a7.106 7.106 0 0 1-7.106-7.107V62.057a7.106 7.106 0 0 1 7.106-7.107h44.623a7.105 7.105 0 0 1 7.108 7.107v36.726a7.107 7.107 0 0 1-7.108 7.107h-44.623zm-4.739-43.833v36.726a4.75 4.75 0 0 0 4.739 4.739h44.623a4.746 4.746 0 0 0 4.738-4.739h.002l-.002-36.726a4.746 4.746 0 0 0-4.738-4.739h-44.623a4.749 4.749 0 0 0-4.739 4.739z"/></svg>