<svg xmlns="http://www.w3.org/2000/svg" viewBox="0 0 566.9 129.2" xml:space="preserve"><path fill="#c3c6c5" d="M288.3 73.6 295 58l-8.5-.1-4.4 10.1-6.9-6.2c5.2-5 5.8-6.2 6.1-11C281.6 46 277.2 40 269 40s-11.4 6.7-11.4 11.2c0 4.4 2.4 7.2 5.4 10-5 3.3-9 6.4-9 16.1 0 7.4 6.6 14 16 14s13.4-7.5 14.7-10.2c3.1 2.9 10.2 9.3 10.2 9.3l5.2-5.7-11.8-11.1zm-18.8-25.8c2 0 4 1.1 4 3.6 0 2.9-4 5.2-4 5.2-3.3-2.7-4.1-3.2-4.1-5.5 0-2.4 2.3-3.3 4.1-3.3zm.5 35.9c-3.1 0-8.3-.9-8.3-6.7s2.2-7.1 7.4-10.4c0 0 8.2 7.4 9.9 8.9-2.6 6.8-5.9 8.2-9 8.2zM121.2 90.1l33.9-50.9h8.3v35.2l23.7-35.1h8.5v50.8h-8.5V55l-23.7 35.3H155V54.8l-23.5 35.3zM202.9 90.2V39.3h26.2v8.6h-17.6v13h17.6v8.7h-17.7v12H229v8.6zM110.1 39.3 76.3 90.4h10.4l7.2-11.1h16.4v11.1h8.4V39.3h-8.6zm.1 31.2H99.8l10.3-15.6v15.6zM81.9 65.5H55.3v8.3l17.3.1c-3 6.7-9.7 11.3-17.5 11.3-10.6 0-19.2-8.6-19.2-19.2s8.6-19.2 19.2-19.2c6.6 0 12.4 3.3 15.8 8.4h8.8c-4.2-9.4-13.6-16-24.6-16-14.8 0-26.9 12-26.9 26.9 0 14.8 12 26.9 26.9 26.9S82 81 82 66.1c-.1-.3-.1-.4-.1-.6z"/><path fill="#c3c6c5" d="M55.3 65.4h27.1v8.5H55.3zM401.7 37.9 367.9 89h10.4l7.2-11.1h16.4V89h8.4V37.9h-8.6zm0 31.1h-10.3l10.3-15.6V69zM480.1 75.2c-3.4 3.9-8.4 6.4-14 6.4-10.2 0-18.4-8.3-18.4-18.4 0-10.2 8.3-18.4 18.4-18.4 5.4 0 10.2 2.3 13.6 5.9h9.9c-4.5-8.5-13.4-14.2-23.6-14.2-14.7 0-26.7 12-26.7 26.7s12 26.7 26.7 26.7c10.4 0 19.4-6 23.8-14.7h-9.7zM320.9 38.1V89h8.8l23.2-34.8v34.7h8.9l33.6-50.8h-10.5l-23.2 35.2V38.2H353l-23.3 35.2V38.1z"/><path fill="#c3c6c5" d="M413.3 38h28.2v8.6h-9.8v42.2H423V46.7h-9.8zM492.2 38.1V89h8.6V67.4h15.7v21.5h8.8V38.1h-8.6v20.6h-15.9V38.1z"/><path fill="#c3c6c5" d="M551.9 22H11.5c-4.7 0-8.6 3.8-8.6 8.6v66.3c0 4.7 3.8 8.6 8.6 8.6h540.4c4.7 0 8.6-3.8 8.6-8.6V30.5c0-4.7-3.9-8.5-8.6-8.5zm7 74.7c0 4.1-3.3 7.4-7.4 7.4H11.9c-4.1 0-7.4-3.3-7.4-7.4V30.8c0-4.1 3.3-7.4 7.4-7.4h539.6c4.1 0 7.4 3.3 7.4 7.4v65.9z"/></svg>