<svg xmlns="http://www.w3.org/2000/svg" width="566.929" height="129.21" xml:space="preserve"><path d="m288.25 73.605 6.785-15.589-8.479-.067-4.37 10.112-6.916-6.197c5.153-5.023 5.807-6.196 6.067-11.025.261-4.825-4.11-10.762-12.264-10.762s-11.415 6.719-11.415 11.156c0 4.435 2.414 7.174 5.415 10.044-5.022 3.328-9.002 6.393-9.002 16.111 0 7.438 6.589 13.961 15.981 13.961 9.393 0 13.438-7.504 14.676-10.176a5084.652 5084.652 0 0 0 10.242 9.326l5.154-5.673-11.874-11.221zm-18.784-25.832c1.978 0 4.044 1.131 4.044 3.589 0 2.869-3.979 5.217-3.979 5.217-3.282-2.718-4.109-3.195-4.109-5.544-.001-2.349 2.238-3.262 4.044-3.262zm.521 35.878c-3.131 0-8.349-.913-8.349-6.72 0-5.805 2.217-7.076 7.371-10.438 0 0 8.153 7.373 9.915 8.872-2.478 6.98-5.805 8.286-8.937 8.286zM121.232 90.125l33.833-50.878h8.349v35.135l23.657-35.049h8.524v50.792h-8.524V54.988l-23.657 35.311h-8.436V54.815l-23.482 35.31zM202.901 90.212V39.333h26.179v8.611h-17.568v12.959h17.568V69.6h-17.657v12.002h17.569v8.61zM110.1 39.333 76.267 90.387h10.438l7.217-11.135h16.352v11.135h8.436V39.333h-8.61zm.087 31.137h-10.35l10.35-15.569V70.47zM81.937 65.474h-26.63v8.3l17.268.078c-2.997 6.684-9.709 11.339-17.507 11.339-10.592 0-19.178-8.587-19.178-19.18 0-10.591 8.586-19.177 19.178-19.177 6.578 0 12.38 3.312 15.835 8.356l8.769-.008c-4.165-9.449-13.614-16.046-24.604-16.046-14.842 0-26.875 12.033-26.875 26.875 0 14.844 12.033 26.875 26.875 26.875s26.875-12.031 26.875-26.875c0-.179-.003-.359-.006-.537z"/><path fill="none" d="M55.307 65.424h27.092v8.479H55.307zM61.96 55.25h26.266v5.349H61.96z"/><path d="m401.653 37.884-33.831 51.053h10.436l7.219-11.135h16.35v11.135h8.437V37.884h-8.611zm.087 31.135h-10.348l10.348-15.567v15.567zM480.065 75.239a18.395 18.395 0 0 1-13.965 6.397c-10.184 0-18.438-8.254-18.438-18.438 0-10.183 8.255-18.439 18.438-18.439 5.364 0 10.19 2.291 13.56 5.945l9.868-.003c-4.483-8.45-13.371-14.203-23.602-14.203-14.747 0-26.7 11.953-26.7 26.7 0 14.748 11.953 26.701 26.7 26.701 10.416 0 19.44-5.966 23.842-14.664l-9.703.004zM320.943 38.063V89.03h8.783l23.223-34.789v34.701h8.871l33.571-50.793h-10.523l-23.135 35.139V38.236h-8.697l-23.31 35.138V38.063z"/><path d="M413.309 37.978h28.176v8.608h-9.826v42.183h-8.699V46.674h-9.739zM492.192 38.063v50.969h8.61V67.375h15.742v21.482h8.786V38.149h-8.61v20.527h-15.918V38.149z"/><path d="M551.888 21.961H11.522a8.573 8.573 0 0 0-8.573 8.573V96.88a8.573 8.573 0 0 0 8.573 8.573h540.366a8.572 8.572 0 0 0 8.572-8.573V30.534a8.572 8.572 0 0 0-8.572-8.573zm7.039 74.693a7.44 7.44 0 0 1-7.44 7.441H11.923a7.442 7.442 0 0 1-7.441-7.441V30.761a7.442 7.442 0 0 1 7.441-7.441h539.564a7.44 7.44 0 0 1 7.44 7.441v65.893z"/></svg>