<?xml version="1.0" encoding="utf-8"?>
<!-- Generator: Adobe Illustrator 18.0.0, SVG Export Plug-In . SVG Version: 6.00 Build 0)  -->
<!DOCTYPE svg PUBLIC "-//W3C//DTD SVG 1.1//EN" "http://www.w3.org/Graphics/SVG/1.1/DTD/svg11.dtd">
<svg version="1.1" id="Layer_1" xmlns="http://www.w3.org/2000/svg" xmlns:xlink="http://www.w3.org/1999/xlink" x="0px" y="0px"
	 viewBox="0 0 566.9 129.2" enable-background="new 0 0 566.9 129.2" xml:space="preserve">
<g id="Layer_2">
	<g>
		<g>
			<path fill="#c3c6c5" d="M288.3,73.6L295,58l-8.5-0.1l-4.4,10.1l-6.9-6.2c5.2-5,5.8-6.2,6.1-11c0.3-4.8-4.1-10.8-12.3-10.8
				s-11.4,6.7-11.4,11.2c0,4.4,2.4,7.2,5.4,10c-5,3.3-9,6.4-9,16.1c0,7.4,6.6,14,16,14c9.4,0,13.4-7.5,14.7-10.2
				c3.1,2.9,10.2,9.3,10.2,9.3l5.2-5.7L288.3,73.6z M269.5,47.8c2,0,4,1.1,4,3.6c0,2.9-4,5.2-4,5.2c-3.3-2.7-4.1-3.2-4.1-5.5
				C265.4,48.7,267.7,47.8,269.5,47.8z M270,83.7c-3.1,0-8.3-0.9-8.3-6.7c0-5.8,2.2-7.1,7.4-10.4c0,0,8.2,7.4,9.9,8.9
				C276.4,82.3,273.1,83.7,270,83.7z"/>
		</g>
	</g>
	<g>
		<polygon fill="#c3c6c5" points="121.2,90.1 155.1,39.2 163.4,39.2 163.4,74.4 187.1,39.3 195.6,39.3 195.6,90.1 187.1,90.1 
			187.1,55 163.4,90.3 155,90.3 155,54.8 131.5,90.1 		"/>
		<polygon fill="#c3c6c5" points="202.9,90.2 202.9,39.3 229.1,39.3 229.1,47.9 211.5,47.9 211.5,60.9 229.1,60.9 229.1,69.6 
			211.4,69.6 211.4,81.6 229,81.6 229,90.2 		"/>
		<g>
			<g>
				<path fill="#c3c6c5" d="M110.1,39.3L76.3,90.4h10.4l7.2-11.1h16.4v11.1h8.4V39.3H110.1z M110.2,70.5H99.8l10.3-15.6V70.5z"/>
			</g>
		</g>
		<g>
			<g>
				<path fill="#c3c6c5" d="M81.9,65.5H55.3v8.3l17.3,0.1c-3,6.7-9.7,11.3-17.5,11.3c-10.6,0-19.2-8.6-19.2-19.2
					c0-10.6,8.6-19.2,19.2-19.2c6.6,0,12.4,3.3,15.8,8.4l8.8,0c-4.2-9.4-13.6-16-24.6-16c-14.8,0-26.9,12-26.9,26.9
					c0,14.8,12,26.9,26.9,26.9s26.9-12,26.9-26.9C81.9,65.8,81.9,65.7,81.9,65.5z"/>
			</g>
		</g>
		<rect x="55.3" y="65.4" fill="#c3c6c5" width="27.1" height="8.5"/>
	</g>
	<g>
		<g>
			<g>
				<path fill="#c3c6c5" d="M401.7,37.9l-33.8,51.1h10.4l7.2-11.1h16.4v11.1h8.4V37.9H401.7z M401.7,69h-10.3l10.3-15.6V69z"/>
			</g>
		</g>
		<g>
			<g>
				<path fill="#c3c6c5" d="M480.1,75.2c-3.4,3.9-8.4,6.4-14,6.4c-10.2,0-18.4-8.3-18.4-18.4c0-10.2,8.3-18.4,18.4-18.4
					c5.4,0,10.2,2.3,13.6,5.9l9.9,0c-4.5-8.5-13.4-14.2-23.6-14.2c-14.7,0-26.7,12-26.7,26.7c0,14.7,12,26.7,26.7,26.7
					c10.4,0,19.4-6,23.8-14.7L480.1,75.2z"/>
			</g>
		</g>
		<polygon fill="#c3c6c5" points="320.9,38.1 320.9,89 329.7,89 352.9,54.2 352.9,88.9 361.8,88.9 395.4,38.1 384.9,38.1 
			361.7,73.3 361.7,38.2 353,38.2 329.7,73.4 329.7,38.1 		"/>
		<polygon fill="#c3c6c5" points="413.3,38 441.5,38 441.5,46.6 431.7,46.6 431.7,88.8 423,88.8 423,46.7 413.2,46.7 		"/>
		<polygon fill="#c3c6c5" points="492.2,38.1 492.2,89 500.8,89 500.8,67.4 516.5,67.4 516.5,88.9 525.3,88.9 525.3,38.1 
			516.7,38.1 516.7,58.7 500.8,58.7 500.8,38.1 		"/>
	</g>
</g>
<g id="Layer_3">
	<g>
		<g>
			<path fill="#c3c6c5" d="M551.9,22H11.5c-4.7,0-8.6,3.8-8.6,8.6v66.3c0,4.7,3.8,8.6,8.6,8.6h540.4c4.7,0,8.6-3.8,8.6-8.6V30.5
				C560.5,25.8,556.6,22,551.9,22z M558.9,96.7c0,4.1-3.3,7.4-7.4,7.4H11.9c-4.1,0-7.4-3.3-7.4-7.4V30.8c0-4.1,3.3-7.4,7.4-7.4
				h539.6c4.1,0,7.4,3.3,7.4,7.4V96.7z"/>
		</g>
	</g>
</g>
</svg>
