<svg version="1.2" baseProfile="tiny" xmlns="http://www.w3.org/2000/svg" width="598.189" height="350.26" xml:space="preserve"><g fill="#F4F4F4"><path d="M192.498 221.686c-.763 0-1.375-.62-1.377-1.377v-17.392a1.38 1.38 0 0 1 1.377-1.379h18.336a1.38 1.38 0 0 1 1.377 1.379v17.392a1.378 1.378 0 0 1-1.377 1.377h-18.336zm17.714-1.999v-16.149h-17.089v16.149h17.089z"/><path d="M196.769 217.415a2.505 2.505 0 0 1-2.507-2.506v-9.293a2.508 2.508 0 0 1 2.507-2.509l9.795.002a2.505 2.505 0 0 1 2.506 2.507v9.293a2.509 2.509 0 0 1-2.506 2.508l-9.795-.002zm-.508-11.799v9.293c.002.28.229.506.508.506l9.795.002a.512.512 0 0 0 .508-.508v-9.293a.509.509 0 0 0-.508-.507l-9.795-.002a.51.51 0 0 0-.508.509z"/></g><g fill="#F4F4F4"><path d="M212.447 221.686a1.379 1.379 0 0 1-1.377-1.377v-17.392c0-.761.616-1.379 1.377-1.379h18.336a1.377 1.377 0 0 1 1.377 1.379v17.392a1.376 1.376 0 0 1-1.377 1.377h-18.336zm17.714-1.999v-16.149h-17.09v16.149h17.09z"/><path d="M216.718 217.415a2.506 2.506 0 0 1-2.507-2.506v-9.293a2.508 2.508 0 0 1 2.507-2.509l9.794.002a2.51 2.51 0 0 1 2.507 2.507v9.293a2.508 2.508 0 0 1-2.507 2.508l-9.794-.002zm-.508-11.799v9.293c.002.28.227.506.508.506l9.794.002a.51.51 0 0 0 .508-.508v-9.293a.507.507 0 0 0-.508-.507l-9.794-.002a.51.51 0 0 0-.508.509z"/></g><g fill="#F4F4F4"><path d="M232.396 221.686a1.379 1.379 0 0 1-1.377-1.377v-17.392c0-.761.616-1.379 1.377-1.379h18.337a1.38 1.38 0 0 1 1.377 1.379v17.392a1.379 1.379 0 0 1-1.377 1.377h-18.337zm17.712-1.999v-16.149H233.02v16.149h17.088z"/><path d="M236.667 217.415a2.505 2.505 0 0 1-2.506-2.506v-9.293a2.51 2.51 0 0 1 2.506-2.509l9.795.002a2.504 2.504 0 0 1 2.506 2.507v9.293a2.509 2.509 0 0 1-2.506 2.508l-9.795-.002zm-.506-11.799v9.293c0 .28.227.506.506.506l9.795.002a.512.512 0 0 0 .508-.508v-9.293a.508.508 0 0 0-.508-.507l-9.795-.002a.507.507 0 0 0-.506.509z"/></g><g fill="#F4F4F4"><path d="M252.346 221.685a1.377 1.377 0 0 1-1.377-1.375l.002-17.394c0-.757.612-1.377 1.375-1.379l18.334.002c.763 0 1.377.62 1.377 1.377v17.394a1.38 1.38 0 0 1-1.377 1.377l-18.334-.002zm17.713-1.999v-16.147h-17.088v16.147h17.088z"/><path d="M256.615 217.416a2.505 2.505 0 0 1-2.504-2.509v-9.292a2.506 2.506 0 0 1 2.504-2.507h9.797a2.506 2.506 0 0 1 2.506 2.507v9.292a2.507 2.507 0 0 1-2.506 2.509h-9.797zm-.506-11.801v9.292a.51.51 0 0 0 .506.509h9.797a.507.507 0 0 0 .506-.509v-9.292a.505.505 0 0 0-.506-.507h-9.797a.507.507 0 0 0-.506.507z"/></g><g fill="#F4F4F4"><path d="M272.294 221.686a1.378 1.378 0 0 1-1.377-1.377l.002-17.392c0-.761.612-1.377 1.375-1.379h18.336a1.378 1.378 0 0 1 1.377 1.379v17.392a1.378 1.378 0 0 1-1.377 1.377h-18.336zm17.715-1.999v-16.149h-17.09v16.149h17.09z"/><path d="M276.564 217.416a2.507 2.507 0 0 1-2.507-2.509v-9.292a2.508 2.508 0 0 1 2.507-2.507h9.797a2.506 2.506 0 0 1 2.506 2.507v9.292a2.505 2.505 0 0 1-2.506 2.509h-9.797zm-.506-11.801v9.292c0 .281.227.509.506.509h9.797a.51.51 0 0 0 .508-.509v-9.292a.509.509 0 0 0-.508-.507h-9.797a.506.506 0 0 0-.506.507z"/></g><g fill="#F4F4F4"><path d="M292.246 221.686a1.38 1.38 0 0 1-1.379-1.377l.002-17.392c0-.761.614-1.379 1.377-1.379h18.334a1.38 1.38 0 0 1 1.377 1.379v17.392h-.002c0 .761-.612 1.375-1.375 1.377h-18.334zm17.709-1.999.002-16.149h-17.089v16.149h17.087z"/><path d="M296.515 217.415a2.506 2.506 0 0 1-2.507-2.506v-9.293a2.508 2.508 0 0 1 2.507-2.509l9.797.002a2.505 2.505 0 0 1 2.506 2.507v9.293a2.509 2.509 0 0 1-2.506 2.508l-9.797-.002zm-.509-11.799v9.293c.002.28.229.506.508.506l9.797.002a.51.51 0 0 0 .506-.508v-9.293a.507.507 0 0 0-.506-.507l-9.797-.002a.51.51 0 0 0-.508.509z"/></g><g fill="#F4F4F4"><path d="M312.195 221.685a1.376 1.376 0 0 1-1.379-1.375v-17.394a1.382 1.382 0 0 1 1.379-1.379l18.335.002c.761 0 1.375.616 1.377 1.377v17.394h-.002c0 .761-.614 1.375-1.375 1.377l-18.335-.002zm17.71-1.999.002-16.147h-17.09l-.002 16.147h17.09z"/><path d="M316.463 217.415a2.506 2.506 0 0 1-2.506-2.506v-9.293a2.512 2.512 0 0 1 2.506-2.509l9.797.002a2.506 2.506 0 0 1 2.507 2.507v9.293a2.51 2.51 0 0 1-2.507 2.508l-9.797-.002zm-.506-11.799v9.293c0 .28.226.506.506.506l9.797.002a.512.512 0 0 0 .507-.508v-9.293a.507.507 0 0 0-.507-.507l-9.797-.002a.507.507 0 0 0-.506.509z"/></g><g fill="#F4F4F4"><path d="M332.143 221.685a1.376 1.376 0 0 1-1.376-1.376v-17.393a1.378 1.378 0 0 1 1.376-1.378h18.336a1.38 1.38 0 0 1 1.378 1.378v17.393h-.002a1.373 1.373 0 0 1-1.376 1.376h-18.336zm17.712-1.999v-16.148h-17.088l-.002 16.148h17.09z"/><path d="M336.413 217.416a2.506 2.506 0 0 1-2.507-2.507v-9.294a2.506 2.506 0 0 1 2.507-2.507h9.795a2.506 2.506 0 0 1 2.507 2.507v9.294a2.506 2.506 0 0 1-2.507 2.507h-9.795zm-.509-11.801v9.294a.51.51 0 0 0 .509.507h9.795a.507.507 0 0 0 .507-.507v-9.294a.506.506 0 0 0-.507-.507h-9.795a.51.51 0 0 0-.509.507z"/></g><g fill="#F4F4F4"><path d="M352.092 221.686a1.379 1.379 0 0 1-1.377-1.376v-17.393a1.382 1.382 0 0 1 1.377-1.379h18.335a1.382 1.382 0 0 1 1.379 1.379v17.393h-.002c0 .762-.616 1.376-1.377 1.376h-18.335zm17.713-2V203.54l-17.089-.002-.002 16.148h17.091z"/><path d="M356.362 217.416a2.505 2.505 0 0 1-2.506-2.508v-9.293a2.506 2.506 0 0 1 2.506-2.507h9.797a2.51 2.51 0 0 1 2.506 2.507v9.293a2.508 2.508 0 0 1-2.506 2.508h-9.797zm-.508-11.801v9.293a.51.51 0 0 0 .508.508h9.797a.507.507 0 0 0 .506-.508v-9.293a.503.503 0 0 0-.506-.506l-9.797-.002a.51.51 0 0 0-.508.508z"/></g><g fill="#F4F4F4"><path d="M372.042 221.686a1.38 1.38 0 0 1-1.379-1.376l.003-17.394c0-.761.615-1.376 1.376-1.376h18.337c.764 0 1.374.619 1.374 1.376v17.394c0 .757-.61 1.376-1.374 1.376h-18.337zm17.711-2 .002-16.148h-17.092v16.148h17.09z"/><path d="M376.312 217.415a2.506 2.506 0 0 1-2.507-2.507v-9.292a2.507 2.507 0 0 1 2.507-2.508h9.797a2.506 2.506 0 0 1 2.506 2.508v9.292a2.51 2.51 0 0 1-2.506 2.509l-9.797-.002zm-.508-11.799v9.292a.51.51 0 0 0 .508.508h9.797a.51.51 0 0 0 .507-.508v-9.292a.508.508 0 0 0-.507-.507l-9.797-.002a.512.512 0 0 0-.508.509z"/></g><g fill="#F4F4F4"><path d="M391.991 221.686a1.376 1.376 0 0 1-1.377-1.376v-17.394c0-.76.612-1.377 1.377-1.377h18.336c.761 0 1.375.617 1.377 1.377v17.394h-.002c0 .761-.614 1.374-1.375 1.376h-18.336zm17.711-1.999.002-16.149h-17.09v16.149h17.088z"/><path d="M396.262 217.416a2.508 2.508 0 0 1-2.506-2.507v-9.293a2.51 2.51 0 0 1 2.506-2.509l9.796.002a2.506 2.506 0 0 1 2.506 2.507v9.293a2.507 2.507 0 0 1-2.506 2.507h-9.796zm-.508-11.8v9.293a.508.508 0 0 0 .508.507h9.796a.509.509 0 0 0 .506-.507v-9.293a.506.506 0 0 0-.506-.507l-9.796-.002a.509.509 0 0 0-.508.509z"/></g><g fill="#F4F4F4"><path d="M148.229 241.729c-.76 0-1.376-.613-1.376-1.376V222.96c0-.763.616-1.378 1.376-1.378h18.336c.758 0 1.374.611 1.376 1.378v17.393a1.376 1.376 0 0 1-1.376 1.376h-18.336zm17.712-2v-16.147h-17.088v16.147h17.088z"/><path d="M152.499 237.459a2.505 2.505 0 0 1-2.506-2.506v-9.293a2.507 2.507 0 0 1 2.506-2.509h9.796a2.506 2.506 0 0 1 2.506 2.509v9.293a2.508 2.508 0 0 1-2.506 2.508l-9.796-.002zm-.507-11.799v9.293a.51.51 0 0 0 .507.507h9.796c.28 0 .507-.228.507-.507v-9.293a.507.507 0 0 0-.507-.507l-9.796-.003a.513.513 0 0 0-.507.51z"/></g><g fill="#F4F4F4"><path d="M168.179 241.728a1.376 1.376 0 0 1-1.378-1.374l.002-17.395c0-.765.62-1.376 1.376-1.378l18.335.002c.758 0 1.376.618 1.378 1.376v17.395h-.002c0 .759-.618 1.374-1.376 1.374h-18.335zm17.711-2v-16.145l-17.088-.002-.002 16.146h17.09v.001z"/><path d="M172.449 237.459a2.506 2.506 0 0 1-2.507-2.506v-9.293a2.507 2.507 0 0 1 2.507-2.509h9.795a2.507 2.507 0 0 1 2.507 2.509v9.293a2.509 2.509 0 0 1-2.507 2.508l-9.795-.002zm-.508-11.799v9.293c.002.279.23.507.508.507h9.795a.511.511 0 0 0 .508-.507v-9.293a.51.51 0 0 0-.508-.507l-9.795-.003a.514.514 0 0 0-.508.51z"/></g><g fill="#F4F4F4"><path d="M188.128 241.728a1.38 1.38 0 0 1-1.378-1.374l.002-17.395c0-.758.618-1.376 1.376-1.378l18.336.002a1.38 1.38 0 0 1 1.376 1.376v17.395c0 .763-.62 1.374-1.376 1.374h-18.336zm17.712-2v-16.145l-17.088-.002-.002 16.146h17.09v.001z"/><path d="M192.399 237.459a2.506 2.506 0 0 1-2.508-2.506v-9.293a2.508 2.508 0 0 1 2.508-2.509h9.796a2.506 2.506 0 0 1 2.504 2.509v9.293a2.508 2.508 0 0 1-2.504 2.508l-9.796-.002zm-.507-11.799v9.293c0 .279.228.507.507.507h9.796a.509.509 0 0 0 .505-.507v-9.293a.508.508 0 0 0-.505-.507l-9.796-.003a.512.512 0 0 0-.507.51z"/></g><g fill="#F4F4F4"><path d="M208.078 241.729a1.377 1.377 0 0 1-1.376-1.376V222.96a1.38 1.38 0 0 1 1.376-1.378h18.335a1.378 1.378 0 0 1 1.376 1.378v17.393c0 .763-.62 1.374-1.376 1.376h-18.335zm17.711-2v-16.147h-17.087v16.147h17.087z"/><path d="M212.346 237.46a2.51 2.51 0 0 1-2.507-2.508v-9.293a2.507 2.507 0 0 1 2.507-2.506h9.798a2.505 2.505 0 0 1 2.506 2.506v9.293a2.508 2.508 0 0 1-2.506 2.508h-9.798zm-.506-11.801v9.293c0 .279.23.507.506.509h9.798a.513.513 0 0 0 .507-.509v-9.293a.512.512 0 0 0-.507-.508h-9.798a.51.51 0 0 0-.506.508z"/></g><g fill="#F4F4F4"><path d="M228.025 241.729a1.377 1.377 0 0 1-1.376-1.376V222.96c0-.763.618-1.378 1.376-1.378h18.338a1.38 1.38 0 0 1 1.376 1.378v17.393a1.38 1.38 0 0 1-1.376 1.376h-18.338zm17.714-2v-16.147h-17.09v16.147h17.09z"/><path d="M232.297 237.459a2.505 2.505 0 0 1-2.506-2.506v-9.293a2.507 2.507 0 0 1 2.506-2.509h9.796a2.506 2.506 0 0 1 2.506 2.509v9.293a2.508 2.508 0 0 1-2.506 2.508l-9.796-.002zm-.507-11.799v9.293c0 .279.228.507.507.507h9.796a.512.512 0 0 0 .508-.507v-9.293a.51.51 0 0 0-.508-.507l-9.796-.003a.512.512 0 0 0-.507.51z"/></g><g fill="#F4F4F4"><path d="M247.976 241.729a1.378 1.378 0 0 1-1.376-1.376V222.96c0-.763.62-1.376 1.376-1.378h18.337c.759.002 1.374.62 1.376 1.378v17.393h-.002c0 .759-.615 1.374-1.374 1.376h-18.337zm17.711-2 .002-16.147h-17.09v16.147h17.088z"/><path d="M252.245 237.459a2.505 2.505 0 0 1-2.506-2.506v-9.293a2.507 2.507 0 0 1 2.506-2.509h9.796a2.506 2.506 0 0 1 2.506 2.509v9.293a2.508 2.508 0 0 1-2.506 2.508l-9.796-.002zm-.508-11.799v9.293c.002.279.23.507.508.507h9.796a.508.508 0 0 0 .507-.507v-9.293a.507.507 0 0 0-.507-.507l-9.796-.003a.515.515 0 0 0-.508.51z"/></g><g fill="#F4F4F4"><path d="M267.925 241.729a1.38 1.38 0 0 1-1.378-1.376l.002-17.393c0-.763.618-1.376 1.376-1.378h18.336c.76.002 1.374.62 1.376 1.378v17.393a1.38 1.38 0 0 1-1.376 1.376h-18.336zm17.712-2v-16.147h-17.088l-.002 16.147h17.09z"/><path d="M272.195 237.459a2.506 2.506 0 0 1-2.506-2.506v-9.293a2.508 2.508 0 0 1 2.506-2.509h9.796a2.507 2.507 0 0 1 2.507 2.509v9.293a2.509 2.509 0 0 1-2.507 2.508l-9.796-.002zm-.506-11.799v9.293c0 .279.228.507.505.507h9.796a.512.512 0 0 0 .508-.507v-9.293a.51.51 0 0 0-.508-.507l-9.796-.003a.511.511 0 0 0-.505.51z"/></g><g fill="#F4F4F4"><path d="M287.874 241.729a1.376 1.376 0 0 1-1.376-1.376V222.96c0-.763.618-1.378 1.376-1.378h18.335a1.38 1.38 0 0 1 1.378 1.378v17.393a1.376 1.376 0 0 1-1.378 1.376h-18.335zm17.713-2v-16.147h-17.09v16.147h17.09z"/><path d="M292.145 237.459a2.508 2.508 0 0 1-2.508-2.506v-9.293a2.51 2.51 0 0 1 2.508-2.509h9.795a2.507 2.507 0 0 1 2.507 2.509v9.293a2.509 2.509 0 0 1-2.507 2.508l-9.795-.002zm-.507-11.799v9.293a.51.51 0 0 0 .507.507h9.795a.512.512 0 0 0 .508-.507v-9.293a.51.51 0 0 0-.508-.507l-9.795-.003a.512.512 0 0 0-.507.51z"/></g><g fill="#F4F4F4"><path d="M307.823 241.729a1.383 1.383 0 0 1-1.378-1.376l.002-17.393c0-.76.617-1.376 1.376-1.378h18.335c.761.002 1.374.62 1.377 1.378v17.393a1.38 1.38 0 0 1-1.377 1.376h-18.335zm17.712-2v-16.147h-17.088l-.002 16.147h17.09z"/><path d="M312.095 237.459a2.506 2.506 0 0 1-2.509-2.506v-9.293a2.507 2.507 0 0 1 2.509-2.509h9.794a2.507 2.507 0 0 1 2.507 2.509v9.293a2.509 2.509 0 0 1-2.507 2.508l-9.794-.002zm-.51-11.799v9.293a.51.51 0 0 0 .51.507h9.794a.51.51 0 0 0 .508-.507v-9.293a.51.51 0 0 0-.508-.507l-9.794-.003a.513.513 0 0 0-.51.51z"/></g><g fill="#F4F4F4"><path d="M327.774 241.728a1.38 1.38 0 0 1-1.381-1.374l.002-17.395c0-.767.622-1.376 1.379-1.378l18.335.002c.759 0 1.374.615 1.376 1.376v17.395h-.002c0 .761-.615 1.374-1.374 1.374h-18.335zm17.709-2 .002-16.145-17.09-.002-.002 16.146h17.09v.001z"/><path d="M332.043 237.459a2.507 2.507 0 0 1-2.507-2.506v-9.293a2.508 2.508 0 0 1 2.507-2.509h9.796a2.506 2.506 0 0 1 2.506 2.509v9.293a2.508 2.508 0 0 1-2.506 2.508l-9.796-.002zm-.508-11.799v9.293a.51.51 0 0 0 .508.507h9.796a.51.51 0 0 0 .507-.507v-9.293a.509.509 0 0 0-.507-.507l-9.796-.003a.513.513 0 0 0-.508.51z"/></g><g fill="#F4F4F4"><path d="M347.723 241.729a1.377 1.377 0 0 1-1.378-1.374V222.96a1.378 1.378 0 0 1 1.378-1.376h18.336c.758 0 1.374.613 1.376 1.376v17.395h-.002c0 .761-.616 1.374-1.374 1.374h-18.336zm17.71-2 .001-16.146h-17.089v16.146h17.088z"/><path d="M351.993 237.458a2.504 2.504 0 0 1-2.508-2.505v-9.294a2.508 2.508 0 0 1 2.508-2.509l9.795.002a2.506 2.506 0 0 1 2.507 2.507v9.294a2.509 2.509 0 0 1-2.507 2.508l-9.795-.003zm-.51-11.799v9.294a.511.511 0 0 0 .51.506l9.795.002a.513.513 0 0 0 .508-.508v-9.294a.51.51 0 0 0-.508-.507l-9.795-.003a.516.516 0 0 0-.51.51z"/></g><g fill="#F4F4F4"><path d="M367.577 241.728a1.376 1.376 0 0 1-1.378-1.374l.002-17.395c0-.762.615-1.377 1.376-1.377h18.335a1.38 1.38 0 0 1 1.378 1.377v17.395h-.002c0 .763-.619 1.374-1.376 1.374h-18.335zm17.712-1.999v-16.147H368.2v16.147h17.089z"/><path d="M371.847 237.459a2.506 2.506 0 0 1-2.507-2.506v-9.293a2.509 2.509 0 0 1 2.507-2.509h9.798a2.51 2.51 0 0 1 2.505 2.509v9.293a2.506 2.506 0 0 1-2.505 2.506h-9.798zm-.507-11.799v9.293c0 .279.229.507.507.507h9.798a.509.509 0 0 0 .505-.507v-9.293a.51.51 0 0 0-.505-.509h-9.798a.51.51 0 0 0-.507.509z"/></g><g fill="#F4F4F4"><path d="M387.527 241.728c-.76 0-1.375-.615-1.377-1.375V222.96a1.383 1.383 0 0 1 1.377-1.379l18.334.002c.756 0 1.377.614 1.379 1.377v17.393h-.002a1.38 1.38 0 0 1-1.377 1.377l-18.334-.002zm17.711-1.999v-16.146l-17.088-.002v16.146l17.088.002z"/><path d="M391.797 237.46a2.506 2.506 0 0 1-2.507-2.507v-9.293a2.507 2.507 0 0 1 2.507-2.509h9.797a2.508 2.508 0 0 1 2.505 2.509v9.293a2.507 2.507 0 0 1-2.505 2.507h-9.797zm-.508-11.8v9.293a.51.51 0 0 0 .508.506l9.797.002a.512.512 0 0 0 .506-.508v-9.293a.508.508 0 0 0-.506-.508l-9.797-.002a.513.513 0 0 0-.508.51z"/></g><g fill="#F4F4F4"><path d="M407.477 241.728a1.376 1.376 0 0 1-1.378-1.376v-17.393a1.378 1.378 0 0 1 1.378-1.376h18.337c.758 0 1.371.612 1.376 1.376v17.393h-.003a1.373 1.373 0 0 1-1.373 1.376h-18.337zm17.71-1.999.002-16.147h-17.09v16.147h17.088z"/><path d="M411.747 237.459a2.506 2.506 0 0 1-2.508-2.507v-9.292a2.506 2.506 0 0 1 2.508-2.509h9.793a2.51 2.51 0 0 1 2.509 2.509v9.292a2.512 2.512 0 0 1-2.509 2.509l-9.793-.002zm-.509-11.799v9.292c0 .28.228.508.509.508h9.793c.28 0 .508-.229.51-.508v-9.292a.513.513 0 0 0-.51-.509h-9.793a.51.51 0 0 0-.509.509z"/></g><g fill="#F4F4F4"><path d="M427.426 241.729a1.378 1.378 0 0 1-1.378-1.375v-17.395a1.38 1.38 0 0 1 1.378-1.377h18.336a1.38 1.38 0 0 1 1.377 1.377v17.395h-.002c0 .762-.619 1.373-1.375 1.375h-18.336zm17.712-2v-16.147h-17.089l-.002 16.147h17.091z"/><path d="M431.695 237.459a2.505 2.505 0 0 1-2.506-2.506v-9.294a2.508 2.508 0 0 1 2.506-2.509l9.796.003a2.505 2.505 0 0 1 2.506 2.506v9.294a2.509 2.509 0 0 1-2.506 2.508l-9.796-.002zm-.507-11.8v9.294a.51.51 0 0 0 .508.506l9.796.002a.512.512 0 0 0 .506-.508v-9.294a.51.51 0 0 0-.506-.509h-9.796a.51.51 0 0 0-.508.509z"/></g><g fill="#F4F4F4"><path d="M447.375 241.729a1.38 1.38 0 0 1-1.378-1.376V222.96a1.383 1.383 0 0 1 1.378-1.378h18.334c.76.002 1.375.619 1.377 1.378v17.393a1.38 1.38 0 0 1-1.377 1.376h-18.334zm17.711-2v-16.148h-17.088l-.002 16.148h17.09z"/><path d="M451.644 237.46a2.506 2.506 0 0 1-2.505-2.508v-9.293a2.506 2.506 0 0 1 2.505-2.508h9.798a2.506 2.506 0 0 1 2.506 2.508v9.293a2.506 2.506 0 0 1-2.506 2.508h-9.798zm-.506-11.801v9.293c0 .281.229.508.506.508h9.798a.51.51 0 0 0 .507-.508v-9.293a.514.514 0 0 0-.507-.51h-9.798a.512.512 0 0 0-.506.51z"/></g><g fill="#F4F4F4"><path d="M148.229 261.771a1.375 1.375 0 0 1-1.377-1.373l.002-17.395c0-.763.619-1.374 1.375-1.376h27.378a1.384 1.384 0 0 1 1.377 1.376v17.395h-.002c0 .759-.615 1.373-1.375 1.373h-27.378zm26.755-1.999v-16.146h-26.131v16.146h26.131z"/><path d="M152.499 257.502a2.508 2.508 0 0 1-2.508-2.506l.002-9.293a2.507 2.507 0 0 1 2.506-2.508h18.838a2.508 2.508 0 0 1 2.508 2.508v9.293h-.002a2.508 2.508 0 0 1-2.506 2.508l-18.838-.002zm-.507-11.799v9.293c0 .278.229.506.507.506l18.838.003a.513.513 0 0 0 .508-.509h-.002l.002-9.293a.507.507 0 0 0-.508-.506l-18.838-.003a.51.51 0 0 0-.507.509z"/></g><g fill="#F4F4F4"><path d="M177.222 261.771c-.76 0-1.375-.606-1.379-1.373l.002-17.395c0-.767.623-1.374 1.377-1.376h18.336a1.376 1.376 0 0 1 1.375 1.376v17.395a1.373 1.373 0 0 1-1.375 1.373h-18.336zm17.713-1.999v-16.146h-17.092v16.146h17.092z"/><path d="M181.493 257.502a2.505 2.505 0 0 1-2.508-2.506v-9.293a2.508 2.508 0 0 1 2.508-2.508h9.792a2.51 2.51 0 0 1 2.508 2.508v9.293a2.508 2.508 0 0 1-2.508 2.508l-9.792-.002zm-.509-11.799v9.293c0 .278.227.506.509.506l9.792.003a.512.512 0 0 0 .509-.509v-9.293a.505.505 0 0 0-.509-.506l-9.792-.003a.51.51 0 0 0-.509.509z"/></g><g fill="#F4F4F4"><path d="M197.17 261.771a1.374 1.374 0 0 1-1.377-1.373v-17.395a1.384 1.384 0 0 1 1.377-1.376h18.336a1.38 1.38 0 0 1 1.375 1.376v17.395c0 .759-.613 1.373-1.375 1.373H197.17zm17.711-1.999.002-16.146h-17.09v16.146h17.088z"/><path d="M201.44 257.503a2.508 2.508 0 0 1-2.508-2.506l.002-9.295a2.505 2.505 0 0 1 2.506-2.506h9.797a2.507 2.507 0 0 1 2.506 2.506v9.295a2.507 2.507 0 0 1-2.506 2.506h-9.797zm-.506-11.801v9.295c0 .278.227.506.507.506h9.797a.51.51 0 0 0 .506-.506h-.002l.002-9.295a.51.51 0 0 0-.506-.507h-9.797a.506.506 0 0 0-.507.507z"/></g><g fill="#F4F4F4"><path d="M217.12 261.772a1.375 1.375 0 0 1-1.377-1.376v-17.393a1.382 1.382 0 0 1 1.377-1.378l18.336.002c.754 0 1.374.615 1.375 1.376v17.393c0 .759-.613 1.376-1.375 1.376H217.12zm17.711-1.999v-16.146h-17.087v16.145l17.087.001z"/><path d="M221.39 257.502a2.508 2.508 0 0 1-2.508-2.506v-9.293a2.507 2.507 0 0 1 2.508-2.508h9.794a2.512 2.512 0 0 1 2.508 2.508v9.293h-.002a2.508 2.508 0 0 1-2.506 2.508l-9.794-.002zm-.507-11.799-.002 9.293a.51.51 0 0 0 .509.506l9.794.003a.51.51 0 0 0 .507-.509v-9.293a.503.503 0 0 0-.507-.506l-9.794-.003a.51.51 0 0 0-.507.509z"/></g><g fill="#F4F4F4"><path d="M237.068 261.772c-.76 0-1.375-.617-1.377-1.376l.002-17.393c0-.761.621-1.376 1.375-1.378l18.336.002c.754 0 1.375.611 1.375 1.376v17.393a1.374 1.374 0 0 1-1.375 1.376h-18.336zm17.713-1.999v-16.146h-17.09v16.145l17.09.001z"/><path d="M241.338 257.502a2.505 2.505 0 0 1-2.506-2.506v-9.293a2.505 2.505 0 0 1 2.506-2.508h9.797a2.506 2.506 0 0 1 2.506 2.508v9.293a2.51 2.51 0 0 1-2.506 2.508l-9.797-.002zm-.506-11.799v9.293c0 .278.226.506.506.506l9.797.003a.514.514 0 0 0 .507-.509h-.002l.002-9.293a.507.507 0 0 0-.507-.506l-9.797-.003a.509.509 0 0 0-.506.509z"/></g><g fill="#F4F4F4"><path d="M257.018 261.771c-.761 0-1.375-.61-1.377-1.373v-17.395a1.381 1.381 0 0 1 1.377-1.376h18.336a1.377 1.377 0 0 1 1.375 1.376v17.395a1.372 1.372 0 0 1-1.375 1.373h-18.336zm17.711-1.999.002-16.146h-17.09v16.146h17.088z"/><path d="M261.29 257.502a2.506 2.506 0 0 1-2.509-2.506v-9.293a2.508 2.508 0 0 1 2.509-2.508h9.794a2.509 2.509 0 0 1 2.506 2.508v9.293a2.508 2.508 0 0 1-2.506 2.508l-9.794-.002zm-.509-11.799v9.293c0 .278.228.506.509.506l9.794.003a.513.513 0 0 0 .507-.509v-9.293a.505.505 0 0 0-.507-.506l-9.794-.003a.51.51 0 0 0-.509.509z"/></g><g fill="#F4F4F4"><path d="M276.969 261.771c-.763 0-1.375-.61-1.377-1.373v-17.395c0-.763.621-1.374 1.377-1.376h18.334a1.381 1.381 0 0 1 1.377 1.376v17.395a1.374 1.374 0 0 1-1.377 1.373h-18.334zm17.711-1.999v-16.146h-17.09v16.146h17.09z"/><path d="M281.238 257.502a2.503 2.503 0 0 1-2.506-2.506v-9.293a2.507 2.507 0 0 1 2.506-2.508h9.795a2.507 2.507 0 0 1 2.508 2.508v9.293a2.511 2.511 0 0 1-2.508 2.508l-9.795-.002zm-.507-11.799v9.293c0 .28.226.506.506.506l9.795.003a.514.514 0 0 0 .509-.509h-.002l.002-9.293a.507.507 0 0 0-.509-.506l-9.795-.003a.51.51 0 0 0-.506.509z"/></g><g fill="#F4F4F4"><path d="M296.917 261.771c-.762 0-1.375-.61-1.377-1.373v-17.395a1.382 1.382 0 0 1 1.377-1.376h18.336a1.38 1.38 0 0 1 1.376 1.376v17.395a1.373 1.373 0 0 1-1.376 1.373h-18.336zm17.711-1.999.002-16.146h-17.089v16.146h17.087z"/><path d="M301.186 257.503a2.507 2.507 0 0 1-2.506-2.506l.002-9.295a2.505 2.505 0 0 1 2.504-2.506h9.797a2.505 2.505 0 0 1 2.506 2.506v9.295a2.506 2.506 0 0 1-2.506 2.506h-9.797zm-.505-11.801-.002 9.295a.51.51 0 0 0 .507.506h9.797a.509.509 0 0 0 .507-.506v-9.295a.506.506 0 0 0-.507-.507h-9.797a.506.506 0 0 0-.505.507z"/></g><g fill="#F4F4F4"><path d="M316.866 261.772a1.377 1.377 0 0 1-1.379-1.376l.002-17.393a1.38 1.38 0 0 1 1.377-1.378l18.335.002c.754 0 1.375.611 1.377 1.376v17.393h-.002a1.374 1.374 0 0 1-1.375 1.376h-18.335zm17.711-1.999v-16.146h-17.088l-.002 16.145 17.09.001z"/><path d="M321.137 257.502a2.508 2.508 0 0 1-2.51-2.506l.002-9.293a2.507 2.507 0 0 1 2.508-2.508h9.795a2.507 2.507 0 0 1 2.507 2.508v9.293a2.51 2.51 0 0 1-2.507 2.508l-9.795-.002zm-.509-11.799v9.293a.51.51 0 0 0 .509.506l9.795.003a.513.513 0 0 0 .507-.509v-9.293a.506.506 0 0 0-.507-.506l-9.795-.003a.51.51 0 0 0-.509.509z"/></g><g fill="#F4F4F4"><path d="M336.815 261.772a1.378 1.378 0 0 1-1.378-1.376v-17.393a1.383 1.383 0 0 1 1.378-1.378l18.336.002a1.38 1.38 0 0 1 1.375 1.376v17.393c0 .759-.614 1.376-1.375 1.376h-18.336zm17.711-1.999v-16.146h-17.088l-.002 16.145 17.09.001z"/><path d="M341.086 257.502a2.509 2.509 0 0 1-2.509-2.506l.002-9.293a2.51 2.51 0 0 1 2.507-2.508h9.795a2.508 2.508 0 0 1 2.508 2.508v9.293h-.002a2.508 2.508 0 0 1-2.506 2.508l-9.795-.002zm-.507-11.799-.002 9.293c.002.28.227.506.509.506l9.795.003a.517.517 0 0 0 .509-.509h-.003l.003-9.293a.509.509 0 0 0-.509-.506l-9.795-.003a.508.508 0 0 0-.507.509z"/></g><g fill="#F4F4F4"><path d="M356.764 261.772a1.375 1.375 0 0 1-1.376-1.376v-17.393a1.38 1.38 0 0 1 1.376-1.378l18.338.002c.757 0 1.371.617 1.374 1.376v17.393a1.377 1.377 0 0 1-1.374 1.376h-18.338zm17.711-1.999.002-16.146h-17.088l-.002 16.145 17.088.001z"/><path d="M361.034 257.502a2.506 2.506 0 0 1-2.508-2.506l.002-9.293a2.506 2.506 0 0 1 2.506-2.508h9.797a2.507 2.507 0 0 1 2.507 2.508v9.293a2.509 2.509 0 0 1-2.507 2.508l-9.797-.002zm-.507-11.799v9.293c0 .278.229.506.507.506l9.797.003a.514.514 0 0 0 .507-.509h-.002l.002-9.293a.507.507 0 0 0-.507-.506l-9.797-.003a.512.512 0 0 0-.507.509z"/></g><g fill="#F4F4F4"><path d="M376.619 261.772a1.375 1.375 0 0 1-1.377-1.375l.002-17.396c0-.759.62-1.372 1.375-1.375h18.337a1.38 1.38 0 0 1 1.377 1.375v17.396h-.002a1.375 1.375 0 0 1-1.375 1.375h-18.337zm17.713-1.999v-16.147h-17.089v16.147h17.089z"/><path d="M380.891 257.502a2.505 2.505 0 0 1-2.508-2.506v-9.293a2.511 2.511 0 0 1 2.508-2.508h9.797a2.507 2.507 0 0 1 2.505 2.508v9.293h-.002a2.506 2.506 0 0 1-2.503 2.508l-9.797-.002zm-.507-11.799-.002 9.293a.509.509 0 0 0 .509.506l9.797.002a.512.512 0 0 0 .505-.508h-.002l.002-9.293a.508.508 0 0 0-.505-.507l-9.797-.002a.507.507 0 0 0-.507.509z"/></g><g fill="#F4F4F4"><path d="M396.568 261.771a1.373 1.373 0 0 1-1.376-1.374v-17.396a1.383 1.383 0 0 1 1.376-1.376l18.336.002c.75 0 1.376.611 1.378 1.374v17.396h-.002c0 .763-.617 1.374-1.376 1.376l-18.336-.002zm17.712-1.998.002-16.146-17.09-.002v16.146l17.088.002z"/><path d="M400.84 257.502a2.505 2.505 0 0 1-2.508-2.505v-9.295a2.508 2.508 0 0 1 2.508-2.508h9.795a2.51 2.51 0 0 1 2.507 2.508v9.295h-.002a2.506 2.506 0 0 1-2.505 2.507l-9.795-.002zm-.507-11.8-.002 9.295a.511.511 0 0 0 .509.506h9.795a.507.507 0 0 0 .506-.506v-9.295a.505.505 0 0 0-.506-.506h-9.795a.505.505 0 0 0-.507.506z"/></g><g fill="#F4F4F4"><path d="M416.519 261.772a1.376 1.376 0 0 1-1.378-1.375v-17.395a1.382 1.382 0 0 1 1.378-1.376h18.335a1.381 1.381 0 0 1 1.377 1.376v17.395h-.002a1.374 1.374 0 0 1-1.375 1.375h-18.335zm17.71-2 .002-16.146h-17.09v16.146h17.088z"/><path d="M420.788 257.502a2.505 2.505 0 0 1-2.508-2.505v-9.294a2.508 2.508 0 0 1 2.508-2.508h9.795a2.511 2.511 0 0 1 2.51 2.508v9.294h-.003a2.508 2.508 0 0 1-2.507 2.507l-9.795-.002zm-.508-11.799v9.294c0 .277.228.505.508.505l9.795.003a.512.512 0 0 0 .508-.508v-9.294a.506.506 0 0 0-.508-.508h-9.795a.506.506 0 0 0-.508.508z"/></g><g fill="#F4F4F4"><path d="M436.467 261.772a1.379 1.379 0 0 1-1.378-1.376l.002-17.393c0-.765.622-1.375 1.376-1.377h18.336a1.382 1.382 0 0 1 1.378 1.377v17.393h-.002a1.375 1.375 0 0 1-1.376 1.376h-18.336zm17.713-1.998v-16.148h-17.09v16.148h17.09z"/><path d="M440.738 257.503a2.508 2.508 0 0 1-2.509-2.507l.002-9.293a2.511 2.511 0 0 1 2.507-2.509l9.794.002a2.509 2.509 0 0 1 2.509 2.507v9.293h-.002a2.506 2.506 0 0 1-2.507 2.507h-9.794zm-.507-11.8-.002 9.293a.51.51 0 0 0 .509.507h9.794c.28 0 .507-.229.509-.507h-.002l.002-9.293a.51.51 0 0 0-.509-.507l-9.794-.002a.507.507 0 0 0-.507.509z"/></g><g fill="#F4F4F4"><path d="M456.417 261.772a1.376 1.376 0 0 1-1.378-1.375v-17.395a1.38 1.38 0 0 1 1.378-1.376h18.335a1.38 1.38 0 0 1 1.377 1.376v17.395h-.002c0 .758-.613 1.373-1.375 1.375h-18.335zm17.711-1.999v-16.146H457.04l-.002 16.146h17.09z"/><path d="M460.688 257.502a2.508 2.508 0 0 1-2.509-2.504l.002-9.295a2.511 2.511 0 0 1 2.507-2.509l9.796.002a2.505 2.505 0 0 1 2.505 2.507v9.295a2.507 2.507 0 0 1-2.505 2.506l-9.796-.002zm-.508-11.799v9.295c0 .278.227.504.508.504l9.796.002a.511.511 0 0 0 .506-.506h-.002l.002-9.295a.507.507 0 0 0-.506-.508h-9.796a.504.504 0 0 0-.508.508z"/></g><g fill="#F4F4F4"><path d="M142.203 281.816a1.38 1.38 0 0 1-1.379-1.377v-17.394a1.379 1.379 0 0 1 1.379-1.377h18.335c.76.002 1.375.617 1.376 1.377v17.394a1.377 1.377 0 0 1-1.376 1.377h-18.335zm17.71-2v-16.147h-17.089v16.147h17.089z"/><path d="M146.471 277.545a2.508 2.508 0 0 1-2.506-2.506v-9.292c0-1.386 1.12-2.51 2.506-2.51h9.795a2.51 2.51 0 0 1 2.508 2.51v9.292a2.512 2.512 0 0 1-2.508 2.509l-9.795-.003zm-.506-11.798v9.292c0 .281.225.506.506.506l9.795.002a.509.509 0 0 0 .508-.508v-9.292a.51.51 0 0 0-.508-.51h-9.795a.507.507 0 0 0-.506.51z"/></g><g fill="#F4F4F4"><path d="M162.15 281.815c-.76 0-1.375-.617-1.376-1.375v-17.394a1.378 1.378 0 0 1 1.376-1.377h18.337a1.374 1.374 0 0 1 1.374 1.377v17.394c0 .76-.612 1.372-1.374 1.375H162.15zm17.713-1.998v-16.149h-17.089v16.149h17.089z"/><path d="M166.421 277.546a2.507 2.507 0 0 1-2.508-2.506v-9.294a2.508 2.508 0 0 1 2.508-2.508h9.797a2.505 2.505 0 0 1 2.504 2.508v9.294a2.505 2.505 0 0 1-2.504 2.506h-9.797zm-.508-11.8v9.294c0 .279.227.506.508.506h9.797a.51.51 0 0 0 .506-.506v-9.294a.515.515 0 0 0-.506-.51h-9.797a.512.512 0 0 0-.508.51z"/></g><g fill="#F4F4F4"><path d="M182.1 281.815a1.376 1.376 0 0 1-1.377-1.375v-17.394a1.376 1.376 0 0 1 1.377-1.377h18.335c.762 0 1.376.617 1.378 1.377v17.394h-.002c0 .758-.614 1.375-1.376 1.375H182.1zm17.712-1.998v-16.149h-17.087l-.002 16.149h17.089z"/><path d="M186.371 277.545a2.507 2.507 0 0 1-2.508-2.506v-9.292a2.51 2.51 0 0 1 2.508-2.51h9.796a2.507 2.507 0 0 1 2.506 2.51v9.292a2.512 2.512 0 0 1-2.506 2.509l-9.796-.003zm-.508-11.798v9.292c0 .281.227.506.508.506l9.796.002a.507.507 0 0 0 .506-.508v-9.292a.507.507 0 0 0-.506-.51h-9.796a.51.51 0 0 0-.508.51z"/></g><g fill="#F4F4F4"><path d="M202.05 281.815a1.378 1.378 0 0 1-1.378-1.375v-17.394a1.378 1.378 0 0 1 1.378-1.377h18.335c.762.003 1.375.61 1.377 1.377v17.394a1.375 1.375 0 0 1-1.377 1.375H202.05zm17.713-1.998v-16.149h-17.089l-.002 16.149h17.091z"/><path d="M206.32 277.545a2.507 2.507 0 0 1-2.508-2.506v-9.292a2.511 2.511 0 0 1 2.508-2.51h9.795a2.507 2.507 0 0 1 2.506 2.51v9.292a2.512 2.512 0 0 1-2.506 2.509l-9.795-.003zm-.508-11.798v9.292c0 .281.227.506.508.506l9.795.002a.507.507 0 0 0 .506-.508v-9.292a.507.507 0 0 0-.506-.51h-9.795a.51.51 0 0 0-.508.51z"/></g><g fill="#F4F4F4"><path d="M222 281.815a1.378 1.378 0 0 1-1.379-1.375l.002-17.394c0-.763.614-1.377 1.376-1.377h18.335a1.376 1.376 0 0 1 1.376 1.377v17.394a1.377 1.377 0 0 1-1.376 1.375H222zm17.709-1.998.002-16.149h-17.089v16.149h17.087z"/><path d="M226.269 277.545a2.507 2.507 0 0 1-2.508-2.506v-9.292a2.511 2.511 0 0 1 2.508-2.51h9.795a2.508 2.508 0 0 1 2.506 2.51v9.292a2.51 2.51 0 0 1-2.506 2.509l-9.795-.003zm-.508-11.798v9.292c0 .281.227.506.508.506l9.795.002a.508.508 0 0 0 .506-.508v-9.292a.509.509 0 0 0-.506-.51h-9.795a.51.51 0 0 0-.508.51z"/></g><g fill="#F4F4F4"><path d="M241.948 281.815a1.377 1.377 0 0 1-1.378-1.375l.002-17.394c0-.763.614-1.377 1.376-1.377h18.335a1.376 1.376 0 0 1 1.377 1.377v17.394a1.376 1.376 0 0 1-1.377 1.375h-18.335zm17.711-1.998.002-16.149h-17.089v16.149h17.087z"/><path d="M246.217 277.546a2.507 2.507 0 0 1-2.506-2.506v-9.294a2.506 2.506 0 0 1 2.506-2.508h9.798a2.508 2.508 0 0 1 2.506 2.508v9.294a2.508 2.508 0 0 1-2.506 2.506h-9.798zm-.506-11.8v9.294c0 .281.227.506.505.506h9.798a.508.508 0 0 0 .506-.506v-9.294a.513.513 0 0 0-.506-.51h-9.798a.512.512 0 0 0-.505.51z"/></g><g fill="#F4F4F4"><path d="M261.897 281.815a1.376 1.376 0 0 1-1.376-1.375v-17.394a1.378 1.378 0 0 1 1.376-1.377h18.335c.762 0 1.376.614 1.378 1.377v17.394h-.002c0 .76-.614 1.375-1.376 1.375h-18.335zm17.712-1.998v-16.149h-17.087l-.002 16.149h17.089z"/><path d="M266.167 277.545a2.505 2.505 0 0 1-2.506-2.506v-9.292a2.508 2.508 0 0 1 2.506-2.51h9.796a2.507 2.507 0 0 1 2.506 2.51v9.292a2.512 2.512 0 0 1-2.506 2.509l-9.796-.003zm-.506-11.798v9.292c0 .281.227.506.506.506l9.796.002a.506.506 0 0 0 .505-.508v-9.292a.507.507 0 0 0-.505-.51h-9.796a.509.509 0 0 0-.506.51z"/></g><g fill="#F4F4F4"><path d="M281.847 281.816a1.377 1.377 0 0 1-1.378-1.377v-17.394a1.378 1.378 0 0 1 1.378-1.377h18.334a1.378 1.378 0 0 1 1.377 1.377v17.394a1.378 1.378 0 0 1-1.377 1.377h-18.334zm17.713-2v-16.147h-17.09v16.147h17.09z"/><path d="M286.116 277.545a2.505 2.505 0 0 1-2.506-2.506v-9.292a2.508 2.508 0 0 1 2.506-2.51h9.798a2.51 2.51 0 0 1 2.506 2.51v9.292a2.511 2.511 0 0 1-2.506 2.509l-9.798-.003zm-.508-11.798v9.292a.508.508 0 0 0 .508.506l9.798.002a.507.507 0 0 0 .505-.508v-9.292a.509.509 0 0 0-.505-.51h-9.798a.512.512 0 0 0-.508.51z"/></g><g fill="#F4F4F4"><path d="M301.796 281.816a1.384 1.384 0 0 1-1.379-1.377l.003-17.394a1.38 1.38 0 0 1 1.376-1.377h18.335c.763 0 1.375.619 1.377 1.377v17.394h-.002c0 .758-.612 1.377-1.375 1.377h-18.335zm17.71-2 .002-16.147h-17.089l-.002 16.147h17.089z"/><path d="M306.065 277.545a2.506 2.506 0 0 1-2.507-2.506v-9.292c0-1.386 1.12-2.51 2.507-2.51h9.797a2.508 2.508 0 0 1 2.505 2.51v9.292a2.51 2.51 0 0 1-2.505 2.509l-9.797-.003zm-.507-11.798v9.292c0 .281.227.506.508.506l9.797.002a.508.508 0 0 0 .506-.508v-9.292a.509.509 0 0 0-.506-.51h-9.797a.509.509 0 0 0-.508.51z"/></g><g fill="#F4F4F4"><path d="M321.745 281.816a1.383 1.383 0 0 1-1.379-1.377l.002-17.394a1.38 1.38 0 0 1 1.377-1.377h18.335a1.376 1.376 0 0 1 1.376 1.377v17.394a1.374 1.374 0 0 1-1.376 1.377h-18.335zm17.71-2 .002-16.147h-17.089v16.147h17.087z"/><path d="M326.015 277.545a2.508 2.508 0 0 1-2.507-2.506v-9.292c0-1.386 1.12-2.51 2.507-2.51h9.795a2.509 2.509 0 0 1 2.509 2.51v9.292a2.512 2.512 0 0 1-2.509 2.509l-9.795-.003zm-.509-11.798v9.292a.509.509 0 0 0 .509.506l9.795.002a.509.509 0 0 0 .508-.508v-9.292a.51.51 0 0 0-.508-.51h-9.795a.511.511 0 0 0-.509.51z"/></g><g fill="#F4F4F4"><path d="M341.693 281.815a1.377 1.377 0 0 1-1.377-1.375v-17.394a1.376 1.376 0 0 1 1.377-1.377h18.337c.76 0 1.374.614 1.376 1.377v17.394a1.376 1.376 0 0 1-1.376 1.375h-18.337zm17.712-1.998.002-16.149h-17.09l-.002 16.149h17.09z"/><path d="M345.963 277.545a2.505 2.505 0 0 1-2.506-2.506v-9.292a2.51 2.51 0 0 1 2.506-2.51h9.796a2.507 2.507 0 0 1 2.508 2.51v9.292a2.51 2.51 0 0 1-2.508 2.509l-9.796-.003zm-.506-11.798v9.292c0 .279.229.506.506.506l9.796.002a.513.513 0 0 0 .51-.508v-9.292a.513.513 0 0 0-.51-.51h-9.796a.51.51 0 0 0-.506.51z"/></g><g fill="#F4F4F4"><path d="M361.548 281.815a1.376 1.376 0 0 1-1.376-1.375l.002-17.394c0-.758.61-1.377 1.374-1.377h18.337c.759 0 1.375.61 1.377 1.377v17.394a1.375 1.375 0 0 1-1.377 1.375h-18.337zm17.713-1.998.002-16.149h-17.09v16.149h17.088z"/><path d="M365.82 277.545a2.506 2.506 0 0 1-2.508-2.506v-9.292a2.509 2.509 0 0 1 2.508-2.51h9.796a2.506 2.506 0 0 1 2.504 2.51v9.292a2.508 2.508 0 0 1-2.504 2.509l-9.796-.003zm-.509-11.798v9.292a.51.51 0 0 0 .51.506l9.796.002a.51.51 0 0 0 .506-.508v-9.292a.51.51 0 0 0-.506-.51h-9.796a.513.513 0 0 0-.51.51z"/></g><g fill="#F4F4F4"><path d="M381.498 281.816a1.38 1.38 0 0 1-1.377-1.377v-17.394a1.38 1.38 0 0 1 1.377-1.377h18.335c.76 0 1.377.614 1.379 1.377v17.394h-.002c0 .763-.617 1.377-1.377 1.377h-18.335zm17.712-2v-16.147h-17.087l-.002 16.147h17.089z"/><path d="M385.77 277.545a2.508 2.508 0 0 1-2.508-2.506v-9.292c0-1.386 1.12-2.51 2.508-2.51h9.796a2.508 2.508 0 0 1 2.506 2.51v9.292a2.51 2.51 0 0 1-2.506 2.509l-9.796-.003zm-.508-11.798v9.292c0 .281.225.506.508.506l9.796.002a.508.508 0 0 0 .506-.508v-9.292a.509.509 0 0 0-.506-.51h-9.796a.508.508 0 0 0-.508.51z"/></g><g fill="#F4F4F4"><path d="M401.448 281.816a1.378 1.378 0 0 1-1.379-1.377v-17.393a1.377 1.377 0 0 1 1.379-1.377h18.338c.763 0 1.372.618 1.374 1.377v17.393h-.002c0 .758-.609 1.375-1.372 1.377h-18.338zm17.71-1.998.002-16.149h-17.091v16.149h17.089z"/><path d="M405.718 277.546a2.509 2.509 0 0 1-2.507-2.507v-9.292a2.51 2.51 0 0 1 2.507-2.511l9.794.002a2.507 2.507 0 0 1 2.509 2.509v9.292a2.507 2.507 0 0 1-2.509 2.507h-9.794zm-.507-11.799v9.292c0 .281.225.507.507.507h9.794a.509.509 0 0 0 .509-.507v-9.292a.51.51 0 0 0-.509-.509l-9.794-.002a.51.51 0 0 0-.507.511z"/></g><g fill="#F4F4F4"><path d="M421.396 281.817a1.381 1.381 0 0 1-1.378-1.378l.003-17.394c0-.761.613-1.375 1.375-1.377h37.173a1.38 1.38 0 0 1 1.38 1.377v17.394h-.003a1.377 1.377 0 0 1-1.377 1.378h-37.173zm36.551-2V263.67l-35.927-.002-.002 16.147 35.929.002z"/><path d="M425.667 277.547a2.506 2.506 0 0 1-2.506-2.507v-9.293a2.508 2.508 0 0 1 2.506-2.51H454.3a2.507 2.507 0 0 1 2.507 2.51v9.293a2.509 2.509 0 0 1-2.507 2.507h-28.633zm-.507-11.8v9.293c0 .279.228.505.507.505H454.3a.506.506 0 0 0 .508-.505v-9.293a.512.512 0 0 0-.508-.511h-28.633a.514.514 0 0 0-.507.511z"/></g><g fill="#F4F4F4"><path d="M142.202 301.858a1.375 1.375 0 0 1-1.377-1.376v-17.394a1.377 1.377 0 0 1 1.377-1.376h18.335a1.377 1.377 0 0 1 1.376 1.376v17.394c0 .762-.618 1.376-1.376 1.378l-18.335-.002zm17.711-1.998v-16.147h-17.089v16.146l17.089.001z"/><path d="M146.472 297.589a2.506 2.506 0 0 1-2.508-2.506v-9.293a2.506 2.506 0 0 1 2.508-2.508h9.794a2.509 2.509 0 0 1 2.508 2.508v9.293a2.51 2.51 0 0 1-2.508 2.508l-9.794-.002zm-.509-11.799v9.293a.51.51 0 0 0 .509.507h9.794c.28 0 .507-.227.507-.507v-9.293a.507.507 0 0 0-.507-.507l-9.794-.003a.514.514 0 0 0-.509.51z"/></g><g fill="#F4F4F4"><path d="M211.335 321.902a1.377 1.377 0 0 1-1.377-1.375v-17.394a1.38 1.38 0 0 1 1.377-1.379l159.243.002c.762 0 1.375.617 1.377 1.377v17.394a1.38 1.38 0 0 1-1.377 1.377l-159.243-.002zm158.62-1.999v-16.146l-157.996-.002v16.148h157.996z"/><path d="M215.605 317.633a2.505 2.505 0 0 1-2.506-2.508v-9.292a2.508 2.508 0 0 1 2.506-2.508l150.703.002a2.505 2.505 0 0 1 2.505 2.506v9.292a2.505 2.505 0 0 1-2.505 2.508H215.605zm-.506-11.8v9.292c0 .28.228.509.506.509h150.703a.513.513 0 0 0 .508-.509v-9.292a.512.512 0 0 0-.508-.507H215.605a.509.509 0 0 0-.506.507z"/></g><g fill="#F4F4F4"><path d="M162.152 301.859a1.38 1.38 0 0 1-1.377-1.376V283.09c0-.76.62-1.376 1.377-1.376h28.128c.756 0 1.378.611 1.378 1.376v17.394c0 .762-.62 1.374-1.378 1.376h-28.128v-.001zm27.506-2v-16.147h-26.884v16.147h26.884z"/><path d="M166.419 297.589a2.505 2.505 0 0 1-2.506-2.506v-9.293a2.506 2.506 0 0 1 2.506-2.508h19.593a2.506 2.506 0 0 1 2.506 2.508v9.293a2.508 2.508 0 0 1-2.506 2.508l-19.593-.002zm-.506-11.799v9.293c0 .28.228.507.507.507h19.593a.508.508 0 0 0 .507-.507v-9.293a.508.508 0 0 0-.507-.507l-19.593-.003a.512.512 0 0 0-.507.51z"/></g><g fill="#F4F4F4"><path d="M191.896 301.859a1.382 1.382 0 0 1-1.377-1.376V283.09a1.38 1.38 0 0 1 1.377-1.376h18.335c.76.002 1.374.609 1.376 1.376v17.394a1.377 1.377 0 0 1-1.376 1.376h-18.335v-.001zm17.711-2v-16.147h-17.089v16.147h17.089z"/><path d="M196.165 297.589a2.508 2.508 0 0 1-2.508-2.506v-9.293a2.509 2.509 0 0 1 2.508-2.508h9.796a2.506 2.506 0 0 1 2.506 2.508v9.293a2.508 2.508 0 0 1-2.506 2.508l-9.796-.002zm-.507-11.799v9.293c0 .28.228.507.507.507h9.796c.28 0 .507-.227.507-.507v-9.293a.507.507 0 0 0-.507-.507l-9.796-.003a.512.512 0 0 0-.507.51z"/></g><g fill="#F4F4F4"><path d="M211.846 301.858c-.76 0-1.377-.614-1.377-1.376v-17.394c0-.762.62-1.374 1.377-1.376h18.333a1.38 1.38 0 0 1 1.378 1.376v17.394a1.382 1.382 0 0 1-1.378 1.378l-18.333-.002zm17.712-1.998v-16.147h-17.089v16.146l17.089.001z"/><path d="M216.115 297.589a2.505 2.505 0 0 1-2.506-2.506v-9.293a2.506 2.506 0 0 1 2.506-2.508h9.796a2.505 2.505 0 0 1 2.506 2.508v9.293a2.508 2.508 0 0 1-2.506 2.508l-9.796-.002zm-.508-11.799v9.293c.002.28.228.507.507.507h9.796c.28 0 .505-.227.507-.507v-9.293a.509.509 0 0 0-.507-.507l-9.796-.003a.513.513 0 0 0-.507.51z"/></g><g fill="#F4F4F4"><path d="M231.794 301.859a1.383 1.383 0 0 1-1.378-1.376l.002-17.394c0-.76.616-1.376 1.376-1.376h18.335c.758 0 1.375.611 1.375 1.376v17.394c0 .76-.618 1.374-1.375 1.376h-18.335zm17.712-2v-16.147h-17.087l-.002 16.147h17.089z"/><path d="M236.064 297.589a2.505 2.505 0 0 1-2.506-2.506v-9.293a2.505 2.505 0 0 1 2.506-2.508h9.796a2.505 2.505 0 0 1 2.506 2.508v9.293a2.508 2.508 0 0 1-2.506 2.508l-9.796-.002zm-.507-11.799v9.293c.002.28.228.507.507.507h9.796a.507.507 0 0 0 .505-.507v-9.293a.507.507 0 0 0-.505-.507l-9.796-.003a.513.513 0 0 0-.507.51z"/></g><g fill="#F4F4F4"><path d="M251.744 301.859c-.76 0-1.376-.616-1.378-1.376l.002-17.394c0-.765.616-1.376 1.376-1.376h18.335c.755 0 1.375.607 1.377 1.376v17.394a1.38 1.38 0 0 1-1.377 1.376h-18.335zm17.713-2v-16.147h-17.089l-.002 16.147h17.091z"/><path d="M256.015 297.589a2.505 2.505 0 0 1-2.508-2.506v-9.293a2.506 2.506 0 0 1 2.508-2.508h9.794a2.506 2.506 0 0 1 2.506 2.508v9.293a2.508 2.508 0 0 1-2.506 2.508l-9.794-.002zm-.509-11.799v9.293c0 .28.227.507.509.507h9.794a.509.509 0 0 0 .507-.507v-9.293a.509.509 0 0 0-.507-.507l-9.794-.003a.512.512 0 0 0-.509.51z"/></g><g fill="#F4F4F4"><path d="M271.694 301.858a1.38 1.38 0 0 1-1.378-1.376v-17.394c.002-.76.62-1.374 1.378-1.376h18.335a1.38 1.38 0 0 1 1.375 1.376v17.394a1.383 1.383 0 0 1-1.375 1.378l-18.335-.002zm17.711-1.998v-16.147h-17.089v16.146l17.089.001z"/><path d="M275.962 297.589a2.505 2.505 0 0 1-2.506-2.506v-9.293a2.506 2.506 0 0 1 2.506-2.508h9.796a2.506 2.506 0 0 1 2.506 2.508v9.293a2.508 2.508 0 0 1-2.506 2.508l-9.796-.002zm-.506-11.799v9.293c0 .28.227.507.507.507h9.796a.509.509 0 0 0 .507-.507v-9.293a.509.509 0 0 0-.507-.507l-9.796-.003a.512.512 0 0 0-.507.51z"/></g><g fill="#F4F4F4"><path d="M291.642 301.859a1.38 1.38 0 0 1-1.375-1.376V283.09a1.378 1.378 0 0 1 1.375-1.376h18.338c.757 0 1.373.616 1.375 1.376v17.394h-.002a1.38 1.38 0 0 1-1.373 1.376h-18.338v-.001zm17.711-2 .002-16.147h-17.088v16.147h17.086z"/><path d="M295.914 297.589a2.505 2.505 0 0 1-2.508-2.506v-9.293a2.506 2.506 0 0 1 2.508-2.508h9.794a2.506 2.506 0 0 1 2.506 2.508v9.293a2.508 2.508 0 0 1-2.506 2.508l-9.794-.002zm-.509-11.799v9.293c0 .28.228.507.509.507h9.794a.508.508 0 0 0 .507-.507v-9.293a.508.508 0 0 0-.507-.507l-9.794-.003a.512.512 0 0 0-.509.51z"/></g><g fill="#F4F4F4"><path d="M311.592 301.858a1.38 1.38 0 0 1-1.38-1.376l.002-17.394c0-.762.62-1.374 1.378-1.376h18.335c.756 0 1.374.609 1.378 1.376v17.394h-.002c0 .765-.62 1.376-1.376 1.378l-18.335-.002zm17.711-1.998.002-16.147h-17.091l-.002 16.146 17.091.001z"/><path d="M315.86 297.589a2.505 2.505 0 0 1-2.506-2.506v-9.293a2.506 2.506 0 0 1 2.506-2.508h9.797a2.505 2.505 0 0 1 2.506 2.508v9.293a2.508 2.508 0 0 1-2.506 2.508l-9.797-.002zm-.506-11.799v9.293c0 .28.228.507.507.507h9.797a.508.508 0 0 0 .507-.507v-9.293a.508.508 0 0 0-.507-.507l-9.797-.003a.512.512 0 0 0-.507.51z"/></g><g fill="#F4F4F4"><path d="M331.541 301.858c-.76 0-1.376-.614-1.378-1.376v-17.394c0-.762.62-1.374 1.378-1.376h18.335a1.381 1.381 0 0 1 1.376 1.376v17.394a1.383 1.383 0 0 1-1.376 1.378l-18.335-.002zm17.711-1.998v-16.147h-17.089v16.146l17.089.001z"/><path d="M335.811 297.589a2.503 2.503 0 0 1-2.506-2.506v-9.293a2.505 2.505 0 0 1 2.506-2.508h9.796a2.506 2.506 0 0 1 2.506 2.508v9.293a2.509 2.509 0 0 1-2.506 2.508l-9.796-.002zm-.508-11.799v9.293c0 .28.229.507.508.507h9.796a.509.509 0 0 0 .507-.507v-9.293a.509.509 0 0 0-.507-.507l-9.796-.003a.513.513 0 0 0-.508.51z"/></g><g fill="#F4F4F4"><path d="M351.489 301.859a1.38 1.38 0 0 1-1.376-1.376V283.09a1.377 1.377 0 0 1 1.376-1.376h18.337a1.38 1.38 0 0 1 1.376 1.376v17.394a1.381 1.381 0 0 1-1.376 1.376h-18.337v-.001zm17.713-2v-16.147h-17.089v16.147h17.089z"/><path d="M355.759 297.59a2.506 2.506 0 0 1-2.504-2.508v-9.293a2.503 2.503 0 0 1 2.504-2.506h9.798a2.506 2.506 0 0 1 2.506 2.506v9.293a2.509 2.509 0 0 1-2.506 2.508h-9.798zm-.505-11.801v9.293c0 .282.227.507.505.509h9.798a.513.513 0 0 0 .507-.509v-9.293a.512.512 0 0 0-.507-.507h-9.798a.506.506 0 0 0-.505.507z"/></g><g fill="#F4F4F4"><path d="M371.346 301.859a1.378 1.378 0 0 1-1.377-1.376V283.09c0-.765.619-1.376 1.377-1.376h18.336a1.38 1.38 0 0 1 1.376 1.376v17.394h-.003c0 .756-.615 1.374-1.373 1.376h-18.336v-.001zm17.71-2 .002-16.147h-17.09v16.147h17.088z"/><path d="M375.615 297.589a2.505 2.505 0 0 1-2.506-2.506v-9.293a2.505 2.505 0 0 1 2.506-2.508h9.796a2.506 2.506 0 0 1 2.506 2.508v9.293a2.509 2.509 0 0 1-2.506 2.508l-9.796-.002zm-.508-11.799v9.293c0 .28.228.507.508.507h9.796a.51.51 0 0 0 .507-.507v-9.293a.51.51 0 0 0-.507-.507l-9.796-.003a.512.512 0 0 0-.508.51z"/></g><g fill="#F4F4F4"><path d="M391.295 301.859a1.38 1.38 0 0 1-1.378-1.376V283.09c0-.76.62-1.376 1.378-1.376h27.377c.76 0 1.374.616 1.376 1.376v17.394a1.381 1.381 0 0 1-1.376 1.376h-27.377v-.001zm26.753-2v-16.147h-26.131v16.147h26.131z"/><path d="M395.564 297.589a2.506 2.506 0 0 1-2.508-2.506v-9.293a2.508 2.508 0 0 1 2.508-2.508h18.839a2.508 2.508 0 0 1 2.506 2.508v9.293a2.509 2.509 0 0 1-2.506 2.508l-18.839-.002zm-.506-11.799v9.293c0 .28.227.507.507.507h18.839a.51.51 0 0 0 .507-.507v-9.293a.51.51 0 0 0-.507-.507l-18.839-.003a.51.51 0 0 0-.507.51z"/></g><g fill="#F4F4F4"><path d="M420.286 301.858a1.378 1.378 0 0 1-1.378-1.376V283.09c0-.766.619-1.376 1.378-1.376h18.335c.757 0 1.374.608 1.378 1.376v17.392h-.002c0 .766-.617 1.376-1.376 1.376h-18.335zm17.712-1.999v-16.147h-17.089l-.002 16.147h17.091z"/><path d="M424.556 297.59a2.506 2.506 0 0 1-2.506-2.507v-9.294a2.506 2.506 0 0 1 2.506-2.508l9.796.002a2.506 2.506 0 0 1 2.506 2.506v9.294a2.507 2.507 0 0 1-2.506 2.507h-9.796zm-.508-11.801v9.294c.002.28.229.506.508.506l9.796.002a.508.508 0 0 0 .506-.508v-9.294a.505.505 0 0 0-.506-.506l-9.796-.002a.513.513 0 0 0-.508.508z"/></g><g fill="#F4F4F4"><path d="M440.234 301.858a1.377 1.377 0 0 1-1.377-1.375v-17.395c0-.763.62-1.375 1.377-1.377l18.335.002a1.38 1.38 0 0 1 1.38 1.375v17.395h-.003c0 .765-.62 1.375-1.377 1.377l-18.335-.002zm17.713-1.998v-16.146l-17.091-.002v16.146l17.091.002z"/><path d="M444.506 297.589a2.506 2.506 0 0 1-2.508-2.506v-9.293a2.508 2.508 0 0 1 2.508-2.509l9.794.002a2.505 2.505 0 0 1 2.507 2.507v9.293a2.508 2.508 0 0 1-2.507 2.508l-9.794-.002zm-.509-11.799v9.293a.51.51 0 0 0 .509.507h9.794a.507.507 0 0 0 .508-.507v-9.293a.509.509 0 0 0-.508-.508h-9.794a.51.51 0 0 0-.509.508z"/></g><path fill="#F4F4F4" d="m109.052 191.111-.002-15.072a2.633 2.633 0 0 1 2.633-2.631 2.63 2.63 0 0 1 2.633 2.631v15.072a2.632 2.632 0 1 1-5.264 0zm1.999-15.072v15.072a.634.634 0 0 0 1.267 0l-.002-15.072a.632.632 0 0 0-1.265 0zM115.771 191.11v-15.07a2.63 2.63 0 0 1 2.633-2.631 2.63 2.63 0 0 1 2.631 2.631v15.07a2.633 2.633 0 1 1-5.264 0zm1.998-15.07v15.07a.634.634 0 0 0 1.267 0l-.002-15.07a.631.631 0 0 0-.63-.632.635.635 0 0 0-.635.632zM122.488 191.111v-15.072a2.633 2.633 0 0 1 5.266 0v15.072a2.634 2.634 0 0 1-5.266 0zm2.001-15.072v15.072a.631.631 0 0 0 1.265 0v-15.072a.631.631 0 0 0-.633-.63.63.63 0 0 0-.632.63zM129.208 191.111v-15.072a2.632 2.632 0 0 1 2.633-2.631 2.63 2.63 0 0 1 2.631 2.631v15.072a2.633 2.633 0 0 1-5.264 0zm1.999-15.072v15.072a.635.635 0 0 0 1.267 0v-15.072a.633.633 0 0 0-.633-.63.632.632 0 0 0-.634.63zM135.928 191.11l-.002-15.07a2.632 2.632 0 0 1 2.633-2.631 2.632 2.632 0 0 1 2.633 2.631v15.07a2.63 2.63 0 1 1-5.264 0zm1.999-15.07v15.07a.633.633 0 0 0 1.265 0v-15.07a.633.633 0 0 0-1.265 0zM142.645 191.11v-15.07a2.63 2.63 0 0 1 2.633-2.631 2.629 2.629 0 0 1 2.631 2.631v15.07a2.633 2.633 0 0 1-5.264 0zm2.001-15.07v15.07a.632.632 0 1 0 1.265 0v-15.07a.631.631 0 1 0-1.265 0zM149.364 191.11v-15.07a2.63 2.63 0 0 1 2.633-2.631 2.63 2.63 0 0 1 2.631 2.631v15.07a2.633 2.633 0 0 1-5.264 0zm1.999-15.07v15.07a.634.634 0 0 0 1.267 0v-15.07a.635.635 0 0 0-1.267 0z"/><path fill="#F4F4F4" d="M99.757 330.882V167.88h383.028v163.001H99.757v.001zm382.028-1v-1.001 1.001zm-380.029-1.001h379.028v-159H101.756v159z"/><path fill="#F4F4F4" d="M100.322 200.055v-31.388h6.522v31.388h-6.522zm5.523-1v-1.002 1.002zm-3.522-28.386v27.384h2.522v-27.386l-2.522.002zM475.478 200.147v-31.386h6.521v31.386h-6.521zm5.522-1v-1 1zm-3.521-1h2.519v-27.385h-2.519v27.385z"/><path fill="#F4F4F4" d="M100.664 201.089v-1.998h380.808v1.998H100.664zM150.622 321.549a4.156 4.156 0 0 1 4.154-4.158 4.154 4.154 0 1 1 0 8.311 4.151 4.151 0 0 1-4.154-4.153zm1.999 0a2.158 2.158 0 0 0 2.154 2.152 2.16 2.16 0 0 0 2.156-2.152 2.163 2.163 0 0 0-2.156-2.159 2.16 2.16 0 0 0-2.154 2.159zM171.248 321.549a4.156 4.156 0 0 1 4.154-4.158 4.157 4.157 0 0 1 4.156 4.158h.002a4.156 4.156 0 0 1-4.158 4.153 4.153 4.153 0 0 1-4.154-4.153zm1.999 0a2.158 2.158 0 0 0 2.154 2.152 2.159 2.159 0 0 0 2.156-2.152 2.161 2.161 0 0 0-2.156-2.159 2.16 2.16 0 0 0-2.154 2.159zM191.876 321.549a4.154 4.154 0 1 1 8.31 0 4.156 4.156 0 0 1-4.156 4.153 4.153 4.153 0 0 1-4.154-4.153zm1.999 0a2.16 2.16 0 0 0 2.154 2.154 2.163 2.163 0 0 0 2.156-2.154 2.164 2.164 0 0 0-2.156-2.159 2.16 2.16 0 0 0-2.154 2.159z"/><path fill="#F4F4F4" d="M76.941 338.385V155.808L88.245 14.897a6.277 6.277 0 0 1 6.276-6.216h393.501a6.274 6.274 0 0 1 6.272 6.245l11.301 140.933-.997.08.997-.08.004.051-.002 182.476a6.273 6.273 0 0 1-6.271 6.274l-416.108.002a6.28 6.28 0 0 1-6.277-6.277zM90.245 14.956v.038L78.942 155.877v182.507a4.283 4.283 0 0 0 4.276 4.276l416.108-.002a4.277 4.277 0 0 0 4.271-4.274V155.966L492.295 14.987v-.032a4.28 4.28 0 0 0-4.272-4.274H94.521a4.282 4.282 0 0 0-4.276 4.275z"/></svg>