<?xml version="1.0" encoding="utf-8"?>
<!-- Generator: Adobe Illustrator 18.0.0, SVG Export Plug-In . SVG Version: 6.00 Build 0)  -->
<!DOCTYPE svg PUBLIC "-//W3C//DTD SVG 1.1//EN" "http://www.w3.org/Graphics/SVG/1.1/DTD/svg11.dtd">
<svg version="1.1" id="TEXT" xmlns="http://www.w3.org/2000/svg" xmlns:xlink="http://www.w3.org/1999/xlink" x="0px" y="0px"
	 viewBox="0 0 566.9 157.8" enable-background="new 0 0 566.9 157.8" xml:space="preserve">
<linearGradient id="SVGID_1_" gradientUnits="userSpaceOnUse" x1="558.1287" y1="-795.5962" x2="11.7707" y2="-795.5962" gradientTransform="matrix(1 0 0 -1 -0.1797 -715.4102)">
	<stop  offset="0" style="stop-color:#013A67"/>
	<stop  offset="1" style="stop-color:#6CD1FF"/>
</linearGradient>
<polygon fill="url(#SVGID_1_)" points="491.2,27.7 536.8,27.9 557.9,5.9 480,5.6 406.7,79.2 396.4,79.8 396.7,9 355.5,51.1 
	345.6,52.2 345.6,9.4 261.3,92.8 250.8,94 251.7,8.1 177.9,82.9 168.3,83 167.1,11.1 127.3,51.2 116.3,51.7 116.7,8.9 11.6,114.9 
	46.2,114.3 91.6,70.3 100.3,70.3 99.9,114.5 136,77.5 144.7,77.5 144.7,115.2 104.9,154.7 143,154.2 218,78.3 228.1,78.3 
	228.1,115.6 274.9,115.9 320.1,70.4 328.8,69.8 328.7,112.8 364.8,76.7 373.4,76.7 373.9,113.1 373.2,115 482.4,115 503.3,93.8 
	435.4,92.7 434.8,82.8 445.4,71.7 471,71.7 493.2,49.1 479.8,48.6 479.8,39.1 "/>
<linearGradient id="SVGID_2_" gradientUnits="userSpaceOnUse" x1="64.7087" y1="-778.7883" x2="60.7641" y2="-774.8439" gradientTransform="matrix(1 0 0 -1 -0.1797 -715.4102)">
	<stop  offset="0" style="stop-color:#08406F"/>
	<stop  offset="1" style="stop-color:#60C5F5"/>
</linearGradient>
<path fill="url(#SVGID_2_)" d="M114.7,13.2L13.6,114.3l-11.5,4.3c0,0-0.6,0-0.3-0.4c0,0,117.3-117.3,117.5-117.5
	c0.2-0.2,0.5,0,0.5,0L114.7,13.2z"/>
<linearGradient id="SVGID_3_" gradientUnits="userSpaceOnUse" x1="123.2949" y1="-853.909" x2="119.6694" y2="-850.2835" gradientTransform="matrix(1 0 0 -1 -0.1797 -715.4102)">
	<stop  offset="0" style="stop-color:#08406F"/>
	<stop  offset="1" style="stop-color:#60C5F5"/>
</linearGradient>
<path fill="url(#SVGID_3_)" d="M145.8,115.8l-37.5,37.5l-11.1,4.5c0,0-0.6,0.1-0.2-0.4l43.9-43.7L145.8,115.8z"/>
<linearGradient id="SVGID_4_" gradientUnits="userSpaceOnUse" x1="25.7237" y1="-834.0512" x2="25.7237" y2="-829.7382" gradientTransform="matrix(1 0 0 -1 -0.1797 -715.4102)">
	<stop  offset="0" style="stop-color:#08406F"/>
	<stop  offset="1" style="stop-color:#60C5F5"/>
</linearGradient>
<polygon fill="url(#SVGID_4_)" points="49,118.6 2.1,118.6 13.6,114.3 46.2,114.3 "/>
<linearGradient id="SVGID_5_" gradientUnits="userSpaceOnUse" x1="121.1852" y1="-873.1812" x2="121.1852" y2="-868.7242" gradientTransform="matrix(1 0 0 -1 -0.1797 -715.4102)">
	<stop  offset="0" style="stop-color:#08406F"/>
	<stop  offset="1" style="stop-color:#60C5F5"/>
</linearGradient>
<polygon fill="url(#SVGID_5_)" points="144.8,157.8 97.2,157.8 108.3,153.3 142.2,153.3 "/>
<linearGradient id="SVGID_6_" gradientUnits="userSpaceOnUse" x1="427.6942" y1="-834.0232" x2="427.6942" y2="-829.5562" gradientTransform="matrix(1 0 0 -1 -0.1797 -715.4102)">
	<stop  offset="0" style="stop-color:#08406F"/>
	<stop  offset="1" style="stop-color:#60C5F5"/>
</linearGradient>
<polygon fill="url(#SVGID_6_)" points="484.8,118.6 370.2,118.6 374.1,114.1 481.5,114.1 "/>
<linearGradient id="SVGID_7_" gradientUnits="userSpaceOnUse" x1="251.0642" y1="-834.8942" x2="251.0642" y2="-830.4152" gradientTransform="matrix(1 0 0 -1 -0.1797 -715.4102)">
	<stop  offset="0" style="stop-color:#08406F"/>
	<stop  offset="1" style="stop-color:#60C5F5"/>
</linearGradient>
<path fill="url(#SVGID_7_)" d="M277.1,119.5l-51.5,0c-0.3,0-0.8-0.3-0.8-0.3l4.6-4.1h45.1L277.1,119.5z"/>
<linearGradient id="SVGID_8_" gradientUnits="userSpaceOnUse" x1="522.2802" y1="-722.1862" x2="522.2802" y2="-717.3232" gradientTransform="matrix(1 0 0 -1 -0.1797 -715.4102)">
	<stop  offset="0" style="stop-color:#08406F"/>
	<stop  offset="1" style="stop-color:#60C5F5"/>
</linearGradient>
<path fill="url(#SVGID_8_)" d="M477.4,1.9H566c0.8,0,0.8,0.3,0.8,0.3l-10.6,4.6h-75.2L477.4,1.9z"/>
<linearGradient id="SVGID_9_" gradientUnits="userSpaceOnUse" x1="515.0132" y1="-746.7142" x2="515.0132" y2="-742.5042" gradientTransform="matrix(1 0 0 -1 -0.1797 -715.4102)">
	<stop  offset="0" style="stop-color:#08406F"/>
	<stop  offset="1" style="stop-color:#60C5F5"/>
</linearGradient>
<polygon fill="url(#SVGID_9_)" points="539,31.3 492.7,31.3 490.6,27.1 535.9,27.1 "/>
<linearGradient id="SVGID_10_" gradientUnits="userSpaceOnUse" x1="459.3697" y1="-790.2302" x2="459.3697" y2="-786.5102" gradientTransform="matrix(1 0 0 -1 -0.1797 -715.4102)">
	<stop  offset="0" style="stop-color:#08406F"/>
	<stop  offset="1" style="stop-color:#60C5F5"/>
</linearGradient>
<polygon fill="url(#SVGID_10_)" points="473.6,74.8 448.9,74.8 444.8,71.1 470.4,71.1 "/>
<linearGradient id="SVGID_11_" gradientUnits="userSpaceOnUse" x1="490.1607" y1="-765.1102" x2="490.1607" y2="-759.5558" gradientTransform="matrix(1 0 0 -1 -0.1797 -715.4102)">
	<stop  offset="0" style="stop-color:#08406F"/>
	<stop  offset="1" style="stop-color:#60C5F5"/>
</linearGradient>
<path fill="url(#SVGID_11_)" d="M491.8,49.7h-13.6l-1.2-5.5h25.5c0.3,0,0.4,0.1,0.4,0.1L491.8,49.7z"/>
<linearGradient id="SVGID_12_" gradientUnits="userSpaceOnUse" x1="74.3898" y1="-808.8253" x2="70.8468" y2="-805.2823" gradientTransform="matrix(1 0 0 -1 -0.1797 -715.4102)">
	<stop  offset="0" style="stop-color:#08406F"/>
	<stop  offset="1" style="stop-color:#60C5F5"/>
</linearGradient>
<path fill="url(#SVGID_12_)" d="M96.9,70.6l-47.9,48l-2.8-4.3L92.8,68c2-2.3,4.7-1.7,4.7-1.7L96.9,70.6z"/>
<linearGradient id="SVGID_13_" gradientUnits="userSpaceOnUse" x1="120.2557" y1="-744.3687" x2="114.8897" y2="-744.3687" gradientTransform="matrix(1 0 0 -1 -0.1797 -715.4102)">
	<stop  offset="0" style="stop-color:#08406F"/>
	<stop  offset="1" style="stop-color:#60C5F5"/>
</linearGradient>
<path fill="url(#SVGID_13_)" d="M114.7,51.7V13.2l5.1-12.5c0,0,0.3,0.1,0.3,0.6c0,0.5,0,53.6,0,53.6l-0.3,2.3
	C119.8,57.2,115.3,57.2,114.7,51.7z"/>
<linearGradient id="SVGID_14_" gradientUnits="userSpaceOnUse" x1="173.0817" y1="-759.9598" x2="166.4214" y2="-759.9598" gradientTransform="matrix(1 0 0 -1 -0.1797 -715.4102)">
	<stop  offset="0" style="stop-color:#08406F"/>
	<stop  offset="1" style="stop-color:#60C5F5"/>
</linearGradient>
<path fill="url(#SVGID_14_)" d="M172.9,88.8c0,0-6.5,1.9-6.6-5.6c-0.1-7.3,0-69.3,0-69.3L171.5,0c0,0,0.2,0,0.2,0.7l0,81.8
	L172.9,88.8z"/>
<linearGradient id="SVGID_15_" gradientUnits="userSpaceOnUse" x1="255.9887" y1="-765.2155" x2="249.9957" y2="-765.2155" gradientTransform="matrix(1 0 0 -1 -0.1797 -715.4102)">
	<stop  offset="0" style="stop-color:#08406F"/>
	<stop  offset="1" style="stop-color:#60C5F5"/>
</linearGradient>
<path fill="url(#SVGID_15_)" d="M255.8,98.9c0,0-5.9,0.6-6-6.1l0-80.1l4.7-12.1c0,0,0.6,0.2,0.6,0.9l0,91.1L255.8,98.9z"/>
<linearGradient id="SVGID_16_" gradientUnits="userSpaceOnUse" x1="349.2767" y1="-744.624" x2="343.5757" y2="-744.624" gradientTransform="matrix(1 0 0 -1 -0.1797 -715.4102)">
	<stop  offset="0" style="stop-color:#08406F"/>
	<stop  offset="1" style="stop-color:#60C5F5"/>
</linearGradient>
<path fill="url(#SVGID_16_)" d="M349.1,57.4c0,0-4.9,0.5-5.7-4.6V13.1L347.8,1c0,0,0.6,0.1,0.6,0.9v49.7L349.1,57.4z"/>
<linearGradient id="SVGID_17_" gradientUnits="userSpaceOnUse" x1="400.9607" y1="-758.4451" x2="395.1637" y2="-758.4451" gradientTransform="matrix(1 0 0 -1 -0.1797 -715.4102)">
	<stop  offset="0" style="stop-color:#08406F"/>
	<stop  offset="1" style="stop-color:#60C5F5"/>
</linearGradient>
<path fill="url(#SVGID_17_)" d="M400.8,85.3c0,0-4.9,0.6-5.8-4.4V13.3l4.9-12.5c0,0,0.3,0.2,0.3,1.7v77.2L400.8,85.3z"/>
<linearGradient id="SVGID_18_" gradientUnits="userSpaceOnUse" x1="101.7657" y1="-808.9377" x2="96.6547" y2="-808.9377" gradientTransform="matrix(1 0 0 -1 -0.1797 -715.4102)">
	<stop  offset="0" style="stop-color:#08406F"/>
	<stop  offset="1" style="stop-color:#60C5F5"/>
</linearGradient>
<path fill="url(#SVGID_18_)" d="M97.8,120.8c0,0-0.8-0.1-0.8-1.1c0-0.9-0.1-49-0.1-49s-1.2-1.6,0.6-4.4c0.5,0.1,3.5,0.7,4.1,4.3
	v40.4L97.8,120.8z"/>
<linearGradient id="SVGID_19_" gradientUnits="userSpaceOnUse" x1="121.2493" y1="-813.8373" x2="117.6962" y2="-810.2842" gradientTransform="matrix(1 0 0 -1 -0.1797 -715.4102)">
	<stop  offset="0" style="stop-color:#08406F"/>
	<stop  offset="1" style="stop-color:#60C5F5"/>
</linearGradient>
<path fill="url(#SVGID_19_)" d="M140.8,78.6c0,0-41.5,41.5-41.9,41.9c-0.3,0.4-1.2,0.3-1.2,0.3l3.8-10l36.1-36.1
	c0,0,1.3-1.7,3.8-1.6L140.8,78.6z"/>
<linearGradient id="SVGID_20_" gradientUnits="userSpaceOnUse" x1="553.4371" y1="-732.5006" x2="549.7676" y2="-728.831" gradientTransform="matrix(1 0 0 -1 -0.1797 -715.4102)">
	<stop  offset="0" style="stop-color:#08406F"/>
	<stop  offset="1" style="stop-color:#60C5F5"/>
</linearGradient>
<path fill="url(#SVGID_20_)" d="M566.6,3.6L539,31.3l-3.1-4.2l20.3-20.3l10.6-4.5C566.8,2.2,567.2,3.1,566.6,3.6z"/>
<linearGradient id="SVGID_21_" gradientUnits="userSpaceOnUse" x1="145.9947" y1="-809.8782" x2="140.5962" y2="-809.8782" gradientTransform="matrix(1 0 0 -1 -0.1797 -715.4102)">
	<stop  offset="0" style="stop-color:#08406F"/>
	<stop  offset="1" style="stop-color:#60C5F5"/>
</linearGradient>
<path fill="url(#SVGID_21_)" d="M140.9,113.6l-0.1-35c0,0-1.3-2.6,0.6-5.5c0.6,0,3.7,0.4,4.3,4.1l0,38.5L140.9,113.6z"/>
<linearGradient id="SVGID_22_" gradientUnits="userSpaceOnUse" x1="148.7768" y1="-747.0093" x2="144.289" y2="-742.5215" gradientTransform="matrix(1 0 0 -1 -0.1797 -715.4102)">
	<stop  offset="0" style="stop-color:#08406F"/>
	<stop  offset="1" style="stop-color:#60C5F5"/>
</linearGradient>
<path fill="url(#SVGID_22_)" d="M166.3,13.9l-41.5,41.5c-2,2-5,1.8-5,1.8c-1.8-3.5,0.3-6.1,0.3-6.1s50.5-50.5,50.9-50.9
	c0.3-0.4,0.5-0.3,0.5-0.3L166.3,13.9z"/>
<linearGradient id="SVGID_23_" gradientUnits="userSpaceOnUse" x1="215.8458" y1="-762.3209" x2="211.6874" y2="-758.1625" gradientTransform="matrix(1 0 0 -1 -0.1797 -715.4102)">
	<stop  offset="0" style="stop-color:#08406F"/>
	<stop  offset="1" style="stop-color:#60C5F5"/>
</linearGradient>
<path fill="url(#SVGID_23_)" d="M249.8,12.8l-74.4,74.4c-1.6,1.6-2.5,1.7-2.5,1.7c-3.8-1.9-1.2-6.3-1.2-6.3s80.7-80.6,81-81
	c0.9-1.1,1.8-0.9,1.8-0.9L249.8,12.8z"/>
<linearGradient id="SVGID_24_" gradientUnits="userSpaceOnUse" x1="304.3149" y1="-767.8098" x2="299.9307" y2="-763.4255" gradientTransform="matrix(1 0 0 -1 -0.1797 -715.4102)">
	<stop  offset="0" style="stop-color:#08406F"/>
	<stop  offset="1" style="stop-color:#60C5F5"/>
</linearGradient>
<path fill="url(#SVGID_24_)" d="M343.4,13.1l-84.2,84.2c-1.4,1.4-3.4,1.6-3.4,1.6c-3.1-1.6-0.8-6.2-0.8-6.2s90.6-90.5,91-90.9
	c0.9-1.1,1.8-0.9,1.8-0.9L343.4,13.1z"/>
<linearGradient id="SVGID_25_" gradientUnits="userSpaceOnUse" x1="376.9709" y1="-746.8605" x2="372.7631" y2="-742.6522" gradientTransform="matrix(1 0 0 -1 -0.1797 -715.4102)">
	<stop  offset="0" style="stop-color:#08406F"/>
	<stop  offset="1" style="stop-color:#60C5F5"/>
</linearGradient>
<path fill="url(#SVGID_25_)" d="M395,13.3l-42.5,42.5c-1.4,1.4-3.4,1.7-3.4,1.7c-2.9-1.9-0.6-6-0.6-6s49.6-49.7,49.9-50.1
	c1-1,1.4-0.7,1.4-0.7L395,13.3z"/>
<linearGradient id="SVGID_26_" gradientUnits="userSpaceOnUse" x1="488.7377" y1="-775.2642" x2="485.2807" y2="-771.8073" gradientTransform="matrix(1 0 0 -1 -0.1797 -715.4102)">
	<stop  offset="0" style="stop-color:#08406F"/>
	<stop  offset="1" style="stop-color:#60C5F5"/>
</linearGradient>
<path fill="url(#SVGID_26_)" d="M503,45.5l-29.4,29.4l-3.2-3.7l21.4-21.4l11.1-5.4C502.9,44.3,503.3,44.6,503,45.5z"/>
<linearGradient id="SVGID_27_" gradientUnits="userSpaceOnUse" x1="499.8078" y1="-819.3763" x2="495.8475" y2="-815.4161" gradientTransform="matrix(1 0 0 -1 -0.1797 -715.4102)">
	<stop  offset="0" style="stop-color:#08406F"/>
	<stop  offset="1" style="stop-color:#60C5F5"/>
</linearGradient>
<path fill="url(#SVGID_27_)" d="M513.6,90l-28.8,28.7l-3.3-4.5l20-20l12.3-5.4C513.9,88.7,514.3,89.2,513.6,90z"/>
<linearGradient id="SVGID_28_" gradientUnits="userSpaceOnUse" x1="441.8365" y1="-761.614" x2="437.5535" y2="-757.331" gradientTransform="matrix(1 0 0 -1 -0.1797 -715.4102)">
	<stop  offset="0" style="stop-color:#08406F"/>
	<stop  offset="1" style="stop-color:#60C5F5"/>
</linearGradient>
<path fill="url(#SVGID_28_)" d="M481.1,6.8l-76.9,76.9c-1.4,1.4-3.4,1.6-3.4,1.6c-2.4-3.1-0.7-6-0.7-6l77.3-77.4L481.1,6.8z"/>
<linearGradient id="SVGID_29_" gradientUnits="userSpaceOnUse" x1="486.8591" y1="-756.6489" x2="481.7462" y2="-751.5358" gradientTransform="matrix(1 0 0 -1 -0.1797 -715.4102)">
	<stop  offset="0" style="stop-color:#08406F"/>
	<stop  offset="1" style="stop-color:#60C5F5"/>
</linearGradient>
<path fill="url(#SVGID_29_)" d="M492.7,31.3L480,44.1c-2.8,2.3-1.8,5.6-1.8,5.6c-2.3-0.2-3.1-2.1-3.4-3.7c-0.3-1.6,0.3-3.4,1.3-4.5
	l14.5-14.4L492.7,31.3z"/>
<linearGradient id="SVGID_30_" gradientUnits="userSpaceOnUse" x1="185.9781" y1="-832.3306" x2="182.3352" y2="-828.6877" gradientTransform="matrix(1 0 0 -1 -0.1797 -715.4102)">
	<stop  offset="0" style="stop-color:#08406F"/>
	<stop  offset="1" style="stop-color:#60C5F5"/>
</linearGradient>
<path fill="url(#SVGID_30_)" d="M142.2,153.3l77.9-77.9c0,0,1.4-1.9,4.3-1.8l-0.5,5.2c0,0-78.7,78.5-79.1,78.9L142.2,153.3z"/>
<linearGradient id="SVGID_31_" gradientUnits="userSpaceOnUse" x1="303.0284" y1="-809.1395" x2="299.3871" y2="-805.4981" gradientTransform="matrix(1 0 0 -1 -0.1797 -715.4102)">
	<stop  offset="0" style="stop-color:#08406F"/>
	<stop  offset="1" style="stop-color:#60C5F5"/>
</linearGradient>
<path fill="url(#SVGID_31_)" d="M274.3,115L322,67.3c0,0,1.4-1.9,4.3-1.8l-0.9,5.6l-48.3,48.3L274.3,115z"/>
<linearGradient id="SVGID_32_" gradientUnits="userSpaceOnUse" x1="349.8888" y1="-813.0844" x2="346.3794" y2="-809.5748" gradientTransform="matrix(1 0 0 -1 -0.1797 -715.4102)">
	<stop  offset="0" style="stop-color:#08406F"/>
	<stop  offset="1" style="stop-color:#60C5F5"/>
</linearGradient>
<path fill="url(#SVGID_32_)" d="M330.1,110.3l36.8-36.8c0.8-0.8,1.8-1.8,3.4-1.8l-0.1,5.5l-43.1,43c-0.6,0.6-1,0.4-1,0.4
	L330.1,110.3z"/>
<linearGradient id="SVGID_33_" gradientUnits="userSpaceOnUse" x1="370.8065" y1="-833.6414" x2="366.3824" y2="-829.2177" gradientTransform="matrix(1 0 0 -1 -0.1797 -715.4102)">
	<stop  offset="0" style="stop-color:#08406F"/>
	<stop  offset="1" style="stop-color:#60C5F5"/>
</linearGradient>
<path fill="url(#SVGID_33_)" d="M362,118.1l7.3-7.3l5.6,2.3l-0.7,1l-3.8,4.4l-0.3,0.3h-7.7c-0.3,0-0.5-0.3-0.5-0.3
	S361.6,118.5,362,118.1z"/>
<linearGradient id="SVGID_34_" gradientUnits="userSpaceOnUse" x1="229.4577" y1="-811.7681" x2="223.4197" y2="-811.7681" gradientTransform="matrix(1 0 0 -1 -0.1797 -715.4102)">
	<stop  offset="0" style="stop-color:#08406F"/>
	<stop  offset="1" style="stop-color:#60C5F5"/>
</linearGradient>
<path fill="url(#SVGID_34_)" d="M224,117.3l-0.1-38.5c0,0-1.7-2,0.5-5.2c0.7,0,4.2,0.5,4.9,4.7l0,36.7l-4.6,4.1
	C224.7,119.1,224,118.6,224,117.3z"/>
<linearGradient id="SVGID_35_" gradientUnits="userSpaceOnUse" x1="330.3047" y1="-808.5176" x2="325.0923" y2="-808.5176" gradientTransform="matrix(1 0 0 -1 -0.1797 -715.4102)">
	<stop  offset="0" style="stop-color:#08406F"/>
	<stop  offset="1" style="stop-color:#60C5F5"/>
</linearGradient>
<path fill="url(#SVGID_35_)" d="M325.4,119.9l-0.1-48.8c0,0-1.5-2.7,0.9-5.6c0.6,0,3.2,0.5,3.9,4.7v40l-4,10.4
	C326.1,120.6,325.5,120.5,325.4,119.9z"/>
<linearGradient id="SVGID_36_" gradientUnits="userSpaceOnUse" x1="374.9697" y1="-807.8056" x2="368.7252" y2="-807.8056" gradientTransform="matrix(1 0 0 -1 -0.1797 -715.4102)">
	<stop  offset="0" style="stop-color:#08406F"/>
	<stop  offset="1" style="stop-color:#60C5F5"/>
</linearGradient>
<path fill="url(#SVGID_36_)" d="M369.2,110.8V78.1c0,0-2.1-3.4,1.1-6.5c0.7,0,4.1,0.2,4.5,4.3v37.1L369.2,110.8z"/>
<linearGradient id="SVGID_37_" gradientUnits="userSpaceOnUse" x1="440.638" y1="-799.6747" x2="436.2195" y2="-795.2563" gradientTransform="matrix(1 0 0 -1 -0.1797 -715.4102)">
	<stop  offset="0" style="stop-color:#08406F"/>
	<stop  offset="1" style="stop-color:#60C5F5"/>
</linearGradient>
<path fill="url(#SVGID_37_)" d="M448.9,74.8l-13.5,13.5l-3.8,4.8c-3.9-2.5-2-6.9-0.9-7.9l14.1-14.1L448.9,74.8z"/>
<linearGradient id="SVGID_38_" gradientUnits="userSpaceOnUse" x1="472.9207" y1="-809.5082" x2="472.9207" y2="-803.7072" gradientTransform="matrix(1 0 0 -1 -0.1797 -715.4102)">
	<stop  offset="0" style="stop-color:#08406F"/>
	<stop  offset="1" style="stop-color:#60C5F5"/>
</linearGradient>
<path fill="url(#SVGID_38_)" d="M501.6,94.1h-66.4c-2.5-0.2-3.6-1-3.6-1c0-3.6,3.8-4.8,3.8-4.8l77.7,0c0.5,0,0.7,0.4,0.7,0.4
	L501.6,94.1z"/>
<g>
	<path fill="#FFFFFF" d="M0,142.1v-9.5h2.9l1.7,6.5l1.7-6.5h2.9v9.5H7.4v-7.5l-1.9,7.5H3.7l-1.9-7.5v7.5H0z"/>
	<path fill="#FFFFFF" d="M17.2,132.5h1.9v5.2c0,0.8,0,1.4,0.1,1.6c0.1,0.4,0.3,0.7,0.6,0.9s0.7,0.4,1.3,0.4c0.5,0,1-0.1,1.2-0.3
		c0.3-0.2,0.4-0.5,0.5-0.8c0.1-0.3,0.1-0.9,0.1-1.6v-5.3h1.9v5c0,1.1-0.1,1.9-0.2,2.4c-0.1,0.5-0.3,0.9-0.6,1.2
		c-0.3,0.3-0.7,0.6-1.1,0.8c-0.5,0.2-1.1,0.3-1.8,0.3c-0.9,0-1.6-0.1-2.1-0.3c-0.5-0.2-0.8-0.5-1.1-0.8c-0.3-0.3-0.5-0.7-0.5-1.1
		c-0.1-0.5-0.2-1.4-0.2-2.4C17.2,137.6,17.2,132.5,17.2,132.5z"/>
	<path fill="#FFFFFF" d="M33,142.1v-9.4h1.9v7.8h4.8v1.6L33,142.1L33,142.1z"/>
	<path fill="#FFFFFF" d="M48.4,142.1v-7.9h-2.8v-1.6h7.6v1.6h-2.8v7.9H48.4z"/>
	<path fill="#FFFFFF" d="M60.4,142.1v-9.5h1.9v9.5H60.4z"/>
	<path fill="#FFFFFF" d="M70.3,142.1v-9.5h3.1c1.2,0,1.9,0,2.3,0.1c0.5,0.1,1,0.5,1.4,0.9c0.4,0.5,0.6,1.1,0.6,1.9
		c0,0.6-0.1,1.1-0.3,1.5c-0.2,0.4-0.5,0.7-0.8,0.9c-0.3,0.2-0.7,0.4-1,0.5c-0.5,0.1-1.1,0.1-2,0.1h-1.3v3.6L70.3,142.1L70.3,142.1z
		 M72.2,134.1v2.7h1.1c0.8,0,1.3-0.1,1.5-0.1c0.3-0.1,0.5-0.3,0.6-0.5s0.2-0.5,0.2-0.7c0-0.3-0.1-0.6-0.3-0.9
		c-0.2-0.2-0.5-0.4-0.8-0.4c-0.2,0-0.7-0.1-1.4-0.1L72.2,134.1L72.2,134.1z"/>
	<path fill="#FFFFFF" d="M85.4,142.1v-9.4h1.9v7.8h4.8v1.6L85.4,142.1L85.4,142.1z"/>
	<path fill="#FFFFFF" d="M99.6,142.1v-9.5h7.1v1.6h-5.1v2.1h4.8v1.6h-4.8v2.6h5.3v1.6L99.6,142.1L99.6,142.1z"/>
</g>
<g>
	<path fill="#FFFFFF" d="M190,142.1h-2.1l-0.8-2.2h-3.8l-0.8,2.2h-2l3.7-9.5h2L190,142.1z M186.4,138.3l-1.3-3.5l-1.3,3.5H186.4z"/>
	<path fill="#FFFFFF" d="M197.1,142.1v-9.5h4c1,0,1.8,0.1,2.2,0.3c0.5,0.2,0.8,0.5,1.1,0.9c0.3,0.4,0.4,0.9,0.4,1.5
		c0,0.7-0.2,1.3-0.6,1.8c-0.4,0.5-1,0.8-1.9,0.9c0.4,0.2,0.8,0.5,1,0.8c0.3,0.3,0.6,0.8,1.1,1.5l1.2,1.9h-2.3L202,140
		c-0.5-0.7-0.8-1.2-1-1.4c-0.2-0.2-0.4-0.3-0.6-0.4c-0.2-0.1-0.5-0.1-1-0.1H199v4L197.1,142.1L197.1,142.1z M199,136.6h1.4
		c0.9,0,1.5,0,1.7-0.1c0.2-0.1,0.4-0.2,0.5-0.4c0.1-0.2,0.2-0.4,0.2-0.7c0-0.3-0.1-0.6-0.3-0.8c-0.2-0.2-0.4-0.3-0.7-0.4
		c-0.2,0-0.6,0-1.4,0H199L199,136.6L199,136.6z"/>
	<path fill="#FFFFFF" d="M218.9,138.6l1.9,0.6c-0.3,1-0.8,1.8-1.4,2.3c-0.7,0.5-1.5,0.8-2.5,0.8c-1.3,0-2.3-0.4-3.1-1.3
		c-0.8-0.9-1.2-2-1.2-3.5c0-1.6,0.4-2.8,1.2-3.7c0.8-0.9,1.9-1.3,3.2-1.3c1.2,0,2.1,0.3,2.8,1c0.4,0.4,0.8,1,1,1.8l-1.9,0.5
		c-0.1-0.5-0.3-0.9-0.7-1.2c-0.4-0.3-0.8-0.4-1.3-0.4c-0.7,0-1.3,0.3-1.7,0.8c-0.4,0.5-0.7,1.3-0.7,2.5c0,1.2,0.2,2.1,0.6,2.6
		c0.4,0.5,1,0.8,1.7,0.8c0.5,0,0.9-0.2,1.3-0.5C218.5,139.8,218.8,139.3,218.9,138.6z"/>
	<path fill="#FFFFFF" d="M237.2,142.1h-2.1l-0.8-2.2h-3.8l-0.8,2.2h-2l3.7-9.5h2L237.2,142.1z M233.6,138.3l-1.3-3.5l-1.3,3.5H233.6
		z"/>
	<path fill="#FFFFFF" d="M244.3,132.5h3.5c0.8,0,1.4,0.1,1.8,0.2c0.6,0.2,1,0.5,1.4,0.9c0.4,0.4,0.7,0.9,0.9,1.5
		c0.2,0.6,0.3,1.4,0.3,2.3c0,0.8-0.1,1.5-0.3,2c-0.2,0.7-0.6,1.3-1,1.7c-0.3,0.3-0.8,0.6-1.4,0.8c-0.4,0.1-1,0.2-1.7,0.2h-3.6
		L244.3,132.5L244.3,132.5L244.3,132.5z M246.2,134.1v6.3h1.4c0.5,0,0.9,0,1.2-0.1c0.3-0.1,0.6-0.2,0.8-0.4c0.2-0.2,0.4-0.5,0.5-0.9
		c0.1-0.4,0.2-1,0.2-1.7c0-0.7-0.1-1.3-0.2-1.7c-0.1-0.4-0.3-0.7-0.5-0.9c-0.2-0.2-0.5-0.4-0.9-0.4c-0.3-0.1-0.8-0.1-1.6-0.1
		L246.2,134.1L246.2,134.1z"/>
	<path fill="#FFFFFF" d="M260.1,142.1v-9.5h7.1v1.6H262v2.1h4.8v1.6H262v2.6h5.3v1.6L260.1,142.1L260.1,142.1z"/>
</g>
<g>
	<path fill="#FFFFFF" d="M283.2,142.1v-9.5h2.9l1.7,6.5l1.7-6.5h2.9v9.5h-1.8v-7.5l-1.9,7.5h-1.9l-1.9-7.5v7.5H283.2z"/>
	<path fill="#FFFFFF" d="M309,142.1h-2.1l-0.8-2.2h-3.8l-0.8,2.2h-2l3.7-9.5h2L309,142.1z M305.5,138.3l-1.3-3.5l-1.3,3.5H305.5z"/>
	<path fill="#FFFFFF" d="M322.2,138.6l1.9,0.6c-0.3,1-0.8,1.8-1.4,2.3c-0.7,0.5-1.5,0.8-2.5,0.8c-1.3,0-2.3-0.4-3.1-1.3
		c-0.8-0.9-1.2-2-1.2-3.5c0-1.6,0.4-2.8,1.2-3.7c0.8-0.9,1.9-1.3,3.2-1.3c1.2,0,2.1,0.3,2.8,1c0.4,0.4,0.8,1,1,1.8l-1.9,0.5
		c-0.1-0.5-0.4-0.9-0.7-1.2c-0.4-0.3-0.8-0.4-1.3-0.4c-0.7,0-1.3,0.3-1.7,0.8c-0.4,0.5-0.7,1.3-0.7,2.5c0,1.2,0.2,2.1,0.6,2.6
		c0.4,0.5,1,0.8,1.7,0.8c0.5,0,0.9-0.2,1.3-0.5C321.8,139.8,322.1,139.3,322.2,138.6z"/>
	<path fill="#FFFFFF" d="M331.9,142.1v-9.5h1.9v3.7h3.8v-3.7h1.9v9.5h-1.9v-4.2h-3.8v4.2H331.9z"/>
	<path fill="#FFFFFF" d="M347.6,142.1v-9.5h1.9v9.5H347.6z"/>
	<path fill="#FFFFFF" d="M357.5,142.1v-9.5h1.9l3.9,6.4v-6.4h1.8v9.5h-1.9l-3.8-6.2v6.2H357.5z"/>
	<path fill="#FFFFFF" d="M373.2,142.1v-9.5h7.1v1.6h-5.1v2.1h4.8v1.6h-4.8v2.6h5.3v1.6L373.2,142.1L373.2,142.1z"/>
</g>
<g>
	<path fill="#FFFFFF" d="M397.1,142.1v-9.5h7.1v1.6H399v2.1h4.8v1.6H399v2.6h5.3v1.6L397.1,142.1L397.1,142.1z"/>
	<path fill="#FFFFFF" d="M412.1,142.1v-9.5h2.9l1.7,6.5l1.7-6.5h2.9v9.5h-1.8v-7.5l-1.9,7.5h-1.9l-1.9-7.5v7.5H412.1z"/>
	<path fill="#FFFFFF" d="M429.3,132.5h1.9v5.2c0,0.8,0,1.4,0.1,1.6c0.1,0.4,0.3,0.7,0.6,0.9c0.3,0.2,0.7,0.4,1.3,0.4
		c0.5,0,1-0.1,1.2-0.3c0.3-0.2,0.4-0.5,0.5-0.8c0.1-0.3,0.1-0.9,0.1-1.6v-5.3h1.9v5c0,1.1-0.1,1.9-0.2,2.4c-0.1,0.5-0.3,0.9-0.6,1.2
		c-0.3,0.3-0.7,0.6-1.1,0.8c-0.5,0.2-1.1,0.3-1.8,0.3c-0.9,0-1.6-0.1-2.1-0.3c-0.5-0.2-0.8-0.5-1.1-0.8c-0.3-0.3-0.5-0.7-0.5-1.1
		c-0.1-0.5-0.2-1.4-0.2-2.4L429.3,132.5L429.3,132.5L429.3,132.5z"/>
	<path fill="#FFFFFF" d="M445.1,142.1v-9.4h1.9v7.8h4.8v1.6L445.1,142.1L445.1,142.1z"/>
	<path fill="#FFFFFF" d="M467.9,142.1h-2.1l-0.8-2.2h-3.8l-0.8,2.2h-2l3.7-9.5h2L467.9,142.1z M464.3,138.3l-1.3-3.5l-1.3,3.5H464.3
		z"/>
	<path fill="#FFFFFF" d="M476.2,142.1v-7.9h-2.8v-1.6h7.6v1.6h-2.8v7.9H476.2z"/>
	<path fill="#FFFFFF" d="M487.7,137.4c0-1,0.1-1.8,0.4-2.4c0.2-0.5,0.5-0.9,0.9-1.3c0.4-0.4,0.8-0.7,1.2-0.9
		c0.6-0.3,1.3-0.4,2.1-0.4c1.4,0,2.5,0.4,3.4,1.3c0.8,0.9,1.3,2.1,1.3,3.6c0,1.5-0.4,2.7-1.3,3.6c-0.8,0.9-2,1.3-3.4,1.3
		c-1.4,0-2.5-0.4-3.4-1.3S487.7,138.9,487.7,137.4z M489.7,137.3c0,1.1,0.2,1.9,0.7,2.4c0.5,0.6,1.1,0.8,1.9,0.8
		c0.8,0,1.4-0.3,1.9-0.8c0.5-0.6,0.7-1.4,0.7-2.5c0-1.1-0.2-1.9-0.7-2.4c-0.5-0.5-1.1-0.8-1.9-0.8s-1.4,0.3-1.9,0.8
		S489.7,136.2,489.7,137.3z"/>
	<path fill="#FFFFFF" d="M504.5,142.1v-9.5h4c1,0,1.8,0.1,2.2,0.3c0.5,0.2,0.8,0.5,1.1,0.9c0.3,0.4,0.4,0.9,0.4,1.5
		c0,0.7-0.2,1.3-0.6,1.8c-0.4,0.5-1,0.8-1.9,0.9c0.4,0.2,0.8,0.5,1,0.8c0.3,0.3,0.6,0.8,1.1,1.5l1.2,1.9h-2.3l-1.4-2.1
		c-0.5-0.7-0.8-1.2-1-1.4c-0.2-0.2-0.4-0.3-0.6-0.4c-0.2-0.1-0.5-0.1-1-0.1h-0.4v4L504.5,142.1L504.5,142.1L504.5,142.1L504.5,142.1
		L504.5,142.1L504.5,142.1z M506.5,136.6h1.4c0.9,0,1.5,0,1.7-0.1c0.2-0.1,0.4-0.2,0.5-0.4c0.1-0.2,0.2-0.4,0.2-0.7
		c0-0.3-0.1-0.6-0.3-0.8c-0.2-0.2-0.4-0.3-0.7-0.4c-0.2,0-0.6,0-1.4,0h-1.5L506.5,136.6L506.5,136.6z"/>
</g>
</svg>
