<svg xmlns="http://www.w3.org/2000/svg" viewBox="0 0 566.9 157.8" xml:space="preserve"><linearGradient id="a" gradientUnits="userSpaceOnUse" x1="558.129" y1="-795.596" x2="11.771" y2="-795.596" gradientTransform="matrix(1 0 0 -1 -.18 -715.41)"><stop offset="0" style="stop-color:#013a67"/><stop offset="1" style="stop-color:#6cd1ff"/></linearGradient><path fill="url(#a)" d="m491.2 27.7 45.6.2 21.1-22-77.9-.3-73.3 73.6-10.3.6.3-70.8-41.2 42.1-9.9 1.1V9.4l-84.3 83.4-10.5 1.2.9-85.9-73.8 74.8-9.6.1-1.2-71.9-39.8 40.1-11 .5.4-42.8-105.1 106 34.6-.6 45.4-44h8.7l-.4 44.2 36.1-37h8.7v37.7l-39.8 39.5 38.1-.5 75-75.9h10.1v37.3l46.8.3 45.2-45.5 8.7-.6-.1 43 36.1-36.1h8.6l.5 36.4-.7 1.9h109.2l20.9-21.2-67.9-1.1-.6-9.9 10.6-11.1H471l22.2-22.6-13.4-.5v-9.5z"/><linearGradient id="b" gradientUnits="userSpaceOnUse" x1="64.709" y1="-778.788" x2="60.764" y2="-774.844" gradientTransform="matrix(1 0 0 -1 -.18 -715.41)"><stop offset="0" style="stop-color:#08406f"/><stop offset="1" style="stop-color:#60c5f5"/></linearGradient><path fill="url(#b)" d="M114.7 13.2 13.6 114.3l-11.5 4.3s-.6 0-.3-.4L119.3.7c.2-.2.5 0 .5 0l-5.1 12.5z"/><linearGradient id="c" gradientUnits="userSpaceOnUse" x1="123.295" y1="-853.909" x2="119.669" y2="-850.284" gradientTransform="matrix(1 0 0 -1 -.18 -715.41)"><stop offset="0" style="stop-color:#08406f"/><stop offset="1" style="stop-color:#60c5f5"/></linearGradient><path fill="url(#c)" d="m145.8 115.8-37.5 37.5-11.1 4.5s-.6.1-.2-.4l43.9-43.7 4.9 2.1z"/><linearGradient id="d" gradientUnits="userSpaceOnUse" x1="25.724" y1="-834.051" x2="25.724" y2="-829.738" gradientTransform="matrix(1 0 0 -1 -.18 -715.41)"><stop offset="0" style="stop-color:#08406f"/><stop offset="1" style="stop-color:#60c5f5"/></linearGradient><path fill="url(#d)" d="M49 118.6H2.1l11.5-4.3h32.6z"/><linearGradient id="e" gradientUnits="userSpaceOnUse" x1="121.185" y1="-873.181" x2="121.185" y2="-868.724" gradientTransform="matrix(1 0 0 -1 -.18 -715.41)"><stop offset="0" style="stop-color:#08406f"/><stop offset="1" style="stop-color:#60c5f5"/></linearGradient><path fill="url(#e)" d="M144.8 157.8H97.2l11.1-4.5h33.9z"/><linearGradient id="f" gradientUnits="userSpaceOnUse" x1="427.694" y1="-834.023" x2="427.694" y2="-829.556" gradientTransform="matrix(1 0 0 -1 -.18 -715.41)"><stop offset="0" style="stop-color:#08406f"/><stop offset="1" style="stop-color:#60c5f5"/></linearGradient><path fill="url(#f)" d="M484.8 118.6H370.2l3.9-4.5h107.4z"/><linearGradient id="g" gradientUnits="userSpaceOnUse" x1="251.064" y1="-834.894" x2="251.064" y2="-830.415" gradientTransform="matrix(1 0 0 -1 -.18 -715.41)"><stop offset="0" style="stop-color:#08406f"/><stop offset="1" style="stop-color:#60c5f5"/></linearGradient><path fill="url(#g)" d="M277.1 119.5h-51.5c-.3 0-.8-.3-.8-.3l4.6-4.1h45.1l2.6 4.4z"/><linearGradient id="h" gradientUnits="userSpaceOnUse" x1="522.28" y1="-722.186" x2="522.28" y2="-717.323" gradientTransform="matrix(1 0 0 -1 -.18 -715.41)"><stop offset="0" style="stop-color:#08406f"/><stop offset="1" style="stop-color:#60c5f5"/></linearGradient><path fill="url(#h)" d="M477.4 1.9H566c.8 0 .8.3.8.3l-10.6 4.6H481l-3.6-4.9z"/><linearGradient id="i" gradientUnits="userSpaceOnUse" x1="515.013" y1="-746.714" x2="515.013" y2="-742.504" gradientTransform="matrix(1 0 0 -1 -.18 -715.41)"><stop offset="0" style="stop-color:#08406f"/><stop offset="1" style="stop-color:#60c5f5"/></linearGradient><path fill="url(#i)" d="M539 31.3h-46.3l-2.1-4.2h45.3z"/><linearGradient id="j" gradientUnits="userSpaceOnUse" x1="459.37" y1="-790.23" x2="459.37" y2="-786.51" gradientTransform="matrix(1 0 0 -1 -.18 -715.41)"><stop offset="0" style="stop-color:#08406f"/><stop offset="1" style="stop-color:#60c5f5"/></linearGradient><path fill="url(#j)" d="M473.6 74.8h-24.7l-4.1-3.7h25.6z"/><linearGradient id="k" gradientUnits="userSpaceOnUse" x1="490.161" y1="-765.11" x2="490.161" y2="-759.556" gradientTransform="matrix(1 0 0 -1 -.18 -715.41)"><stop offset="0" style="stop-color:#08406f"/><stop offset="1" style="stop-color:#60c5f5"/></linearGradient><path fill="url(#k)" d="M491.8 49.7h-13.6l-1.2-5.5h25.5c.3 0 .4.1.4.1l-11.1 5.4z"/><linearGradient id="l" gradientUnits="userSpaceOnUse" x1="74.39" y1="-808.825" x2="70.847" y2="-805.282" gradientTransform="matrix(1 0 0 -1 -.18 -715.41)"><stop offset="0" style="stop-color:#08406f"/><stop offset="1" style="stop-color:#60c5f5"/></linearGradient><path fill="url(#l)" d="m96.9 70.6-47.9 48-2.8-4.3L92.8 68c2-2.3 4.7-1.7 4.7-1.7l-.6 4.3z"/><linearGradient id="m" gradientUnits="userSpaceOnUse" x1="120.256" y1="-744.369" x2="114.89" y2="-744.369" gradientTransform="matrix(1 0 0 -1 -.18 -715.41)"><stop offset="0" style="stop-color:#08406f"/><stop offset="1" style="stop-color:#60c5f5"/></linearGradient><path fill="url(#m)" d="M114.7 51.7V13.2L119.8.7s.3.1.3.6v53.6l-.3 2.3s-4.5 0-5.1-5.5z"/><linearGradient id="n" gradientUnits="userSpaceOnUse" x1="173.082" y1="-759.96" x2="166.421" y2="-759.96" gradientTransform="matrix(1 0 0 -1 -.18 -715.41)"><stop offset="0" style="stop-color:#08406f"/><stop offset="1" style="stop-color:#60c5f5"/></linearGradient><path fill="url(#n)" d="M172.9 88.8s-6.5 1.9-6.6-5.6c-.1-7.3 0-69.3 0-69.3L171.5 0s.2 0 .2.7v81.8l1.2 6.3z"/><linearGradient id="o" gradientUnits="userSpaceOnUse" x1="255.989" y1="-765.216" x2="249.996" y2="-765.216" gradientTransform="matrix(1 0 0 -1 -.18 -715.41)"><stop offset="0" style="stop-color:#08406f"/><stop offset="1" style="stop-color:#60c5f5"/></linearGradient><path fill="url(#o)" d="M255.8 98.9s-5.9.6-6-6.1V12.7L254.5.6s.6.2.6.9v91.1l.7 6.3z"/><linearGradient id="p" gradientUnits="userSpaceOnUse" x1="349.277" y1="-744.624" x2="343.576" y2="-744.624" gradientTransform="matrix(1 0 0 -1 -.18 -715.41)"><stop offset="0" style="stop-color:#08406f"/><stop offset="1" style="stop-color:#60c5f5"/></linearGradient><path fill="url(#p)" d="M349.1 57.4s-4.9.5-5.7-4.6V13.1L347.8 1s.6.1.6.9v49.7l.7 5.8z"/><linearGradient id="q" gradientUnits="userSpaceOnUse" x1="400.961" y1="-758.445" x2="395.164" y2="-758.445" gradientTransform="matrix(1 0 0 -1 -.18 -715.41)"><stop offset="0" style="stop-color:#08406f"/><stop offset="1" style="stop-color:#60c5f5"/></linearGradient><path fill="url(#q)" d="M400.8 85.3s-4.9.6-5.8-4.4V13.3L399.9.8s.3.2.3 1.7v77.2l.6 5.6z"/><linearGradient id="r" gradientUnits="userSpaceOnUse" x1="101.766" y1="-808.938" x2="96.655" y2="-808.938" gradientTransform="matrix(1 0 0 -1 -.18 -715.41)"><stop offset="0" style="stop-color:#08406f"/><stop offset="1" style="stop-color:#60c5f5"/></linearGradient><path fill="url(#r)" d="M97.8 120.8s-.8-.1-.8-1.1c0-.9-.1-49-.1-49s-1.2-1.6.6-4.4c.5.1 3.5.7 4.1 4.3V111l-3.8 9.8z"/><linearGradient id="s" gradientUnits="userSpaceOnUse" x1="121.249" y1="-813.837" x2="117.696" y2="-810.284" gradientTransform="matrix(1 0 0 -1 -.18 -715.41)"><stop offset="0" style="stop-color:#08406f"/><stop offset="1" style="stop-color:#60c5f5"/></linearGradient><path fill="url(#s)" d="m140.8 78.6-41.9 41.9c-.3.4-1.2.3-1.2.3l3.8-10 36.1-36.1s1.3-1.7 3.8-1.6l-.6 5.5z"/><linearGradient id="t" gradientUnits="userSpaceOnUse" x1="553.437" y1="-732.501" x2="549.768" y2="-728.831" gradientTransform="matrix(1 0 0 -1 -.18 -715.41)"><stop offset="0" style="stop-color:#08406f"/><stop offset="1" style="stop-color:#60c5f5"/></linearGradient><path fill="url(#t)" d="M566.6 3.6 539 31.3l-3.1-4.2 20.3-20.3 10.6-4.5c0-.1.4.8-.2 1.3z"/><linearGradient id="u" gradientUnits="userSpaceOnUse" x1="145.995" y1="-809.878" x2="140.596" y2="-809.878" gradientTransform="matrix(1 0 0 -1 -.18 -715.41)"><stop offset="0" style="stop-color:#08406f"/><stop offset="1" style="stop-color:#60c5f5"/></linearGradient><path fill="url(#u)" d="m140.9 113.6-.1-35s-1.3-2.6.6-5.5c.6 0 3.7.4 4.3 4.1v38.5l-4.8-2.1z"/><linearGradient id="v" gradientUnits="userSpaceOnUse" x1="148.777" y1="-747.009" x2="144.289" y2="-742.521" gradientTransform="matrix(1 0 0 -1 -.18 -715.41)"><stop offset="0" style="stop-color:#08406f"/><stop offset="1" style="stop-color:#60c5f5"/></linearGradient><path fill="url(#v)" d="m166.3 13.9-41.5 41.5c-2 2-5 1.8-5 1.8-1.8-3.5.3-6.1.3-6.1L171 .2c.3-.4.5-.3.5-.3l-5.2 14z"/><linearGradient id="w" gradientUnits="userSpaceOnUse" x1="215.846" y1="-762.321" x2="211.687" y2="-758.163" gradientTransform="matrix(1 0 0 -1 -.18 -715.41)"><stop offset="0" style="stop-color:#08406f"/><stop offset="1" style="stop-color:#60c5f5"/></linearGradient><path fill="url(#w)" d="m249.8 12.8-74.4 74.4c-1.6 1.6-2.5 1.7-2.5 1.7-3.8-1.9-1.2-6.3-1.2-6.3s80.7-80.6 81-81c.9-1.1 1.8-.9 1.8-.9l-4.7 12.1z"/><linearGradient id="x" gradientUnits="userSpaceOnUse" x1="304.315" y1="-767.81" x2="299.931" y2="-763.426" gradientTransform="matrix(1 0 0 -1 -.18 -715.41)"><stop offset="0" style="stop-color:#08406f"/><stop offset="1" style="stop-color:#60c5f5"/></linearGradient><path fill="url(#x)" d="m343.4 13.1-84.2 84.2c-1.4 1.4-3.4 1.6-3.4 1.6-3.1-1.6-.8-6.2-.8-6.2l91-90.9c.9-1.1 1.8-.9 1.8-.9l-4.4 12.2z"/><linearGradient id="y" gradientUnits="userSpaceOnUse" x1="376.971" y1="-746.861" x2="372.763" y2="-742.652" gradientTransform="matrix(1 0 0 -1 -.18 -715.41)"><stop offset="0" style="stop-color:#08406f"/><stop offset="1" style="stop-color:#60c5f5"/></linearGradient><path fill="url(#y)" d="m395 13.3-42.5 42.5c-1.4 1.4-3.4 1.7-3.4 1.7-2.9-1.9-.6-6-.6-6s49.6-49.7 49.9-50.1c1-1 1.4-.7 1.4-.7L395 13.3z"/><linearGradient id="z" gradientUnits="userSpaceOnUse" x1="488.738" y1="-775.264" x2="485.281" y2="-771.807" gradientTransform="matrix(1 0 0 -1 -.18 -715.41)"><stop offset="0" style="stop-color:#08406f"/><stop offset="1" style="stop-color:#60c5f5"/></linearGradient><path fill="url(#z)" d="m503 45.5-29.4 29.4-3.2-3.7 21.4-21.4 11.1-5.4c0-.1.4.2.1 1.1z"/><linearGradient id="A" gradientUnits="userSpaceOnUse" x1="499.808" y1="-819.376" x2="495.848" y2="-815.416" gradientTransform="matrix(1 0 0 -1 -.18 -715.41)"><stop offset="0" style="stop-color:#08406f"/><stop offset="1" style="stop-color:#60c5f5"/></linearGradient><path fill="url(#A)" d="m513.6 90-28.8 28.7-3.3-4.5 20-20 12.3-5.4c.1-.1.5.4-.2 1.2z"/><linearGradient id="B" gradientUnits="userSpaceOnUse" x1="441.837" y1="-761.614" x2="437.553" y2="-757.331" gradientTransform="matrix(1 0 0 -1 -.18 -715.41)"><stop offset="0" style="stop-color:#08406f"/><stop offset="1" style="stop-color:#60c5f5"/></linearGradient><path fill="url(#B)" d="m481.1 6.8-76.9 76.9c-1.4 1.4-3.4 1.6-3.4 1.6-2.4-3.1-.7-6-.7-6l77.3-77.4 3.7 4.9z"/><linearGradient id="C" gradientUnits="userSpaceOnUse" x1="486.859" y1="-756.649" x2="481.746" y2="-751.536" gradientTransform="matrix(1 0 0 -1 -.18 -715.41)"><stop offset="0" style="stop-color:#08406f"/><stop offset="1" style="stop-color:#60c5f5"/></linearGradient><path fill="url(#C)" d="M492.7 31.3 480 44.1c-2.8 2.3-1.8 5.6-1.8 5.6-2.3-.2-3.1-2.1-3.4-3.7-.3-1.6.3-3.4 1.3-4.5l14.5-14.4 2.1 4.2z"/><linearGradient id="D" gradientUnits="userSpaceOnUse" x1="185.978" y1="-832.331" x2="182.335" y2="-828.688" gradientTransform="matrix(1 0 0 -1 -.18 -715.41)"><stop offset="0" style="stop-color:#08406f"/><stop offset="1" style="stop-color:#60c5f5"/></linearGradient><path fill="url(#D)" d="m142.2 153.3 77.9-77.9s1.4-1.9 4.3-1.8l-.5 5.2-79.1 78.9-2.6-4.4z"/><linearGradient id="E" gradientUnits="userSpaceOnUse" x1="303.028" y1="-809.139" x2="299.387" y2="-805.498" gradientTransform="matrix(1 0 0 -1 -.18 -715.41)"><stop offset="0" style="stop-color:#08406f"/><stop offset="1" style="stop-color:#60c5f5"/></linearGradient><path fill="url(#E)" d="M274.3 115 322 67.3s1.4-1.9 4.3-1.8l-.9 5.6-48.3 48.3-2.8-4.4z"/><linearGradient id="F" gradientUnits="userSpaceOnUse" x1="349.889" y1="-813.084" x2="346.379" y2="-809.575" gradientTransform="matrix(1 0 0 -1 -.18 -715.41)"><stop offset="0" style="stop-color:#08406f"/><stop offset="1" style="stop-color:#60c5f5"/></linearGradient><path fill="url(#F)" d="m330.1 110.3 36.8-36.8c.8-.8 1.8-1.8 3.4-1.8l-.1 5.5-43.1 43c-.6.6-1 .4-1 .4l4-10.3z"/><linearGradient id="G" gradientUnits="userSpaceOnUse" x1="370.807" y1="-833.641" x2="366.382" y2="-829.218" gradientTransform="matrix(1 0 0 -1 -.18 -715.41)"><stop offset="0" style="stop-color:#08406f"/><stop offset="1" style="stop-color:#60c5f5"/></linearGradient><path fill="url(#G)" d="m362 118.1 7.3-7.3 5.6 2.3-.7 1-3.8 4.4-.3.3h-7.7c-.3 0-.5-.3-.5-.3s-.3 0 .1-.4z"/><linearGradient id="H" gradientUnits="userSpaceOnUse" x1="229.458" y1="-811.768" x2="223.42" y2="-811.768" gradientTransform="matrix(1 0 0 -1 -.18 -715.41)"><stop offset="0" style="stop-color:#08406f"/><stop offset="1" style="stop-color:#60c5f5"/></linearGradient><path fill="url(#H)" d="m224 117.3-.1-38.5s-1.7-2 .5-5.2c.7 0 4.2.5 4.9 4.7V115l-4.6 4.1s-.7-.5-.7-1.8z"/><linearGradient id="I" gradientUnits="userSpaceOnUse" x1="330.305" y1="-808.518" x2="325.092" y2="-808.518" gradientTransform="matrix(1 0 0 -1 -.18 -715.41)"><stop offset="0" style="stop-color:#08406f"/><stop offset="1" style="stop-color:#60c5f5"/></linearGradient><path fill="url(#I)" d="m325.4 119.9-.1-48.8s-1.5-2.7.9-5.6c.6 0 3.2.5 3.9 4.7v40l-4 10.4s-.6-.1-.7-.7z"/><linearGradient id="J" gradientUnits="userSpaceOnUse" x1="374.97" y1="-807.806" x2="368.725" y2="-807.806" gradientTransform="matrix(1 0 0 -1 -.18 -715.41)"><stop offset="0" style="stop-color:#08406f"/><stop offset="1" style="stop-color:#60c5f5"/></linearGradient><path fill="url(#J)" d="M369.2 110.8V78.1s-2.1-3.4 1.1-6.5c.7 0 4.1.2 4.5 4.3V113l-5.6-2.2z"/><linearGradient id="K" gradientUnits="userSpaceOnUse" x1="440.638" y1="-799.675" x2="436.219" y2="-795.256" gradientTransform="matrix(1 0 0 -1 -.18 -715.41)"><stop offset="0" style="stop-color:#08406f"/><stop offset="1" style="stop-color:#60c5f5"/></linearGradient><path fill="url(#K)" d="m448.9 74.8-13.5 13.5-3.8 4.8c-3.9-2.5-2-6.9-.9-7.9l14.1-14.1 4.1 3.7z"/><linearGradient id="L" gradientUnits="userSpaceOnUse" x1="472.921" y1="-809.508" x2="472.921" y2="-803.707" gradientTransform="matrix(1 0 0 -1 -.18 -715.41)"><stop offset="0" style="stop-color:#08406f"/><stop offset="1" style="stop-color:#60c5f5"/></linearGradient><path fill="url(#L)" d="M501.6 94.1h-66.4c-2.5-.2-3.6-1-3.6-1 0-3.6 3.8-4.8 3.8-4.8h77.7c.5 0 .7.4.7.4l-12.2 5.4z"/><g fill="#c3c6c5"><path d="M0 142.1v-9.5h2.9l1.7 6.5 1.7-6.5h2.9v9.5H7.4v-7.5l-1.9 7.5H3.7l-1.9-7.5v7.5H0zM17.2 132.5h1.9v5.2c0 .8 0 1.4.1 1.6.1.4.3.7.6.9s.7.4 1.3.4c.5 0 1-.1 1.2-.3.3-.2.4-.5.5-.8.1-.3.1-.9.1-1.6v-5.3h1.9v5c0 1.1-.1 1.9-.2 2.4s-.3.9-.6 1.2c-.3.3-.7.6-1.1.8-.5.2-1.1.3-1.8.3-.9 0-1.6-.1-2.1-.3-.5-.2-.8-.5-1.1-.8-.3-.3-.5-.7-.5-1.1-.1-.5-.2-1.4-.2-2.4v-5.2zM33 142.1v-9.4h1.9v7.8h4.8v1.6H33zM48.4 142.1v-7.9h-2.8v-1.6h7.6v1.6h-2.8v7.9h-2zM60.4 142.1v-9.5h1.9v9.5h-1.9zM70.3 142.1v-9.5h3.1c1.2 0 1.9 0 2.3.1.5.1 1 .5 1.4.9.4.5.6 1.1.6 1.9 0 .6-.1 1.1-.3 1.5-.2.4-.5.7-.8.9-.3.2-.7.4-1 .5-.5.1-1.1.1-2 .1h-1.3v3.6h-2zm1.9-8v2.7h1.1c.8 0 1.3-.1 1.5-.1.3-.1.5-.3.6-.5s.2-.5.2-.7c0-.3-.1-.6-.3-.9-.2-.2-.5-.4-.8-.4-.2 0-.7-.1-1.4-.1h-.9zM85.4 142.1v-9.4h1.9v7.8h4.8v1.6h-6.7zM99.6 142.1v-9.5h7.1v1.6h-5.1v2.1h4.8v1.6h-4.8v2.6h5.3v1.6h-7.3z"/></g><g fill="#c3c6c5"><path d="M190 142.1h-2.1l-.8-2.2h-3.8l-.8 2.2h-2l3.7-9.5h2l3.8 9.5zm-3.6-3.8-1.3-3.5-1.3 3.5h2.6zM197.1 142.1v-9.5h4c1 0 1.8.1 2.2.3.5.2.8.5 1.1.9.3.4.4.9.4 1.5 0 .7-.2 1.3-.6 1.8-.4.5-1 .8-1.9.9.4.2.8.5 1 .8.3.3.6.8 1.1 1.5l1.2 1.9h-2.3L202 140c-.5-.7-.8-1.2-1-1.4-.2-.2-.4-.3-.6-.4-.2-.1-.5-.1-1-.1h-.4v4h-1.9zm1.9-5.5h1.4c.9 0 1.5 0 1.7-.1.2-.1.4-.2.5-.4.1-.2.2-.4.2-.7 0-.3-.1-.6-.3-.8-.2-.2-.4-.3-.7-.4H199v2.4zM218.9 138.6l1.9.6c-.3 1-.8 1.8-1.4 2.3-.7.5-1.5.8-2.5.8-1.3 0-2.3-.4-3.1-1.3-.8-.9-1.2-2-1.2-3.5 0-1.6.4-2.8 1.2-3.7.8-.9 1.9-1.3 3.2-1.3 1.2 0 2.1.3 2.8 1 .4.4.8 1 1 1.8l-1.9.5c-.1-.5-.3-.9-.7-1.2-.4-.3-.8-.4-1.3-.4-.7 0-1.3.3-1.7.8-.4.5-.7 1.3-.7 2.5s.2 2.1.6 2.6c.4.5 1 .8 1.7.8.5 0 .9-.2 1.3-.5.4-.6.7-1.1.8-1.8zM237.2 142.1h-2.1l-.8-2.2h-3.8l-.8 2.2h-2l3.7-9.5h2l3.8 9.5zm-3.6-3.8-1.3-3.5-1.3 3.5h2.6zM244.3 132.5h3.5c.8 0 1.4.1 1.8.2.6.2 1 .5 1.4.9.4.4.7.9.9 1.5.2.6.3 1.4.3 2.3 0 .8-.1 1.5-.3 2-.2.7-.6 1.3-1 1.7-.3.3-.8.6-1.4.8-.4.1-1 .2-1.7.2h-3.6l.1-9.6zm1.9 1.6v6.3h1.4c.5 0 .9 0 1.2-.1.3-.1.6-.2.8-.4.2-.2.4-.5.5-.9.1-.4.2-1 .2-1.7s-.1-1.3-.2-1.7c-.1-.4-.3-.7-.5-.9-.2-.2-.5-.4-.9-.4-.3-.1-.8-.1-1.6-.1l-.9-.1zM260.1 142.1v-9.5h7.1v1.6H262v2.1h4.8v1.6H262v2.6h5.3v1.6h-7.2z"/></g><g fill="#c3c6c5"><path d="M283.2 142.1v-9.5h2.9l1.7 6.5 1.7-6.5h2.9v9.5h-1.8v-7.5l-1.9 7.5h-1.9l-1.9-7.5v7.5h-1.7zM309 142.1h-2.1l-.8-2.2h-3.8l-.8 2.2h-2l3.7-9.5h2l3.8 9.5zm-3.5-3.8-1.3-3.5-1.3 3.5h2.6zM322.2 138.6l1.9.6c-.3 1-.8 1.8-1.4 2.3-.7.5-1.5.8-2.5.8-1.3 0-2.3-.4-3.1-1.3-.8-.9-1.2-2-1.2-3.5 0-1.6.4-2.8 1.2-3.7.8-.9 1.9-1.3 3.2-1.3 1.2 0 2.1.3 2.8 1 .4.4.8 1 1 1.8l-1.9.5c-.1-.5-.4-.9-.7-1.2-.4-.3-.8-.4-1.3-.4-.7 0-1.3.3-1.7.8-.4.5-.7 1.3-.7 2.5s.2 2.1.6 2.6c.4.5 1 .8 1.7.8.5 0 .9-.2 1.3-.5.4-.6.7-1.1.8-1.8zM331.9 142.1v-9.5h1.9v3.7h3.8v-3.7h1.9v9.5h-1.9v-4.2h-3.8v4.2h-1.9zM347.6 142.1v-9.5h1.9v9.5h-1.9zM357.5 142.1v-9.5h1.9l3.9 6.4v-6.4h1.8v9.5h-1.9l-3.8-6.2v6.2h-1.9zM373.2 142.1v-9.5h7.1v1.6h-5.1v2.1h4.8v1.6h-4.8v2.6h5.3v1.6h-7.3z"/></g><g fill="#c3c6c5"><path d="M397.1 142.1v-9.5h7.1v1.6H399v2.1h4.8v1.6H399v2.6h5.3v1.6h-7.2zM412.1 142.1v-9.5h2.9l1.7 6.5 1.7-6.5h2.9v9.5h-1.8v-7.5l-1.9 7.5h-1.9l-1.9-7.5v7.5h-1.7zM429.3 132.5h1.9v5.2c0 .8 0 1.4.1 1.6.1.4.3.7.6.9.3.2.7.4 1.3.4.5 0 1-.1 1.2-.3.3-.2.4-.5.5-.8.1-.3.1-.9.1-1.6v-5.3h1.9v5c0 1.1-.1 1.9-.2 2.4s-.3.9-.6 1.2c-.3.3-.7.6-1.1.8-.5.2-1.1.3-1.8.3-.9 0-1.6-.1-2.1-.3-.5-.2-.8-.5-1.1-.8-.3-.3-.5-.7-.5-1.1-.1-.5-.2-1.4-.2-2.4v-5.2zM445.1 142.1v-9.4h1.9v7.8h4.8v1.6h-6.7zM467.9 142.1h-2.1l-.8-2.2h-3.8l-.8 2.2h-2l3.7-9.5h2l3.8 9.5zm-3.6-3.8-1.3-3.5-1.3 3.5h2.6zM476.2 142.1v-7.9h-2.8v-1.6h7.6v1.6h-2.8v7.9h-2zM487.7 137.4c0-1 .1-1.8.4-2.4.2-.5.5-.9.9-1.3s.8-.7 1.2-.9c.6-.3 1.3-.4 2.1-.4 1.4 0 2.5.4 3.4 1.3.8.9 1.3 2.1 1.3 3.6s-.4 2.7-1.3 3.6c-.8.9-2 1.3-3.4 1.3s-2.5-.4-3.4-1.3-1.2-2-1.2-3.5zm2-.1c0 1.1.2 1.9.7 2.4.5.6 1.1.8 1.9.8.8 0 1.4-.3 1.9-.8.5-.6.7-1.4.7-2.5s-.2-1.9-.7-2.4c-.5-.5-1.1-.8-1.9-.8s-1.4.3-1.9.8-.7 1.4-.7 2.5zM504.5 142.1v-9.5h4c1 0 1.8.1 2.2.3.5.2.8.5 1.1.9.3.4.4.9.4 1.5 0 .7-.2 1.3-.6 1.8-.4.5-1 .8-1.9.9.4.2.8.5 1 .8.3.3.6.8 1.1 1.5l1.2 1.9h-2.3l-1.4-2.1c-.5-.7-.8-1.2-1-1.4-.2-.2-.4-.3-.6-.4-.2-.1-.5-.1-1-.1h-.4v4l-1.8-.1zm2-5.5h1.4c.9 0 1.5 0 1.7-.1.2-.1.4-.2.5-.4.1-.2.2-.4.2-.7 0-.3-.1-.6-.3-.8-.2-.2-.4-.3-.7-.4h-2.9l.1 2.4z"/></g></svg>