<svg version="1.2" baseProfile="tiny" xmlns="http://www.w3.org/2000/svg" width="598.189" height="350.26" xml:space="preserve"><path fill="#F4F4F4" d="M243.026 35.035v1.544h109.522v-1.544H243.026zM184.994 91.859v206.096c0 22.536 18.268 40.828 40.804 40.828h143.837c22.533 0 40.827-18.292 40.827-40.828V91.983h-1.545v205.972c0 21.703-17.583 39.284-39.282 39.284H225.798c-21.703 0-39.261-17.581-39.261-39.28V91.863h-1.544l.001-.004z"/><path fill="#F4F4F4" d="M221.309 128.537c-10.8 0-19.569 8.769-19.569 19.569v154.478c0 10.801 8.769 19.569 19.569 19.569H374.15c10.536 0 19.081-8.361 19.497-18.797h.072v-155.25c0-10.8-8.771-19.569-19.57-19.569h-152.84zm0 1.544H374.15c9.966 0 18.024 8.06 18.024 18.025V302.584c0 9.967-8.058 18.025-18.024 18.025H221.309c-9.965 0-18.025-8.059-18.025-18.025V148.106c-.001-9.965 8.06-18.025 18.025-18.025zM225.29 31.367c-24.114 0-43.675 19.561-43.675 43.675 0 24.115 19.561 43.675 43.676 43.675 24.115 0 43.675-19.56 43.675-43.675s-19.56-43.675-43.676-43.675zm0 1.545c23.279 0 42.13 18.851 42.13 42.13 0 23.28-18.851 42.131-42.13 42.131-23.28 0-42.13-18.851-42.13-42.131s18.85-42.13 42.13-42.13zM370.169 31.367c-24.114 0-43.675 19.561-43.675 43.675 0 24.115 19.561 43.675 43.675 43.675 24.112 0 43.674-19.56 43.674-43.675s-19.562-43.675-43.674-43.675zm0 1.545c23.279 0 42.13 18.851 42.13 42.13 0 23.28-18.851 42.131-42.13 42.131-23.28 0-42.131-18.851-42.131-42.131s18.851-42.13 42.131-42.13z"/><path fill="#F4F4F4" d="M181.615 75.621v223.778c0 24.114 19.561 43.674 43.675 43.674h144.874c24.111 0 43.673-19.56 43.673-43.674V76.825h-1.543v222.574c0 23.28-18.854 42.131-42.13 42.131H225.29c-23.277 0-42.129-18.849-42.129-42.128V75.622h-1.544l-.002-.001z"/><path fill="#F4F4F4" d="M297.727 181.669c-32.917 0-59.627 26.709-59.627 59.625s26.709 59.625 59.627 59.625c32.915 0 59.6-26.709 59.6-59.625s-26.685-59.625-59.6-59.625zm0 1.544c32.08 0 58.055 25.999 58.055 58.081s-25.975 58.08-58.055 58.08c-32.084 0-58.083-25.998-58.083-58.08s25.999-58.081 58.083-58.081z"/><path fill="#F4F4F4" d="M297.727 198.54c-23.608 0-42.76 19.151-42.76 42.76 0 23.605 19.152 42.757 42.76 42.757 23.605 0 42.757-19.151 42.757-42.757-.001-23.609-19.152-42.76-42.757-42.76zm0 1.544c22.771 0 41.213 18.443 41.213 41.216 0 22.771-18.442 41.213-41.213 41.213-22.774 0-41.215-18.441-41.215-41.213-.001-22.773 18.44-41.216 41.215-41.216z"/><g fill="#F4F4F4"><path d="M220.186 198.782a6.494 6.494 0 0 1-6.495-6.494l-.001-42.093a6.497 6.497 0 0 1 6.496-6.494h42.09a6.499 6.499 0 0 1 6.494 6.494c-.019 3.645-2.441 5.818-2.475 5.861L226.8 195.551h.28l-1.652 1.368c-1.083.938-2.217 1.866-5.018 1.866l-.224-.003zm-4.952-48.587v42.093a4.957 4.957 0 0 0 4.951 4.951c2.732-.052 3.012-.524 4.228-1.487l40.817-40.815c-.003-.002.1-.089.288-.305.188-.216.442-.541.696-.956.509-.834 1.013-2.025 1.011-3.481a4.958 4.958 0 0 0-4.949-4.949h-42.09a4.958 4.958 0 0 0-4.952 4.949zm10.246 46.675-.545-.547.545.547zM370.031 196.919l.493-.596.545-.547-.545.547-.493.596-.031-.027-40.811-40.812c-.06-.065-2.482-2.239-2.501-5.882a6.496 6.496 0 0 1 6.495-6.496h42.093a6.494 6.494 0 0 1 6.49 6.496l.002 42.093a6.494 6.494 0 0 1-6.492 6.492l-.222.003c-2.803-.001-3.942-.928-5.023-1.867zm5.245.318a4.956 4.956 0 0 0 4.948-4.947l-.003-42.093a4.953 4.953 0 0 0-4.945-4.951h-42.093a4.954 4.954 0 0 0-4.949 4.951c-.008 2.174 1.138 3.783 1.706 4.434.187.216.286.306.315.331l40.789 40.791c1.217.962 1.496 1.435 4.232 1.484z"/></g><path fill="#F4F4F4" d="M225.29 42.998c-17.683 0-32.021 14.361-32.021 32.044 0 17.684 14.337 32.044 32.021 32.044s32.044-14.36 32.044-32.044c0-17.684-14.36-32.044-32.044-32.044zm0 1.544c16.848 0 30.5 13.652 30.5 30.5s-13.652 30.5-30.5 30.5c-16.849 0-30.475-13.652-30.475-30.5s13.625-30.5 30.475-30.5zM370.169 42.998c-17.684 0-32.046 14.361-32.046 32.044 0 17.684 14.362 32.044 32.046 32.044s32.021-14.36 32.021-32.044c0-17.684-14.336-32.044-32.021-32.044zm0 1.544c16.849 0 30.475 13.652 30.475 30.5s-13.626 30.5-30.475 30.5c-16.85 0-30.5-13.652-30.5-30.5s13.65-30.5 30.5-30.5zM226.618 31.392v1.544h139.351v-1.544H226.618zM289.332 5.162v6.997H306.271V5.162H289.332zm1.543 1.544h13.851v3.909h-13.851V6.706zM288.922 15.345v6.997H306.681v-6.997H288.922zm1.545 1.544h14.671v3.91h-14.671v-3.91z"/><path fill="#F4F4F4" d="M288.513 25.527v6.226h1.545v-4.681h15.467v4.681h1.545V25.528h-18.557z"/><g fill="#F4F4F4"><path d="M291.881 16.031V11.4h1.544v4.631h-1.544zM302.164 15.895V11.4h1.546v4.495h-1.546z"/></g><g fill="#F4F4F4"><path d="M291.881 26.35v-4.631h1.544v4.631h-1.544zM302.164 26.215v-4.497h1.546v4.497h-1.546z"/></g></svg>