<svg xmlns="http://www.w3.org/2000/svg" viewBox="0 0 566.9 128.2" xml:space="preserve"><path fill="#c3c6c5" d="m252.6 61.8 3.5 5.3c-.3-.4-.7-.7-1.2-.7s-1 .3-1.2 1l-3.5-5.3c.3-.7.7-1 1.2-1 .5.1 1 .3 1.2.7zM311.4 60.1l3.5 5.3c-.2-.3-.4-.4-.7-.4-.4 0-.7.2-1 .7l-3.5-5.3c.2-.5.6-.7 1-.7.3 0 .6.1.7.4z"/><path fill="#c3c6c5" d="m314.5 41.2 29.8.2c.6 0 4.7.7-.5 2-4.1 1.1-7.4.7-8.8 6l-16 64.5c-1.3 5.8 3.2 10.7 9 12.3 1.3.3 1.4 1.7-.2 1.8l-19.6-.7-23.8.8c-1.7 0-1.8-1.8.1-2.1 5.6-.6 10.5-5.2 11.5-8.9L311.7 61c0-.8-.4-1.3-.9-1.3-.4 0-.7.2-1 .7l-44 63.9c-1.2 2-3.1 3.3-4.8 3.3-1.8 0-3.4-1.5-3.6-5.4L253 62.6c0-.8-.7-1.5-1.4-1.5-.5 0-1 .3-1.2 1l-15.1 47.3c-1.2 3.6-1.3 7.1.1 9.6 1.5 2.6 5.2 5.8 9.6 6.7 1.7.4 1.6 2.1 0 2.2l-15.8-.7-13.3.5c-1.6-.1-1.4-1.6 0-1.9 4.6-1 9.8-5.6 12.2-12.3l19.6-62.9c.8-2.4-.5-5.2-2.9-5.8l-6.1-1.2c-1.1-.1-1.2-1.6 0-1.6l34.7-.3 3.5 54.8 2.5-3.1 33.1-49.2c.5-.5 1.5-2.1 2-3zM359.4 40.9l40 .3c1.9 0 2.8 3.3-1 3.7-4 .4-8.2 3.2-9.2 6.6l-18.7 64.8c-.9 3.4 1.6 9.2 8 9.7 1.1.2 1.1 1.9.1 1.9L355 127l-22.7.7c-1.2 0-.9-1.6.2-1.8 3.1-.6 12.2-4.1 13.9-9.6l20.9-64.7c1.3-4.7-3-6.9-7.9-8.1-1.2-.2-1-2.5 0-2.6z"/><path fill="#c3c6c5" d="M464.1 36.9c4.1 0 8.1.3 12 1.1 2.5.5 5.5 1.6 4.7 3.7L475 56.8c-.5 1.5-1.2 2.5-2 2.5-1.1 0-2.2-1.8-2.6-6.2-.2-2.4.2-11.2-3.1-11.4-.9 0-1.7-.1-2.5-.1-5.4 0-10.7.9-15.4 2.4-18.1 5.8-29.5 15.6-37.1 32.5-7.4 16.2-3.7 33.7 1.5 39.7 3.6 4.1 11.9 6.9 18.3 6.9 3.8 0 6.8-1 7.9-3.2 3.5-8.3 5.1-18.5 4.8-23.2 0-5.6-2.2-6.1-6.4-6.9-3-.3-3.9-2.2 1.6-2.2H467.9c3.2 0 6.6 0 10.1-.1 1 .5.9.9-.1 1.4-6 .9-8.4 2-8.9 4.3-2.3 7.8-4.4 16.4-8.1 24.5-1.3 2.9-7.6 5.6-9.6 6.2-6.4 2.3-16.9 4.1-27 4.1-8.1 0-15.8-1.2-20.8-4.2-18.7-11.4-22.1-33.1-14.4-47.4 11-21.4 45.2-39.5 75-39.5z"/><g opacity=".78" fill="#c3c6c5"><path d="M558.2 127.5v-5h-1.9v-.7h4.5v.7h-1.9v5h-.7zM561.5 127.5v-5.6h1.1l1.3 4c.1.4.2.7.3.8.1-.2.2-.5.3-.9l1.4-3.9h1v5.6h-.7v-4.7l-1.6 4.7h-.7l-1.6-4.8v4.8h-.8z"/></g><linearGradient id="a" gradientUnits="userSpaceOnUse" x1="54.548" y1="-1203.563" x2="54.548" y2="-1136.496" gradientTransform="matrix(1 0 0 -1 8.35 -1077.103)"><stop offset=".06" style="stop-color:#53b848"/><stop offset=".555" style="stop-color:#65ccec"/><stop offset=".583" style="stop-color:#61c3e7"/><stop offset=".688" style="stop-color:#55a7d8"/><stop offset=".793" style="stop-color:#4d92cd"/><stop offset=".898" style="stop-color:#4886c6"/><stop offset="1" style="stop-color:#4682c4"/></linearGradient><path fill="url(#a)" d="M28.5 59.4h23.9l44.9 67.1H73.6z"/><linearGradient id="b" gradientUnits="userSpaceOnUse" x1="66.555" y1="-1203.499" x2="173.012" y2="-1076.628" gradientTransform="matrix(1 0 0 -1 8.35 -1077.103)"><stop offset="0" style="stop-color:#6ebe44"/><stop offset=".001" style="stop-color:#6ebe44"/><stop offset=".245" style="stop-color:#bcda20"/><stop offset=".419" style="stop-color:#eceb09"/><stop offset=".505" style="stop-color:#fff200"/><stop offset=".578" style="stop-color:#fbca08"/><stop offset=".679" style="stop-color:#f79a11"/><stop offset=".775" style="stop-color:#f47419"/><stop offset=".864" style="stop-color:#f1581f"/><stop offset=".941" style="stop-color:#f04822"/><stop offset="1" style="stop-color:#ef4223"/></linearGradient><path fill="url(#b)" d="M158.3 0h23.6L97.6 126.5H75z"/><linearGradient id="c" gradientUnits="userSpaceOnUse" x1="26.058" y1="-1203.562" x2="26.058" y2="-1136.496" gradientTransform="matrix(1 0 0 -1 8.35 -1077.103)"><stop offset=".06" style="stop-color:#53b848"/><stop offset=".555" style="stop-color:#65ccec"/><stop offset=".583" style="stop-color:#61c3e7"/><stop offset=".688" style="stop-color:#55a7d8"/><stop offset=".793" style="stop-color:#4d92cd"/><stop offset=".898" style="stop-color:#4886c6"/><stop offset="1" style="stop-color:#4682c4"/></linearGradient><path fill="url(#c)" d="M0 59.4h23.9l44.9 67.1H45.1z"/><linearGradient id="d" gradientUnits="userSpaceOnUse" x1="38.063" y1="-1203.498" x2="144.521" y2="-1076.628" gradientTransform="matrix(1 0 0 -1 8.35 -1077.103)"><stop offset="0" style="stop-color:#6ebe44"/><stop offset=".001" style="stop-color:#6ebe44"/><stop offset=".245" style="stop-color:#bcda20"/><stop offset=".419" style="stop-color:#eceb09"/><stop offset=".505" style="stop-color:#fff200"/><stop offset=".578" style="stop-color:#fbca08"/><stop offset=".679" style="stop-color:#f79a11"/><stop offset=".775" style="stop-color:#f47419"/><stop offset=".864" style="stop-color:#f1581f"/><stop offset=".941" style="stop-color:#f04822"/><stop offset="1" style="stop-color:#ef4223"/></linearGradient><path fill="url(#d)" d="M129.8 0h23.6L69.1 126.5H46.5z"/><path fill="#c3c6c5" d="m154.3 97.1-11.6 16.5c-3.5 5.4 3.1 11 10.3 12.4.7.5.5 2.2-.4 2.2-.1 0-.2 0-.3-.1-.1-.1-2.9-1.2-9-1.8-1.7-.2-4.6-.7-8.2-.7-1.2 0-2.6.1-3.9.2l-13 1.8c-1.2-.1-1.2-1.6 0-1.9 6.3-.8 13.8-5.5 18.3-11.8l53-73.9c.9-1.3 2.7-2 4.6-2 2.3 0 4.5 1.2 4.5 3.9l1.7 74c.6 6.2 4.7 8.8 10 10.3.7.5.4 1.5-.1 1.6-.3 0-6.8-.1-14.5-1.3-1.8-.3-3.2-.4-4.9-.4-1.5 0-3.2.1-5.6.4-3 .3-1.6.4-13.9.9-.5 0-.9-.1-1-.9.1-.9 1.5-1.3 1.9-1.5 4.9-1.4 7.3-3.8 8.4-9.8 1.2-6.6.9-12.3.7-18.1m-7.9-4.4c2.7 0 5.2 0 7.1.1l-.7-30.8c-.1-.4-.3-.6-.5-.6s-.4.1-.5.4c-6.6 9.3-15.6 20.7-22.1 30-.4.7 0 1 1 1h7.6c2.5 0 5.4-.1 8.1-.1M551.4 126.4c.7.5.4 1.5-.1 1.6-.3 0-6.8-.1-14.5-1.2-1.8-.3-3.3-.4-5-.4-1.5 0-3.2.1-5.6.4-3 .3-1.6.4-13.9.9-.5 0-.9-.1-1-.9.1-.9 1.5-1.3 1.9-1.5 4.9-1.3 7.3-3.8 8.4-9.8 1.2-6.6.8-12.3.7-18.1l-26.6-.2-11.6 16.5c-3.4 5.4 3.1 11 10.3 12.3.7.5.5 2.2-.4 2.2-.1 0-.2 0-.4-.1-.1-.1-2.9-1.2-9-1.8-1.6-.2-4.6-.7-8.2-.7-1.2 0-2.6.1-3.9.2l-13 1.8c-1.2-.1-1.2-1.6 0-1.9 6.3-.8 13.8-5.5 18.3-11.8l53-73.9c.9-1.3 2.7-2 4.6-2 2.3 0 4.5 1.2 4.5 3.9l1.7 74c.4 6.4 4.6 9 9.8 10.5zm-36.6-33.5c2.7 0 5.3 0 7.2.1l-.7-30.8c-.1-.4-.3-.6-.5-.6s-.4.1-.5.4c-6.6 9.3-15.6 20.7-22.1 30-.4.7 0 1 1 1h7.6c2.4-.1 5.3-.1 8-.1"/></svg>