<svg xmlns="http://www.w3.org/2000/svg" width="598.2" height="350.3" xml:space="preserve"><path fill="#F7F7F7" d="M140.3 328.4c-5.1-.7-10-2-14.9-3.5l-.6-.2v-.6c-.3-3.6-.4-7.2-.4-10.8 0-5.2.3-10.4.8-15.5-2.9-1.3-5.7-2.8-8.5-4.4-2.6-1.7-5.4-3.3-7.8-5.4-7.5 4.7-15.6 8.5-24.2 11.6l-.5.2-.4-.4c-3.7-3.6-7-7.6-10-11.6l-.4-.5.3-.5c4.8-7.6 9.8-14.5 15.8-21-1.6-2.7-3.1-5.5-4.3-8.5-1.5-2.9-2.2-6.1-3.3-9-8.6-.7-17.7-2.2-26.4-4.8l-.5-.2-.1-.6c-.8-5-1.2-10-1.2-15.1v-.8l.5-.2c8.1-3.4 16.7-5.9 25.1-7.7.2-3.2 1-6.3 1.5-9.3v-.2c.9-2.9 1.5-6.1 2.7-9.1-6.7-5.6-13.1-12.2-18.5-19.4l-.3-.4.2-.5c2.2-4.7 5.1-9 7.9-13.2l.3-.5.6.2c8.7 2.2 17.1 5 24.9 8.5 2.2-2.2 4.2-4.7 6.8-6.6 2.4-2.2 4.9-4.1 7.6-5.9-2.2-8.7-3.3-17.3-3.6-26.6v-.6l.5-.3c4.6-2.1 9.2-4.4 14.2-5.9l.6-.2.4.4c5.7 6.7 10.8 13.9 15.1 21.4 3.1-.8 6.3-1.1 9.4-1.5 2.4-.2 4.9-.3 7.3-.3h2.2c3.3-8 7.6-16.2 12.7-23.6l.3-.5.5.1c5.1.7 10 2 14.9 3.5l.6.2v.6c.3 3.6.4 7.2.4 10.8 0 5.2-.3 10.5-.8 15.5 2.9 1.3 5.7 2.8 8.5 4.4 2.6 1.7 5.4 3.3 7.8 5.4 7.5-4.7 15.6-8.5 24.2-11.6l.5-.2.4.4c3.7 3.6 7 7.6 10 11.6l.4.5-.3.5c-4.8 7.6-9.8 14.5-15.8 21 1.6 2.7 3.1 5.5 4.3 8.5 1.5 3 2.3 6.1 3.3 9 8.6.7 17.7 2.2 26.4 4.8l.5.2.1.6c.8 5 1.2 10 1.2 15.1V226.6l-.5.2c-8.1 3.4-16.7 5.9-25.1 7.7-.2 3.2-1 6.3-1.5 9.3v.2c-.9 2.9-1.5 6.1-2.7 9.1 6.7 5.6 13.1 12.2 18.5 19.4l.3.4-.2.5c-2.2 4.7-5.1 9-7.9 13.2l-.3.5-.6-.2c-8.7-2.2-17.1-5-24.8-8.5-2.2 2.2-4.2 4.7-6.8 6.6-2.4 2.2-4.9 4.1-7.6 5.9 2.2 8.7 3.3 17.3 3.6 26.6v.6l-.5.3c-4.6 2.1-9.2 4.4-14.2 5.9l-.6.2-.4-.4c-5.7-6.7-10.8-13.9-15.1-21.4-3.1.8-6.3 1.1-9.4 1.5-2.4.1-4.9.3-7.3.3h-2.2c-3.3 8-7.6 16.2-12.7 23.6l-.3.5-.6-.2zm-.3-1.9c5-7.3 9.2-15.4 12.5-23.4l.2-.6h.6c.9 0 1.8.1 2.7.1 2.4 0 4.8-.1 7.2-.3 3.4-.4 6.7-.7 9.8-1.6l.7-.2.3.6c4.2 7.5 9.2 14.6 14.9 21.3 4.4-1.4 8.6-3.4 12.9-5.4-.4-9.2-1.5-17.7-3.7-26.3l-.2-.6.5-.3c2.8-1.8 5.4-3.8 7.9-6.1 2.6-2 4.7-4.6 7.1-7l.4-.4.6.3c7.7 3.5 15.9 6.3 24.5 8.5 2.6-3.9 5.2-7.8 7.2-12-5.5-7.1-11.8-13.5-18.4-19.1l-.5-.4.3-.6c1.3-2.9 1.9-6.2 2.9-9.5.5-3.4 1.4-6.6 1.5-9.8v-.7l.7-.1c8.3-1.7 16.9-4.2 24.9-7.5 0-4.7-.4-9.3-1.1-13.9-8.6-2.5-17.6-4-26.1-4.6h-.6l-.2-.5c-1.2-3.2-1.9-6.5-3.4-9.4-1.2-3.1-2.8-6-4.5-8.8l-.3-.6.4-.5c5.9-6.4 10.9-13.1 15.7-20.7-2.8-3.7-5.8-7.3-9.1-10.6-8.5 3.1-16.4 6.9-23.9 11.6l-.6.4-.5-.4c-2.5-2.1-5.3-3.8-8.1-5.6-2.9-1.6-5.8-3.2-8.9-4.5l-.6-.3.1-.7c.6-5.2.9-10.5.9-15.9 0-3.3-.1-6.7-.4-10-4.5-1.3-9-2.5-13.5-3.2-5 7.3-9.2 15.5-12.5 23.4l-.2.6h-.6c-.9 0-1.8-.1-2.7-.1-2.4 0-4.8.1-7.1.3-3.4.4-6.7.7-9.8 1.6l-.7.2-.3-.6c-4.2-7.5-9.2-14.6-14.9-21.3-4.4 1.4-8.6 3.4-12.9 5.4.4 9.2 1.5 17.7 3.7 26.3l.2.6-.5.4c-2.8 1.8-5.4 3.8-7.9 6.1-2.6 2-4.7 4.6-7.1 7l-.4.4-.6-.2c-7.7-3.5-15.9-6.3-24.5-8.5-2.6 3.9-5.2 7.8-7.2 12 5.5 7.1 11.8 13.5 18.4 19.1l.5.4-.3.6c-1.3 2.9-1.9 6.2-2.9 9.5-.5 3.4-1.4 6.6-1.5 9.8v.7l-.7.1c-8.3 1.7-16.9 4.2-24.9 7.5 0 4.7.4 9.3 1.1 13.9 8.6 2.5 17.6 4 26.1 4.6h.6l.2.5c1.2 3.2 1.9 6.5 3.4 9.4 1.2 3.1 2.8 6 4.5 8.8l.3.6-.4.5c-5.9 6.4-10.9 13.1-15.7 20.7 2.8 3.7 5.8 7.3 9.1 10.6 8.5-3.1 16.4-6.9 23.9-11.6l.6-.3.5.4c2.5 2.1 5.3 3.8 8.1 5.6 2.9 1.6 5.8 3.2 8.9 4.5l.6.3-.1.7c-.6 5.2-.9 10.5-.9 15.9 0 3.3.1 6.7.4 10 4.3 1.1 8.8 2.2 13.4 2.9zm-8.3-58.2c-8.5-5.2-15.7-13-19.6-22.4-2.6-6-3.9-12.4-3.9-18.9 0-3.6.4-7.2 1.1-10.8 2.4-9.9 7.6-18.9 15.3-25.5 7.5-6.9 17.4-10.8 27.4-11.8 1.4-.1 2.8-.2 4.2-.2 8.7 0 17.4 2.4 24.9 6.8 8.5 5.2 15.7 13 19.6 22.5 2.7 6 3.9 12.4 3.9 18.9 0 3.6-.4 7.2-1.1 10.8-2.4 9.9-7.6 18.9-15.3 25.5-7.5 6.9-17.4 10.8-27.4 11.8l-.1-.9.1.9c-1.4.1-2.8.2-4.2.2-8.7-.1-17.5-2.5-24.9-6.9zm20.5-87.7c-9.6 1-19.1 4.8-26.4 11.4-7.4 6.4-12.4 15.1-14.7 24.6-.7 3.4-1.1 6.9-1.1 10.4 0 6.2 1.2 12.4 3.8 18.2 3.7 9 10.6 16.6 18.9 21.6 7.1 4.3 15.6 6.5 24 6.5 1.4 0 2.7-.1 4-.2 9.6-1 19.1-4.8 26.4-11.4 7.4-6.4 12.4-15.1 14.7-24.6.7-3.4 1.1-6.9 1.1-10.4 0-6.2-1.2-12.4-3.8-18.2-3.7-9-10.6-16.6-18.9-21.6-7.1-4.3-15.6-6.5-24-6.5-1.3 0-2.7.1-4 .2z"/><path fill="#F7F7F7" d="M381.1 331.4h-.6l-.2-.6c-2.7-7.9-5-16-6.8-24-3.1-.3-6.2-.6-9.3-1.2-3.1-.5-6.2-1.2-9.3-1.9-4.7 6.9-10 13.7-15.6 20.1l-.4.4-.5-.2c-4.3-1.4-8.6-3-12.8-4.7l-.6-.2v-.6c.4-8.4 1.2-16.6 2.4-24.8-2.8-1.4-5.6-2.9-8.3-4.5-2.7-1.6-5.3-3.3-7.9-5.1-6.9 4.8-14.2 9.1-21.8 13.1l-.5.3-.5-.4c-3.5-2.8-6.9-5.9-10.2-9l-.5-.4.3-.6c3.4-7.7 7.1-15.1 11.2-22.3-2.1-2.3-4.2-4.7-6.1-7.2-1.9-2.5-3.8-5-5.6-7.6-8.2 2-16.5 3.4-25.1 4.3l-.6.1-.3-.5c-2.2-3.9-4.4-7.9-6.2-12.1l-.3-.6.4-.4c5.8-5.9 12.1-11.6 18.5-16.7-1.1-2.9-2.2-5.9-3.1-8.9-1-3-1.7-6.1-2.4-9.1-8.3-1.2-16.7-2.8-24.9-5.1l-.6-.1-.1-.6c-.7-4.5-1.1-9-1.5-13.5v-.6l.6-.3c7.7-3.4 15.4-6.4 23.3-8.9 0-3.1.1-6.3.3-9.4.2-3.2.6-6.3 1-9.4-7.3-4.1-14.5-8.6-21.4-13.7l-.5-.3.1-.6c.9-4.4 2.1-8.8 3.5-13.1l.2-.6h.6c3.9-.2 7.8-.3 11.6-.3 4.4 0 8.9.1 13.3.4 1.1-3 2.4-5.8 3.7-8.6 1.3-2.8 2.8-5.6 4.4-8.4-5.4-6.4-10.4-13.3-15-20.5l-.3-.5.3-.5c2.5-3.8 5.2-7.4 8-11l.4-.5.6.2c8 2.7 15.7 5.6 23.2 9.1 2.1-2.3 4.3-4.5 6.6-6.7 2.3-2.1 4.6-4.3 7.1-6.2-2.7-8-4.9-16.1-6.7-24.6l-.1-.6.5-.3c3.7-2.6 7.5-5.1 11.4-7.3l.5-.3.5.4c6.4 5.3 12.6 11 18.4 16.8 2.8-1.3 5.6-2.7 8.6-3.9 2.9-1.3 5.9-2.3 8.9-3.3.4-8.3 1.3-16.9 2.8-25.3l.1-.6.6-.1c4.4-1.1 8.9-2 13.3-2.7l.6-.1.3.5c4.1 7.4 7.8 14.7 11 22.3 3.1-.3 6.3-.5 9.4-.5h3.2c2.1 0 4.1 0 6.2.2 3.4-7.7 7.2-15.3 11.6-22.6l.3-.5.6.1c4.5.6 9 1.3 13.4 2.3l.6.1.1.6c1.2 8.3 1.9 16.6 2.2 24.8 3 .8 6 1.8 8.9 2.9 3 1.1 5.9 2.3 8.7 3.6 5.9-5.9 12.3-11.6 19.1-16.9l.5-.4.5.3c4 2.1 7.9 4.5 11.6 7l.5.3-.1.6c-1.9 8.2-4.2 16.1-6.9 23.9 2.5 1.9 4.9 3.9 7.3 5.9 2.3 2.1 4.6 4.2 6.8 6.5 7.7-3.5 15.6-6.3 23.9-8.9l.6-.2.4.6c2.9 3.5 5.7 7 8.3 10.7l.4.5-.3.5c-4.7 6.9-9.8 13.6-15 19.8 1.6 2.7 3.2 5.4 4.6 8.2 1.5 2.8 2.8 5.7 4.1 8.5 3.2-.2 6.5-.2 9.7-.2 5.2 0 10.5.2 15.7.6h.6l.2.5c1.5 4.3 2.8 8.6 3.9 13l.1.6-.5.4c-6.9 4.7-13.9 9.1-21.2 13 .6 3.1 1 6.2 1.4 9.3.3 3.1.6 6.2.7 9.4 8 2.6 15.8 5.8 23.6 9.5l.5.3v.6c-.2 4.5-.5 9-1.1 13.5l-.1.6-.6.1c-8.1 2-16.4 3.5-24.5 4.5-.6 3.1-1.2 6.1-2.1 9.2-.8 3.1-1.7 6.1-2.7 9.1 6.4 5.3 12.7 11.2 18.5 17.4l.4.4-.2.5c-1.8 4.2-3.8 8.3-5.9 12.2l-.3.5-.6-.1c-8.3-1.1-16.4-2.7-24.5-4.7-1.6 2.7-3.4 5.3-5.2 7.8-1.9 2.5-3.8 5-5.8 7.4 4.2 7.4 7.7 14.9 11 22.9l.2.5-.4.4c-3.2 3.2-6.5 6.3-9.9 9.3l-.5.4-.5-.3c-7.4-4.1-14.4-8.4-21.1-13.2-2.5 1.9-5.1 3.7-7.7 5.4-2.6 1.7-5.3 3.3-8.1 4.8 1.2 8.3 1.9 16.8 2 25.4v.6l-.5.2c-4.1 1.9-8.3 3.6-12.6 5.1l-.6.2-.4-.5c-5.4-6.4-10.4-13.1-14.9-19.9-3 .9-6.1 1.6-9.1 2.2-3.1.6-6.2 1.2-9.3 1.6-1.9 8.2-4.3 16.3-7.3 24.4l-.2.6h-.6c-3.2.1-6.3.3-9.5.3-1.3.5-2.7.5-4 .4zm4-1.7c2.9 0 5.9-.1 8.8-.2 2.9-8.1 5.3-16.1 7.2-24.2l.1-.6.6-.1c3.3-.4 6.5-1 9.8-1.6 3.2-.7 6.5-1.4 9.6-2.4l.6-.2.4.6c4.5 6.8 9.5 13.5 14.8 19.8 3.8-1.3 7.6-2.9 11.3-4.6-.1-8.5-.8-16.9-2-25.2l-.1-.6.5-.3c2.9-1.6 5.7-3.3 8.5-5.1 2.8-1.8 5.5-3.7 8.1-5.7l.5-.4.5.4c6.7 4.7 13.7 9.1 21 13.1 3.1-2.7 6-5.5 8.9-8.4-3.3-7.9-6.9-15.4-11-22.7l-.3-.5.4-.5c2.2-2.5 4.1-5.1 6.1-7.8 1.9-2.7 3.8-5.4 5.5-8.3l.3-.6.6.2c8 2 16 3.6 24.3 4.7 1.9-3.6 3.7-7.3 5.3-11-5.8-6.2-12.1-12-18.4-17.2l-.5-.4.2-.6c1-3.2 2.1-6.3 2.9-9.5.9-3.2 1.5-6.4 2.2-9.7l.1-.6.6-.1c8.1-1 16.3-2.5 24.3-4.4.5-4 .8-8.1.9-12.2-7.8-3.6-15.5-6.8-23.5-9.4l-.6-.2v-.6c0-3.3-.4-6.6-.7-9.8-.5-3.3-.8-6.6-1.5-9.8l-.1-.7.6-.3c7.3-3.9 14.3-8.2 21.1-12.9-1-4-2.2-7.9-3.5-11.7-5-.4-10-.6-15-.6-3.4 0-6.9.1-10.2.3h-.6l-.2-.6c-1.4-3-2.7-6.1-4.3-9-1.5-2.9-3.2-5.8-4.9-8.6l-.3-.5.4-.5c5.3-6.2 10.3-12.8 15-19.7-2.4-3.3-4.9-6.5-7.5-9.7-8.2 2.6-16 5.4-23.7 8.9l-.6.3-.4-.5c-2.3-2.4-4.7-4.6-7.2-6.8-2.6-2.2-5.1-4.3-7.7-6.2l-.5-.4.2-.6c2.7-7.8 5-15.6 6.9-23.8-3.4-2.2-6.9-4.3-10.5-6.3-6.7 5.2-13 10.9-18.9 16.8l-.4.4-.6-.3c-3-1.4-6.1-2.6-9.2-3.8-3.1-1.1-6.3-2.2-9.4-3l-.6-.2v-.7c-.3-8.2-1-16.4-2.1-24.6-4-.9-8-1.5-12.1-2.1-4.4 7.3-8.2 14.8-11.5 22.5l-.3.6h-.6c-2.2-.2-4.5-.2-6.7-.2h-3.2c-3.3.1-6.6.2-9.9.6l-.7.1-.3-.6c-3.2-7.6-6.8-14.9-10.9-22.2-4 .7-8 1.4-12 2.4-1.4 8.3-2.3 16.9-2.7 25.1v.6l-.6.2c-3.2 1.1-6.3 2.1-9.3 3.4-3.1 1.2-6 2.7-9 4.1l-.6.3-.4-.5c-5.7-5.8-11.8-11.5-18.2-16.8-3.5 2-6.9 4.3-10.3 6.6 1.8 8.4 3.9 16.5 6.7 24.4l.2.6-.5.4c-2.6 2-5 4.3-7.4 6.5-2.4 2.3-4.7 4.7-6.9 7.1l-.4.5-.6-.3c-7.5-3.4-15.1-6.4-23-9.1-2.5 3.2-4.9 6.5-7.2 9.9 4.6 7.2 9.6 14 15 20.3l.4.5-.3.5c-1.6 2.9-3.2 5.8-4.6 8.8-1.4 3-2.8 6-3.9 9.1l-.2.6h-.7c-4.6-.3-9.2-.4-13.8-.4-3.6 0-7.3.1-10.9.3-1.2 3.9-2.3 7.8-3.2 11.8 6.9 5 14 9.5 21.3 13.5l.5.3-.1.6c-.4 3.3-.9 6.6-1.1 9.9-.3 3.3-.3 6.6-.3 9.9v.6l-.6.2c-7.8 2.5-15.5 5.4-23.1 8.8.3 4.1.7 8.1 1.3 12.1 8.2 2.2 16.6 3.8 24.8 4.9l.6.1.1.6c.8 3.2 1.5 6.5 2.6 9.6.9 3.2 2.1 6.3 3.2 9.4l.2.6-.5.4c-6.3 5.1-12.6 10.7-18.4 16.6 1.7 3.7 3.6 7.3 5.6 10.9 8.5-1 16.8-2.4 24.9-4.4l.6-.2.3.5c1.8 2.8 3.8 5.4 5.8 8 2 2.6 4.2 5.1 6.4 7.5l.4.5-.3.6c-4.1 7.1-7.8 14.4-11.2 22.1 3 2.8 6 5.5 9.2 8.1 7.6-4 14.8-8.3 21.6-13.1l.5-.4.5.4c2.7 1.9 5.5 3.7 8.3 5.4 2.9 1.7 5.8 3.3 8.7 4.7l.6.3-.1.7c-1.3 8.1-2.1 16.3-2.5 24.6 3.8 1.6 7.6 3 11.5 4.3 5.6-6.3 10.8-13.1 15.5-20l.3-.5.6.1c3.3.7 6.5 1.5 9.8 2 3.2.6 6.5.9 9.8 1.3l.6.1.1.6c1.8 7.9 4 16 6.7 23.8 1.6.4 2.7.4 3.8.4zM368.8 278l.1-.9-.1.9c-8.8-1.5-17.5-4.1-25.6-7.9l-.9-.4 25-41.6.7.2c5.6 1.9 11.5 3 17.7 3 .7 0 1.4 0 2.1-.1h.7l11.7 47-1 .1c-4.5.6-9.1.9-13.7.9-5.6.1-11.2-.3-16.7-1.2zm16.7-.4c4.2 0 8.3-.3 12.5-.8l-10.9-43.6h-1.4c-6.2 0-12.1-1-17.6-2.9l-23.2 38.6c7.8 3.4 15.9 5.9 24.3 7.3 5.3.9 10.8 1.4 16.3 1.4zm22.8-51.2.6-.3c6.1-2.9 11.6-7 16.1-11.9l.5-.5 41.6 25-.6.8c-7.1 9.2-15.7 17.2-25.5 23.5-6.3 4.1-13.1 7.5-20.2 10.1l-.9.3-11.6-47zm12.9 44.6c6.6-2.5 13-5.7 18.9-9.5 9.3-6 17.6-13.6 24.4-22.3l-38.7-23.3c-4.4 4.7-9.7 8.6-15.5 11.5l10.9 43.6zm-97.3-12.3c-7-5.3-13.3-11.4-18.7-18.3-6.5-8.2-11.7-17.5-15.3-27.2l-.4-.9 47.4-11.8.3.6c2.9 6.1 7 11.6 11.9 16.1l.5.5-24.5 40.8-.5.8-.7-.6zm.6-.7.5-.7-.5.7zm-17.9-18.7c5.1 6.5 11 12.3 17.6 17.4l23.3-38.7c-4.7-4.4-8.6-9.7-11.5-15.5l-44.1 11c3.6 9.2 8.5 17.9 14.7 25.8zM436 196.2l.2-.7c1.9-5.6 3-11.5 3-17.7 0-.7 0-1.4-.1-2.1v-.7l47.5-11.8.1 1c.1.5.2 1 .2 1.6.4 3.8.6 7.6.6 11.5 0 8.8-1.1 17.5-3.3 26-1.5 5.9-3.6 11.7-6.2 17.2l-.4.9-41.6-25.2zm40.9 22.5c2.4-5.2 4.3-10.5 5.7-16 2.2-8.3 3.3-16.9 3.3-25.5 0-3.8-.2-7.5-.6-11.3 0-.2 0-.4-.1-.6l-44.2 11v1.4c0 6.2-1 12.1-2.9 17.6l38.8 23.4zm-118.3-40.9c0-14.9 12.1-27 27-27s27 12.1 27 27-12.1 27-27 27.1V203c14 0 25.2-11.3 25.3-25.3 0-14-11.3-25.2-25.3-25.3-14 0-25.2 11.3-25.3 25.3 0 14 11.3 25.2 25.3 25.3v1.8c-14.9 0-27-12.1-27-27zm-74.2 13.6c-.7-4.8-1-9.6-1-14.4 0-2.4.1-4.8.3-7.2.9-12.1 3.9-23.9 8.9-34.9l.4-.9 42.3 25.4-.3.6c-1.9 5.6-3 11.5-3 17.7 0 .7 0 1.4.1 2.1v.7l-46.6 11.6-1 .2-.1-.9zm.8-.1.9-.1-.9.1zm.2-21.4c-.2 2.4-.3 4.7-.3 7.1 0 4.4.3 8.8.9 13.2l44.3-11v-1.4c0-6.2 1-12.1 2.9-17.6l-39.3-23.7c-4.9 10.5-7.7 21.9-8.5 33.4zM434 154.5c-2.9-6.1-7-11.6-11.9-16.1l-.5-.5 25-41.5.5-.9.8.6c1.7 1.3 3.4 2.7 5.1 4.1 9.5 8.3 17.4 18.4 23.2 29.5 2.1 4.1 4 8.3 5.5 12.6l.3.9-47.6 11.8-.4-.5zm1.3-1.4 44.3-11c-1.5-3.9-3.1-7.7-5.1-11.4-5.7-10.9-13.5-20.8-22.8-29-1.4-1.2-2.8-2.3-4.2-3.4l-23.7 39.4c4.7 4.3 8.6 9.5 11.5 15.4zm-131.9-36.7.6-.8c3.4-4.5 7.1-8.7 11.2-12.6 9.1-8.7 19.9-15.6 31.5-20.4 1.1-.5 2.3-.9 3.4-1.3l.9-.3 12 48.1-.6.3c-6.1 2.9-11.6 7-16.1 11.9l-.5.5-42.4-25.4zm42 23.2c4.4-4.7 9.7-8.6 15.5-11.5l-11.1-44.8c-.8.3-1.6.6-2.4 1-11.4 4.7-22 11.5-31 20l-.6-.6.6.6c-3.8 3.6-7.2 7.5-10.4 11.6l39.4 23.7zm58-12.5c-5.6-1.9-11.5-3-17.7-3-.7 0-1.4 0-2.1.1h-.7l-12-48.2 1-.1c3.9-.5 7.8-.8 11.7-.9h2c11.9 0 23.8 2.1 35 6.2 2.8 1 5.5 2.2 8.2 3.4l.9.4-25.5 42.4-.8-.3zm-.1-1.9L427 85.7c-2.3-1.1-4.7-2.1-7.1-2.9-11-4-22.6-6.1-34.3-6.1h-2v-.9.9c-3.5.1-7 .3-10.5.8l11.2 44.8h1.4c6.1 0 12 1.1 17.6 2.9z"/></svg>