<?xml version="1.0" encoding="utf-8"?>
<!-- Generator: Adobe Illustrator 18.0.0, SVG Export Plug-In . SVG Version: 6.00 Build 0)  -->
<!DOCTYPE svg PUBLIC "-//W3C//DTD SVG 1.1//EN" "http://www.w3.org/Graphics/SVG/1.1/DTD/svg11.dtd">
<svg version="1.1" id="Layer_3" xmlns="http://www.w3.org/2000/svg" xmlns:xlink="http://www.w3.org/1999/xlink" x="0px" y="0px"
	 width="598.2px" height="350.3px" viewBox="0 0 598.2 350.3" enable-background="new 0 0 598.2 350.3" xml:space="preserve">
<path fill="#F7F7F7" d="M140.3,328.4c-5.1-0.7-10-2-14.9-3.5l0,0l-0.6-0.2l0-0.6c-0.3-3.6-0.4-7.2-0.4-10.8l0,0
	c0-5.2,0.3-10.4,0.8-15.5l0,0c-2.9-1.3-5.7-2.8-8.5-4.4l0,0c-2.6-1.7-5.4-3.3-7.8-5.4l0,0c-7.5,4.7-15.6,8.5-24.2,11.6l0,0l-0.5,0.2
	l-0.4-0.4c-3.7-3.6-7-7.6-10-11.6l0,0l-0.4-0.5l0.3-0.5c4.8-7.6,9.8-14.5,15.8-21l0,0c-1.6-2.7-3.1-5.5-4.3-8.5l0,0
	c-1.5-2.9-2.2-6.1-3.3-9l0,0c-8.6-0.7-17.7-2.2-26.4-4.8l0,0l-0.5-0.2l-0.1-0.6c-0.8-5-1.2-10-1.2-15.1l0,0c0-0.1,0-0.2,0-0.2l0,0
	l0-0.6l0.5-0.2c8.1-3.4,16.7-5.9,25.1-7.7l0,0c0.2-3.2,1-6.3,1.5-9.3l0,0l0-0.1l0-0.1c0.9-2.9,1.5-6.1,2.7-9.1l0,0
	c-6.7-5.6-13.1-12.2-18.5-19.4l0,0l-0.3-0.4l0.2-0.5c2.2-4.7,5.1-9,7.9-13.2l0,0l0.3-0.5l0.6,0.2c8.7,2.2,17.1,5,24.9,8.5l0,0
	c2.2-2.2,4.2-4.7,6.8-6.6l0,0c2.4-2.2,4.9-4.1,7.6-5.9l0,0c-2.2-8.7-3.3-17.3-3.6-26.6l0,0l0-0.6l0.5-0.3c4.6-2.1,9.2-4.4,14.2-5.9
	l0,0l0.6-0.2l0.4,0.4c5.7,6.7,10.8,13.9,15.1,21.4l0,0c3.1-0.8,6.3-1.1,9.4-1.5l0,0c2.4-0.2,4.9-0.3,7.3-0.3l0,0c0.7,0,1.5,0,2.2,0
	l0,0c3.3-8,7.6-16.2,12.7-23.6l0,0l0.3-0.5l0.5,0.1c5.1,0.7,10,2,14.9,3.5l0,0l0.6,0.2l0,0.6c0.3,3.6,0.4,7.2,0.4,10.8l0,0
	c0,5.2-0.3,10.5-0.8,15.5l0,0c2.9,1.3,5.7,2.8,8.5,4.4l0,0c2.6,1.7,5.4,3.3,7.8,5.4l0,0c7.5-4.7,15.6-8.5,24.2-11.6l0,0l0.5-0.2
	l0.4,0.4c3.7,3.6,7,7.6,10,11.6l0,0l0.4,0.5l-0.3,0.5c-4.8,7.6-9.8,14.5-15.8,21l0,0c1.6,2.7,3.1,5.5,4.3,8.5l0,0
	c1.5,3,2.3,6.1,3.3,9l0,0c8.6,0.7,17.7,2.2,26.4,4.8l0,0l0.5,0.2l0.1,0.6c0.8,5,1.2,10,1.2,15.1l0,0c0,0.1,0,0.2,0,0.3l0,0v0.6
	l-0.5,0.2c-8.1,3.4-16.7,5.9-25.1,7.7l0,0c-0.2,3.2-1,6.3-1.5,9.3l0,0l0,0.1l0,0.1c-0.9,2.9-1.5,6.1-2.7,9.1l0,0
	c6.7,5.6,13.1,12.2,18.5,19.4l0,0l0.3,0.4l-0.2,0.5c-2.2,4.7-5.1,9-7.9,13.2l0,0l-0.3,0.5l-0.6-0.2c-8.7-2.2-17.1-5-24.8-8.5l0,0
	c-2.2,2.2-4.2,4.7-6.8,6.6l0,0c-2.4,2.2-4.9,4.1-7.6,5.9l0,0c2.2,8.7,3.3,17.3,3.6,26.6l0,0l0,0.6l-0.5,0.3
	c-4.6,2.1-9.2,4.4-14.2,5.9l0,0l-0.6,0.2l-0.4-0.4c-5.7-6.7-10.8-13.9-15.1-21.4l0,0c-3.1,0.8-6.3,1.1-9.4,1.5l0,0l0,0l0,0
	c-2.4,0.1-4.9,0.3-7.3,0.3l0,0c-0.7,0-1.5,0-2.2,0l0,0c-3.3,8-7.6,16.2-12.7,23.6l0,0l-0.3,0.5L140.3,328.4L140.3,328.4z M140,326.5
	c5-7.3,9.2-15.4,12.5-23.4l0,0l0.2-0.6l0.6,0c0.9,0,1.8,0.1,2.7,0.1l0,0c2.4,0,4.8-0.1,7.2-0.3l0,0c3.4-0.4,6.7-0.7,9.8-1.6l0,0
	l0.7-0.2l0.3,0.6c4.2,7.5,9.2,14.6,14.9,21.3l0,0c4.4-1.4,8.6-3.4,12.9-5.4l0,0c-0.4-9.2-1.5-17.7-3.7-26.3l0,0l-0.2-0.6l0.5-0.3
	c2.8-1.8,5.4-3.8,7.9-6.1l0,0c2.6-2,4.7-4.6,7.1-7l0,0l0.4-0.4l0.6,0.3c7.7,3.5,15.9,6.3,24.5,8.5l0,0c2.6-3.9,5.2-7.8,7.2-12l0,0
	c-5.5-7.1-11.8-13.5-18.4-19.1l0,0l-0.5-0.4l0.3-0.6c1.3-2.9,1.9-6.2,2.9-9.5l0,0c0.5-3.4,1.4-6.6,1.5-9.8l0,0l0-0.7l0.7-0.1
	c8.3-1.7,16.9-4.2,24.9-7.5l0,0c0-4.7-0.4-9.3-1.1-13.9l0,0c-8.6-2.5-17.6-4-26.1-4.6l0,0l-0.6,0l-0.2-0.5c-1.2-3.2-1.9-6.5-3.4-9.4
	l0,0l0,0l0,0c-1.2-3.1-2.8-6-4.5-8.8l0,0l-0.3-0.6l0.4-0.5c5.9-6.4,10.9-13.1,15.7-20.7l0,0c-2.8-3.7-5.8-7.3-9.1-10.6l0,0
	c-8.5,3.1-16.4,6.9-23.9,11.6l0,0l-0.6,0.4l-0.5-0.4c-2.5-2.1-5.3-3.8-8.1-5.6l0,0c-2.9-1.6-5.8-3.2-8.9-4.5l0,0l-0.6-0.3l0.1-0.7
	c0.6-5.2,0.9-10.5,0.9-15.9l0,0c0-3.3-0.1-6.7-0.4-10l0,0c-4.5-1.3-9-2.5-13.5-3.2l0,0c-5,7.3-9.2,15.5-12.5,23.4l0,0l-0.2,0.6
	l-0.6,0c-0.9,0-1.8-0.1-2.7-0.1l0,0c-2.4,0-4.8,0.1-7.1,0.3l0,0c-3.4,0.4-6.7,0.7-9.8,1.6l0,0l-0.7,0.2l-0.3-0.6
	c-4.2-7.5-9.2-14.6-14.9-21.3l0,0c-4.4,1.4-8.6,3.4-12.9,5.4l0,0c0.4,9.2,1.5,17.7,3.7,26.3l0,0l0.2,0.6l-0.5,0.4
	c-2.8,1.8-5.4,3.8-7.9,6.1l0,0c-2.6,2-4.7,4.6-7.1,7l0,0l-0.4,0.4l-0.6-0.2c-7.7-3.5-15.9-6.3-24.5-8.5l0,0c-2.6,3.9-5.2,7.8-7.2,12
	l0,0c5.5,7.1,11.8,13.5,18.4,19.1l0,0l0.5,0.4l-0.3,0.6c-1.3,2.9-1.9,6.2-2.9,9.5l0,0c-0.5,3.4-1.4,6.6-1.5,9.8l0,0l0,0.7l-0.7,0.1
	c-8.3,1.7-16.9,4.2-24.9,7.5l0,0c0,4.7,0.4,9.3,1.1,13.9l0,0c8.6,2.5,17.6,4,26.1,4.6l0,0l0.6,0l0.2,0.5c1.2,3.2,1.9,6.5,3.4,9.4
	l0,0l0,0l0,0c1.2,3.1,2.8,6,4.5,8.8l0,0l0.3,0.6l-0.4,0.5c-5.9,6.4-10.9,13.1-15.7,20.7l0,0c2.8,3.7,5.8,7.3,9.1,10.6l0,0
	c8.5-3.1,16.4-6.9,23.9-11.6l0,0l0.6-0.3l0.5,0.4c2.5,2.1,5.3,3.8,8.1,5.6l0,0c2.9,1.6,5.8,3.2,8.9,4.5l0,0l0.6,0.3l-0.1,0.7
	c-0.6,5.2-0.9,10.5-0.9,15.9l0,0c0,3.3,0.1,6.7,0.4,10l0,0C130.9,324.7,135.4,325.8,140,326.5L140,326.5z M131.7,268.3
	c-8.5-5.2-15.7-13-19.6-22.4l0,0c-2.6-6-3.9-12.4-3.9-18.9l0,0c0-3.6,0.4-7.2,1.1-10.8l0,0c2.4-9.9,7.6-18.9,15.3-25.5l0,0
	c7.5-6.9,17.4-10.8,27.4-11.8l0,0c1.4-0.1,2.8-0.2,4.2-0.2l0,0c8.7,0,17.4,2.4,24.9,6.8l0,0c8.5,5.2,15.7,13,19.6,22.5l0,0
	c2.7,6,3.9,12.4,3.9,18.9l0,0c0,3.6-0.4,7.2-1.1,10.8l0,0c-2.4,9.9-7.6,18.9-15.3,25.5l0,0c-7.5,6.9-17.4,10.8-27.4,11.8l0,0
	l-0.1-0.9l0.1,0.9c-1.4,0.1-2.8,0.2-4.2,0.2l0,0C147.9,275.1,139.1,272.7,131.7,268.3L131.7,268.3z M152.2,180.6
	c-9.6,1-19.1,4.8-26.4,11.4l0,0c-7.4,6.4-12.4,15.1-14.7,24.6l0,0c-0.7,3.4-1.1,6.9-1.1,10.4l0,0c0,6.2,1.2,12.4,3.8,18.2l0,0
	c3.7,9,10.6,16.6,18.9,21.6l0,0c7.1,4.3,15.6,6.5,24,6.5l0,0c1.4,0,2.7-0.1,4-0.2l0,0v0c9.6-1,19.1-4.8,26.4-11.4l0,0
	c7.4-6.4,12.4-15.1,14.7-24.6l0,0c0.7-3.4,1.1-6.9,1.1-10.4l0,0c0-6.2-1.2-12.4-3.8-18.2l0,0c-3.7-9-10.6-16.6-18.9-21.6l0,0
	c-7.1-4.3-15.6-6.5-24-6.5l0,0C154.9,180.4,153.5,180.5,152.2,180.6L152.2,180.6z"/>
<path fill="#F7F7F7" d="M381.1,331.4l-0.6,0l-0.2-0.6c-2.7-7.9-5-16-6.8-24l0,0c-3.1-0.3-6.2-0.6-9.3-1.2l0,0
	c-3.1-0.5-6.2-1.2-9.3-1.9l0,0c-4.7,6.9-10,13.7-15.6,20.1l0,0l-0.4,0.4l-0.5-0.2c-4.3-1.4-8.6-3-12.8-4.7l0,0l-0.6-0.2l0-0.6
	c0.4-8.4,1.2-16.6,2.4-24.8l0,0c-2.8-1.4-5.6-2.9-8.3-4.5l0,0c-2.7-1.6-5.3-3.3-7.9-5.1l0,0c-6.9,4.8-14.2,9.1-21.8,13.1l0,0
	l-0.5,0.3l-0.5-0.4c-3.5-2.8-6.9-5.9-10.2-9l0,0l-0.5-0.4l0.3-0.6c3.4-7.7,7.1-15.1,11.2-22.3l0,0c-2.1-2.3-4.2-4.7-6.1-7.2l0,0
	c-1.9-2.5-3.8-5-5.6-7.6l0,0c-8.2,2-16.5,3.4-25.1,4.3l0,0l-0.6,0.1l-0.3-0.5c-2.2-3.9-4.4-7.9-6.2-12.1l0,0l-0.3-0.6l0.4-0.4
	c5.8-5.9,12.1-11.6,18.5-16.7l0,0c-1.1-2.9-2.2-5.9-3.1-8.9l0,0c-1-3-1.7-6.1-2.4-9.1l0,0c-8.3-1.2-16.7-2.8-24.9-5.1l0,0l-0.6-0.1
	l-0.1-0.6c-0.7-4.5-1.1-9-1.5-13.5l0,0l0-0.6l0.6-0.3c7.7-3.4,15.4-6.4,23.3-8.9l0,0c0-3.1,0.1-6.3,0.3-9.4l0,0
	c0.2-3.2,0.6-6.3,1-9.4l0,0c-7.3-4.1-14.5-8.6-21.4-13.7l0,0l-0.5-0.3l0.1-0.6c0.9-4.4,2.1-8.8,3.5-13.1l0,0l0.2-0.6l0.6,0
	c3.9-0.2,7.8-0.3,11.6-0.3l0,0c4.4,0,8.9,0.1,13.3,0.4l0,0c1.1-3,2.4-5.8,3.7-8.6l0,0c1.3-2.8,2.8-5.6,4.4-8.4l0,0
	c-5.4-6.4-10.4-13.3-15-20.5l0,0l-0.3-0.5l0.3-0.5c2.5-3.8,5.2-7.4,8-11l0,0l0.4-0.5l0.6,0.2c8,2.7,15.7,5.6,23.2,9.1l0,0
	c2.1-2.3,4.3-4.5,6.6-6.7l0,0c2.3-2.1,4.6-4.3,7.1-6.2l0,0c-2.7-8-4.9-16.1-6.7-24.6l0,0l-0.1-0.6l0.5-0.3c3.7-2.6,7.5-5.1,11.4-7.3
	l0,0l0.5-0.3l0.5,0.4c6.4,5.3,12.6,11,18.4,16.8l0,0c2.8-1.3,5.6-2.7,8.6-3.9l0,0c2.9-1.3,5.9-2.3,8.9-3.3l0,0
	c0.4-8.3,1.3-16.9,2.8-25.3l0,0l0.1-0.6l0.6-0.1c4.4-1.1,8.9-2,13.3-2.7l0,0l0.6-0.1l0.3,0.5c4.1,7.4,7.8,14.7,11,22.3l0,0
	c3.1-0.3,6.3-0.5,9.4-0.5l0,0c1.1,0,2.1,0,3.2,0l0,0c2.1,0,4.1,0,6.2,0.2l0,0c3.4-7.7,7.2-15.3,11.6-22.6l0,0l0.3-0.5l0.6,0.1
	c4.5,0.6,9,1.3,13.4,2.3l0,0l0.6,0.1l0.1,0.6c1.2,8.3,1.9,16.6,2.2,24.8l0,0c3,0.8,6,1.8,8.9,2.9l0,0c3,1.1,5.9,2.3,8.7,3.6l0,0
	c5.9-5.9,12.3-11.6,19.1-16.9l0,0l0.5-0.4l0.5,0.3c4,2.1,7.9,4.5,11.6,7l0,0l0.5,0.3l-0.1,0.6c-1.9,8.2-4.2,16.1-6.9,23.9l0,0
	c2.5,1.9,4.9,3.9,7.3,5.9l0,0c2.3,2.1,4.6,4.2,6.8,6.5l0,0c7.7-3.5,15.6-6.3,23.9-8.9l0,0l0.6-0.2L503,77c2.9,3.5,5.7,7,8.3,10.7
	l0,0l0.4,0.5l-0.3,0.5c-4.7,6.9-9.8,13.6-15,19.8l0,0c1.6,2.7,3.2,5.4,4.6,8.2l0,0c1.5,2.8,2.8,5.7,4.1,8.5l0,0
	c3.2-0.2,6.5-0.2,9.7-0.2l0,0c5.2,0,10.5,0.2,15.7,0.6l0,0l0.6,0l0.2,0.5c1.5,4.3,2.8,8.6,3.9,13l0,0l0.1,0.6l-0.5,0.4
	c-6.9,4.7-13.9,9.1-21.2,13l0,0c0.6,3.1,1,6.2,1.4,9.3l0,0c0.3,3.1,0.6,6.2,0.7,9.4l0,0c8,2.6,15.8,5.8,23.6,9.5l0,0l0.5,0.3l0,0.6
	c-0.2,4.5-0.5,9-1.1,13.5l0,0l-0.1,0.6l-0.6,0.1c-8.1,2-16.4,3.5-24.5,4.5l0,0c-0.6,3.1-1.2,6.1-2.1,9.2l0,0
	c-0.8,3.1-1.7,6.1-2.7,9.1l0,0c6.4,5.3,12.7,11.2,18.5,17.4l0,0l0.4,0.4l-0.2,0.5c-1.8,4.2-3.8,8.3-5.9,12.2l0,0l-0.3,0.5l-0.6-0.1
	c-8.3-1.1-16.4-2.7-24.5-4.7l0,0c-1.6,2.7-3.4,5.3-5.2,7.8l0,0c-1.9,2.5-3.8,5-5.8,7.4l0,0c4.2,7.4,7.7,14.9,11,22.9l0,0l0.2,0.5
	l-0.4,0.4c-3.2,3.2-6.5,6.3-9.9,9.3l0,0l-0.5,0.4l-0.5-0.3c-7.4-4.1-14.4-8.4-21.1-13.2l0,0c-2.5,1.9-5.1,3.7-7.7,5.4l0,0
	c-2.6,1.7-5.3,3.3-8.1,4.8l0,0c1.2,8.3,1.9,16.8,2,25.4l0,0l0,0.6l-0.5,0.2c-4.1,1.9-8.3,3.6-12.6,5.1l0,0l-0.6,0.2l-0.4-0.5
	c-5.4-6.4-10.4-13.1-14.9-19.9l0,0c-3,0.9-6.1,1.6-9.1,2.2l0,0c-3.1,0.6-6.2,1.2-9.3,1.6l0,0c-1.9,8.2-4.3,16.3-7.3,24.4l0,0
	l-0.2,0.6l-0.6,0c-3.2,0.1-6.3,0.3-9.5,0.3l0,0C383.8,331.5,382.4,331.5,381.1,331.4L381.1,331.4z M385.1,329.7
	c2.9,0,5.9-0.1,8.8-0.2l0,0c2.9-8.1,5.3-16.1,7.2-24.2l0,0l0.1-0.6l0.6-0.1c3.3-0.4,6.5-1,9.8-1.6l0,0c3.2-0.7,6.5-1.4,9.6-2.4l0,0
	l0.6-0.2l0.4,0.6c4.5,6.8,9.5,13.5,14.8,19.8l0,0c3.8-1.3,7.6-2.9,11.3-4.6l0,0c-0.1-8.5-0.8-16.9-2-25.2l0,0l-0.1-0.6l0.5-0.3
	c2.9-1.6,5.7-3.3,8.5-5.1l0,0c2.8-1.8,5.5-3.7,8.1-5.7l0,0l0.5-0.4l0.5,0.4c6.7,4.7,13.7,9.1,21,13.1l0,0c3.1-2.7,6-5.5,8.9-8.4l0,0
	c-3.3-7.9-6.9-15.4-11-22.7l0,0l-0.3-0.5l0.4-0.5c2.2-2.5,4.1-5.1,6.1-7.8l0,0c1.9-2.7,3.8-5.4,5.5-8.3l0,0l0.3-0.6l0.6,0.2
	c8,2,16,3.6,24.3,4.7l0,0c1.9-3.6,3.7-7.3,5.3-11l0,0c-5.8-6.2-12.1-12-18.4-17.2l0,0l-0.5-0.4l0.2-0.6c1-3.2,2.1-6.3,2.9-9.5l0,0
	c0.9-3.2,1.5-6.4,2.2-9.7l0,0l0.1-0.6l0.6-0.1c8.1-1,16.3-2.5,24.3-4.4l0,0c0.5-4,0.8-8.1,0.9-12.2l0,0c-7.8-3.6-15.5-6.8-23.5-9.4
	l0,0l-0.6-0.2l0-0.6c0-3.3-0.4-6.6-0.7-9.8l0,0c-0.5-3.3-0.8-6.6-1.5-9.8l0,0l-0.1-0.7l0.6-0.3c7.3-3.9,14.3-8.2,21.1-12.9l0,0
	c-1-4-2.2-7.9-3.5-11.7l0,0c-5-0.4-10-0.6-15-0.6l0,0c-3.4,0-6.9,0.1-10.2,0.3l0,0l-0.6,0l-0.2-0.6c-1.4-3-2.7-6.1-4.3-9l0,0
	c-1.5-2.9-3.2-5.8-4.9-8.6l0,0l-0.3-0.5l0.4-0.5c5.3-6.2,10.3-12.8,15-19.7l0,0c-2.4-3.3-4.9-6.5-7.5-9.7l0,0
	c-8.2,2.6-16,5.4-23.7,8.9l0,0l-0.6,0.3l-0.4-0.5c-2.3-2.4-4.7-4.6-7.2-6.8l0,0c-2.6-2.2-5.1-4.3-7.7-6.2l0,0l-0.5-0.4l0.2-0.6
	c2.7-7.8,5-15.6,6.9-23.8l0,0c-3.4-2.2-6.9-4.3-10.5-6.3l0,0c-6.7,5.2-13,10.9-18.9,16.8l0,0l-0.4,0.4l-0.6-0.3
	c-3-1.4-6.1-2.6-9.2-3.8l0,0c-3.1-1.1-6.3-2.2-9.4-3l0,0l-0.6-0.2l0-0.7c-0.3-8.2-1-16.4-2.1-24.6l0,0c-4-0.9-8-1.5-12.1-2.1l0,0
	c-4.4,7.3-8.2,14.8-11.5,22.5l0,0l-0.3,0.6l-0.6,0c-2.2-0.2-4.5-0.2-6.7-0.2l0,0c-1.1,0-2.1,0-3.2,0l0,0c-3.3,0.1-6.6,0.2-9.9,0.6
	l0,0l-0.7,0.1l-0.3-0.6c-3.2-7.6-6.8-14.9-10.9-22.2l0,0c-4,0.7-8,1.4-12,2.4l0,0c-1.4,8.3-2.3,16.9-2.7,25.1l0,0l0,0.6l-0.6,0.2
	c-3.2,1.1-6.3,2.1-9.3,3.4l0,0c-3.1,1.2-6,2.7-9,4.1l0,0l-0.6,0.3l-0.4-0.5c-5.7-5.8-11.8-11.5-18.2-16.8l0,0
	c-3.5,2-6.9,4.3-10.3,6.6l0,0c1.8,8.4,3.9,16.5,6.7,24.4l0,0l0.2,0.6l-0.5,0.4c-2.6,2-5,4.3-7.4,6.5l0,0c-2.4,2.3-4.7,4.7-6.9,7.1
	l0,0l-0.4,0.5l-0.6-0.3c-7.5-3.4-15.1-6.4-23-9.1l0,0c-2.5,3.2-4.9,6.5-7.2,9.9l0,0c4.6,7.2,9.6,14,15,20.3l0,0l0.4,0.5l-0.3,0.5
	c-1.6,2.9-3.2,5.8-4.6,8.8l0,0c-1.4,3-2.8,6-3.9,9.1l0,0l-0.2,0.6l-0.7,0c-4.6-0.3-9.2-0.4-13.8-0.4l0,0c-3.6,0-7.3,0.1-10.9,0.3
	l0,0c-1.2,3.9-2.3,7.8-3.2,11.8l0,0c6.9,5,14,9.5,21.3,13.5l0,0l0.5,0.3l-0.1,0.6c-0.4,3.3-0.9,6.6-1.1,9.9l0,0
	c-0.3,3.3-0.3,6.6-0.3,9.9l0,0l0,0.6l-0.6,0.2c-7.8,2.5-15.5,5.4-23.1,8.8l0,0c0.3,4.1,0.7,8.1,1.3,12.1l0,0
	c8.2,2.2,16.6,3.8,24.8,4.9l0,0l0.6,0.1l0.1,0.6c0.8,3.2,1.5,6.5,2.6,9.6l0,0c0.9,3.2,2.1,6.3,3.2,9.4l0,0l0.2,0.6l-0.5,0.4
	c-6.3,5.1-12.6,10.7-18.4,16.6l0,0c1.7,3.7,3.6,7.3,5.6,10.9l0,0c8.5-1,16.8-2.4,24.9-4.4l0,0l0.6-0.2l0.3,0.5
	c1.8,2.8,3.8,5.4,5.8,8l0,0c2,2.6,4.2,5.1,6.4,7.5l0,0l0.4,0.5l-0.3,0.6c-4.1,7.1-7.8,14.4-11.2,22.1l0,0c3,2.8,6,5.5,9.2,8.1l0,0
	c7.6-4,14.8-8.3,21.6-13.1l0,0l0.5-0.4l0.5,0.4c2.7,1.9,5.5,3.7,8.3,5.4l0,0c2.9,1.7,5.8,3.3,8.7,4.7l0,0l0.6,0.3l-0.1,0.7
	c-1.3,8.1-2.1,16.3-2.5,24.6l0,0c3.8,1.6,7.6,3,11.5,4.3l0,0c5.6-6.3,10.8-13.1,15.5-20l0,0l0.3-0.5l0.6,0.1c3.3,0.7,6.5,1.5,9.8,2
	l0,0c3.2,0.6,6.5,0.9,9.8,1.3l0,0l0.6,0.1l0.1,0.6c1.8,7.9,4,16,6.7,23.8l0,0C382.9,329.7,384,329.7,385.1,329.7L385.1,329.7z
	 M368.8,278l0.1-0.9L368.8,278c-8.8-1.5-17.5-4.1-25.6-7.9l0,0l-0.9-0.4l25-41.6l0.7,0.2c5.6,1.9,11.5,3,17.7,3l0,0
	c0.7,0,1.4,0,2.1-0.1l0,0l0.7,0l11.7,47l-1,0.1c-4.5,0.6-9.1,0.9-13.7,0.9l0,0C379.9,279.3,374.3,278.9,368.8,278L368.8,278z
	 M385.5,277.6c4.2,0,8.3-0.3,12.5-0.8l0,0l-10.9-43.6c-0.5,0-1,0-1.4,0l0,0c-6.2,0-12.1-1-17.6-2.9l0,0l-23.2,38.6
	c7.8,3.4,15.9,5.9,24.3,7.3l0,0l0,0C374.5,277.1,380,277.6,385.5,277.6L385.5,277.6z M408.3,226.4l0.6-0.3c6.1-2.9,11.6-7,16.1-11.9
	l0,0l0.5-0.5l41.6,25l-0.6,0.8c-7.1,9.2-15.7,17.2-25.5,23.5l0,0c-6.3,4.1-13.1,7.5-20.2,10.1l0,0l-0.9,0.3L408.3,226.4L408.3,226.4
	z M421.2,271c6.6-2.5,13-5.7,18.9-9.5l0,0c9.3-6,17.6-13.6,24.4-22.3l0,0l-38.7-23.3c-4.4,4.7-9.7,8.6-15.5,11.5l0,0L421.2,271
	L421.2,271z M323.9,258.7c-7-5.3-13.3-11.4-18.7-18.3l0,0c-6.5-8.2-11.7-17.5-15.3-27.2l0,0l-0.4-0.9l47.4-11.8l0.3,0.6
	c2.9,6.1,7,11.6,11.9,16.1l0,0l0.5,0.5l-24.5,40.8l-0.5,0.8L323.9,258.7L323.9,258.7z M324.5,258l0.5-0.7L324.5,258L324.5,258z
	 M306.6,239.3c5.1,6.5,11,12.3,17.6,17.4l0,0l23.3-38.7c-4.7-4.4-8.6-9.7-11.5-15.5l0,0l-44.1,11
	C295.5,222.7,300.4,231.4,306.6,239.3L306.6,239.3z M436,196.2l0.2-0.7c1.9-5.6,3-11.5,3-17.7l0,0c0-0.7,0-1.4-0.1-2.1l0,0l0-0.7
	l47.5-11.8l0.1,1c0.1,0.5,0.2,1,0.2,1.6l0,0c0.4,3.8,0.6,7.6,0.6,11.5l0,0c0,8.8-1.1,17.5-3.3,26l0,0c-1.5,5.9-3.6,11.7-6.2,17.2
	l0,0l-0.4,0.9L436,196.2L436,196.2z M476.9,218.7c2.4-5.2,4.3-10.5,5.7-16l0,0c2.2-8.3,3.3-16.9,3.3-25.5l0,0
	c0-3.8-0.2-7.5-0.6-11.3l0,0c0-0.2,0-0.4-0.1-0.6l0,0l-44.2,11c0,0.5,0,1,0,1.4l0,0c0,6.2-1,12.1-2.9,17.6l0,0L476.9,218.7
	L476.9,218.7z M358.6,177.8c0-14.9,12.1-27,27-27l0,0c14.9,0,27,12.1,27,27l0,0c0,14.9-12.1,27-27,27.1l0,0v-0.9V203
	c14,0,25.2-11.3,25.3-25.3l0,0c0-14-11.3-25.2-25.3-25.3l0,0c-14,0-25.2,11.3-25.3,25.3l0,0c0,14,11.3,25.2,25.3,25.3l0,0v0.9v0.9
	C370.7,204.8,358.6,192.7,358.6,177.8L358.6,177.8z M284.4,191.4c-0.7-4.8-1-9.6-1-14.4l0,0c0-2.4,0.1-4.8,0.3-7.2l0,0
	c0.9-12.1,3.9-23.9,8.9-34.9l0,0l0.4-0.9l42.3,25.4L335,160c-1.9,5.6-3,11.5-3,17.7l0,0c0,0.7,0,1.4,0.1,2.1l0,0l0,0.7l-46.6,11.6
	l-1,0.2L284.4,191.4L284.4,191.4z M285.2,191.3l0.9-0.1L285.2,191.3L285.2,191.3z M285.4,169.9c-0.2,2.4-0.3,4.7-0.3,7.1l0,0
	c0,4.4,0.3,8.8,0.9,13.2l0,0l44.3-11c0-0.5,0-1,0-1.4l0,0c0-6.2,1-12.1,2.9-17.6l0,0l-39.3-23.7C289,147,286.2,158.4,285.4,169.9
	L285.4,169.9z M434,154.5c-2.9-6.1-7-11.6-11.9-16.1l0,0l-0.5-0.5l25-41.5l0.5-0.9l0.8,0.6c1.7,1.3,3.4,2.7,5.1,4.1l0,0
	c9.5,8.3,17.4,18.4,23.2,29.5l0,0c2.1,4.1,4,8.3,5.5,12.6l0,0l0.3,0.9l-47.6,11.8L434,154.5L434,154.5z M435.3,153.1l44.3-11
	c-1.5-3.9-3.1-7.7-5.1-11.4l0,0c-5.7-10.9-13.5-20.8-22.8-29l0,0c-1.4-1.2-2.8-2.3-4.2-3.4l0,0l-23.7,39.4
	C428.5,142,432.4,147.2,435.3,153.1L435.3,153.1z M303.4,116.4l0.6-0.8c3.4-4.5,7.1-8.7,11.2-12.6l0,0c9.1-8.7,19.9-15.6,31.5-20.4
	l0,0c1.1-0.5,2.3-0.9,3.4-1.3l0,0L351,81l12,48.1l-0.6,0.3c-6.1,2.9-11.6,7-16.1,11.9l0,0l-0.5,0.5L303.4,116.4L303.4,116.4z
	 M345.4,139.6c4.4-4.7,9.7-8.6,15.5-11.5l0,0l-11.1-44.8c-0.8,0.3-1.6,0.6-2.4,1l0,0c-11.4,4.7-22,11.5-31,20l0,0l-0.6-0.6l0.6,0.6
	c-3.8,3.6-7.2,7.5-10.4,11.6l0,0L345.4,139.6L345.4,139.6z M403.4,127.1c-5.6-1.9-11.5-3-17.7-3l0,0c-0.7,0-1.4,0-2.1,0.1l0,0
	l-0.7,0l-12-48.2l1-0.1c3.9-0.5,7.8-0.8,11.7-0.9l0,0v0c0.7,0,1.4,0,2,0l0,0c11.9,0,23.8,2.1,35,6.2l0,0c2.8,1,5.5,2.2,8.2,3.4l0,0
	l0.9,0.4l-25.5,42.4L403.4,127.1L403.4,127.1z M403.3,125.2L427,85.7c-2.3-1.1-4.7-2.1-7.1-2.9l0,0c-11-4-22.6-6.1-34.3-6.1l0,0
	c-0.7,0-1.3,0-2,0l0,0l0-0.9l0,0.9c-3.5,0.1-7,0.3-10.5,0.8l0,0l11.2,44.8c0.5,0,1,0,1.4,0l0,0C391.8,122.3,397.7,123.4,403.3,125.2
	L403.3,125.2z"/>
</svg>
