<svg xmlns="http://www.w3.org/2000/svg" viewBox="-432.03 1.72 1000.01 247.09" xml:space="preserve"><path fill="#010101" d="M565.28 231.59a5580.142 5580.142 0 0 1-39-48.31c-4.76-5.97-11.1-8.99-18.84-8.99h-.23c-5.16.04-10.34.04-14.28.04l-11.58-.01c-3.06 0-6.12 0-9.2.02-1.16-8.19-6.83-12.83-15.94-12.83l-5.66-.01c-3.74-.01-7.48-.01-11.23-.01-5.7 0-10.54.01-14.96.02.05-4.06.05-7.83 0-11.37 5.52.03 10.24.04 14.67.04 6.24 0 11.89-.03 17.28-.09 3.15-.03 6.19-.75 8.55-2.02 3.39-1.82 5.9-5.26 7.09-9.68 1.33-4.97.72-10.25-1.66-14.12-2.02-3.29-6.04-7.21-13.7-7.22l-5.33-.01c-3.98-.01-7.96-.01-11.94-.01-5.67 0-10.5.01-14.94.03.05-3.42.05-6.67 0-9.84 5.56.03 10.3.05 14.72.05 6.21 0 11.82-.03 17.16-.09 3.18-.03 6.26-.75 8.68-2 7.87-4.09 7.58-12.51 7.48-15.67-.31-9.24-6.43-15.23-15.56-15.24l-9.62-.02c-7.03-.02-14.06-.03-21.09-.03-7.17 0-13.49.02-19.31.05-2.56.02-5.32.71-7.76 1.95-7.79 3.98-7.78 12.05-7.78 14.7.01 11.46.01 22.91.02 34.37 0 16.05.01 32.63.04 48.99-1.72-.02-3.6-.03-5.71-.03-1.84 0-3.67.01-5.5.02-1.37.01-2.74.01-4.11.02v-20c0-24.72-.01-49.44.02-74.16.01-9.11-4.77-13.02-8.78-14.7-2.96-1.24-6.11-1.39-9.08-1.44-.15 0-.29-.01-.43-.01-10.42 0-16.39 6.05-16.39 16.6v14.83c-.01 25.87-.01 52.58.04 78.91-11.06-.03-22.56-.04-34.21-.04-10.75 0-21.5.01-32.25.03.05-17.92.05-36.1 0-54.14 4.88.02 10.2.03 16.79.03 3.43 0 18.34-.01 18.34-.01 10 0 16.22-6.2 16.22-16.18.01-18.15.01-36.3 0-54.45-.01-9.96-6.23-16.15-16.24-16.15-9.27 0-18.53-.01-27.79-.01H256.1c-10.53 0-16.57 6.03-16.57 16.54v124.34c-7.53-.01-15.05-.02-22.58-.02-8.23 0-16.46.01-24.7.02v-.29c1.79.02 3.71.04 5.88.04 2.24 0 4.48-.01 6.72-.02l3.42-.02c9.98-.04 16.19-6.26 16.19-16.23.01-18.82 0-37.65 0-56.47V90.67c0-10.27-6.17-16.4-16.5-16.4H141.3c-10.51 0-16.53 6.05-16.54 16.6-.01 22.14-.01 44.28 0 66.41 0 10.77 5.9 16.72 16.62 16.74l3.87.01c1.9.01 3.8.01 5.7.01 1.92 0 3.64-.01 5.23-.02v.3c-8.28-.03-16.83-.04-26.04-.04-8.44 0-16.89.01-25.35.03-1.14 0-1.79-.3-2.57-1.16-5.46-6.05-10.93-12.09-16.4-18.14 0 0-7.24-7.99-7.32-8.08 1.83 0 3.66.01 5.49.01 3.68 0 7.36-.01 11.04-.03 9.04-.05 15.4-6.18 15.48-14.92.12-13.99.12-28.38 0-42.8-.08-8.75-6.35-14.88-15.26-14.9l-5.15-.01c-8.01-.02-16.01-.04-24.01-.04-7.36 0-13.89.02-19.94.06-2.53.02-5.3.75-7.79 2.05-5.04 2.64-7.59 7.44-7.59 14.26 0 10.45-.01 20.89-.02 31.33-.02 17.17-.03 34.89.01 52.38-2.37-.05-4.83-.08-7.45-.08-2.59 0-5.37.03-8.43.08.06-35.26.06-71.55.01-107.97 5.79.04 11.6.06 17.3.06 6.81 0 13.67-.03 20.39-.09 2.21-.02 5.47-.37 8.46-1.91 7.9-4.06 7.71-12.24 7.64-15.32-.22-9.5-6.37-15.65-15.67-15.65-10.2-.01-20.4-.01-30.6-.02-13.23-.01-26.47-.02-39.71-.02-13.02 0-26.04.01-39.07.03-2.63.01-5.49.73-7.86 1.98-6.59 3.5-8.96 10.19-7.05 19.89 1.32 6.7 7.21 11.04 15.02 11.05 6.21.01 12.42.02 18.63.02 6.69 0 12.8-.01 18.59-.03-.05 33.45-.05 68.84-.01 107.95-2.36-.02-4.78-.03-7.22-.03-2.51 0-5.12.01-7.81.03-1.23-8.16-6.98-12.77-16.17-12.77-3.49 0-6.98-.01-10.47-.02-4.02-.01-8.04-.02-12.06-.02-3.35 0-6.39.01-9.22.02.06-3.72.06-7.53 0-11.38 5.18.03 9.97.05 14.59.05 6.1 0 11.75-.03 17.28-.09 2.23-.02 5.51-.37 8.48-1.9 6.77-3.49 9.6-11.5 7.21-20.42-1.71-6.38-7.77-10.69-15.08-10.71l-3.76-.01c-5.77-.02-11.55-.04-17.32-.04-4.11 0-7.86.01-11.39.03.06-3.49.06-6.74-.01-9.82 4.66.04 9.67.05 15.25.05 5.71 0 11.43-.02 17.14-.04 8.77-.03 14.49-4.94 15.7-13.48.8-5.65-.48-10.75-3.6-14.36-2.81-3.26-6.95-5.06-11.64-5.08-10.84-.04-19.63-.06-27.67-.06-8.2 0-15.67.02-22.83.06-2.55.02-5.24.69-7.58 1.9-3.52 1.83-7.71 5.74-7.7 13.97.02 11.32.02 22.64.02 33.97 0 16.44.01 33.4.05 50.15-4.02-.04-7.97-.05-11.76-.05-4.63 0-9.22.03-13.62.08h-.06c-.47 0-.65-.06-.65-.06-.01-.01-.18-.14-.47-.63-5.22-8.86-10.56-17.83-15.74-26.51-1.93-3.25-3.87-6.49-5.8-9.73-3.37-5.67-10.22-17.18-10.22-17.18l13.01.01c5.19 0 10.34-.01 15.51-.01 9.12-.02 15.52-6.26 15.57-15.17.1-18.03.1-36.47.01-56.37-.04-8.8-6.46-15.21-15.27-15.23-8.11-.02-16.21-.03-24.32-.03-11.87 0-22.36.02-32.04.07-2.53.02-5.23.71-7.59 1.97-5.01 2.65-7.54 7.37-7.53 14.01.03 33.01.03 66.58.03 99.04v25.77c-2.8 0-14.72-.01-17.88-.01-6.97 0-12.34.02-17.4.04h-.06c-1.43 0-1.96-.36-2.61-1.17l-.75-.93c.14-.31.27-.62.39-.97 1.45-3.36 2.06-7.49 2.19-8.85 2.44-2.88 2.71-8.79 2.71-11.23v-1.04l-.39-.96a3.52 3.52 0 0 0-.18-.4c-.42-1.31-1.14-2.54-2.12-3.62-.24-.27-.5-.51-.75-.74.09-1.09.13-2.18.1-2.94l-.07-1.77-.68-.85c-1.45-3.29-4.89-5.14-7-6.05-.05-.26-.11-.48-.18-.69l-1.21-3.61-.93-.02c-.71-.76-1.55-1.44-2.52-2-1.75-1.01-3.53-1.5-4.95-1.88-.5-.13-.98-.27-1.4-.4-.48-.91-1.21-1.88-2.31-2.8-2.16-1.77-4.78-2.48-6.56-2.86l-.07-.02c-.6-.12-1.19-.21-1.7-.29-.72-.11-1.33-.21-1.85-.36-.18-.05-.39-.11-.57-.17-.31-.38-.75-.84-1.33-1.27-3.09-2.35-6.59-2.66-9.41-2.91-1.22-.11-2.37-.21-3.15-.45-.14-.05-.55-.29-.84-.46-.86-.51-2.04-1.21-3.62-1.63-1.73-.49-3.56-.74-5.45-.74-.25 0-.51.01-.74.01-.22.01-.43.01-.65.01-1.14 0-2.14-.1-3.05-.3-.2-.05-.58-.21-.93-.36-.81-.34-1.82-.76-3.08-1.01-1.22-.26-2.47-.38-3.94-.38-.92 0-1.79.05-2.62.09-.66.04-1.28.07-1.86.08.91-11.57 1.91-24.44 2.63-33.7v-.01c11.18-6.15 18.72-17.49 19.96-30.29.13-1.15.19-2.35.19-3.79.02-21.4-17.44-38.85-38.89-38.85-.69 0-1.39.02-2.17.06-.16.01-.32.02-.48.04l-.17.01c-.5.04-1 .08-1.51.13-.2.02-.39.05-.59.08l-.12.02c-.48.06-.95.13-1.43.21l-.68.12c-.5.09-.98.19-1.48.31 0 0-.42.1-.57.13-.54.13-1.08.27-1.66.44 0 0-.26.08-.35.1-2.72.82-5.37 1.94-7.86 3.35l-.16.09c-.55.31-1.1.65-1.63.98l-.24.15c-.51.33-1.02.67-1.52 1.03l-.24.17c-.48.36-.97.73-1.46 1.12-.07.05-.14.11-.2.16-.48.39-.96.8-1.42 1.21-.05.05-.11.1-.18.16-.48.44-.96.89-1.4 1.34-.33.33-.65.67-.97 1.01l-.11.12c-.07.08-.15.15-.22.23-.64.7-1.18 1.33-1.67 1.95l-.58.72-.04.11c-5.1 6.78-7.79 14.83-7.79 23.36 0 14.24 7.8 27.28 20.13 34.07.72 8.54 1.8 21.61 2.75 33.57l-.56-.03c-.85-.04-1.73-.09-2.67-.09-1.3 0-2.46.1-3.58.3-1.36.25-2.46.71-3.36 1.07-.4.16-.79.32-1.07.4-1.02.23-1.92.34-2.74.34-.17 0-.35-.01-.55-.02-.4-.02-.82-.04-1.23-.04-2.08 0-4.21.31-6.16.9l-.08.03c-1.34.43-2.32 1.04-3.04 1.49-.19.12-.46.29-.52.32-.86.27-2.05.38-3.32.49-2.56.23-5.74.51-8.73 2.4l-.11.07c-.85.57-1.43 1.22-1.82 1.71-.09.03-.2.06-.34.1l-.11.03c-.58.17-1.32.29-2.1.42-.86.14-1.82.3-2.83.56l-.13.04c-2.05.58-4.98 1.66-6.91 4.27l-.08.11-.08.11c-.2.3-.37.6-.5.89-.25.07-.55.16-.87.24-2.4.65-6.35 1.72-8.61 4.6l-1.08.31s-.57 3.42-.58 3.46c-1.7.7-3.48 1.64-5.01 3.22-.76.77-1.37 1.66-1.8 2.62l-.45.53s-.24 1.95-.25 2.02c-.15 1.14-.3 2.34-.32 3.56-1.47 1.49-2.45 3.23-2.81 5.06-1.08 3.9 1.28 9.3 2.37 11.48l.06.12.06.11c.07.12.15.25.22.37 0 .06 0 .13.01.19.03.91.21 1.82.53 2.71.32 1.38 1.2 4.94 1.82 6.39.04.09.08.2.12.31.64 1.58 1.82 4.52 4.64 6.15l.09.05c.45.25.92.44 1.39.59 3.68 9.85 12.87 34.47 14.3 38.25 3.9 10.34 12.7 18.83 25.42 24.54 11.09 5.01 25.16 7.76 39.61 7.76 14.47 0 28.69-2.79 40.03-7.86 12.92-5.8 21.82-14.32 25.75-24.63l10-26.3c3.57 2.86 7.82 4.37 12.5 4.4a3015.73 3015.73 0 0 0 42.08-.03c2.53-.02 5.25-.77 7.65-2.1 7.34-4.08 7.34-11.78 7.34-14.31-.01-12.59-.01-25.18-.01-37.77V121.5c11.04 18.68 23.12 38.96 37.86 63.62 3.55 5.94 9.31 9.23 16.23 9.28 5.32.04 10.13.05 14.71.05 6.08 0 11.66-.03 17.07-.09 2.53-.03 5.23-.75 7.59-2.03 4.61-2.5 7.11-6.84 7.43-12.89 2.19 1.28 5.09 2.14 8.91 2.14h1.1c2.81 0 5.62.01 8.43.01 2.81.01 5.63.01 8.44.01 5.63 0 10.14-.01 14.29-.04.39 3.29 1.72 6.16 3.9 8.42 2.76 2.85 6.74 4.43 11.22 4.45 4.2.02 8.39.03 12.59.03 3.96 0 7.91-.01 11.87-.03 5.08-.03 9.35-2.17 12.05-5.66 2.71 3.55 7.06 5.65 12.44 5.66 3.5.01 7 .01 10.51.01l13.68-.01c10.32-.01 16.24-5.96 16.24-16.32 0-9.31.01-18.61.02-27.91 0-1.31 0-2.63.01-3.96.24.3.5.61.77.91 11.68 12.96 24.2 26.81 36.58 40.36 4.13 4.53 9.7 6.92 16.1 6.92h31.74c8.19 0 16.39 0 24.58-.01 6.23 0 11.03-2.69 13.58-7.25 2.48 4.44 7.22 7.23 12.98 7.24 8.43.02 16.87.03 25.3.03 11.8 0 22.26-.02 32-.07 2.56-.01 5.26-.71 7.62-1.97 2.19-1.17 3.91-2.75 5.16-4.72 2.63 4.37 7.43 6.75 14 6.75h73.69c6.3 0 11-2.16 13.75-6.16 2.69 3.85 7.19 6.14 12.8 6.15l4.06.01c2.81.01 5.63.02 8.44.02 4.66 0 8.47-.03 12-.09 2.72-.04 5.46-.71 7.72-1.87 4.83-2.49 7.4-6.92 7.65-13.17.43.25.88.48 1.34.69 2.17.99 4.82 1.5 7.87 1.53 5.61.04 11.44.06 17.32.06 4.77 0 9.72-.02 14.77-.04 1.09 8.01 6.9 12.86 15.71 12.87l7.53.01c4.26.01 8.53.01 12.79.01 7.36 0 13.36-.02 18.94-.04 1.53 0 2.13.41 2.81 1.28 5.39 6.76 10.91 13.59 16.26 20.2l6.57 8.13c5.4 6.69 10.8 13.38 16.19 20.07 1.04 1.29 3.79 4.72 8.53 4.72.71 0 1.43-.08 2.15-.24 3.44-.75 6.17-3.12 7.29-6.35 1.24-3.52.44-7.49-2.13-10.63zm-761.03-127.52c-.01-16.82-.02-33.76-.04-50.56 7.7.04 15.56.06 23.4.06 7.63 0 15.44-.02 23.28-.05-.06 15.48-.06 31.13 0 46.61-5.77-.04-11.77-.06-18.24-.06-6.05 0-12.11.02-18.16.04-4.21.03-7.8 1.44-10.24 3.96zm260.53 22.76h-3.9c-5.12 0-8.22 2.04-10.05 4.14.01-12.15 0-24.43-.03-36.6 6.37.04 13.02.05 19.79.05 6.44 0 12.99-.02 19.97-.05-.06 11.35-.06 22.02 0 32.47-4.6-.03-9.01-.04-12.49-.04l-13.29.03zm122.2 27.18c-5.75.08-10.38 2.8-12.81 7.21-2.56-4.52-7.35-7.2-13.56-7.23l-2.06-.01c-2.57-.02-5.14-.03-7.71-.03-2.25 0-4.25.01-6.12.03.06-19.64.06-39.66 0-59.6 9.83.03 19.85.04 29.83.04 9.78 0 19.78-.02 29.8-.04-.06 18.92-.06 38.48-.01 59.6-2.48-.03-4.99-.04-7.52-.04-3.19 0-6.5.02-9.84.07zm84.2-53.91c-4.85 0-8.78 1.39-11.55 3.96 0-16.85 0-33.7-.01-50.54 7.28.04 14.87.05 23.1.05 7.18 0 14.71-.02 23.48-.04-.05 17.75-.05 32.72.01 46.59-5.08-.02-10.56-.03-17.33-.03-3.91.01-17.7.01-17.7.01zm75.81-45.17c3.14 3.09 7.07 4.8 11.07 4.8 4.03 0 7.83-1.64 11.01-4.75 3.13-3.06 6.25-6.21 9.28-9.25 1.29-1.3 2.58-2.59 3.87-3.88 2.89-2.89 4.85-7.5 4.78-11.22-.06-3.28-1.98-7.81-4.46-10.54-4.25-4.69-8.83-9.11-13.26-13.39l-.36-.35c-3.08-2.97-6.94-4.61-10.87-4.61-3.91 0-7.75 1.63-10.82 4.58-4.43 4.26-8.99 8.83-13.57 13.56-6.23 6.45-6.16 15.45.17 21.88 4.09 4.17 8.39 8.47 13.16 13.17zm10.47-29.14.6-.6.24.24c1.73 1.74 3.5 3.52 5.29 5.29-1.82 1.8-3.68 3.65-5.54 5.54-1.89-1.91-3.77-3.79-5.53-5.54 1.67-1.64 3.32-3.3 4.94-4.93z"/><path fill="#FBE101" d="M350.77 48.57c4.38 4.32 10.14 4.35 14.54.04 4.41-4.32 8.74-8.72 13.1-13.09 2.01-2.01 3.25-5.32 3.21-7.31-.04-1.92-1.39-5.19-3.07-7.04-4.25-4.68-8.82-9.08-13.37-13.48-4.28-4.12-9.95-4.14-14.22-.03-4.56 4.39-9.03 8.87-13.43 13.42-4.18 4.32-4.08 10.09.13 14.38 4.33 4.42 8.71 8.78 13.11 13.11zm-4.85-21.42c3.8-3.71 7.53-7.5 11.3-11.25.26-.26.59-.47.9-.73.36.34.65.6.92.87 3.7 3.7 7.37 7.44 11.13 11.08.93.9.75 1.4-.06 2.19-3.62 3.56-7.23 7.14-10.76 10.79-1.03 1.07-1.66.95-2.63-.05-3.48-3.59-7.04-7.11-10.6-10.62-.77-.75-1.2-1.3-.2-2.28zM559 240.76c-2.44.53-3.97-.89-5.35-2.6-5.39-6.7-10.79-13.39-16.19-20.08-7.61-9.43-15.25-18.83-22.8-28.3-1.87-2.35-4.12-3.32-7.09-3.3-13.06.07-26.12.04-39.19.03-6.73-.01-10.53-3.63-10.52-10.33 0-2.17-.77-2.57-2.73-2.56-11.5.08-23 .09-34.5-.01-1.91-.02-3.98-.27-5.69-1.04-3.49-1.59-5.24-4.62-5.28-8.45-.08-7.2-.08-14.4-.01-21.59.06-5.66 3.97-9.55 9.64-9.57 12.13-.05 24.25-.05 36.38.02 1.65.01 2.2-.48 2.16-2.12-.04-1.67-1.02-1.6-2.19-1.6-7.43.02-14.86.01-22.3.01-4.62 0-9.23.03-13.85-.01-5.93-.05-9.82-3.92-9.86-9.85-.04-6.26-.02-12.52-.01-18.77.01-6.66 3.75-10.48 10.41-10.5 11.81-.04 23.63-.01 35.43-.01 1.08 0 2.21.24 2.35-1.48.14-1.86-.68-2.15-2.33-2.15-15.65.06-31.29.08-46.94-.01-2.12-.01-2.6.64-2.6 2.65.06 28.87.02 57.73.06 86.59.01 4.04-1 7.52-4.76 9.46-1.59.82-3.55 1.25-5.35 1.28-8.13.13-16.27.07-24.4.05-6.33-.02-10.2-3.88-10.2-10.24-.01-32.31-.01-64.62-.01-96.92 0-2.94-1.71-4.15-4.47-3.09-.31.12-.59.64-.66 1-.11.61-.03 1.25-.03 1.87v96.22c0 7.57-3.61 11.16-11.19 11.16h-73.69c-7.33 0-10.95-3.58-10.95-10.86-.01-20.58-.01-41.14 0-61.72.01-7.29 3.66-10.97 10.89-10.97 12.67-.01 25.34-.03 38.02.03 1.68.01 2.41-.23 2.4-2.22-.09-17.68-.07-35.36-.02-53.04.01-1.59-.34-2.12-2.03-2.1-17.76.06-35.52.09-53.27-.02-2.28-.02-2.03 1.12-2.03 2.57.01 42.47.01 84.95.02 127.43 0 4-1 7.52-4.73 9.51-1.52.81-3.39 1.33-5.1 1.33-19.09.09-38.17.08-57.26.04-5.23-.01-9.06-3.29-9.46-8.45-.33-4.19-.34-8.45-.02-12.64.4-5.26 4.07-8.48 9.35-8.55 6.73-.09 13.45-.09 20.18.02 1.97.03 2.51-.59 2.5-2.53-.06-21.82-.07-43.65.01-65.47.01-2.01-.59-2.4-2.48-2.39-21.75.07-43.5.07-65.24 0-2.02-.01-2.68.47-2.67 2.58.08 21.75.08 43.49 0 65.24-.01 2.14.71 2.62 2.7 2.58 6.17-.12 12.36-.06 18.54-.04 6.48.03 10.19 3.69 10.27 10.12.04 3.13.04 6.26 0 9.39-.09 6.42-3.86 10.16-10.25 10.16-18.78.02-37.55.01-56.32.01-4.78 0-8.93-1.66-12.14-5.17-12.24-13.4-24.4-26.86-36.56-40.33-1.93-2.14-3.02-4.7-1.67-7.53 1.36-2.85 3.94-3.8 6.98-3.79 10.8.02 21.59-.05 32.39.05 2 .02 2.7-.41 2.69-2.56-.1-12.75-.09-25.5-.01-38.25.01-2-.62-2.46-2.54-2.45-15.1.08-30.19.09-45.29-.01-2.17-.01-2.71.55-2.7 2.74.08 28.79 0 57.57 0 86.36 0 7.36-3.57 10.94-10.87 10.95-8.06 0-16.11.02-24.17-.01C4.15 186.51.27 182.75.27 176.5.24 137.47.24 98.44.27 59.4c.01-6.5 3.78-10.13 10.49-10.15 13.61-.03 27.22-.01 40.83-.03 1 0 2.27.42 2.36-1.4.08-1.52-.2-2.18-1.98-2.17-35.67.05-71.34.05-107.01.02-1.33 0-2.23.08-2.21 1.81.02 1.78 1.05 1.77 2.31 1.77 13.3-.01 26.6.01 39.9-.02 3.92-.01 7.36 1.02 9.27 4.7.8 1.53 1.36 3.39 1.36 5.09.08 39.27.07 78.54.04 117.8-.01 5.74-4 9.67-9.78 9.69-8.13.04-16.27.03-24.41.01-6.07-.02-10.05-3.89-9.88-9.97.07-2.53-.78-2.93-3.03-2.91-11.5.1-23 .04-34.5.05-4 0-7.53-1.11-9.4-4.91-.86-1.75-1.26-3.87-1.31-5.83-.16-6.41-.08-12.83-.05-19.24.02-6.99 3.75-10.74 10.68-10.74 11.73-.01 23.47 0 35.2-.01 1.04 0 2.28.33 2.36-1.43.07-1.51-.26-2.47-2.03-2.24-.46.06-.94.01-1.4.01-11.58 0-23.15.02-34.73-.01-5.53-.01-9.42-2.89-9.76-8.33-.47-7.47-.46-15.01 0-22.48.32-5.27 4.01-8.07 9.31-8.32.7-.03 1.41-.01 2.11-.01 11.26 0 22.53.01 33.79-.02 1.19 0 2.73.57 2.76-1.73.03-2.21-1.35-1.85-2.65-1.85-15.57 0-31.13.04-46.7-.05-1.96-.01-2.45.49-2.45 2.44.06 28.86.04 57.73.05 86.59 0 3.97-.94 7.54-4.66 9.56-1.51.82-3.37 1.36-5.09 1.38-10.56.12-21.12.11-31.68.04-5.07-.04-9.06-2.32-11.65-6.66-13.01-21.76-25.99-43.54-38.9-65.37-3.55-6-.33-11.45 6.68-11.48 13.06-.06 26.13-.07 39.19.03 2.13.02 2.58-.62 2.57-2.65-.08-17.37-.08-34.73 0-52.1.01-2.01-.41-2.66-2.56-2.65-17.44.09-34.89.1-52.33-.01-2.13-.01-2.55.6-2.55 2.6.06 42.4.04 84.8.05 127.19 0 3.96-.87 7.55-4.57 9.61-1.5.83-3.37 1.42-5.08 1.43-14 .11-28 .12-42.01.03-4.7-.03-8.64-2.05-11.64-5.65-13.56-16.28-27.07-32.6-40.61-48.9-1.52-1.82-2.29-3.77-1.09-6.01.98-1.84 2.72-2.83 4.69-2.24 1.38.41 2.78 1.42 3.72 2.53 9.7 11.55 19.32 23.19 28.95 34.8 3.6 4.33 7.25 8.62 10.77 13.01 1.81 2.26 4.01 3.2 6.9 3.18 12.52-.08 25.03-.03 37.55-.03 3.07 0 3.08 0 3.08-3 0-42.39.02-84.8-.02-127.19-.01-3.96 1.04-7.33 4.68-9.26 1.52-.81 3.39-1.33 5.11-1.34 18.77-.09 37.54-.08 56.32-.05 5.84.01 9.88 3.92 9.91 9.88.09 18.77.1 37.54-.01 56.32-.03 6.01-4.15 9.81-10.21 9.82-12.51.02-25.03.01-37.95.01 5.18 8.7 10.11 17.01 15.05 25.31 7.18 12.07 14.4 24.11 21.52 36.21 1.38 2.35 3.13 3.37 5.88 3.34 9.31-.11 18.62-.1 27.93 0 2.08.02 2.78-.44 2.77-2.69-.09-28.94-.04-57.89-.08-86.83-.01-3.98 1.16-7.3 4.81-9.2 1.53-.8 3.41-1.29 5.13-1.29 16.82-.09 33.64-.06 50.46 0 7.01.03 11.05 5.51 9.94 13.31-.82 5.81-4.31 8.84-10.4 8.86-11.66.04-23.31.07-34.97-.04-2.27-.02-2.92.64-2.85 2.88.17 5.08.14 10.17.01 15.25-.05 1.93.47 2.49 2.45 2.47 11.81-.09 23.63-.04 35.43 0 4.94.02 8.83 2.71 9.9 6.72 1.68 6.29.08 11.9-4.48 14.25-1.78.92-4.03 1.29-6.07 1.3-11.58.12-23.15.1-34.73.02-1.9-.01-2.57.43-2.52 2.45.14 5.7.15 11.42 0 17.13-.05 2.15.69 2.6 2.69 2.59 11.5-.09 23-.01 34.5 0 7.37.01 11.01 3.45 11.05 10.75.01 1.7.55 2.07 2.14 2.05 7.11-.08 14.24-.09 21.36.01 1.71.02 2.03-.54 2.03-2.13-.04-38.09-.05-76.19.01-114.28 0-1.96-.69-2.34-2.45-2.34-13.37.06-26.75.05-40.13.02-5.09-.01-8.91-2.44-9.76-6.72-1.33-6.79-.45-11.58 4.3-14.1 1.58-.83 3.55-1.35 5.35-1.35 36.45-.08 72.9-.01 109.35 0 6.47 0 10.14 3.85 10.3 10.4.1 4.31-.55 8.27-4.73 10.42-1.78.91-4.01 1.29-6.05 1.31-13.37.11-26.75.11-40.13.01-2.25-.02-2.9.6-2.89 2.87.07 37.71.07 75.41-.01 113.11-.01 2.31.69 2.84 2.9 2.79 6.96-.15 13.93-.19 20.88.02 2.55.08 2.86-.81 2.86-3.02-.07-28.71.01-57.41 0-86.13 0-3.98.96-7.53 4.71-9.5 1.59-.83 3.54-1.43 5.33-1.44 16.35-.1 32.7-.04 49.05 0 5.87.02 9.85 3.74 9.9 9.57.12 14.24.13 28.48 0 42.71-.05 5.93-4.06 9.57-10.14 9.6-9 .05-17.99.01-26.98.02-.37 0-.75.04-1.53.08 2.91 3.23 5.6 6.22 8.29 9.2 7.82 8.64 15.66 17.27 23.45 25.92 1.79 1.98 3.9 2.95 6.59 2.94 18.15-.04 36.3-.05 54.44.02 1.88.01 2.49-.55 2.38-2.39-.13-2.18-.11-4.38-.01-6.57.08-1.66-.57-2.15-2.19-2.14-6.02.07-12.04.03-18.07.03-7.72-.01-11.26-3.58-11.26-11.37-.01-22.14-.01-44.27 0-66.41.01-7.59 3.63-11.23 11.16-11.23h66.64c7.42 0 11.13 3.68 11.13 11.02 0 22.37.01 44.75 0 67.12 0 7.04-3.77 10.83-10.84 10.86-6.26.03-12.52.1-18.77-.04-2.22-.05-2.88.67-2.71 2.8.18 2.09.09 4.22.02 6.33-.04 1.36.37 1.96 1.85 1.96 18.23-.03 36.45-.03 54.68-.01 1.19 0 1.77-.32 1.59-1.59-.06-.46-.01-.94-.01-1.4V47.46c0-7.56 3.61-11.16 11.19-11.16h53.98c7.12 0 10.87 3.72 10.87 10.78.01 18.15.01 36.3 0 54.44 0 7.07-3.76 10.81-10.85 10.81-12.75.01-25.5.04-38.25-.04-1.73-.01-2.27.41-2.26 2.19.06 20.17.06 40.34 0 60.51-.01 1.79.55 2.21 2.27 2.21 24.17-.05 48.34-.06 72.52.01 1.95.01 2.44-.48 2.44-2.44-.07-32.23-.05-64.46-.05-96.69 0-7.66 3.65-11.35 11.37-11.23 2.38.04 4.95.12 7.08 1.02 4.14 1.73 5.48 5.42 5.48 9.75-.02 31.83-.01 63.67-.01 95.51 0 4.03 0 4.03 4.03 4.03 6.49 0 12.99-.1 19.48.05 2.15.05 2.57-.67 2.57-2.66-.06-28.71-.03-57.41-.05-86.12-.01-4.15.86-7.88 4.85-9.91 1.6-.82 3.55-1.36 5.35-1.37 16.66-.1 33.32-.03 49.98 0 6.24.01 9.99 3.81 10.2 10.05.15 4.33-.29 8.49-4.59 10.72-1.84.96-4.15 1.37-6.26 1.4-11.58.13-23.15.1-34.73.03-1.88-.01-2.59.44-2.53 2.46.14 5.32.12 10.64.01 15.95-.04 1.77.46 2.22 2.21 2.21 11.81-.08 23.63-.05 35.43-.03 3.82.01 7.03 1.24 9.13 4.66 3.07 5 1.42 13.65-3.4 16.25-1.77.95-4.01 1.36-6.05 1.37-11.66.13-23.31.1-34.97.03-1.79-.01-2.41.39-2.36 2.3.13 5.87.11 11.73.01 17.6-.03 1.79.6 2.26 2.29 2.24 11.66-.06 23.31-.03 34.97-.03 7.13.01 10.72 3.42 10.78 10.52.02 1.92.69 2.33 2.47 2.32 12.59-.06 25.19.03 37.78-.06 6.12-.04 10.96 2.12 14.83 6.97 12.92 16.19 25.94 32.31 39.03 48.35 2.8 3.35 1.59 7.51-2.06 8.3z"/><path fill="#8D1825" d="M-418.46 165.24c5.36 14.36 15.86 42.5 17.36 46.46 3.37 8.95 11.15 16.4 22.61 21.54 10.45 4.71 23.79 7.29 37.4 7.29 13.77 0 27.17-2.63 37.83-7.39 11.58-5.2 19.5-12.65 22.93-21.65l17.63-46.35c-.58.21-155.49.15-155.76.1z"/><path fill="#AA1F24" d="M-355.07 199.16c-3.37 0-6.96-1.12-9.27-3.81-1.82-2.09-4.55-3-7.18-3.27-3.75-.38-7.18 1.23-10.88 1.23-3.32 0-7.13-1.12-8.9-4.34-.64-1.23-.64-2.68-1.72-3.64-1.34-1.34-3.32-1.93-5.09-2.14-3.54-.43-7.02.69-10.29-1.39-1.29-.8-2.3-2.14-2.63-3.75-.22-.86-1.61-5.62-1.82-6.65-.27-1.5-4.82-.48-6.38-1.34-1.39-.8-2.09-2.9-2.52-3.91-.43-.96-1.82-6.32-1.87-7.29 1.66-.75-.48-2.03-.96-2.9-.43-.86-2.63-5.84-1.98-7.72.96-1.23 4.02-3 3.7-3.43-1.07-1.45-.69-3.81-.38-6.32 1.12-1.34 6.11-1.5 6.7-2.03.8-.64.59-4.88.75-5.84 2.95-.86 6.96-.69 9.43-1.72l140.77 2.03s.11.32.05 1.98c.11.75 6.27 4.24 7.61 5.89.05 1.39-.27 4.5-.43 5.2-.32 1.23 3.11 2.68 3.75 4.29 0 2.2-.43 6.65-1.45 7.77-.32.32-1.93 2.41-1.93 2.79 0 0 .75-.69.69.05s-.59 4.71-1.87 7.56c-1.18 3.86-5.73 3.06-8.63 4.07-.27 1.56-1.66 8.09-2.84 9.64-2.36 3.06-6.32 2.84-9.7 2.73-1.72-.05-3.43.22-5.04.86-.75.32-1.45.75-2.03 1.29-.75.75-.91 1.56-1.18 2.57-1.07 3.54-4.71 5.15-7.93 5.41-2.73.27-5.09-.59-7.72-1.02-2.57-.43-5.25-.27-7.72.59-1.18.43-2.3 1.02-3.21 1.87-.86.8-1.56 1.72-2.52 2.41-2.14 1.5-4.77 2.09-7.34 2.09-2.63 0-5.25-.64-7.56-1.98-2.25-1.34-4.93-1.82-7.45-1.82-2.57 0-5.25.48-7.45 1.82-2.33 1.52-4.96 2.17-7.58 2.17"/><path fill="#CB2128" d="M-355.45 188.82c-3.43 0-7.13-1.02-9.48-3.48-1.87-1.93-4.66-2.73-7.39-2.95-3.86-.38-7.34 1.12-11.15 1.12-3.37 0-7.29-1.02-9.11-3.91-.69-1.12-.69-2.41-1.72-3.32-1.39-1.18-3.37-1.77-5.2-1.93-3.64-.38-7.18.64-10.55-1.29-1.34-.75-2.41-1.93-2.68-3.37-.16-.69-.11-1.45.05-2.09.16-.69.59-1.29.27-1.98-.59-1.29-2.41-1.82-3.75-2.03-1.72-.27-3.37-.32-4.93-1.07-1.45-.69-2.52-1.98-2.57-3.54-.05-1.77 1.02-2.9 2.14-4.18 1.12-1.29.38-2.14-1.12-2.52-1.61-.38-3.27-1.29-3.75-2.84-.54-1.66.48-3.21 1.77-4.29 1.12-.91 2.84-1.45 3.54-2.73.27-.43-1.23-1.07-1.56-1.45-1.07-1.29-.75-3 .38-4.13 1.18-1.23 2.79-1.87 4.39-2.46a7.95 7.95 0 0 0 2.09-1.12c.8-.59.22-.69.05-1.56-.69-3.81 5.25-4.61 7.83-5.47.75-.27 1.56-.59 2.2-1.07.38-.27.38-1.34.69-1.82.91-1.23 2.57-1.87 4.07-2.3 1.66-.43 3.43-.54 5.09-1.02.8-.22 1.66-.48 2.3-.96.54-.38.8-1.12 1.45-1.56 3.21-2.03 7.39-1.18 10.93-2.36 1.23-.43 2.09-1.34 3.43-1.77 1.77-.54 3.7-.75 5.52-.64 1.66.11 3.32-.11 4.93-.48 1.39-.38 2.63-1.12 4.07-1.39 3.27-.59 6.54.32 9.81-.22 1.45-.22 2.73-.8 4.18-.96 1.72-.22 3.54-.16 5.2.27 3.43.8 6.59-.38 9.97-.32 2.52 0 4.71 1.02 7.18 1.23 3 .27 6-.48 9 .16 1.39.27 2.52 1.02 3.86 1.34 1.66.38 3.37.48 5.09.43 1.56-.05 3.11.11 4.61.54 1.66.43 2.73 1.56 4.29 2.03 3.54 1.07 7.93.22 10.93 2.52.59.43.8 1.12 1.45 1.5.69.38 1.45.59 2.2.8 1.29.38 2.63.48 3.97.75 1.5.32 3.11.8 4.29 1.77.64.54 1.12 1.18 1.23 1.98.11.69.86.96 1.56 1.29 2.14.96 4.55 1.12 6.59 2.3 1.29.75 2.46 2.03 2.14 3.59-.16.64-.64.86-.11 1.29.69.54 1.5.96 2.3 1.29 2.46.96 7.02 3.11 4.98 6.32-.38.59-.96 1.02-1.61 1.34-.48.22.05.64.32.91 1.12 1.18 2.84 1.72 3.91 2.9s1.56 2.79.75 4.24c-.91 1.61-2.57 1.77-4.18 2.46-1.72.75-.59 1.98.32 2.84 1.18 1.23 1.98 2.95 1.39 4.61-1.23 3.54-5.47 2.95-8.41 3.86-1.39.43-3.06 1.45-2.36 3.06.69 1.66.54 3.54-.69 4.93-2.41 2.79-6.49 2.57-9.91 2.46-1.77-.05-3.54.16-5.15.8-.75.27-1.45.64-2.03 1.18-.8.69-.91 1.39-1.23 2.3-1.12 3.21-4.82 4.66-8.14 4.93-2.79.22-5.2-.54-7.88-.91-2.63-.38-5.41-.27-7.93.54-1.18.38-2.36.91-3.32 1.72-.86.75-1.56 1.56-2.57 2.2-2.2 1.34-4.88 1.93-7.5 1.93-2.68 0-5.36-.59-7.72-1.82-2.3-1.18-5.04-1.66-7.66-1.66s-5.36.43-7.66 1.66c-2.28.98-5.01 1.58-7.69 1.58"/><path fill="#010101" d="M-319.6 134c0 5.52-9.81 10.02-21.97 10.02-12.11 0-21.97-4.5-21.97-10.02s9.81-10.02 21.97-10.02c12.11 0 21.97 4.49 21.97 10.02"/><path fill="#D1D0BA" d="M-341.46 137.8c-3.11 0-8.41-1.23-8.63-5.84-.38-9.06-4.18-54.39-5.04-64.57l27.49.11c-1.5 19.29-4.93 63.5-5.2 65.32-.22 1.39-1.34 2.79-3.11 3.75-1.44.8-3.42 1.23-5.51 1.23"/><path fill="#FFF" d="m-335.56 136.35 4.61-68.8h-6.91l-2.36 70.25c1.61-.16 3.11-.54 4.24-1.18.15-.1.31-.21.42-.27z"/><path fill="#AA1F24" d="M-307.81 37.75c0 18.54-15 33.55-33.55 33.55-18.55 0-33.55-15-33.55-33.55s15-33.55 33.55-33.55c18.55.01 33.55 15.02 33.55 33.55"/><path fill="#CB2128" d="M-307.81 37.75c0-18.49-15-33.55-33.55-33.55-10.66 0-20.15 4.98-26.31 12.7-3.91 11.36-1.39 24.38 7.61 33.38 12.59 12.59 33.22 12.49 45.98-.27 2.46-2.46 4.45-5.25 6-8.2.22-1.32.27-2.66.27-4.06z"/><path fill="#FFF" d="M-321.74 15.3c5.2 5.73 5.89 12.59 3.32 13.99-2.63 1.45-7.39-1.45-11.84-5.31-4.39-3.91-7.23-8.63-5.36-11.95 1.77-3.27 8.68-2.52 13.88 3.27"/><path fill="#56813A" d="m-275.23 140.37-30.65.11.05 7.29c0 3.59 1.82 6.49 5.95 8.3 2.73 1.23 6 1.93 9.38 1.93 3.16 0 6.27-.59 8.95-1.72 4.07-1.72 6.38-4.5 6.38-7.77v-8.14h-.06z"/><path fill="#609741" d="M-290.56 130.83c-3.16 0-6.27.59-8.9 1.72-3.75 1.56-6 4.07-6.32 7.02-.38 3.37 1.82 6.49 5.95 8.3 2.73 1.23 6 1.93 9.38 1.93 3.16 0 6.27-.59 8.95-1.72 4.07-1.72 6.38-4.5 6.38-7.77 0-3-1.93-5.57-5.41-7.34-.38-.22-.69-.38-.96-.43-2.8-1.12-5.85-1.71-9.07-1.71"/><path fill="#CEA52B" d="m-302.29 154.2-30.65.11.05 7.29c0 3.59 1.82 6.49 5.95 8.3 2.73 1.23 6 1.93 9.38 1.93 3.16 0 6.27-.59 8.95-1.72 4.07-1.72 6.38-4.5 6.38-7.77v-8.14h-.06z"/><path fill="#FDE200" d="M-317.62 144.66c-3.16 0-6.27.59-8.9 1.72-3.75 1.56-6 4.07-6.32 7.02-.38 3.37 1.82 6.49 5.95 8.3 2.73 1.23 6 1.93 9.38 1.93 3.16 0 6.27-.59 8.95-1.72 4.07-1.72 6.38-4.5 6.38-7.77 0-3-1.93-5.57-5.41-7.34-.38-.22-.69-.38-.96-.43-2.8-1.07-5.9-1.66-9.07-1.71"/></svg>