<?xml version="1.0" encoding="utf-8"?>
<!-- Generator: Adobe Illustrator 18.0.0, SVG Export Plug-In . SVG Version: 6.00 Build 0)  -->
<!DOCTYPE svg PUBLIC "-//W3C//DTD SVG 1.1//EN" "http://www.w3.org/Graphics/SVG/1.1/DTD/svg11.dtd">
<svg version="1.1" id="Ebene_1" xmlns="http://www.w3.org/2000/svg" xmlns:xlink="http://www.w3.org/1999/xlink" x="0px" y="0px"
	 viewBox="0 282.6 612 226.7" enable-background="new 0 282.6 612 226.7" xml:space="preserve">
<g>
	<path fill="#FF0000" d="M499.6,409.4h-387c-34.9,0-63.3-28.4-63.3-63.3s28.4-63.5,63.3-63.5h387c34.9,0,63.5,28.4,63.5,63.3
		S534.5,409.4,499.6,409.4z M112.6,297.5c-26.6,0-48.4,21.8-48.4,48.4s21.8,48.4,48.4,48.4h387c26.6,0,48.4-21.8,48.4-48.4
		s-21.8-48.4-48.4-48.4H112.6z"/>
	<path fill="#FF0000" d="M162.3,375.4v-58.6h-17.6v40.8l-25.9-40.8h-19v58.5h17.6v-42.1l27.3,42.3L162.3,375.4L162.3,375.4z"/>
	<path fill="#FF0000" d="M190.9,375.4v-39.6h-17.6v39.6H190.9z"/>
	<path fill="#FF0000" d="M190.9,327.4v-10.6h-17.6v10.6H190.9z"/>
	<path id="_x33_162" fill="#FF0000" d="M252.4,375.4v-27.3c0-5.8-11-13.7-16.7-13.7h-5.2c-4,0-8.3,3.6-12.2,5.2v-4h-17.6v39.6h17.6
		V348c0-2.7,6.1-5.8,8.8-5.8s7.6,3.1,7.6,5.8v27.3L252.4,375.4L252.4,375.4z"/>
	<path id="_x33_162_1_" fill="#FF0000" d="M399.5,376.7v-27.2c0-5.8-11-13.7-16.7-13.7h-5.2c-4,0-8.3,3.6-12.2,5.2v-4h-17.6v39.6
		h17.6v-27.2c0-2.7,6.1-5.8,8.8-5.8c2.7,0,7.6,3.1,7.6,5.8v27.3L399.5,376.7L399.5,376.7L399.5,376.7z"/>
	<path fill="#FF0000" d="M281,375.4v-39.6h9.2v-5.2H281v-8.5h-18v8.3h-9.2v5.2h9.2v39.6h18V375.4z"/>
	<path fill="#FF0000" d="M314.8,334.4c-14,0-25.9,9.7-25.9,21.6c0,12.2,11.9,21.9,25.9,21.9c12.2,0,22.5-7,25-16.2h-18v5.2
		c0,4.3-3.1,5.8-7,5.8c-4,0-6.7-1.3-6.7-5.8v-11h32.6C340.9,344.1,329.4,334.4,314.8,334.4z M314.8,338.3c4,0,7,2.7,7,7v4h-13.7v-4
		C308.3,341,310.9,338.3,314.8,338.3z"/>
	<path fill="#FF0000" d="M488.2,334.4c-14.6,0-25.9,9.7-25.9,21.6c0,12.2,11.5,21.9,25.9,21.9c14,0,25.9-9.7,25.9-21.9
		C514.1,344.1,502.3,334.4,488.2,334.4z M488.2,338.3c4,0,6.7,2.7,6.7,7v21.6c0,4.3-2.7,5.8-6.7,5.8c-4.3,0-7-1.3-7-5.8v-21.6
		C481,341,483.7,338.3,488.2,338.3z"/>
	<path fill="#FF0000" d="M437.5,316.8v21.6c0,0-5.2-4-12.2-4c-11,0-20.1,9.7-20.1,20.1c0,11,9.2,21.9,20.1,21.9
		c7,0,12.2-2.7,12.2-2.7v1.3h17.6v-58.3h-17.6V316.8z M431,341c4,0,6.7,3.1,6.7,7v16.2c0,4-2.7,5.2-6.7,5.2c-4.3,0-7-1.3-7-5.2V348
		C424,344.1,426.5,341,431,341z"/>
	<g>
		<path fill="#FF0000" d="M516.3,335.1c-5,0-9-4.1-9-9c0-5.4,4-9.5,9-9.5c4.9,0,9,4.3,9,9.5C525.3,331,521.2,335.1,516.3,335.1z
			 M516.3,318c-4.3,0-7.7,3.4-7.7,8.1c0,4.1,3.4,7.7,7.7,7.7c4,0,7.7-3.6,7.7-7.7C524,321.8,520.4,318,516.3,318z M517.9,329.9
			l-1.6-2.7h-2v2.3h-1.4v-8.1h3.8c1.8,0,2.7,1.4,2.7,2.9c0,1.1-0.5,2.2-1.6,2.7l1.3,2.2L517.9,329.9z M514.3,325.8h2.3
			c0.4,0,0.7-0.2,0.9-0.4c0.2-0.2,0.4-0.7,0.4-1.1c0-0.5-0.4-1.4-1.3-1.4h-2.3L514.3,325.8L514.3,325.8z"/>
	</g>
	<path id="_x32_399" fill="#211915" d="M93.2,461v-25.4c0-4.9-4.9-9.7-9.7-9.7H46.6v35.3h11.5v-23.9c0-1.8,1.3-3.6,3.1-3.6h17.6
		c1.8,0,3.6,1.8,3.6,3.6V461C82.2,461,93.2,461,93.2,461z"/>
	<path id="_x32_399_1_" fill="#211915" d="M398.5,461v-25.4c0-4.9-4.9-9.7-9.7-9.7h-36.9v35.3h11.5v-23.9c0-1.8,1.3-3.6,3.1-3.6
		h17.6c1.8,0,3.6,1.8,3.6,3.6V461C387.5,461,398.5,461,398.5,461z"/>
	<path id="_x32_399_2_" fill="#211915" d="M565.4,461v-25.4c0-4.9-4.9-9.7-9.7-9.7h-36.9v35.3h11.5v-23.9c0-1.8,1.3-3.6,3.1-3.6H551
		c1.8,0,3.6,1.8,3.6,3.6V461C554.4,461,565.4,461,565.4,461z"/>
	<path id="_x33_177" fill="#211915" d="M465.7,461v-25.4c0-4.9-4.9-9.7-9.7-9.7h-49.7v35.3h11.5v-23.9c0-1.8,1.3-3.6,3.1-3.6h6.7
		c1.3,0,3.1,1.8,3.1,3.6V461h11.5v-23.7c0-1.8,1.3-3.6,3.1-3.6h6.7c1.3,0,3.1,1.8,3.1,3.6V461C454.8,461,465.7,461,465.7,461z"/>
	<path id="_x33_181" fill="#211915" d="M38.7,461h-29c-4.8,0-9.7-3-9.7-7.9v-27.7h38.7v8.3H12.8c-1.3,0-3.1,1.3-3.1,3.1
		c0,1.8,1.8,3.1,3.1,3.1h24.1v7H12.8c-1.3,0-3.1,1.8-3.1,3.1c0,1.8,1.8,3.6,3.1,3.6h25.9V461L38.7,461z"/>
	<path id="_x33_181_1_" fill="#211915" d="M181.7,461.6h-29.1c-4.9,0-9.7-3.1-9.7-7.9V426h38.9v8.3h-25.9c-1.3,0-3.1,1.3-3.1,3.1
		c0,1.8,1.8,3.1,3.1,3.1H180v7h-24.1c-1.3,0-3.1,1.8-3.1,3.1c0,1.8,1.8,3.6,3.1,3.6h25.9L181.7,461.6L181.7,461.6z"/>
	<path id="_x33_181_2_" fill="#211915" d="M512.5,461h-29c-4.9,0-9.7-3.1-9.7-7.9v-27.7h38.7v8.3h-25.9c-1.3,0-3.1,1.3-3.1,3.1
		c0,1.8,1.8,3.1,3.1,3.1h24.1v7h-24.1c-1.3,0-3.1,1.8-3.1,3.1c0,1.8,1.8,3.6,3.1,3.6h25.9V461L512.5,461L512.5,461z"/>
	<path id="_x32_391" fill="#211915" d="M98,426v7.9h11.5c3.1,0,3.1,0,3.1,3.6v23.7h11v-23.9c0-3.6,0-3.6,3.6-3.6h11v-7.9
		C138.2,426,98,426,98,426z"/>
	<path id="_x32_391_1_" fill="#211915" d="M237.8,426v7.9h11.5c3.1,0,3.1,0,3.1,3.6v23.7h11v-23.9c0-3.6,0-3.6,3.6-3.6h11v-7.9
		C277.8,426,237.8,426,237.8,426z"/>
	<path id="_x32_391_2_" fill="#211915" d="M571.9,426v7.9h11.5c3.1,0,3.1,0,3.1,3.6v23.7h11v-23.9c0-3.6,0-3.6,3.6-3.6h11v-7.9
		C612,426,571.9,426,571.9,426z"/>
	<path fill="#211915" d="M189.6,426v35.3h11.5v-6.1c0-1.8,1.3-3.6,3.1-3.6h14.6c1.8,0,3.1,1.8,3.1,3.6v6.1h9.7v-9.7
		c0-1.3-1.3-3.1-1.3-4.9c0-1.3,3.1-4.3,3.1-7.9v-3.1c0-3.1-4.9-9.7-7.9-9.7L189.6,426L189.6,426z M204,433.9h14.6
		c1.8,0,3.1,1.8,3.1,3.6v3.1c0,1.8-1.3,3.1-3.1,3.1H204c-1.8,0-3.1-1.3-3.1-3.1v-3.2C200.9,435.7,202.4,433.9,204,433.9z"/>
	<path fill="#211915" d="M290.7,426c-3.1,0-7.9,6.7-7.9,9.7v25.5h11.5v-9.7h20.5v9.7h11.5v-25.5c0-3.1-4.9-9.7-8.3-9.7H290.7z
		 M297.4,433.9H312c1.3,0,3.1,1.8,3.1,3.6v6.1h-20.7v-6.3C294.1,435.7,295.6,433.9,297.4,433.9z"/>
	<path fill="#211915" d="M345.2,461v-35h-11v35.3L345.2,461L345.2,461z"/>
	<path id="_x33_177_1_" fill="#211915" d="M451.4,509.2v-25.5c0-4.9-4.9-9.7-9.7-9.7H392v35.3h11.5v-23.7c0-1.8,1.3-3.6,3.1-3.6h6.7
		c1.3,0,3.1,1.8,3.1,3.6v23.7h11.5v-23.7c0-1.8,1.3-3.6,3.1-3.6h6.7c1.3,0,3.1,1.8,3.1,3.6v23.7L451.4,509.2L451.4,509.2
		L451.4,509.2z"/>
	<path id="_x33_181_3_" fill="#211915" d="M384.1,509.2h-29c-4.9,0-9.7-3.1-9.7-7.9v-27.7h38.7v8.3h-25.9c-1.3,0-3.1,1.3-3.1,3.1
		c0,1.8,1.8,3.1,3.1,3.1h24.1v7h-24.1c-1.3,0-3.1,1.8-3.1,3.1c0,1.8,1.8,3.6,3.1,3.6h25.9V509.2L384.1,509.2z"/>
	<path id="_x32_391_3_" fill="#211915" d="M300.4,474.2v7.9h11.5c3.1,0,3.1,0,3.1,3.6v23.6h11v-23.7c0-3.6,0-3.6,3.6-3.6h11v-8
		h-40.1v0.2H300.4z"/>
	<path id="_x33_187" fill="#211915" d="M170.2,474.3c-3.1,0-9.7,4.9-9.7,7.9v4.9c0,3.1,6.7,7.9,9.7,7.9h19.4c1.8,0,3.6,1.8,3.6,3.1
		c0,1.8-1.8,3.6-3.6,3.6h-29.1v7.9H193c3.1,0,9.2-4.9,9.2-7.9v-5c0-3.6-6.1-8.3-9.2-8.3h-19.2c-1.8,0-3.6-1.3-3.6-3.1
		c0-1.8,1.8-3.1,3.6-3.1h28.6v-7.9H170.2L170.2,474.3z"/>
	<path id="_x33_187_1_" fill="#211915" d="M263.4,474.3c-3.1,0-9.7,4.9-9.7,7.9v4.9c0,3.1,6.7,7.9,9.7,7.9h19.4
		c1.8,0,3.6,1.8,3.6,3.1c0,1.8-1.8,3.6-3.6,3.6h-29.1v7.9h32.6c3.1,0,9.2-4.9,9.2-7.9v-5c0-3.6-6.1-8.3-9.2-8.3h-19.4
		c-1.8,0-3.6-1.3-3.6-3.1c0-1.8,1.8-3.1,3.6-3.1h28.6v-7.9H263.4L263.4,474.3L263.4,474.3z"/>
	<path fill="#211915" d="M205.8,474.3v15.8c0,3.1,4.9,7.9,7.9,7.9h7.9v11.5h11.5V498h7.9c3.1,0,7.9-4.9,7.9-7.9v-15.8h-11v12.8
		c0,1.3-1.8,3.1-3.6,3.1h-14c-1.8,0-3.6-1.8-3.6-3.1v-12.8H205.8z"/>
</g>
</svg>
