<?xml version="1.0" encoding="utf-8"?>
<!-- Generator: Adobe Illustrator 18.0.0, SVG Export Plug-In . SVG Version: 6.00 Build 0)  -->
<!DOCTYPE svg PUBLIC "-//W3C//DTD SVG 1.1//EN" "http://www.w3.org/Graphics/SVG/1.1/DTD/svg11.dtd">
<svg version="1.1" id="Ebene_1" xmlns="http://www.w3.org/2000/svg" xmlns:xlink="http://www.w3.org/1999/xlink" x="0px" y="0px"
	 viewBox="0 0 566.9 86.8" enable-background="new 0 0 566.9 86.8" xml:space="preserve">
<g>
	<path fill="#FF0000" d="M44.9,42.1V0H32.3v29.4L13.6,0H0v42.1h12.7V11.7l19.6,30.4H44.9z"/>
	<path fill="#FF0000" d="M65.5,42.1V13.6H52.8v28.5L65.5,42.1L65.5,42.1z"/>
	<path fill="#FF0000" d="M65.5,7.6V0H52.8v7.6H65.5z"/>
	<path fill="#FF0000" d="M109.8,42.1V22.5c0-4.1-7.9-9.8-12-9.8H94c-2.8,0-6,2.5-8.9,3.8v-2.8H72.4v28.5h12.7V22.5
		c0-1.9,4.4-4.1,6.3-4.1c1.9,0,5.4,2.2,5.4,4.1v19.6L109.8,42.1L109.8,42.1z"/>
	<g id="_x33_162_1_">
		<path fill="#FF0000" d="M214.8,42.1V22.5c0-4.1-7.9-9.8-12-9.8H199c-2.8,0-6,2.5-8.9,3.8v-2.8h-12.7v28.5h12.7V22.5
			c0-1.9,4.4-4.1,6.3-4.1c1.9,0,5.4,2.2,5.4,4.1v19.6H214.8z"/>
	</g>
	<path fill="#FF0000" d="M130.3,42.1V13.6h6.6V9.8h-6.6v-6h-13v6h-6.6v3.8h6.6v28.5L130.3,42.1L130.3,42.1z"/>
	<path fill="#FF0000" d="M154.7,12.7c-10.1,0-18.7,7-18.7,15.5c0,8.9,8.5,15.8,18.7,15.8c8.9,0,16.1-5.1,18-11.7h-13v3.8
		c0,3.2-2.2,4.1-5.1,4.1c-2.8,0-4.7-0.9-4.7-4.1v-7.9h23.4C173.4,19.6,165.1,12.7,154.7,12.7z M154.7,15.5c2.9,0,5.1,1.9,5.1,5.1
		v2.8H150v-2.8C150,17.4,151.9,15.5,154.7,15.5z"/>
	<path fill="#FF0000" d="M279.3,12.7c-10.4,0-18.7,7-18.7,15.5c0,8.9,8.2,15.8,18.7,15.8c10.1,0,18.7-7,18.7-15.8
		C298,19.6,289.5,12.7,279.3,12.7z M279.3,15.5c2.8,0,4.7,1.9,4.7,5.1v15.5c0,3.2-1.9,4.1-4.7,4.1c-3.2,0-5.1-0.9-5.1-4.1V20.6
		C274.3,17.4,276.2,15.5,279.3,15.5z"/>
	<path fill="#FF0000" d="M243,0v15.5c0,0-3.8-2.8-8.9-2.8c-7.9,0-14.6,7-14.6,14.6c0,7.9,6.6,15.8,14.6,15.8c5.1,0,8.9-1.9,8.9-1.9
		v0.9h12.7V0H243z M238.2,17.4c2.8,0,4.7,2.2,4.7,5.1v11.7c0,2.8-1.9,3.8-4.7,3.8c-3.2,0-5.1-0.9-5.1-3.8V22.5
		C233.2,19.6,235.1,17.4,238.2,17.4z"/>
	<path fill="#FF0000" d="M299.6,12.8c-3.4,0-6.2-2.8-6.2-6.2c0-3.6,2.7-6.5,6.2-6.5c3.3,0,6.2,3,6.2,6.5
		C305.8,9.9,302.8,12.8,299.6,12.8z M299.6,0.5c-3.3,0-5.8,2.7-5.8,6.2c0,3.2,2.6,5.9,5.8,5.9c3.1,0,5.9-2.8,5.9-5.9
		C305.4,3.3,302.8,0.5,299.6,0.5z M301,9.3l-1.2-2.1h-2v2.1h-0.3V3.6h2.4c1,0,1.6,0.9,1.6,1.7c0,0.8-0.5,1.6-1.3,1.7l1.1,2L301,9.3z
		 M297.9,6.8h2.1c0.9,0,1.3-0.7,1.3-1.4S300.8,4,299.9,4h-2.1V6.8z"/>
	<path fill="#FFFFFF" d="M56.9,86.8V71.2c0-2.9-3-5.9-5.9-5.9H28.4v21.5h7V72.3c0-1.1,0.8-2.1,1.9-2.1H48c1.1,0,2.1,1.1,2.1,2.1
		v14.5C50.2,86.8,56.9,86.8,56.9,86.8z"/>
	<g id="_x32_399_1_">
		<path fill="#FFFFFF" d="M243.5,86.8V71.2c0-2.9-2.9-5.9-5.9-5.9h-22.5v21.5h7V72.3c0-1.1,0.8-2.1,1.9-2.1h10.7
			c1.1,0,2.1,1.1,2.1,2.1v14.5C236.8,86.8,243.5,86.8,243.5,86.8z"/>
	</g>
	<path fill="#FFFFFF" d="M344.9,86.8V71.2c0-2.9-2.9-5.9-5.9-5.9h-22.5v21.5h7V72.3c0-1.1,0.8-2.1,1.9-2.1H336
		c1.1,0,2.1,1.1,2.1,2.1v14.5C338.2,86.8,344.9,86.8,344.9,86.8z"/>
	<path fill="#FFFFFF" d="M284,86.8V71.2c0-2.9-3-5.9-5.9-5.9h-30.3v21.5h7V72.3c0-1.1,0.8-2.1,1.9-2.1h4c0.8,0,1.9,1.1,1.9,2.1v14.5
		h7V72.3c0-1.1,0.8-2.1,1.9-2.1h4c0.8,0,1.9,1.1,1.9,2.1v14.5C277.3,86.8,284,86.8,284,86.8z"/>
	<path fill="#FFFFFF" d="M23.6,86.8H5.9c-3,0-5.9-1.9-5.9-4.8V65h23.6v5.1H7.8c-0.8,0-1.9,0.8-1.9,1.9s1.1,1.9,1.9,1.9h14.8v4.3H7.8
		c-0.8,0-1.9,1.1-1.9,1.9c0,1.1,1.1,2.1,1.9,2.1h15.8C23.6,82.2,23.6,86.8,23.6,86.8z"/>
	<path fill="#FFFFFF" d="M110.8,86.8H93.1c-2.9,0-5.9-1.9-5.9-4.8V65h23.6v5.1H95c-0.8,0-1.9,0.8-1.9,1.9s1.1,1.9,1.9,1.9h14.8v4.3
		H95c-0.8,0-1.9,1.1-1.9,1.9c0,1.1,1.1,2.1,1.9,2.1h15.8L110.8,86.8L110.8,86.8z"/>
	<path fill="#FFFFFF" d="M312.6,86.8h-17.7c-2.9,0-5.9-1.9-5.9-4.8V65h23.6v5.1h-15.8c-0.8,0-1.9,0.8-1.9,1.9s1.1,1.9,1.9,1.9h14.8
		v4.3h-14.8c-0.8,0-1.9,1.1-1.9,1.9c0,1.1,1.1,2.1,1.9,2.1h15.8V86.8z"/>
	<path fill="#FFFFFF" d="M59.8,65.3v4.8h7c1.9,0,1.9,0,1.9,2.1v14.5h6.7V72.3c0-2.1,0-2.1,2.1-2.1h6.7v-4.8L59.8,65.3L59.8,65.3z"/>
	<path fill="#FFFFFF" d="M145,65.3v4.8h7c1.9,0,1.9,0,1.9,2.1v14.5h6.7V72.3c0-2.1,0-2.1,2.1-2.1h6.7v-4.8L145,65.3L145,65.3
		L145,65.3z"/>
	<path fill="#FFFFFF" d="M348.8,65.3v4.8h7c1.9,0,1.9,0,1.9,2.1v14.5h6.7V72.3c0-2.1,0-2.1,2.1-2.1h6.7v-4.8L348.8,65.3L348.8,65.3
		L348.8,65.3z"/>
	<path fill="#FFFFFF" d="M115.6,65.3v21.5h7V83c0-1.1,0.8-2.1,1.9-2.1h8.9c1.1,0,1.9,1.1,1.9,2.1v3.8h5.9v-5.9
		c0-0.8-0.8-1.9-0.8-2.9c0-0.8,1.9-2.7,1.9-4.8v-1.9c0-1.9-2.9-5.9-4.8-5.9L115.6,65.3L115.6,65.3z M124.5,70.1h8.9
		c1.1,0,1.9,1.1,1.9,2.1v1.9c0,1.1-0.8,1.9-1.9,1.9h-8.9c-1.1,0-1.9-0.8-1.9-1.9v-1.9C122.6,71.2,123.4,70.1,124.5,70.1z"/>
	<path fill="#FFFFFF" d="M177.3,65.3c-1.9,0-4.8,4-4.8,5.9v15.6h7v-5.9h12.6v5.9h7V71.2c0-1.9-2.9-5.9-5.1-5.9L177.3,65.3
		L177.3,65.3z M181.3,70.1h8.8c0.8,0,1.9,1.1,1.9,2.1V76h-12.6v-3.8C179.4,71.2,180.2,70.1,181.3,70.1z"/>
	<path fill="#FFFFFF" d="M210.6,86.8V65.3h-6.7v21.5H210.6z"/>
	<g id="_x33_177_1_">
		<path fill="#FFFFFF" d="M566.9,86.7V71.1c0-2.9-3-5.9-5.9-5.9h-30.3v21.5h7V72.2c0-1.1,0.8-2.1,1.9-2.1h4c0.8,0,1.9,1.1,1.9,2.1
			v14.5h7V72.2c0-1.1,0.8-2.1,1.9-2.1h4c0.8,0,1.9,1.1,1.9,2.1v14.5L566.9,86.7L566.9,86.7z"/>
	</g>
	<g id="_x33_181_3_">
		<path fill="#FFFFFF" d="M525.9,86.7h-17.7c-2.9,0-5.9-1.9-5.9-4.8V65h23.6v5.1h-15.8c-0.8,0-1.9,0.8-1.9,1.9
			c0,1.1,1.1,1.9,1.9,1.9h14.8v4.3h-14.8c-0.8,0-1.9,1.1-1.9,1.9c0,1.1,1.1,2.1,1.9,2.1h15.8L525.9,86.7L525.9,86.7z"/>
	</g>
	<g id="_x32_391_3_">
		<path fill="#FFFFFF" d="M474.9,65.2v4.8h7c1.9,0,1.9,0,1.9,2.1v14.5h6.7V72.2c0-2.1,0-2.1,2.1-2.1h6.7v-4.8L474.9,65.2L474.9,65.2
			z"/>
	</g>
	<g id="_x33_187">
		<path fill="#FFFFFF" d="M395.5,65.4c-1.9,0-5.9,3-5.9,4.8v3c0,1.9,4,4.8,5.9,4.8h11.8c1.1,0,2.1,1.1,2.1,1.9
			c0,1.1-1.1,2.1-2.1,2.1h-17.7v4.8h19.8c1.9,0,5.6-2.9,5.6-4.8V79c0-2.1-3.8-5.1-5.6-5.1h-11.8c-1.1,0-2.1-0.8-2.1-1.9
			c0-1.1,1.1-1.9,2.1-1.9h17.4v-4.8L395.5,65.4L395.5,65.4z"/>
	</g>
	<g id="_x33_187_1_">
		<path fill="#FFFFFF" d="M452.3,65.4c-1.9,0-5.9,3-5.9,4.8v3c0,1.9,4,4.8,5.9,4.8h11.8c1.1,0,2.1,1.1,2.1,1.9
			c0,1.1-1.1,2.1-2.1,2.1h-17.7v4.8h19.9c1.9,0,5.6-2.9,5.6-4.8V79c0-2.1-3.8-5.1-5.6-5.1h-11.8c-1.1,0-2.1-0.8-2.1-1.9
			c0-1.1,1.1-1.9,2.1-1.9h17.4v-4.8L452.3,65.4L452.3,65.4z"/>
	</g>
	<g>
		<path fill="#FFFFFF" d="M417.2,65.4V75c0,1.9,2.9,4.8,4.8,4.8h4.8v7h7v-7h4.8c1.9,0,4.8-3,4.8-4.8v-9.7h-6.7v7.8
			c0,0.8-1.1,1.9-2.1,1.9h-8.6c-1.1,0-2.1-1.1-2.1-1.9v-7.8C423.9,65.4,417.2,65.4,417.2,65.4z"/>
	</g>
</g>
</svg>
