<svg xmlns="http://www.w3.org/2000/svg" viewBox="0 349.1 612 83.7" xml:space="preserve"><path fill="red" d="M189.4 394.6v-45.4h-13.6v31.7l-20.2-31.7h-14.7v45.4h13.7v-32.8l21.2 32.8h13.6zM211.6 394.6v-30.8h-13.7v30.8h13.7zM211.6 357.4v-8.2h-13.7v8.2h13.7zM259.5 394.6v-21.2c0-4.4-8.5-10.6-13-10.6h-4.1c-3 0-6.5 2.7-9.6 4.1v-3h-13.7v30.8h13.7v-21.3c0-2.1 4.8-4.4 6.8-4.4 2.1 0 5.8 2.4 5.8 4.4v21.2h14.1zM372.8 394.6v-21.2c0-4.4-8.5-10.6-13-10.6h-4.1c-3 0-6.5 2.7-9.6 4.1v-3h-13.7v30.8h13.7v-21.3c0-2.1 4.8-4.4 6.8-4.4 2.1 0 5.8 2.4 5.8 4.4v21.2h14.1zM281.6 394.6v-30.8h7.1v-4.1h-7.1v-6.5h-14v6.5h-7.1v4.1h7.1v30.8h14zM307.9 362.9c-10.9 0-20.2 7.6-20.2 16.7 0 9.6 9.2 17.1 20.2 17.1 9.6 0 17.4-5.5 19.4-12.6h-14v4.1c0 3.5-2.4 4.4-5.5 4.4-3 0-5.1-1-5.1-4.4v-8.5H328c.1-9.4-8.8-16.8-20.1-16.8zm0 3c3.1 0 5.5 2.1 5.5 5.5v3h-10.6v-3c.1-3.5 2.1-5.5 5.1-5.5zM442.5 362.9c-11.2 0-20.2 7.6-20.2 16.7 0 9.6 8.9 17.1 20.2 17.1 10.9 0 20.2-7.6 20.2-17.1-.1-9.3-9.2-16.7-20.2-16.7zm0 3c3 0 5.1 2.1 5.1 5.5v16.7c0 3.5-2.1 4.4-5.1 4.4-3.5 0-5.5-1-5.5-4.4v-16.7c.1-3.5 2.1-5.5 5.5-5.5zM403.3 349.1v16.7s-4.1-3-9.6-3c-8.5 0-15.8 7.6-15.8 15.8 0 8.5 7.1 17.1 15.8 17.1 5.5 0 9.6-2.1 9.6-2.1v1H417v-45.4h-13.7zm-5.2 18.8c3 0 5.1 2.4 5.1 5.5V386c0 3-2.1 4.1-5.1 4.1-3.5 0-5.5-1-5.5-4.1v-12.6c.1-3.1 2.1-5.5 5.5-5.5zM464.4 363c-3.7 0-6.7-3-6.7-6.7 0-3.9 2.9-7 6.7-7 3.6 0 6.7 3.2 6.7 7 0 3.5-3.3 6.7-6.7 6.7zm0-13.3c-3.6 0-6.3 2.9-6.3 6.7 0 3.5 2.8 6.4 6.3 6.4 3.3 0 6.4-3 6.4-6.4-.2-3.7-3-6.7-6.4-6.7zm1.5 9.5-1.3-2.3h-2.2v2.3h-.3V353h2.6c1.1 0 1.7 1 1.7 1.8s-.5 1.7-1.4 1.8l1.2 2.2-.3.4zm-3.4-2.7h2.3c1 0 1.4-.8 1.4-1.5 0-.8-.5-1.5-1.5-1.5h-2.3v3h.1z"/><path fill="#9E9E9E" d="M61.4 432.9V416c0-3.1-3.2-6.4-6.4-6.4H30.7v23.2h7.6v-15.7c0-1.2.9-2.3 2.1-2.3H52c1.2 0 2.3 1.2 2.3 2.3v15.7c-.1.1 7.1.1 7.1.1zM262.9 432.9V416c0-3.1-3.1-6.4-6.4-6.4h-24.3v23.2h7.6v-15.7c0-1.2.9-2.3 2.1-2.3h11.6c1.2 0 2.3 1.2 2.3 2.3v15.7h7.1zM372.3 432.9V416c0-3.1-3.1-6.4-6.4-6.4h-24.3v23.2h7.6v-15.7c0-1.2.9-2.3 2.1-2.3h11.4c1.2 0 2.3 1.2 2.3 2.3v15.7c.1.1 7.3.1 7.3.1zM306.6 432.9V416c0-3.1-3.2-6.4-6.4-6.4h-32.7v23.2h7.6v-15.7c0-1.2.9-2.3 2.1-2.3h4.3c.9 0 2.1 1.2 2.1 2.3v15.7h7.6v-15.7c0-1.2.9-2.3 2.1-2.3h4.3c.9 0 2.1 1.2 2.1 2.3v15.7c-.3.1 6.9.1 6.9.1zM25.5 432.9H6.4c-3.2 0-6.4-2.1-6.4-5.2v-18.4h25.5v5.5H8.4c-.9 0-2.1.9-2.1 2.1 0 1.2 1.2 2.1 2.1 2.1h16v4.6h-16c-.9 0-2.1 1.2-2.1 2.1 0 1.2 1.2 2.3 2.1 2.3h17.1v4.9zM119.6 432.9h-19.1c-3.1 0-6.4-2.1-6.4-5.2v-18.4h25.5v5.5h-17.1c-.9 0-2.1.9-2.1 2.1 0 1.2 1.2 2.1 2.1 2.1h16v4.6h-16c-.9 0-2.1 1.2-2.1 2.1 0 1.2 1.2 2.3 2.1 2.3h17.1v4.9zM337.5 432.9h-19.1c-3.1 0-6.4-2.1-6.4-5.2v-18.4h25.5v5.5h-17.1c-.9 0-2.1.9-2.1 2.1 0 1.2 1.2 2.1 2.1 2.1h16v4.6h-16c-.9 0-2.1 1.2-2.1 2.1 0 1.2 1.2 2.3 2.1 2.3h17.1v4.9zM64.6 409.6v5.2h7.6c2.1 0 2.1 0 2.1 2.3v15.7h7.2v-15.5c0-2.3 0-2.3 2.3-2.3H91v-5.2l-26.4-.2zM156.5 409.6v5.2h7.6c2.1 0 2.1 0 2.1 2.3v15.7h7.2v-15.5c0-2.3 0-2.3 2.3-2.3h7.2v-5.2l-26.4-.2zM376.5 409.6v5.2h7.6c2.1 0 2.1 0 2.1 2.3v15.7h7.2v-15.5c0-2.3 0-2.3 2.3-2.3h7.2v-5.2l-26.4-.2zM124.8 409.6v23.2h7.6v-4.1c0-1.2.9-2.3 2.1-2.3h9.6c1.2 0 2.1 1.2 2.1 2.3v4.1h6.4v-6.4c0-.9-.9-2.1-.9-3.1 0-.9 2.1-2.9 2.1-5.2V416c0-2.1-3.1-6.4-5.2-6.4h-23.8zm9.6 5.2h9.6c1.2 0 2.1 1.2 2.1 2.3v2.1c0 1.2-.9 2.1-2.1 2.1h-9.6c-1.2 0-2.1-.9-2.1-2.1v-2.1c.1-1.1.9-2.3 2.1-2.3zM191.4 409.6c-2.1 0-5.2 4.3-5.2 6.4v16.8h7.6v-6.4h13.6v6.4h7.6V416c0-2.1-3.1-6.4-5.5-6.4h-18.1zm4.3 5.2h9.5c.9 0 2.1 1.2 2.1 2.3v4.1h-13.6v-4.1c0-1.1.8-2.3 2-2.3zM227.4 432.9v-23.2h-7.2v23.2h7.2zM612 432.7v-16.8c0-3.1-3.2-6.4-6.4-6.4h-32.7v23.2h7.6V417c0-1.2.9-2.3 2.1-2.3h4.3c.9 0 2.1 1.2 2.1 2.3v15.7h7.6V417c0-1.2.9-2.3 2.1-2.3h4.3c.9 0 2.1 1.2 2.1 2.3v15.7h6.9zM567.7 432.7h-19.1c-3.1 0-6.4-2.1-6.4-5.2v-18.2h25.5v5.5h-17.1c-.9 0-2.1.9-2.1 2.1 0 1.2 1.2 2.1 2.1 2.1h16v4.6h-16c-.9 0-2.1 1.2-2.1 2.1 0 1.2 1.2 2.3 2.1 2.3h17.1v4.7zM512.7 409.5v5.2h7.6c2.1 0 2.1 0 2.1 2.3v15.7h7.2v-15.5c0-2.3 0-2.3 2.3-2.3h7.2v-5.2l-26.4-.2zM427 409.8c-2.1 0-6.4 3.2-6.4 5.2v3.2c0 2.1 4.3 5.2 6.4 5.2h12.7c1.2 0 2.3 1.2 2.3 2.1 0 1.2-1.2 2.3-2.3 2.3h-19.1v5.2H442c2.1 0 6-3.1 6-5.2v-3.2c0-2.3-4.1-5.5-6-5.5h-12.7c-1.2 0-2.3-.9-2.3-2.1 0-1.2 1.2-2.1 2.3-2.1H448v-5.2l-21 .1zM488.3 409.8c-2.1 0-6.4 3.2-6.4 5.2v3.2c0 2.1 4.3 5.2 6.4 5.2H501c1.2 0 2.3 1.2 2.3 2.1 0 1.2-1.2 2.3-2.3 2.3h-19.1v5.2h21.5c2.1 0 6-3.1 6-5.2v-3.2c0-2.3-4.1-5.5-6-5.5h-12.7c-1.2 0-2.3-.9-2.3-2.1 0-1.2 1.2-2.1 2.3-2.1h18.8v-5.2l-21.2.1zM450.4 409.8v10.4c0 2.1 3.1 5.2 5.2 5.2h5.2v7.6h7.6v-7.6h5.2c2.1 0 5.2-3.2 5.2-5.2v-10.5h-7.2v8.4c0 .9-1.2 2.1-2.3 2.1H460c-1.2 0-2.3-1.2-2.3-2.1v-8.4c-.1.1-7.3.1-7.3.1z"/></svg>