<?xml version="1.0" encoding="utf-8"?>
<!-- Generator: Adobe Illustrator 18.0.0, SVG Export Plug-In . SVG Version: 6.00 Build 0)  -->
<!DOCTYPE svg PUBLIC "-//W3C//DTD SVG 1.1//EN" "http://www.w3.org/Graphics/SVG/1.1/DTD/svg11.dtd">
<svg version="1.1" id="Ebene_1" xmlns="http://www.w3.org/2000/svg" xmlns:xlink="http://www.w3.org/1999/xlink" x="0px" y="0px"
	 viewBox="0 349.1 612 83.7" enable-background="new 0 349.1 612 83.7" xml:space="preserve">
<g>
	<path fill="#FF0000" d="M189.4,394.6v-45.4h-13.6v31.7l-20.2-31.7h-14.7v45.4h13.7v-32.8l21.2,32.8H189.4z"/>
	<path fill="#FF0000" d="M211.6,394.6v-30.8h-13.7v30.8H211.6L211.6,394.6z"/>
	<path fill="#FF0000" d="M211.6,357.4v-8.2h-13.7v8.2H211.6z"/>
	<path fill="#FF0000" d="M259.5,394.6v-21.2c0-4.4-8.5-10.6-13-10.6h-4.1c-3,0-6.5,2.7-9.6,4.1v-3h-13.7v30.8h13.7v-21.3
		c0-2.1,4.8-4.4,6.8-4.4c2.1,0,5.8,2.4,5.8,4.4v21.2H259.5L259.5,394.6z"/>
	<g id="_x33_162_1_">
		<path fill="#FF0000" d="M372.8,394.6v-21.2c0-4.4-8.5-10.6-13-10.6h-4.1c-3,0-6.5,2.7-9.6,4.1v-3h-13.7v30.8h13.7v-21.3
			c0-2.1,4.8-4.4,6.8-4.4c2.1,0,5.8,2.4,5.8,4.4v21.2H372.8z"/>
	</g>
	<path fill="#FF0000" d="M281.6,394.6v-30.8h7.1v-4.1h-7.1v-6.5h-14v6.5h-7.1v4.1h7.1v30.8H281.6L281.6,394.6z"/>
	<path fill="#FF0000" d="M307.9,362.9c-10.9,0-20.2,7.6-20.2,16.7c0,9.6,9.2,17.1,20.2,17.1c9.6,0,17.4-5.5,19.4-12.6h-14v4.1
		c0,3.5-2.4,4.4-5.5,4.4c-3,0-5.1-1-5.1-4.4v-8.5H328C328.1,370.3,319.2,362.9,307.9,362.9z M307.9,365.9c3.1,0,5.5,2.1,5.5,5.5v3
		h-10.6v-3C302.9,367.9,304.9,365.9,307.9,365.9z"/>
	<path fill="#FF0000" d="M442.5,362.9c-11.2,0-20.2,7.6-20.2,16.7c0,9.6,8.9,17.1,20.2,17.1c10.9,0,20.2-7.6,20.2-17.1
		C462.6,370.3,453.5,362.9,442.5,362.9z M442.5,365.9c3,0,5.1,2.1,5.1,5.5v16.7c0,3.5-2.1,4.4-5.1,4.4c-3.5,0-5.5-1-5.5-4.4v-16.7
		C437.1,367.9,439.1,365.9,442.5,365.9z"/>
	<path fill="#FF0000" d="M403.3,349.1v16.7c0,0-4.1-3-9.6-3c-8.5,0-15.8,7.6-15.8,15.8c0,8.5,7.1,17.1,15.8,17.1
		c5.5,0,9.6-2.1,9.6-2.1v1H417v-45.4H403.3z M398.1,367.9c3,0,5.1,2.4,5.1,5.5v12.6c0,3-2.1,4.1-5.1,4.1c-3.5,0-5.5-1-5.5-4.1v-12.6
		C392.7,370.3,394.7,367.9,398.1,367.9z"/>
	<path fill="#FF0000" d="M464.4,363c-3.7,0-6.7-3-6.7-6.7c0-3.9,2.9-7,6.7-7c3.6,0,6.7,3.2,6.7,7C471.1,359.8,467.8,363,464.4,363z
		 M464.4,349.7c-3.6,0-6.3,2.9-6.3,6.7c0,3.5,2.8,6.4,6.3,6.4c3.3,0,6.4-3,6.4-6.4C470.6,352.7,467.8,349.7,464.4,349.7z
		 M465.9,359.2l-1.3-2.3h-2.2v2.3h-0.3V353h2.6c1.1,0,1.7,1,1.7,1.8s-0.5,1.7-1.4,1.8l1.2,2.2L465.9,359.2z M462.5,356.5h2.3
		c1,0,1.4-0.8,1.4-1.5c0-0.8-0.5-1.5-1.5-1.5h-2.3v3H462.5z"/>
	<path fill="#9E9E9E" d="M61.4,432.9V416c0-3.1-3.2-6.4-6.4-6.4H30.7v23.2h7.6v-15.7c0-1.2,0.9-2.3,2.1-2.3h11.6
		c1.2,0,2.3,1.2,2.3,2.3v15.7C54.2,432.9,61.4,432.9,61.4,432.9z"/>
	<g id="_x32_399_1_">
		<path fill="#9E9E9E" d="M262.9,432.9V416c0-3.1-3.1-6.4-6.4-6.4h-24.3v23.2h7.6v-15.7c0-1.2,0.9-2.3,2.1-2.3h11.6
			c1.2,0,2.3,1.2,2.3,2.3v15.7H262.9z"/>
	</g>
	<path fill="#9E9E9E" d="M372.3,432.9V416c0-3.1-3.1-6.4-6.4-6.4h-24.3v23.2h7.6v-15.7c0-1.2,0.9-2.3,2.1-2.3h11.4
		c1.2,0,2.3,1.2,2.3,2.3v15.7C365.1,432.9,372.3,432.9,372.3,432.9z"/>
	<path fill="#9E9E9E" d="M306.6,432.9V416c0-3.1-3.2-6.4-6.4-6.4h-32.7v23.2h7.6v-15.7c0-1.2,0.9-2.3,2.1-2.3h4.3
		c0.9,0,2.1,1.2,2.1,2.3v15.7h7.6v-15.7c0-1.2,0.9-2.3,2.1-2.3h4.3c0.9,0,2.1,1.2,2.1,2.3v15.7C299.4,432.9,306.6,432.9,306.6,432.9
		z"/>
	<path fill="#9E9E9E" d="M25.5,432.9H6.4c-3.2,0-6.4-2.1-6.4-5.2v-18.4h25.5v5.5H8.4c-0.9,0-2.1,0.9-2.1,2.1c0,1.2,1.2,2.1,2.1,2.1
		h16v4.6h-16c-0.9,0-2.1,1.2-2.1,2.1c0,1.2,1.2,2.3,2.1,2.3h17.1C25.5,427.9,25.5,432.9,25.5,432.9z"/>
	<path fill="#9E9E9E" d="M119.6,432.9h-19.1c-3.1,0-6.4-2.1-6.4-5.2v-18.4h25.5v5.5h-17.1c-0.9,0-2.1,0.9-2.1,2.1
		c0,1.2,1.2,2.1,2.1,2.1h16v4.6h-16c-0.9,0-2.1,1.2-2.1,2.1c0,1.2,1.2,2.3,2.1,2.3h17.1V432.9L119.6,432.9z"/>
	<path fill="#9E9E9E" d="M337.5,432.9h-19.1c-3.1,0-6.4-2.1-6.4-5.2v-18.4h25.5v5.5h-17.1c-0.9,0-2.1,0.9-2.1,2.1
		c0,1.2,1.2,2.1,2.1,2.1h16v4.6h-16c-0.9,0-2.1,1.2-2.1,2.1c0,1.2,1.2,2.3,2.1,2.3h17.1V432.9z"/>
	<path fill="#9E9E9E" d="M64.6,409.6v5.2h7.6c2.1,0,2.1,0,2.1,2.3v15.7h7.2v-15.5c0-2.3,0-2.3,2.3-2.3h7.2v-5.2L64.6,409.6
		L64.6,409.6z"/>
	<path fill="#9E9E9E" d="M156.5,409.6v5.2h7.6c2.1,0,2.1,0,2.1,2.3v15.7h7.2v-15.5c0-2.3,0-2.3,2.3-2.3h7.2v-5.2L156.5,409.6
		L156.5,409.6L156.5,409.6z"/>
	<path fill="#9E9E9E" d="M376.5,409.6v5.2h7.6c2.1,0,2.1,0,2.1,2.3v15.7h7.2v-15.5c0-2.3,0-2.3,2.3-2.3h7.2v-5.2L376.5,409.6
		L376.5,409.6L376.5,409.6z"/>
	<path fill="#9E9E9E" d="M124.8,409.6v23.2h7.6v-4.1c0-1.2,0.9-2.3,2.1-2.3h9.6c1.2,0,2.1,1.2,2.1,2.3v4.1h6.4v-6.4
		c0-0.9-0.9-2.1-0.9-3.1c0-0.9,2.1-2.9,2.1-5.2v-2.1c0-2.1-3.1-6.4-5.2-6.4L124.8,409.6L124.8,409.6z M134.4,414.8h9.6
		c1.2,0,2.1,1.2,2.1,2.3v2.1c0,1.2-0.9,2.1-2.1,2.1h-9.6c-1.2,0-2.1-0.9-2.1-2.1v-2.1C132.4,416,133.2,414.8,134.4,414.8z"/>
	<path fill="#9E9E9E" d="M191.4,409.6c-2.1,0-5.2,4.3-5.2,6.4v16.8h7.6v-6.4h13.6v6.4h7.6V416c0-2.1-3.1-6.4-5.5-6.4H191.4
		L191.4,409.6z M195.7,414.8h9.5c0.9,0,2.1,1.2,2.1,2.3v4.1h-13.6v-4.1C193.7,416,194.5,414.8,195.7,414.8z"/>
	<path fill="#9E9E9E" d="M227.4,432.9v-23.2h-7.2v23.2H227.4z"/>
	<g id="_x33_177_1_">
		<path fill="#9E9E9E" d="M612,432.7v-16.8c0-3.1-3.2-6.4-6.4-6.4h-32.7v23.2h7.6v-15.7c0-1.2,0.9-2.3,2.1-2.3h4.3
			c0.9,0,2.1,1.2,2.1,2.3v15.7h7.6v-15.7c0-1.2,0.9-2.3,2.1-2.3h4.3c0.9,0,2.1,1.2,2.1,2.3v15.7H612L612,432.7z"/>
	</g>
	<g id="_x33_181_3_">
		<path fill="#9E9E9E" d="M567.7,432.7h-19.1c-3.1,0-6.4-2.1-6.4-5.2v-18.2h25.5v5.5h-17.1c-0.9,0-2.1,0.9-2.1,2.1
			c0,1.2,1.2,2.1,2.1,2.1h16v4.6h-16c-0.9,0-2.1,1.2-2.1,2.1c0,1.2,1.2,2.3,2.1,2.3h17.1V432.7L567.7,432.7z"/>
	</g>
	<g id="_x32_391_3_">
		<path fill="#9E9E9E" d="M512.7,409.5v5.2h7.6c2.1,0,2.1,0,2.1,2.3v15.7h7.2v-15.5c0-2.3,0-2.3,2.3-2.3h7.2v-5.2L512.7,409.5
			L512.7,409.5z"/>
	</g>
	<g id="_x33_187">
		<path fill="#9E9E9E" d="M427,409.8c-2.1,0-6.4,3.2-6.4,5.2v3.2c0,2.1,4.3,5.2,6.4,5.2h12.7c1.2,0,2.3,1.2,2.3,2.1
			c0,1.2-1.2,2.3-2.3,2.3h-19.1v5.2H442c2.1,0,6-3.1,6-5.2v-3.2c0-2.3-4.1-5.5-6-5.5h-12.7c-1.2,0-2.3-0.9-2.3-2.1
			c0-1.2,1.2-2.1,2.3-2.1H448v-5.2L427,409.8L427,409.8z"/>
	</g>
	<g id="_x33_187_1_">
		<path fill="#9E9E9E" d="M488.3,409.8c-2.1,0-6.4,3.2-6.4,5.2v3.2c0,2.1,4.3,5.2,6.4,5.2H501c1.2,0,2.3,1.2,2.3,2.1
			c0,1.2-1.2,2.3-2.3,2.3h-19.1v5.2h21.5c2.1,0,6-3.1,6-5.2v-3.2c0-2.3-4.1-5.5-6-5.5h-12.7c-1.2,0-2.3-0.9-2.3-2.1
			c0-1.2,1.2-2.1,2.3-2.1h18.8v-5.2L488.3,409.8L488.3,409.8z"/>
	</g>
	<g>
		<path fill="#9E9E9E" d="M450.4,409.8v10.4c0,2.1,3.1,5.2,5.2,5.2h5.2v7.6h7.6v-7.6h5.2c2.1,0,5.2-3.2,5.2-5.2v-10.5h-7.2v8.4
			c0,0.9-1.2,2.1-2.3,2.1h-9.3c-1.2,0-2.3-1.2-2.3-2.1v-8.4C457.6,409.8,450.4,409.8,450.4,409.8z"/>
	</g>
</g>
</svg>
