<svg xmlns="http://www.w3.org/2000/svg" viewBox="0 282.6 612 226.7" xml:space="preserve"><path fill="red" d="M499.6 409.4h-387c-34.9 0-63.3-28.4-63.3-63.3s28.4-63.5 63.3-63.5h387c34.9 0 63.5 28.4 63.5 63.3s-28.6 63.5-63.5 63.5zm-387-111.9c-26.6 0-48.4 21.8-48.4 48.4s21.8 48.4 48.4 48.4h387c26.6 0 48.4-21.8 48.4-48.4s-21.8-48.4-48.4-48.4h-387z"/><path fill="red" d="M162.3 375.4v-58.6h-17.6v40.8l-25.9-40.8h-19v58.5h17.6v-42.1l27.3 42.3 17.6-.1zM190.9 375.4v-39.6h-17.6v39.6h17.6zM190.9 327.4v-10.6h-17.6v10.6h17.6zM252.4 375.4v-27.3c0-5.8-11-13.7-16.7-13.7h-5.2c-4 0-8.3 3.6-12.2 5.2v-4h-17.6v39.6h17.6V348c0-2.7 6.1-5.8 8.8-5.8s7.6 3.1 7.6 5.8v27.3l17.7.1zM399.5 376.7v-27.2c0-5.8-11-13.7-16.7-13.7h-5.2c-4 0-8.3 3.6-12.2 5.2v-4h-17.6v39.6h17.6v-27.2c0-2.7 6.1-5.8 8.8-5.8 2.7 0 7.6 3.1 7.6 5.8v27.3h17.7zM281 375.4v-39.6h9.2v-5.2H281v-8.5h-18v8.3h-9.2v5.2h9.2v39.6h18v.2zM314.8 334.4c-14 0-25.9 9.7-25.9 21.6 0 12.2 11.9 21.9 25.9 21.9 12.2 0 22.5-7 25-16.2h-18v5.2c0 4.3-3.1 5.8-7 5.8-4 0-6.7-1.3-6.7-5.8v-11h32.6c.2-11.8-11.3-21.5-25.9-21.5zm0 3.9c4 0 7 2.7 7 7v4h-13.7v-4c.2-4.3 2.8-7 6.7-7zM488.2 334.4c-14.6 0-25.9 9.7-25.9 21.6 0 12.2 11.5 21.9 25.9 21.9 14 0 25.9-9.7 25.9-21.9 0-11.9-11.8-21.6-25.9-21.6zm0 3.9c4 0 6.7 2.7 6.7 7v21.6c0 4.3-2.7 5.8-6.7 5.8-4.3 0-7-1.3-7-5.8v-21.6c-.2-4.3 2.5-7 7-7zM437.5 316.8v21.6s-5.2-4-12.2-4c-11 0-20.1 9.7-20.1 20.1 0 11 9.2 21.9 20.1 21.9 7 0 12.2-2.7 12.2-2.7v1.3h17.6v-58.3h-17.6v.1zM431 341c4 0 6.7 3.1 6.7 7v16.2c0 4-2.7 5.2-6.7 5.2-4.3 0-7-1.3-7-5.2V348c0-3.9 2.5-7 7-7zM516.3 335.1c-5 0-9-4.1-9-9 0-5.4 4-9.5 9-9.5 4.9 0 9 4.3 9 9.5 0 4.9-4.1 9-9 9zm0-17.1c-4.3 0-7.7 3.4-7.7 8.1 0 4.1 3.4 7.7 7.7 7.7 4 0 7.7-3.6 7.7-7.7 0-4.3-3.6-8.1-7.7-8.1zm1.6 11.9-1.6-2.7h-2v2.3h-1.4v-8.1h3.8c1.8 0 2.7 1.4 2.7 2.9 0 1.1-.5 2.2-1.6 2.7l1.3 2.2-1.2.7zm-3.6-4.1h2.3c.4 0 .7-.2.9-.4.2-.2.4-.7.4-1.1 0-.5-.4-1.4-1.3-1.4h-2.3v2.9z"/><path fill="#211915" d="M93.2 461v-25.4c0-4.9-4.9-9.7-9.7-9.7H46.6v35.3h11.5v-23.9c0-1.8 1.3-3.6 3.1-3.6h17.6c1.8 0 3.6 1.8 3.6 3.6V461h10.8zM398.5 461v-25.4c0-4.9-4.9-9.7-9.7-9.7h-36.9v35.3h11.5v-23.9c0-1.8 1.3-3.6 3.1-3.6h17.6c1.8 0 3.6 1.8 3.6 3.6V461h10.8zM565.4 461v-25.4c0-4.9-4.9-9.7-9.7-9.7h-36.9v35.3h11.5v-23.9c0-1.8 1.3-3.6 3.1-3.6H551c1.8 0 3.6 1.8 3.6 3.6V461h10.8zM465.7 461v-25.4c0-4.9-4.9-9.7-9.7-9.7h-49.7v35.3h11.5v-23.9c0-1.8 1.3-3.6 3.1-3.6h6.7c1.3 0 3.1 1.8 3.1 3.6V461h11.5v-23.7c0-1.8 1.3-3.6 3.1-3.6h6.7c1.3 0 3.1 1.8 3.1 3.6V461h10.6zM38.7 461h-29c-4.8 0-9.7-3-9.7-7.9v-27.7h38.7v8.3H12.8c-1.3 0-3.1 1.3-3.1 3.1s1.8 3.1 3.1 3.1h24.1v7H12.8c-1.3 0-3.1 1.8-3.1 3.1 0 1.8 1.8 3.6 3.1 3.6h25.9v7.4zM181.7 461.6h-29.1c-4.9 0-9.7-3.1-9.7-7.9V426h38.9v8.3h-25.9c-1.3 0-3.1 1.3-3.1 3.1s1.8 3.1 3.1 3.1H180v7h-24.1c-1.3 0-3.1 1.8-3.1 3.1 0 1.8 1.8 3.6 3.1 3.6h25.9l-.1 7.4zM512.5 461h-29c-4.9 0-9.7-3.1-9.7-7.9v-27.7h38.7v8.3h-25.9c-1.3 0-3.1 1.3-3.1 3.1s1.8 3.1 3.1 3.1h24.1v7h-24.1c-1.3 0-3.1 1.8-3.1 3.1 0 1.8 1.8 3.6 3.1 3.6h25.9v7.4zM98 426v7.9h11.5c3.1 0 3.1 0 3.1 3.6v23.7h11v-23.9c0-3.6 0-3.6 3.6-3.6h11v-7.9c0 .2-40.2.2-40.2.2zM237.8 426v7.9h11.5c3.1 0 3.1 0 3.1 3.6v23.7h11v-23.9c0-3.6 0-3.6 3.6-3.6h11v-7.9c-.2.2-40.2.2-40.2.2zM571.9 426v7.9h11.5c3.1 0 3.1 0 3.1 3.6v23.7h11v-23.9c0-3.6 0-3.6 3.6-3.6h11v-7.9c-.1.2-40.2.2-40.2.2zM189.6 426v35.3h11.5v-6.1c0-1.8 1.3-3.6 3.1-3.6h14.6c1.8 0 3.1 1.8 3.1 3.6v6.1h9.7v-9.7c0-1.3-1.3-3.1-1.3-4.9 0-1.3 3.1-4.3 3.1-7.9v-3.1c0-3.1-4.9-9.7-7.9-9.7h-35.9zm14.4 7.9h14.6c1.8 0 3.1 1.8 3.1 3.6v3.1c0 1.8-1.3 3.1-3.1 3.1H204c-1.8 0-3.1-1.3-3.1-3.1v-3.2c0-1.7 1.5-3.5 3.1-3.5zM290.7 426c-3.1 0-7.9 6.7-7.9 9.7v25.5h11.5v-9.7h20.5v9.7h11.5v-25.5c0-3.1-4.9-9.7-8.3-9.7h-27.3zm6.7 7.9H312c1.3 0 3.1 1.8 3.1 3.6v6.1h-20.7v-6.3c-.3-1.6 1.2-3.4 3-3.4zM345.2 461v-35h-11v35.3l11-.3zM451.4 509.2v-25.5c0-4.9-4.9-9.7-9.7-9.7H392v35.3h11.5v-23.7c0-1.8 1.3-3.6 3.1-3.6h6.7c1.3 0 3.1 1.8 3.1 3.6v23.7h11.5v-23.7c0-1.8 1.3-3.6 3.1-3.6h6.7c1.3 0 3.1 1.8 3.1 3.6v23.7l10.6-.1zM384.1 509.2h-29c-4.9 0-9.7-3.1-9.7-7.9v-27.7h38.7v8.3h-25.9c-1.3 0-3.1 1.3-3.1 3.1s1.8 3.1 3.1 3.1h24.1v7h-24.1c-1.3 0-3.1 1.8-3.1 3.1 0 1.8 1.8 3.6 3.1 3.6h25.9v7.4zM300.4 474.2v7.9h11.5c3.1 0 3.1 0 3.1 3.6v23.6h11v-23.7c0-3.6 0-3.6 3.6-3.6h11v-8h-40.1v.2h-.1zM170.2 474.3c-3.1 0-9.7 4.9-9.7 7.9v4.9c0 3.1 6.7 7.9 9.7 7.9h19.4c1.8 0 3.6 1.8 3.6 3.1 0 1.8-1.8 3.6-3.6 3.6h-29.1v7.9H193c3.1 0 9.2-4.9 9.2-7.9v-5c0-3.6-6.1-8.3-9.2-8.3h-19.2c-1.8 0-3.6-1.3-3.6-3.1s1.8-3.1 3.6-3.1h28.6v-7.9h-32.2zM263.4 474.3c-3.1 0-9.7 4.9-9.7 7.9v4.9c0 3.1 6.7 7.9 9.7 7.9h19.4c1.8 0 3.6 1.8 3.6 3.1 0 1.8-1.8 3.6-3.6 3.6h-29.1v7.9h32.6c3.1 0 9.2-4.9 9.2-7.9v-5c0-3.6-6.1-8.3-9.2-8.3h-19.4c-1.8 0-3.6-1.3-3.6-3.1s1.8-3.1 3.6-3.1h28.6v-7.9h-32.1zM205.8 474.3v15.8c0 3.1 4.9 7.9 7.9 7.9h7.9v11.5h11.5V498h7.9c3.1 0 7.9-4.9 7.9-7.9v-15.8h-11v12.8c0 1.3-1.8 3.1-3.6 3.1h-14c-1.8 0-3.6-1.8-3.6-3.1v-12.8h-10.9z"/></svg>