<svg xmlns="http://www.w3.org/2000/svg" viewBox="0 0 566.9 89.3" xml:space="preserve"><g fill="#c3c6c5"><path d="M422.156.02c-.6 0-1 .5-1 1.2l-.1 13.1c0 .6.5 1 1.2 1h6c.7 0 1.2-.4 1.2-1v-2.4c0-.6-.5-1-1.2-1h-3.9c-.7 0-1.2-.3-1.2-1v-8.6c0-.8-.3-1.3-1-1.3zm29.4 0h-.2c-.5.1-.8.6-.8 1.2l-.1 13.1c0 .4.2.7.5.8.1 0 .1.1.2.1h6.4c.7 0 1.2-.4 1.2-1v-2.4c0-.6-.5-1-1.2-1h-3.9c-.7 0-1.2-.3-1.2-1v-8.6c.1-.7-.2-1.2-.9-1.2zm-94 0c-.7 0-1.2.4-1.2 1l.1 2-.1 11c0 .7.3 1.2 1 1.2h.2c.5-.1.8-.6.8-1.2v-8.6c0-.6.5-1 1.2-1h.8c.7 0 1.2.4 1.2 1l.8 4.6c0 .7.3 1.2 1 1.2H365.656c.5-.1.8-.5 1.1-1.1 0 0 2.5-5.9 2.6-6.1.2-.5.8-.4.8.1V14.22c0 .7.3 1.2 1 1.2h2.7c.1 0 .1 0 .2-.1.3-.2.5-.6.8-1.1l1.9-4c.3-.6.7-1 1.2-1h3.1c.7 0 1.2.4 1.2 1l.2 4.3c0 .4.2.7.6.8.1 0 .3.1.4.1.6.1 1.3.1 1.9.1.6 0 1.4-.4 1.4-1V1.12c0-.6-.5-1-1.2-1h-6.5c-.7 0-1 .3-1.2 1 0 0-4.3 10.8-4.4 11 0 0 0 .1-.1.1-.1.1-.2.1-.3.1-.2.1-.5 0-.5-.3V1.52c0-.7-.3-1.3-.9-1.3h-2.3c-.6 0-.9.4-1.3 1.2 0 0-2.7 6.7-2.9 7 0 .1-.1.1-.2.2s-.1.1-.2.1c-.2 0-.3 0-.3-.3-.1-.4-1.3-7.3-1.3-7.3 0-.6-.5-1-1.2-1l-4.4-.1zm118.4 0c-.7 0-1.2.3-1.2 1l-.1 13.2c0 .2.1.4.2.6.1.2.3.3.5.3h7.9c.4-.1.7-.4.7-.9 0-.6-.5-1-1.2-1h-5c-.6 0-1.2-.4-1.2-1l.1-7c0-.6.5-1 1.2-1h5c.7 0 1.2-.3 1.2-1V.92c0-.6-.6-1-1.2-1l-6.9.1zm21.7 0h-.2c-.6.1-1 .4-1 1v1c0 3.8-.1 7.5 0 11.3 0 .2 0 .5-.1.7v.4c0 .1.1.2.1.3.2.3.4.4.6.5.3.1.5.1.8.1H499.556c.5-.1.9-.3 1.2-1l.2-4.3c0-.6.5-1 1.2-1h3.3c.7 0 1.2.4 1.2 1v4c0 .7.3 1.2 1 1.2h.2c.5-.1.8-.6.8-1.2v-5.5c0-1-.8-1.3-1.5-1.6-.2-.1-.4-.2-.5-.3-.1-.1-.2-.2-.2-.4V.92c0-.6-.5-1-1.2-1l-7.6.1zm14.5 0h-.2c-.6.1-1 .4-1 1l-.1 13.2c0 .3.1.6.4.7.1 0 .1.1.2.1.2.1.4.1.7.1h8.4c.7 0 1.2-.4 1.2-1l-.1-13.2c0-.6-.5-1-1.2-1l-8.3.1zm13.1 0h-.2c-.2 0-.3.1-.4.1-.3.2-.5.5-.5.9l.1 2-.1 11c0 .6.3 1.1.8 1.2h.4c.5-.1.8-.6.8-1.2v-8.6c0-.6.5-1 1.2-1h4.4c.7 0 1.2.4 1.2 1v8.6c0 .7.3 1.2 1 1.2h.2c.5-.1.8-.6.8-1.2V1.12c0-.6-.6-1-1.2-1l-8.5-.1zm20.8 0c-.5 0-.9.2-1.1.6-.1.1-.1.3-.1.4l-.1 13.2c0 .2.1.4.2.6.2.3.6.4 1 .4h7.1c.7 0 1.2-.3 1.2-1 0-.6-.5-1-1.2-1h-5c-.7 0-1.2-.4-1.2-1l.1-7c0-.6.5-1 1.2-1h5c.7 0 1.2-.3 1.2-1V.92c0-.6-.6-1-1.2-1l-7.1.1zm-5.9 0c-.4 0-.7.2-.8.5-.1.1-.1.3-.1.4v.2l.1 8.7c0 .5-.3.8-.7.9h-.9c-.7 0-1.3.3-1.3 1v2.3c0 .3.2.6.4.7.1 0 .1.1.2.1.2.1.5.1.7.1h4c.7 0 1.2-.4 1.2-1V11.32c-.1-.6-.5-.6-.9-.7-.2 0-.3-.1-.5-.1-.2-.1-.4-.3-.4-.9V.92c0-.3-.4-.9-1-.9zm-150.5 0c-.7 0-1.2.4-1.2 1v2.3c0 .6.6 1 1.2 1h1.5c.7 0 1.2.3 1.2 1l-.1 8.7c0 .7.3 1.2 1 1.2h.2c.5-.1.8-.6.8-1.2v-8.7c0-.6.4-.9 1-.9h4.4c.7 0 1.2.3 1.2 1v8.7c0 .7.4 1.2 1 1.2h.2c.5-.1.7-.6.7-1.2l-.1-8.7c0-.6.4-.9 1-.9h1.7c.7 0 1.2-.3 1.2-1v-2.3c0-.6-.5-1-1.2-1h-15.7v-.2zm96.8 0c-.2 0-.3 0-.5.1-.1 0-.1 0-.2.1-.3.2-.5.5-.5.9v2.3c0 .6.6 1 1.2 1h1.5c.7 0 1.2.3 1.2 1l-.1 8.7c0 .3.1.6.2.9 0 .1.1.1.1.1.1.1.2.1.4.2h.4c.5-.1.8-.6.8-1.2v-8.7c0-.6.4-.9 1-.9h1.7c.7 0 1.2-.3 1.2-1v-2.3c0-.6-.5-1-1.2-1l-7.2-.2zm78.4 0h-7.4c-.6.1-1 .4-1 1l.1 6.7c0 .6.5 1 1.2 1l3.5.1c.7 0 1.2.4 1.2 1l-.1 2.4c0 .2 0 .3-.1.4-.1.2-.3.4-.6.5H556.056c-.6.1-1 .4-1 1 0 .3.1.6.3.7.2.2.5.3.9.3h9.4c.3 0 .6-.1.9-.2.2-.2.4-.4.4-.7l.1-6.6c0-.6-.6-1-1.2-1h-5.8c-.7 0-1.2-.3-1.2-1l-.1-2.8c0-.6.6-1 1.2-1h5.1c.7 0 1.2-.4 1.2-1-.2-.4-.7-.8-1.4-.8zm-153.5.2c-.7 0-1.2.3-1.2 1v4.6c0 .7-.3 1.2-1 1.2h-1.3c-.7 0-1.2.3-1.2 1l-.1 6.3c0 .5.3.8.8.9H417.556c.7 0 1.2-.3 1.2-1 0-.6-.5-1-1.2-1h-7.7c-.7 0-1.2-.4-1.2-1l.1-2.3c0-.6.5-1 1.2-1h8c.4-.1.8-.4.8-.9 0-.6-.4-.9-1-1h-2.1c-.3 0-.6-.2-.8-.4-.1-.2-.2-.4-.2-.6l.1-2.9c0-.6.6-1 1.2-1h1.6c.7 0 1.2-.3 1.2-1 0-.6-.5-1-1.2-1l-6.2.1zm29.4 0c-.4 0-.8.1-1 .4 0 0-.1.1-.1.2-.1.1-.1.3-.1.4v4.6c0 .7-.3 1.2-1 1.2h-1.3c-.7 0-1.2.3-1.2 1l-.1 6.3c0 .2.1.4.2.6.1.2.3.3.5.3H446.856c.7 0 1.2-.3 1.2-1 0-.6-.5-1-1.2-1h-7.7c-.7 0-1.2-.4-1.2-1l.1-2.3c0-.6.6-1 1.2-1h8c.4-.1.7-.4.7-.9 0-.6-.4-.9-1-1h-2.1c-.3 0-.6-.2-.8-.4-.1-.2-.2-.4-.2-.6l.1-2.9c0-.6.5-1 1.2-1h1.6c.7 0 1.2-.3 1.2-1 0-.6-.5-1-1.2-1l-6 .1zm24.3 0c-.4 0-.8.1-1 .4 0 0-.1.1-.1.2-.1.1-.1.3-.1.4v4.6c0 .7-.3 1.2-1 1.2h-1.3c-.7 0-1.2.3-1.2 1l-.1 6.3c0 .2.1.4.2.6.1.2.3.3.5.3H471.156c.7 0 1.2-.3 1.2-1 0-.6-.6-1-1.2-1h-7.7c-.7 0-1.2-.4-1.2-1l.1-2.3c0-.6.5-1 1.2-1h8c.4-.1.8-.4.8-.9 0-.6-.4-.9-1-1h-2.1c-.3 0-.6-.2-.8-.4-.1-.2-.2-.4-.2-.6l.1-2.9c0-.6.5-1 1.2-1h1.6c.7 0 1.2-.3 1.2-1 0-.6-.6-1-1.2-1l-6.1.1zm-84.4 2h2.7c.7 0 1.2.3 1.2 1l.1 2.8c0 .6-.5 1-1.2 1h-4c-1.4 0-1.2-1-1.1-1.3l1.1-2.5c.3-.6.5-1 1.2-1zm119.1 0h3.3c.7 0 1.2.3 1.2 1l.1 2.8c0 .6-.6 1-1.2 1h-3.5c-.7 0-1.2-.4-1.2-1l.1-2.8c0-.7.5-1 1.2-1zm14.3 0h4.4c.7 0 1.2.3 1.2 1l.1 7c0 .6-.5 1-1.2 1h-4.5c-.7 0-1.2-.4-1.2-1l.1-7c-.1-.7.4-1 1.1-1zM333.956 5.82s-15.5 59.5-15.9 60.9c-.5 1.8-2.2 2.3-3.1.3-1.1-2.2-12.8-42.4-12.8-42.4h-21.4s16 52.4 16.7 53.9c7.6 16.2 24.3 9.8 27.7-2.2 3.5-12.3 18.6-70.6 18.6-70.6h-9.8v.1zm-220.8 4.5-33.2 21.2v-6.7h-10.5v29.2c0 .7-1.4 2.1-2.6.3 0 0-14.1-20.2-19.1-26.2-4.2-5.1-19-4.8-19 7.2v52.2h10.6v-36.8c0-2 1.8-1.3 2.9-.1.5.6 23.1 35 24.1 36.4 2.3 3.1 13.7 5.4 13.7-6.4v-46.8h10.3c1.1 0 2.5 1.2 2.5 1.2 0 1-.2 33.1-.2 37.4 0 9.5 7.9 16 16.4 16h19v-9.3h-8.8c-3.1 0-5.6-2.3-5.6-5.4v-36.1c0-1.9 1.6-4.7 4.7-4.7s9.8-.1 9.8-.1v-8h-13.1c-1.2 0-1.9-1-1.9-1.9v-12.6zm-113 .3s-.2 73.3-.2 77.7h20.5v-77.6l-20.3-.1zm478.7 13.3c-9.8 0-18.7 4.1-24.8 10.6-.4.4-.7.8-1 1.2-4.8 5.6-7.7 12.8-7.7 20.6 0 4.5 1 8.8 2.7 12.7.2.5.4 1 .7 1.4 4 8 11.3 14.2 20.2 16.9.5.2 1.1.3 1.6.4 2.7.7 5.5 1 8.4 1 18.5 0 33.6-14.5 33.6-32.5-.2-17.8-15.2-32.3-33.7-32.3zm-89.5.4c-12.3 0-21.9 8.8-21.9 21.3 0 12.9 14.2 17 21.7 17.8 4.7.5 9.3 3.8 9.3 8.4 0 3.7-3.2 6.7-6.7 6.7l-22-.1v9.3h25.5c11.8-.6 21.1-10 21.1-21.7 0-1.9-.1-3.6-.4-5.2-.1-.4-.1-.7-.2-1.1-2.1-9.8-9.8-11.6-21.7-14.8 0 0-6.3-2-6.3-5.8 0-2.4 1.4-4 3.3-4.9.2-.1.4-.2.6-.2 1-.4 2.1-.5 3.1-.5l14.9.1v-9.2l-20.3-.1zm-133.8.1s-.2 6.5-.2 10.9l20.5-.1v-10.8h-20.3zm86.9 0s-.1 6.5-.1 10.9l20.4-.1v-10.8h-20.3zm78.3 0s-.1 6.5-.1 10.9l20.4-.1v-10.8h-20.3zm-274.6.1c-5.9 0-10.1 3-12.2 8-.2.5-.3.9-.5 1.4-.6 1.9-.9 4.1-.9 6.5v31.2c0 9.5 5.1 16.3 13.7 16.3h30.7v-9.2h-18.3c-3.1 0-5.6-2.7-5.6-5.8v-12.2h21v-9.2l-21-.1-.1-12.3c0-3.1 2.5-5.4 5.6-5.4h18.3v-9.3l-30.7.1zm34.9.1s-.2 43.2-.2 47.6c0 1.8.3 3.5.7 5 .2.5.3 1 .5 1.5 2.2 5.3 7.2 8.8 12.9 9.4.5 0 1.1.1 1.6.1h19v-9.3h-8.4c-3.1 0-5.6-2.3-5.6-5.4v-48.9h-20.5zm36.3 0s-.1 43.2-.1 47.6c0 8.9 6.4 15.1 14.2 15.9.5 0 1 .1 1.6.1h19v-9.3h-8.7c-3.1 0-5.6-2.3-5.6-5.4v-48.9h-20.4zm339 .1v29.2c0 .7-1.4 2.1-2.6.3 0 0-14-20.2-19.1-26.2-4.2-5.1-19-4.8-19.1 7.2v52.2h10.6v-36.8c0-2 1.8-1.3 2.9-.1.5.6 23.2 35 24.2 36.4.4.6 1.2 1.1 2.1 1.6.3.1.6.3 1 .4 4.2 1.4 10.6.5 10.6-8.3v-55.7l-10.6-.2zm-77.5 6.7c8.1 0 11.4 11.1 11.4 24.9 0 13.7-3.8 24.9-11.4 24.9-2.1 0-3.8-.7-5.2-1.9-.2-.2-.4-.3-.5-.5-.5-.5-1-1.1-1.4-1.8-.1-.2-.3-.5-.4-.7-2.6-4.5-3.7-11.8-3.7-20v-2.5c.1-7.5 1-14.1 3.6-18.1.1-.2.3-.4.4-.6 1.6-2.3 3.9-3.7 7.2-3.7zm-223.3 7.9s-.2 44.6-.2 49h20.5v-49h-20.3zm86.9 0s-.1 44.6-.1 49h20.4v-49h-20.3zm78.3 0s-.1 44.6-.1 49h20.4v-49h-20.3z"/></g></svg>