<?xml version="1.0" encoding="utf-8"?>
<!-- Generator: Adobe Illustrator 18.0.0, SVG Export Plug-In . SVG Version: 6.00 Build 0)  -->
<!DOCTYPE svg PUBLIC "-//W3C//DTD SVG 1.1//EN" "http://www.w3.org/Graphics/SVG/1.1/DTD/svg11.dtd">
<svg version="1.1" id="Ebene_2" xmlns="http://www.w3.org/2000/svg" xmlns:xlink="http://www.w3.org/1999/xlink" x="0px" y="0px"
	 viewBox="0 0 566.9 65.4" enable-background="new 0 0 566.9 65.4" xml:space="preserve">
<path id="path5256" fill="#2D288B" stroke="#FFFFFF" stroke-width="2" stroke-miterlimit="10" d="M433.5,26.5
	c-1.2-3.5-4.2-6.9-4.2-6.9s-4.6-6-13.7-8.1c-7.8-1.6-13.9,1.8-13.9,1.8s-5.5,2.2-9.7,6.8c-6.6,6.4-8.5,15.7-8.5,15.7
	s-2.5,8.1,1.5,14.6l4.4,5.3c6.2,5.2,12.8,5.7,12.8,5.7s5.3,1.2,11.6-0.4c5.4-1.1,9.4-3.8,9.4-3.8s9-5,11.5-15.2L433.5,26.5z
	 M419.5,43.4c0,0-3.6,6.3-11.5,5.5c-9.3-1-10.4-9.1-10.4-9.1s-1.3-6,4.4-11.2c5.8-4.9,11.8-4.1,11.8-4.1s4.1,0.4,6.1,7.1
	C422.7,40.1,419.5,43.4,419.5,43.4"/>
<path id="path5262" fill="#639D01" stroke="#FFFFFF" stroke-width="2" stroke-miterlimit="10" d="M463.5,43.5
	c-3-0.7-7.7,0.6-7.7,0.6s-6.6,2.4-7.7,2.4c-0.4-0.6-1.2-11.4-1-15.8c0.1-7.7-0.5-13.9-0.5-13.9s-0.3-7.4-4.3-11.8
	c-4.7-4.7-7.9-2.7-9.8-1.6c-4.5,4-2.4,8.9-2.4,8.9l2.3,6.6c0,0,1.1,2.8,1,7.5l1,15.6c0,2.1,1.7,16.1,1.7,16.1s0.2,4.6,4.6,5.4
	c4.5,0.7,8.9-1.5,10.8-2.4c1.9-0.9,4.3-1.7,4.3-1.7s2-0.5,4.1-0.6c4.8-0.5,6.5-1.3,6.5-1.3s1.9-0.3,3.1-2.1
	C470.9,53.8,472.4,45.5,463.5,43.5"/>
<path id="path5264" fill="#94012C" stroke="#FFFFFF" stroke-width="2" stroke-miterlimit="10" d="M384.9,50.5
	c-3.2-0.9-6.8-0.3-6.8-0.3s-10.2,1-15.6-0.1c-8.3-1.4-8-10.3-8-10.3s-0.3-5.9,4.7-13.9c6.1-9.9,12.9-11.6,12.9-11.6s1.7-0.6,3.3,0.2
	c1,5.7,6.5,5.7,6.5,5.7s8,0.5,7.6-9.1c-0.9-8-8.6-9-11.8-9.8c-9.6-1.7-15.9,3.4-15.9,3.4s-6.5,3.5-14.2,15.7
	c-5.3,7.6-5.9,13.5-5.9,13.5s-0.6,1.4-0.4,7.7c-0.1,4.9,1.7,8.5,1.7,8.5s2.8,8.4,11.6,11.9C360.1,64,368,64,368,64s7.6-0.1,13.4-0.4
	c3.2,0.2,4.7-1.4,4.7-1.4s3.6-2.3,3.2-6.4C389.3,55.8,388.6,51.6,384.9,50.5"/>
<path id="path5266" fill="#2E3192" stroke="#FFFFFF" stroke-width="2" stroke-miterlimit="10" d="M155.8,61.8h-11.7l-1.6-35.2
	l-15.2,35.2h-7.8L113.1,30l-10.1,31.8H83.1l-3-17H66.6l-7.7,17H46.7L71.8,4.9h14.4l7.7,46l14.9-46h11.6l5.7,31.2l13.2-31.2h14
	L155.8,61.8z M78.3,33.8l-2.1-11l-4.9,11H78.3"/>
<path id="path5268" fill="#2E3192" stroke="#FFFFFF" stroke-width="2" stroke-miterlimit="10" d="M189.3,61.8l2-12.2h-20.4l1.6-10.1
	h17.7l1.9-12.2h-17.9l1.6-10.1h20.4l1.9-12.2h-32.3l-9.1,56.9H189.3"/>
<path id="path5270" fill="#2E3192" stroke="#FFFFFF" stroke-width="2" stroke-miterlimit="10" d="M341.1,4.9h-13.6l-11.6,18.6
	l-7.3-18.6h-13.4l13.8,30l-4.2,26.9h11.7L320,38L341.1,4.9"/>
<path id="path5272" fill="#2E3192" stroke="#FFFFFF" stroke-width="2" stroke-miterlimit="10" d="M254,28.5
	c3.6-15.7,17.1-26,30-23.1c13,3,20.5,18.2,16.9,33.9c-3.6,15.7-17.1,26-30,23C257.9,59.4,250.4,44.2,254,28.5z M271.7,51
	c6.2,2.8,13.8-2.7,16.9-12.1c3.1-9.5,0.7-19.4-5.5-22.1c-6.2-2.8-13.7,2.7-16.9,12.1C263,38.3,265.5,48.2,271.7,51"/>
<path id="path5276" fill="#2E3192" stroke="#FFFFFF" stroke-width="2" stroke-miterlimit="10" d="M225.9,17.2c0,0,0.3,0,7.6,0
	c8.2,0,6.6,10.6-1.3,10.6c-6.4,0-8.1,0-8.1,0L225.9,17.2z M222.3,39.4c0,0,2.4,0,9.8,0c9.3,0,9,11.3-1.3,11.3c-6.4,0-10.3,0-10.3,0
	L222.3,39.4L222.3,39.4z M215.9,5.3l-9,56.4c0,0,18.7,0,26.3,0c10.8,0,26.7-16,12.2-29c14.8-15.3,0.1-27.3-7.7-27.5
	c-6.3-0.1-21.9,0-21.9,0L215.9,5.3"/>
<path id="path5274" fill="#2E3192" stroke="#FFFFFF" stroke-width="2" stroke-miterlimit="10" d="M21.8,10
	C10.7,16.9,5.3,27.4,6.7,41.7c1.7,16.6,23.1,27,41.3,16.5c1.6-0.9,1-0.8,1.6-1.3l3.6-23.1H31.5l-1.7,10.6h9.1l-1,5.7
	c-5.2,2.1-14,1.3-17.8-5.5c-2.4-4.3-4.6-13.8,5.5-22.6c8.2-7.1,22.3-8.4,30.5-4.7c0,0,1-6,1.8-11.6C42.2,0.4,30,4.9,21.8,10"/>
<path id="path5258" fill="#C8A601" stroke="#FFFFFF" stroke-width="2" stroke-miterlimit="10" d="M513.3,24.6
	C507.1,14.5,496.2,13,496.2,13s-3.5-1.2-10.9-0.2c-13.9,2.7-18.8,13.4-18.8,13.4s-5,7.8-3,17.3l6.1,12c4.5,4.2,6.3,4.2,6.6,4.5
	c5.9,2.7,12.8,1.1,12.8,1.1s8.7-0.8,16.6-7c6.4-4.7,9.1-11.5,9.1-11.5l0.8-9.2L513.3,24.6L513.3,24.6z M496.3,45.3
	c-10,6-16.3-0.6-16.3-0.6s-2.8-1.8-3.4-7.4c-0.4-6.5,6-9.8,6-9.8s3.4-2.1,7.6-1.8c4.2,0.3,5.6,0,9,2.6c3.2,2.9,3,5.1,3,5.1
	S503.5,40.6,496.3,45.3"/>
<path id="path5260" fill="#00766A" stroke="#FFFFFF" stroke-width="2" stroke-linecap="round" stroke-miterlimit="10" d="
	M514.8,42.6c0,0,0.2,5.7-0.7,7c-1.2,2.6-1,5.1-1,5.1s-0.8,7.6,8,8.9c6.1,0,6.8-5.1,6.9-7.2c0.4-1.7,0.2-9.6,0.2-9.6l7.9,6.4
	c0,0,5.7,4.8,9.1,7.6c3.5,2.8,4.4,3.2,4.4,3.2s0.7,0.9,3.4,0.6c2.2,0,4.1-1.9,4.1-1.9s2.5-1.8,3.1-5c0.8-3.8-2.2-5.7-2.2-5.7
	s-10.9-8.8-18.4-14.9c5-2.7,7.4-4.6,7.4-4.6s6.9-4.6,8.4-11.6c2.1-7.7-3.8-10.8-3.8-10.8s-3.6-2.6-6.7-4c-7.7-3.8-14.9-3-14.9-3
	s-10.2-0.7-16.9,7.5c-3.1,4-1.2,9.2-1.2,9.2s0.4,0.8,1.2,4.8C515,32.6,514.8,42.6,514.8,42.6L514.8,42.6z M528.2,26.9l-0.7-9.2
	c0,0,6.5-0.1,9.1,0.3c5.3,0.8,5,2.3,5,2.3s-0.2,1.9-4.2,3.7C533.1,26.1,528.2,26.9,528.2,26.9"/>
</svg>
