<svg xmlns="http://www.w3.org/2000/svg" viewBox="0 0 566.9 65.4" xml:space="preserve"><path fill="#2D288B" stroke="#FFF" stroke-width="2" stroke-miterlimit="10" d="M433.5 26.5c-1.2-3.5-4.2-6.9-4.2-6.9s-4.6-6-13.7-8.1c-7.8-1.6-13.9 1.8-13.9 1.8s-5.5 2.2-9.7 6.8c-6.6 6.4-8.5 15.7-8.5 15.7s-2.5 8.1 1.5 14.6l4.4 5.3c6.2 5.2 12.8 5.7 12.8 5.7s5.3 1.2 11.6-.4c5.4-1.1 9.4-3.8 9.4-3.8s9-5 11.5-15.2l-1.2-15.5zm-14 16.9s-3.6 6.3-11.5 5.5c-9.3-1-10.4-9.1-10.4-9.1s-1.3-6 4.4-11.2c5.8-4.9 11.8-4.1 11.8-4.1s4.1.4 6.1 7.1c2.8 8.5-.4 11.8-.4 11.8"/><path fill="#639D01" stroke="#FFF" stroke-width="2" stroke-miterlimit="10" d="M463.5 43.5c-3-.7-7.7.6-7.7.6s-6.6 2.4-7.7 2.4c-.4-.6-1.2-11.4-1-15.8.1-7.7-.5-13.9-.5-13.9s-.3-7.4-4.3-11.8c-4.7-4.7-7.9-2.7-9.8-1.6-4.5 4-2.4 8.9-2.4 8.9l2.3 6.6s1.1 2.8 1 7.5l1 15.6c0 2.1 1.7 16.1 1.7 16.1s.2 4.6 4.6 5.4c4.5.7 8.9-1.5 10.8-2.4 1.9-.9 4.3-1.7 4.3-1.7s2-.5 4.1-.6c4.8-.5 6.5-1.3 6.5-1.3s1.9-.3 3.1-2.1c1.4-1.6 2.9-9.9-6-11.9"/><path fill="#94012C" stroke="#FFF" stroke-width="2" stroke-miterlimit="10" d="M384.9 50.5c-3.2-.9-6.8-.3-6.8-.3s-10.2 1-15.6-.1c-8.3-1.4-8-10.3-8-10.3s-.3-5.9 4.7-13.9c6.1-9.9 12.9-11.6 12.9-11.6s1.7-.6 3.3.2c1 5.7 6.5 5.7 6.5 5.7s8 .5 7.6-9.1c-.9-8-8.6-9-11.8-9.8-9.6-1.7-15.9 3.4-15.9 3.4s-6.5 3.5-14.2 15.7c-5.3 7.6-5.9 13.5-5.9 13.5s-.6 1.4-.4 7.7c-.1 4.9 1.7 8.5 1.7 8.5s2.8 8.4 11.6 11.9c5.5 2 13.4 2 13.4 2s7.6-.1 13.4-.4c3.2.2 4.7-1.4 4.7-1.4s3.6-2.3 3.2-6.4c0 0-.7-4.2-4.4-5.3"/><path fill="#2E3192" stroke="#FFF" stroke-width="2" stroke-miterlimit="10" d="M155.8 61.8h-11.7l-1.6-35.2-15.2 35.2h-7.8L113.1 30 103 61.8H83.1l-3-17H66.6l-7.7 17H46.7L71.8 4.9h14.4l7.7 46 14.9-46h11.6l5.7 31.2 13.2-31.2h14l2.5 56.9zm-77.5-28-2.1-11-4.9 11h7M189.3 61.8l2-12.2h-20.4l1.6-10.1h17.7l1.9-12.2h-17.9l1.6-10.1h20.4L198.1 5h-32.3l-9.1 56.9h32.6M341.1 4.9h-13.6l-11.6 18.6-7.3-18.6h-13.4l13.8 30-4.2 26.9h11.7L320 38l21.1-33.1"/><path fill="#2E3192" stroke="#FFF" stroke-width="2" stroke-miterlimit="10" d="M254 28.5c3.6-15.7 17.1-26 30-23.1 13 3 20.5 18.2 16.9 33.9-3.6 15.7-17.1 26-30 23-13-2.9-20.5-18.1-16.9-33.8zM271.7 51c6.2 2.8 13.8-2.7 16.9-12.1 3.1-9.5.7-19.4-5.5-22.1-6.2-2.8-13.7 2.7-16.9 12.1-3.2 9.4-.7 19.3 5.5 22.1"/><path fill="#2E3192" stroke="#FFF" stroke-width="2" stroke-miterlimit="10" d="M225.9 17.2h7.6c8.2 0 6.6 10.6-1.3 10.6h-8.1l1.8-10.6zm-3.6 22.2h9.8c9.3 0 9 11.3-1.3 11.3h-10.3l1.8-11.3zm-6.4-34.1-9 56.4h26.3c10.8 0 26.7-16 12.2-29 14.8-15.3.1-27.3-7.7-27.5-6.3-.1-21.9 0-21.9 0l.1.1M21.8 10C10.7 16.9 5.3 27.4 6.7 41.7c1.7 16.6 23.1 27 41.3 16.5 1.6-.9 1-.8 1.6-1.3l3.6-23.1H31.5l-1.7 10.6h9.1l-1 5.7c-5.2 2.1-14 1.3-17.8-5.5-2.4-4.3-4.6-13.8 5.5-22.6 8.2-7.1 22.3-8.4 30.5-4.7 0 0 1-6 1.8-11.6C42.2.4 30 4.9 21.8 10"/><path fill="#C8A601" stroke="#FFF" stroke-width="2" stroke-miterlimit="10" d="M513.3 24.6C507.1 14.5 496.2 13 496.2 13s-3.5-1.2-10.9-.2c-13.9 2.7-18.8 13.4-18.8 13.4s-5 7.8-3 17.3l6.1 12c4.5 4.2 6.3 4.2 6.6 4.5 5.9 2.7 12.8 1.1 12.8 1.1s8.7-.8 16.6-7c6.4-4.7 9.1-11.5 9.1-11.5l.8-9.2-2.2-8.8zm-17 20.7c-10 6-16.3-.6-16.3-.6s-2.8-1.8-3.4-7.4c-.4-6.5 6-9.8 6-9.8s3.4-2.1 7.6-1.8c4.2.3 5.6 0 9 2.6 3.2 2.9 3 5.1 3 5.1s1.3 7.2-5.9 11.9"/><path fill="#00766A" stroke="#FFF" stroke-width="2" stroke-linecap="round" stroke-miterlimit="10" d="M514.8 42.6s.2 5.7-.7 7c-1.2 2.6-1 5.1-1 5.1s-.8 7.6 8 8.9c6.1 0 6.8-5.1 6.9-7.2.4-1.7.2-9.6.2-9.6l7.9 6.4s5.7 4.8 9.1 7.6c3.5 2.8 4.4 3.2 4.4 3.2s.7.9 3.4.6c2.2 0 4.1-1.9 4.1-1.9s2.5-1.8 3.1-5c.8-3.8-2.2-5.7-2.2-5.7s-10.9-8.8-18.4-14.9c5-2.7 7.4-4.6 7.4-4.6s6.9-4.6 8.4-11.6c2.1-7.7-3.8-10.8-3.8-10.8s-3.6-2.6-6.7-4c-7.7-3.8-14.9-3-14.9-3s-10.2-.7-16.9 7.5c-3.1 4-1.2 9.2-1.2 9.2s.4.8 1.2 4.8c1.9 8 1.7 18 1.7 18h0zm13.4-15.7-.7-9.2s6.5-.1 9.1.3c5.3.8 5 2.3 5 2.3s-.2 1.9-4.2 3.7c-4.3 2.1-9.2 2.9-9.2 2.9"/></svg>