<svg xmlns="http://www.w3.org/2000/svg" viewBox="0 0 566.9 121.8" xml:space="preserve"><g fill="#c3c6c5"><path d="M207 5.3c4.7-6 14.5-7.1 20.3-2 2.4 2 4 4.8 4.9 7.7 10.7 36.9 21.5 73.8 32.2 110.7h-19c-3-10.2-5.9-20.4-8.9-30.6h-36.7c-3 10.2-6 20.4-8.9 30.6H172l30.6-105.6c1.3-3.7 1.8-7.8 4.4-10.8m11.2 22.6c-4.5 15.3-8.9 30.6-13.4 45.9h26.7c-4.4-15.3-8.9-30.6-13.3-45.9zM340.4 6.1c3.3-4.8 9.7-7.1 15.3-5.6 5.1 1.2 9.1 5.6 10.4 10.6 10.7 36.9 21.5 73.8 32.2 110.7h-19c-2.9-10.2-5.9-20.4-8.8-30.6h-36.7c-2.9 10.2-5.9 20.4-8.9 30.6H306c10.2-35.4 20.5-70.8 30.8-106.2 1.1-3.2 1.5-6.8 3.6-9.5m-1.5 67.7h26.6c-4.4-15.3-8.9-30.7-13.3-46-4.5 15.4-8.9 30.7-13.3 46zM250.2.3h68.7v18.5h-25.3v102.9h-18.1V18.8h-25.3V.3zM418.5 1c1.7-.6 3.6-.8 5.4-.8h21.7c12.2.2 23.8 7.8 29 18.7 3.6 7.1 4 15.4 3.1 23.2-.6 8.2-4.1 16.3-10.3 21.7-3.3 3-7.4 4.7-11 7.4-1.9 1.5-2 4.4-1 6.4 9.6 14.8 19.6 29.4 29.3 44h-21.5c-9.4-14.1-18.6-28.2-28-42.3-2.7-4-3.5-9.3-1.8-13.9 1.3-3.5 4.4-6.1 7.8-7.4 6.5-2.5 13-6.4 16.6-12.6 2.8-4.6 2.6-10.3 1.4-15.4-1.5-6.6-7.9-11.7-14.6-11.5h-14c-2.1 0-4.1 1.8-4.1 3.9v99.1h-18.3V14.8c-.1-6 4.4-11.9 10.3-13.8zM494.3.3h19.2v121.5h-19.2V.3zM54.2 0h9.2v21.7c0 6-.1 12.1-.4 18.1-.4 8.7-1 17.4-2.4 26.1-1 5.9-3 11.7-5.6 17.1-4.2 8.8-10.7 16.2-18 22.4-6.6 5.8-14.4 10-22.6 12.8-4.7 1.6-9.5 2.8-14.4 3.5v-18.2c5.9-.9 11.5-3 16.8-5.7 6.2-3.3 11.8-7.7 16.6-13 4.9-5.4 8.8-11.6 11.7-18.3 3.5-7.6 5.3-15.9 6.6-24.1 1.6-10.5 2.2-21.1 2.5-31.7V0zM67.1 0h17v121.7h-17c-.1-12.9 0-25.9 0-38.8V0zM87.9 0h9.2c-.1 12.4.3 24.8 1.8 37.1 1.2 9.5 2.9 19.2 6.7 28.1 3.6 8.6 8.8 16.6 15.6 23.1 6.5 6.2 14.3 10.9 22.8 13.6 2.4.8 4.8 1.4 7.3 1.7v18.2c-4.9-.7-9.6-1.9-14.2-3.5-5.5-1.9-10.8-4.4-15.7-7.6-3.6-2.3-6.8-5.1-10-7.9-5.1-4.7-9.8-10.1-13.2-16.3-2.7-4.8-4.7-9.9-6.2-15.1-1.4-5.3-2-10.7-2.6-16.1-1.1-11.7-1.5-23.5-1.4-35.2-.1-6.8-.1-13.4-.1-20.1z"/><path d="M54.2 0v10.8c-.2 10.6-.9 21.2-2.5 31.7-1.3 8.2-3.1 16.5-6.6 24.1-3 6.6-6.8 12.9-11.7 18.3-4.7 5.2-10.3 9.7-16.6 13-5.3 2.8-10.9 4.8-16.8 5.7v18.2c4.9-.7 9.7-1.9 14.4-3.5 8.2-2.8 16.1-7.1 22.6-12.8 7.3-6.2 13.9-13.6 18-22.4 2.5-5.4 4.6-11.2 5.6-17.1 1.4-8.6 2-17.3 2.4-26.1.3-6 .4-12.1.4-18.1V.1C60.3 0 57.2 0 54.2 0M67.1 0v121.7c5.7-.1 11.3 0 17 0V0h-17M87.9 0v19.9c-.1 11.8.3 23.5 1.4 35.2.6 5.4 1.2 10.9 2.6 16.1 1.5 5.2 3.5 10.4 6.2 15.1 3.5 6.1 8.1 11.5 13.2 16.3 3.1 2.9 6.4 5.6 10 7.9 4.9 3.2 10.2 5.7 15.7 7.6 4.6 1.6 9.4 2.8 14.2 3.5v-18.2c-2.5-.4-4.9-1-7.3-1.7-8.5-2.7-16.3-7.5-22.8-13.6-6.8-6.4-12-14.4-15.6-23.1-3.8-8.9-5.5-18.5-6.7-28.1C97.4 24.8 97 12.4 97.1 0h-9.2M535.4 109.7l7.1 2.2-.1-2.4c0-6.7 5.8-11.1 12.1-11.1 7.3 0 12.3 5.7 12.3 12.8 0 4.3-2.3 8.6-6.1 10.6l-3-3.2c2.9-1.1 5.2-4.6 5.2-7.7 0-4.7-3.9-8.4-8.5-8.4-4.5 0-8.2 3.8-8.2 8.3 0 2.4 1.2 5 3.1 6.5v.8l-17.8-5.3v-14h4l-.1 10.9zM562.2 75.4h4v22.4l-18.6-15.2c-1.7-1.4-3.9-3.1-6.2-3.1-3.6 0-6.6 3.2-6.6 6.8 0 3.5 2.9 6.4 6.3 6.7v4.3c-6.2-.7-10.3-4.7-10.3-11 0-5.9 4.4-10.9 10.4-10.9 2.6 0 5.2 1 7.1 2.6l13.9 11.4v-14zM530.7 56.5c0 9.9 8.1 18 18.2 18 9.9 0 18-8.1 18-18 0-10.2-7.9-18.2-18.1-18.2s-18.1 7.9-18.1 18.2zm18.2-14c7.8 0 14 6.2 14 14.2 0 7.5-6.3 13.5-14 13.5-7.8 0-14.1-6.1-14.1-13.5 0-8.1 6.1-14.2 14.1-14.2zM530.7 18.2c0 9.9 8.1 18 18.2 18 9.9 0 18-8.1 18-18C566.9 8 559 0 548.8 0s-18.1 8-18.1 18.2zm18.2-13.9c7.8 0 14 6.2 14 14.2 0 7.5-6.3 13.5-14 13.5-7.8 0-14.1-6.1-14.1-13.5 0-8.1 6.1-14.2 14.1-14.2z"/></g></svg>