<svg xmlns="http://www.w3.org/2000/svg" viewBox="0 0 566.9 121.8" xml:space="preserve"><path fill="#c3c6c5" d="M0 0h28.1v8.3h-8.2v112.1h-10V8.3H0zM53.5 112.2h11V33.6h9.6v78.6c0 5.1-4.6 8.7-9.4 8.7H53.5c-5 0-9.5-4.1-9.5-8.8V33.6h9.5v78.6zM259.7 52.8h14.6V121h-20.6c-4.4 0-9.8-3.4-9.8-8.5V9.5c0-4.3 4.5-8.9 9.6-8.9h11.3c5 0 9.5 4.6 9.5 8.8v24.4h-9.9V9.7h-11.2v102.9h11.5V61.2h-5v-8.4zM401.3 79.2v41.3H392V41.3c0-3.6 3.6-7.5 8-7.5h15.2v7.6h-14v29.2h11.6v8.5l-11.5.1zM434 33.9h9.7v31.5l5.5 5.5 5.4-5.4V33.9h9.6v30c0 3.7-9.5 13.3-9.5 13.3s9.6 9.6 9.6 13.5v29.9h-9V89.5l-5.8-5.9-5.8 5.8v31.2H434V90.8c0-3.7 10.2-13.7 10.2-13.7S434 67.6 434 63.7V33.9zM115.6 79.3c3.3 0 7.6-3.9 7.6-9.1V41.8c0-4.1-4.7-7.9-10-7.9H93.5v86.9h9.1V80h3.4l10.1 40.7h8.9l-9.4-41.4zm-1.8-8.4h-10.9V42.3h10.9v28.6zM316.5 79.1c3.3 0 7.6-3.9 7.6-9.1V41.6c0-4.1-4.7-7.9-10-7.9h-19.7v86.9h9.1V79.8h3.4l10.1 40.7h8.9l-9.4-41.4zm-2-8.6h-10.9V42h10.9v28.5zM171.7 81.4c0-3.9-4.1-6.4-4.1-6.4s4.1-2.7 4.1-6.4V42.2c0-5-4.4-8.3-8.9-8.3h-20.7v86.7h20.7c4.2 0 8.9-2.6 8.9-8.3 0 .1.1-27 0-30.9zm-9.3 30.7h-10.9V79.8h10.9v32.3zm0-41.3h-10.9V42.3h10.9v28.5zM211.4 33.3h-10.8c-5.4 0-9.4 4.6-9.4 8.2v70.4c0 4.6 5.1 8.7 9.4 8.7h11.7c4.6 0 9.2-4.7 9.2-8.5V41.2c0-3.2-4.4-7.9-10.1-7.9zm.3 78.3h-10.5V41.8h10.5v69.8zM363.7 33.9h-12c-5.4 0-8.6 4.4-8.6 7.9v78.6h9.1V79.2h11.5v41.3h9.1V42.3c0-5.2-3.6-8.4-9.1-8.4zm-.3 36.7h-10.9v-28h10.9v28z"/><g fill="#c3c6c5"><path d="M518.9 79.9H547v10.5h-28.1z"/><path d="M522.4 32.7c-24.6 0-44.6 19.9-44.6 44.6s19.9 44.6 44.6 44.6c24.6 0 44.6-19.9 44.6-44.6-.1-24.7-20-44.6-44.6-44.6zm-15.2 62.8h-14.1v-4.9h4.6V64.4h-4.5v-5.1h9.6v31.2h4.5l-.1 5zm44.7-26.7h-4.5v-4.5h-28.7v10.9h30.6l2.6 2.6v14.4l-3.2 3.2h-31.3l-3.2-3.2V62.5l3-3h32.1l2.8 2.8v6.5z"/></g></svg>