<svg xmlns="http://www.w3.org/2000/svg" viewBox="0 340.5 612 111" xml:space="preserve"><path fill="#0222A9" d="m55.6 352.5-12.8 22.9 12.8-4.9 12.2 4.7 3.3-3.7v-24.9z"/><path fill="#011DA9" d="m95.4 434.8-23.2-30.3v40l-16.6 7v-68.2l16.6-6.4L95.4 410v-42.1l15.8-6.1v66.4z"/><path fill="#0222A9" d="m15.8 434.8 14.8-6.6-14.8-28.6z"/><g fill="#069330"><path d="m31.5 361.8 7.4 15.1 3.9-1.5 12.8-22.9-15.5-6.1zM67.8 375.2l11.9-13.4 15.7 6.1V410l-23.2-33.1z"/><path d="M15.8 367.9 0 361.8v66.4l15.8 6.6v-35.2l23.1 44.9 16.7 7v-68.2l-16.7-6.4v34.6z"/></g><g fill="#FE2015"><path d="M38.9 376.9v34.6l-23.1-43.6 15.7-6.1zM95.4 434.8l-23.2-30.3V421l4.8 6.6z"/></g><g fill="#FFC001"><path d="m72.2 376.9-16.6 6.4-16.7-6.4 16.7-6.4zM79.7 361.8l15.7-6.1 15.8 6.1-15.8 6.1zM0 361.8l15.8-6.1 15.7 6.1-15.7 6.1zM71.1 346.6l-15.5-6.1-15.5 5.9 15.5 6.1z"/></g><path fill="#c3c6c5" d="M547.3 417.4c-3.3 0-6 2.7-6 6s2.7 6 6 6 6-2.7 6-6c.2-3.2-2.6-6-6-6zm0 11.1c-2.8 0-5-2.3-5-5.1s2.3-5 5-5c2.8 0 5.1 2.3 5.1 5 0 2.8-2.3 5.1-5.1 5.1z"/><path fill="#c3c6c5" d="M546.4 426.9H545v-6.7h2.8c1.2 0 2.4.4 2.4 1.7 0 .9-.5 1.4-1.4 1.6 1.1.1 1.1.8 1.2 1.7.1.4.1 1.2.4 1.6h-1.6c-.1-.5-.2-1.2-.2-1.8 0-.3-.1-.9-.6-.9h-1.5l-.1 2.8zm0-3.9h1.2c.6 0 1-.3 1-.9 0-.5-.3-.9-1-.9h-1.2v1.8z"/><path fill="#3058C6" d="m252.6 429.4-8.5-24.8v24.8h-17.8v-53.5h24.9l8.5 24.5v-24.5h17.9v53.5zM433.5 429.4V376h23.9c17.7 0 26.8 9.2 26.8 27.3 0 15.9-10 26.1-25.6 26.1h-25.1zm21.9-13.9c2.7 0 4.4-.8 5.4-2.5 1.2-1.9 1.3-6 1.3-10.5s-.1-8.4-1.3-10.5c-1-1.7-2.7-2.5-5.5-2.5h-.8v25.8h.9v.2zM513.3 430.7c-16.4 0-26.1-10.5-26.1-28.1s9.8-28.1 26.1-28.1c16.4 0 26.1 10.5 26.1 28.1.1 17.6-9.8 28.1-26.1 28.1zm0-41.1c-1.7 0-4.1 0-4.1 13s2.4 13 4.1 13 4.1 0 4.1-13-2.3-13-4.1-13zM165.6 429.4l-8.6-24.8v24.8h-17.8v-53.5h24.9l8.6 24.5v-24.5h17.7v53.5zM402.6 429.4l-8.7-24.8v24.8h-17.7v-53.5h24.9l8.6 24.5v-24.5h17.8v53.5zM197.8 375.9h21.4v53.4h-21.4zM293.2 429.4V392H281v-16.1h45.9V392h-12.3v37.4zM330.3 429.3v-53.5h40.3v15.8h-19.1v3.2h17.6V410h-17.6v3.7h19.8v15.6z"/><g fill="#FF2D1E"><path d="M572.8 370.1c-1-.1-2.1 0-3.5 0-8.1.3-11.4 3.9-12.5 7.8h.2c2.1-1.7 4.5-2.6 7.9-2.6 6.5 0 12.3 4.6 12.3 13.5 0 8.4-6.5 15-15.1 15-11.4 0-16.4-8.7-16.4-18.1 0-7.6 2.7-14 7.1-18.2 4.2-3.9 9.6-5.8 16.3-6 1.7-.1 2.8 0 3.7.1v8.5zM562 395.5c2.6 0 4.2-2.7 4.2-6.2 0-2.9-1.4-6-4.9-6-2.2 0-3.9 1.4-4.4 3-.2.5-.3 1.2-.3 2.5.1 3.2 1.7 6.7 5.4 6.7zM597.4 403v-9.2h-17.1v-7.3L594 362h13.7v23.4h4.3v8.4h-4.3v9.2h-10.3zm0-17.6v-7.1c0-2.6.1-5.3.3-8.2h-.2c-1.3 2.8-2.4 5.4-3.8 8.3l-3.3 6.8v.1l7 .1z"/></g></svg>