<?xml version="1.0" encoding="utf-8"?>
<!-- Generator: Adobe Illustrator 18.0.0, SVG Export Plug-In . SVG Version: 6.00 Build 0)  -->
<!DOCTYPE svg PUBLIC "-//W3C//DTD SVG 1.1//EN" "http://www.w3.org/Graphics/SVG/1.1/DTD/svg11.dtd">
<svg version="1.1" id="Layer_1" xmlns:svg="http://www.w3.org/2000/svg"
	 xmlns="http://www.w3.org/2000/svg" xmlns:xlink="http://www.w3.org/1999/xlink" x="0px" y="0px" viewBox="0 340.5 612 111"
	 enable-background="new 0 340.5 612 111" xml:space="preserve">
<g>
	<g>
		<g id="layer2">
			<polygon id="polygon3542" fill="#0222A9" points="55.6,352.5 42.8,375.4 55.6,370.5 67.8,375.2 71.1,371.5 71.1,346.6 			"/>
			<polygon id="polygon3558" fill="#011DA9" points="95.4,434.8 72.2,404.5 72.2,444.5 55.6,451.5 55.6,383.3 72.2,376.9 95.4,410 
				95.4,367.9 111.2,361.8 111.2,428.2 			"/>
			<polygon id="polygon3560" fill="#0222A9" points="15.8,434.8 30.6,428.2 15.8,399.6 			"/>
		</g>
		<g id="layer3">
			<polygon id="polygon3538" fill="#069330" points="31.5,361.8 38.9,376.9 42.8,375.4 55.6,352.5 40.1,346.4 			"/>
			<polygon id="polygon3540" fill="#069330" points="67.8,375.2 79.7,361.8 95.4,367.9 95.4,410 72.2,376.9 			"/>
			<polygon id="polygon3552" fill="#069330" points="15.8,367.9 0,361.8 0,428.2 15.8,434.8 15.8,399.6 38.9,444.5 55.6,451.5 
				55.6,383.3 38.9,376.9 38.9,411.5 			"/>
		</g>
		<g id="layer4">
			<polygon id="polygon3554" fill="#FE2015" points="38.9,376.9 38.9,411.5 15.8,367.9 31.5,361.8 			"/>
			<polygon id="polygon3556" fill="#FE2015" points="95.4,434.8 72.2,404.5 72.2,421 77,427.6 			"/>
		</g>
		<g id="layer5">
			<polygon id="polygon3544" fill="#FFC001" points="72.2,376.9 55.6,383.3 38.9,376.9 55.6,370.5 			"/>
			<polygon id="polygon3546" fill="#FFC001" points="79.7,361.8 95.4,355.7 111.2,361.8 95.4,367.9 			"/>
			<polygon id="polygon3548" fill="#FFC001" points="0,361.8 15.8,355.7 31.5,361.8 15.8,367.9 			"/>
			<polygon id="polygon3550" fill="#FFC001" points="71.1,346.6 55.6,340.5 40.1,346.4 55.6,352.5 			"/>
		</g>
	</g>
	<g>
		<g id="path3562">
			<path fill="#c3c6c5" d="M547.3,417.4c-3.3,0-6,2.7-6,6s2.7,6,6,6s6-2.7,6-6C553.5,420.2,550.7,417.4,547.3,417.4L547.3,417.4z
				 M547.3,428.5c-2.8,0-5-2.3-5-5.1c0-2.8,2.3-5,5-5c2.8,0,5.1,2.3,5.1,5C552.4,426.2,550.1,428.5,547.3,428.5L547.3,428.5z"/>
		</g>
		<g id="path3564">
			<path fill="#c3c6c5" d="M546.4,426.9H545v-6.7h2.8c1.2,0,2.4,0.4,2.4,1.7c0,0.9-0.5,1.4-1.4,1.6l0,0c1.1,0.1,1.1,0.8,1.2,1.7
				c0.1,0.4,0.1,1.2,0.4,1.6h-1.6c-0.1-0.5-0.2-1.2-0.2-1.8c0-0.3-0.1-0.9-0.6-0.9h-1.5L546.4,426.9L546.4,426.9z M546.4,423h1.2
				c0.6,0,1-0.3,1-0.9c0-0.5-0.3-0.9-1-0.9h-1.2V423L546.4,423z"/>
		</g>
		<g>
			<g id="polygon3568">
				<polygon fill="#3058C6" points="252.6,429.4 244.1,404.6 244.1,429.4 226.3,429.4 226.3,375.9 251.2,375.9 259.7,400.4 
					259.7,375.9 277.6,375.9 277.6,429.4 				"/>
			</g>
			<g id="path3528">
				<path fill="#3058C6" d="M433.5,429.4V376h23.9c17.7,0,26.8,9.2,26.8,27.3c0,15.9-10,26.1-25.6,26.1H433.5z M455.4,415.5
					c2.7,0,4.4-0.8,5.4-2.5c1.2-1.9,1.3-6,1.3-10.5s-0.1-8.4-1.3-10.5c-1-1.7-2.7-2.5-5.5-2.5h-0.8v25.8h0.9V415.5z"/>
			</g>
			<g id="path3530">
				<path fill="#3058C6" d="M513.3,430.7c-16.4,0-26.1-10.5-26.1-28.1s9.8-28.1,26.1-28.1c16.4,0,26.1,10.5,26.1,28.1
					C539.5,420.2,529.6,430.7,513.3,430.7z M513.3,389.6c-1.7,0-4.1,0-4.1,13s2.4,13,4.1,13s4.1,0,4.1-13
					C517.4,389.6,515.1,389.6,513.3,389.6z"/>
			</g>
			<g id="polygon3566">
				<polygon fill="#3058C6" points="165.6,429.4 157,404.6 157,429.4 139.2,429.4 139.2,375.9 164.1,375.9 172.7,400.4 172.7,375.9 
					190.4,375.9 190.4,429.4 				"/>
			</g>
			<g id="polygon3570">
				<polygon fill="#3058C6" points="402.6,429.4 393.9,404.6 393.9,429.4 376.2,429.4 376.2,375.9 401.1,375.9 409.7,400.4 
					409.7,375.9 427.5,375.9 427.5,429.4 				"/>
			</g>
			<g id="polygon3572">
				<rect x="197.8" y="375.9" fill="#3058C6" width="21.4" height="53.4"/>
			</g>
			<g id="polygon3574">
				<polygon fill="#3058C6" points="293.2,429.4 293.2,392 281,392 281,375.9 326.9,375.9 326.9,392 314.6,392 314.6,429.4 				"/>
			</g>
			<g id="polygon3576">
				<polygon fill="#3058C6" points="330.3,429.3 330.3,375.8 370.6,375.8 370.6,391.6 351.5,391.6 351.5,394.8 369.1,394.8 
					369.1,410 351.5,410 351.5,413.7 371.3,413.7 371.3,429.3 				"/>
			</g>
		</g>
		<g id="layer7">
			<path id="path3532" fill="#FF2D1E" d="M572.8,370.1c-1-0.1-2.1,0-3.5,0c-8.1,0.3-11.4,3.9-12.5,7.8h0.2c2.1-1.7,4.5-2.6,7.9-2.6
				c6.5,0,12.3,4.6,12.3,13.5c0,8.4-6.5,15-15.1,15c-11.4,0-16.4-8.7-16.4-18.1c0-7.6,2.7-14,7.1-18.2c4.2-3.9,9.6-5.8,16.3-6
				c1.7-0.1,2.8,0,3.7,0.1V370.1L572.8,370.1z M562,395.5c2.6,0,4.2-2.7,4.2-6.2c0-2.9-1.4-6-4.9-6c-2.2,0-3.9,1.4-4.4,3
				c-0.2,0.5-0.3,1.2-0.3,2.5C556.7,392,558.3,395.5,562,395.5L562,395.5L562,395.5z"/>
			<path id="path3534" fill="#FF2D1E" d="M597.4,403v-9.2h-17.1v-7.3L594,362h13.7v23.4h4.3v8.4h-4.3v9.2H597.4L597.4,403z
				 M597.4,385.4v-7.1c0-2.6,0.1-5.3,0.3-8.2h-0.2c-1.3,2.8-2.4,5.4-3.8,8.3l-3.3,6.8v0.1L597.4,385.4L597.4,385.4z"/>
		</g>
	</g>
</g>
</svg>
