<?xml version="1.0" encoding="utf-8"?>
<!-- Generator: Adobe Illustrator 18.0.0, SVG Export Plug-In . SVG Version: 6.00 Build 0)  -->
<!DOCTYPE svg PUBLIC "-//W3C//DTD SVG 1.1//EN" "http://www.w3.org/Graphics/SVG/1.1/DTD/svg11.dtd">
<svg version="1.1" id="Ebene_2" xmlns="http://www.w3.org/2000/svg" xmlns:xlink="http://www.w3.org/1999/xlink" x="0px" y="0px"
	 viewBox="0 0 567.2 60.4" enable-background="new 0 0 567.2 60.4" xml:space="preserve">
<g>
	<g>
		<path fill="#FFFFFF" d="M283.3,5.2v7.3h9V17h-9v10.1h-5.5V0.6h15v4.5L283.3,5.2L283.3,5.2z"/>
	</g>
	<g>
		<path fill="#FFFFFF" d="M313.5,27.1l-2.1-5.9h-9.8l-1.9,5.9h-5.5l9.2-26.4l6.3-0.1l9.9,26.5L313.5,27.1L313.5,27.1z M307.4,9.7
			c-0.6-1.8-1.1-3.1-1.1-3.2c0,0.1-0.3,1.5-0.9,3.2l-2.4,7.3h7L307.4,9.7z"/>
	</g>
	<g>
		<path fill="#FFFFFF" d="M339.3,27.1h-15.6V0.6h5.5v21.9h10.5L339.3,27.1z"/>
	</g>
	<g>
		<path fill="#FFFFFF" d="M364.1,25.8c-3,1.2-5.8,1.6-8.1,1.6c-3,0-6.1-0.5-8.6-2.1c-3.7-2.2-6-6.4-6-11.4c0-5.3,2.2-8.9,5.1-11
			c2.6-1.9,5.9-2.7,9.6-2.7c2.1,0,4.9,0.3,7.6,1.3l-0.4,4.5c-3-0.9-5.1-1.2-7.2-1.2c-2.6,0-4.7,0.6-6.3,1.9
			c-1.8,1.5-2.8,3.8-2.8,6.7c0,5.3,3.4,9.3,9.3,9.3c2.1,0,4.6-0.4,8-1.6L364.1,25.8z"/>
	</g>
	<g>
		<path fill="#FFFFFF" d="M390.2,25.3c-2.3,1.5-5.1,2.1-8.1,2.1c-3.4,0-6.4-1-8.7-2.8c-3.2-2.5-5-6.3-5-11.1c0-5.2,2.5-9,6.1-11.2
			c2.3-1.5,4.9-2.1,8-2.1c4.4,0,8.1,1.4,10.5,4.1c2,2.2,3.3,5.3,3.3,8.9C396.4,18.5,394,22.9,390.2,25.3z M388.4,7.4
			c-1.5-1.6-3.6-2.5-6.3-2.5c-1.9,0-3.4,0.4-4.7,1.3c-2.1,1.4-3.4,3.9-3.4,7c0,3.1,1.1,5.9,2.9,7.6c1.3,1.2,3.3,2,5.2,2h0.2
			c2,0,3.7-0.5,5-1.5c2.1-1.6,3.3-4.4,3.3-7.7C390.7,11.4,389.9,9,388.4,7.4z"/>
	</g>
	<g>
		<path fill="#FFFFFF" d="M425,27.1h-6.1l-13-18.5c0.1,0.8,0.1,2.2,0.1,4v14.5h-5.2V0.6h6.1l13,18.4c0-0.8-0.1-1.9-0.1-3.2V0.6h5.2
			L425,27.1L425,27.1z"/>
	</g>
</g>
<g>
	<g>
		<path fill="#FFFFFF" d="M435.5,21.8c0-16.6,13.6-21.1,20.7-21.1c8.1,0,20.5,5.4,20.5,20.9v17.7c0,15.7-12.4,20.9-20.4,20.9
			c-8.1,0-20.8-5.3-20.8-20.9V21.8z M447.1,39.6c0,5.2,2.8,10.5,9.1,10.5c6.4,0,9.1-6,9.1-10.5V21.3c0-3.3-1.2-10.5-9.1-10.5
			c-6.4,0-9,5.5-9,10.5L447.1,39.6L447.1,39.6z"/>
	</g>
	<g>
		<path fill="#FFFFFF" d="M482.9,17.4c0.3-12.5,10.6-16.7,18.1-16.7c10.1,0,16.8,6.8,16.8,15.1c0,7-4.7,10.4-7.7,12
			c10.5,3.6,11,11.9,11,14.4c0,10.2-9.1,18-20.3,18c-6.3,0-13.2-2.5-16.8-7.7c-2.6-3.5-3.2-7.7-3.3-10.4h11.6
			c0.3,3.6,3.1,7.8,8.8,7.9c5.6,0,8.5-3.9,8.5-8.7c0-5.7-5.3-8.2-9.8-8.2H495v-8.6h2.6c4,0,8.6-2.2,8.6-7.1c0-3.5-2-6.6-5.7-6.6
			c-4.9,0-6,4-6.2,6.5L482.9,17.4L482.9,17.4z"/>
	</g>
	<g>
		<path fill="#FFFFFF" d="M525.7,21.8c0-16.6,13.6-21.1,20.7-21.1c8.1,0,20.5,5.4,20.5,20.9v17.7c0,15.7-12.4,20.9-20.4,20.9
			c-8.1,0-20.8-5.3-20.8-20.9V21.8z M537.3,39.6c0,5.2,2.8,10.5,9.1,10.5c6.4,0,9.1-6,9.1-10.5V21.3c0-3.3-1.2-10.5-9.1-10.5
			c-6.4,0-9,5.5-9,10.5L537.3,39.6L537.3,39.6z"/>
	</g>
</g>
<g>
	<path fill="#4FA3EB" d="M104.8,3.3c2.3-3,7.1-3.5,9.9-1c1.2,1,2,2.3,2.4,3.8c5.2,18,10.5,36.1,15.7,54.1c-3.1,0-6.2,0-9.3,0
		c-1.5-5-2.9-10-4.3-14.9c-6,0-12,0-18,0c-1.5,5-2.9,10-4.4,14.9c-3.1,0-6.2,0-9.2,0c5-17.2,10-34.4,15-51.6
		C103.2,6.8,103.5,4.7,104.8,3.3 M110.2,14.3c-2.2,7.5-4.3,15-6.5,22.4c4.3,0,8.7,0,13,0C114.6,29.3,112.4,21.8,110.2,14.3z"/>
	<path fill="#E0B67A" d="M170,3.7c1.6-2.3,4.7-3.5,7.5-2.8c2.5,0.6,4.4,2.7,5.1,5.2c5.2,18,10.5,36.1,15.7,54.1c-3.1,0-6.2,0-9.3,0
		c-1.4-5-2.9-10-4.3-14.9c-6,0-11.9,0-17.9,0c-1.4,5-2.9,10-4.3,14.9c-3.1,0-6.1,0-9.2,0c5-17.3,10-34.6,15-51.9
		C168.7,6.7,168.9,5,170,3.7 M169.2,36.8c4.3,0,8.7,0,13,0c-2.2-7.5-4.3-15-6.5-22.5C173.5,21.8,171.3,29.3,169.2,36.8z"/>
	<path fill="#6AC05F" d="M125.9,0.8c11.2,0,22.4,0,33.6,0c0,3,0,6,0,9.1c-4.1,0-8.2,0-12.4,0c0,16.8,0,33.5,0,50.3c-3,0-5.9,0-8.9,0
		c0-16.8,0-33.5,0-50.3c-4.1,0-8.2,0-12.4,0C125.9,6.9,125.9,3.8,125.9,0.8z"/>
	<path fill="#BA5964" d="M208.1,1.2c0.9-0.3,1.8-0.4,2.7-0.4c3.5,0,7.1,0,10.6,0c5.9,0.1,11.6,3.8,14.2,9.1c1.8,3.5,2,7.5,1.5,11.3
		c-0.3,4-2,8-5.1,10.6c-1.6,1.4-3.6,2.3-5.4,3.6c-1,0.7-1,2.1-0.5,3.1c4.7,7.2,9.6,14.4,14.3,21.5c-3.5,0-7,0-10.5,0
		c-4.6-6.9-9.1-13.8-13.7-20.7c-1.3-2-1.7-4.6-0.9-6.8c0.6-1.7,2.1-3,3.8-3.6c3.2-1.2,6.3-3.1,8.1-6.1c1.3-2.3,1.3-5.1,0.7-7.5
		c-0.7-3.2-3.8-5.7-7.1-5.6c-2.3,0-4.6,0-6.9,0c-1,0-2,0.9-2,1.9c0,16.1,0,32.3,0,48.5c-3,0-5.9,0-8.9,0c0-17.4,0-34.8,0-52.2
		C203,5,205.2,2.1,208.1,1.2z"/>
	<path fill="#CCBAEE" d="M245.1,0.8c3.1,0,6.3,0,9.4,0c0,19.8,0,39.6,0,59.4c-3.1,0-6.3,0-9.4,0C245.1,40.4,245.1,20.6,245.1,0.8z"
		/>
</g>
<g>
	<path fill="#FFFFFF" d="M26.2,0.7c1.5,0,3,0,4.5,0c0,3.5,0,7,0,10.5c0,2.9-0.1,5.8-0.2,8.8c-0.2,4.2-0.5,8.4-1.2,12.6
		c-0.5,2.9-1.5,5.6-2.7,8.3c-2,4.2-5.2,7.8-8.7,10.8c-3.2,2.8-7,4.8-10.9,6.2c-2.3,0.8-4.6,1.4-6.9,1.7c0-2.9,0-5.9,0-8.8
		c2.8-0.4,5.6-1.4,8.1-2.8c3-1.6,5.7-3.7,8-6.3c2.4-2.6,4.2-5.6,5.7-8.8c1.7-3.7,2.6-7.7,3.2-11.6c0.8-5.1,1.1-10.2,1.2-15.3
		C26.2,4.2,26.2,2.4,26.2,0.7z"/>
	<path fill="#FFFFFF" d="M32.4,0.7c2.7,0,5.5,0,8.2,0c0,19.6,0,39.2,0,58.8c-2.7,0-5.5,0-8.2,0c0-6.3,0-12.5,0-18.8
		C32.4,27.4,32.4,14.1,32.4,0.7z"/>
	<path fill="#FFFFFF" d="M42.5,0.7c1.5,0,3,0,4.4,0c0,6,0.2,12,0.9,17.9c0.6,4.6,1.4,9.3,3.2,13.6c1.7,4.2,4.3,8,7.5,11.1
		c3.1,3,6.9,5.3,11,6.6c1.1,0.4,2.3,0.7,3.5,0.8c0,2.9,0,5.9,0,8.8c-2.3-0.3-4.6-0.9-6.9-1.7c-2.7-0.9-5.2-2.1-7.6-3.7
		c-1.7-1.1-3.3-2.4-4.8-3.8c-2.5-2.3-4.7-4.9-6.4-7.9c-1.3-2.3-2.3-4.8-3-7.3c-0.7-2.5-1-5.2-1.2-7.8c-0.5-5.7-0.7-11.3-0.7-17
		C42.5,7.1,42.5,3.9,42.5,0.7z"/>
	<path fill="#FFFFFF" d="M32.4,0.7c0,13.4,0,26.7,0,40.1c0,6.3,0,12.5,0,18.8c2.7,0,5.5,0,8.2,0c0-19.6,0-39.2,0-58.8
		C37.9,0.7,35.2,0.7,32.4,0.7"/>
	<path fill="#FFFFFF" d="M42.5,0.7c0,3.2,0,6.4,0,9.6c0,5.7,0.2,11.4,0.7,17c0.3,2.6,0.6,5.3,1.2,7.8c0.7,2.5,1.7,5,3,7.3
		c1.7,3,3.9,5.6,6.4,7.9c1.5,1.4,3.1,2.7,4.8,3.8c2.4,1.5,4.9,2.7,7.6,3.7c2.2,0.8,4.5,1.4,6.9,1.7c0-2.9,0-5.9,0-8.8
		c-1.2-0.2-2.4-0.5-3.5-0.8c-4.1-1.3-7.9-3.6-11-6.6c-3.3-3.1-5.8-7-7.5-11.1c-1.8-4.3-2.7-8.9-3.2-13.6c-0.7-5.9-0.9-11.9-0.9-17.9
		C45.4,0.7,44,0.7,42.5,0.7"/>
</g>
<g>
	<path d="M292.7,0.5h-15c-0.1,0-0.1,0.1-0.1,0.1v26.5c0,0.1,0.1,0.1,0.1,0.1h5.5c0.1,0,0.1-0.1,0.1-0.1v-9.9h8.9
		c0.1,0,0.1-0.1,0.1-0.1v-4.5c0-0.1-0.1-0.1-0.1-0.1h-8.9V5.3h9.3c0.1,0,0.1-0.1,0.1-0.1V0.6C292.8,0.6,292.8,0.5,292.7,0.5z
		 M282.6,16.5v9.9h-4.3V1.2h13.7v3.3h-9.3c-0.1,0-0.1,0.1-0.1,0.1V13c0,0.1,0.1,0.1,0.1,0.1h8.9v3.3h-8.9
		C282.7,16.4,282.6,16.4,282.6,16.5z"/>
	<path d="M309.9,0.5c0-0.1-0.1-0.1-0.1-0.1l-6.3,0.1c-0.1,0-0.1,0-0.1,0.1L294.1,27c0,0,0,0.1,0,0.1s0.1,0.1,0.1,0.1h5.5
		c0.1,0,0.1,0,0.1-0.1l1.9-5.8h9.6l2.1,5.8c0,0,0.1,0.1,0.1,0.1h6.1c0,0,0,0,0,0c0.1,0,0.1-0.1,0.1-0.1c0,0,0-0.1,0-0.1L309.9,0.5z
		 M295.1,26.5l8.8-25.1l5.4-0.1l9.4,25.3H314l-2.1-5.8c0,0-0.1-0.1-0.1-0.1h-10.5c-0.1,0-0.1,0-0.1,0.1l-1.9,5.8L295.1,26.5
		L295.1,26.5z"/>
	<path d="M302.2,17.6h8.4c0,0,0.1,0,0.1-0.1s0-0.1,0-0.1l-2.8-8c-0.4-1.1-0.8-2.2-1.1-3.2l-0.5-1.5c0-0.1-0.1-0.1-0.1-0.1
		c-0.1,0-0.1,0-0.1,0.1l-0.5,1.5c0,0,0,0.1-0.1,0.2c-0.1,0.4-0.4,1.6-0.9,3l-2.6,8C302.1,17.5,302.1,17.5,302.2,17.6
		C302.2,17.6,302.2,17.6,302.2,17.6z M303.1,16.9l2.4-7.1c0.4-1.3,0.7-2.3,0.8-2.8c0.3,0.9,0.6,1.9,1,2.8l2.5,7.1H303.1z"/>
	<path d="M339.6,22.4h-10.3V0.6c0-0.1-0.1-0.1-0.1-0.1h-5.5c-0.1,0-0.1,0.1-0.1,0.1v26.5c0,0.1,0.1,0.1,0.1,0.1h15.6
		c0.1,0,0.1-0.1,0.1-0.1l0.3-4.6C339.7,22.5,339.7,22.4,339.6,22.4C339.7,22.4,339.6,22.4,339.6,22.4z M324.2,26.4V1.2h4.3V23
		c0,0.1,0.1,0.1,0.1,0.1h10.3l-0.2,3.3H324.2z"/>
	<path d="M364.4,21c-3.2,1.1-5.7,1.6-8,1.6c-5.6,0-9.2-3.6-9.2-9.2c0-2.8,1-5.2,2.7-6.6c1.5-1.3,3.5-1.9,6.2-1.9
		c2.2,0,4.4,0.4,7.2,1.2c0,0,0.1,0,0.1,0c0,0,0.1-0.1,0.1-0.1l0.4-4.5c0-0.1,0-0.1-0.1-0.1c-3.2-1.1-6.1-1.3-7.6-1.3
		c-3.9,0-7.2,0.9-9.7,2.7c-3.3,2.4-5.2,6.3-5.2,11.1c0,5,2.3,9.3,6.1,11.5c2.3,1.4,5.2,2.1,8.7,2.1c2.6,0,5.4-0.6,8.1-1.6
		c0,0,0.1-0.1,0.1-0.1l0.3-4.7c0,0,0-0.1,0-0.1C364.4,21,364.4,21,364.4,21z M356.2,0.9c1.3,0,4,0.1,6.9,1.1l-0.3,3.3
		c-2.5-0.7-4.5-1-6.6-1c-2.8,0-5,0.7-6.7,2c-1.9,1.6-3,4.2-3,7.2c0,5.9,4,9.9,9.9,9.9c2.1,0,4.5-0.4,7.3-1.4l-0.2,3.3
		c-2.5,1-5.1,1.5-7.5,1.5c-3.4,0-6.2-0.7-8.3-2c-3.6-2.1-5.7-6.2-5.7-10.9c0-5.7,2.6-8.8,4.8-10.4C349.3,1.8,352.4,0.9,356.2,0.9z"
		/>
	<path d="M382.5,0.1c-3.1,0-5.7,0.7-8.1,2.1c-4,2.4-6.2,6.4-6.2,11.3c0,4.7,1.8,8.7,5.1,11.2c2.3,1.8,5.4,2.8,8.8,2.8
		c3.2,0,6-0.7,8.2-2.1c3.9-2.5,6.2-7,6.2-12.1c0-3.5-1.2-6.6-3.3-9C390.7,1.6,387,0.1,382.5,0.1z M382.1,26.8
		c-3.2,0-6.1-0.9-8.3-2.7c-3.1-2.4-4.8-6.2-4.8-10.6c0-4.6,2.1-8.4,5.9-10.6c2.2-1.4,4.7-2,7.7-2c4.3,0,7.8,1.4,10,3.9
		c2.1,2.3,3.2,5.2,3.2,8.5c0,4.8-2.2,9.1-5.9,11.5C387.8,26.1,385.1,26.8,382.1,26.8z"/>
	<path d="M382.1,4.2c-2,0-3.6,0.4-5,1.4c-2.3,1.5-3.7,4.3-3.7,7.6c0,3.2,1.1,6.2,3.1,8.1c1.5,1.3,3.6,2.2,5.6,2.2h0.2
		c2.1,0,4-0.5,5.4-1.6c2.3-1.7,3.6-4.7,3.6-8.2c0-2.6-0.9-5-2.4-6.8C387.3,5.2,385,4.2,382.1,4.2z M382.4,22.7h-0.2c0,0,0,0,0,0
		c-1.8,0-3.7-0.8-5.1-2c-1.8-1.8-2.9-4.5-2.9-7.5c0-3,1.2-5.5,3.3-6.9c1.3-0.9,2.8-1.3,4.6-1.3c2.6,0,4.7,0.8,6.2,2.5
		c1.4,1.6,2.2,3.8,2.2,6.2c0,3.2-1.2,6-3.3,7.6C386.1,22.2,384.3,22.7,382.4,22.7z"/>
	<path d="M425,0.5h-5.2c-0.1,0-0.1,0.1-0.1,0.1v15.2c0,0.9,0,1.8,0.1,2.7L406.9,0.6c0,0-0.1-0.1-0.1-0.1h-6.1
		c-0.1,0-0.1,0.1-0.1,0.1v26.5c0,0.1,0.1,0.1,0.1,0.1h5.2c0.1,0,0.1-0.1,0.1-0.1V12.6c0-1.5,0-2.7,0-3.6l12.7,18.1
		c0,0,0.1,0.1,0.1,0.1h6.1c0.1,0,0.1-0.1,0.1-0.1V0.6C425.1,0.6,425.1,0.5,425,0.5z M405.3,8.6c0.1,0.8,0.1,2.2,0.1,4v13.9h-4V1.2
		h5.1l12.9,18.1l1,1.4c0,0,0.1,0.1,0.1,0.1c0,0,0,0,0,0c0.1,0,0.1-0.1,0.1-0.1c0,0,0,0,0,0l-0.1-1.7c0-1.1-0.1-2.1-0.1-3.1V1.2h4
		v25.2h-5.2L405.3,6.7c0,0-0.1-0.1-0.1,0c-0.1,0-0.1,0.1-0.1,0.1L405.3,8.6z"/>
	<path d="M456.1,10.2c-6.6,0-9.6,5.6-9.6,11.2v18.2c0,5.5,3,11.1,9.7,11.1c7.1,0,9.7-6.8,9.7-11.1V21.3
		C465.8,19.5,465.4,10.2,456.1,10.2z M465.1,21.3v18.3c0,4.2-2.4,10.3-8.9,10.3c-6.2,0-8.9-5.2-8.9-10.3V21.4
		c0-4.8,2.3-10.4,8.9-10.4C464.7,11,465.1,19.6,465.1,21.3z"/>
	<path d="M456.2,0.6c-1.7,0-7.7,0.3-13.1,4.3c-5,3.8-7.7,9.6-7.7,16.9v17.5c0,15.4,12.5,21,21,21c4.7,0,9.6-1.7,13.3-4.6
		c4.7-3.8,7.2-9.5,7.2-16.4V21.6C476.9,6.2,464.5,0.6,456.2,0.6z M456.4,59.6c-8.1,0-20.2-5.4-20.2-20.3V21.8
		c0-16.2,13.1-20.4,20.1-20.4c8,0,19.9,5.4,19.9,20.3v17.7C476.1,54.2,464.3,59.6,456.4,59.6z"/>
	<path d="M510.4,27.8c5-2.9,7.5-6.8,7.5-12c0-4.1-1.7-8-4.7-10.8c-3.1-2.9-7.5-4.5-12.3-4.5c-6.6,0-17.8,3.5-18.2,16.8
		c0,0,0,0.1,0,0.1s0.1,0,0.1,0h11.4c0.1,0,0.1-0.1,0.1-0.1c0.1-1.9,0.9-6.4,6.1-6.4c3.9,0,5.6,3.3,5.6,6.5c0,4.6-4.3,7-8.5,7H495
		c-0.1,0-0.1,0.1-0.1,0.1v8.6c0,0.1,0.1,0.1,0.1,0.1h4.6c4.8,0,9.7,2.8,9.7,8.1c0,5.2-3.3,8.6-8.4,8.6c-5.5-0.1-8.3-4.1-8.6-7.8
		c0-0.1-0.1-0.1-0.1-0.1h-11.6c0,0-0.1,0-0.1,0c0,0,0,0.1,0,0.1c0.2,4.2,1.4,7.8,3.4,10.4c3.2,4.7,9.9,7.7,16.9,7.7
		c11.5,0,20.4-8,20.4-18.1C521.2,38.2,519.8,31.1,510.4,27.8z M500.8,59.6c-6.8,0-13.2-2.9-16.3-7.4c-1.8-2.4-2.9-5.6-3.2-9.4h10.4
		c0.6,3.9,3.7,7.8,9.3,7.9c5.5,0,9.1-3.7,9.1-9.3c0-5.8-5.3-8.8-10.5-8.8h-4v-7.4h1.9c4.6,0,9.2-2.7,9.2-7.8c0-4.2-2.6-7.2-6.4-7.2
		c-5.2,0-6.5,4-6.8,6.5h-10.2c0.7-12.2,11.2-15.4,17.4-15.4c9.2,0,16.2,6.2,16.2,14.5c0,5-2.4,8.7-7.4,11.5l-1,0.5
		c0,0-0.1,0.1-0.1,0.1c0,0,0,0.1,0.1,0.1l1.1,0.4c9.2,3.1,10.6,10,10.6,13.8C520.4,52,511.8,59.6,500.8,59.6z"/>
	<path d="M546.2,10.2c-6.6,0-9.6,5.6-9.6,11.2v18.2c0,5.5,3,11.1,9.7,11.1c7.1,0,9.7-6.8,9.7-11.1V21.3
		C556,19.5,555.5,10.2,546.2,10.2z M555.3,21.3v18.3c0,4.2-2.4,10.3-8.9,10.3c-6.2,0-8.9-5.2-8.9-10.3V21.4c0-4.8,2.3-10.4,8.9-10.4
		C554.8,11,555.3,19.6,555.3,21.3z"/>
	<path d="M559.8,5.2c-3.7-2.9-8.7-4.7-13.4-4.7c-1.7,0-7.7,0.3-13.1,4.3c-5.1,3.8-7.7,9.6-7.7,16.9v17.5c0,15.4,12.5,21,21,21
		c4.7,0,9.6-1.7,13.3-4.6c4.7-3.8,7.2-9.5,7.2-16.4V21.6C567.1,12.9,563.1,7.9,559.8,5.2z M546.6,59.6c-8.1,0-20.2-5.4-20.2-20.3
		V21.8c0-16.2,13.1-20.4,20.1-20.4c8,0,19.9,5.4,19.9,20.3v17.7C566.3,54.2,554.5,59.6,546.6,59.6z"/>
</g>
</svg>
