<svg xmlns="http://www.w3.org/2000/svg" width="567.18" height="60.445" xml:space="preserve"><path fill="#FFF" d="M283.253 5.169v7.339h9.017v4.508h-9.017v10.059h-5.515V.623h14.977v4.545h-9.462zM313.546 27.074l-2.124-5.886h-9.8l-1.937 5.886h-5.478L303.446.697l6.298-.148 9.91 26.526h-6.108zm-6.15-17.397c-.633-1.751-1.08-3.129-1.117-3.242-.036.112-.336 1.453-.932 3.242l-2.422 7.302h7.042l-2.571-7.302zM339.254 27.074h-15.649V.623h5.516v21.869h10.469l-.336 4.582zM364.142 25.809c-3.018 1.191-5.774 1.639-8.084 1.639-2.98 0-6.11-.521-8.645-2.087-3.725-2.197-5.998-6.407-5.998-11.438 0-5.29 2.235-8.867 5.104-10.953 2.646-1.9 5.926-2.72 9.65-2.72 2.125 0 4.882.335 7.563 1.267l-.446 4.545c-2.982-.894-5.104-1.192-7.191-1.192-2.644 0-4.694.597-6.258 1.9-1.752 1.453-2.757 3.837-2.757 6.744 0 5.29 3.39 9.276 9.313 9.276 2.086 0 4.582-.446 8.011-1.639l-.262 4.658zM390.225 25.323c-2.272 1.453-5.104 2.124-8.122 2.124-3.392 0-6.445-1.044-8.681-2.794-3.167-2.46-5.031-6.334-5.031-11.103 0-5.216 2.535-9.016 6.148-11.177C376.887.92 379.419.249 382.55.249c4.396 0 8.084 1.416 10.506 4.135 2.049 2.236 3.316 5.253 3.316 8.942 0 5.143-2.349 9.577-6.147 11.997zm-1.789-17.918c-1.49-1.641-3.576-2.535-6.296-2.535-1.937 0-3.391.448-4.695 1.304-2.087 1.379-3.39 3.875-3.39 7.042 0 3.13 1.118 5.886 2.943 7.636 1.304 1.194 3.279 2.014 5.179 2.014h.186c1.975 0 3.727-.483 5.031-1.453 2.122-1.602 3.315-4.434 3.315-7.674 0-2.386-.819-4.733-2.273-6.334zM425.024 27.074h-6.11L405.91 8.559c.076.82.076 2.235.076 4.024v14.492h-5.218V.623h6.073l13.041 18.404a68.272 68.272 0 0 1-.074-3.167V.623h5.216v26.451zM435.542 21.77C435.542 5.191 449.1.698 456.228.698c8.057 0 20.529 5.423 20.529 20.917v17.663c0 15.65-12.396 20.918-20.375 20.918-8.058 0-20.84-5.268-20.84-20.918V21.77zm11.543 17.818c0 5.191 2.79 10.46 9.064 10.46 6.431 0 9.063-6.042 9.063-10.46V21.305c0-3.253-1.239-10.458-9.141-10.458-6.431 0-8.987 5.5-8.987 10.537v18.204zM482.874 17.355C483.184 4.882 493.488.698 500.927.698c10.068 0 16.811 6.818 16.811 15.108 0 7.049-4.727 10.381-7.672 12.008 10.461 3.564 11.002 11.853 11.002 14.409 0 10.228-9.063 17.974-20.298 17.974-6.274 0-13.247-2.48-16.81-7.67-2.557-3.486-3.177-7.747-3.333-10.381h11.621c.31 3.641 3.099 7.825 8.754 7.902 5.578 0 8.522-3.874 8.522-8.678 0-5.655-5.345-8.211-9.839-8.211h-4.648v-8.6h2.558c3.951 0 8.6-2.246 8.6-7.127 0-3.486-2.015-6.586-5.734-6.586-4.88 0-6.042 3.951-6.197 6.508h-11.39zM525.714 21.77c0-16.579 13.559-21.072 20.685-21.072 8.059 0 20.531 5.423 20.531 20.917v17.663c0 15.65-12.396 20.918-20.375 20.918-8.057 0-20.841-5.268-20.841-20.918V21.77zm11.545 17.818c0 5.191 2.789 10.46 9.064 10.46 6.429 0 9.063-6.042 9.063-10.46V21.305c0-3.253-1.239-10.458-9.143-10.458-6.43 0-8.985 5.5-8.985 10.537v18.204z"/><path fill="#4FA3EB" d="M104.754 3.279c2.31-2.955 7.088-3.458 9.921-.981 1.158.976 1.97 2.323 2.384 3.771 5.245 18.046 10.512 36.083 15.75 54.13-3.096.002-6.192-.005-9.287.002-1.459-4.974-2.884-9.959-4.325-14.938-5.984-.018-11.968-.005-17.951-.007a2785.72 2785.72 0 0 0-4.351 14.947c-3.078-.013-6.156-.005-9.235-.008 4.982-17.213 9.97-34.427 14.977-51.636.595-1.798.818-3.81 2.117-5.28m5.463 11.057c-2.195 7.476-4.344 14.967-6.525 22.447 4.349.02 8.697.007 13.045.007-2.177-7.484-4.343-14.969-6.52-22.454z"/><path fill="#E0B67A" d="M169.951 3.667c1.612-2.339 4.73-3.477 7.475-2.754 2.514.58 4.437 2.745 5.101 5.184 5.239 18.034 10.496 36.059 15.733 54.087-3.099.027-6.197 0-9.296.015-1.44-4.979-2.866-9.967-4.317-14.942-5.975.002-11.948-.013-17.922.004-1.428 4.984-2.9 9.955-4.329 14.938-3.075.002-6.15 0-9.225.002 4.979-17.308 10.018-34.601 15.037-51.896.527-1.565.73-3.287 1.743-4.638m-.754 33.123c4.331.006 8.66.002 12.991.002-2.153-7.499-4.342-14.988-6.492-22.489-2.163 7.496-4.347 14.987-6.499 22.487z"/><path fill="#6AC05F" d="M125.879.824h33.585v9.059c-4.122.003-8.243-.005-12.364.003 0 16.771.003 33.542-.002 50.313h-8.857c0-16.771-.002-33.541.002-50.313-4.122-.008-8.243 0-12.365-.003.001-3.02-.001-6.038.001-9.059z"/><path fill="#BA5964" d="M208.104 1.192c.851-.294 1.759-.394 2.657-.373 3.53.014 7.059.002 10.59.005 5.944.108 11.619 3.8 14.192 9.149 1.781 3.476 1.965 7.517 1.515 11.329-.307 3.991-1.983 7.98-5.05 10.625-1.621 1.446-3.64 2.321-5.374 3.604-.952.728-.998 2.134-.507 3.142 4.686 7.234 9.557 14.352 14.339 21.524-3.498.007-6.996-.01-10.494.007-4.581-6.879-9.113-13.793-13.674-20.681-1.341-1.959-1.704-4.557-.902-6.796.626-1.715 2.127-2.972 3.798-3.618 3.189-1.216 6.332-3.129 8.099-6.138 1.342-2.264 1.275-5.053.671-7.528-.709-3.213-3.84-5.743-7.148-5.631-2.289.017-4.575-.013-6.859.011-1.034-.024-2.007.875-1.995 1.925-.011 16.149.006 32.303-.004 48.455-2.975-.005-5.947 0-8.922-.005-.006-17.387.004-34.777-.006-52.163.015-3.049 2.184-5.917 5.074-6.843z"/><path fill="#CCBAEE" d="M245.145.824h9.389c-.003 19.794.003 39.583-.006 59.375-3.126-.008-6.254 0-9.383-.002V.824z"/><path d="M26.18.701c1.486-.004 2.972 0 4.461-.002.005 3.495 0 6.992.002 10.486.015 2.918-.067 5.835-.188 8.752-.2 4.208-.463 8.429-1.16 12.587-.479 2.869-1.473 5.64-2.702 8.266-2.008 4.231-5.164 7.813-8.712 10.826-3.173 2.794-6.961 4.826-10.945 6.2-2.255.78-4.575 1.375-6.936 1.709.002-2.933.002-5.864 0-8.797 2.843-.428 5.577-1.438 8.114-2.771a29.29 29.29 0 0 0 8.005-6.259c2.357-2.606 4.235-5.625 5.66-8.83 1.679-3.684 2.577-7.665 3.188-11.649.766-5.066 1.085-10.194 1.203-15.312.019-1.733.005-3.469.01-5.206zM32.434.708c2.737-.019 5.474-.002 8.212-.007v58.822c-2.731.008-5.462-.012-8.193.015-.033-6.252-.004-12.51-.015-18.758-.002-13.357.006-26.715-.004-40.072zM42.473.701c1.479-.002 2.958-.004 4.435 0-.048 5.979.156 11.971.868 17.907.583 4.614 1.406 9.265 3.244 13.561 1.742 4.158 4.252 8.022 7.525 11.141 3.125 2.98 6.911 5.271 11.025 6.589 1.148.365 2.322.652 3.516.829-.001 2.933-.002 5.86 0 8.792-2.345-.317-4.644-.924-6.882-1.684-2.665-.927-5.242-2.128-7.609-3.67-1.728-1.108-3.3-2.44-4.809-3.826-2.489-2.297-4.715-4.903-6.388-7.857-1.308-2.3-2.262-4.783-3.011-7.316-.686-2.546-.977-5.182-1.243-7.797-.515-5.66-.707-11.347-.671-17.025V.701z"/><path d="M32.434.708c.01 13.357.002 26.715.005 40.07.009 6.25-.02 12.506.015 18.76 2.73-.025 5.462-.007 8.193-.015V.699c-2.738.006-5.476-.01-8.213.009M42.473.701v9.641c-.036 5.678.156 11.365.671 17.025.266 2.615.558 5.251 1.243 7.797.747 2.533 1.703 5.018 3.011 7.316 1.673 2.954 3.899 5.562 6.388 7.857 1.51 1.388 3.08 2.718 4.809 3.826 2.368 1.542 4.945 2.741 7.609 3.67 2.238.76 4.537 1.363 6.882 1.684-.002-2.932-.001-5.859 0-8.792a22.314 22.314 0 0 1-3.516-.829c-4.114-1.317-7.9-3.607-11.025-6.589-3.272-3.114-5.783-6.98-7.525-11.141-1.837-4.296-2.66-8.945-3.244-13.561-.713-5.937-.917-11.929-.868-17.907-1.479-.002-2.957 0-4.435.003M292.715.498h-14.977a.125.125 0 0 0-.125.125v26.451c0 .069.056.125.125.125h5.515a.125.125 0 0 0 .125-.125V17.14h8.892a.125.125 0 0 0 .125-.125v-4.508a.125.125 0 0 0-.125-.125h-8.892v-7.09h9.337a.125.125 0 0 0 .125-.125V.623a.125.125 0 0 0-.125-.125zm-10.087 16.017v9.935h-4.265V1.248h13.727v3.295h-9.337a.125.125 0 0 0-.125.125v8.339c0 .069.056.125.125.125h8.892v3.258h-8.892a.125.125 0 0 0-.125.125zM309.862.504a.128.128 0 0 0-.12-.081l-6.298.147a.125.125 0 0 0-.115.083l-9.239 26.378a.127.127 0 0 0 .119.167h5.478a.126.126 0 0 0 .119-.086l1.909-5.801h9.621l2.095 5.804a.125.125 0 0 0 .117.083h6.115a.125.125 0 0 0 .099-.202l-9.9-26.492zM295.089 26.45l8.806-25.139 5.42-.128 9.439 25.267h-4.77l-2.094-5.804a.125.125 0 0 0-.117-.083h-10.515a.125.125 0 0 0-.119.086l-1.907 5.8h-4.143z"/><path d="M302.232 17.604h8.44a.127.127 0 0 0 .119-.167l-2.807-7.973a110.783 110.783 0 0 1-1.111-3.226l-.48-1.455a.127.127 0 0 0-.119-.086.124.124 0 0 0-.119.087l-.468 1.455c-.01.026-.03.106-.065.246-.108.432-.396 1.58-.866 2.994l-2.641 7.96a.124.124 0 0 0 .017.113c.022.032.06.052.1.052zm.867-.75 2.367-7.137c.418-1.254.69-2.284.829-2.834.305.917.649 1.91.983 2.836l2.513 7.135h-6.692zM339.588 22.367h-10.343V.623a.125.125 0 0 0-.125-.125h-5.517a.125.125 0 0 0-.125.125v26.451c0 .069.056.125.125.125h15.649c.065 0 .12-.051.125-.116l.335-4.582a.124.124 0 0 0-.124-.134zm-15.359 4.082V1.248h4.267v21.744c0 .069.056.125.125.125h10.296l-.243 3.332h-14.445zM364.363 21.033c-3.204 1.114-5.736 1.633-7.971 1.633-5.581 0-9.188-3.592-9.188-9.151 0-2.836.963-5.198 2.712-6.648 1.51-1.259 3.53-1.871 6.178-1.871 2.238 0 4.378.355 7.155 1.186a.125.125 0 0 0 .16-.108l.446-4.545a.123.123 0 0 0-.083-.13C360.584.29 357.639.125 356.168.125c-3.917 0-7.188.923-9.723 2.744-3.325 2.417-5.156 6.343-5.156 11.054 0 4.991 2.266 9.308 6.058 11.544 2.263 1.397 5.193 2.106 8.711 2.106 2.626 0 5.361-.555 8.13-1.648a.127.127 0 0 0 .079-.109l.262-4.657a.124.124 0 0 0-.05-.106.124.124 0 0 0-.116-.02zM356.169.875c1.329 0 3.98.141 6.893 1.077l-.325 3.3c-2.511-.705-4.506-1.007-6.644-1.007-2.828 0-5.006.669-6.657 2.044-1.923 1.595-2.982 4.161-2.982 7.224 0 5.922 3.993 9.901 9.938 9.901 2.121 0 4.456-.438 7.336-1.377l-.188 3.333c-2.523.95-5.108 1.452-7.482 1.452-3.376 0-6.178-.673-8.328-2.001-3.563-2.102-5.69-6.176-5.69-10.899 0-5.721 2.634-8.838 4.844-10.445 2.403-1.726 5.528-2.602 9.285-2.602zM382.55.125c-3.148 0-5.715.681-8.075 2.142-4.004 2.395-6.209 6.402-6.209 11.284 0 4.679 1.804 8.657 5.079 11.201 2.324 1.819 5.435 2.821 8.759 2.821 3.163 0 5.995-.741 8.188-2.144 3.886-2.477 6.205-7.001 6.205-12.102 0-3.513-1.158-6.635-3.347-9.025-2.435-2.732-6.1-4.177-10.6-4.177zm-.446 26.698c-3.157 0-6.104-.945-8.298-2.662-3.089-2.4-4.79-6.168-4.79-10.609 0-4.607 2.078-8.387 5.852-10.645 2.237-1.386 4.678-2.031 7.683-2.031 4.279 0 7.753 1.359 10.046 3.932 2.063 2.251 3.152 5.197 3.152 8.52 0 4.843-2.19 9.13-5.859 11.469-2.074 1.325-4.765 2.026-7.786 2.026z"/><path d="M382.141 4.244c-1.978 0-3.578.447-5.04 1.407-2.331 1.541-3.669 4.297-3.669 7.563 0 3.229 1.146 6.18 3.145 8.097 1.465 1.344 3.61 2.179 5.601 2.179h.187c2.147 0 4.018-.546 5.407-1.58 2.266-1.71 3.564-4.689 3.564-8.174 0-2.587-.888-5.049-2.436-6.753-1.65-1.817-3.923-2.739-6.759-2.739zm.222 18.496h-.187l-.016.001c-1.805-.004-3.749-.763-5.076-1.98-1.847-1.77-2.905-4.52-2.905-7.545 0-3.009 1.216-5.538 3.334-6.938 1.334-.875 2.804-1.283 4.627-1.283 2.614 0 4.7.839 6.202 2.493 1.425 1.567 2.241 3.845 2.241 6.249 0 3.248-1.19 6.008-3.264 7.574-1.257.934-2.971 1.429-4.956 1.429zM425.024.498h-5.216a.125.125 0 0 0-.125.125V15.86c0 .916.019 1.838.055 2.749L406.943.551a.124.124 0 0 0-.102-.053h-6.072a.125.125 0 0 0-.125.125v26.451c0 .069.056.125.125.125h5.217a.125.125 0 0 0 .125-.125V12.583c0-1.5 0-2.737-.044-3.585l12.745 18.149a.126.126 0 0 0 .103.053h6.11a.125.125 0 0 0 .125-.125V.623a.125.125 0 0 0-.126-.125zm-19.736 8.118c.073.791.073 2.192.073 3.967V26.45h-3.969V1.248h5.125l12.854 18.14.985 1.394a.126.126 0 0 0 .103.053h.006a.125.125 0 0 0 .117-.169l-.077-1.667a67.406 67.406 0 0 1-.072-3.139V1.248h3.966v25.201h-5.161L405.341 6.66a.125.125 0 0 0-.146-.045.123.123 0 0 0-.081.129l.174 1.872zM456.071 10.222c-6.64 0-9.612 5.606-9.612 11.162v18.204c.001 5.518 2.998 11.085 9.69 11.085 7.058 0 9.688-6.799 9.688-11.085V21.305c0-1.851-.471-11.083-9.766-11.083zm9.017 11.083v18.283c0 4.154-2.381 10.335-8.938 10.335-6.176 0-8.939-5.19-8.939-10.335V21.384c0-4.803 2.321-10.412 8.862-10.412 8.58 0 9.015 8.607 9.015 10.333z"/><path d="M456.228.573c-1.706 0-7.692.313-13.091 4.343-5.05 3.771-7.72 9.598-7.72 16.853v17.509c0 15.439 12.538 21.044 20.965 21.044 4.684 0 9.64-1.727 13.258-4.618 4.738-3.786 7.242-9.466 7.242-16.426V21.615c0-15.438-12.352-21.042-20.654-21.042zm.154 58.998c-8.126 0-20.215-5.404-20.215-20.293V21.77c0-16.173 13.122-20.446 20.061-20.446 8.001 0 19.904 5.404 19.904 20.292v17.662c0 14.888-11.812 20.293-19.75 20.293zM510.368 27.788c5.042-2.865 7.494-6.786 7.494-11.981 0-4.132-1.658-7.952-4.67-10.755-3.102-2.888-7.458-4.479-12.266-4.479-6.597 0-17.849 3.534-18.178 16.778a.124.124 0 0 0 .125.128h11.389a.125.125 0 0 0 .125-.117c.116-1.922.941-6.391 6.072-6.391 3.854 0 5.609 3.349 5.609 6.461 0 4.597-4.264 7.002-8.476 7.002h-2.558a.125.125 0 0 0-.125.125v8.601c0 .069.056.125.125.125h4.647c4.828 0 9.715 2.777 9.715 8.086 0 5.195-3.296 8.553-8.396 8.553-5.481-.075-8.316-4.09-8.631-7.788a.127.127 0 0 0-.125-.114h-11.621a.13.13 0 0 0-.091.039.129.129 0 0 0-.034.094c.248 4.179 1.409 7.791 3.354 10.443 3.222 4.693 9.86 7.726 16.913 7.726 11.452 0 20.424-7.95 20.424-18.1.003-3.978-1.411-11.109-10.821-14.436zm-9.598 31.785c-6.812 0-13.211-2.909-16.305-7.416-1.756-2.394-2.85-5.637-3.165-9.386h10.394c.578 3.896 3.664 7.825 9.31 7.902 5.472 0 9.147-3.738 9.147-9.303 0-5.801-5.265-8.836-10.465-8.836h-4.022v-7.351h1.933c4.585 0 9.226-2.663 9.226-7.752 0-4.246-2.615-7.211-6.359-7.211-5.226 0-6.488 4.024-6.77 6.508h-10.166c.653-12.157 11.232-15.405 17.4-15.405 9.228 0 16.187 6.226 16.187 14.482 0 4.98-2.404 8.729-7.35 11.461l-.989.546a.126.126 0 0 0-.064.12.125.125 0 0 0 .085.107l1.07.365c9.204 3.137 10.578 10.003 10.578 13.817-.002 9.73-8.643 17.352-19.675 17.352zM546.243 10.222c-6.639 0-9.61 5.606-9.61 11.162v18.204c.001 5.518 2.998 11.085 9.69 11.085 7.058 0 9.688-6.799 9.688-11.085V21.305c0-1.851-.471-11.083-9.768-11.083zm9.019 11.083v18.283c0 4.154-2.381 10.335-8.938 10.335-6.176 0-8.939-5.19-8.939-10.335V21.384c0-4.803 2.32-10.412 8.86-10.412 8.582 0 9.017 8.607 9.017 10.333z"/><path d="M559.764 5.249C556.096 2.322 551.1.574 546.399.574c-1.706 0-7.691.313-13.09 4.343-5.051 3.771-7.721 9.598-7.721 16.853v17.509c0 15.439 12.538 21.044 20.966 21.044 4.684 0 9.64-1.727 13.258-4.618 4.738-3.786 7.242-9.466 7.242-16.426V21.615c.001-8.717-3.964-13.711-7.29-16.366zm-13.21 54.322c-8.126 0-20.216-5.404-20.216-20.293V21.77c.001-16.173 13.122-20.446 20.061-20.446 8.001 0 19.905 5.404 19.905 20.292v17.662c0 14.888-11.812 20.293-19.75 20.293z"/></svg>