<svg xmlns="http://www.w3.org/2000/svg" viewBox="0 0 567.2 60.4" xml:space="preserve"><path fill="#c3c6c5" d="M283.3 5.2v7.3h9V17h-9v10.1h-5.5V.6h15v4.5l-9.5.1zM313.5 27.1l-2.1-5.9h-9.8l-1.9 5.9h-5.5L303.4.7l6.3-.1 9.9 26.5h-6.1zm-6.1-17.4c-.6-1.8-1.1-3.1-1.1-3.2 0 .1-.3 1.5-.9 3.2L303 17h7l-2.6-7.3zM339.3 27.1h-15.6V.6h5.5v21.9h10.5l-.4 4.6zM364.1 25.8c-3 1.2-5.8 1.6-8.1 1.6-3 0-6.1-.5-8.6-2.1-3.7-2.2-6-6.4-6-11.4 0-5.3 2.2-8.9 5.1-11 2.6-1.9 5.9-2.7 9.6-2.7 2.1 0 4.9.3 7.6 1.3l-.4 4.5c-3-.9-5.1-1.2-7.2-1.2-2.6 0-4.7.6-6.3 1.9-1.8 1.5-2.8 3.8-2.8 6.7 0 5.3 3.4 9.3 9.3 9.3 2.1 0 4.6-.4 8-1.6l-.2 4.7zM390.2 25.3c-2.3 1.5-5.1 2.1-8.1 2.1-3.4 0-6.4-1-8.7-2.8-3.2-2.5-5-6.3-5-11.1 0-5.2 2.5-9 6.1-11.2 2.3-1.5 4.9-2.1 8-2.1 4.4 0 8.1 1.4 10.5 4.1 2 2.2 3.3 5.3 3.3 8.9.1 5.3-2.3 9.7-6.1 12.1zm-1.8-17.9c-1.5-1.6-3.6-2.5-6.3-2.5-1.9 0-3.4.4-4.7 1.3-2.1 1.4-3.4 3.9-3.4 7s1.1 5.9 2.9 7.6c1.3 1.2 3.3 2 5.2 2h.2c2 0 3.7-.5 5-1.5 2.1-1.6 3.3-4.4 3.3-7.7.1-2.2-.7-4.6-2.2-6.2zM425 27.1h-6.1l-13-18.5c.1.8.1 2.2.1 4v14.5h-5.2V.6h6.1l13 18.4c0-.8-.1-1.9-.1-3.2V.6h5.2v26.5zM435.5 21.8C435.5 5.2 449.1.7 456.2.7c8.1 0 20.5 5.4 20.5 20.9v17.7c0 15.7-12.4 20.9-20.4 20.9-8.1 0-20.8-5.3-20.8-20.9V21.8zm11.6 17.8c0 5.2 2.8 10.5 9.1 10.5 6.4 0 9.1-6 9.1-10.5V21.3c0-3.3-1.2-10.5-9.1-10.5-6.4 0-9 5.5-9 10.5l-.1 18.3zM482.9 17.4C483.2 4.9 493.5.7 501 .7c10.1 0 16.8 6.8 16.8 15.1 0 7-4.7 10.4-7.7 12 10.5 3.6 11 11.9 11 14.4 0 10.2-9.1 18-20.3 18-6.3 0-13.2-2.5-16.8-7.7-2.6-3.5-3.2-7.7-3.3-10.4h11.6c.3 3.6 3.1 7.8 8.8 7.9 5.6 0 8.5-3.9 8.5-8.7 0-5.7-5.3-8.2-9.8-8.2H495v-8.6h2.6c4 0 8.6-2.2 8.6-7.1 0-3.5-2-6.6-5.7-6.6-4.9 0-6 4-6.2 6.5l-11.4.1zM525.7 21.8C525.7 5.2 539.3.7 546.4.7c8.1 0 20.5 5.4 20.5 20.9v17.7c0 15.7-12.4 20.9-20.4 20.9-8.1 0-20.8-5.3-20.8-20.9V21.8zm11.6 17.8c0 5.2 2.8 10.5 9.1 10.5 6.4 0 9.1-6 9.1-10.5V21.3c0-3.3-1.2-10.5-9.1-10.5-6.4 0-9 5.5-9 10.5l-.1 18.3z"/><path fill="#4FA3EB" d="M104.8 3.3c2.3-3 7.1-3.5 9.9-1 1.2 1 2 2.3 2.4 3.8 5.2 18 10.5 36.1 15.7 54.1h-9.3c-1.5-5-2.9-10-4.3-14.9h-18c-1.5 5-2.9 10-4.4 14.9h-9.2l15-51.6c.6-1.8.9-3.9 2.2-5.3m5.4 11c-2.2 7.5-4.3 15-6.5 22.4h13c-2.1-7.4-4.3-14.9-6.5-22.4z"/><path fill="#E0B67A" d="M170 3.7c1.6-2.3 4.7-3.5 7.5-2.8 2.5.6 4.4 2.7 5.1 5.2 5.2 18 10.5 36.1 15.7 54.1H189c-1.4-5-2.9-10-4.3-14.9h-17.9c-1.4 5-2.9 10-4.3 14.9h-9.2l15-51.9c.4-1.6.6-3.3 1.7-4.6m-.8 33.1h13c-2.2-7.5-4.3-15-6.5-22.5-2.2 7.5-4.4 15-6.5 22.5z"/><path fill="#6AC05F" d="M125.9.8h33.6v9.1h-12.4v50.3h-8.9V9.9h-12.4c.1-3 .1-6.1.1-9.1z"/><path fill="#BA5964" d="M208.1 1.2c.9-.3 1.8-.4 2.7-.4h10.6c5.9.1 11.6 3.8 14.2 9.1 1.8 3.5 2 7.5 1.5 11.3-.3 4-2 8-5.1 10.6-1.6 1.4-3.6 2.3-5.4 3.6-1 .7-1 2.1-.5 3.1 4.7 7.2 9.6 14.4 14.3 21.5h-10.5c-4.6-6.9-9.1-13.8-13.7-20.7-1.3-2-1.7-4.6-.9-6.8.6-1.7 2.1-3 3.8-3.6 3.2-1.2 6.3-3.1 8.1-6.1 1.3-2.3 1.3-5.1.7-7.5-.7-3.2-3.8-5.7-7.1-5.6h-6.9c-1 0-2 .9-2 1.9v48.5H203V7.9c0-2.9 2.2-5.8 5.1-6.7z"/><path fill="#CCBAEE" d="M245.1.8h9.4v59.4h-9.4V.8z"/><g fill="#c3c6c5"><path d="M26.2.7h4.5v10.5c0 2.9-.1 5.8-.2 8.8-.2 4.2-.5 8.4-1.2 12.6-.5 2.9-1.5 5.6-2.7 8.3-2 4.2-5.2 7.8-8.7 10.8-3.2 2.8-7 4.8-10.9 6.2-2.3.8-4.6 1.4-6.9 1.7v-8.8c2.8-.4 5.6-1.4 8.1-2.8 3-1.6 5.7-3.7 8-6.3 2.4-2.6 4.2-5.6 5.7-8.8 1.7-3.7 2.6-7.7 3.2-11.6.8-5.1 1.1-10.2 1.2-15.3-.1-1.8-.1-3.6-.1-5.3zM32.4.7h8.2v58.8h-8.2V.7zM42.5.7h4.4c0 6 .2 12 .9 17.9.6 4.6 1.4 9.3 3.2 13.6 1.7 4.2 4.3 8 7.5 11.1 3.1 3 6.9 5.3 11 6.6 1.1.4 2.3.7 3.5.8v8.8c-2.3-.3-4.6-.9-6.9-1.7-2.7-.9-5.2-2.1-7.6-3.7-1.7-1.1-3.3-2.4-4.8-3.8-2.5-2.3-4.7-4.9-6.4-7.9-1.3-2.3-2.3-4.8-3-7.3-.7-2.5-1-5.2-1.2-7.8-.5-5.7-.7-11.3-.7-17 .1-3.2.1-6.4.1-9.6z"/><path d="M32.4.7V59.6h8.2V.8C37.9.7 35.2.7 32.4.7M42.5.7v9.6c0 5.7.2 11.4.7 17 .3 2.6.6 5.3 1.2 7.8.7 2.5 1.7 5 3 7.3 1.7 3 3.9 5.6 6.4 7.9 1.5 1.4 3.1 2.7 4.8 3.8 2.4 1.5 4.9 2.7 7.6 3.7 2.2.8 4.5 1.4 6.9 1.7v-8.8c-1.2-.2-2.4-.5-3.5-.8-4.1-1.3-7.9-3.6-11-6.6-3.3-3.1-5.8-7-7.5-11.1-1.8-4.3-2.7-8.9-3.2-13.6-.7-5.9-.9-11.9-.9-17.9h-4.5"/></g><path d="M292.7.5h-15c-.1 0-.1.1-.1.1v26.5c0 .1.1.1.1.1h5.5c.1 0 .1-.1.1-.1v-9.9h8.9c.1 0 .1-.1.1-.1v-4.5c0-.1-.1-.1-.1-.1h-8.9V5.3h9.3c.1 0 .1-.1.1-.1V.6c.1 0 .1-.1 0-.1zm-10.1 16v9.9h-4.3V1.2H292v3.3h-9.3c-.1 0-.1.1-.1.1V13c0 .1.1.1.1.1h8.9v3.3h-8.9s-.1 0-.1.1zM309.9.5c0-.1-.1-.1-.1-.1l-6.3.1c-.1 0-.1 0-.1.1L294.1 27v.1l.1.1h5.5c.1 0 .1 0 .1-.1l1.9-5.8h9.6l2.1 5.8.1.1h6.1c.1 0 .1-.1.1-.1V27L309.9.5zm-14.8 26 8.8-25.1 5.4-.1 9.4 25.3H314l-2.1-5.8-.1-.1h-10.5c-.1 0-.1 0-.1.1l-1.9 5.8-4.2-.1z"/><path d="M302.2 17.6h8.4s.1 0 .1-.1v-.1l-2.8-8c-.4-1.1-.8-2.2-1.1-3.2l-.5-1.5c0-.1-.1-.1-.1-.1-.1 0-.1 0-.1.1l-.5 1.5s0 .1-.1.2c-.1.4-.4 1.6-.9 3l-2.6 8 .2.2zm.9-.7 2.4-7.1c.4-1.3.7-2.3.8-2.8.3.9.6 1.9 1 2.8l2.5 7.1h-6.7zM339.6 22.4h-10.3V.6c0-.1-.1-.1-.1-.1h-5.5c-.1 0-.1.1-.1.1v26.5c0 .1.1.1.1.1h15.6c.1 0 .1-.1.1-.1l.3-4.6s0-.1-.1-.1c.1 0 0 0 0 0zm-15.4 4V1.2h4.3V23c0 .1.1.1.1.1h10.3l-.2 3.3h-14.5zM364.4 21c-3.2 1.1-5.7 1.6-8 1.6-5.6 0-9.2-3.6-9.2-9.2 0-2.8 1-5.2 2.7-6.6 1.5-1.3 3.5-1.9 6.2-1.9 2.2 0 4.4.4 7.2 1.2h.1l.1-.1.4-4.5c0-.1 0-.1-.1-.1-3.2-1.1-6.1-1.3-7.6-1.3-3.9 0-7.2.9-9.7 2.7-3.3 2.4-5.2 6.3-5.2 11.1 0 5 2.3 9.3 6.1 11.5 2.3 1.4 5.2 2.1 8.7 2.1 2.6 0 5.4-.6 8.1-1.6l.1-.1.3-4.7V21h-.2zM356.2.9c1.3 0 4 .1 6.9 1.1l-.3 3.3c-2.5-.7-4.5-1-6.6-1-2.8 0-5 .7-6.7 2-1.9 1.6-3 4.2-3 7.2 0 5.9 4 9.9 9.9 9.9 2.1 0 4.5-.4 7.3-1.4l-.2 3.3c-2.5 1-5.1 1.5-7.5 1.5-3.4 0-6.2-.7-8.3-2-3.6-2.1-5.7-6.2-5.7-10.9 0-5.7 2.6-8.8 4.8-10.4 2.5-1.7 5.6-2.6 9.4-2.6zM382.5.1c-3.1 0-5.7.7-8.1 2.1-4 2.4-6.2 6.4-6.2 11.3 0 4.7 1.8 8.7 5.1 11.2 2.3 1.8 5.4 2.8 8.8 2.8 3.2 0 6-.7 8.2-2.1 3.9-2.5 6.2-7 6.2-12.1 0-3.5-1.2-6.6-3.3-9-2.5-2.7-6.2-4.2-10.7-4.2zm-.4 26.7c-3.2 0-6.1-.9-8.3-2.7-3.1-2.4-4.8-6.2-4.8-10.6 0-4.6 2.1-8.4 5.9-10.6 2.2-1.4 4.7-2 7.7-2 4.3 0 7.8 1.4 10 3.9 2.1 2.3 3.2 5.2 3.2 8.5 0 4.8-2.2 9.1-5.9 11.5-2.1 1.3-4.8 2-7.8 2z"/><path d="M382.1 4.2c-2 0-3.6.4-5 1.4-2.3 1.5-3.7 4.3-3.7 7.6 0 3.2 1.1 6.2 3.1 8.1 1.5 1.3 3.6 2.2 5.6 2.2h.2c2.1 0 4-.5 5.4-1.6 2.3-1.7 3.6-4.7 3.6-8.2 0-2.6-.9-5-2.4-6.8-1.6-1.7-3.9-2.7-6.8-2.7zm.3 18.5h-.2c-1.8 0-3.7-.8-5.1-2-1.8-1.8-2.9-4.5-2.9-7.5s1.2-5.5 3.3-6.9c1.3-.9 2.8-1.3 4.6-1.3 2.6 0 4.7.8 6.2 2.5 1.4 1.6 2.2 3.8 2.2 6.2 0 3.2-1.2 6-3.3 7.6-1.1.9-2.9 1.4-4.8 1.4zM425 .5h-5.2c-.1 0-.1.1-.1.1v15.2c0 .9 0 1.8.1 2.7L406.9.6l-.1-.1h-6.1c-.1 0-.1.1-.1.1v26.5c0 .1.1.1.1.1h5.2c.1 0 .1-.1.1-.1V9l12.7 18.1.1.1h6.1c.1 0 .1-.1.1-.1V.6c.1 0 .1-.1 0-.1zm-19.7 8.1c.1.8.1 2.2.1 4v13.9h-4V1.2h5.1l12.9 18.1 1 1.4.1.1c.1 0 .1-.1.1-.1l-.1-1.7c0-1.1-.1-2.1-.1-3.1V1.2h4v25.2h-5.2L405.3 6.7s-.1-.1-.1 0c-.1 0-.1.1-.1.1l.2 1.8zM456.1 10.2c-6.6 0-9.6 5.6-9.6 11.2v18.2c0 5.5 3 11.1 9.7 11.1 7.1 0 9.7-6.8 9.7-11.1V21.3c-.1-1.8-.5-11.1-9.8-11.1zm9 11.1v18.3c0 4.2-2.4 10.3-8.9 10.3-6.2 0-8.9-5.2-8.9-10.3V21.4c0-4.8 2.3-10.4 8.9-10.4 8.5 0 8.9 8.6 8.9 10.3z"/><path d="M456.2.6c-1.7 0-7.7.3-13.1 4.3-5 3.8-7.7 9.6-7.7 16.9v17.5c0 15.4 12.5 21 21 21 4.7 0 9.6-1.7 13.3-4.6 4.7-3.8 7.2-9.5 7.2-16.4V21.6c0-15.4-12.4-21-20.7-21zm.2 59c-8.1 0-20.2-5.4-20.2-20.3V21.8c0-16.2 13.1-20.4 20.1-20.4 8 0 19.9 5.4 19.9 20.3v17.7c-.1 14.8-11.9 20.2-19.8 20.2zM510.4 27.8c5-2.9 7.5-6.8 7.5-12 0-4.1-1.7-8-4.7-10.8-3.1-2.9-7.5-4.5-12.3-4.5-6.6 0-17.8 3.5-18.2 16.8v.1h11.5c.1 0 .1-.1.1-.1.1-1.9.9-6.4 6.1-6.4 3.9 0 5.6 3.3 5.6 6.5 0 4.6-4.3 7-8.5 7H495c-.1 0-.1.1-.1.1v8.6c0 .1.1.1.1.1h4.6c4.8 0 9.7 2.8 9.7 8.1 0 5.2-3.3 8.6-8.4 8.6-5.5-.1-8.3-4.1-8.6-7.8 0-.1-.1-.1-.1-.1h-11.7v.1c.2 4.2 1.4 7.8 3.4 10.4 3.2 4.7 9.9 7.7 16.9 7.7 11.5 0 20.4-8 20.4-18.1 0-3.9-1.4-11-10.8-14.3zm-9.6 31.8c-6.8 0-13.2-2.9-16.3-7.4-1.8-2.4-2.9-5.6-3.2-9.4h10.4c.6 3.9 3.7 7.8 9.3 7.9 5.5 0 9.1-3.7 9.1-9.3 0-5.8-5.3-8.8-10.5-8.8h-4v-7.4h1.9c4.6 0 9.2-2.7 9.2-7.8 0-4.2-2.6-7.2-6.4-7.2-5.2 0-6.5 4-6.8 6.5h-10.2c.7-12.2 11.2-15.4 17.4-15.4 9.2 0 16.2 6.2 16.2 14.5 0 5-2.4 8.7-7.4 11.5l-1 .5-.1.1s0 .1.1.1l1.1.4c9.2 3.1 10.6 10 10.6 13.8.2 9.8-8.4 17.4-19.4 17.4zM546.2 10.2c-6.6 0-9.6 5.6-9.6 11.2v18.2c0 5.5 3 11.1 9.7 11.1 7.1 0 9.7-6.8 9.7-11.1V21.3c0-1.8-.5-11.1-9.8-11.1zm9.1 11.1v18.3c0 4.2-2.4 10.3-8.9 10.3-6.2 0-8.9-5.2-8.9-10.3V21.4c0-4.8 2.3-10.4 8.9-10.4 8.4 0 8.9 8.6 8.9 10.3z"/><path d="M559.8 5.2c-3.7-2.9-8.7-4.7-13.4-4.7-1.7 0-7.7.3-13.1 4.3-5.1 3.8-7.7 9.6-7.7 16.9v17.5c0 15.4 12.5 21 21 21 4.7 0 9.6-1.7 13.3-4.6 4.7-3.8 7.2-9.5 7.2-16.4V21.6c0-8.7-4-13.7-7.3-16.4zm-13.2 54.4c-8.1 0-20.2-5.4-20.2-20.3V21.8c0-16.2 13.1-20.4 20.1-20.4 8 0 19.9 5.4 19.9 20.3v17.7c-.1 14.8-11.9 20.2-19.8 20.2z"/></svg>