<svg version="1.2" baseProfile="tiny" xmlns="http://www.w3.org/2000/svg" width="598.189" height="350.26" xml:space="preserve"><path fill="#F4F4F4" d="M12.242 79.064v35.889h463.776V79.064H12.242zm1.901 1.902h459.973v32.085H14.143V80.966z"/><path fill="#F4F4F4" d="M454.752 85.423c-2.57 0-4.694 2.095-4.694 4.664 0 2.569 2.124 4.694 4.694 4.694 2.569 0 4.664-2.125 4.664-4.694a4.673 4.673 0 0 0-4.664-4.664zm0 1.901c1.541 0 2.763 1.221 2.763 2.763s-1.222 2.793-2.763 2.793-2.793-1.251-2.793-2.793 1.252-2.763 2.793-2.763zM508.046 91.246c-1.185 0-2.219.2-2.941.921-.72.721-.921 1.755-.921 2.941v19.845c0 1.186.201 2.22.921 2.941.723.722 1.755.921 2.941.921h19.727c1.187 0 2.221-.199 2.941-.921.723-.721.921-1.755.921-2.941V95.108c0-1.186-.198-2.22-.921-2.941-.721-.722-1.755-.921-2.941-.921h-19.727zm0 1.901h19.727c.96 0 1.406.188 1.604.386.199.199.356.615.356 1.575v19.845c0 .959-.157 1.405-.356 1.604-.198.199-.645.356-1.604.356h-19.727c-.958 0-1.405-.158-1.604-.356-.198-.199-.356-.645-.356-1.604V95.108c0-.959.158-1.376.356-1.575.201-.199.646-.386 1.604-.386zM537.404 91.246c-1.187 0-2.221.2-2.941.921-.723.721-.921 1.755-.921 2.941v19.845c0 1.186.198 2.22.921 2.941.721.722 1.755.921 2.941.921h19.727c1.185 0 2.219-.199 2.941-.921.72-.721.921-1.754.921-2.941V95.108c0-1.186-.201-2.22-.921-2.941-.723-.721-1.755-.921-2.941-.921h-19.727zm0 1.901h19.727c.958 0 1.405.187 1.604.386.198.199.356.616.356 1.575v19.845c0 .959-.158 1.405-.356 1.604-.201.199-.646.356-1.604.356h-19.727c-.96 0-1.405-.158-1.604-.356-.198-.199-.356-.645-.356-1.604V95.108c0-.959.158-1.376.356-1.575.199-.199.644-.386 1.604-.386zM537.404 62.874c-1.187 0-2.221.2-2.941.921-.723.722-.921 1.755-.921 2.941v19.845c0 1.186.198 2.22.921 2.941.713.721 1.749.92 2.938.92h19.727c1.185 0 2.219-.199 2.941-.921.721-.721.921-1.754.921-2.941V66.735c0-1.186-.2-2.22-.921-2.941-.723-.72-1.761-.92-2.938-.92h-19.727zm0 1.901h19.727c.958 0 1.405.188 1.604.386.198.199.356.616.356 1.575v19.845c0 .959-.158 1.405-.356 1.604-.201.199-.646.356-1.604.356h-19.727c-.96 0-1.405-.157-1.604-.356-.198-.199-.356-.645-.356-1.604V66.736c0-.959.158-1.375.356-1.575.199-.198.646-.385 1.606-.385l-.002-.001zM537.404 119.617c-1.187 0-2.221.23-2.941.951-.723.722-.921 1.726-.921 2.912v19.875c0 1.187.198 2.191.921 2.911.721.723 1.755.951 2.941.951h19.727c1.185 0 2.219-.228 2.941-.951.72-.72.921-1.725.921-2.911V123.48c0-1.186-.201-2.19-.921-2.912-.723-.721-1.755-.951-2.941-.951h-19.727zm0 1.902h19.727c.958 0 1.405.188 1.604.386.198.199.356.616.356 1.575v19.875c0 .96-.158 1.375-.356 1.574-.201.2-.646.386-1.604.386h-19.727c-.96 0-1.405-.187-1.604-.386-.198-.199-.356-.615-.356-1.574V123.48c0-.959.158-1.375.356-1.575.199-.199.644-.386 1.604-.386zM508.256 156.366c-1.185 0-2.221.201-2.941.921-.72.722-.921 1.756-.921 2.941v19.846c0 1.186.201 2.22.921 2.941.721.721 1.755.921 2.941.921h19.757c1.185 0 2.188-.201 2.911-.921.721-.721.95-1.755.95-2.941v-19.846c0-1.185-.229-2.219-.95-2.941-.723-.72-1.725-.921-2.911-.921h-19.757zm0 1.902h19.757c.958 0 1.376.158 1.574.356.199.199.387.646.387 1.604v19.846c0 .959-.188 1.405-.387 1.604-.198.198-.616.356-1.574.356h-19.757c-.958 0-1.376-.158-1.574-.356-.199-.199-.387-.646-.387-1.604v-19.846c0-.958.188-1.406.387-1.604.198-.198.616-.356 1.574-.356zM405.974 128.084c-1.187 0-2.191.229-2.912.951-.722.721-.95 1.726-.95 2.911v19.875c0 1.186.23 2.19.95 2.912.721.722 1.726.951 2.912.951h19.754c1.188 0 2.222-.229 2.941-.951.725-.721.923-1.725.923-2.912v-19.874c0-1.186-.2-2.19-.921-2.911-.721-.722-1.755-.951-2.941-.951l-19.756-.001zm0 1.901h19.754c.961 0 1.377.188 1.575.386.191.199.381.615.381 1.575v19.875c0 .958-.188 1.376-.387 1.575-.198.199-.614.386-1.574.386h-19.755c-.96 0-1.376-.188-1.574-.386-.201-.199-.387-.617-.387-1.575v-19.875c0-.959.186-1.375.387-1.575.198-.199.614-.386 1.574-.386h.006zM433.656 128.084c-1.187 0-2.221.229-2.94.951-.721.721-.922 1.726-.922 2.911v19.875c0 1.186.201 2.19.922 2.912.72.722 1.754.951 2.94.951h35.592c1.187 0 2.219-.229 2.941-.951.72-.721.921-1.725.921-2.912v-19.875c0-1.186-.201-2.19-.921-2.911-.721-.722-1.755-.951-2.941-.951h-35.592zm0 1.901h35.592c.96 0 1.405.188 1.604.386.198.199.356.616.356 1.575v19.875c0 .959-.158 1.376-.356 1.575-.199.199-.646.386-1.604.386h-35.592c-.96 0-1.405-.188-1.604-.386-.199-.199-.356-.617-.356-1.575v-19.875c0-.959.157-1.375.356-1.575.199-.198.646-.386 1.604-.386zM376.292 128.084c-1.185 0-2.219.229-2.941.951-.72.721-.92 1.726-.92 2.911v19.875c0 1.186.2 2.19.92 2.912.723.722 1.755.951 2.941.951h19.727c1.188 0 2.222-.229 2.941-.951.721-.722.921-1.725.921-2.912v-19.875c0-1.186-.2-2.19-.921-2.911-.72-.722-1.754-.951-2.941-.951h-19.727zm0 1.901h19.727c.961 0 1.406.188 1.604.386.199.199.356.615.356 1.575v19.875c0 .959-.157 1.376-.356 1.575-.198.199-.644.386-1.604.386h-19.727c-.958 0-1.405-.188-1.604-.386-.199-.199-.357-.617-.357-1.575v-19.875c0-.959.158-1.375.357-1.575.199-.198.646-.386 1.604-.386zM346.583 128.084c-1.185 0-2.219.229-2.94.951-.721.721-.921 1.726-.921 2.911v19.875c0 1.186.2 2.19.921 2.912.722.722 1.756.951 2.94.951h19.757c1.187 0 2.221-.229 2.941-.951.722-.721.921-1.725.921-2.912v-19.875c0-1.186-.199-2.19-.921-2.911-.721-.722-1.755-.951-2.941-.951h-19.757zm0 1.901h19.757c.96 0 1.376.188 1.574.386.199.199.387.616.387 1.575v19.875c0 .959-.188 1.376-.387 1.575-.198.199-.614.386-1.574.386h-19.757c-.958 0-1.374-.188-1.572-.386-.201-.199-.387-.617-.387-1.575v-19.875c0-.959.186-1.375.387-1.575.198-.198.614-.386 1.572-.386zM316.904 128.084c-1.187 0-2.221.229-2.941.951-.721.721-.921 1.726-.921 2.911v19.875c0 1.186.2 2.19.921 2.912.721.722 1.755.951 2.941.951h19.727c1.187 0 2.219-.229 2.941-.951.72-.721.921-1.725.921-2.912v-19.875c0-1.186-.201-2.19-.921-2.911-.721-.722-1.755-.951-2.941-.951h-19.727zm0 1.901h19.727c.96 0 1.405.188 1.604.386.198.199.356.616.356 1.575v19.875c0 .959-.158 1.376-.356 1.575-.199.199-.646.386-1.604.386h-19.727c-.96 0-1.406-.188-1.604-.386-.199-.199-.356-.617-.356-1.575v-19.875c0-.959.157-1.375.356-1.575.198-.198.646-.386 1.604-.386zM287.195 128.084c-1.186 0-2.22.229-2.941.951-.721.721-.921 1.726-.921 2.911v19.875c0 1.186.2 2.19.921 2.912.721.722 1.754.951 2.941.951h19.756c1.187 0 2.191-.229 2.912-.951.72-.721.95-1.725.95-2.912v-19.875c0-1.186-.23-2.19-.95-2.911-.721-.722-1.726-.951-2.912-.951h-19.756zm0 1.901h19.756c.96 0 1.376.188 1.575.386.198.199.386.616.386 1.575v19.875c0 .959-.188 1.376-.386 1.575-.201.2-.618.387-1.578.387h-19.756c-.959 0-1.375-.187-1.575-.386-.199-.2-.386-.616-.386-1.575v-19.875c0-.959.188-1.375.386-1.574.199-.199.616-.386 1.575-.386l.003-.002zM257.515 128.084c-1.186 0-2.22.229-2.941.951-.721.721-.921 1.726-.921 2.911v19.875c0 1.186.2 2.19.921 2.912.721.722 1.755.951 2.941.951h19.727c1.186 0 2.22-.229 2.941-.951.721-.722.921-1.725.921-2.912v-19.875c0-1.186-.2-2.19-.921-2.911-.721-.722-1.754-.951-2.941-.951h-19.727zm0 1.901h19.727c.959 0 1.405.188 1.604.386.199.199.357.616.357 1.575v19.875c0 .959-.158 1.376-.357 1.575s-.645.386-1.604.386h-19.727c-.959 0-1.405-.188-1.604-.386-.199-.199-.356-.617-.356-1.575v-19.875c0-.959.158-1.375.356-1.575.199-.198.645-.386 1.604-.386zM227.807 128.084c-1.186 0-2.22.229-2.941.951-.721.721-.921 1.726-.921 2.911v19.875c0 1.186.2 2.19.921 2.912.721.722 1.754.951 2.941.951h19.756c1.187 0 2.19-.229 2.911-.951.722-.722.951-1.725.951-2.912v-19.875c0-1.186-.229-2.19-.951-2.911-.721-.722-1.725-.951-2.911-.951h-19.756zm0 1.901h19.756c.959 0 1.375.188 1.574.386.199.199.386.616.386 1.575v19.875c0 .959-.188 1.376-.386 1.575s-.615.386-1.574.386h-19.756c-.959 0-1.375-.188-1.574-.386-.199-.199-.386-.617-.386-1.575v-19.875c0-.959.188-1.375.386-1.575.199-.198.614-.386 1.574-.386zM198.098 128.084c-1.186 0-2.19.229-2.911.951-.722.721-.951 1.726-.951 2.911v19.875c0 1.186.229 2.191.951 2.912.721.721 1.725.951 2.911.951h19.756c1.186 0 2.22-.229 2.941-.951.722-.722.921-1.725.921-2.912v-19.875c0-1.186-.199-2.19-.921-2.911-.721-.722-1.754-.951-2.941-.951h-19.756zm0 1.901h19.756c.959 0 1.405.188 1.604.386.199.199.356.616.356 1.575v19.875c0 .959-.158 1.376-.356 1.575s-.645.386-1.604.386h-19.756c-.958 0-1.375-.188-1.574-.386-.199-.199-.386-.617-.386-1.575v-19.875c0-.959.188-1.375.386-1.575.199-.198.616-.386 1.574-.386zM168.418 128.084c-1.186 0-2.22.229-2.941.951-.721.721-.921 1.726-.921 2.911v19.875c0 1.186.2 2.191.921 2.912.721.721 1.755.951 2.941.951h19.756c1.186 0 2.19-.229 2.911-.951.722-.722.951-1.725.951-2.912v-19.875c0-1.186-.229-2.19-.951-2.911-.721-.722-1.725-.951-2.911-.951h-19.756zm0 1.901h19.756c.959 0 1.375.188 1.574.386.199.199.386.616.386 1.575v19.875c0 .959-.187 1.376-.386 1.575-.199.199-.615.386-1.574.386h-19.756c-.958 0-1.404-.188-1.604-.386-.199-.199-.356-.617-.356-1.575v-19.875c0-.959.158-1.375.356-1.575.199-.198.645-.386 1.604-.386zM138.709 128.084c-1.186 0-2.19.229-2.912.951-.721.721-.95 1.726-.95 2.911v19.875c0 1.186.229 2.191.95 2.912.722.721 1.726.951 2.912.951h19.756c1.186 0 2.22-.229 2.941-.951.721-.721.921-1.725.921-2.912v-19.875c0-1.186-.2-2.19-.921-2.911-.721-.722-1.755-.951-2.941-.951h-19.756zm0 1.901h19.756c.959 0 1.375.188 1.574.386.199.199.386.616.386 1.575v19.875c0 .959-.187 1.376-.386 1.575s-.615.386-1.574.386h-19.756c-.958 0-1.375-.188-1.575-.386-.199-.199-.386-.617-.386-1.575v-19.875c0-.959.188-1.375.386-1.575.2-.198.617-.386 1.575-.386zM109.03 128.084c-1.187 0-2.22.229-2.941.951-.722.721-.921 1.726-.921 2.911v19.875c0 1.186.2 2.19.921 2.912.721.722 1.754.951 2.941.951h19.727c1.186 0 2.22-.229 2.941-.951.722-.722.921-1.725.921-2.912v-19.875c0-1.186-.199-2.19-.921-2.911-.721-.722-1.754-.951-2.941-.951H109.03zm0 1.901h19.727c.959 0 1.405.188 1.604.386.199.199.356.616.356 1.575v19.875c0 .959-.158 1.376-.356 1.575s-.645.386-1.604.386H109.03c-.959 0-1.406-.188-1.604-.386-.185-.199-.343-.615-.343-1.575v-19.875c0-.959.158-1.375.356-1.574.199-.199.646-.386 1.604-.386l-.013-.001zM79.323 128.084c-1.186 0-2.19.229-2.911.951-.721.721-.951 1.726-.951 2.911v19.875c0 1.186.229 2.19.951 2.912.721.722 1.725.951 2.911.951h19.756c1.187 0 2.22-.229 2.942-.951.721-.722.92-1.725.92-2.912v-19.875c0-1.186-.2-2.19-.92-2.911-.722-.722-1.755-.951-2.942-.951H79.323zm0 1.901h19.756c.959 0 1.376.188 1.575.386.199.199.386.616.386 1.575v19.875c0 .959-.187 1.376-.386 1.575-.199.199-.615.386-1.575.386H79.323c-.959 0-1.375-.188-1.574-.386s-.386-.615-.386-1.575v-19.875c0-.959.188-1.375.386-1.574.199-.199.615-.386 1.574-.387zM49.645 128.084c-1.186 0-2.22.229-2.941.951-.721.721-.921 1.726-.921 2.911v19.875c0 1.186.2 2.191.921 2.912.721.721 1.755.951 2.941.951h19.726c1.187 0 2.22-.229 2.941-.951.512-.512.728-1.194.832-1.961h.089v-20.826c0-1.186-.2-2.19-.921-2.911-.721-.722-1.755-.951-2.941-.951H49.645zm0 1.901h19.726c.959 0 1.406.188 1.604.386.199.199.356.616.356 1.575v19.875c0 .959-.157 1.376-.356 1.575-.199.199-.645.386-1.604.386H49.645c-.958 0-1.405-.188-1.604-.386s-.356-.617-.356-1.575v-19.875c0-.959.157-1.375.356-1.575.199-.198.645-.386 1.604-.386zM66.251 157.644c-1.186 0-2.22.23-2.941.951-.721.722-.921 1.727-.921 2.911v19.876c0 1.185.2 2.189.921 2.911s1.755.95 2.941.95h19.756c1.186 0 2.19-.229 2.912-.95.721-.722.951-1.726.951-2.911v-19.876c0-1.185-.23-2.189-.951-2.911-.722-.721-1.726-.951-2.912-.951H66.251zm0 1.901h19.756c.959 0 1.375.188 1.575.386.198.198.386.616.386 1.574v19.876c0 .959-.188 1.375-.386 1.574-.199.198-.616.386-1.575.386H66.251c-.959 0-1.375-.188-1.574-.386-.199-.219-.386-.637-.386-1.588v-19.875c0-.958.187-1.376.386-1.575.199-.199.615-.386 1.574-.386v.014zM19.074 157.644c-1.186 0-2.219.23-2.941.951-.722.723-.921 1.721-.921 2.909v19.876c0 1.185.2 2.188.921 2.911.721.721 1.755.95 2.941.95h37.879c1.186 0 2.22-.229 2.941-.95.721-.723.921-1.727.921-2.911v-19.876c0-1.185-.2-2.19-.921-2.911-.722-.721-1.755-.951-2.941-.951H19.074v.002zm0 1.901h37.879c.959 0 1.375.188 1.575.386.199.198.386.616.386 1.574v19.876c0 .959-.187 1.375-.386 1.574-.199.198-.616.386-1.575.386H19.074c-.959 0-1.375-.188-1.574-.386-.199-.219-.387-.637-.387-1.588v-19.875c0-.958.188-1.376.386-1.575.199-.199.616-.386 1.575-.386v.014zM95.663 157.644c-1.186 0-2.19.23-2.912.951-.721.722-.951 1.727-.951 2.911v19.876c0 1.186.23 2.189.951 2.911.722.722 1.726.95 2.912.95h19.756c1.187 0 2.22-.229 2.941-.95s.921-1.726.921-2.911v-19.876c0-1.185-.2-2.189-.921-2.911-.721-.721-1.755-.951-2.941-.951H95.663zm0 1.901h19.756c.96 0 1.406.188 1.604.386.199.198.356.616.356 1.574v19.876c0 .959-.158 1.375-.356 1.574-.199.198-.645.386-1.604.386H95.663c-.958 0-1.375-.188-1.575-.386-.199-.199-.386-.616-.386-1.574v-19.876c0-.958.188-1.376.386-1.574.2-.198.616-.386 1.575-.386zM125.105 157.644c-1.186 0-2.22.23-2.941.951-.721.722-.921 1.727-.921 2.911v19.876c0 1.185.2 2.189.921 2.911.721.722 1.754.95 2.941.95h19.756c1.186 0 2.19-.229 2.911-.95s.951-1.726.951-2.911v-19.876c0-1.185-.229-2.189-.951-2.911-.721-.721-1.725-.951-2.911-.951h-19.756zm0 1.901h19.756c.959 0 1.375.188 1.575.386.198.198.386.616.386 1.574v19.876c0 .958-.188 1.375-.386 1.574-.199.198-.616.386-1.575.386h-19.756c-.959 0-1.405-.188-1.604-.386-.199-.199-.356-.616-.356-1.574v-19.876c0-.958.158-1.376.356-1.574.199-.198.645-.386 1.604-.386zM154.52 157.644c-1.186 0-2.19.23-2.912.951-.721.722-.951 1.727-.951 2.911v19.876c0 1.186.23 2.189.951 2.911s1.726.95 2.912.95h19.756c1.186 0 2.22-.229 2.941-.95.721-.722.921-1.726.921-2.911v-19.876c0-1.185-.2-2.189-.921-2.911-.722-.721-1.755-.951-2.941-.951H154.52zm0 1.901h19.756c.959 0 1.376.188 1.575.386.199.198.386.616.386 1.574v19.876c0 .958-.188 1.375-.386 1.574-.199.198-.616.386-1.575.386H154.52c-.958 0-1.375-.188-1.575-.386-.199-.199-.386-.616-.386-1.574v-19.876c0-.958.188-1.376.386-1.574.199-.198.616-.386 1.575-.386zM183.952 157.644c-1.186 0-2.22.23-2.941.951-.721.722-.921 1.727-.921 2.911v19.876c0 1.185.2 2.189.921 2.911.722.722 1.755.95 2.941.95h19.727c1.187 0 2.22-.229 2.941-.95.721-.722.921-1.726.921-2.911v-19.876c0-1.185-.2-2.189-.921-2.911-.721-.721-1.755-.951-2.941-.951h-19.727zm0 1.901h19.727c.959 0 1.405.188 1.604.386.199.198.356.616.356 1.574v19.876c0 .959-.158 1.375-.356 1.574-.199.198-.645.386-1.604.386h-19.727c-.959 0-1.405-.188-1.604-.386-.198-.199-.356-.616-.356-1.574v-19.876c0-.958.158-1.376.356-1.574.198-.198.645-.386 1.604-.386zM213.366 157.644c-1.186 0-2.19.23-2.911.951-.722.722-.951 1.727-.951 2.911v19.876c0 1.186.229 2.189.951 2.911.721.722 1.725.95 2.911.95h19.756c1.187 0 2.22-.229 2.941-.95s.921-1.726.921-2.911v-19.876c0-1.185-.2-2.189-.921-2.911-.721-.721-1.755-.951-2.941-.951h-19.756zm0 1.901h19.756c.959 0 1.376.188 1.574.386.199.198.387.616.387 1.574v19.876c0 .959-.188 1.375-.387 1.574-.198.198-.615.386-1.574.386h-19.756c-.959 0-1.375-.188-1.574-.386-.199-.199-.386-.616-.386-1.574v-19.876c0-.958.187-1.376.386-1.574.199-.198.615-.386 1.574-.386zM242.809 157.644c-1.186 0-2.22.23-2.941.951-.721.722-.921 1.727-.921 2.911v19.876c0 1.185.2 2.189.921 2.911.722.722 1.755.95 2.941.95h19.727c1.186 0 2.22-.229 2.941-.95.721-.722.921-1.726.921-2.911v-19.876c0-1.185-.2-2.189-.921-2.911-.722-.721-1.755-.951-2.941-.951h-19.727zm0 1.901h19.727c.959 0 1.405.188 1.604.386.199.198.356.616.356 1.574v19.876c0 .959-.158 1.375-.356 1.574-.199.198-.646.386-1.604.386h-19.727c-.959 0-1.405-.188-1.604-.386-.199-.199-.356-.616-.356-1.574v-19.876c0-.958.158-1.376.356-1.574.198-.198.645-.386 1.604-.386zM272.222 157.644c-1.186 0-2.22.23-2.941.951-.722.722-.921 1.727-.921 2.911v19.876c0 1.186.2 2.189.921 2.911s1.755.95 2.941.95h19.756c1.186 0 2.22-.229 2.941-.95.721-.722.921-1.726.921-2.911v-19.876c0-1.185-.2-2.189-.921-2.911-.722-.721-1.755-.951-2.941-.951h-19.756zm0 1.901h19.756c.959 0 1.376.188 1.574.386.199.198.387.616.387 1.574v19.876c0 .958-.188 1.375-.387 1.574-.199.198-.615.386-1.574.386h-19.756c-.958 0-1.375-.188-1.574-.386-.199-.199-.386-.616-.386-1.574v-19.876c0-.958.188-1.376.386-1.574.199-.198.616-.386 1.574-.386zM301.665 157.644c-1.186 0-2.22.23-2.941.951-.722.722-.921 1.727-.921 2.911v19.876c0 1.185.2 2.189.921 2.911.722.722 1.755.95 2.941.95h19.727c1.185 0 2.219-.229 2.941-.95.721-.722.921-1.726.921-2.911v-19.876c0-1.185-.2-2.189-.921-2.911-.723-.721-1.755-.951-2.941-.951h-19.727zm0 1.901h19.727c.959 0 1.406.188 1.604.386.199.198.356.616.356 1.574v19.876c0 .958-.157 1.375-.356 1.574-.2.198-.646.386-1.604.386h-19.727c-.959 0-1.405-.188-1.604-.386-.198-.199-.356-.616-.356-1.574v-19.876c0-.958.158-1.376.356-1.574.199-.198.645-.386 1.604-.386zM331.079 157.644c-1.187 0-2.221.23-2.941.951-.723.722-.921 1.727-.921 2.911v19.876c0 1.185.2 2.189.921 2.911s1.755.95 2.941.95h19.756c1.186 0 2.189-.229 2.912-.95.721-.722.95-1.726.95-2.911v-19.876c0-1.185-.229-2.189-.95-2.911-.723-.721-1.727-.951-2.912-.951h-19.756zm0 1.901h19.756c.959 0 1.376.188 1.575.386.198.198.386.616.386 1.574v19.876c0 .958-.188 1.375-.386 1.574-.2.198-.616.386-1.575.386h-19.756c-.96 0-1.376-.188-1.574-.386-.199-.199-.387-.616-.387-1.574v-19.876c0-.958.188-1.376.387-1.574.198-.198.614-.386 1.574-.386zM360.511 157.644c-1.184 0-2.219.23-2.94.951-.721.722-.921 1.727-.921 2.911v19.876c0 1.185.2 2.189.921 2.911.72.722 1.755.95 2.94.95h19.728c1.187 0 2.221-.229 2.94-.95.721-.722.922-1.726.922-2.911v-19.876c0-1.185-.201-2.189-.922-2.911-.72-.721-1.754-.951-2.94-.951h-19.728zm0 1.901h19.728c.96 0 1.405.188 1.604.386.198.198.356.616.356 1.574v19.876c0 .959-.158 1.375-.356 1.574-.199.198-.645.386-1.604.386h-19.728c-.957 0-1.405-.188-1.604-.386-.199-.199-.356-.616-.356-1.574v-19.876c0-.958.157-1.376.356-1.574.198-.198.647-.386 1.604-.386zM389.925 157.644c-1.185 0-2.219.23-2.941.951-.72.722-.921 1.727-.921 2.911v19.876c0 1.185.201 2.189.921 2.911.723.722 1.755.95 2.941.95h19.757c1.187 0 2.19-.229 2.911-.95s.951-1.726.951-2.911v-19.876c0-1.185-.23-2.189-.951-2.911-.721-.721-1.725-.951-2.911-.951h-19.757zm0 1.901h19.757c.96 0 1.376.188 1.574.386.199.198.387.616.387 1.574v19.876c0 .959-.188 1.375-.387 1.574-.198.198-.616.386-1.574.386h-19.757c-.958 0-1.376-.188-1.574-.386-.199-.199-.387-.616-.387-1.574v-19.876c0-.958.188-1.376.387-1.574.198-.198.616-.386 1.574-.386zM418.266 157.644c-1.187 0-2.221.23-2.941.951-.722.722-.921 1.727-.921 2.911v19.876c0 1.186.199 2.189.921 2.911.721.722 1.755.95 2.941.95 1.512 0 2.295.148 2.466.268.085.06.141.091.208.327.066.235.089.646.089 1.247v22.758c0 1.187.229 2.22.951 2.941.72.721 1.725.921 2.911.921h43.373c1.187 0 2.221-.2 2.941-.921.715-.715.917-1.739.921-2.912v-.029l.179-48.305v-.03c0-1.187-.229-2.191-.951-2.912-.721-.721-1.725-.951-2.911-.951h-50.177v-.001zm0 1.901h50.177c.96 0 1.376.188 1.574.386.199.198.387.616.387 1.574l-.179 48.337c0 .959-.157 1.405-.356 1.604-.198.198-.645.356-1.604.356h-43.373c-.96 0-1.376-.158-1.574-.356-.191-.2-.381-.646-.381-1.606v-22.757c0-.682-.028-1.253-.179-1.783s-.46-1.045-.921-1.366c-.923-.645-2.003-.595-3.564-.595-.96 0-1.376-.188-1.575-.386-.198-.199-.386-.616-.386-1.574v-19.876c0-.958.188-1.375.386-1.574.199-.199.615-.386 1.575-.386l-.007.002zM72.075 186.348c-1.186 0-2.22.229-2.941.95-.721.722-.921 1.726-.921 2.911v19.875c0 1.187.2 2.19.921 2.911.721.722 1.755.951 2.941.951h19.756c1.186 0 2.19-.229 2.912-.951.721-.72.951-1.725.951-2.911v-19.875c0-1.185-.23-2.189-.951-2.911-.721-.721-1.726-.95-2.912-.95H72.075zm0 1.901h19.756c.959 0 1.375.187 1.575.386.199.199.386.616.386 1.574v19.875c0 .96-.188 1.376-.386 1.574-.199.199-.615.387-1.575.387H72.075c-.959 0-1.376-.188-1.575-.387-.199-.198-.386-.615-.386-1.574v-19.875c0-.958.188-1.375.386-1.574s.616-.386 1.575-.386zM18.658 186.348c-1.186 0-2.19.229-2.911.95-.722.722-.951 1.726-.951 2.911v19.875c0 1.187.229 2.19.951 2.911.721.722 1.725.951 2.911.951h45.663c1.186 0 2.189-.229 2.911-.951.722-.72.951-1.725.951-2.911v-19.875c0-1.185-.229-2.189-.951-2.911-.721-.721-1.725-.95-2.911-.95H18.658zm0 1.901h45.663c.959 0 1.375.187 1.574.386.199.199.386.616.386 1.574v19.875c0 .96-.187 1.376-.386 1.574-.198.199-.615.387-1.574.387H18.658c-.959 0-1.375-.188-1.574-.387-.199-.198-.386-.615-.386-1.574v-19.875c0-.958.187-1.375.386-1.574.199-.209.615-.39 1.574-.39v.004zM101.515 186.348c-1.186 0-2.22.229-2.941.95-.722.722-.921 1.726-.921 2.911v19.875c0 1.187.2 2.191.921 2.911.721.722 1.755.951 2.941.951h19.727c1.186 0 2.22-.229 2.941-.951.512-.512.728-1.193.832-1.961h.089v-20.825c0-1.185-.2-2.189-.921-2.911-.721-.721-1.755-.95-2.941-.95h-19.727zm0 1.901h19.727c.959 0 1.405.187 1.604.386s.357.616.357 1.574v19.875c0 .96-.158 1.376-.357 1.574-.199.199-.645.387-1.604.387h-19.727c-.958 0-1.405-.188-1.604-.387-.199-.198-.356-.615-.356-1.574v-19.875c0-.958.158-1.375.356-1.574.199-.199.645-.386 1.604-.386zM130.923 186.348c-1.186 0-2.22.229-2.941.95-.722.722-.921 1.726-.921 2.911v19.875c0 1.187.2 2.191.921 2.911.721.722 1.755.951 2.941.951h19.756c1.186 0 2.19-.229 2.911-.951.722-.72.951-1.725.951-2.911v-19.875c0-1.185-.229-2.189-.951-2.911-.721-.721-1.725-.95-2.911-.95h-19.756zm0 1.901h19.756c.959 0 1.376.187 1.574.386.199.199.386.616.386 1.574v19.875c0 .96-.187 1.376-.386 1.574-.198.199-.615.387-1.574.387h-19.756c-.958 0-1.375-.188-1.574-.387-.199-.198-.386-.615-.386-1.574v-19.875c0-.958.188-1.375.386-1.574s.616-.386 1.574-.386zM160.338 186.348c-1.186 0-2.19.229-2.912.95-.721.722-.951 1.726-.951 2.911v19.875c0 1.187.229 2.191.951 2.911.721.722 1.726.951 2.912.951h19.756c1.186 0 2.22-.229 2.941-.951.721-.72.921-1.725.921-2.911v-19.875c0-1.185-.2-2.189-.921-2.911-.722-.721-1.755-.95-2.941-.95h-19.756zm0 1.901h19.756c.959 0 1.405.187 1.604.386.198.199.356.616.356 1.574v19.875c0 .96-.158 1.376-.356 1.574-.199.199-.645.387-1.604.387h-19.756c-.959 0-1.376-.188-1.575-.387-.199-.198-.386-.615-.386-1.574v-19.875c0-.958.187-1.375.386-1.574.199-.199.616-.386 1.575-.386zM189.78 186.348c-1.186 0-2.22.229-2.941.95-.722.722-.921 1.726-.921 2.911v19.875c0 1.187.2 2.19.921 2.911.721.722 1.755.951 2.941.951h19.756c1.186 0 2.19-.229 2.912-.951.721-.72.951-1.725.951-2.911v-19.875c0-1.185-.229-2.189-.951-2.911-.721-.721-1.725-.95-2.912-.95H189.78zm0 1.901h19.756c.959 0 1.376.187 1.575.386.199.199.386.616.386 1.574v19.875c0 .96-.188 1.376-.386 1.574-.199.199-.615.387-1.575.387H189.78c-.959 0-1.405-.188-1.604-.387-.199-.198-.357-.615-.357-1.574v-19.875c0-.958.158-1.375.357-1.574.199-.199.645-.386 1.604-.386zM219.194 186.348c-1.186 0-2.19.229-2.911.95-.722.722-.951 1.726-.951 2.911v19.875c0 1.187.229 2.19.951 2.911.721.722 1.725.951 2.911.951h19.756c1.186 0 2.22-.229 2.941-.951.721-.72.921-1.725.921-2.911v-19.875c0-1.185-.2-2.189-.921-2.911-.721-.721-1.755-.95-2.941-.95h-19.756zm0 1.901h19.756c.958 0 1.375.187 1.574.386.199.199.386.616.386 1.574v19.875c0 .96-.187 1.376-.386 1.574-.199.199-.615.387-1.574.387h-19.756c-.959 0-1.375-.188-1.574-.387-.199-.198-.386-.615-.386-1.574v-19.875c0-.958.187-1.375.386-1.574.198-.199.615-.386 1.574-.386zM248.636 186.348c-1.186 0-2.22.229-2.941.95-.721.722-.921 1.726-.921 2.911v19.875c0 1.187.2 2.191.921 2.911.721.722 1.756.951 2.941.951h19.727c1.186 0 2.22-.229 2.941-.951.721-.72.921-1.725.921-2.911v-19.875c0-1.185-.2-2.189-.921-2.911-.722-.721-1.755-.95-2.941-.95h-19.727zm0 1.901h19.727c.959 0 1.405.187 1.604.386.199.199.356.616.356 1.574v19.875c0 .96-.158 1.376-.356 1.574-.199.199-.645.387-1.604.387h-19.727c-.958 0-1.405-.188-1.604-.387-.199-.198-.356-.615-.356-1.574v-19.875c0-.958.158-1.375.356-1.574.199-.199.645-.386 1.604-.386zM278.041 186.348c-1.186 0-2.19.229-2.912.95-.721.722-.951 1.726-.951 2.911v19.875c0 1.187.229 2.19.951 2.911.722.722 1.726.951 2.912.951h19.756c1.186 0 2.22-.229 2.94-.951.722-.72.922-1.725.922-2.911v-19.875c0-1.185-.2-2.189-.922-2.911-.721-.721-1.754-.95-2.94-.95h-19.756zm0 1.901h19.756c.959 0 1.376.187 1.574.386s.386.616.386 1.574v19.875c0 .96-.188 1.376-.386 1.574-.198.199-.615.387-1.574.387h-19.756c-.959 0-1.376-.188-1.575-.387-.199-.198-.386-.615-.386-1.574v-19.875c0-.958.188-1.375.386-1.574s.615-.386 1.575-.386zM307.482 186.348c-1.185 0-2.219.229-2.941.95-.72.722-.921 1.726-.921 2.911v19.875c0 1.187.201 2.19.921 2.911.723.722 1.755.951 2.941.951h19.727c1.187 0 2.221-.229 2.941-.951.721-.72.921-1.725.921-2.911v-19.875c0-1.185-.2-2.189-.921-2.911-.721-.721-1.755-.95-2.941-.95h-19.727zm0 1.901h19.727c.96 0 1.406.187 1.604.386.199.199.356.616.356 1.574v19.875c0 .96-.157 1.376-.356 1.574-.198.199-.645.387-1.604.387h-19.727c-.958 0-1.405-.188-1.604-.387-.198-.198-.356-.615-.356-1.574v-19.875c0-.958.158-1.375.356-1.574.199-.199.646-.386 1.604-.386zM336.896 186.348c-1.185 0-2.189.229-2.911.95-.721.722-.951 1.726-.951 2.911v19.875c0 1.187.2 2.19.921 2.911.723.722 1.755.951 2.941.951h19.757c1.186 0 2.221-.229 2.94-.951.721-.72.921-1.725.921-2.911v-19.875c0-1.185-.2-2.189-.921-2.911-.72-.721-1.755-.95-2.94-.95h-19.757zm0 1.901h19.757c.959 0 1.375.187 1.574.386.198.199.386.616.386 1.574v19.875c0 .96-.188 1.376-.386 1.574-.199.199-.616.387-1.574.387h-19.757c-.958 0-1.376-.188-1.575-.387-.198-.198-.386-.615-.386-1.574v-19.875c0-.958.188-1.375.386-1.574.2-.199.617-.386 1.575-.386zM366.34 186.348c-1.187 0-2.221.229-2.941.95-.722.722-.921 1.726-.921 2.911v19.875c0 1.187.199 2.19.921 2.911.721.722 1.755.951 2.941.951h19.727c1.185 0 2.219-.229 2.941-.951.721-.72.921-1.725.921-2.911v-19.875c0-1.185-.2-2.189-.921-2.911-.723-.721-1.755-.95-2.941-.95H366.34zm0 1.901h19.727c.958 0 1.405.187 1.604.386.198.199.356.616.356 1.574v19.875c0 .96-.158 1.376-.356 1.574-.199.199-.646.387-1.604.387H366.34c-.96 0-1.405-.188-1.604-.387-.198-.198-.356-.615-.356-1.574v-19.875c0-.958.158-1.375.356-1.574.199-.199.644-.386 1.604-.386z"/><path fill="#F4F4F4" d="M395.754 186.348c-1.187 0-2.221.229-2.941.95-.723.722-.921 1.726-.921 2.911v19.875c0 1.187.198 2.19.921 2.911.721.722 1.755.951 2.941.951h19.756c1.185 0 2.189-.229 2.91-.951.722-.72.95-1.725.95-2.911v-19.875c0-1.185-.229-2.189-.95-2.911-.721-.721-1.726-.95-2.91-.95h-19.756zm0 1.901h19.756c.958 0 1.376.187 1.573.386.198.199.386.616.386 1.574v19.875c0 .96-.188 1.376-.386 1.574-.199.199-.615.387-1.573.387h-19.756c-.96 0-1.376-.188-1.575-.387-.198-.198-.386-.615-.386-1.574v-19.875c0-.958.188-1.375.386-1.574.199-.199.615-.386 1.575-.386zM85.889 215.038c-1.186 0-2.22.23-2.941.95-.722.723-.921 1.727-.921 2.912v19.875c0 1.187.199 2.19.921 2.911.721.722 1.754.951 2.941.951h19.756c1.186 0 2.19-.229 2.911-.951.512-.512.728-1.193.832-1.961h.119V218.9c0-1.185-.229-2.189-.951-2.912-.721-.72-1.725-.95-2.911-.95H85.889zm0 1.901h19.756c.959 0 1.375.188 1.574.386.199.2.386.617.386 1.575v19.875c0 .96-.188 1.376-.386 1.574-.199.199-.615.387-1.574.387H85.889c-.959 0-1.375-.188-1.574-.387-.199-.198-.386-.615-.386-1.574V218.9c0-.959.188-1.375.386-1.575.199-.198.615-.386 1.574-.386zM18.658 215.038c-1.186 0-2.19.23-2.911.95-.722.723-.951 1.727-.951 2.912v19.875c0 1.187.229 2.19.951 2.911.721.722 1.726.951 2.911.951h58.913c1.186 0 2.22-.229 2.941-.951.721-.721.921-1.725.921-2.911V218.9c0-1.185-.2-2.189-.921-2.912-.722-.72-1.755-.95-2.941-.95H18.658zm0 1.901h58.913c.959 0 1.406.188 1.604.386.199.2.356.617.356 1.575v19.875c0 .96-.158 1.376-.356 1.574-.199.199-.645.387-1.604.387H18.658c-.958 0-1.375-.188-1.574-.387-.199-.198-.386-.615-.386-1.574V218.9c0-.959.187-1.375.386-1.575.199-.198.616-.389 1.575-.389l-.001.003zM115.304 215.038c-1.186 0-2.19.23-2.912.95-.722.723-.951 1.727-.951 2.912v19.875c0 1.187.229 2.19.951 2.911.721.722 1.726.951 2.912.951h19.756c1.186 0 2.22-.229 2.941-.951.722-.72.921-1.725.921-2.911V218.9c0-1.185-.2-2.189-.921-2.912-.721-.72-1.754-.95-2.941-.95h-19.756zm0 1.901h19.756c.959 0 1.376.188 1.575.386.199.2.386.617.386 1.575v19.875c0 .96-.158 1.376-.357 1.574-.199.199-.645.387-1.604.387h-19.756c-.959 0-1.375-.188-1.575-.387-.199-.198-.386-.615-.386-1.574V218.9c0-.959.188-1.375.386-1.575.2-.198.616-.386 1.575-.386zM144.747 215.038c-1.186 0-2.22.23-2.941.95-.721.723-.921 1.727-.921 2.912v19.875c0 1.187.2 2.19.921 2.911.722.722 1.755.951 2.941.951h19.756c1.186 0 2.19-.229 2.912-.951.721-.72.951-1.725.951-2.911V218.9c0-1.185-.23-2.189-.951-2.912-.721-.72-1.726-.95-2.912-.95h-19.756zm0 1.901h19.756c.959 0 1.375.188 1.575.386.199.2.386.617.386 1.575v19.875c0 .96-.188 1.376-.386 1.574-.199.199-.616.387-1.575.387h-19.756c-.959 0-1.406-.188-1.604-.387-.199-.198-.356-.615-.356-1.574V218.9c0-.959.158-1.375.356-1.575.198-.198.645-.386 1.604-.386zM174.151 215.038c-1.186 0-2.19.23-2.911.95-.722.723-.951 1.727-.951 2.912v19.875c0 1.187.229 2.19.951 2.911.721.722 1.725.951 2.911.951h19.756c1.186 0 2.22-.229 2.941-.951.721-.72.92-1.725.92-2.911V218.9c0-1.185-.199-2.189-.92-2.912-.721-.72-1.755-.95-2.941-.95h-19.756zm0 1.901h19.756c.959 0 1.375.188 1.574.386.199.2.386.617.386 1.575v19.875c0 .96-.187 1.376-.386 1.574-.199.199-.615.387-1.574.387h-19.756c-.959 0-1.375-.188-1.575-.387-.199-.198-.386-.615-.386-1.574V218.9c0-.959.187-1.375.386-1.575.199-.198.616-.386 1.575-.386zM203.593 215.038c-1.186 0-2.22.23-2.941.95-.721.723-.921 1.727-.921 2.912v19.875c0 1.187.2 2.19.921 2.911.721.722 1.755.951 2.941.951h19.727c1.186 0 2.22-.229 2.941-.951.721-.721.921-1.725.921-2.911V218.9c0-1.185-.2-2.189-.921-2.912-.722-.72-1.755-.95-2.941-.95h-19.727zm0 1.901h19.727c.959 0 1.405.188 1.604.386.199.2.356.617.356 1.575v19.875c0 .96-.158 1.376-.356 1.574-.199.199-.645.387-1.604.387h-19.727c-.959 0-1.405-.188-1.604-.387-.199-.198-.356-.615-.356-1.574V218.9c0-.959.158-1.375.356-1.575.199-.198.646-.386 1.604-.386zM233.007 215.038c-1.186 0-2.19.23-2.912.95-.721.723-.951 1.727-.951 2.912v19.875c0 1.187.229 2.19.951 2.911.722.722 1.726.951 2.912.951h19.755c1.187 0 2.22-.229 2.942-.951.721-.721.921-1.725.921-2.911V218.9c0-1.185-.2-2.189-.921-2.912-.722-.72-1.755-.95-2.941-.95h-19.756zm0 1.901h19.755c.959 0 1.376.188 1.575.386.199.2.386.617.386 1.575v19.875c0 .96-.188 1.376-.386 1.574-.199.199-.615.387-1.575.387h-19.755c-.959 0-1.376-.188-1.575-.387-.199-.198-.386-.615-.386-1.574V218.9c0-.959.187-1.375.386-1.575.199-.198.616-.386 1.575-.386zM262.449 215.038c-1.186 0-2.22.23-2.941.95-.722.723-.921 1.727-.921 2.912v19.875c0 1.187.2 2.19.921 2.911.721.722 1.755.951 2.941.951h19.727c1.186 0 2.22-.229 2.941-.951.722-.72.921-1.725.921-2.911V218.9c0-1.185-.2-2.189-.921-2.912-.721-.72-1.755-.95-2.941-.95h-19.727zm0 1.901h19.727c.959 0 1.405.188 1.604.386.199.2.356.617.356 1.575v19.875c0 .96-.158 1.376-.356 1.574-.199.199-.645.387-1.604.387h-19.727c-.959 0-1.405-.188-1.604-.387-.199-.198-.356-.615-.356-1.574V218.9c0-.959.158-1.375.356-1.575.199-.198.645-.386 1.604-.386zM291.854 215.038c-1.186 0-2.22.23-2.94.95-.722.723-.921 1.727-.921 2.912v19.875c0 1.187.2 2.19.921 2.911.721.722 1.755.951 2.94.951h19.757c1.185 0 2.189-.229 2.911-.951.721-.72.951-1.725.951-2.911V218.9c0-1.185-.201-2.189-.921-2.912-.723-.72-1.755-.95-2.941-.95h-19.757zm0 1.901h19.757c.958 0 1.376.188 1.574.386.199.2.387.617.387 1.575v19.875c0 .96-.188 1.376-.387 1.574-.198.199-.616.387-1.574.387h-19.757c-.958 0-1.375-.188-1.574-.387-.199-.198-.387-.615-.387-1.574V218.9c0-.959.188-1.375.387-1.575.199-.198.615-.386 1.574-.386zM321.296 215.038c-1.186 0-2.22.23-2.941.95-.721.723-.921 1.727-.921 2.912v19.875c0 1.187.2 2.19.921 2.911.722.722 1.756.951 2.941.951h19.727c1.187 0 2.221-.229 2.941-.951.722-.72.921-1.725.921-2.911V218.9c0-1.185-.199-2.189-.921-2.912-.721-.72-1.755-.95-2.941-.95h-19.727zm0 1.901h19.727c.96 0 1.405.188 1.604.386.199.2.357.617.357 1.575v19.875c0 .96-.158 1.376-.357 1.574-.198.199-.644.387-1.604.387h-19.727c-.959 0-1.404-.188-1.604-.387-.199-.198-.356-.615-.356-1.574V218.9c0-.959.157-1.375.356-1.575.2-.198.645-.386 1.604-.386zM350.711 215.038c-1.187 0-2.221.23-2.941.95-.722.723-.921 1.727-.921 2.912v19.875c0 1.187.199 2.19.921 2.911.721.722 1.755.951 2.941.951h19.755c1.187 0 2.191-.229 2.911-.951.723-.72.951-1.725.951-2.911V218.9c0-1.185-.229-2.189-.951-2.912-.72-.72-1.725-.95-2.911-.95h-19.755zm0 1.901h19.755c.96 0 1.376.188 1.574.386.199.2.387.617.387 1.575v19.875c0 .96-.188 1.376-.387 1.574-.198.199-.614.387-1.574.387h-19.755c-.96 0-1.376-.188-1.574-.387-.201-.198-.387-.615-.387-1.574V218.9c0-.959.186-1.375.387-1.575.198-.198.614-.386 1.574-.386zM380.125 215.038c-1.187 0-2.191.23-2.912.95-.722.723-.95 1.727-.95 2.912v19.875c0 1.187.229 2.19.95 2.911.721.722 1.726.951 2.912.951h19.755c1.186 0 2.221-.229 2.94-.951.723-.72.921-1.725.921-2.911V218.9c0-1.185-.198-2.189-.921-2.912-.72-.72-1.755-.95-2.94-.95h-19.755zm0 1.901h19.755c.959 0 1.405.188 1.604.386.199.2.356.617.356 1.575v19.875c0 .96-.157 1.376-.356 1.574-.198.199-.645.387-1.604.387h-19.755c-.96 0-1.376-.188-1.575-.387-.198-.198-.386-.615-.386-1.574V218.9c0-.959.188-1.375.386-1.575.199-.198.615-.386 1.575-.386zM409.442 215.038c-1.186 0-2.22.23-2.941.95-.721.723-.951 1.726-.951 2.912v19.875c0 1.187.23 2.19.951 2.911.722.722 1.756.951 2.941.951h59.536c1.187 0 2.221-.229 2.941-.951.723-.72.921-1.725.921-2.911V218.9c0-1.185-.2-2.189-.921-2.912-.721-.72-1.755-.95-2.941-.95h-59.536zm0 1.901h59.536c.96 0 1.406.188 1.604.386.199.2.356.617.356 1.575v19.875c0 .96-.157 1.376-.356 1.574-.198.199-.645.387-1.604.387h-59.536c-.959 0-1.404-.188-1.604-.387-.199-.198-.387-.615-.387-1.574V218.9c0-.958.188-1.375.387-1.575.2-.198.645-.386 1.604-.386zM380.125 243.321c-1.187 0-2.191.2-2.912.921-.722.721-.95 1.754-.95 2.94v19.846c0 1.186.229 2.22.95 2.941.721.722 1.726.921 2.912.921h19.755c1.186 0 2.221-.199 2.94-.921.723-.722.921-1.755.921-2.941v-19.846c0-1.186-.198-2.219-.921-2.94-.72-.721-1.755-.921-2.94-.921h-19.755zm0 1.902h19.755c.959 0 1.405.188 1.604.386.199.198.356.616.356 1.574v19.846c0 .96-.157 1.406-.356 1.604-.198.199-.645.356-1.604.356h-19.755c-.96 0-1.376-.157-1.575-.356-.198-.198-.386-.646-.386-1.604v-19.846c0-.959.188-1.376.386-1.574.199-.199.615-.386 1.575-.386zM113.099 243.321c-1.186 0-2.22.2-2.941.921-.721.721-.921 1.754-.921 2.94v19.846c0 1.187.2 2.22.921 2.941s1.755.921 2.941.921h258.288c1.187 0 2.221-.199 2.941-.921.722-.722.921-1.755.921-2.941v-19.846c0-1.186-.199-2.219-.921-2.94-.721-.721-1.755-.921-2.941-.921H113.099zm0 1.902h258.288c.96 0 1.405.188 1.604.386.198.198.356.616.356 1.574v19.846c0 .96-.158 1.406-.356 1.604-.199.199-.645.356-1.604.356H113.099c-.959 0-1.375-.157-1.575-.356-.199-.198-.386-.646-.386-1.604v-19.846c0-.959.188-1.376.386-1.574.199-.199.616-.386 1.575-.386zM19.936 128.084c-1.186 0-2.22.229-2.941.951-.721.721-.921 1.726-.921 2.911v19.875c0 1.186.2 2.191.921 2.912.721.721 1.755.951 2.941.951h19.756c1.187 0 2.22-.229 2.941-.951.722-.722.921-1.725.921-2.912v-19.875c0-1.186-.2-2.19-.921-2.911-.721-.722-1.754-.951-2.941-.951H19.936zm0 1.901h19.756c.959 0 1.376.188 1.575.386.199.199.386.616.386 1.575v19.875c0 .959-.188 1.376-.386 1.575-.199.2-.615.387-1.574.387H19.937c-.959 0-1.376-.188-1.575-.386-.199-.2-.386-.616-.386-1.576v-19.875c0-.958.188-1.375.386-1.574.199-.199.616-.386 1.574-.387zM508.256 185.663c-1.185 0-2.221.199-2.941.921-.72.721-.921 1.755-.921 2.941v19.846c0 1.185.201 2.219.921 2.941.721.72 1.755.921 2.941.921h19.757c1.185 0 2.188-.201 2.911-.921.721-.723.95-1.756.95-2.941v-19.846c0-1.186-.229-2.221-.95-2.941-.723-.722-1.725-.921-2.911-.921h-19.757zm0 1.901h19.757c.958 0 1.376.157 1.574.356.199.199.387.646.387 1.604v19.845c0 .959-.188 1.405-.387 1.604-.198.199-.616.356-1.574.356h-19.757c-.958 0-1.376-.157-1.574-.356-.199-.199-.387-.646-.387-1.604v-19.845c0-.96.188-1.405.387-1.604.198-.198.616-.356 1.574-.356zM508.256 214.952c-1.185 0-2.221.201-2.941.921-.72.723-.921 1.755-.921 2.941v19.846c0 1.187.201 2.221.921 2.941.721.722 1.755.921 2.941.921h19.757c1.185 0 2.188-.199 2.911-.921.721-.721.95-1.755.95-2.941v-19.846c0-1.185-.229-2.219-.95-2.941-.723-.72-1.725-.921-2.911-.921h-19.757zm0 1.902h19.757c.958 0 1.376.158 1.574.356.199.199.387.646.387 1.604v19.846c0 .96-.188 1.405-.387 1.604-.198.198-.616.356-1.574.356h-19.757c-.958 0-1.376-.158-1.574-.356-.199-.199-.387-.646-.387-1.604v-19.846c0-.959.188-1.405.387-1.604.198-.198.616-.356 1.574-.356zM508.256 244.244c-1.185 0-2.221.198-2.941.921-.72.72-.921 1.754-.921 2.94v19.846c0 1.185.201 2.219.921 2.941.721.721 1.755.921 2.941.921h19.757c1.185 0 2.188-.2 2.911-.921.721-.723.95-1.756.95-2.941v-19.846c0-1.187-.229-2.221-.95-2.94-.723-.723-1.725-.921-2.911-.921h-19.757zm0 1.902h19.757c.958 0 1.376.157 1.574.356.199.198.387.644.387 1.604v19.846c0 .958-.188 1.405-.387 1.604-.198.2-.616.356-1.574.356h-19.757c-.958 0-1.376-.156-1.574-.356-.199-.198-.387-.646-.387-1.604v-19.846c0-.96.188-1.405.387-1.604.198-.199.616-.356 1.574-.356zM537.642 156.366c-1.187 0-2.221.201-2.941.921-.722.722-.921 1.756-.921 2.941v19.846c0 1.186.199 2.221.921 2.941.721.721 1.755.921 2.941.921h19.727c1.186 0 2.219-.201 2.941-.921.721-.721.921-1.755.921-2.941v-19.846c0-1.185-.2-2.219-.921-2.941-.723-.72-1.755-.921-2.941-.921h-19.727zm0 1.902h19.727c.959 0 1.406.158 1.604.356.199.199.356.646.356 1.604v19.846c0 .959-.157 1.405-.356 1.604-.2.198-.646.356-1.604.356h-19.727c-.96 0-1.405-.158-1.604-.356-.198-.199-.356-.646-.356-1.604v-19.846c0-.958.158-1.406.356-1.604.198-.198.646-.356 1.604-.356zM537.728 185.663c-1.187 0-2.221.199-2.941.921-.723.721-.921 1.755-.921 2.941v19.846c0 1.185.198 2.219.921 2.941.721.72 1.755.921 2.941.921h19.727c1.185 0 2.219-.201 2.941-.921.72-.723.921-1.756.921-2.941v-19.846c0-1.186-.201-2.221-.921-2.941-.723-.722-1.755-.921-2.941-.921h-19.727zm0 1.901h19.727c.958 0 1.405.157 1.604.356.198.199.356.646.356 1.604v19.845c0 .959-.158 1.405-.356 1.604-.199.199-.646.356-1.604.356h-19.727c-.96 0-1.406-.157-1.604-.356-.199-.199-.356-.646-.356-1.604v-19.845c0-.96.157-1.405.356-1.604.197-.198.644-.356 1.604-.356zM537.728 214.952c-1.187 0-2.221.201-2.941.921-.723.723-.921 1.755-.921 2.941v19.846c0 1.187.198 2.221.921 2.941.721.722 1.755.921 2.941.921h19.727c1.185 0 2.219-.199 2.941-.921.72-.721.921-1.755.921-2.941v-19.846c0-1.185-.201-2.219-.921-2.941-.723-.72-1.755-.921-2.941-.921h-19.727zm0 1.902h19.727c.958 0 1.405.158 1.604.356.198.199.356.646.356 1.604v19.846c0 .96-.158 1.405-.356 1.604-.199.198-.646.356-1.604.356h-19.727c-.96 0-1.406-.158-1.604-.356-.199-.199-.356-.646-.356-1.604v-19.846c0-.959.157-1.405.356-1.604.197-.198.644-.356 1.604-.356zM537.728 244.244c-1.187 0-2.221.198-2.941.921-.723.72-.921 1.754-.921 2.94v19.846c0 1.185.198 2.219.921 2.941.721.721 1.755.921 2.941.921h19.727c1.185 0 2.219-.2 2.941-.921.72-.723.921-1.756.921-2.941v-19.846c0-1.187-.201-2.221-.921-2.94-.723-.723-1.755-.921-2.941-.921h-19.727zm0 1.902h19.727c.958 0 1.405.157 1.604.356.198.198.356.644.356 1.604v19.846c0 .958-.158 1.405-.356 1.604-.199.2-.646.356-1.604.356h-19.727c-.96 0-1.406-.156-1.604-.356-.199-.198-.356-.646-.356-1.604v-19.846c0-.96.157-1.405.356-1.604.197-.199.644-.356 1.604-.356zM567.017 156.366c-1.185 0-2.219.201-2.941.921-.721.722-.95 1.756-.95 2.941v19.846c0 1.186.229 2.221.95 2.941.723.721 1.755.921 2.941.921h19.727c1.187 0 2.221-.201 2.941-.921.723-.721.921-1.755.921-2.941v-19.846c0-1.185-.198-2.219-.921-2.941-.721-.72-1.755-.921-2.941-.921h-19.727zm0 1.902h19.727c.96 0 1.406.158 1.604.356.198.199.356.646.356 1.604v19.846c0 .959-.158 1.405-.356 1.604-.198.198-.645.356-1.604.356h-19.727c-.96 0-1.405-.158-1.604-.356-.198-.199-.386-.646-.386-1.604v-19.846c0-.958.188-1.406.386-1.604.198-.198.646-.356 1.604-.356zM567.017 185.663c-1.187 0-2.219.199-2.941.921-.721.721-.95 1.755-.95 2.941v19.846c0 1.185.229 2.219.95 2.941.723.72 1.755.921 2.941.921h19.727c1.187 0 2.221-.201 2.941-.921.723-.723.921-1.756.921-2.941v-19.846c0-1.186-.198-2.221-.921-2.941-.721-.722-1.755-.921-2.941-.921h-19.727zm0 1.901h19.727c.96 0 1.406.157 1.604.356s.356.646.356 1.604v19.845c0 .959-.158 1.405-.356 1.604s-.645.356-1.604.356h-19.727c-.96 0-1.405-.157-1.604-.356-.198-.199-.386-.646-.386-1.604v-19.845c0-.96.188-1.405.386-1.604.199-.198.646-.356 1.604-.356zM567.017 214.952c-1.185 0-2.219.201-2.941.921-.721.723-.95 1.755-.95 2.941v19.846c0 1.187.229 2.221.95 2.941.723.722 1.755.921 2.941.921h19.727c1.187 0 2.221-.199 2.941-.921.723-.721.921-1.755.921-2.941v-19.846c0-1.185-.198-2.219-.921-2.941-.721-.72-1.755-.921-2.941-.921h-19.727zm0 1.902h19.727c.96 0 1.406.158 1.604.356.198.199.356.646.356 1.604v19.846c0 .96-.158 1.405-.356 1.604-.198.198-.645.356-1.604.356h-19.727c-.96 0-1.405-.158-1.604-.356-.198-.199-.386-.646-.386-1.604v-19.846c0-.959.188-1.405.386-1.604.198-.198.646-.356 1.604-.356zM567.017 244.244c-1.185 0-2.219.198-2.941.921-.721.72-.95 1.754-.95 2.94v19.846c0 1.185.229 2.219.95 2.941.723.721 1.755.921 2.941.921h19.727c1.187 0 2.221-.2 2.941-.921.723-.723.921-1.756.921-2.941v-19.846c0-1.187-.198-2.221-.921-2.94-.721-.723-1.755-.921-2.941-.921h-19.727zm0 1.902h19.727c.96 0 1.406.157 1.604.356.198.198.356.644.356 1.604v19.846c0 .958-.158 1.405-.356 1.604-.198.2-.645.356-1.604.356h-19.727c-.96 0-1.405-.156-1.604-.356-.198-.198-.386-.646-.386-1.604v-19.846c0-.96.188-1.405.386-1.604.198-.199.646-.356 1.604-.356zM566.428 91.246c-1.187 0-2.221.2-2.941.921-.722.721-.921 1.755-.921 2.941v19.845c0 1.186.199 2.22.921 2.941.721.722 1.755.921 2.941.921h19.727c1.185 0 2.22-.199 2.941-.921.721-.721.921-1.754.921-2.941V95.108c0-1.186-.2-2.22-.921-2.941-.722-.721-1.755-.921-2.941-.921h-19.727zm0 1.901h19.727c.958 0 1.406.187 1.604.386.199.199.356.616.356 1.575v19.845c0 .959-.157 1.405-.356 1.604-.198.199-.646.356-1.604.356h-19.727c-.96 0-1.405-.158-1.604-.356-.198-.199-.356-.645-.356-1.604V95.108c0-.959.158-1.376.356-1.575.198-.199.644-.386 1.604-.386z"/><path fill="#F4F4F4" d="M16.609 124.846c-1.187 0-2.22.229-2.941.951-.722.721-.921 1.726-.921 2.911v112.446c0 1.187.2 2.19.921 2.911.721.722 1.755.951 2.941.951h89.958c.469 0 .653.083.624.059-.03-.023.059.008.059.595v24.807c0 1.187.2 2.22.921 2.941.722.721 1.755.921 2.941.921h292.921c1.187 0 2.221-.199 2.941-.921.722-.722.921-1.756.921-2.941v-24.538c0-.487.1-.648.208-.743.107-.096.338-.179.802-.179h63.429c1.187 0 2.191-.229 2.911-.95.721-.722.951-1.726.951-2.911V128.709c0-1.186-.23-2.19-.951-2.911-.72-.722-1.725-.951-2.911-.951H16.6l.009-.001zm0 1.902h455.734c.959 0 1.377.187 1.575.386s.386.616.386 1.574v112.446c0 .959-.188 1.376-.386 1.574s-.614.386-1.575.386h-63.428c-.747 0-1.473.146-2.051.654-.575.509-.861 1.32-.861 2.169v24.538c0 .959-.188 1.406-.386 1.604-.199.199-.615.356-1.575.356H111.121c-.959 0-1.405-.158-1.604-.356-.198-.198-.356-.646-.356-1.604v-24.807c0-.842-.192-1.604-.772-2.08-.58-.476-1.229-.475-1.812-.475H16.618c-.959 0-1.406-.188-1.604-.387-.198-.198-.356-.615-.356-1.573V128.707c0-.959.158-1.375.356-1.574.199-.199.645-.386 1.604-.386l-.009.001z"/></svg>