<svg xmlns="http://www.w3.org/2000/svg" viewBox="0 0 566.9 92.2" xml:space="preserve"><path fill="#c3c6c5" d="M18.4 92.1 19.8 74h7.5l1.5 18.1h18.5L35.7.4H11.8L0 92.1h18.4m7.8-33.2h-5.3l2.7-35.6 2.6 35.6M77.6.4H51.7v91.7h17.7V39.9l7.3 52.2h11.5l7-51.9v51.9h17.7V.4H87l-4.8 40.5L77.6.4M116 11.6c0 6.3-.1 12.6 0 19 0 1 .1 2.1.2 2.8.1 1.6.3 2 .5 3.1.3 1 .7 2.3 1.4 3.4.3.5.7 1 1.3 1.6s1.3 1.3 2.1 2c1.6 1.4 3.4 2.5 5.1 3.4 3.9 2.1 7.7 4.2 11.6 6.4.5.3 1.1.6 1.6 1.1 1.3 1.3 1.3 2.8 1.3 4.2l.1 2V73c0 .9-.1 1.8-.5 2.8-.1.3-.4.5-.6.8-.8.7-1.8.8-2.7.4-.3-.1-.6-.3-.8-.5-1-.9-.9-2.3-1-3.4V54.4H116v20.9c0 2.6 0 5 .6 7.5.3 1.3.8 2.6 1.5 3.9s1.7 2.3 2.8 3.1c1.1.8 2.4 1.4 3.5 1.8 1 .4 1.8.5 2.5.6s1.5.2 2.3.2H149c.9 0 1.8 0 2.9-.3 1.1-.3 2.4-.8 3.6-1.6 1.1-.7 2.1-1.6 2.8-2.6s1-2 1.3-2.9.6-1.8.8-2.9c.2-1.1.3-2.5.4-3.9.1-1.4 0-2.8 0-4.2V58c0-.6 0-1.6-.1-2.7 0-1.1-.1-2.3-.2-3.1-.1-.8-.1-1.2-.2-1.5-.1-.4-.2-.7-.3-1.1-.1-.4-.2-.7-.5-1.3-.3-.6-.7-1.5-1.3-2.3-.5-.8-1.2-1.5-1.9-2.2-.7-.7-1.5-1.2-2.4-1.8-1.8-1.2-3.8-2.5-5.8-3.6l-8.3-4.5-1.5-.9c-.5-.3-.9-.6-1.2-.9-.5-.4-.5-.4-.7-.7-.1-.1-.2-.2-.3-.4-.3-.5-.7-1.4-.8-2.1V19c0-.6 0-1.4.2-2.1.1-.3.3-.7.4-.9.9-1.3 2.1-1.4 3.3-.9.3.1.5.4.8.6.2.2.4.5.5.8.1.3.2.6.3 1.1.1.9.1 2.2.1 3.3v10.9h19.6c0-5.6.1-11.3-.1-16.9-.1-1.3-.1-2.6-.2-3.5-.1-.9-.1-1.3-.2-1.7l-.3-1.2c-.1-.4-.2-.8-.6-1.5-.3-.7-.8-1.7-1.4-2.5s-1.4-1.6-2.3-2.2c-.9-.6-1.9-1.1-2.7-1.4-1.7-.6-2.9-.7-4.4-.8-.7-.1-1.4-.1-2.1-.1l-17 .1c-1.9.1-3.9.3-5.9.9-.6.2-1.2.4-1.8.7-1.1.6-2 1.3-3 2.4-.5.6-1 1.4-1.4 2.2-.5 1.7-1 3.5-1.1 5.3M164 .4v14.8h9.8v76.9h19.6V15.2h9.7V.4H164m65.2 0h-20.9v91.7h19.6V55.6c1.3 0 2.6-.1 3.9.3.3.1.5.2.8.4.9.8.8 1.8 1 2.7.2 1.9 0 3.8.1 5.7v27.5h19.6V63.5c0-2.8-.2-5.6-.8-8.5-.2-.6-.4-1.3-.7-1.9-.4-1-1-1.9-1.7-2.8s-1.6-1.5-2.5-2.1-1.9-1-3-1.3c.5-.1 1-.3 1.5-.5 1-.4 2-.9 2.8-1.6.8-.7 1.6-1.5 2.1-2.4.6-.9 1-1.9 1.2-3 .2-.8.4-1.5.5-2.3.5-3.1.6-6.2.6-9.3v-9.6c.1-1.9 0-3.8-.3-5.7-.1-.9-.3-1.9-.4-2.7-.2-.8-.3-1.4-.6-2-.2-.6-.5-1.2-.8-1.7-.3-.6-.7-1.1-1.1-1.6-.7-.7-1.4-1.3-2.2-1.8-1.7-1.1-3.5-1.7-5.4-1.8-4.6-.5-9-.3-13.3-.5m-1.3 15h2.8c.4 0 .9.2 1.3.4 1.3.8 1.3 1.9 1.5 2.9.1 1.2.1 2.3.1 3.5 0 4 .1 8 0 12 0 .7-.1 1.4-.2 2.1 0 .3-.1.7-.3 1-.2.3-.4.6-.6.8-.6.5-1.4.6-2.1.6-.8.1-1.6.1-2.4 0V15.4m47.6 76.7L277 74h7.5l1.5 18.1h18.5L292.9.4H269l-11.8 91.7h18.4m7.8-33.2H278l2.7-35.6 2.7 35.6m67.7-52.8c-.7-1.1-1.5-2-2.5-2.8-1-.8-2.2-1.3-3-1.7s-1.4-.5-2-.5c-.6-.1-1.1-.2-1.7-.3-.6-.1-1.1-.1-2.5-.2-1.3-.1-3.5-.2-5.6-.2h-25.4v91.7l31.1-.1c.8 0 1.5-.2 2.3-.4 1.6-.3 3-.6 4.5-1.3.8-.4 1.6-.8 2.4-1.4.8-.6 1.5-1.3 2.1-2.4.7-1.1 1.3-2.5 1.7-4.3.5-1.8.8-3.9.8-6l-.1-62.6c0-1.4-.4-2.8-.7-4.1-.3-1.1-.7-2.3-1.4-3.4m-21.8 9.3h1.2c.4.1.8.1 1.1.2s.6.2.8.4c.2.1.4.3.6.6.7 1 .6 2.5.7 3.7v52.8c0 .4 0 .8-.1 1.2-.1.4-.1.7-.3 1.1s-.3.6-.5.8c-.2.2-.4.4-.7.6s-.6.3-.9.3H328V15.4h1.3"/><g fill="#c3c6c5"><path d="M429.7 82.7h-21.4c-2.6-.1-4.5-.2-5.9-.3-1.1-.1-1.9-.5-2.6-1.2-.6-.6-.9-1.5-1-2.8-.1-1.5-.2-3.8-.3-6.8V20.1c0-2.5.1-4.5.2-5.9.1-1.3.6-2.2 1.4-2.9.7-.7 1.5-1.1 2.4-1.2 1.1-.1 3.1-.2 5.9-.2h21.3v14.9h10V.4h-33.8c-2.5 0-5 .2-7.4.5-2.6.3-5 1.4-7 3.3-2.1 2.1-3.3 4.7-3.6 7.6-.3 2.7-.4 6-.4 9.9v51.5c0 3.4.2 6.3.5 8.6.3 2.5 1.4 4.7 3.3 6.5 1.8 1.8 4.1 3 6.7 3.3 2.4.3 5.6.5 9.4.5H440V67.8h-10.1l-.2 14.9zM506.2 16.3c0-1.8-.1-3.5-.2-5.2-.1-1.7-.5-3.3-1.2-4.6-.7-1.4-1.7-2.6-3-3.5-1.3-1-3.1-1.7-5.4-2.2-.6-.1-1.2-.2-1.7-.2s-1.2-.1-2-.1-1.9-.1-3.2-.1h-41.3v9.5h8.6v72.8h-8.6v9.5h28.5v-9.5h-8.8V50.5h20.7c1.8 0 3.6 0 5.2-.1 1.8-.1 3.4-.4 4.9-.8 1.5-.5 2.9-1.3 4.1-2.4 1.2-1.1 2.1-2.7 2.7-4.6.4-1.2.6-2.5.7-3.9.1-1.4.1-3.2 0-5.4v-17zm-10.7 3.6v11.5c0 2.2-.1 4-.2 5.3-.1 1.2-.4 2.2-.9 2.8-.5.6-1.3 1.1-2.5 1.3-1.3.3-3.3.4-5.8.4H468V9.9h17.6c2.5 0 4.4.1 5.8.3 1.2.1 2.1.5 2.7 1 .5.5.9 1.4 1.1 2.7.1 1.4.3 3.4.3 6zM556.8 67.8v14.9h-21.4c-2.6-.1-4.5-.2-5.9-.3-1.1-.1-1.9-.5-2.6-1.2-.6-.6-.9-1.5-1-2.8-.1-1.5-.2-3.8-.3-6.8V20.1c0-2.5.1-4.5.2-5.9.1-1.3.6-2.2 1.4-2.9.7-.7 1.5-1.1 2.4-1.2 1.1-.1 3.1-.2 5.9-.2h21.3v14.9h10V.4H533c-2.5 0-5 .2-7.4.5-2.6.3-5 1.4-7 3.3-2.1 2.1-3.3 4.7-3.6 7.6-.3 2.7-.5 6-.5 9.9v51.5c0 3.4.2 6.3.5 8.6.3 2.5 1.4 4.7 3.3 6.5 1.8 1.8 4.1 3 6.7 3.3 2.4.3 5.6.5 9.4.5H567V67.8h-10.2z"/></g></svg>