<svg xmlns="http://www.w3.org/2000/svg" viewBox="0 0 566.9 88" xml:space="preserve"><path fill="#c3c6c5" d="M.6 52.3v-7.7h60.6v-8.8H.6L.2 12H69v7.7H8.4l.4 8.4h60.6v24.3L.6 52.3zM74.4 52.3V12.1h8.2v40.2h-8.2zM87 52.3V12.1h68.8v40.2h-8.2V19.8H95.3v32.5H87zM160.2 52.3V12.1h68.9v7.7h-60.6v24.8h60.6v7.7h-68.9zM234.6 52.3V0h8.2v52.3h-8.2zM321 52.3V12.1h8.3v40.2H321zM334.3 52.3V12.1h68.8v7.7h-60.6v32.5h-8.2zM247.2 12.1v7.7h60.6v8.8h-60.6v23.7h68.9V12.1h-68.9zm60.6 32.5h-52.3v-8.8h52.3v8.8zM74.4 7.7V0h8.2v7.7h-8.2zM321 7.7V0h8.3v7.7H321z"/><g fill="#c3c6c5"><path d="m0 80.2 9.7-11.6H.8v-3.3H15v3.1L5.3 80h9.9v3.3H0v-3.1zM22 73.9l-5.8-8.6h4.6l3.5 5.8 3.7-5.8h4.4l-5.8 8.6 6.3 9.4h-4.7l-3.9-6.2-4 6.2h-4.5l6.2-9.4zM44.2 77.4c0 2.4 1.9 3.3 4 3.3 1.4 0 3.5-.4 3.5-2.3s-2.7-2.3-5.4-3c-2.7-.7-5.4-1.7-5.4-5.1 0-3.7 3.5-5.5 6.8-5.5 3.8 0 7.2 1.6 7.2 5.8h-3.8c-.1-2.1-1.7-2.6-3.6-2.6-1.3 0-2.7.5-2.7 2 0 1.4.9 1.6 5.4 2.7 1.3.3 5.4 1.2 5.4 5.3 0 3.3-2.6 5.8-7.5 5.8-4 0-7.7-2-7.7-6.4h3.8zM57.5 70.3h3.4V72h.1c.9-1.4 2.3-2 3.9-2 4.1 0 5.9 3.3 5.9 7 0 3.5-1.9 6.8-5.7 6.8-1.6 0-3.1-.7-3.9-2h-.1V88h-3.6V70.3zm9.7 6.6c0-2.1-.8-4.2-3.1-4.2-2.4 0-3.1 2.1-3.1 4.2s.8 4.1 3.1 4.1c2.4 0 3.1-2 3.1-4.1zM75.9 77.7C76 80 77.1 81 79.1 81c1.4 0 2.6-.9 2.8-1.7h3.2c-1 3.1-3.2 4.4-6.1 4.4-4.1 0-6.7-2.8-6.7-6.9 0-3.9 2.7-6.9 6.7-6.9 4.5 0 6.6 3.7 6.3 7.8h-9.4zm5.9-2.3c-.3-1.8-1.1-2.8-2.9-2.8-2.3 0-2.9 1.8-3 2.8h5.9zM96.4 74.9c-.2-1.5-1.2-2.3-2.7-2.3-2.3 0-3.1 2.3-3.1 4.2 0 1.9.7 4.1 3 4.1 1.7 0 2.6-1.1 2.9-2.7h3.5c-.5 3.5-2.9 5.4-6.3 5.4-3.9 0-6.6-2.8-6.6-6.7 0-4.1 2.4-7.1 6.7-7.1 3.1 0 5.9 1.6 6.1 5l-3.5.1zM106.6 70.3h2.6v2.4h-2.6v6.5c0 1.2.3 1.5 1.5 1.5.4 0 .7 0 1.1-.1v2.8c-.6.1-1.4.1-2.1.1-2.2 0-4.1-.5-4.1-3.1v-7.7h-2.2v-2.4h2.2v-3.9h3.6v3.9zM110.9 70.3h3.4v2.4h.1c.7-1.6 2.4-2.8 4.2-2.8.3 0 .6.1.8.1v3.3c-.3-.1-.9-.1-1.3-.1-2.6 0-3.5 1.9-3.5 4.2v5.9H111l-.1-13zM133 83.4h-3.4v-1.8h-.1c-.9 1.5-2.5 2.2-4 2.2-3.8 0-4.8-2.1-4.8-5.4v-8h3.6v7.4c0 2.1.6 3.2 2.3 3.2 1.9 0 2.8-1.1 2.8-3.7v-6.9h3.6v13zM135.9 70.3h3.4v1.8h.1c.9-1.3 2.3-2.1 4-2.1 1.6 0 3.1.6 3.8 2.2.8-1.1 2.1-2.2 3.9-2.2 2.8 0 4.8 1.3 4.8 4.7v8.8h-3.6v-7.4c0-1.7-.1-3.2-2.2-3.2-2 0-2.4 1.7-2.4 3.3v7.3H144V76c0-1.5.1-3.3-2.2-3.3-.7 0-2.4.5-2.4 3v7.6h-3.6l.1-13z"/></g><path fill="#CA2825" d="m430 2.2-60.1 60.1h34.2l60.1-60.1z"/><path fill="#FDC601" d="m464.2 2.2-60.1 60.1h34.2l60.2-60.1z"/><path fill="#009C37" d="m498.5 2.2-60.1 60.1h34.2l60.1-60.1z"/><path fill="#02559C" d="m532.7 2.2-60.1 60.1h34.2l60.1-60.1z"/></svg>