<svg xmlns="http://www.w3.org/2000/svg" viewBox="0 0 1924.699 277.256"><g class="layer"><g fill="red" stroke="#000"><path d="M419.66 202.35c0 12.68-3.85 22.92-11.55 30.73-7.69 7.8-18.09 11.7-31.2 11.7H225.26v-42.43h151.65v-42.44H263.95c-12.48 0-22.62-3.95-30.42-11.85-7.8-7.91-11.71-18.1-11.71-30.58V74.72c0-6.03 1.15-11.65 3.44-16.85 2.28-5.2 5.35-9.67 9.2-13.41 3.85-3.75 8.32-6.72 13.41-8.9 5.1-2.18 10.46-3.27 16.08-3.28H405.3v42.44H263.95v42.76h112.96c6.03 0 11.65 1.08 16.85 3.27 5.2 2.18 9.72 5.15 13.58 8.89 3.85 3.75 6.86 8.21 9.04 13.41 2.18 5.21 3.28 10.82 3.28 16.85v42.44zm246.52 42.43H496.13c-28.29 0-42.44-14.15-42.44-42.43V74.72c0-6.03 1.14-11.65 3.43-16.85 2.29-5.2 5.36-9.67 9.21-13.41 3.85-3.75 8.32-6.72 13.42-8.9 5.09-2.18 10.55-3.27 16.38-3.27h162.88v42.43H496.13v127.63h127.31v-42.44h-84.56v-42.43h127.3v127.3zm159.65-84.87H698.52v-42.43h127.31v42.43zm147.8 84.87H846.31v-42.43h42.74V74.72h-42.74V32.29h85.19v170.06h42.13v42.43zM1044.22 32.28c-5.62 0-10.96 1.08-16.06 3.27-5.1 2.18-9.56 5.15-13.41 8.89-3.85 3.75-6.92 8.21-9.2 13.41-2.29 5.2-3.44 10.82-3.44 16.85v127.63c0 28.29 14.03 42.43 42.11 42.43h127.32c28.28 0 42.42-14.14 42.42-42.43V74.7c0-5.82-1.08-11.31-3.27-16.51-2.18-5.2-5.19-9.73-9.04-13.58-3.85-3.85-8.38-6.88-13.58-9.06-5.21-2.18-10.72-3.27-16.54-3.27h-127.32zm0 42.43h127.32v127.63h-127.32V74.71zM1288 32.28c-5.61 0-10.95 1.08-16.05 3.27-5.1 2.18-9.57 5.15-13.41 8.89-3.85 3.75-6.92 8.21-9.21 13.41-2.28 5.2-3.44 10.82-3.44 16.85v127.63c0 28.29 14.04 42.43 42.11 42.43h127.32c28.29 0 42.43-14.14 42.43-42.43V74.7c0-5.82-1.08-11.31-3.27-16.51-2.18-5.2-5.22-9.73-9.06-13.58-3.85-3.85-8.38-6.88-13.58-9.06-5.2-2.18-10.69-3.27-16.51-3.27h-127.32zm0 42.43h127.33v127.63H1288V74.71zm243.79-42.43c-5.62 0-10.98 1.08-16.08 3.27-5.1 2.18-9.57 5.15-13.41 8.89-3.85 3.75-6.92 8.21-9.21 13.41-2.29 5.2-3.44 10.82-3.44 16.85v127.63c0 28.29 14.06 42.43 42.14 42.43h127.3c28.29 0 42.43-14.14 42.43-42.43V74.7c0-5.82-1.08-11.31-3.27-16.51-2.18-5.2-5.19-9.73-9.04-13.58-3.85-3.85-8.38-6.88-13.58-9.06-5.2-2.18-10.71-3.27-16.54-3.27h-127.3zm0 42.43h127.3v127.63h-127.3V74.71z"/></g></g></svg>