<svg xmlns="http://www.w3.org/2000/svg" viewBox="0 0 567.4 113" xml:space="preserve"><path fill="#c3c6c5" d="M165.9 28.9v57.6h10V35.1h6.2c4.5 0 6.5.1 7.2.4 1.5.6 3 2.5 3.7 4.5.3 1 .6 3.3.7 5.8.2 5.2-.4 8.4-2 10.4-1.6 2.2-2.6 2.5-7.3 2.5h-4v6.2l6.3-.1 6.3-.1 2.2-1c4-1.9 7-5.8 8.2-10.8.7-2.8.7-9.1 0-12.1-.6-2.9-2-5.8-3.5-7.6-.6-.7-1.9-1.8-2.7-2.3-2.9-1.9-4.1-2-18.4-2h-12.9zm44.5 0v57.6h10V28.9h-10zm126.4 0c-4.5 0-9.2.2-10.3.3-2.6.4-5.7 1.8-7.4 3.4-1.7 1.6-3.2 3.9-4 6.4-.5 1.5-.7 3-.7 5.9 0 4.1.3 5.9 1.7 8.6.9 1.8 3.4 4.4 5 5.4 1.9 1.1 4.4 1.7 8.7 2.1 3.3.3 4 .4 5.1 1.1.8.6 1.6 1.5 2.2 2.7.9 1.8.9 2.1.9 6 0 3.8-.1 4.2-.9 5.8-.6 1.1-1.4 2-2.2 2.6l-1.4.9-8.6.1-8.6.1v6.2h9.7c5.9 0 10.4-.1 11.5-.4 4-.8 7.3-3.4 8.9-6.9 1.4-3 1.8-6 1.7-10.6-.2-4.8-.9-7.4-2.8-10.3-2.4-3.6-5.1-4.8-11.9-5.4-2.5-.2-5.1-.6-5.7-.9-1.4-.6-2.7-2.1-3.3-3.7-.6-1.6-.6-6.4 0-8.4s2.3-3.8 4.1-4.3c.9-.3 3.9-.4 8.8-.4h7.5V28.9h-8zm115.8 0v8.4h10v-8.4h-10zm-96.9 6.5.1 20.7c.1 20.4.1 20.8.8 22.6.4 1 1.2 2.6 1.9 3.4 1.3 1.8 3 3 5.1 3.7 1 .4 2.8.5 6.1.5h4.6v-6.2h-3c-2.9 0-3.1 0-3.9-.9-.5-.5-1-1.6-1.2-2.5-.2-1-.3-6.4-.3-14.8l.1-13.2 5.4-.1 5.4-.1v-6.2h-11v-6.9h-10.1zm69.6 0v20.5c0 19.8 0 20.5.7 22.5.8 2.3 2.3 4.7 4 6 .6.5 1.9 1.2 2.9 1.5 1.3.4 2.7.6 6.2.6h4.5v-6.2h-2.9c-2.4 0-3-.1-3.7-.7-.5-.4-1-1.2-1.2-1.9-.2-.7-.3-6.6-.3-15.1V48.7h11l-.1-3-.1-3-5.4-.1-5.4-.1v-7.1h-10.2zm-8.9 7.1-10.8.2c-11.6.2-12.8.3-16.2 2-3.8 1.9-6.4 5.7-7.6 10.8-.5 2.1-.6 4-.6 12.1 0 9.2 0 9.7.7 11.4 1.4 3.6 3.6 5.8 6.7 6.8 1.4.5 2.8.6 7.5.6h5.8v-6.2h-4c-3.8 0-4.1 0-5-.8-.6-.5-1.1-1.3-1.3-2.3-.5-1.8-.5-15.9 0-19.4.6-4.9 1.7-7.1 4-8.4.8-.4 2.1-.6 6-.7l5-.1v37.8H417v-12c0-6.7-.1-16.6-.2-22l-.4-9.8zm-152.7 0-10.8.2c-11.7.2-13.4.4-16.6 2.1-3.7 2-6.4 5.9-7.5 11.1-.7 3.3-1 16.8-.5 20.1.5 2.8 1.8 5.7 3.4 7.3 1.2 1.2 3.1 2.4 4.7 2.9.4.1 3.5.3 6.7.3h5.9v-6.2h-4.2c-4.7 0-5.3-.2-6.2-2.2-.4-.9-.5-2.7-.6-7.4-.1-6.8.3-14.1 1.1-16.5.7-2.2 1.9-3.9 3.3-4.6 1.1-.5 2-.6 6.1-.6h4.9l.1 18.8.1 18.8h10v-22l.1-22.1zm10.9.1c-2.9 0-5.3 0-5.3.1 0 0 3.3 9.9 7.4 21.8l7.4 21.7-4.2 10.8c-2.3 5.9-4.2 10.8-4.2 10.9s2 .1 4.4 0l4.4-.1 13-32.5c7.1-17.9 13-32.5 13-32.6 0 0-2.1-.1-4.7-.1-3.4 0-4.8.1-4.9.4-.1.2-2.6 6.5-5.5 14s-5.4 13.7-5.6 13.7c-.2.1-2.5-6.3-5.1-14l-4.8-14.2c0 .1-5.3.1-5.3.1zm178 0v43.8h10V42.6h-10zm60.9.1-.1 21.9-.1 21.9h10.4V48.7l5 .1c5.3.1 6.1.4 7.6 1.9 1.2 1.2 2 3.5 2.4 6.4.2 1.5.3 8.6.3 16v13.3h10V73.5c0-13.7-.2-17-1.6-20.7-1.8-5.1-5.1-8-10.5-9.5-1.8-.5-3.7-.6-12.8-.6h-10.6zm-25.4.1c-2.8 0-5.7.4-7.7 1.1-2.7.9-4.4 2-6.1 3.9-1.9 2.1-3.2 4.8-4 8.3-.5 2.1-.6 3.8-.6 8.9 0 5.4.1 6.7.7 8.8 1 3.6 2.3 6 4.2 8 1.9 1.9 4.7 3.4 7.9 4.1 1.4.3 3.4.4 6.5.3 5.2-.1 7.7-.8 10.8-2.9 2.6-1.8 4.5-4.5 5.6-8 1.6-5 1.8-13.2.6-19.2-.6-2.9-2-6.1-3.6-8.1-1.5-1.8-3.9-3.4-6.6-4.3-2-.5-4.9-.9-7.7-.9zm.1 6.1c1.5 0 3 .3 4.1.9 1.5.8 2.5 2.1 3.3 4.6.5 1.7.7 3.2.8 8.6.2 7.1-.2 10.5-1.3 13-.8 1.8-2 3.2-3.4 3.8-.6.3-2.2.4-3.6.4-2.1 0-2.8-.1-4-.8-.9-.5-1.8-1.3-2.3-2.2-1.5-2.4-2-5.5-2-12.5 0-6.7.3-9.3 1.6-12.1.4-.9 1.3-2 1.9-2.5 1.1-.7 3-1.2 4.9-1.2zM559.4 83.9h.8v-2.8h1.8c.5 0 .8.1.9.2.1.1.2.5.3 1l.1.8c0 .2 0 .3.1.4 0 .1.1.2.1.3h.8v-.2c-.1-.1-.1-.1-.1-.2s-.1-.2-.1-.4l-.1-1c0-.5-.1-.8-.2-1-.1-.3-.3-.4-.6-.5.3-.1.6-.2.7-.5.2-.3.3-.6.3-1 0-.3-.1-.6-.2-.9-.1-.3-.4-.5-.6-.6-.2-.1-.5-.2-.8-.2h-3.1l-.1 6.6zm.8-3.5v-2.3h2.3c.2 0 .4.1.5.2.1.1.3.2.3.4.1.2.1.3.1.5 0 .4-.1.7-.4.9-.2.2-.6.3-1.2.3h-1.6z"/><path fill="#c3c6c5" stroke="#FFF" stroke-miterlimit="10" d="M567.2 80.6c0 3-2.4 5.4-5.4 5.4-3 0-5.4-2.4-5.4-5.4s2.4-5.4 5.4-5.4c3 .1 5.4 2.5 5.4 5.4z"/><path fill="#DE0029" d="m80.514 23.532-.1 89.5-24-7.8V.032l30.6 8.1c19.6 5.3 31.6 15.5 31.4 33.5-.2 20.9-9.8 29.3-28.7 23.8v-41.2c.1-5-9.2-5.3-9.2-.7z"/><path fill="#F3C202" d="m45.414 87.832-11.3 3.8c-7.3 2.5-13.6-3.4-6.8-5.9l5.5-1.9-20.6-6.5c-6.3 2.1-12.3 6.7-11.9 13.2.4 6.5 15.3 8.1 26.8 9.9 10.7 1.8 20.5.8 29.4-2.3v-6.7l-11.1-3.6zm35.2 25.2 21-7.3-21.2-6.7v13.6l.2.4z"/><path fill="#326DB3" d="m136.414 93.432.4-.1c9.2-3.2 13.1-7.7 12.1-11.9-1.6-7-12.8-10.8-30-12.1-12.4-.9-24.6 1.9-36.5 5.9l-1.9.7 21.4 6.6 12.5-4.2c13.1-2.4 18.3 1.9 5.8 5.9l-6.2 2.1 22.4 7.1zm-80-31-9.5 3.2 9.5 2.9v-6.1z"/><path fill="#00AA9E" d="m101.614 105.732 34.8-12.3-22.6-7-33.3 11.4v1.2l21.1 6.7zm-45.2-21.6-11 3.7 11 3.5v-7.2zm24 5.8v-13.9l21.4 6.6-21.4 7.3zm-47.7-6.1 23.7-8.5v-6.8l-9.5-2.9-34.3 11.6c-.1 0-.3.1-.5.1l20.6 6.5z"/></svg>