<?xml version="1.0" encoding="utf-8"?>
<!-- Generator: Adobe Illustrator 18.0.0, SVG Export Plug-In . SVG Version: 6.00 Build 0)  -->
<!DOCTYPE svg PUBLIC "-//W3C//DTD SVG 1.1//EN" "http://www.w3.org/Graphics/SVG/1.1/DTD/svg11.dtd">
<svg version="1.1" id="Layer_1" xmlns="http://www.w3.org/2000/svg" xmlns:xlink="http://www.w3.org/1999/xlink" x="0px" y="0px"
	 viewBox="0 0 566.9 414.2" enable-background="new 0 0 566.9 414.2" xml:space="preserve">
<g>
	<polygon fill="#FFFFFF" points="553.5,406 550.6,406 550.6,405 557.5,405 557.5,406 554.6,406 554.6,413.8 553.5,413.8 	"/>
	<polygon fill="#FFFFFF" points="562.2,413.8 559.8,406.7 559.8,413.8 558.6,413.8 558.6,405 560.2,405 562.8,412.5 565.3,405 
		566.9,405 566.9,413.8 565.8,413.8 565.8,406.7 563.4,413.8 	"/>
	<path fill="#FFFFFF" d="M2.6,330.3c0-3.1-0.6-7-1.9-8.7c8.9,0,28,0.1,36.2,0.1c18.9,0,47.4,10.5,47.4,45.8
		c0,26.2-20.1,45.8-47.4,45.8c-6,0-28.8-0.1-36.9-0.1c1.7-3.1,2.6-7.2,2.6-10.5V330.3L2.6,330.3z M16.2,404.3
		c8.7,1.1,16.8,1.5,24,0.4c7-1,30.7-6.1,30.6-37.5c-0.1-29.8-18.5-36.6-32.7-37.4c-7.4-0.4-14.5-0.2-21.9,1.1L16.2,404.3L16.2,404.3
		z"/>
	<path fill="#FFFFFF" d="M92,349.7l13.6-2.1c0,2.8,0,10.9,0,11.9c3.5-8.6,14.3-15.5,29.7-9.5l-3.6,9.4c-14.1-6.7-26.1-0.8-26.1,14.8
		v32.3c0,1.5,0.3,4.6,1.3,6.6H92.8c1.4-1.8,2.1-5.1,2.1-6.6V360C94.9,356.7,94.2,351.4,92,349.7L92,349.7z"/>
	<path fill="#FFFFFF" d="M520.9,356.2c0,0.9,0,38.4,0,41.2c0,12.9,8.9,16.4,15.5,16.4c2.8,0.1,6.7-0.5,9.5-1.1l1.7-8
		c-3.2,1.2-7,1.5-9.2,1.5c-4.1,0-7.1-2.8-7.1-7c0-3.9-0.1-41.7,0-42.9h0c0.6,0,9.1,0,10,0c2.8,0.1,5,0.3,6.8,1l0-7.5
		c0,0-16.5,0-16.8,0l0.1-19.3l-12.5,3.5c1.7,1.6,2.3,6.3,2.3,9.4c0,0,0,5.8,0,6.5c-0.6,0-6.9,0-8,0v6.4
		C514.3,356.2,520.9,356.2,520.9,356.2L520.9,356.2z"/>
	<path fill="#FFFFFF" d="M466.9,399.8c5.4,3.8,13.8,7.2,20,7.2c8.6,0,14.7-4.2,14.7-12c0-14.5-33.1-12.1-33.1-30.5
		c0-12.4,11.1-17.1,21.7-17.1c3.4,0,11.2,0.7,16.1,2.7l0,8.5c-4.4-3.8-11.1-4.7-15.5-4.7c-7,0-12.3,3.5-12.3,10.3c0,10,33,9.4,33,30
		c0,13.3-11.5,19.5-24.2,19.5c-6.2,0-12.6-1.1-18-2.6L466.9,399.8L466.9,399.8z"/>
	<path fill="#FFFFFF" d="M267.3,356.3c0-0.8,0-7.5,0-8.4l-13.7,2.1c1.7,1.7,2.9,7.1,2.9,11v45c0,1.5-0.7,5.3-2.1,7h15
		c-1.4-1.8-2.1-5.5-2.1-7v-33.9c0-12.4,7.7-16.7,15.3-16.7c6.9,0,13.1,3,13.1,16.7v33.9c0,1.5-0.7,5.3-2.1,7h14.5
		c-1.4-1.8-2.1-5.5-2.1-7v-33.9c0-13.7,8.5-16.7,15.4-16.7c6.9,0,14.1,4.3,14.1,16.7v33.9c0,1.5-0.7,5.3-2.1,7h14
		c-1.4-1.8-2.1-5.5-2.1-7v-40.3c0-6.9-7-17.9-23.4-17.9c-9.5,0-15,4.2-19.2,7.9c-3.5-4.1-9.3-8-18.6-8
		C275.2,347.8,269.9,353.1,267.3,356.3L267.3,356.3z"/>
	<path fill="#FFFFFF" d="M234.9,377.5c-2,1.8-6.1,3.3-10.3,3.8c-11.1,1.5-20.8,3.3-20.8,14.2c0,6.4,7,11.5,12.6,11.5
		c14.7,0,18.5-10.6,18.5-19L234.9,377.5L234.9,377.5L234.9,377.5z M200.2,350.9c5.6-2.3,14.7-3.3,20.4-3.3
		c14.5,0,24.1,7.2,24.1,24.1v27.9c0,5.2,0.1,10.1,1.9,13.5h-11.7l-0.4-7.3c-4.4,5.7-9.7,8.3-18.7,8.3c-17.7,0-21.5-12.1-21.5-17.9
		c0-20.7,19.7-21,28.3-22.2c4.7-0.7,10.8-2,11.7-6.4c1.5-7.3-3.7-12.9-14.5-12.9c-7.9,0-14.3,2.4-19.7,5.6L200.2,350.9L200.2,350.9z
		 M450.8,377.5c-2,1.8-6.1,3.3-10.3,3.8c-11.1,1.5-20.8,3.3-20.8,14.2c0,6.4,7,11.5,12.6,11.5c14.7,0,18.5-10.6,18.5-19V377.5
		L450.8,377.5z M416.1,350.9c5.6-2.3,14.7-3.3,20.4-3.3c14.5,0,24.1,7.2,24.1,24.1v27.9c0,5.2-1.1,10,1.9,13.5h-11.7l-0.4-7.3
		c-4.4,5.7-9.7,8.3-18.6,8.3c-17.7,0-21.5-12.1-21.5-17.9c0-20.7,19.7-21,28.3-22.2c4.7-0.7,10.8-2,11.7-6.4
		c1.5-7.3-3.7-12.9-14.5-12.9c-7.9,0-14.3,2.4-19.7,5.6L416.1,350.9L416.1,350.9z"/>
	<path fill="#FFFFFF" d="M403.7,359.5c-4.4-2.6-11.3-4.6-16.1-4.6c-16.9,0-24.7,10.4-24.7,25.4c0,14.8,7.6,26.2,24.1,26.2
		c5.7,0,13.4-2.5,19.4-6.2l-2.4,10.9c-6.1,1.8-11.2,2.7-18,2.7c-23.2,0-34.1-16.5-34.1-33.6c0-19,14.6-32.3,34.4-32.3
		c8.6,0,15,2.1,17.5,2.8L403.7,359.5L403.7,359.5z"/>
	<path fill="#FFFFFF" d="M143.5,381.1c0-1.6,0.2-3.1,0.4-4.5h45c0-15.5-7.7-28.7-26.1-28.7c-19,0-30.3,14.9-30.3,33.8
		c0,17.2,12.6,32.5,34.1,32.5c6.8,0,12.5-1.7,18.6-3.8l2.2-11c-5.3,4.3-13.7,6.9-21.4,6.9C152.2,406.3,143.4,396.3,143.5,381.1
		L143.5,381.1z M145.3,369.7c1.5-7.5,8.4-15.2,16.8-15.2c12.7,0,16.4,9.9,16.4,15.2C178.4,369.7,145.3,369.7,145.3,369.7
		L145.3,369.7z"/>
	<path fill="#313284" d="M324,4.1c12.5,1.9,25.3,6.2,31.9,8.3c13.4,4.1,35.2,16.8,42.9,23c3.6,2.9,11.3,10.5,14.2,14.3
		c2.9,3.7,8.4,11.8,11.9,16.7c5.6,8.2,12.2,20.3,17.8,31.6c6.2,12.5,6.7,16.1,8.6,26.6l4.1,18.4c0.4,3.2,0.7,14.9-6.2,16.5
		c-6.9,1.6-13.2-1.5-16.2-6.2c-4.1-6.4-3.6-15.5-8.3-25.9c-3.7-8.4-5.2-20.6-11.1-29.4l-4.6-7.7c-8.1-12.5-16.5-22.4-21.6-28.8
		c-4.4-5.4-12.7-12.8-20.6-18c-7.3-4.4-19-9.4-27.4-12c-2.7-0.9-14.2-4.3-21.4-5.2c-9.7-1.1-16.1-2.6-25.4-3.3
		c-11.4-0.8-16.9-1.8-31.7-0.1c-5.6,1.5-14.5,2.1-22.5,5.2c-6.5,2.6-15.4,6.9-24.2,12.1c-9.5,5.2-23.9,15.8-33.4,24.9
		c-9.6,10.3-14.4,15.8-21,28.8c-2.9,6.4-8.6,16.4-10.9,23.4c-1.6,7.1-4.5,20.5-4,26.9c0.2,11.6-0.8,14,0.1,23.4
		c0,8.5,2.8,14.4,4,21.4c1,4.8,5.6,21.5,8.5,25.4c13,28,30.5,40.1,49.9,48.9c5.5,2.8,22.6,7.4,27.6,8.7c8.5,1.5,19.6,2.5,30.3,2.8
		c11.3,0.2,26.8-1.3,36.3-4.8c10.2-3.8,22-9.1,21.9-8.9c4.7-2.6,12-6.9,14.2-8.7c4.4-2.8,7-3.9,9.5-6.6c3.7-3.3,6-5.1,8.8-9.2
		c1.6-2.3,4.1-5.8,6.5-8.8c2.6-4.3,4.1-8.8,6.7-14.4c3-8.3,2.6-7.9,3.2-16.6c0.5-2.5-0.1-11.1-0.5-12.5c-1.4-7.9-0.9-14.8-2.7-22.5
		c-2.4-10.3-4.5-18.1-7.6-28c-2.9-11.2-11.5-21.5-17.9-28.9c-4-4.6-16.4-15.4-33.5-22.2c-4.8-1.6-12.8-3.5-17.8-4.4
		c-10.7-1.1-12.5-0.4-22.8,0.4c-3.5,0.6-11.7,2.3-14.8,3.4c-8.8,3.1-12.1,5.1-21.1,10.6c-4.2,2.4-7.4,4.3-11.7,8.3
		c-3.4,3.2-5.9,8.6-8.6,11.7c-3.8,5.2-8,12.1-10.9,19.5c-3.1,7.4-4.1,17.8-3.6,24.5c0,5.1,1.4,14.5,1.9,16.5
		c0.6,2.1,1.9,8.4,2.2,9.7c0.3,1.3,3.6,8,4.1,9c1.9,4,5.4,9.7,11.4,15.5c4.4,4.8,13,9.6,19.4,11.4c5.8,3.2,15.5,3.7,20.8,3.7
		c2.6-0.2,9.4-0.6,12.9-1.4c7.1-1.7,8.5-1.8,15.8-5c6.6-3.1,11.1-4.2,15.7-7.6c0,0,6.3-4.9,9.2-8.6c1.5-1.9,4.1-11,3.6-16.7
		c-0.2-7.7,0.9-12.1-0.7-18.5c-1.6-6.4-4.3-13.7-7.2-18.3c-3-4.6-9.3-9.1-16.5-12.6c-4-2-13.6-3.9-17.7-4.3
		c-7.7-0.9-14.2,2.6-18.1,6.6c-3.4,3.9-10.1,12-7.4,20.3c2.4,7.6,5.4,15.6,16.7,15c7.8,1.6,16.8-0.7,19.8,0.6
		c4.4,2.5,6.2,8.1,4.5,12c-1.1,7.5-8.3,8.4-16,9c-6.9,1.1-24.3-2.2-28.1-5.1c-2.6-1.5-6.5-5.2-9.3-7.7c-2-1.8-4.2-5.8-5.8-8.6
		c-1.9-3.5-2.8-6.1-3.3-8.4c-0.6-2.7-1.8-7.9-1.3-13.1c0.3-3.5,1.2-5,2.2-10.1c1.9-5.8,4.2-10.2,7.9-15.2c4.8-4.9,11-10.7,16.9-13.4
		c5.3-2.8,14.5-3.8,22.9-3.3c6.8,0.6,14.8,1.5,20.1,3.3c9.1,3.2,11.7,3.9,19.1,8.6c6.3,3.9,12.6,11.1,16.2,17
		c7.5,15.4,11.8,32.5,8.7,55.6c-0.3,3.9-1.5,7.7-3.9,12.9c-2.2,4.8-6.2,10.5-12.1,14.9c-2.4,2.2-6.1,4.9-9.2,6.5
		c-4.3,2.6-7.2,4-11.8,6.3c-4,1.9-8.6,4-14.6,5.7c-6.5,2.6-11.5,2.7-19.8,3.9c-8.1,2-30.2,0.6-43.4-5.2c-9-3.8-19.1-10.5-26.8-18.6
		c-4.3-4.5-8.4-12.6-9.7-14.2c-6.1-11.7-7.3-22.8-8.3-25.1c-1.3-3.1-2-10.2-2.9-15c-1-5.4-0.4-28.1,5.1-42.7c3.1-5.8,4.9-11,7-13.7
		c3.8-5.3,5.6-8.7,8.8-12.5c4.8-5.8,8.3-10.6,13-13.9C223,72,233,66.9,246.5,60.5c16.8-6.8,21.8-5.4,37.7-5.2
		c7.1,0.1,17.5,2.3,22.6,3.2c9.5,1.3,14.9,3.5,21.3,5.3c6.9,1.9,10.8,5,16.4,8.4c4.6,3,10.1,7.1,13.7,10.4
		c9.2,6.8,13.7,13.9,19.3,22.6c1,1.5,7.7,15.7,8.8,19.7c0.5,2,2,7.7,3,11c1.3,5.3,1.9,10,3.3,16c1.3,6.2,3.4,17.8,4.3,28.7
		c1.6,9.3-0.9,28.4-2.4,34.2c-3.3,10.9-9,24.2-20.2,37c-4.8,5.7-9.9,10.1-15.7,14.8c-4.5,3.8-8.4,5.9-15.3,10.1
		c-9.4,5.6-16.6,9.2-29.8,14.4c-5.4,1.7-12.2,4-19.5,5.5c-14.2,1.3-28.7,2.6-44.6,0.7c-15.9-1.9-31.8-6.4-41.2-9.3
		c-5.2-1.9-15.2-6.2-19.4-8.4c-2.7-1.4-11.9-7.7-13.5-9.2c-6.3-3.9-20.4-17.2-29.5-29.5c-2-3.8-9.2-15.3-10.7-20.3
		c-4.1-8.5-7-18.8-8.7-23.1c-1.8-10.2-4.8-16.8-6-27.1c0.1-2.4-0.5-8.1-1-11.3c0.8-7-0.3-13.7,1.1-21.3c1.2-6.5,2.8-9.2,3.2-15
		c0.4-2.5,3.6-10,4.4-13.4c2.6-5.5,3.2-10,6.6-16.2c4.9-9.6,10-20.6,17.8-30.3c2.2-3,8.6-10.2,10.8-12.6c5.1-5.1,8.1-5.9,13.9-11.1
		c0.6-0.4,4.4-4.7,8.4-6.2c6.6-5.1,12.4-7,18.7-11.7c12.7-6.3,17.3-8.5,29.9-13.7c7.3-2.6,17.4-4,21.1-5.4c6.9-0.4,14-2.6,21.3-2.2
		c8.2-0.1,16.5,0.5,24.7,1.3C306.9,1.7,314.1,1.9,324,4.1L324,4.1z"/>
</g>
</svg>
