<svg xmlns="http://www.w3.org/2000/svg" viewBox="0 0 566.93 94.787" xml:space="preserve"><g fill="#c3c6c5"><path d="M556.4 78.9h-2.3v-.8h5.4v.8h-2.2v6.2h-.9zM563.2 85.1l-1.9-5.7v5.7h-.9v-7h1.3l2 5.9 2-5.9h1.2v7h-.9v-5.7l-1.9 5.7zM122.8 19.3c0-2.4-.5-5.5-1.5-6.8h28.5c14.9 0 37.3 8.2 37.3 36.1 0 20.6-15.8 36-37.3 36-4.7 0-22.7-.1-29-.1 1.3-2.4 2.1-5.7 2.1-8.3l-.1-56.9zm10.7 58.2c6.9.9 13.2 1.2 18.9.3 5.5-.8 24.2-4.8 24-29.5-.1-23.4-14.6-28.8-25.7-29.4-5.8-.3-11.4-.1-17.2.9v57.7zM193.2 34.6l10.7-1.7v9.4c2.7-6.8 11.3-12.2 23.4-7.5l-2.8 7.4c-11.1-5.3-20.5-.6-20.5 11.7v25.4c0 1.2.3 3.6 1 5.2h-11.1c1.1-1.4 1.6-4 1.6-5.2V42.7c-.1-2.6-.6-6.7-2.3-8.1zM530.7 39.7v32.4c0 10.2 7 12.9 12.2 12.9 2.2.1 5.3-.4 7.5-.9l1.3-6.3c-2.5 1-5.5 1.2-7.3 1.2-3.3 0-5.6-2.2-5.6-5.5 0-3-.1-32.8 0-33.8h7.9c2.2.1 3.9.2 5.4.8v-5.9h-13.2l.1-15.2-9.8 2.7c1.4 1.3 1.8 5 1.8 7.4v5.1h-6.3v5c.8.1 6 .1 6 .1zM488.2 74c4.2 3 10.9 5.7 15.7 5.7 6.8 0 11.6-3.3 11.6-9.5 0-11.4-26-9.5-26-24 0-9.8 8.8-13.5 17.1-13.5 2.7 0 8.8.6 12.7 2.1v6.7c-3.5-3-8.7-3.7-12.2-3.7-5.5 0-9.7 2.7-9.7 8.1 0 7.9 26 7.4 26 23.6 0 10.5-9.1 15.4-19.1 15.4-4.9 0-9.9-.9-14.2-2.1l-1.9-8.8zM331.1 39.8v-6.6l-10.8 1.7c1.3 1.4 2.3 5.6 2.3 8.7V79c0 1.2-.5 4.1-1.6 5.5h11.8c-1.1-1.4-1.6-4.3-1.6-5.5V52.4c0-9.8 6-13.2 12-13.2 5.4 0 10.3 2.4 10.3 13.2V79c0 1.2-.5 4.1-1.6 5.5h11.4c-1.1-1.4-1.6-4.3-1.6-5.5V52.4c0-10.8 6.7-13.2 12.1-13.2 5.4 0 11.1 3.4 11.1 13.2V79c0 1.2-.5 4.1-1.6 5.5h11c-1.1-1.4-1.6-4.3-1.6-5.5V47.3c0-5.4-5.5-14.1-18.4-14.1-7.5 0-11.8 3.3-15.1 6.2-2.8-3.3-7.3-6.3-14.6-6.3-7.2 0-11.4 4.2-13.5 6.7zM305.6 56.5c-1.5 1.5-4.8 2.6-8.1 3-8.8 1.1-16.4 2.6-16.4 11.1 0 5.1 5.5 9 9.9 9 11.6 0 14.6-8.4 14.6-14.9v-8.2zm-27.3-20.9c4.4-1.8 11.5-2.6 16-2.6 11.4 0 19 5.7 19 18.9v22c0 4.1.1 7.9 1.5 10.6h-9.2l-.3-5.8c-3.5 4.5-7.6 6.5-14.7 6.5-13.9 0-16.9-9.5-16.9-14.1 0-16.3 15.5-16.5 22.2-17.4 3.7-.5 8.5-1.6 9.2-5.1 1.2-5.8-2.9-10.1-11.4-10.1-6.2 0-11.3 1.9-15.5 4.4l.1-7.3zm197.3 20.9c-1.5 1.5-4.8 2.6-8.1 3-8.8 1.1-16.3 2.6-16.3 11.1 0 5.1 5.5 9 9.9 9 11.6 0 14.6-8.4 14.6-14.9v-8.2h-.1zm-27.4-20.9c4.4-1.8 11.6-2.6 16-2.6 11.4 0 19 5.7 19 18.9v22c0 4.1-.9 7.8 1.5 10.6h-9.2l-.3-5.8c-3.5 4.5-7.6 6.5-14.7 6.5-13.9 0-16.9-9.5-16.9-14.1 0-16.3 15.5-16.5 22.2-17.4 3.7-.5 8.5-1.6 9.2-5.1 1.2-5.8-2.9-10.1-11.4-10.1-6.2 0-11.3 1.9-15.5 4.4l.1-7.3zM438.5 42.3c-3.4-2-8.9-3.6-12.7-3.6-13.3 0-19.4 8.2-19.4 20 0 11.7 6 20.6 19 20.6 4.5 0 10.5-2 15.3-4.9l-1.9 8.6c-4.8 1.4-8.8 2.1-14.2 2.1-18.3 0-26.9-13-26.9-26.5 0-14.9 11.5-25.4 27.1-25.4 6.8 0 11.8 1.7 13.8 2.2l-.1 6.9zM233.6 59.3c0-1.2.2-2.4.3-3.5h35.4c0-12.2-6.1-22.6-20.5-22.6-15 0-23.9 11.7-23.9 26.6 0 13.5 9.9 25.6 26.8 25.6 5.4 0 9.8-1.3 14.7-3l1.7-8.6c-4.1 3.4-10.8 5.4-16.8 5.4-10.8-.1-17.7-7.9-17.7-19.9zm1.5-8.9c1.1-5.9 6.6-12 13.2-12 10 0 12.9 7.8 12.9 12h-26.1z"/></g><path fill="#CF3311" d="M65.058 1.288c3.969.596 8.026 1.984 10.141 2.63C79.46 5.22 86.376 9.269 88.82 11.209c1.157.918 3.585 3.323 4.528 4.533.917 1.179 2.667 3.733 3.783 5.308 1.781 2.597 3.874 6.466 5.648 10.025 1.984 3.978 2.12 5.13 2.721 8.455l1.311 5.862c.123 1.014.227 4.731-1.957 5.252-2.181.521-4.199-.484-5.15-1.955-1.316-2.036-1.133-4.927-2.623-8.235-1.161-2.674-1.666-6.561-3.521-9.355l-1.453-2.458c-2.573-3.96-5.253-7.103-6.851-9.153-1.411-1.723-4.04-4.064-6.531-5.729-2.306-1.398-6.032-2.993-8.719-3.813-.856-.279-4.524-1.357-6.8-1.66-3.093-.347-5.126-.836-8.063-1.043-3.63-.256-5.367-.578-10.074-.028-1.783.484-4.605.676-7.147 1.647-2.053.837-4.906 2.189-7.703 3.832-3.012 1.651-7.578 5.026-10.609 7.907-3.054 3.263-4.582 5.014-6.687 9.15-.931 2.046-2.736 5.213-3.464 7.447-.497 2.269-1.443 6.5-1.286 8.556.073 3.681-.25 4.441.027 7.45.01 2.71.899 4.588 1.27 6.806.315 1.53 1.787 6.828 2.694 8.061 4.129 8.9 9.675 12.755 15.856 15.537 1.742.888 7.191 2.346 8.767 2.763 2.69.485 6.227.81 9.633.875 3.583.069 8.522-.414 11.517-1.519 3.244-1.193 6.997-2.89 6.953-2.84 1.504-.832 3.802-2.186 4.516-2.781 1.383-.885 2.217-1.227 3.034-2.08 1.184-1.033 1.898-1.629 2.794-2.91a61.17 61.17 0 0 1 2.059-2.805c.83-1.36 1.307-2.793 2.116-4.564.968-2.623.818-2.496 1.003-5.277.175-.807-.02-3.519-.164-3.979-.437-2.502-.283-4.709-.856-7.138-.771-3.287-1.417-5.747-2.402-8.9-.929-3.549-3.656-6.838-5.702-9.188-1.268-1.457-5.201-4.895-10.658-7.043-1.538-.517-4.05-1.103-5.647-1.395-3.41-.356-3.965-.127-7.229.111-1.124.196-3.731.729-4.692 1.066-2.804.985-3.835 1.611-6.702 3.366-1.334.775-2.34 1.368-3.705 2.646-1.089 1.008-1.868 2.72-2.748 3.725-1.209 1.644-2.554 3.836-3.456 6.201-.978 2.353-1.293 5.664-1.143 7.796 0 1.621.441 4.597.616 5.246.176.65.616 2.67.71 3.076.097.405 1.145 2.541 1.292 2.852.593 1.261 1.726 3.07 3.633 4.919 1.411 1.54 4.133 3.05 6.174 3.635 1.828 1.005 4.912 1.173 6.62 1.177.839-.052 2.984-.183 4.103-.451 2.271-.545 2.688-.559 5.028-1.575 2.1-.974 3.523-1.325 4.986-2.403 0 0 2.007-1.572 2.919-2.724.481-.604 1.306-3.5 1.161-5.293-.069-2.453.289-3.845-.214-5.863-.5-2.019-1.354-4.358-2.281-5.8-.939-1.46-2.956-2.882-5.251-4.017-1.288-.636-4.333-1.224-5.627-1.376-2.453-.292-4.506.823-5.753 2.097-1.082 1.236-3.22 3.803-2.369 6.457.771 2.4 1.703 4.959 5.304 4.769 2.473.515 5.33-.229 6.283.207 1.413.802 1.955 2.573 1.443 3.81-.359 2.383-2.643 2.668-5.076 2.852-2.18.365-7.715-.702-8.93-1.613-.816-.484-2.067-1.648-2.946-2.435-.633-.568-1.346-1.828-1.837-2.734-.598-1.114-.903-1.933-1.057-2.657-.185-.861-.562-2.506-.419-4.15.099-1.108.394-1.582.688-3.203.589-1.84 1.32-3.239 2.498-4.834 1.532-1.556 3.479-3.408 5.38-4.269 1.676-.886 4.613-1.211 7.268-1.056 2.156.206 4.702.469 6.389 1.033 2.884 1.03 3.708 1.236 6.077 2.73 1.999 1.237 4.012 3.516 5.136 5.402 2.39 4.89 3.76 10.328 2.764 17.653-.081 1.237-.466 2.444-1.237 4.084-.714 1.511-1.96 3.35-3.838 4.733-.754.699-1.946 1.56-2.915 2.063-1.375.834-2.299 1.269-3.733 1.989-1.26.594-2.73 1.27-4.646 1.802-2.076.821-3.67.854-6.281 1.243-2.568.646-9.602.187-13.792-1.662-2.857-1.203-6.064-3.321-8.505-5.904-1.354-1.422-2.681-3.996-3.069-4.523-1.94-3.729-2.319-7.234-2.631-7.973-.422-1-.631-3.244-.916-4.779-.319-1.724-.122-8.942 1.617-13.574.981-1.845 1.555-3.49 2.217-4.353 1.193-1.696 1.769-2.755 2.782-3.957 1.528-1.852 2.64-3.364 4.127-4.431 3.793-3.083 6.959-4.711 11.245-6.746 5.324-2.168 6.923-1.72 11.964-1.639 2.267.02 5.566.733 7.189 1.027 3.012.401 4.738 1.127 6.773 1.695 2.178.608 3.436 1.58 5.226 2.659 1.47.949 3.202 2.251 4.345 3.308 2.927 2.146 4.337 4.401 6.131 7.171.327.464 2.455 5.002 2.794 6.266.158.633.638 2.449.949 3.511.396 1.685.591 3.176 1.036 5.078.396 1.957 1.072 5.653 1.364 9.108.495 2.965-.296 9.015-.76 10.871-1.035 3.463-2.85 7.69-6.428 11.762-1.519 1.803-3.135 3.199-5.003 4.716-1.427 1.19-2.653 1.886-4.861 3.202-2.996 1.789-5.276 2.931-9.477 4.574-1.71.549-3.866 1.27-6.188 1.75-4.499.411-9.123.809-14.169.211-5.047-.602-10.102-2.024-13.089-2.94-1.649-.618-4.841-1.955-6.178-2.679-.872-.441-3.793-2.439-4.288-2.919-2-1.237-6.479-5.449-9.371-9.375-.633-1.216-2.911-4.854-3.406-6.448-1.313-2.697-2.229-5.96-2.766-7.354C1.664 59.513.704 57.419.33 54.155c.042-.768-.154-2.577-.33-3.578.254-2.235-.086-4.339.358-6.773.39-2.053.904-2.91 1.028-4.766.121-.794 1.141-3.182 1.415-4.245.826-1.75 1.03-3.191 2.107-5.147 1.549-3.048 3.172-6.554 5.662-9.617.712-.95 2.729-3.228 3.416-4.017 1.625-1.625 2.578-1.881 4.421-3.51.19-.12 1.409-1.508 2.685-1.985 2.111-1.632 3.937-2.23 5.948-3.715 4.029-2.008 5.497-2.686 9.497-4.351 2.313-.825 5.534-1.28 6.694-1.73C45.44.584 47.682-.12 50.004.019c2.607-.024 5.234.162 7.855.4 1.766.103 4.072.189 7.199.869z"/></svg>