<?xml version="1.0" encoding="utf-8"?>
<!-- Generator: Adobe Illustrator 16.0.3, SVG Export Plug-In . SVG Version: 6.00 Build 0)  -->
<!DOCTYPE svg PUBLIC "-//W3C//DTD SVG 1.1//EN" "http://www.w3.org/Graphics/SVG/1.1/DTD/svg11.dtd">
<svg version="1.1" id="Layer_1" xmlns="http://www.w3.org/2000/svg" xmlns:xlink="http://www.w3.org/1999/xlink" x="0px" y="0px"
	 viewBox="0 0 566.93 94.787" enable-background="new 0 0 566.93 94.787" xml:space="preserve">
<g>
	<g>
		<polygon fill="#c3c6c5" points="556.4,78.9 554.1,78.9 554.1,78.1 559.5,78.1 559.5,78.9 557.3,78.9 557.3,85.1 556.4,85.1 		"/>
		<polygon fill="#c3c6c5" points="563.2,85.1 561.3,79.4 561.3,85.1 560.4,85.1 560.4,78.1 561.7,78.1 563.7,84 565.7,78.1 
			566.9,78.1 566.9,85.1 566,85.1 566,79.4 564.1,85.1 		"/>
		<path fill="#c3c6c5" d="M122.8,19.3c0-2.4-0.5-5.5-1.5-6.8c7,0,22,0,28.5,0c14.9,0,37.3,8.2,37.3,36.1c0,20.6-15.8,36-37.3,36
			c-4.7,0-22.7-0.1-29-0.1c1.3-2.4,2.1-5.7,2.1-8.3L122.8,19.3L122.8,19.3z M133.5,77.5c6.9,0.9,13.2,1.2,18.9,0.3
			c5.5-0.8,24.2-4.8,24-29.5c-0.1-23.4-14.6-28.8-25.7-29.4c-5.8-0.3-11.4-0.1-17.2,0.9L133.5,77.5L133.5,77.5z"/>
		<path fill="#c3c6c5" d="M193.2,34.6l10.7-1.7c0,2.2,0,8.6,0,9.4c2.7-6.8,11.3-12.2,23.4-7.5l-2.8,7.4
			c-11.1-5.3-20.5-0.6-20.5,11.7v25.4c0,1.2,0.3,3.6,1,5.2h-11.1c1.1-1.4,1.6-4,1.6-5.2V42.7C195.4,40.1,194.9,36,193.2,34.6
			L193.2,34.6z"/>
		<path fill="#c3c6c5" d="M530.7,39.7c0,0.7,0,30.2,0,32.4c0,10.2,7,12.9,12.2,12.9c2.2,0.1,5.3-0.4,7.5-0.9l1.3-6.3
			c-2.5,1-5.5,1.2-7.3,1.2c-3.3,0-5.6-2.2-5.6-5.5c0-3-0.1-32.8,0-33.8h0c0.4,0,7.2,0,7.9,0c2.2,0.1,3.9,0.2,5.4,0.8l0-5.9
			c0,0-13,0-13.2,0l0.1-15.2l-9.8,2.7c1.4,1.3,1.8,5,1.8,7.4c0,0,0,4.5,0,5.1c-0.4,0-5.4,0-6.3,0v5
			C525.5,39.7,530.7,39.7,530.7,39.7L530.7,39.7z"/>
		<path fill="#c3c6c5" d="M488.2,74c4.2,3,10.9,5.7,15.7,5.7c6.8,0,11.6-3.3,11.6-9.5c0-11.4-26-9.5-26-24c0-9.8,8.8-13.5,17.1-13.5
			c2.7,0,8.8,0.6,12.7,2.1l0,6.7c-3.5-3-8.7-3.7-12.2-3.7c-5.5,0-9.7,2.7-9.7,8.1c0,7.9,26,7.4,26,23.6c0,10.5-9.1,15.4-19.1,15.4
			c-4.9,0-9.9-0.9-14.2-2.1L488.2,74L488.2,74z"/>
		<path fill="#c3c6c5" d="M331.1,39.8c0-0.6,0-5.9,0-6.6l-10.8,1.7c1.3,1.4,2.3,5.6,2.3,8.7V79c0,1.2-0.5,4.1-1.6,5.5h11.8
			c-1.1-1.4-1.6-4.3-1.6-5.5V52.4c0-9.8,6-13.2,12-13.2c5.4,0,10.3,2.4,10.3,13.2V79c0,1.2-0.5,4.1-1.6,5.5h11.4
			c-1.1-1.4-1.6-4.3-1.6-5.5V52.4c0-10.8,6.7-13.2,12.1-13.2c5.4,0,11.1,3.4,11.1,13.2V79c0,1.2-0.5,4.1-1.6,5.5h11
			c-1.1-1.4-1.6-4.3-1.6-5.5V47.3c0-5.4-5.5-14.1-18.4-14.1c-7.5,0-11.8,3.3-15.1,6.2c-2.8-3.3-7.3-6.3-14.6-6.3
			C337.4,33.1,333.2,37.3,331.1,39.8L331.1,39.8z"/>
		<path fill="#c3c6c5" d="M305.6,56.5c-1.5,1.5-4.8,2.6-8.1,3c-8.8,1.1-16.4,2.6-16.4,11.1c0,5.1,5.5,9,9.9,9
			c11.6,0,14.6-8.4,14.6-14.9L305.6,56.5L305.6,56.5L305.6,56.5z M278.3,35.6c4.4-1.8,11.5-2.6,16-2.6c11.4,0,19,5.7,19,18.9v22
			c0,4.1,0.1,7.9,1.5,10.6h-9.2l-0.3-5.8c-3.5,4.5-7.6,6.5-14.7,6.5c-13.9,0-16.9-9.5-16.9-14.1c0-16.3,15.5-16.5,22.2-17.4
			c3.7-0.5,8.5-1.6,9.2-5.1c1.2-5.8-2.9-10.1-11.4-10.1c-6.2,0-11.3,1.9-15.5,4.4L278.3,35.6L278.3,35.6z M475.6,56.5
			c-1.5,1.5-4.8,2.6-8.1,3c-8.8,1.1-16.3,2.6-16.3,11.1c0,5.1,5.5,9,9.9,9c11.6,0,14.6-8.4,14.6-14.9V56.5L475.6,56.5z M448.2,35.6
			c4.4-1.8,11.6-2.6,16-2.6c11.4,0,19,5.7,19,18.9v22c0,4.1-0.9,7.8,1.5,10.6h-9.2l-0.3-5.8c-3.5,4.5-7.6,6.5-14.7,6.5
			c-13.9,0-16.9-9.5-16.9-14.1c0-16.3,15.5-16.5,22.2-17.4c3.7-0.5,8.5-1.6,9.2-5.1c1.2-5.8-2.9-10.1-11.4-10.1
			c-6.2,0-11.3,1.9-15.5,4.4L448.2,35.6L448.2,35.6L448.2,35.6z"/>
		<path fill="#c3c6c5" d="M438.5,42.3c-3.4-2-8.9-3.6-12.7-3.6c-13.3,0-19.4,8.2-19.4,20c0,11.7,6,20.6,19,20.6
			c4.5,0,10.5-2,15.3-4.9l-1.9,8.6c-4.8,1.4-8.8,2.1-14.2,2.1c-18.3,0-26.9-13-26.9-26.5c0-14.9,11.5-25.4,27.1-25.4
			c6.8,0,11.8,1.7,13.8,2.2L438.5,42.3L438.5,42.3z"/>
		<path fill="#c3c6c5" d="M233.6,59.3c0-1.2,0.2-2.4,0.3-3.5h35.4c0-12.2-6.1-22.6-20.5-22.6c-15,0-23.9,11.7-23.9,26.6
			c0,13.5,9.9,25.6,26.8,25.6c5.4,0,9.8-1.3,14.7-3l1.7-8.6c-4.1,3.4-10.8,5.4-16.8,5.4C240.5,79.1,233.6,71.3,233.6,59.3
			L233.6,59.3z M235.1,50.4c1.1-5.9,6.6-12,13.2-12c10,0,12.9,7.8,12.9,12C261.2,50.4,235.1,50.4,235.1,50.4L235.1,50.4z"/>
	</g>
	<path fill="#CF3311" d="M65.058,1.288c3.969,0.596,8.026,1.984,10.141,2.63C79.46,5.22,86.376,9.269,88.82,11.209
		c1.157,0.918,3.585,3.323,4.528,4.533c0.917,1.179,2.667,3.733,3.783,5.308c1.781,2.597,3.874,6.466,5.648,10.025
		c1.984,3.978,2.12,5.13,2.721,8.455l1.311,5.862c0.123,1.014,0.227,4.731-1.957,5.252c-2.181,0.521-4.199-0.484-5.15-1.955
		c-1.316-2.036-1.133-4.927-2.623-8.235c-1.161-2.674-1.666-6.561-3.521-9.355l-1.453-2.458c-2.573-3.96-5.253-7.103-6.851-9.153
		c-1.411-1.723-4.04-4.064-6.531-5.729c-2.306-1.398-6.032-2.993-8.719-3.813c-0.856-0.279-4.524-1.357-6.8-1.66
		c-3.093-0.347-5.126-0.836-8.063-1.043c-3.63-0.256-5.367-0.578-10.074-0.028c-1.783,0.484-4.605,0.676-7.147,1.647
		c-2.053,0.837-4.906,2.189-7.703,3.832c-3.012,1.651-7.578,5.026-10.609,7.907c-3.054,3.263-4.582,5.014-6.687,9.15
		c-0.931,2.046-2.736,5.213-3.464,7.447c-0.497,2.269-1.443,6.5-1.286,8.556c0.073,3.681-0.25,4.441,0.027,7.45
		c0.01,2.71,0.899,4.588,1.27,6.806c0.315,1.53,1.787,6.828,2.694,8.061c4.129,8.9,9.675,12.755,15.856,15.537
		c1.742,0.888,7.191,2.346,8.767,2.763c2.69,0.485,6.227,0.81,9.633,0.875c3.583,0.069,8.522-0.414,11.517-1.519
		c3.244-1.193,6.997-2.89,6.953-2.84c1.504-0.832,3.802-2.186,4.516-2.781c1.383-0.885,2.217-1.227,3.034-2.08
		c1.184-1.033,1.898-1.629,2.794-2.91c0.497-0.721,1.292-1.827,2.059-2.805c0.83-1.36,1.307-2.793,2.116-4.564
		c0.968-2.623,0.818-2.496,1.003-5.277c0.175-0.807-0.02-3.519-0.164-3.979c-0.437-2.502-0.283-4.709-0.856-7.138
		c-0.771-3.287-1.417-5.747-2.402-8.9c-0.929-3.549-3.656-6.838-5.702-9.188c-1.268-1.457-5.201-4.895-10.658-7.043
		c-1.538-0.517-4.05-1.103-5.647-1.395c-3.41-0.356-3.965-0.127-7.229,0.111c-1.124,0.196-3.731,0.729-4.692,1.066
		c-2.804,0.985-3.835,1.611-6.702,3.366c-1.334,0.775-2.34,1.368-3.705,2.646c-1.089,1.008-1.868,2.72-2.748,3.725
		c-1.209,1.644-2.554,3.836-3.456,6.201c-0.978,2.353-1.293,5.664-1.143,7.796c0,1.621,0.441,4.597,0.616,5.246
		c0.176,0.65,0.616,2.67,0.71,3.076c0.097,0.405,1.145,2.541,1.292,2.852c0.593,1.261,1.726,3.07,3.633,4.919
		c1.411,1.54,4.133,3.05,6.174,3.635c1.828,1.005,4.912,1.173,6.62,1.177c0.839-0.052,2.984-0.183,4.103-0.451
		c2.271-0.545,2.688-0.559,5.028-1.575c2.1-0.974,3.523-1.325,4.986-2.403c0,0,2.007-1.572,2.919-2.724
		c0.481-0.604,1.306-3.5,1.161-5.293c-0.069-2.453,0.289-3.845-0.214-5.863c-0.5-2.019-1.354-4.358-2.281-5.8
		c-0.939-1.46-2.956-2.882-5.251-4.017c-1.288-0.636-4.333-1.224-5.627-1.376c-2.453-0.292-4.506,0.823-5.753,2.097
		c-1.082,1.236-3.22,3.803-2.369,6.457c0.771,2.4,1.703,4.959,5.304,4.769c2.473,0.515,5.33-0.229,6.283,0.207
		c1.413,0.802,1.955,2.573,1.443,3.81c-0.359,2.383-2.643,2.668-5.076,2.852c-2.18,0.365-7.715-0.702-8.93-1.613
		c-0.816-0.484-2.067-1.648-2.946-2.435c-0.633-0.568-1.346-1.828-1.837-2.734c-0.598-1.114-0.903-1.933-1.057-2.657
		c-0.185-0.861-0.562-2.506-0.419-4.15c0.099-1.108,0.394-1.582,0.688-3.203c0.589-1.84,1.32-3.239,2.498-4.834
		c1.532-1.556,3.479-3.408,5.38-4.269c1.676-0.886,4.613-1.211,7.268-1.056c2.156,0.206,4.702,0.469,6.389,1.033
		c2.884,1.03,3.708,1.236,6.077,2.73c1.999,1.237,4.012,3.516,5.136,5.402c2.39,4.89,3.76,10.328,2.764,17.653
		c-0.081,1.237-0.466,2.444-1.237,4.084c-0.714,1.511-1.96,3.35-3.838,4.733c-0.754,0.699-1.946,1.56-2.915,2.063
		c-1.375,0.834-2.299,1.269-3.733,1.989c-1.26,0.594-2.73,1.27-4.646,1.802c-2.076,0.821-3.67,0.854-6.281,1.243
		c-2.568,0.646-9.602,0.187-13.792-1.662c-2.857-1.203-6.064-3.321-8.505-5.904c-1.354-1.422-2.681-3.996-3.069-4.523
		c-1.94-3.729-2.319-7.234-2.631-7.973c-0.422-1-0.631-3.244-0.916-4.779c-0.319-1.724-0.122-8.942,1.617-13.574
		c0.981-1.845,1.555-3.49,2.217-4.353c1.193-1.696,1.769-2.755,2.782-3.957c1.528-1.852,2.64-3.364,4.127-4.431
		c3.793-3.083,6.959-4.711,11.245-6.746c5.324-2.168,6.923-1.72,11.964-1.639c2.267,0.02,5.566,0.733,7.189,1.027
		c3.012,0.401,4.738,1.127,6.773,1.695c2.178,0.608,3.436,1.58,5.226,2.659c1.47,0.949,3.202,2.251,4.345,3.308
		c2.927,2.146,4.337,4.401,6.131,7.171c0.327,0.464,2.455,5.002,2.794,6.266c0.158,0.633,0.638,2.449,0.949,3.511
		c0.396,1.685,0.591,3.176,1.036,5.078c0.396,1.957,1.072,5.653,1.364,9.108c0.495,2.965-0.296,9.015-0.76,10.871
		c-1.035,3.463-2.85,7.69-6.428,11.762c-1.519,1.803-3.135,3.199-5.003,4.716c-1.427,1.19-2.653,1.886-4.861,3.202
		c-2.996,1.789-5.276,2.931-9.477,4.574c-1.71,0.549-3.866,1.27-6.188,1.75C51,94.682,46.376,95.08,41.33,94.482
		c-5.047-0.602-10.102-2.024-13.089-2.94c-1.649-0.618-4.841-1.955-6.178-2.679c-0.872-0.441-3.793-2.439-4.288-2.919
		c-2-1.237-6.479-5.449-9.371-9.375c-0.633-1.216-2.911-4.854-3.406-6.448c-1.313-2.697-2.229-5.96-2.766-7.354
		c-0.568-3.254-1.528-5.348-1.902-8.612C0.372,53.387,0.176,51.578,0,50.577c0.254-2.235-0.086-4.339,0.358-6.773
		c0.39-2.053,0.904-2.91,1.028-4.766c0.121-0.794,1.141-3.182,1.415-4.245c0.826-1.75,1.03-3.191,2.107-5.147
		c1.549-3.048,3.172-6.554,5.662-9.617c0.712-0.95,2.729-3.228,3.416-4.017c1.625-1.625,2.578-1.881,4.421-3.51
		c0.19-0.12,1.409-1.508,2.685-1.985c2.111-1.632,3.937-2.23,5.948-3.715c4.029-2.008,5.497-2.686,9.497-4.351
		c2.313-0.825,5.534-1.28,6.694-1.73c2.209-0.137,4.451-0.841,6.773-0.702c2.607-0.024,5.234,0.162,7.855,0.4
		C59.625,0.522,61.931,0.608,65.058,1.288L65.058,1.288z"/>
</g>
</svg>
