<svg xmlns="http://www.w3.org/2000/svg" viewBox="0 0 566.9 77.2" xml:space="preserve"><g fill="#c3c6c5"><path d="m76.5 26.6-1.5-.7c.1-.3.2-.7.2-1.1 0-1-9.1-6.6-25-6.6-15.1 0-21.7 3.8-21.7 8.8 0 13.1 57.2-6.1 57.2 22.9 0 10.5-12.4 18.7-37.3 18.7-23.7 0-30.5-6.2-32.7-6.2-.6 0-.9.4-1.4.6l-1.3-.2 8.1-13.6 1.6.6c0 .3-.2.6-.2 1.3 0 4.7 12.5 8.1 25 8.1 17.7 0 23.7-4.2 23.7-8.5 0-15.7-56.4 3.8-56.4-22.8 0-13.4 17.2-19 36-19 16.9 0 28.7 6.1 29.9 6.1 1.3 0 1.5-.3 1.7-.6l1.6.4-7.5 11.8zM93.2 66.6c2.1 0 2.5-.6 2.5-2.4V13c0-1.8-.4-2.4-2.5-2.4V9.5h63c2.3 0 3.3-.6 3.3-1.8h1.4V21h-1.4c0-1.4-1-2.1-3.3-2.1h-46.7v14.2H140c2.3 0 3.3-.6 3.3-2.1h1.4v13.4h-1.4c0-.6-.2-1.1-.8-1.4-.5-.3-1.4-.5-2.5-.5h-30.5v15.7h47.6c2.3 0 3.3-.6 3.3-1.9h1.4v13.1h-1.4c0-1.1-1-1.8-3.3-1.8H93.2v-1zM247.9 37v1.1c-1 .2-1.8.8-1.8 2.6v15.7c0 1.3.5 1.8 1.7 2v1.1c-6.1 2.9-21.1 9-37.9 9-22.3 0-41.9-9.1-41.9-29.9 0-20.8 22.9-29.9 43.1-29.9 8 0 15.5 1.5 21.1 3 5.1 1.8 8.9 3.3 9.6 3.3.9 0 1.7-.4 2.1-.9l1.4.5-9.4 13.1-1.4-.7c.1-.3.2-.8.2-1.4 0-2.5-10.5-7.4-23.4-7.4-16.3 0-29.5 6.6-29.5 20.1 0 14.1 13.2 20.8 28.2 20.8 12.2 0 19.4-3.4 22.3-5.2v-6.6h-16.7c-1.9 0-3.1.8-3.1 1.9h-1.4V35.1h1.4c0 1.1 1.2 1.9 3.1 1.9h32.3zM252.7 67.7v-1.1c1.7-.1 2.3-.5 3.7-3l26.5-49.1c.5-.8 1.1-1.7 1.1-2.4 0-.9-.8-1.3-2-1.4V9.5h21.2v1.1c-1.5.2-2 .6-2 1.2s.4 1.3.9 2.1l28.2 49.6c1.4 2.5 1.7 3 3.8 3v1.1h-19.3v-1.1c1.3 0 1.7-.4 1.7-.8 0-.9-.9-2-7.4-13.4h-33.3c-5.6 10.4-7.1 12-7.1 13 0 .7.6 1.1 1.5 1.2v1.1l-17.5.1zm50.6-24.5-11.7-20.9-11.5 20.9h23.2z"/></g><path fill="#c3c6c5" d="M546.5 77.2H0V0h546.5v77.2zM4.9 72.3h536.6V4.9H4.9v67.4z"/><g fill="#c3c6c5"><path d="M548.2 1.4h3.3v8.9h1.6V1.4h3.4V0h-8.3zM564.9 0l-3.1 8.1-3-8.1h-2.1v10.3h1.6V2.6l2.8 7.7h1.4l2.9-7.7v7.7h1.5V0z"/></g><path fill="#c3c6c5" d="M350.7 9.5v58.2h186.9V9.5H350.7zm8 40.8c-1.6-10.4 32.9-24.2 77.7-31.4-1 .3-3 .8-3 .8l-5.6 1.4c-22.9 5.6-38.9 15.7-37.5 24.6 1.4 9.1 20.5 14.1 44.8 12.4 1.4-.1 6.1-.3 7.2-.4-45.2 6.1-82.1 3-83.6-7.4zm112 2.3c-9.9 2.3-22.3 4.2-22.3 4.2v-26l6.4 21.1s15.2-2.5 26.8-7.3c10.1-4.2 16.3-9.5 15.9-15.1-.7-9.1-20.1-14-44-12.4-1.6.1-6.9.4-7.9.4 45-6.2 81.9-3.1 83.5 7.3 1.3 8.8-23.4 20.1-58.4 27.8z"/></svg>