<svg xmlns="http://www.w3.org/2000/svg" viewBox="0 0 566.9 98.4" xml:space="preserve"><path fill="#c3c6c5" d="M12 98.4c-6.6 0-12-5.4-12-12V31.9c0-6.6 5.4-12 12-12s12 5.4 12 12v54.5c0 6.7-5.4 12-12 12zM174.7 48h-36.2v-6.5h36.2c6 0 10.8-4.8 10.8-10.8 0-6-4.8-10.8-10.8-10.8h-49.4c-6 0-10.8 4.8-10.8 10.8v55.7c0 6.6 5.4 12 12 12s12-5.4 12-12V69.6h36.2c6 0 10.8-4.8 10.8-10.8 0-5.9-4.8-10.8-10.8-10.8zM540.9 82.9l-15.5-54.2c-.9-3.2-3.1-5.7-5.8-7.2-1.7-1-3.6-1.7-5.7-1.7h-57c-.4 0-.7 0-1.1.1-6.1.6-10.9 5.7-10.9 11.9v54.5c0 6.6 5.4 12 12 12s12-5.4 12-12V41.5h5.3v44.9c0 6.6 5.4 12 12 12s12-5.4 12-12V41.5h6l13.8 48c1.5 5.2 6.3 8.6 11.5 8.6 1.1 0 2.2-.1 3.3-.5 6.2-1.7 9.9-8.3 8.1-14.7zM250.5 19.9h-40.8c-11.3 0-20.6 9.3-20.6 20.6v37.3c0 11.3 9.3 20.6 20.6 20.6h40.8c11.3 0 20.6-9.3 20.6-20.6V40.5c0-11.3-9.3-20.6-20.6-20.6zm-2.6 53.9c0 1.3-1.1 2.4-2.4 2.4h-30.7c-1.3 0-2.4-1.1-2.4-2.4V44.6c0-1.3 1.1-2.4 2.4-2.4h30.7c1.3 0 2.4 1.1 2.4 2.4v29.2zM419.3 19.9h-40.8c-11.3 0-20.6 9.3-20.6 20.6v37.3c0 11.3 9.3 20.6 20.6 20.6h40.8c11.3 0 20.6-9.3 20.6-20.6V40.5c0-11.3-9.2-20.6-20.6-20.6zm-2.6 53.9c0 1.3-1.1 2.4-2.4 2.4h-30.7c-1.3 0-2.4-1.1-2.4-2.4V44.6c0-1.3 1.1-2.4 2.4-2.4h30.7c1.3 0 2.4 1.1 2.4 2.4v29.2zM105.5 19.9H34.7c-3 0-5.4 2.4-5.4 5.4v61.1c0 6.6 5.4 12 12 12s11.9-5.4 11.9-12V44.6c0-1.3 1.1-2.4 2.4-2.4h28.9c1.3 0 2.5 1.1 2.5 2.4v41.9c0 6.6 5.4 12 12 12s12-5.4 12-12V25.3c-.1-3-2.5-5.4-5.5-5.4zM345 76.2h-42.9c-1.3 0-2.4-1.1-2.4-2.4V44.6c0-1.3 1.1-2.4 2.4-2.4H345c6.2 0 11.1-5 11.1-11.1S351.1 20 345 20h-48.7c-11.3 0-20.5 9.2-20.5 20.5V78c0 11.3 9.2 20.5 20.5 20.5H345c6.2 0 11.1-5 11.1-11.1s-4.9-11.2-11.1-11.2z"/><g fill="#c3c6c5"><path d="M541 11.7h-4.1V8.8h11.8v2.9h-4.2v12.4H541V11.7zM563.3 18.3c-.1-1.8-.1-4-.1-6.3-.5 2-1.1 4.1-1.7 5.9l-1.9 6h-2.7l-1.6-5.9c-.5-1.8-1-4-1.4-6-.1 2.1-.2 4.4-.2 6.3l-.3 5.8h-3.2l1-15.3h4.6l1.5 5.1c.5 1.7 1 3.7 1.3 5.4h.1c.4-1.8.9-3.8 1.5-5.5l1.6-5.1h4.5l.8 15.3h-3.4l-.4-5.7z"/></g></svg>