<svg xmlns="http://www.w3.org/2000/svg" viewBox="0 0 566.9 92.9" xml:space="preserve"><g fill="#c3c6c5"><path d="M162.7 4.8c3.6-4.6 11-5.4 15.4-1.5 1.8 1.5 3 3.6 3.7 5.8 8.1 27.9 16.3 55.8 24.4 83.8h-14.4c-2.3-7.7-4.5-15.4-6.7-23.1h-27.8c-2.3 7.7-4.5 15.4-6.7 23.1h-14.3c7.7-26.6 15.4-53.3 23.2-79.9.9-2.8 1.2-5.9 3.2-8.2m8.5 17.1c-3.4 11.6-6.7 23.2-10.1 34.7h20.2c-3.4-11.5-6.7-23.1-10.1-34.7zM263.6 5.4c2.5-3.6 7.3-5.4 11.6-4.3 3.9.9 6.9 4.2 7.9 8l24.3 83.7H293c-2.2-7.7-4.4-15.4-6.7-23.1h-27.7c-2.2 7.7-4.5 15.4-6.7 23.1h-14.3c7.7-26.8 15.5-53.5 23.3-80.3.8-2.3 1.1-5 2.7-7.1m-1.2 51.3h20.1c-3.3-11.6-6.7-23.2-10-34.8-3.3 11.6-6.7 23.2-10.1 34.8zM195.4 1h52v14h-19.1v77.9h-13.7V15h-19.1c-.1-4.6-.1-9.3-.1-14zM322.7 1.6c1.3-.5 2.7-.6 4.1-.6h16.4c9.2.2 18 5.9 22 14.2 2.8 5.4 3 11.6 2.3 17.5-.5 6.2-3.1 12.3-7.8 16.4-2.5 2.2-5.6 3.6-8.3 5.6-1.5 1.1-1.5 3.3-.8 4.9 7.3 11.2 14.8 22.2 22.2 33.3h-16.2c-7.1-10.6-14.1-21.3-21.2-32-2.1-3-2.6-7.1-1.4-10.5 1-2.7 3.3-4.6 5.9-5.6 4.9-1.9 9.8-4.8 12.5-9.5 2.1-3.5 2-7.8 1-11.6-1.1-5-5.9-8.9-11.1-8.7h-10.6c-1.6 0-3.1 1.4-3.1 3v75h-13.8V12.3c0-4.8 3.4-9.3 7.9-10.7zM380 1h14.5v91.9H380V1zM41 .9h7v16.4c0 4.6-.1 9.1-.3 13.7-.3 6.6-.7 13.2-1.8 19.7-.8 4.5-2.3 8.8-4.2 12.9-3.1 6.6-8.1 12.2-13.6 16.9-5 4.4-10.9 7.6-17.1 9.7-3.7 1.3-7.3 2.2-11 2.7V79.1c4.4-.7 8.7-2.2 12.7-4.3 4.7-2.5 9-5.8 12.5-9.8 3.7-4.1 6.6-8.8 8.9-13.8 2.6-5.8 4-12 5-18.2 1.2-7.9 1.7-16 1.9-24V.9zM50.8.9h12.8v92H50.8c-.1-9.8 0-19.6 0-29.4V.9zM66.5.9h6.9c-.1 9.4.2 18.7 1.4 28 .9 7.2 2.2 14.5 5.1 21.2 2.7 6.5 6.7 12.6 11.8 17.4 4.9 4.7 10.8 8.2 17.3 10.3 1.8.6 3.6 1 5.5 1.3v13.8c-3.7-.5-7.3-1.4-10.8-2.6-4.2-1.4-8.2-3.3-11.9-5.7-2.7-1.7-5.2-3.8-7.5-6-3.9-3.6-7.4-7.7-10-12.3-2-3.6-3.5-7.5-4.7-11.4-1.1-4-1.5-8.1-1.9-12.2-.8-8.9-1.1-17.8-1.1-26.6-.1-5.2-.1-10.2-.1-15.2z"/><path d="M50.8.9V93h12.8V1C59.3.9 55 .8 50.8.9M66.5.9V16c-.1 8.9.2 17.8 1.1 26.6.4 4.1.9 8.2 1.9 12.2 1.2 4 2.7 7.9 4.7 11.4 2.6 4.6 6.1 8.7 10 12.3 2.4 2.2 4.8 4.3 7.5 6 3.7 2.4 7.7 4.3 11.9 5.7 3.5 1.2 7.1 2.1 10.8 2.6V79c-1.9-.3-3.7-.7-5.5-1.3-6.4-2.1-12.4-5.6-17.3-10.3-5.1-4.9-9-10.9-11.8-17.4-2.9-6.7-4.2-14-5.1-21.2-1.1-9.3-1.4-18.7-1.4-28-2.2.1-4.5.1-6.8.1M432.9 59.2l1.7 1.3c5.9 4.5 12.9 8.2 20.4 8.2 3.2 0 8.4-1.3 8.4-5.4 0-4.1-4.3-4.4-7.3-5l-6.6-1.2c-12.8-2.3-23.5-9.8-23.5-23.9C426 11.9 445.5 0 465 0c10.3 0 19.7 2.5 28.5 7.9L484.7 31c-5.6-3.8-11.9-6.8-19-6.8-2.9 0-7 1.1-7 4.8 0 3.3 4.1 3.8 6.6 4.4l7.4 1.7c13.9 3.1 23.9 10.5 23.9 25.8 0 21.5-19.6 32.1-39.1 32.1-11.4 0-24.5-3.1-34.6-8.2l10-25.6zM498.1 1.4h68.8v25.3l-18 .1v64.7h-32.7V26.8h-18V1.4z"/></g></svg>