<svg xmlns="http://www.w3.org/2000/svg" viewBox="0 0 566.9 71.2" xml:space="preserve"><g fill="#c3c6c5"><path d="M0 0h30.1v10.5H10.5v12.7h19.6V34H10.5v22.7H0zM64.3 56.7H54.1v-8.8H34.2l-5.9 8.8h-12L56 0h8.4l-.1 56.7zM54.1 37.1V20.6L41.9 37.1h12.2zM68.3 0h11.9L97 38.1 113.9 0h12v56.7h-10.6V28.1l-13.1 28.6H91.5L78.9 28.1v28.6H68.3zM323.3 0h11.9L352 38.1 368.8 0h12.1v56.7h-10.6V28.1l-13.1 28.6h-10.7l-12.6-28.6v28.6h-10.6zM129.3 0h11v56.7h-11zM143.2 0h11v46.3h14.3v10.4h-25.3zM156.3 0h12.2L180 23.2 191.1 0h12.1l-18.1 36v20.7h-10.7V36zM262.8 15.6C258 6.4 248.4.2 237.3.2c-15.9 0-28.8 12.9-28.8 28.8s12.9 28.8 28.8 28.8c11.1 0 20.8-6.3 25.6-15.6l-13 .1c-3.2 3-7.5 4.8-12.2 4.8-10 0-18-8.1-18-18s8.1-18 18-18c4.6 0 8.9 1.8 12.1 4.6l13-.1z"/><path d="M291.2 57.9c-16 0-28.9-12.9-28.9-28.9S275.3.1 291.2.1c16 0 28.9 12.9 28.9 28.9 0 16-12.9 28.9-28.9 28.9zM309.6 29c0-10.1-8.2-18.3-18.3-18.3-10.1 0-18.3 8.2-18.3 18.3s8.2 18.3 18.3 18.3c10.1 0 18.3-8.2 18.3-18.3zM403.4 0c9.6.8 17.1 8.8 17.1 18.6s-7.5 17.8-17.1 18.6h-8.3v19.5h-10.6V0h18.9zm-8.3 10.9v15.4h8.3c3.6-.7 6.4-3.9 6.4-7.7 0-3.8-2.7-7-6.4-7.7h-8.3zM537.3 57.4h-10.5V.5h22.9c9.6.8 17.1 8.8 17.1 18.6 0 8-5 14.8-12.1 17.5L567 57.5h-11.5L538.2 28h-1l.1 29.4zm12.3-30.7c3.6-.7 6.4-3.9 6.4-7.7 0-3.8-2.7-7-6.4-7.7h-12.4v15.4h12.4zM434.4 32.7V41c.7 3.6 3.9 6.4 7.7 6.4 3.8 0 7-2.7 7.7-6.4V.4h10.9V41c-.8 9.6-8.8 17.1-18.6 17.1s-17.8-7.5-18.6-17.1V.4h10.9v32.3zM471.5 57.4h10.8V11.2h9.6V.5h-29.7v10.7h9.3zM524 57.4h-29.5V.5H524v10.4h-18.9v13.5H524V35h-18.9v11.9H524zM0 65.6v5.6h555.4l11.5-5.6z"/></g></svg>