<svg xmlns="http://www.w3.org/2000/svg" width="566.929" height="71.161" xml:space="preserve"><path d="M0 0h30.1v10.491H10.546v12.727H30.1v10.824H10.546V56.66H0zM64.333 56.66H54.079v-8.821H34.215L28.33 56.66H16.256L55.981 0h8.351v56.66zM54.079 37.134V20.602L41.946 37.134h12.133zM68.35 0h11.893l16.771 38.086L113.903 0h12.013v56.66H115.33V28.095L102.247 56.66H91.542L78.935 28.095V56.66H68.35zM323.292 0h11.894l16.77 38.086L368.845 0h12.013v56.66h-10.586V28.095L357.189 56.66h-10.704l-12.609-28.565V56.66h-10.584zM129.255 0h10.956v56.66h-10.956zM143.228 0h10.955v46.331h14.275V56.66h-25.23zM156.286 0h12.172l11.51 23.218L191.145 0h12.062l-18.149 36.039V56.66h-10.623V36.039zM262.755 15.627C257.943 6.46 248.333.208 237.262.208c-15.891 0-28.772 12.882-28.772 28.772 0 15.89 12.882 28.773 28.772 28.773 11.15 0 20.819-6.342 25.595-15.616l-13.038.107a17.973 17.973 0 0 1-12.225 4.774c-9.962 0-18.038-8.076-18.038-18.039s8.076-18.038 18.038-18.038c4.65 0 8.89 1.76 12.089 4.649l13.072.037z"/><path d="M291.226 57.903c-15.973 0-28.923-12.949-28.923-28.923 0-15.974 12.95-28.923 28.923-28.923 15.974 0 28.923 12.949 28.923 28.923 0 15.974-12.949 28.923-28.923 28.923zm18.41-28.923c0-10.106-8.193-18.299-18.299-18.299s-18.3 8.193-18.3 18.299 8.193 18.299 18.3 18.299c10.106 0 18.299-8.193 18.299-18.299zM403.423.007c9.588.771 17.129 8.796 17.129 18.583 0 9.786-7.541 17.812-17.129 18.582l-8.281-.038V56.66h-10.624V0h10.624l8.281.007zm-8.281 10.898v15.368l8.282-.006a7.813 7.813 0 0 0 0-15.355l-8.282-.007zM537.271 57.397h-10.513V.488l14.607-.021 8.281.007c9.588.771 17.129 8.796 17.129 18.583 0 7.996-5.034 14.817-12.107 17.464l12.261 20.876h-11.51l-17.18-29.354h-.969v29.354zM549.648 26.734a7.814 7.814 0 0 0 0-15.355h-12.377v15.363l12.377-.008zM434.39799999999997 32.74l.006 8.282a7.813 7.813 0 0 0 15.356 0l.008-8.282.025-32.252h10.878V32.74l-.007 8.282c-.771 9.588-8.796 17.128-18.583 17.128-9.786 0-17.812-7.54-18.582-17.128l.038-8.282-.018-32.252h10.916l-.037 32.252zM471.537 57.397h10.734V11.214h9.628V.488h-29.657v10.726h9.295zM523.992 57.397H494.5V.488h29.492v10.417h-18.924v13.514h18.924v10.624h-18.924v11.841h18.924zM0 65.649v5.512h555.419l11.51-5.512z"/></svg>