<?xml version="1.0" encoding="utf-8"?>
<!-- Generator: Adobe Illustrator 18.0.0, SVG Export Plug-In . SVG Version: 6.00 Build 0)  -->
<!DOCTYPE svg PUBLIC "-//W3C//DTD SVG 1.1//EN" "http://www.w3.org/Graphics/SVG/1.1/DTD/svg11.dtd">
<svg version="1.1"
	 id="Ebene_1" xmlns:svg="http://www.w3.org/2000/svg" xmlns:inkscape="http://www.inkscape.org/namespaces/inkscape" xmlns:rdf="http://www.w3.org/1999/02/22-rdf-syntax-ns#" xmlns:dc="http://purl.org/dc/elements/1.1/" xmlns:sodipodi="http://sodipodi.sourceforge.net/DTD/sodipodi-0.dtd" xmlns:cc="http://creativecommons.org/ns#" inkscape:version="0.48.5 r10040" sodipodi:docname="coco.svg"
	 xmlns="http://www.w3.org/2000/svg" xmlns:xlink="http://www.w3.org/1999/xlink" x="0px" y="0px" viewBox="0 0 343.6 70.5"
	 enable-background="new 0 0 343.6 70.5" xml:space="preserve">
<defs>
	
	<inkscape:path-effect  id="path-effect4001" is_visible="true" effect="spiro"></inkscape:path-effect>
	<inkscape:path-effect  id="path-effect3993" is_visible="true" effect="spiro"></inkscape:path-effect>
	<inkscape:path-effect  id="path-effect3910" is_visible="true" effect="spiro"></inkscape:path-effect>
	<inkscape:path-effect  id="path-effect3906" is_visible="true" effect="spiro"></inkscape:path-effect>
	<inkscape:path-effect  id="path-effect3902" is_visible="true" effect="spiro"></inkscape:path-effect>
	<inkscape:path-effect  id="path-effect3898" is_visible="true" effect="spiro"></inkscape:path-effect>
	<inkscape:path-effect  id="path-effect3846" is_visible="true" effect="spiro"></inkscape:path-effect>
	<inkscape:path-effect  id="path-effect3842" is_visible="true" effect="spiro"></inkscape:path-effect>
	<inkscape:path-effect  id="path-effect3838" is_visible="true" effect="spiro"></inkscape:path-effect>
	<inkscape:path-effect  id="path-effect4001-2" is_visible="true" effect="spiro"></inkscape:path-effect>
	<inkscape:path-effect  id="path-effect4001-2-5" is_visible="true" effect="spiro"></inkscape:path-effect>
	<inkscape:path-effect  id="path-effect4001-2-5-1" is_visible="true" effect="spiro"></inkscape:path-effect>
</defs>
<sodipodi:namedview  inkscape:cy="39.281553" showgrid="false" borderopacity="1" gridtolerance="10" objecttolerance="10" id="namedview57" guidetolerance="10" bordercolor="#666666" fit-margin-top="0" pagecolor="#ffffff" inkscape:cx="231.6025" inkscape:zoom="1.4142136" fit-margin-left="0" showguides="true" inkscape:guide-bbox="true" fit-margin-bottom="0" inkscape:window-height="706" fit-margin-right="0" inkscape:window-maximized="1" inkscape:current-layer="Ebene_1" inkscape:pageshadow="2" inkscape:pageopacity="0" inkscape:window-width="1366" inkscape:window-y="-8" inkscape:window-x="-8">
	</sodipodi:namedview>
<g id="g4569" transform="matrix(0.81916268,0,0,0.81916268,-1.6623689e-5,0)">
	
		<path id="path3999-4" inkscape:path-effect="#path-effect4001-2" inkscape:original-d="m 333.43068,86.023995 34.39609,0 51.67494,-86.0239913326731 -34.38444,0 z" inkscape:connector-curvature="0" fill="#498CC1" d="
		M333.4,86h34.4l51.7-86h-34.4L333.4,86"/>
	<path id="path3912-8" inkscape:connector-curvature="0" fill="#9e9e9e" stroke="#FFFFFF" stroke-width="1.1104" d="M135,23.5v46.9
		h28.1c8.7-1.4,13.8-6.3,15.7-14.1c0-6.3,0-12.5,0-18.7c-1.9-7.7-6.9-12.6-15.7-14.1H135z M146,32.9h12.5c3.9,0.7,7.6,1.9,9.4,7.8
		l0,12.5c-1.8,5.9-5.5,7.1-9.4,7.8H146L146,32.9L146,32.9z"/>
	
		<path id="path3896" inkscape:path-effect="#path-effect3898" inkscape:original-d="m 14.639798,70.353531 0,-35.925714 -14.07128834,0 -0.004331,-10.935179 43.77975934,0 -4.693319,10.935179 -10.943856,0.0043 0,35.921377 z" inkscape:connector-curvature="0" fill="#9e9e9e" stroke="#FFFFFF" stroke-width="1.1104" d="
		M14.6,70.4V34.4H0.6l0-10.9h43.8l-4.7,10.9l-10.9,0v35.9L14.6,70.4"/>
	<path id="path3900" inkscape:connector-curvature="0" fill="#9e9e9e" stroke="#FFFFFF" stroke-width="1.1104" d="M49,23.5
		L31.8,70.3h14.1l5.4-17.2l5.5,7.8h9.4l3.1,9.3h14.2L66.2,23.5H49z M57.6,36l5.5,14.1H52.2L57.6,36z"/>
	
		<path id="path3908" inkscape:path-effect="#path-effect3910" inkscape:original-d="m 84.95721,70.353531 0,-46.860893 17.22477,0 17.19456,34.380961 0,-34.380961 10.94367,0 -0.009,46.860893 -17.19202,0 -17.196758,-34.351152 -0.0044,34.351152 z" inkscape:connector-curvature="0" fill="#9e9e9e" stroke="#FFFFFF" stroke-width="1.1104" d="
		M85,70.4V23.5h17.2l17.2,34.4V23.5h10.9l0,46.9h-17.2L95.9,36l0,34.4H85"/>
	
		<path id="path3991" inkscape:path-effect="#path-effect3993" sodipodi:nodetypes="cccccccccc" inkscape:original-d="m 191.27104,48.512593 -18.74565,-25.019955 14.05901,0 10.19528,15.597603 10.14621,-15.597603 15.60376,0 -18.80379,24.941709 0.0346,21.919184 -12.47726,0 z" inkscape:connector-curvature="0" fill="#9e9e9e" stroke="#FFFFFF" stroke-width="1.1104" d="
		M191.3,48.5l-18.7-25h14.1l10.2,15.6l10.1-15.6h15.6l-18.8,24.9l0,21.9h-12.5L191.3,48.5"/>
	
		<path id="path3999-4-5" inkscape:path-effect="#path-effect4001-2-5" inkscape:original-d="m 288.27612,86.023995 34.39609,0 L 374.34715,0 339.96271,0 z" inkscape:connector-curvature="0" fill="#197123" d="
		M288.3,86h34.4l51.7-86H340L288.3,86"/>
	
		<path id="path3999-4-5-7" inkscape:path-effect="#path-effect4001-2-5-1" inkscape:original-d="m 243.12157,86.024002 34.39609,0 L 329.1926,3.6673269e-6 l -34.38444,0 z" inkscape:connector-curvature="0" fill="#AE1F19" d="
		M243.1,86h34.4l51.7-86h-34.4L243.1,86"/>
</g>
<g id="flowRoot4066" transform="translate(-94.313277,-12.248728)">
</g>
</svg>
