<svg version="1.2" baseProfile="tiny" xmlns="http://www.w3.org/2000/svg" width="598.189" height="350.26" xml:space="preserve"><g fill="#F4F4F4"><path d="M143.577 201.482a1.169 1.169 0 0 1-1.169-1.168v-22.213a1.17 1.17 0 0 1 1.169-1.168h22.212a1.169 1.169 0 0 1 1.169 1.168v22.213a1.172 1.172 0 0 1-1.169 1.169l-22.212-.001zm21.771-1.609v-21.328H144.02v21.326l21.328.002z"/><path d="M150.967 197.539a5.161 5.161 0 0 1-5.159-5.156v-6.348a5.156 5.156 0 0 1 5.159-5.156h7.434a5.156 5.156 0 0 1 5.157 5.156v6.348a5.158 5.158 0 0 1-5.157 5.156h-7.434zm-3.547-11.504v6.348a3.55 3.55 0 0 0 3.546 3.544h7.434a3.55 3.55 0 0 0 3.545-3.544h.001l-.001-6.348a3.547 3.547 0 0 0-3.545-3.546h-7.434a3.55 3.55 0 0 0-3.546 3.546z"/></g><g fill="#F4F4F4"><path d="M167.574 201.483a1.171 1.171 0 0 1-1.169-1.17l.001-22.211c0-.646.52-1.168 1.168-1.168h22.213c.646 0 1.167.522 1.167 1.168v22.211a1.17 1.17 0 0 1-1.167 1.17h-22.213zm21.769-1.611v-21.328h-21.327v21.328h21.327z"/><path d="M174.962 197.538a5.155 5.155 0 0 1-5.157-5.154l-.002-6.348a5.157 5.157 0 0 1 5.159-5.156h7.435a5.155 5.155 0 0 1 5.156 5.156v6.348a5.157 5.157 0 0 1-5.156 5.155l-7.435-.001zm-3.546-11.503v6.348a3.55 3.55 0 0 0 3.546 3.544h7.435a3.547 3.547 0 0 0 3.544-3.544h.002l-.002-6.348a3.547 3.547 0 0 0-3.544-3.546h-7.435a3.55 3.55 0 0 0-3.546 3.546z"/></g><g fill="#F4F4F4"><path d="M191.569 201.482a1.17 1.17 0 0 1-1.169-1.168l.002-22.213c0-.646.521-1.165 1.167-1.168h22.214a1.169 1.169 0 0 1 1.167 1.168v22.213c0 .646-.523 1.168-1.167 1.169l-22.214-.001zm21.769-1.609v-21.328h-21.327v21.326l21.327.002z"/><path d="M198.958 197.538a5.155 5.155 0 0 1-5.156-5.154v-6.348a5.155 5.155 0 0 1 5.156-5.156h7.434a5.156 5.156 0 0 1 5.158 5.156v6.348a5.158 5.158 0 0 1-5.158 5.155l-7.434-.001zm-3.547-11.503v6.348a3.55 3.55 0 0 0 3.546 3.544h7.434a3.551 3.551 0 0 0 3.547-3.544v-6.348a3.55 3.55 0 0 0-3.547-3.546h-7.434a3.55 3.55 0 0 0-3.546 3.546z"/></g><g fill="#F4F4F4"><path d="M215.565 201.483a1.173 1.173 0 0 1-1.169-1.17l.002-22.211c0-.644.52-1.168 1.167-1.168h22.213c.646 0 1.166.522 1.168 1.168v22.211a1.172 1.172 0 0 1-1.168 1.17h-22.213zm21.77-1.611v-21.328h-21.326l-.001 21.328h21.327z"/><path d="M222.954 197.539a5.158 5.158 0 0 1-5.157-5.156v-6.348a5.155 5.155 0 0 1 5.157-5.156h7.434a5.155 5.155 0 0 1 5.156 5.156v6.348a5.157 5.157 0 0 1-5.156 5.156h-7.434zm-3.547-11.504v6.348a3.55 3.55 0 0 0 3.547 3.544h7.433a3.55 3.55 0 0 0 3.547-3.544v-6.348a3.549 3.549 0 0 0-3.547-3.546h-7.433a3.551 3.551 0 0 0-3.547 3.546z"/></g><g fill="#F4F4F4"><path d="M239.561 201.482a1.169 1.169 0 0 1-1.167-1.168v-22.213a1.17 1.17 0 0 1 1.167-1.168h22.213a1.17 1.17 0 0 1 1.168 1.168v22.213a1.17 1.17 0 0 1-1.168 1.169l-22.213-.001zm21.769-1.609v-21.328h-21.326v21.326l21.326.002z"/><path d="M246.949 197.539a5.158 5.158 0 0 1-5.157-5.156v-6.348a5.155 5.155 0 0 1 5.157-5.156h7.434a5.154 5.154 0 0 1 5.157 5.156v6.348h.001a5.16 5.16 0 0 1-5.159 5.156h-7.433zm-3.547-11.504v6.348a3.552 3.552 0 0 0 3.547 3.544h7.434a3.55 3.55 0 0 0 3.547-3.544v-6.348a3.548 3.548 0 0 0-3.547-3.546h-7.434a3.551 3.551 0 0 0-3.547 3.546z"/></g><g fill="#F4F4F4"><path d="M263.558 201.482a1.17 1.17 0 0 1-1.169-1.168l.001-22.213a1.17 1.17 0 0 1 1.168-1.168h22.213a1.169 1.169 0 0 1 1.167 1.168v22.213a1.17 1.17 0 0 1-1.167 1.169l-22.213-.001zm21.769-1.609v-21.328H264v21.326l21.327.002z"/><path d="M270.946 197.538a5.156 5.156 0 0 1-5.159-5.154v-6.348a5.155 5.155 0 0 1 5.159-5.156h7.434a5.156 5.156 0 0 1 5.157 5.156v6.348a5.159 5.159 0 0 1-5.157 5.155l-7.434-.001zm-3.548-11.503.002 6.348a3.55 3.55 0 0 0 3.547 3.544h7.434a3.547 3.547 0 0 0 3.544-3.544h.002l-.002-6.348a3.546 3.546 0 0 0-3.544-3.546h-7.435a3.55 3.55 0 0 0-3.548 3.546z"/></g><g fill="#F4F4F4"><path d="M287.553 201.482a1.169 1.169 0 0 1-1.168-1.168v-22.213a1.17 1.17 0 0 1 1.168-1.168h22.212a1.167 1.167 0 0 1 1.167 1.168v22.213c0 .646-.521 1.168-1.167 1.169l-22.212-.001zm21.768-1.609.002-21.328h-21.328l-.001 21.326 21.327.002z"/><path d="M294.942 197.538a5.157 5.157 0 0 1-5.159-5.154v-6.348a5.157 5.157 0 0 1 5.159-5.156h7.434a5.155 5.155 0 0 1 5.156 5.156v6.348a5.157 5.157 0 0 1-5.156 5.155l-7.434-.001zm-3.547-11.503v6.348a3.55 3.55 0 0 0 3.547 3.544h7.434a3.55 3.55 0 0 0 3.545-3.544h.002l-.002-6.348a3.547 3.547 0 0 0-3.545-3.546h-7.434a3.55 3.55 0 0 0-3.547 3.546z"/></g><g fill="#F4F4F4"><path d="M311.549 201.483a1.173 1.173 0 0 1-1.169-1.17l.002-22.212c0-.644.521-1.166 1.167-1.168h22.213a1.169 1.169 0 0 1 1.168 1.168v22.212h-.002a1.17 1.17 0 0 1-1.166 1.17h-22.213zm21.77-1.61v-21.329h-21.327v21.327l21.327.002z"/><path d="M318.938 197.538a5.157 5.157 0 0 1-5.159-5.155v-6.347c0-2.85 2.31-5.157 5.159-5.157h7.435a5.154 5.154 0 0 1 5.153 5.157v6.347h.002a5.158 5.158 0 0 1-5.155 5.155h-7.435zm-3.548-11.502.002 6.347a3.55 3.55 0 0 0 3.547 3.544h7.435a3.55 3.55 0 0 0 3.544-3.544v-6.347a3.55 3.55 0 0 0-3.544-3.547l-7.435-.001a3.554 3.554 0 0 0-3.549 3.548z"/></g><g fill="#F4F4F4"><path d="M335.544 201.483a1.173 1.173 0 0 1-1.17-1.169l.002-22.213c0-.645.521-1.167 1.168-1.169h22.213a1.172 1.172 0 0 1 1.169 1.169v22.213h-.003c0 .645-.521 1.167-1.166 1.169h-22.213zm21.769-1.611.002-21.328h-21.329l-.001 21.328h21.328z"/><path d="M342.933 197.538a5.154 5.154 0 0 1-5.155-5.154l-.002-6.348a5.16 5.16 0 0 1 5.157-5.158l7.434.002a5.155 5.155 0 0 1 5.157 5.156v6.348h.002a5.16 5.16 0 0 1-5.159 5.155l-7.434-.001zm-3.547-11.503.002 6.348a3.55 3.55 0 0 0 3.545 3.544h7.434a3.551 3.551 0 0 0 3.547-3.544h.002l-.002-6.348a3.553 3.553 0 0 0-3.547-3.546l-7.434-.001a3.553 3.553 0 0 0-3.547 3.547z"/></g><g fill="#F4F4F4"><path d="M359.539 201.482a1.168 1.168 0 0 1-1.168-1.168l.001-22.212a1.17 1.17 0 0 1 1.167-1.17l22.213.002a1.17 1.17 0 0 1 1.169 1.168v22.212h-.002a1.17 1.17 0 0 1-1.167 1.169l-22.213-.001zm21.772-1.61v-21.327h-21.327l-.002 21.327h21.329z"/><path d="M366.929 197.538a5.156 5.156 0 0 1-5.157-5.156v-6.347a5.157 5.157 0 0 1 5.157-5.156h7.434a5.156 5.156 0 0 1 5.157 5.156v6.347h.002a5.16 5.16 0 0 1-5.159 5.156h-7.434zm-3.547-11.503v6.347a3.554 3.554 0 0 0 3.547 3.545h7.434a3.551 3.551 0 0 0 3.547-3.545v-6.347a3.55 3.55 0 0 0-3.547-3.546l-7.434-.001a3.552 3.552 0 0 0-3.547 3.547z"/></g><g fill="#F4F4F4"><path d="M383.535 201.483a1.172 1.172 0 0 1-1.168-1.169v-22.213c0-.644.521-1.166 1.168-1.168h22.213a1.17 1.17 0 0 1 1.169 1.168v22.213h-.002c0 .646-.522 1.169-1.167 1.169h-22.213zm21.772-1.611v-21.328H383.98v21.328h21.327z"/><path d="M390.925 197.538a5.155 5.155 0 0 1-5.156-5.156l-.002-6.347a5.16 5.16 0 0 1 5.158-5.157l7.434.001a5.156 5.156 0 0 1 5.158 5.156v6.347h.001a5.158 5.158 0 0 1-5.159 5.156h-7.434zm-3.546-11.503v6.347a3.547 3.547 0 0 0 3.546 3.544l7.434.002a3.55 3.55 0 0 0 3.547-3.546v-6.347a3.55 3.55 0 0 0-3.547-3.546l-7.434-.001a3.55 3.55 0 0 0-3.546 3.547z"/></g><g fill="#F4F4F4"><path d="M407.531 201.483a1.173 1.173 0 0 1-1.168-1.168l.003-22.213c0-.646.519-1.168 1.165-1.17l22.213.002c.646 0 1.167.522 1.168 1.168v22.213h-.001a1.17 1.17 0 0 1-1.167 1.168h-22.213zm21.769-1.61v-21.329h-21.324l-.002 21.327 21.326.002z"/><path d="M414.921 197.538a5.157 5.157 0 0 1-5.157-5.154v-6.348a5.16 5.16 0 0 1 5.157-5.158h7.434a5.157 5.157 0 0 1 5.156 5.158v6.348h.002a5.16 5.16 0 0 1-5.158 5.155l-7.434-.001zm-3.547-11.502v6.347a3.548 3.548 0 0 0 3.545 3.544h7.435a3.55 3.55 0 0 0 3.547-3.544h.001l-.001-6.347a3.55 3.55 0 0 0-3.547-3.547h-7.435a3.548 3.548 0 0 0-3.545 3.547z"/></g><g fill="#F4F4F4"><path d="M431.526 201.482a1.167 1.167 0 0 1-1.167-1.169l.001-22.212c0-.644.52-1.167 1.168-1.169l22.213.002c.645 0 1.166.522 1.168 1.167v22.212h-.002c0 .646-.521 1.169-1.166 1.17l-22.215-.001zm21.771-1.609.001-21.328-21.327-.001-.001 21.327 21.327.002z"/><path d="M438.917 197.538a5.153 5.153 0 0 1-5.155-5.155l-.002-6.347a5.16 5.16 0 0 1 5.157-5.157h7.434a5.157 5.157 0 0 1 5.156 5.157v6.347h.001a5.158 5.158 0 0 1-5.157 5.156l-7.434-.001zm-3.547-11.503v6.347a3.55 3.55 0 0 0 3.547 3.545h7.433a3.551 3.551 0 0 0 3.547-3.545v-6.347a3.55 3.55 0 0 0-3.547-3.546l-7.433-.001a3.551 3.551 0 0 0-3.547 3.547z"/></g><g fill="#F4F4F4"><path d="M131.248 225.698a1.167 1.167 0 0 1-1.169-1.166v-22.213a1.17 1.17 0 0 1 1.169-1.169l22.212.002c.645 0 1.167.521 1.168 1.167v22.213h-.001c0 .646-.523 1.166-1.167 1.168l-22.212-.002zm21.768-1.609v-21.327h-21.327v21.327h21.327z"/><path d="M138.636 221.755a5.155 5.155 0 0 1-5.157-5.155v-6.348a5.157 5.157 0 0 1 5.157-5.157h7.435c2.85 0 5.156 2.31 5.157 5.157v6.348a5.158 5.158 0 0 1-5.157 5.157l-7.435-.002zm-3.547-11.503v6.348a3.547 3.547 0 0 0 3.547 3.545h7.435a3.546 3.546 0 0 0 3.545-3.545l.002-6.348a3.555 3.555 0 0 0-3.547-3.547h-7.435a3.553 3.553 0 0 0-3.547 3.547z"/></g><g fill="#F4F4F4"><path d="M155.243 225.698a1.167 1.167 0 0 1-1.168-1.166v-22.213c0-.643.523-1.167 1.168-1.169l22.211.002c.645 0 1.168.521 1.168 1.167v22.213c0 .646-.523 1.166-1.168 1.168l-22.211-.002zm21.77-1.609v-21.327h-21.327v21.327h21.327z"/><path d="M162.631 221.755a5.156 5.156 0 0 1-5.157-5.155l.001-6.348a5.155 5.155 0 0 1 5.155-5.157h7.435a5.158 5.158 0 0 1 5.158 5.157v6.348a5.158 5.158 0 0 1-5.158 5.157l-7.434-.002zm-3.545-11.503v6.348a3.547 3.547 0 0 0 3.545 3.545l7.435.002a3.552 3.552 0 0 0 3.547-3.547v-6.348a3.552 3.552 0 0 0-3.547-3.547h-7.435a3.55 3.55 0 0 0-3.545 3.547z"/></g><g fill="#F4F4F4"><path d="M179.238 225.699a1.168 1.168 0 0 1-1.168-1.165V202.32a1.17 1.17 0 0 1 1.168-1.169h22.213a1.17 1.17 0 0 1 1.168 1.169v22.214c0 .643-.523 1.165-1.168 1.165h-22.213zm21.77-1.61.001-21.328H179.68v21.328h21.328z"/><path d="M186.627 221.757a5.158 5.158 0 0 1-5.157-5.157v-6.348a5.157 5.157 0 0 1 5.157-5.157h7.435a5.156 5.156 0 0 1 5.156 5.157v6.348a5.156 5.156 0 0 1-5.156 5.157h-7.435zm-3.545-11.505v6.348a3.547 3.547 0 0 0 3.546 3.545h7.435a3.549 3.549 0 0 0 3.545-3.545l.001-6.348a3.554 3.554 0 0 0-3.546-3.547h-7.435a3.55 3.55 0 0 0-3.546 3.547z"/></g><g fill="#F4F4F4"><path d="M203.234 225.698a1.166 1.166 0 0 1-1.168-1.166v-22.213a1.17 1.17 0 0 1 1.168-1.169l22.214.002c.644 0 1.167.52 1.167 1.167v22.213c0 .647-.524 1.166-1.167 1.168l-22.214-.002zm21.771-1.609v-21.327h-21.328v21.327h21.328z"/><path d="M210.623 221.755a5.156 5.156 0 0 1-5.157-5.155l.001-6.348a5.156 5.156 0 0 1 5.156-5.157h7.435a5.157 5.157 0 0 1 5.157 5.157v6.348a5.158 5.158 0 0 1-5.157 5.157l-7.435-.002zm-3.547-11.503v6.348a3.55 3.55 0 0 0 3.546 3.545h7.435a3.548 3.548 0 0 0 3.546-3.545v-6.348a3.552 3.552 0 0 0-3.546-3.547h-7.435a3.553 3.553 0 0 0-3.546 3.547z"/></g><g fill="#F4F4F4"><path d="M227.23 225.698a1.168 1.168 0 0 1-1.168-1.166l.001-22.213c0-.646.521-1.167 1.167-1.169l22.212.002a1.17 1.17 0 0 1 1.169 1.167v22.213a1.173 1.173 0 0 1-1.169 1.168l-22.212-.002zm21.77-1.609.002-21.327h-21.327v21.327H249z"/><path d="M234.62 221.755a5.156 5.156 0 0 1-5.158-5.155v-6.348a5.157 5.157 0 0 1 5.158-5.157h7.435a5.155 5.155 0 0 1 5.155 5.157v6.348a5.157 5.157 0 0 1-5.155 5.157l-7.435-.002zm-3.547-11.503v6.348a3.548 3.548 0 0 0 3.547 3.545l7.435.002a3.55 3.55 0 0 0 3.545-3.547v-6.348a3.551 3.551 0 0 0-3.545-3.547h-7.435a3.55 3.55 0 0 0-3.547 3.547z"/></g><g fill="#F4F4F4"><path d="M251.227 225.698a1.168 1.168 0 0 1-1.169-1.166v-22.213a1.172 1.172 0 0 1 1.169-1.169l22.212.002a1.17 1.17 0 0 1 1.169 1.167v22.213a1.172 1.172 0 0 1-1.169 1.168l-22.212-.002zm21.768-1.609v-21.327h-21.326l-.001 21.327h21.327z"/><path d="M258.615 221.755a5.156 5.156 0 0 1-5.157-5.155l.001-6.348a5.156 5.156 0 0 1 5.156-5.157h7.435a5.158 5.158 0 0 1 5.158 5.157v6.348a5.158 5.158 0 0 1-5.158 5.157l-7.435-.002zm-3.546-11.503v6.348a3.547 3.547 0 0 0 3.546 3.545l7.435.002a3.552 3.552 0 0 0 3.547-3.547v-6.348a3.553 3.553 0 0 0-3.547-3.547h-7.435a3.55 3.55 0 0 0-3.546 3.547z"/></g><g fill="#F4F4F4"><path d="M275.223 225.698c-.644 0-1.168-.52-1.168-1.166v-22.213a1.17 1.17 0 0 1 1.168-1.169l22.213.002a1.17 1.17 0 0 1 1.168 1.167v22.213h-.001a1.17 1.17 0 0 1-1.167 1.168l-22.213-.002zm21.767-1.609.001-21.327h-21.327v21.327h21.326z"/><path d="M282.611 221.757a5.158 5.158 0 0 1-5.157-5.157v-6.348a5.157 5.157 0 0 1 5.157-5.157h7.433a5.158 5.158 0 0 1 5.158 5.157v6.348a5.158 5.158 0 0 1-5.158 5.157h-7.433zm-3.545-11.505v6.348a3.546 3.546 0 0 0 3.546 3.545l7.433.002a3.552 3.552 0 0 0 3.547-3.547v-6.348a3.553 3.553 0 0 0-3.547-3.547h-7.433a3.552 3.552 0 0 0-3.546 3.547z"/></g><g fill="#F4F4F4"><path d="M299.218 225.698c-.645 0-1.167-.52-1.168-1.166v-22.213c0-.647.523-1.167 1.168-1.169l22.211.002a1.17 1.17 0 0 1 1.169 1.167v22.213h-.002c0 .644-.521 1.166-1.167 1.168l-22.211-.002zm21.768-1.609.001-21.327h-21.326v21.327h21.325z"/><path d="M306.606 221.755a5.155 5.155 0 0 1-5.157-5.155v-6.348a5.158 5.158 0 0 1 5.157-5.157h7.436a5.158 5.158 0 0 1 5.157 5.157v6.348a5.16 5.16 0 0 1-5.157 5.157l-7.436-.002zm-3.546-11.503v6.348a3.548 3.548 0 0 0 3.547 3.545l7.434.002a3.552 3.552 0 0 0 3.547-3.547v-6.348a3.554 3.554 0 0 0-3.547-3.547h-7.434a3.553 3.553 0 0 0-3.547 3.547z"/></g><g fill="#F4F4F4"><path d="M323.214 225.699a1.17 1.17 0 0 1-1.168-1.167V202.32a1.172 1.172 0 0 1 1.168-1.169h22.212a1.173 1.173 0 0 1 1.169 1.169v22.212h-.002c0 .644-.522 1.166-1.167 1.167h-22.212zm21.768-1.61v-21.326l-21.325-.002-.002 21.327 21.327.001z"/><path d="M330.603 221.755a5.156 5.156 0 0 1-5.157-5.156l.002-6.347a5.155 5.155 0 0 1 5.155-5.156h7.436a5.156 5.156 0 0 1 5.155 5.156v6.347a5.159 5.159 0 0 1-5.155 5.158l-7.436-.002zm-3.547-11.503v6.347a3.55 3.55 0 0 0 3.547 3.546h7.434a3.549 3.549 0 0 0 3.545-3.546l.002-6.347a3.554 3.554 0 0 0-3.547-3.546h-7.434a3.55 3.55 0 0 0-3.547 3.546z"/></g><g fill="#F4F4F4"><path d="M347.211 225.699a1.168 1.168 0 0 1-1.168-1.166v-22.214a1.17 1.17 0 0 1 1.168-1.168h22.211a1.172 1.172 0 0 1 1.169 1.168v22.214h-.002c0 .643-.522 1.165-1.167 1.166h-22.211zm21.768-1.61.002-21.327h-21.327v21.327h21.325z"/><path d="M354.6 221.754a5.156 5.156 0 0 1-5.158-5.154v-6.346a5.157 5.157 0 0 1 5.158-5.159h7.433a5.16 5.16 0 0 1 5.158 5.159v6.346a5.162 5.162 0 0 1-5.158 5.157l-7.433-.003zm-3.547-11.5v6.346a3.55 3.55 0 0 0 3.547 3.546h7.433a3.55 3.55 0 0 0 3.546-3.546v-6.346a3.553 3.553 0 0 0-3.546-3.548l-7.433-.002a3.555 3.555 0 0 0-3.547 3.55z"/></g><g fill="#F4F4F4"><path d="M371.207 225.699a1.17 1.17 0 0 1-1.17-1.167l.002-22.213c0-.643.523-1.167 1.168-1.169l22.213.002c.644 0 1.165.524 1.166 1.167v22.213h-.001c0 .645-.521 1.166-1.165 1.167h-22.213zm21.769-1.61v-21.327H371.65v21.326l21.326.001z"/><path d="M378.596 221.757a5.158 5.158 0 0 1-5.159-5.157l.001-6.348a5.157 5.157 0 0 1 5.158-5.157h7.433a5.156 5.156 0 0 1 5.156 5.157v6.348a5.157 5.157 0 0 1-5.157 5.157h-7.432zm-3.547-11.505v6.348a3.548 3.548 0 0 0 3.547 3.545h7.433a3.548 3.548 0 0 0 3.546-3.545v-6.348a3.553 3.553 0 0 0-3.546-3.547h-7.433a3.551 3.551 0 0 0-3.547 3.547z"/></g><g fill="#F4F4F4"><path d="M395.202 225.698a1.168 1.168 0 0 1-1.169-1.166l.001-22.213c0-.645.522-1.166 1.168-1.168h22.214a1.171 1.171 0 0 1 1.167 1.168v22.213h-.002c0 .644-.521 1.166-1.165 1.168l-22.214-.002zm21.769-1.609.001-21.328h-21.327v21.328h21.326z"/><path d="M402.589 221.757a5.158 5.158 0 0 1-5.157-5.157v-6.347a5.158 5.158 0 0 1 5.157-5.158h7.437a5.158 5.158 0 0 1 5.155 5.158v6.347a5.158 5.158 0 0 1-5.155 5.157h-7.437zm-3.545-11.504v6.347a3.55 3.55 0 0 0 3.545 3.546h7.437a3.55 3.55 0 0 0 3.545-3.546l.002-6.347a3.557 3.557 0 0 0-3.547-3.548h-7.437a3.554 3.554 0 0 0-3.545 3.548z"/></g><g fill="#F4F4F4"><path d="M419.196 225.699a1.168 1.168 0 0 1-1.167-1.167v-22.214a1.171 1.171 0 0 1 1.167-1.168l22.213.002c.643 0 1.168.52 1.17 1.166v22.214h-.002a1.17 1.17 0 0 1-1.168 1.167h-22.213zm21.771-1.61.002-21.326-21.327-.002-.002 21.327 21.327.001z"/><path d="M426.586 221.757a5.157 5.157 0 0 1-5.156-5.157v-6.347a5.158 5.158 0 0 1 5.156-5.159h7.435a5.16 5.16 0 0 1 5.156 5.159v6.347a5.158 5.158 0 0 1-5.156 5.157h-7.435zm-3.546-11.504v6.347a3.549 3.549 0 0 0 3.546 3.545h7.435a3.551 3.551 0 0 0 3.546-3.545v-6.347a3.554 3.554 0 0 0-3.546-3.547h-7.435a3.553 3.553 0 0 0-3.546 3.547z"/></g><g fill="#F4F4F4"><path d="M444.099 225.698c-.646 0-1.166-.52-1.169-1.165v-22.215c0-.646.523-1.167 1.169-1.167h22.214a1.172 1.172 0 0 1 1.169 1.167v22.215h-.002a1.17 1.17 0 0 1-1.167 1.167l-22.214-.002zm21.769-1.609v-21.326l-21.326-.002-.001 21.328h21.327z"/><path d="M451.487 221.755a5.154 5.154 0 0 1-5.155-5.155v-6.347a5.158 5.158 0 0 1 5.155-5.159h7.437a5.158 5.158 0 0 1 5.155 5.159v6.347a5.157 5.157 0 0 1-5.155 5.157l-7.437-.002zm-3.545-11.502v6.347a3.548 3.548 0 0 0 3.545 3.545h7.437a3.55 3.55 0 0 0 3.545-3.545l.001-6.347a3.555 3.555 0 0 0-3.546-3.548h-7.437a3.553 3.553 0 0 0-3.545 3.548z"/></g><g fill="#F4F4F4"><path d="M137.533 249.917a1.167 1.167 0 0 1-1.169-1.167v-22.212a1.173 1.173 0 0 1 1.169-1.169h22.212a1.173 1.173 0 0 1 1.169 1.169v22.212h-.001c0 .646-.521 1.166-1.168 1.168l-22.212-.001zm21.771-1.609V226.98h-21.329v21.326l21.329.002z"/><path d="M144.923 245.974a5.157 5.157 0 0 1-5.158-5.157v-6.347a5.158 5.158 0 0 1 5.158-5.157l7.433.002a5.156 5.156 0 0 1 5.158 5.155v6.347a5.16 5.16 0 0 1-5.158 5.158l-7.433-.001zm-3.548-11.504v6.347a3.551 3.551 0 0 0 3.547 3.547h7.434a3.555 3.555 0 0 0 3.547-3.547l-.002-6.347a3.55 3.55 0 0 0-3.545-3.546h-7.434a3.551 3.551 0 0 0-3.547 3.546z"/></g><g fill="#F4F4F4"><path d="M161.529 249.918a1.169 1.169 0 0 1-1.169-1.168v-22.211a1.17 1.17 0 0 1 1.169-1.169h22.213c.645 0 1.167.522 1.168 1.169v22.211h-.001c0 .647-.521 1.166-1.167 1.168h-22.213zm21.77-1.61V226.98h-21.328v21.328h21.328z"/><path d="M168.918 245.974a5.159 5.159 0 0 1-5.159-5.157v-6.347a5.159 5.159 0 0 1 5.159-5.157l7.433.002a5.157 5.157 0 0 1 5.158 5.155v6.347a5.16 5.16 0 0 1-5.158 5.158l-7.433-.001zm-3.547-11.504v6.347a3.553 3.553 0 0 0 3.548 3.547h7.433a3.553 3.553 0 0 0 3.547-3.547l-.001-6.347a3.551 3.551 0 0 0-3.546-3.546h-7.433a3.551 3.551 0 0 0-3.548 3.546z"/></g><g fill="#F4F4F4"><path d="M185.525 249.917a1.167 1.167 0 0 1-1.169-1.167l.001-22.212a1.17 1.17 0 0 1 1.168-1.169h22.213a1.169 1.169 0 0 1 1.167 1.169v22.212a1.17 1.17 0 0 1-1.167 1.168l-22.213-.001zm21.769-1.609V226.98h-21.328v21.326l21.328.002z"/><path d="M192.914 245.975a5.158 5.158 0 0 1-5.158-5.158v-6.347a5.158 5.158 0 0 1 5.158-5.157h7.434a5.158 5.158 0 0 1 5.157 5.157v6.347a5.158 5.158 0 0 1-5.157 5.158h-7.434zm-3.548-11.505v6.347a3.554 3.554 0 0 0 3.548 3.547h7.434a3.555 3.555 0 0 0 3.547-3.547v-6.347a3.554 3.554 0 0 0-3.547-3.546h-7.434a3.553 3.553 0 0 0-3.548 3.546z"/></g><g fill="#F4F4F4"><path d="M209.522 249.917a1.167 1.167 0 0 1-1.169-1.167v-22.212a1.17 1.17 0 0 1 1.169-1.169h22.211a1.172 1.172 0 0 1 1.168 1.169v22.212c0 .646-.522 1.166-1.168 1.168l-22.211-.001zm21.768-1.609.001-21.328h-21.328v21.326l21.327.002z"/><path d="M216.91 245.974a5.158 5.158 0 0 1-5.158-5.157v-6.347a5.159 5.159 0 0 1 5.158-5.157l7.435.002a5.157 5.157 0 0 1 5.156 5.155v6.347a5.16 5.16 0 0 1-5.156 5.158l-7.435-.001zm-3.547-11.504v6.347a3.553 3.553 0 0 0 3.547 3.547h7.435a3.55 3.55 0 0 0 3.544-3.547v-6.347a3.55 3.55 0 0 0-3.544-3.546h-7.435a3.552 3.552 0 0 0-3.547 3.546z"/></g><g fill="#F4F4F4"><path d="M233.516 249.918a1.167 1.167 0 0 1-1.167-1.168v-22.211a1.169 1.169 0 0 1 1.167-1.169h22.213c.646 0 1.167.522 1.167 1.169v22.211a1.167 1.167 0 0 1-1.167 1.168h-22.213zm21.769-1.61.002-21.328h-21.329v21.328h21.327z"/><path d="M240.906 245.975a5.162 5.162 0 0 1-5.159-5.158v-6.347a5.16 5.16 0 0 1 5.159-5.157l7.435.002a5.155 5.155 0 0 1 5.156 5.155v6.347a5.158 5.158 0 0 1-5.156 5.158h-7.435zm-3.548-11.505v6.347a3.554 3.554 0 0 0 3.548 3.547h7.435a3.553 3.553 0 0 0 3.546-3.547l-.001-6.347a3.55 3.55 0 0 0-3.544-3.546h-7.435a3.552 3.552 0 0 0-3.549 3.546z"/></g><g fill="#F4F4F4"><path d="M257.513 249.917a1.167 1.167 0 0 1-1.169-1.167l.002-22.212a1.17 1.17 0 0 1 1.167-1.169h22.212a1.17 1.17 0 0 1 1.167 1.169v22.212c0 .646-.52 1.166-1.167 1.168l-22.212-.001zm21.768-1.609.001-21.328h-21.328v21.326l21.327.002z"/><path d="M264.902 245.975a5.158 5.158 0 0 1-5.156-5.158l-.001-6.347a5.16 5.16 0 0 1 5.159-5.157l7.435.002a5.155 5.155 0 0 1 5.155 5.155v6.347a5.158 5.158 0 0 1-5.155 5.158h-7.437zm-3.547-11.505v6.347a3.55 3.55 0 0 0 3.546 3.547h7.436a3.552 3.552 0 0 0 3.545-3.547l-.001-6.347a3.55 3.55 0 0 0-3.544-3.546h-7.436a3.55 3.55 0 0 0-3.546 3.546z"/></g><g fill="#F4F4F4"><path d="M281.508 249.917a1.166 1.166 0 0 1-1.167-1.167v-22.212a1.171 1.171 0 0 1 1.167-1.169h22.214a1.17 1.17 0 0 1 1.166 1.169v22.212a1.17 1.17 0 0 1-1.166 1.168l-22.214-.001zm21.769-1.609V226.98h-21.326v21.326l21.326.002z"/><path d="M288.897 245.975a5.158 5.158 0 0 1-5.156-5.158l-.001-6.347a5.16 5.16 0 0 1 5.158-5.157h7.434a5.159 5.159 0 0 1 5.158 5.157v6.347a5.158 5.158 0 0 1-5.158 5.158h-7.435zm-3.546-11.505v6.347a3.552 3.552 0 0 0 3.546 3.547h7.433a3.553 3.553 0 0 0 3.547-3.547v-6.347a3.552 3.552 0 0 0-3.547-3.546h-7.433a3.55 3.55 0 0 0-3.546 3.546z"/></g><g fill="#F4F4F4"><path d="M305.505 249.917a1.168 1.168 0 0 1-1.17-1.167l.002-22.212a1.17 1.17 0 0 1 1.168-1.169h22.213c.645 0 1.166.522 1.167 1.169v22.212h-.001a1.169 1.169 0 0 1-1.166 1.168l-22.213-.001zm21.769-1.609V226.98h-21.328v21.326l21.328.002z"/><path d="M312.892 245.974a5.155 5.155 0 0 1-5.154-5.157l-.003-6.347a5.162 5.162 0 0 1 5.157-5.157l7.436.002a5.155 5.155 0 0 1 5.156 5.155v6.347a5.158 5.158 0 0 1-5.156 5.158l-7.436-.001zm-3.545-11.504v6.347a3.552 3.552 0 0 0 3.545 3.547h7.436a3.552 3.552 0 0 0 3.545-3.547v-6.347a3.552 3.552 0 0 0-3.545-3.546h-7.436a3.551 3.551 0 0 0-3.545 3.546z"/></g><g fill="#F4F4F4"><path d="M329.501 249.917c-.646 0-1.17-.52-1.171-1.167l.001-22.212a1.17 1.17 0 0 1 1.17-1.169h22.211a1.172 1.172 0 0 1 1.168 1.169v22.212c0 .646-.521 1.166-1.168 1.168l-22.211-.001zm21.769-1.609V226.98h-21.327l-.002 21.326 21.329.002z"/><path d="M336.888 245.975a5.156 5.156 0 0 1-5.155-5.158l-.002-6.347a5.16 5.16 0 0 1 5.157-5.157h7.434a5.16 5.16 0 0 1 5.157 5.157v6.347a5.159 5.159 0 0 1-5.157 5.158h-7.434zm-3.547-11.505v6.347a3.555 3.555 0 0 0 3.547 3.547h7.434a3.551 3.551 0 0 0 3.547-3.547l-.002-6.347a3.549 3.549 0 0 0-3.545-3.546h-7.434a3.554 3.554 0 0 0-3.547 3.546z"/></g><g fill="#F4F4F4"><path d="M353.495 249.917a1.168 1.168 0 0 1-1.169-1.167l.002-22.212c0-.643.523-1.167 1.167-1.17h22.212a1.178 1.178 0 0 1 1.171 1.17v22.212h-.002c0 .645-.522 1.166-1.169 1.168l-22.212-.001zm21.771-1.609.001-21.327-21.326-.002-.002 21.327 21.327.002z"/><path d="M360.886 245.975a5.155 5.155 0 0 1-5.155-5.157l-.004-6.347a5.162 5.162 0 0 1 5.159-5.158l7.434.002a5.155 5.155 0 0 1 5.156 5.156v6.347a5.158 5.158 0 0 1-5.156 5.157h-7.434zm-3.547-11.504v6.347a3.55 3.55 0 0 0 3.547 3.545l7.434.002a3.553 3.553 0 0 0 3.544-3.547v-6.347a3.549 3.549 0 0 0-3.544-3.546h-7.434a3.549 3.549 0 0 0-3.547 3.546z"/></g><g fill="#F4F4F4"><path d="M377.49 249.918a1.169 1.169 0 0 1-1.168-1.168l.002-22.212c0-.646.521-1.169 1.166-1.169h22.213a1.17 1.17 0 0 1 1.169 1.169v22.212c0 .646-.522 1.165-1.169 1.167l-22.213.001zm21.771-1.61.002-21.327h-21.33v21.327h21.328z"/><path d="M384.881 245.975a5.156 5.156 0 0 1-5.157-5.158v-6.347a5.157 5.157 0 0 1 5.157-5.157l7.435.002a5.156 5.156 0 0 1 5.156 5.155v6.347a5.158 5.158 0 0 1-5.156 5.158h-7.435zm-3.547-11.505v6.347a3.551 3.551 0 0 0 3.547 3.547h7.435a3.554 3.554 0 0 0 3.547-3.547l-.001-6.347a3.553 3.553 0 0 0-3.546-3.545l-7.435-.002a3.553 3.553 0 0 0-3.547 3.547z"/></g><g fill="#F4F4F4"><path d="M401.487 249.917a1.166 1.166 0 0 1-1.169-1.167v-22.212a1.174 1.174 0 0 1 1.169-1.169h36.719a1.17 1.17 0 0 1 1.169 1.169v22.212h-.002a1.17 1.17 0 0 1-1.167 1.169l-36.719-.002zm36.276-1.609V226.98l-35.834-.002v21.327l35.834.003z"/><path d="M408.876 245.975a5.158 5.158 0 0 1-5.157-5.157v-6.347a5.156 5.156 0 0 1 5.157-5.156h21.943a5.156 5.156 0 0 1 5.155 5.156v6.347a5.157 5.157 0 0 1-5.155 5.157h-21.943zm-3.547-11.504v6.347a3.554 3.554 0 0 0 3.549 3.546h21.941a3.55 3.55 0 0 0 3.543-3.546v-6.347a3.551 3.551 0 0 0-3.543-3.547h-21.941a3.552 3.552 0 0 0-3.549 3.547z"/></g><g fill="#F4F4F4"><path d="M439.99 249.918a1.168 1.168 0 0 1-1.168-1.168v-22.212c0-.646.522-1.167 1.168-1.169h22.213a1.168 1.168 0 0 1 1.166 1.169v22.212c0 .646-.52 1.166-1.166 1.168H439.99zm21.769-1.61.002-21.328h-21.327l-.001 21.326 21.326.002z"/><path d="M447.38 245.975a5.157 5.157 0 0 1-5.158-5.156l-.002-6.348a5.16 5.16 0 0 1 5.16-5.157h7.434a5.157 5.157 0 0 1 5.156 5.157v6.348a5.157 5.157 0 0 1-5.156 5.156h-7.434zm-3.549-11.504v6.348a3.554 3.554 0 0 0 3.549 3.545h7.434a3.553 3.553 0 0 0 3.546-3.545l-.003-6.348a3.546 3.546 0 0 0-3.542-3.546l-7.435-.002a3.555 3.555 0 0 0-3.549 3.548z"/></g><g fill="#F4F4F4"><path d="M137.472 274.136a1.17 1.17 0 0 1-1.168-1.17v-22.212a1.167 1.167 0 0 1 1.168-1.167h34.905c.646 0 1.169.522 1.169 1.167v22.212c0 .646-.524 1.168-1.169 1.17h-34.905zm34.464-1.611v-21.329h-34.02l-.002 21.329h34.022z"/><path d="M144.861 270.19a5.155 5.155 0 0 1-5.156-5.155v-6.347a5.155 5.155 0 0 1 5.156-5.158h20.128a5.156 5.156 0 0 1 5.156 5.158v6.347a5.155 5.155 0 0 1-5.156 5.155h-20.128zm-3.545-11.502v6.347a3.548 3.548 0 0 0 3.545 3.544h20.128a3.55 3.55 0 0 0 3.546-3.544h.001v-6.347a3.552 3.552 0 0 0-3.547-3.547h-20.128a3.55 3.55 0 0 0-3.545 3.547z"/></g><g fill="#F4F4F4"><path d="M203.114 298.132a1.174 1.174 0 0 1-1.17-1.169l.002-22.213c0-.645.521-1.166 1.168-1.168h194.837a1.173 1.173 0 0 1 1.169 1.168v22.213a1.175 1.175 0 0 1-1.169 1.169H203.114zm194.394-1.611v-21.327H203.557l-.001 21.327h193.952z"/><path d="M210.502 294.187a5.157 5.157 0 0 1-5.157-5.156v-6.346a5.157 5.157 0 0 1 5.157-5.158h180.06a5.158 5.158 0 0 1 5.157 5.158v6.346h-.001a5.156 5.156 0 0 1-5.156 5.157l-180.06-.001zm-3.545-11.502v6.346a3.552 3.552 0 0 0 3.546 3.546h180.059a3.55 3.55 0 0 0 3.547-3.546v-6.346a3.551 3.551 0 0 0-3.547-3.548h-180.06a3.547 3.547 0 0 0-3.545 3.548z"/></g><g fill="#F4F4F4"><path d="M174.162 274.136a1.17 1.17 0 0 1-1.168-1.17v-22.212a1.167 1.167 0 0 1 1.168-1.167h22.212c.647 0 1.167.522 1.168 1.167v22.212a1.17 1.17 0 0 1-1.168 1.17h-22.212zm21.769-1.611.001-21.329h-21.328v21.329h21.327z"/><path d="M181.551 270.19a5.156 5.156 0 0 1-5.157-5.156v-6.347a5.158 5.158 0 0 1 5.157-5.158l7.435.001a5.158 5.158 0 0 1 5.157 5.157v6.347a5.156 5.156 0 0 1-5.157 5.156h-7.435zm-3.548-11.502.002 6.347a3.547 3.547 0 0 0 3.546 3.544l7.435.002a3.551 3.551 0 0 0 3.546-3.546v-6.347a3.548 3.548 0 0 0-3.546-3.546h-7.435a3.551 3.551 0 0 0-3.548 3.546z"/></g><g fill="#F4F4F4"><path d="M198.158 274.135a1.166 1.166 0 0 1-1.168-1.167v-22.214a1.17 1.17 0 0 1 1.168-1.169h22.212a1.17 1.17 0 0 1 1.168 1.169v22.214c0 .646-.523 1.167-1.168 1.168l-22.212-.001zm21.769-1.611v-21.327l-21.328-.001v21.328h21.328z"/><path d="M205.546 270.19a5.158 5.158 0 0 1-5.157-5.156v-6.347a5.158 5.158 0 0 1 5.157-5.158h7.435a5.158 5.158 0 0 1 5.156 5.158v6.347a5.156 5.156 0 0 1-5.156 5.156h-7.435zM202 258.688v6.347a3.547 3.547 0 0 0 3.546 3.544h7.435a3.548 3.548 0 0 0 3.545-3.544v-6.347a3.548 3.548 0 0 0-3.545-3.546h-7.435a3.548 3.548 0 0 0-3.546 3.546z"/></g><g fill="#F4F4F4"><path d="M222.154 274.136a1.172 1.172 0 0 1-1.169-1.17v-22.212a1.167 1.167 0 0 1 1.169-1.167h22.213c.647 0 1.166.522 1.167 1.167v22.212a1.17 1.17 0 0 1-1.167 1.17h-22.213zm21.77-1.611v-21.329h-21.327l-.001 21.329h21.328z"/><path d="M229.542 270.19a5.155 5.155 0 0 1-5.156-5.156v-6.347a5.158 5.158 0 0 1 5.156-5.158l7.435.001c2.85 0 5.157 2.31 5.157 5.157v6.347a5.154 5.154 0 0 1-5.157 5.156h-7.435zm-3.547-11.502.002 6.347a3.547 3.547 0 0 0 3.545 3.544l7.435.002a3.552 3.552 0 0 0 3.546-3.546h.001v-6.347a3.551 3.551 0 0 0-3.547-3.546h-7.435a3.551 3.551 0 0 0-3.547 3.546z"/></g><g fill="#F4F4F4"><path d="M246.149 274.136a1.17 1.17 0 0 1-1.168-1.17v-22.212c0-.645.522-1.167 1.168-1.167h22.212a1.17 1.17 0 0 1 1.169 1.167v22.212h-.002c0 .646-.521 1.17-1.167 1.17h-22.212zm21.77-1.611v-21.329h-21.328v21.329h21.328z"/><path d="M253.539 270.189a5.155 5.155 0 0 1-5.158-5.155v-6.347a5.158 5.158 0 0 1 5.158-5.158l7.434.001a5.156 5.156 0 0 1 5.156 5.157v6.347h.001a5.157 5.157 0 0 1-5.158 5.156l-7.433-.001zm-3.547-11.501v6.347a3.549 3.549 0 0 0 3.547 3.544l7.434.002a3.554 3.554 0 0 0 3.547-3.546v-6.347a3.552 3.552 0 0 0-3.547-3.546l-7.434-.001a3.551 3.551 0 0 0-3.547 3.547z"/></g><g fill="#F4F4F4"><path d="M270.145 274.135a1.169 1.169 0 0 1-1.168-1.167v-22.214a1.17 1.17 0 0 1 1.168-1.169h22.211c.647 0 1.169.524 1.169 1.169v22.214a1.17 1.17 0 0 1-1.169 1.168l-22.211-.001zm21.771-1.611v-21.327l-21.327-.001-.002 21.328h21.329z"/><path d="M277.535 270.189a5.156 5.156 0 0 1-5.158-5.155v-6.347a5.159 5.159 0 0 1 5.158-5.158l7.433.001c2.85 0 5.157 2.31 5.157 5.157v6.347a5.156 5.156 0 0 1-5.157 5.156l-7.433-.001zm-3.548-11.501v6.347a3.55 3.55 0 0 0 3.548 3.544l7.433.002a3.552 3.552 0 0 0 3.546-3.546v-6.347a3.55 3.55 0 0 0-3.547-3.546l-7.433-.001a3.553 3.553 0 0 0-3.547 3.547z"/></g><g fill="#F4F4F4"><path d="M294.14 274.135a1.167 1.167 0 0 1-1.168-1.167l.002-22.214a1.17 1.17 0 0 1 1.167-1.169h22.213a1.172 1.172 0 0 1 1.169 1.169v22.214h-.002c0 .645-.522 1.167-1.167 1.168l-22.214-.001zm21.77-1.611v-21.327l-21.327-.001v21.328h21.327z"/><path d="M301.53 270.189a5.154 5.154 0 0 1-5.158-5.155v-6.347a5.158 5.158 0 0 1 5.158-5.158h7.436a5.156 5.156 0 0 1 5.154 5.158v6.347h.002a5.157 5.157 0 0 1-5.156 5.156l-7.436-.001zm-3.548-11.501.002 6.347a3.548 3.548 0 0 0 3.546 3.544h7.436a3.549 3.549 0 0 0 3.544-3.544h.001v-6.347a3.55 3.55 0 0 0-3.545-3.546l-7.436-.001a3.553 3.553 0 0 0-3.548 3.547z"/></g><g fill="#F4F4F4"><path d="M318.137 274.135a1.17 1.17 0 0 1-1.17-1.167v-22.214a1.17 1.17 0 0 1 1.17-1.169h22.213a1.17 1.17 0 0 1 1.168 1.169v22.214c0 .645-.522 1.167-1.168 1.168l-22.213-.001zm21.77-1.611v-21.327l-21.328-.001-.001 21.328h21.329z"/><path d="M325.527 270.19a5.158 5.158 0 0 1-5.159-5.156v-6.347a5.16 5.16 0 0 1 5.159-5.158l7.432.001a5.156 5.156 0 0 1 5.157 5.157v6.347a5.156 5.156 0 0 1-5.157 5.156h-7.432zm-3.548-11.502v6.347a3.55 3.55 0 0 0 3.549 3.544l7.432.002a3.55 3.55 0 0 0 3.545-3.546h.004v-6.347a3.554 3.554 0 0 0-3.549-3.546h-7.432a3.548 3.548 0 0 0-3.549 3.546z"/></g><g fill="#F4F4F4"><path d="M342.132 274.135a1.168 1.168 0 0 1-1.167-1.167v-22.214c0-.645.521-1.169 1.167-1.169h22.215a1.17 1.17 0 0 1 1.167 1.169v22.214a1.17 1.17 0 0 1-1.167 1.168l-22.215-.001zm21.771-1.611v-21.327l-21.327-.001v21.328h21.327z"/><path d="M349.522 270.189a5.154 5.154 0 0 1-5.157-5.155v-6.347a5.157 5.157 0 0 1 5.157-5.158l7.435.001a5.156 5.156 0 0 1 5.155 5.157v6.347a5.155 5.155 0 0 1-5.155 5.156l-7.435-.001zm-3.547-11.501v6.347a3.55 3.55 0 0 0 3.548 3.544l7.435.002a3.552 3.552 0 0 0 3.545-3.546v-6.347a3.55 3.55 0 0 0-3.545-3.546l-7.435-.001a3.551 3.551 0 0 0-3.548 3.547z"/></g><g fill="#F4F4F4"><path d="M366.13 274.135a1.167 1.167 0 0 1-1.168-1.167v-22.214c0-.645.52-1.166 1.168-1.169h22.211a1.172 1.172 0 0 1 1.169 1.169v22.214h-.002c0 .645-.522 1.167-1.167 1.168l-22.211-.001zm21.767-1.611v-21.327l-21.325-.001v21.328h21.325z"/><path d="M373.518 270.19a5.155 5.155 0 0 1-5.156-5.156v-6.347a5.157 5.157 0 0 1 5.156-5.158h7.434a5.158 5.158 0 0 1 5.156 5.158v6.347h.002a5.158 5.158 0 0 1-5.158 5.156h-7.434zm-3.548-11.502.001 6.347a3.55 3.55 0 0 0 3.547 3.544h7.433a3.548 3.548 0 0 0 3.547-3.544h.001v-6.347a3.551 3.551 0 0 0-3.548-3.546h-7.433a3.552 3.552 0 0 0-3.548 3.546z"/></g><g fill="#F4F4F4"><path d="M390.124 274.135a1.169 1.169 0 0 1-1.168-1.167v-22.214c0-.645.52-1.166 1.168-1.168h22.213a1.167 1.167 0 0 1 1.167 1.168v22.214c0 .646-.522 1.167-1.167 1.168l-22.213-.001zm21.77-1.61.001-21.329h-21.328v21.327l21.327.002z"/><path d="M397.514 270.189a5.155 5.155 0 0 1-5.157-5.154v-6.348a5.159 5.159 0 0 1 5.157-5.158l7.435.001a5.155 5.155 0 0 1 5.155 5.157v6.348h.002a5.158 5.158 0 0 1-5.157 5.155l-7.435-.001zm-3.549-11.501.002 6.348a3.549 3.549 0 0 0 3.547 3.544h7.433a3.551 3.551 0 0 0 3.547-3.544v-6.348a3.551 3.551 0 0 0-3.547-3.546h-7.433a3.552 3.552 0 0 0-3.549 3.546z"/></g><g fill="#F4F4F4"><path d="M414.12 274.136a1.17 1.17 0 0 1-1.169-1.169v-22.213a1.168 1.168 0 0 1 1.169-1.168h36.719a1.171 1.171 0 0 1 1.17 1.168v22.213h-.002c0 .645-.521 1.169-1.168 1.169H414.12zm36.276-1.611v-21.328l-35.833-.001v21.329h35.833z"/><path d="M421.509 270.189a5.156 5.156 0 0 1-5.158-5.155v-6.347a5.157 5.157 0 0 1 5.158-5.157h21.941a5.154 5.154 0 0 1 5.154 5.157v6.347h.003a5.16 5.16 0 0 1-5.157 5.157l-21.941-.002zm-3.548-11.501v6.347a3.553 3.553 0 0 0 3.548 3.544l21.941.002a3.55 3.55 0 0 0 3.544-3.546h.003v-6.347a3.554 3.554 0 0 0-3.547-3.546h-21.941a3.554 3.554 0 0 0-3.548 3.546z"/></g><path fill="#F4F4F4" d="M119.897 299.371V172.085a5.157 5.157 0 0 1 5.158-5.157H474.82a5.158 5.158 0 0 1 5.157 5.157v127.286h-.001a5.155 5.155 0 0 1-5.156 5.155l-349.767.003a5.16 5.16 0 0 1-5.156-5.158zm1.611-127.286v127.286a3.553 3.553 0 0 0 3.546 3.547H474.82a3.553 3.553 0 0 0 3.546-3.547V172.085a3.551 3.551 0 0 0-3.546-3.546H125.054a3.55 3.55 0 0 0-3.546 3.546z"/><path fill="#F4F4F4" d="M69.027 313.774a4.069 4.069 0 0 1-4.07-4.068V160.662a4.07 4.07 0 0 1 4.07-4.07h461.822a4.07 4.07 0 0 1 4.068 4.07v149.045a4.068 4.068 0 0 1-4.068 4.068l-461.822-.001zm-2.459-153.112-.002 149.045a2.465 2.465 0 0 0 2.46 2.458h461.822a2.465 2.465 0 0 0 2.46-2.458h-.002l.002-149.045a2.461 2.461 0 0 0-2.46-2.458l-461.822-.003a2.463 2.463 0 0 0-2.458 2.461z"/><path fill="#F4F4F4" d="M66.034 334.991a4.073 4.073 0 0 1-4.069-4.069V24.674a4.073 4.073 0 0 1 4.069-4.072h467.807a4.073 4.073 0 0 1 4.07 4.072v306.248h-.002a4.071 4.071 0 0 1-4.068 4.069H66.034zM63.576 24.674v306.248a2.46 2.46 0 0 0 2.458 2.457h467.807a2.461 2.461 0 0 0 2.458-2.457V24.674a2.462 2.462 0 0 0-2.458-2.46H66.034a2.46 2.46 0 0 0-2.458 2.46z"/><path fill="#F4F4F4" d="M222.569 112.109a1.169 1.169 0 0 1-1.169-1.168l.001-13.599c0-.645.52-1.168 1.167-1.169H375.43a1.17 1.17 0 0 1 1.167 1.169v13.599h-.002c0 .646-.521 1.168-1.165 1.168H222.569zm152.416-1.609.002-12.714-151.975-.001V110.5h151.973zM69.117 82.046a4.43 4.43 0 0 1-4.431-4.431V33.736a4.43 4.43 0 0 1 4.431-4.431h461.64a4.431 4.431 0 0 1 4.433 4.431v43.879h.002a4.433 4.433 0 0 1-4.435 4.431H69.117zm-2.822-48.31.002 43.879a2.821 2.821 0 0 0 2.82 2.82h461.64a2.82 2.82 0 0 0 2.82-2.82h.003l-.003-43.879a2.821 2.821 0 0 0-2.82-2.82H69.117a2.825 2.825 0 0 0-2.822 2.82z"/><g fill="#F4F4F4"><path d="M101.258 39.396a1.53 1.53 0 0 1-1.53-1.529v-2.721a1.53 1.53 0 0 1 1.53-1.53h190.033a1.53 1.53 0 0 1 1.529 1.53v2.721c0 .845-.684 1.529-1.529 1.529H101.258zm189.952-1.609v-2.56H101.337v2.56H291.21z"/><path d="M158.386 38.502v-3.989h1.611v3.989zM160.834 38.502v-3.991h1.611v3.991zM191.116 38.502v-3.989h1.613v3.989zM193.565 38.502v-3.989h1.611v3.989zM240.439 38.502v-3.99h1.611v3.99zM242.887 38.502v-3.989h1.611v3.989zM155.303 38.591V34.33h1.611v4.261zM104.079 38.592V34.33h1.611v4.262zM101.258 46.832a1.53 1.53 0 0 1-1.53-1.531v-2.72a1.53 1.53 0 0 1 1.53-1.53h190.033a1.53 1.53 0 0 1 1.529 1.53v2.72a1.53 1.53 0 0 1-1.529 1.531H101.258zm189.952-1.61v-2.56l-189.873-.002v2.562H291.21z"/><path d="M158.387 45.936v-3.989h1.611v3.989zM160.834 45.936v-3.99h1.611v3.99zM191.116 45.936v-3.99h1.613v3.99zM193.565 45.935v-3.99h1.611v3.99zM240.439 45.936v-3.99h1.611v3.99zM242.887 45.936v-3.99h1.611v3.99zM155.305 46.026v-4.259h1.611v4.259zM104.079 46.026v-4.259h1.611v4.259zM101.258 54.266a1.53 1.53 0 0 1-1.53-1.531v-2.719c0-.847.686-1.53 1.53-1.532h190.033a1.53 1.53 0 0 1 1.529 1.532v2.719a1.53 1.53 0 0 1-1.529 1.531H101.258zm189.952-1.611v-2.56H101.337v2.56H291.21z"/><path d="M158.387 53.371V49.38h1.611v3.991zM160.835 53.371V49.38h1.611v3.991zM191.116 53.37v-3.989h1.613v3.989zM193.565 53.37v-3.989h1.611v3.989zM240.439 53.371v-3.99h1.611v3.99zM242.887 53.371v-3.99h1.611v3.99zM155.305 53.461V49.2h1.611v4.261zM104.079 53.461V49.2h1.611v4.261zM101.258 61.7a1.53 1.53 0 0 1-1.53-1.53v-2.721c0-.845.686-1.527 1.53-1.53h190.033a1.53 1.53 0 0 1 1.529 1.53v2.721c0 .846-.684 1.53-1.529 1.53H101.258zm189.952-1.609V57.53H101.337v2.56l189.873.001z"/><path d="M158.386 60.804v-3.99h1.611v3.99zM160.835 60.804v-3.99h1.611v3.99zM191.116 60.804v-3.99h1.613v3.99zM193.565 60.804v-3.99h1.611v3.99zM240.439 60.804v-3.989h1.611v3.989zM242.887 60.804v-3.99h1.611v3.99zM155.303 60.895v-4.26h1.612v4.26zM104.079 60.895v-4.26h1.611v4.26zM101.258 69.135a1.53 1.53 0 0 1-1.53-1.531v-2.718c0-.847.686-1.531 1.53-1.533h190.033a1.53 1.53 0 0 1 1.529 1.533v2.718a1.53 1.53 0 0 1-1.529 1.531H101.258zm189.952-1.61v-2.56H101.337v2.56H291.21z"/><path d="M158.387 68.239V64.25h1.61v3.989zM160.835 68.239V64.25h1.611v3.989zM191.116 68.241v-3.99h1.613v3.99zM193.565 68.24v-3.99h1.611v3.99zM240.439 68.239v-3.988h1.611v3.988zM242.887 68.24v-3.991h1.611v3.991zM155.304 68.331v-4.262h1.611v4.262zM104.079 68.331v-4.262h1.61v4.262zM101.258 76.57a1.53 1.53 0 0 1-1.53-1.53v-2.721c0-.845.686-1.528 1.53-1.53h190.033a1.53 1.53 0 0 1 1.529 1.53v2.721c0 .846-.684 1.53-1.529 1.53H101.258zm189.952-1.611V72.4H101.337v2.56H291.21v-.001z"/><path d="M158.386 75.674v-3.989h1.611v3.989zM160.835 75.674v-3.989h1.611v3.989zM191.116 75.674v-3.989h1.613v3.989zM193.565 75.674v-3.989h1.611v3.989zM240.439 75.673v-3.987h1.611v3.987zM242.887 75.673v-3.987h1.611v3.987zM155.304 75.765v-4.262h1.612v4.262zM104.079 75.765v-4.262h1.61v4.262zM308.517 39.396a1.528 1.528 0 0 1-1.529-1.53v-2.719a1.53 1.53 0 0 1 1.529-1.531h190.032c.846 0 1.53.687 1.53 1.531v2.719a1.53 1.53 0 0 1-1.53 1.53H308.517zm189.952-1.608v-2.56l-189.874-.001v2.56l189.874.001z"/><path d="M351.834 38.472V34.36h1.612v4.112zM354.372 38.471v-4.11h1.612v4.11zM401.457 38.472v-4.11h1.612v4.11zM403.997 38.471v-4.11h1.61v4.11zM451.082 38.471v-4.11h1.609v4.11zM453.622 38.471v-4.11h1.609v4.11zM308.517 46.836a1.53 1.53 0 0 1-1.529-1.531v-2.719c0-.846.685-1.53 1.529-1.532l190.032.002a1.53 1.53 0 0 1 1.53 1.53v2.719a1.53 1.53 0 0 1-1.53 1.531H308.517zm189.952-1.611v-2.56H308.595v2.56h189.874z"/><path d="M351.834 45.909V41.8h1.612v4.109zM354.372 45.909V41.8h1.612v4.109zM401.457 45.909v-4.11h1.612v4.11zM403.997 45.909V41.8h1.61v4.109zM451.082 45.911v-4.112h1.609v4.112zM453.622 45.911v-4.11h1.609v4.11zM308.517 54.275a1.529 1.529 0 0 1-1.529-1.53v-2.72c0-.846.685-1.53 1.529-1.531h190.032c.846 0 1.53.687 1.53 1.531v2.72a1.533 1.533 0 0 1-1.53 1.531l-190.032-.001zm189.952-1.61v-2.561H308.595v2.561h189.874z"/><path d="M351.834 53.349V49.24h1.612v4.109zM354.372 53.35v-4.111h1.612v4.111zM401.457 53.349v-4.11h1.612v4.11zM403.997 53.349v-4.11h1.61v4.11zM451.082 53.35v-4.109h1.609v4.109zM453.622 53.349v-4.11h1.609v4.11zM308.517 61.714a1.528 1.528 0 0 1-1.529-1.529v-2.72a1.53 1.53 0 0 1 1.529-1.531h190.032a1.53 1.53 0 0 1 1.53 1.531v2.72a1.53 1.53 0 0 1-1.53 1.529H308.517zm189.952-1.61v-2.56H308.595v2.558l189.874.002z"/><path d="M351.834 60.789v-4.112h1.612v4.112zM354.372 60.789v-4.112h1.612v4.112zM401.457 60.788v-4.11h1.612v4.11zM403.997 60.789v-4.112h1.61v4.112zM451.082 60.788v-4.11h1.609v4.11zM453.622 60.788v-4.11h1.609v4.11zM308.517 69.153a1.53 1.53 0 0 1-1.529-1.53v-2.721c0-.845.685-1.529 1.529-1.531l190.032.001c.846 0 1.53.686 1.53 1.529v2.72a1.53 1.53 0 0 1-1.53 1.531H308.517v.001zm189.952-1.611v-2.56H308.595v2.56h189.874z"/><path d="M351.834 68.229v-4.112h1.612v4.112zM354.372 68.229v-4.112h1.612v4.112zM401.457 68.228v-4.11h1.612v4.11zM403.997 68.229v-4.113h1.61v4.113zM451.082 68.227v-4.11h1.609v4.11zM453.622 68.229v-4.113h1.609v4.113zM308.583 76.592a1.529 1.529 0 0 1-1.528-1.53v-2.72c0-.846.685-1.53 1.528-1.53h190.035a1.533 1.533 0 0 1 1.53 1.53v2.72a1.534 1.534 0 0 1-1.53 1.53H308.583zm189.953-1.61v-2.56H308.663v2.558l189.873.002z"/><path d="M351.903 75.667v-4.111h1.611v4.111zM354.441 75.666v-4.11h1.61v4.11zM401.524 75.667v-4.11h1.613v4.11zM404.064 75.666v-4.109h1.612v4.109zM451.15 75.667v-4.111h1.611v4.111zM453.688 75.666v-4.11h1.611v4.11z"/></g></svg>