<svg xmlns="http://www.w3.org/2000/svg" viewBox="0 0 343.6 70.5" xml:space="preserve"><path fill="#498CC1" d="M273.109 70.448h28.179L343.638 0H315.46l-42.351 70.448"/><path fill="#c3c6c5" stroke="#FFF" stroke-width=".9092676000000001" d="M110.587 19.25v38.42h23.018c7.127-1.148 11.305-5.162 12.861-11.551V30.8c-1.556-6.308-5.652-10.322-12.86-11.55h-23.02zm9.01 7.7h10.24c3.195.574 6.226 1.557 7.7 6.39v10.24c-1.474 4.833-4.505 5.816-7.7 6.389h-10.24V26.95zM11.96 57.67V28.18H.49v-8.93h35.88l-3.85 8.93h-8.93v29.407l-11.631.082M40.139 19.25l-14.09 38.337H37.6l4.424-14.09 4.505 6.39h7.7l2.54 7.618H68.4L54.23 19.25h-14.09zm7.045 10.24 4.505 11.55H42.76l4.424-11.55zM69.629 57.67V19.25h14.09l14.089 28.18V19.25h8.929v38.42h-14.09l-14.09-28.18v28.18H69.63"/><path fill="#c3c6c5" stroke="#FFF" stroke-width=".9092676000000001" d="m156.706 39.73-15.319-20.48h11.55l8.356 12.78 8.274-12.78h12.779l-15.4 20.397v17.94h-10.24V39.73"/><path fill="#197123" d="M236.165 70.448h28.179L306.694 0h-28.179l-42.35 70.448"/><path fill="#AE1F19" d="M199.138 70.448h28.18L269.668 0H241.49l-42.35 70.448"/></svg>