<svg xmlns="http://www.w3.org/2000/svg" width="343.64" height="70.468" xml:space="preserve"><path d="M333.43 86.024h34.397L419.502 0h-34.385l-51.686 86.024" style="fill:#498cc1;fill-opacity:1;stroke:none" transform="matrix(.81916 0 0 .81916 0 0)"/><path d="M135 23.469v46.875h28.125c8.75-1.435 13.753-6.337 15.656-14.063.018-6.255.003-12.494 0-18.75-1.903-7.726-6.907-12.627-15.656-14.062H135zm11 9.406h12.469c3.916.695 7.632 1.923 9.406 7.813l-.031 12.5c-1.79 5.88-5.49 7.117-9.407 7.812H145.97l.03-28.125zM14.64 70.354V34.428H.569L.564 23.493h43.78L39.65 34.428l-10.944.004v35.921H14.64M49.031 23.5 31.844 70.344h14.093l5.438-17.156L56.844 61h9.375l3.125 9.344H83.53L66.22 23.5H49.03zm8.531 12.469 5.532 14.093H52.156l5.406-14.093zM84.957 70.354V23.493h17.225l17.195 34.38v-34.38h10.943l-.009 46.86H113.12l-17.197-34.35-.004 34.35h-10.96" style="fill:#000;fill-opacity:1;stroke:#000;stroke-width:1.11043465px;stroke-linecap:butt;stroke-linejoin:miter;stroke-opacity:1" transform="matrix(.81916 0 0 .81916 0 0)"/><path d="m191.271 48.513-18.746-25.02h14.06L196.78 39.09l10.146-15.597h15.604l-18.804 24.941.034 21.92h-12.477l-.012-21.841" style="fill:#000;fill-opacity:1;stroke:#000;stroke-width:1.11043465px;stroke-linecap:butt;stroke-linejoin:miter;stroke-opacity:1" transform="matrix(.81916 0 0 .81916 0 0)"/><path d="M288.276 86.024h34.396L374.347 0h-34.384l-51.687 86.024" style="fill:#197123;fill-opacity:1;stroke:none" transform="matrix(.81916 0 0 .81916 0 0)"/><path d="M243.122 86.024h34.396L329.193 0h-34.385l-51.686 86.024" style="fill:#ae1f19;fill-opacity:1;stroke:none" transform="matrix(.81916 0 0 .81916 0 0)"/><text xml:space="preserve" style="font-size:40px;font-style:normal;font-weight:400;line-height:125%;letter-spacing:0;word-spacing:0;fill:#000;fill-opacity:1;stroke:none;font-family:Open Sans Light;-inkscape-font-specification:Open Sans Light" x="295.303" y="32.582"/></svg>