<svg xmlns="http://www.w3.org/2000/svg" viewBox="0 0 566.9 96.8" xml:space="preserve"><g fill="#c3c6c5"><path d="M353.795 58.246h2.242c2.055 0 5.697.467 7.192 1.307 1.494.84 2.428 1.868 2.895 2.896.467 1.027.748 3.456.748 7.098v14.291c0 4.297-4.577 6.538-6.725 7.005-2.242.467-4.297.748-6.445.748-5.978 0-11.209-1.588-15.599-4.67-4.39-3.176-7.565-8.033-9.527-14.665-1.961-6.632-2.895-14.384-2.895-23.257 0-7.286.934-14.384 2.708-21.39 1.775-6.911 4.857-12.329 9.154-16.252 4.296-3.83 9.714-5.79 16.159-5.79 6.818 0 10.741 1.68 15.785 6.911 5.137 5.324 9.994 11.302 12.89 20.175h4.203V.15h-2.335c-.841 2.615-1.775 4.39-2.803 5.324-1.027.934-2.148 1.4-3.362 1.4-.747 0-3.27-.84-7.472-2.521-4.203-1.681-7.286-2.709-9.154-3.082C357.998.522 355.29.149 350.993.149c-13.917 0-25.5 4.763-34.653 14.384-9.153 9.527-13.73 21.296-13.73 35.12 0 7.752 1.495 14.757 4.484 21.015 2.335 4.857 5.604 9.247 9.807 13.077s8.967 7.005 14.384 9.34 12.33 3.55 20.549 3.55c6.444 0 12.702-.654 18.68-1.962 5.978-1.308 11.77-3.27 17.373-5.978V69.547c0-3.362.187-5.51.56-6.351.655-1.681 1.682-2.802 2.896-3.55 1.214-.747 4.67-1.12 7.846-1.4V55.07h-45.394v3.176z"/><path d="M457.94 82.997c-5.138 3.923-12.05 5.885-20.642 5.885h-4.857c-2.616 0-4.484-.374-5.698-1.121-1.12-.747-1.961-1.681-2.428-2.802-.467-1.12-.654-4.203-.654-9.247v-25.78c4.39 0 9.527.561 11.862 1.682 2.335 1.12 4.296 3.363 6.071 6.725 1.775 3.363 2.896 7.005 3.456 12.236h3.736V23.219h-3.736c-.747 7.1-2.428 11.863-5.044 15.505-2.615 3.643-6.912 5.511-12.703 5.511h-3.642V12.478c0-5.51 4.857-4.857 4.857-4.857h5.79c6.912 0 11.676.374 14.198 1.214 4.296 1.308 7.659 3.456 10.087 6.352 2.336 2.895 4.204 7.659 5.511 14.197h3.083V2.297h-77.432v3.736h2.429c2.989 0 5.324.654 7.005 1.868 1.214.84 2.055 2.055 2.522 3.643.187.934.374 3.456.374 7.66v57.255c0 4.577-.28 7.38-.748 8.5-.653 1.494-1.494 2.615-2.708 3.269-1.588.934-3.736 1.401-6.445 1.401h-2.429v4.297h78.74l4.763-29.142h-4.297c-2.241 8.313-5.884 14.29-11.021 18.213"/><path d="M518.839 1.083c-13.17-.56-24.285 3.736-33.345 12.89-9.06 9.153-13.544 20.548-13.544 34.278 0 12.236 3.456 22.79 10.461 31.664 8.78 11.302 21.203 16.906 37.362 16.906 16.065 0 28.488-5.884 37.267-17.746 6.632-8.874 9.995-19.242 9.995-30.917 0-13.73-4.484-25.125-13.357-34.279-8.967-9.06-20.549-13.357-34.84-12.796m21.016 73.228c-2.148 6.351-5.137 11.022-9.06 13.917-3.082 2.242-6.818 3.363-11.395 3.363-6.725 0-11.956-2.616-15.692-7.94-5.324-7.565-8.032-19.147-8.032-34.933 0-13.263 1.774-23.444 5.23-30.542 4.297-8.593 10.461-12.89 18.68-12.89 4.484 0 8.407 1.214 11.77 3.736 3.362 2.522 6.258 6.819 8.406 12.796 2.242 6.072 3.269 15.225 3.269 27.368.093 10.46-1.027 18.774-3.176 25.125M226.487 96.26c16.065 0 28.488-5.884 37.267-17.746 6.632-8.873 9.995-19.24 9.995-30.916 0-13.73-4.484-25.126-13.357-34.28C251.519 4.166 239.937-.131 225.646.43c-13.17-.56-24.285 3.736-33.345 12.89-9.06 9.153-13.543 20.548-13.543 34.279 0 12.235 3.455 22.79 10.46 31.663 8.78 11.396 21.203 17 37.269 17m-18.868-78.366c4.297-8.593 10.461-12.89 18.68-12.89 4.484 0 8.407 1.215 11.77 3.737 3.362 2.522 6.258 6.818 8.406 12.796 2.241 6.071 3.269 15.225 3.269 27.367 0 10.275-1.12 18.588-3.27 24.939-2.147 6.351-5.136 11.022-9.06 13.917-2.988 2.242-6.818 3.363-11.394 3.363-6.726 0-11.956-2.616-15.692-7.94-5.324-7.565-8.033-19.147-8.033-34.933.094-13.076 1.868-23.257 5.324-30.356"/><path d="M179.972 64.223h-4.297c-2.241 8.126-5.978 14.104-11.115 18.12-5.137 3.924-12.049 5.885-20.548 5.885h-4.857c-2.616 0-4.484-.374-5.698-1.027-1.214-.748-1.962-1.682-2.429-2.802-.467-1.121-.653-4.204-.653-9.247v-25.78c4.39 0 9.527.56 11.862 1.682 2.335 1.12 4.296 3.362 6.071 6.725 1.775 3.362 2.896 7.005 3.456 12.235h3.736V22.66h-3.736c-.747 7.099-2.429 11.862-5.044 15.505-2.615 3.643-6.912 5.51-12.703 5.51h-3.642V11.919c0-5.511 4.857-4.857 4.857-4.857h5.79c7.006 0 11.676.373 14.198 1.214 4.296 1.308 7.659 3.456 10.087 6.351 2.336 2.896 4.204 7.66 5.511 14.198h3.083V1.737H96.469v3.736h2.429c2.989 0 5.324.654 7.005 1.868 1.214.84 2.055 2.055 2.522 3.643.187.934.374 3.456.374 7.659v57.256c0 4.577-.28 7.379-.748 8.5-.654 1.494-1.494 2.615-2.708 3.269-1.588.934-3.737 1.4-6.445 1.4h-2.429v4.297h78.74l4.763-29.142zM31.367 88.975h-2.055c-2.989 0-5.697-.934-8.032-2.802-2.335-1.868-3.456-5.417-3.456-10.648V20.231l59.871 74.722h3.923V18.83c0-4.296.374-5.604 1.121-7.378s1.681-3.083 2.989-3.83c1.308-.747 3.736-1.401 7.472-1.961V1.83H63.498v3.83c4.857-.094 8.406 1.214 10.461 3.83 1.495 1.96 2.242 3.829 2.242 9.34v39.883L29.593 1.83H1.198v3.082C3.907 5.006 4 5.94 5.401 6.687l7.566 7.66v61.365c0 4.857-.934 8.313-2.896 10.274-1.868 2.055-5.324 3.083-10.18 3.083v3.736h31.383l.093-3.83z"/><path stroke="#FFF" stroke-width=".12422599000000001" d="M299.341 48.438c0 6.071-4.95 11.022-11.022 11.022-6.07 0-11.021-4.95-11.021-11.022 0-6.07 4.95-11.021 11.021-11.021 6.072 0 11.022 4.95 11.022 11.021z"/></g></svg>