<svg xmlns="http://www.w3.org/2000/svg" viewBox="0 0 566.9 179.3" xml:space="preserve"><linearGradient id="a" gradientUnits="userSpaceOnUse" x1="478.706" y1="-234.162" x2="478.706" y2="-331.924" gradientTransform="matrix(1 0 0 -1 -.09 -234.162)"><stop offset="0" style="stop-color:#33438a"/><stop offset="1" style="stop-color:#0098df"/></linearGradient><path fill="url(#a)" d="M559.9 7v38.4H390.3v52.4h176.6v-7H397.3V52.4h169.6V0H390.3v7z"/><linearGradient id="b" gradientUnits="userSpaceOnUse" x1="270.465" y1="-234.162" x2="270.465" y2="-331.924" gradientTransform="matrix(1 0 0 -1 -.09 -234.162)"><stop offset="0" style="stop-color:#33438a"/><stop offset="1" style="stop-color:#0098df"/></linearGradient><path fill="url(#b)" d="M364.1 0v7H274v90.8h-97.4v-7h90.1V0z"/><linearGradient id="c" gradientUnits="userSpaceOnUse" x1="88.4" y1="-234.162" x2="88.4" y2="-331.924" gradientTransform="matrix(1 0 0 -1 -.09 -234.162)"><stop offset="0" style="stop-color:#33438a"/><stop offset="1" style="stop-color:#0098df"/></linearGradient><path fill="url(#c)" d="M7 97.8V52.4h169.6V0H0v6.9l169.6.1v38.4H0v52.4z"/><path fill="#c3c6c5" d="M144 131.8v34.4h5.4v-31.1h5s3.6 0 4.8 1.6c1 1.4 1.2 3.9 1.2 5.5 0 1.8-.1 4.6-.7 5.6-.9 1.6-2.4 1.9-3.8 1.9h-3.3v3h4.7s4.3.2 6.1-1.7c2.2-2.3 2.8-5.3 2.8-9.4 0-3.7-1.4-7.5-4.1-8.8-2.3-1.1-6.4-1.1-6.4-1.1l-11.7.1zM170.5 166.2h5.3v-34.4h-5.3zM204.4 139.8l9.8 25.7-5.6 13.8h4.4l16.2-39.5h-4.9l-7.1 19.2-6.6-19.2zM233.3 165.9v-3.2s5.7.2 6.9.2c2.6 0 3.9-.6 4.9-1.6.6-.6 1.1-3.4 1.1-4.4 0-1-.2-3.2-.6-4-.4-.9-1.3-1.7-2.7-1.8-1-.1-2.5-.3-4.3-.4-2.5-.1-4.1-1.4-4.9-2.3-.8-.9-1.8-2.3-1.8-6.6s1.1-6.7 2.2-7.8c1.1-1.1 2.8-1.6 4-1.8 1.4-.3 3.8-.3 3.8-.3l7.5.2v3.2s-5.5-.2-6.7-.2c-2.6 0-3.4.6-4.4 1.6-.6.6-1 2.4-1 3.4s.1 3 .5 3.9c.4.9 1.3 1.7 2.7 1.8 1 .1 2.5.3 4.3.4 2.5.1 4.1 1.4 4.9 2.3.8.9 1.8 2.9 1.8 7.2s-1.1 7.4-2.2 8.5c-1.1 1.1-2.7 1.6-4 1.8-1.4.3-3.8.3-3.8.3l-8.2-.4zM262.6 135.1h-5.4v25.2s.1 2.3.3 3.1c.1.8 1.3 2.8 4.4 2.8l5.6-.1v-3.2s-1.5.1-2.4.1c-.9 0-2-.1-2.2-1.6-.2-1.5-.2-3.4-.2-3.4v-15h6.1v-3.2h-6.1l-.1-4.7zM314.3 166.2h5.4v-26.4h-5.4zM314.3 136.6h5.4v-4.8h-5.4zM336.7 139.6c3.6 0 6.5.8 8 2.1 1.5 1.2 3.4 3.8 3.4 11.4s-1.9 10.1-3.4 11.4c-1.5 1.2-4.4 2-8 2-3.7 0-6.5-.8-8-2s-3.4-3.8-3.4-11.4c0-7.5 1.9-10.1 3.4-11.4 1.5-1.3 4.3-2.1 8-2.1zm-3.7 5c-.7.9-1.6 2.8-1.6 8.3 0 5.5.9 7.4 1.6 8.3.7.9 2.1 1.5 3.8 1.5 1.8 0 3.1-.6 3.9-1.5.7-.9 1.6-2.8 1.6-8.3 0-5.5-.9-7.4-1.6-8.3-.7-.9-2.1-1.5-3.9-1.5-1.7 0-3.1.6-3.8 1.5zM359.2 143.5l5.3-.2c1.4 0 3 .4 3.8 1.4.7.9 1.2 2.1 1.2 3.9v17.6h5.4V148c0-3.4-1-5.4-2.6-6.6-2.3-1.8-6.3-1.6-6.3-1.6l-12 .2v26.1h5.3l-.1-22.6zM303.7 135.1h-5.4v25.2s.1 2.3.3 3.1c.1.8 1.3 2.8 4.4 2.8l5.6-.1v-3.2s-1.5.1-2.4.1c-.9 0-2-.1-2.2-1.6-.2-1.5-.2-3.4-.2-3.4v-15h6v-3.2h-6l-.1-4.7zM196.2 148.5c0-1.8-.5-2.9-1.2-3.9-.8-1-2.4-1.4-3.8-1.4l-7.1.2V140l8.5-.2s4-.2 6.3 1.6c1.6 1.2 2.6 3.2 2.6 6.6v17.8l-10.3.2s-4.7 0-7-.9-3.5-3.5-3.5-7c0-3.4 1.1-5.4 2.6-6.7 2.3-1.8 6.3-1.6 6.3-1.6h3.3v3h-1.8c-1.4 0-2.8.3-3.6 1.2-.7.9-1.1 1.7-1.1 3.6 0 2.4.5 3.4 1.6 4.2 1 .7 2.7.9 4.7.9l3.5-.2v-14zM286.7 148.5c0-1.8-.5-2.9-1.2-3.9-.8-1-2.4-1.4-3.8-1.4l-7.1.2V140l8.5-.2s4-.2 6.3 1.6c1.6 1.2 2.6 3.2 2.6 6.6v17.8l-10.3.2s-4.7 0-7-.9-3.5-3.5-3.5-7c0-3.4 1.1-5.4 2.6-6.7 2.3-1.8 6.3-1.6 6.3-1.6h3.3v3h-1.8c-1.4 0-2.8.3-3.6 1.2-.7.9-1.1 1.7-1.1 3.6 0 2.4.5 3.4 1.6 4.2 1 .7 2.7.9 4.7.9l3.5-.2v-14zM422.9 136.2c.1 4-.1 6-1.5 8-1.2 1.7-3.5 3.3-8.6 3.3l-6.4-.2c-1 0-3.6.3-4.8 1.6-1.1 1.1-1.1 2-1.2 5v8.9H422v4.4h-24.8c-1.6 0-3.2-1.1-3.2-3.3v-6.6c.1-7.8.7-8.9 2.4-10.9 1.2-1.4 3.9-3 7.2-3.1.7 0 1.9-.1 3.6-.1 1.3.1 2.5.1 3.1.1 3 0 4-.5 4.8-1.6.9-1.2 1.4-2.6 1.4-4.9 0-2.2-.4-4.2-1.3-5.1-1-1.1-1.9-1.8-4.7-1.8-7 0-15.2.2-15.2.2V126s8-.3 16.1-.5c5.1-.1 7.9 1.3 9.3 3.1 1.6 2 2.2 3.8 2.2 7.6z"/></svg>