<?xml version="1.0" encoding="utf-8"?>
<!-- Generator: Adobe Illustrator 18.0.0, SVG Export Plug-In . SVG Version: 6.00 Build 0)  -->
<!DOCTYPE svg PUBLIC "-//W3C//DTD SVG 1.1//EN" "http://www.w3.org/Graphics/SVG/1.1/DTD/svg11.dtd">
<svg version="1.1" id="Ebene_2" xmlns="http://www.w3.org/2000/svg" xmlns:xlink="http://www.w3.org/1999/xlink" x="0px" y="0px"
	 viewBox="0 0 566.9 179.3" enable-background="new 0 0 566.9 179.3" xml:space="preserve">
<g>
	
		<linearGradient id="SVGID_1_" gradientUnits="userSpaceOnUse" x1="478.7063" y1="-234.1621" x2="478.7063" y2="-331.9241" gradientTransform="matrix(1 0 0 -1 -8.980000e-002 -234.1621)">
		<stop  offset="0" style="stop-color:#33438A"/>
		<stop  offset="1" style="stop-color:#0098DF"/>
	</linearGradient>
	<polygon fill="url(#SVGID_1_)" points="559.9,7 559.9,45.4 390.3,45.4 390.3,97.8 566.9,97.8 566.9,90.8 397.3,90.8 397.3,52.4 
		566.9,52.4 566.9,0 390.3,0 390.3,7 	"/>
	
		<linearGradient id="SVGID_2_" gradientUnits="userSpaceOnUse" x1="270.4653" y1="-234.1621" x2="270.4653" y2="-331.9241" gradientTransform="matrix(1 0 0 -1 -8.980000e-002 -234.1621)">
		<stop  offset="0" style="stop-color:#33438A"/>
		<stop  offset="1" style="stop-color:#0098DF"/>
	</linearGradient>
	<polygon fill="url(#SVGID_2_)" points="364.1,0 364.1,7 274,7 274,97.8 176.6,97.8 176.6,90.8 266.7,90.8 266.7,0 	"/>
	
		<linearGradient id="SVGID_3_" gradientUnits="userSpaceOnUse" x1="88.3998" y1="-234.1621" x2="88.3998" y2="-331.9241" gradientTransform="matrix(1 0 0 -1 -8.980000e-002 -234.1621)">
		<stop  offset="0" style="stop-color:#33438A"/>
		<stop  offset="1" style="stop-color:#0098DF"/>
	</linearGradient>
	<polygon fill="url(#SVGID_3_)" points="7,97.8 7,52.4 176.6,52.4 176.6,0 0,0 0,6.9 169.6,7 169.6,45.4 0,45.4 0,97.8 	"/>
	<path id="path788" fill="#c3c6c5" d="M144,131.8v34.4h5.4v-31.1h5c0,0,3.6,0,4.8,1.6c1,1.4,1.2,3.9,1.2,5.5c0,1.8-0.1,4.6-0.7,5.6
		c-0.9,1.6-2.4,1.9-3.8,1.9h-3.3v3h4.7c0,0,4.3,0.2,6.1-1.7c2.2-2.3,2.8-5.3,2.8-9.4c0-3.7-1.4-7.5-4.1-8.8
		c-2.3-1.1-6.4-1.1-6.4-1.1L144,131.8L144,131.8z"/>
	<polygon id="polygon790" fill="#c3c6c5" points="170.5,166.2 175.8,166.2 175.8,131.8 170.5,131.8 	"/>
	<polygon id="polygon792" fill="#c3c6c5" points="204.4,139.8 214.2,165.5 208.6,179.3 213,179.3 229.2,139.8 224.3,139.8 
		217.2,159 210.6,139.8 	"/>
	<path id="path794" fill="#c3c6c5" d="M233.3,165.9v-3.2c0,0,5.7,0.2,6.9,0.2c2.6,0,3.9-0.6,4.9-1.6c0.6-0.6,1.1-3.4,1.1-4.4
		c0-1-0.2-3.2-0.6-4c-0.4-0.9-1.3-1.7-2.7-1.8c-1-0.1-2.5-0.3-4.3-0.4c-2.5-0.1-4.1-1.4-4.9-2.3c-0.8-0.9-1.8-2.3-1.8-6.6
		c0-4.3,1.1-6.7,2.2-7.8c1.1-1.1,2.8-1.6,4-1.8c1.4-0.3,3.8-0.3,3.8-0.3l7.5,0.2v3.2c0,0-5.5-0.2-6.7-0.2c-2.6,0-3.4,0.6-4.4,1.6
		c-0.6,0.6-1,2.4-1,3.4c0,1,0.1,3,0.5,3.9c0.4,0.9,1.3,1.7,2.7,1.8c1,0.1,2.5,0.3,4.3,0.4c2.5,0.1,4.1,1.4,4.9,2.3
		c0.8,0.9,1.8,2.9,1.8,7.2s-1.1,7.4-2.2,8.5c-1.1,1.1-2.7,1.6-4,1.8c-1.4,0.3-3.8,0.3-3.8,0.3L233.3,165.9L233.3,165.9z"/>
	<path id="path796" fill="#c3c6c5" d="M262.6,135.1h-5.4v25.2c0,0,0.1,2.3,0.3,3.1c0.1,0.8,1.3,2.8,4.4,2.8l5.6-0.1v-3.2
		c0,0-1.5,0.1-2.4,0.1c-0.9,0-2-0.1-2.2-1.6c-0.2-1.5-0.2-3.4-0.2-3.4V143h6.1v-3.2h-6.1L262.6,135.1L262.6,135.1z"/>
	<polygon id="polygon798" fill="#c3c6c5" points="314.3,166.2 319.7,166.2 319.7,139.8 314.3,139.8 	"/>
	<polygon id="polygon800" fill="#c3c6c5" points="314.3,136.6 319.7,136.6 319.7,131.8 314.3,131.8 	"/>
	<path id="path802" fill="#c3c6c5" d="M336.7,139.6c3.6,0,6.5,0.8,8,2.1c1.5,1.2,3.4,3.8,3.4,11.4s-1.9,10.1-3.4,11.4
		c-1.5,1.2-4.4,2-8,2c-3.7,0-6.5-0.8-8-2c-1.5-1.2-3.4-3.8-3.4-11.4c0-7.5,1.9-10.1,3.4-11.4C330.2,140.4,333,139.6,336.7,139.6z
		 M333,144.6c-0.7,0.9-1.6,2.8-1.6,8.3c0,5.5,0.9,7.4,1.6,8.3c0.7,0.9,2.1,1.5,3.8,1.5c1.8,0,3.1-0.6,3.9-1.5
		c0.7-0.9,1.6-2.8,1.6-8.3c0-5.5-0.9-7.4-1.6-8.3c-0.7-0.9-2.1-1.5-3.9-1.5C335.1,143.1,333.7,143.7,333,144.6z"/>
	<path id="path804" fill="#c3c6c5" d="M359.2,143.5l5.3-0.2c1.4,0,3,0.4,3.8,1.4c0.7,0.9,1.2,2.1,1.2,3.9v17.6h5.4V148
		c0-3.4-1-5.4-2.6-6.6c-2.3-1.8-6.3-1.6-6.3-1.6l-12,0.2v26.1h5.3L359.2,143.5L359.2,143.5z"/>
	<path id="path806" fill="#c3c6c5" d="M303.7,135.1h-5.4v25.2c0,0,0.1,2.3,0.3,3.1c0.1,0.8,1.3,2.8,4.4,2.8l5.6-0.1v-3.2
		c0,0-1.5,0.1-2.4,0.1c-0.9,0-2-0.1-2.2-1.6c-0.2-1.5-0.2-3.4-0.2-3.4V143h6v-3.2h-6L303.7,135.1L303.7,135.1z"/>
	<path id="path808" fill="#c3c6c5" d="M196.2,148.5c0-1.8-0.5-2.9-1.2-3.9c-0.8-1-2.4-1.4-3.8-1.4l-7.1,0.2V140l8.5-0.2
		c0,0,4-0.2,6.3,1.6c1.6,1.2,2.6,3.2,2.6,6.6v17.8l-10.3,0.2c0,0-4.7,0-7-0.9c-2.3-0.9-3.5-3.5-3.5-7c0-3.4,1.1-5.4,2.6-6.7
		c2.3-1.8,6.3-1.6,6.3-1.6h3.3v3h-1.8c-1.4,0-2.8,0.3-3.6,1.2c-0.7,0.9-1.1,1.7-1.1,3.6c0,2.4,0.5,3.4,1.6,4.2
		c1,0.7,2.7,0.9,4.7,0.9l3.5-0.2L196.2,148.5L196.2,148.5z"/>
	<path id="path810" fill="#c3c6c5" d="M286.7,148.5c0-1.8-0.5-2.9-1.2-3.9c-0.8-1-2.4-1.4-3.8-1.4l-7.1,0.2V140l8.5-0.2
		c0,0,4-0.2,6.3,1.6c1.6,1.2,2.6,3.2,2.6,6.6v17.8l-10.3,0.2c0,0-4.7,0-7-0.9c-2.3-0.9-3.5-3.5-3.5-7c0-3.4,1.1-5.4,2.6-6.7
		c2.3-1.8,6.3-1.6,6.3-1.6h3.3v3h-1.8c-1.4,0-2.8,0.3-3.6,1.2c-0.7,0.9-1.1,1.7-1.1,3.6c0,2.4,0.5,3.4,1.6,4.2
		c1,0.7,2.7,0.9,4.7,0.9l3.5-0.2L286.7,148.5L286.7,148.5z"/>
	<path id="path816" fill="#c3c6c5" d="M422.9,136.2c0.1,4-0.1,6-1.5,8c-1.2,1.7-3.5,3.3-8.6,3.3l-6.4-0.2c-1,0-3.6,0.3-4.8,1.6
		c-1.1,1.1-1.1,2-1.2,5v8.9H422v4.4h-23.7l-1.1,0c-1.6,0-3.2-1.1-3.2-3.3v-6.6c0.1-7.8,0.7-8.9,2.4-10.9c1.2-1.4,3.9-3,7.2-3.1
		c0.7,0,1.9-0.1,3.6-0.1c1.3,0.1,2.5,0.1,3.1,0.1c3,0,4-0.5,4.8-1.6c0.9-1.2,1.4-2.6,1.4-4.9c0-2.2-0.4-4.2-1.3-5.1
		c-1-1.1-1.9-1.8-4.7-1.8c-7,0-15.2,0.2-15.2,0.2V126c0,0,8-0.3,16.1-0.5c5.1-0.1,7.9,1.3,9.3,3.1
		C422.3,130.6,422.9,132.4,422.9,136.2L422.9,136.2z"/>
</g>
</svg>
