<?xml version="1.0" encoding="iso-8859-1"?>
<!-- Generator: Adobe Illustrator 18.0.0, SVG Export Plug-In . SVG Version: 6.00 Build 0)  -->
<!DOCTYPE svg PUBLIC "-//W3C//DTD SVG 1.1//EN" "http://www.w3.org/Graphics/SVG/1.1/DTD/svg11.dtd">
<svg version="1.1" id="Layer_1" xmlns="http://www.w3.org/2000/svg" xmlns:xlink="http://www.w3.org/1999/xlink" x="0px" y="0px"
	 width="70px" height="70px" viewBox="172 362 70 70" style="enable-background:new 172 362 70 70;" xml:space="preserve">
<path style="fill:#898989;" d="M222.075,378.156h-30.151c-0.694,0-1.256,0.562-1.256,1.256v35.176c0,0.694,0.563,1.256,1.256,1.256
	h28.266c0.694,0,1.256-0.562,1.256-1.256v-5.025h0.628c0.694,0,1.256-0.562,1.256-1.256v-28.895
	C223.332,378.718,222.769,378.156,222.075,378.156z M201.347,412.075h-7.538c-0.347,0-0.628-0.281-0.628-0.628
	s0.281-0.628,0.628-0.628h7.538c0.347,0,0.628,0.281,0.628,0.628S201.694,412.075,201.347,412.075z M201.347,409.06h-7.538
	c-0.347,0-0.628-0.281-0.628-0.628s0.281-0.628,0.628-0.628h7.538c0.347,0,0.628,0.281,0.628,0.628S201.694,409.06,201.347,409.06z
	 M201.347,406.045h-7.538c-0.347,0-0.628-0.281-0.628-0.628s0.281-0.628,0.628-0.628h7.538c0.347,0,0.628,0.281,0.628,0.628
	S201.694,406.045,201.347,406.045z M201.347,403.03h-7.538c-0.347,0-0.628-0.281-0.628-0.628s0.281-0.628,0.628-0.628h7.538
	c0.347,0,0.628,0.281,0.628,0.628S201.694,403.03,201.347,403.03z M201.347,400.015h-7.538c-0.347,0-0.628-0.281-0.628-0.628
	c0-0.347,0.281-0.628,0.628-0.628h7.538c0.347,0,0.628,0.281,0.628,0.628C201.975,399.734,201.694,400.015,201.347,400.015z
	 M201.347,397h-7.538c-0.347,0-0.628-0.281-0.628-0.628c0-0.347,0.281-0.628,0.628-0.628h7.538c0.347,0,0.628,0.281,0.628,0.628
	C201.975,396.719,201.694,397,201.347,397z M201.347,393.985h-7.538c-0.347,0-0.628-0.281-0.628-0.628
	c0-0.347,0.281-0.628,0.628-0.628h7.538c0.347,0,0.628,0.281,0.628,0.628C201.975,393.704,201.694,393.985,201.347,393.985z
	 M201.347,390.97h-7.538c-0.347,0-0.628-0.281-0.628-0.628c0-0.347,0.281-0.628,0.628-0.628h7.538c0.347,0,0.628,0.281,0.628,0.628
	C201.975,390.689,201.694,390.97,201.347,390.97z M201.347,387.955h-7.538c-0.347,0-0.628-0.281-0.628-0.628
	c0-0.347,0.281-0.628,0.628-0.628h7.538c0.347,0,0.628,0.281,0.628,0.628C201.975,387.674,201.694,387.955,201.347,387.955z
	 M201.347,384.94h-7.538c-0.347,0-0.628-0.281-0.628-0.628c0-0.347,0.281-0.628,0.628-0.628h7.538c0.347,0,0.628,0.281,0.628,0.628
	C201.975,384.658,201.694,384.94,201.347,384.94z M201.347,381.925h-7.538c-0.347,0-0.628-0.281-0.628-0.628
	s0.281-0.628,0.628-0.628h7.538c0.347,0,0.628,0.281,0.628,0.628S201.694,381.925,201.347,381.925z M211.099,408.896l-3.092,4.302
	c-0.097,0.135-0.253,0.215-0.418,0.215c-0.166,0-0.322-0.08-0.418-0.215l-3.092-4.302c-0.113-0.157-0.128-0.364-0.04-0.536
	c0.088-0.172,0.265-0.28,0.458-0.28h6.183c0.193,0,0.37,0.108,0.458,0.28C211.227,408.533,211.212,408.74,211.099,408.896z
	 M220.078,404.904h-16.243v-25.616h16.243V404.904z"/>
</svg>
