<svg xmlns="http://www.w3.org/2000/svg" width="70" height="70" viewBox="172 362 70 70" style="enable-background:new 172 362 70 70" xml:space="preserve"><path style="fill:#898989" d="M222.075 378.156h-30.151c-.694 0-1.256.562-1.256 1.256v35.176c0 .694.563 1.256 1.256 1.256h28.266c.694 0 1.256-.562 1.256-1.256v-5.025h.628c.694 0 1.256-.562 1.256-1.256v-28.895a1.253 1.253 0 0 0-1.255-1.256zm-20.728 33.919h-7.538a.628.628 0 1 1 0-1.256h7.538a.628.628 0 1 1 0 1.256zm0-3.015h-7.538a.628.628 0 1 1 0-1.256h7.538a.628.628 0 1 1 0 1.256zm0-3.015h-7.538a.628.628 0 1 1 0-1.256h7.538a.628.628 0 1 1 0 1.256zm0-3.015h-7.538a.628.628 0 1 1 0-1.256h7.538a.628.628 0 1 1 0 1.256zm0-3.015h-7.538a.628.628 0 1 1 0-1.256h7.538a.628.628 0 1 1 0 1.256zm0-3.015h-7.538a.628.628 0 1 1 0-1.256h7.538a.628.628 0 1 1 0 1.256zm0-3.015h-7.538a.628.628 0 1 1 0-1.256h7.538a.628.628 0 1 1 0 1.256zm0-3.015h-7.538a.628.628 0 1 1 0-1.256h7.538a.628.628 0 1 1 0 1.256zm0-3.015h-7.538a.628.628 0 1 1 0-1.256h7.538a.628.628 0 1 1 0 1.256zm0-3.015h-7.538a.628.628 0 1 1 0-1.256h7.538a.628.628 0 1 1 0 1.256zm0-3.015h-7.538a.628.628 0 1 1 0-1.256h7.538a.628.628 0 1 1 0 1.256zm9.752 26.971-3.092 4.302a.516.516 0 0 1-.836 0l-3.092-4.302a.516.516 0 0 1 .418-.816h6.183a.514.514 0 0 1 .419.816zm8.979-3.992h-16.243v-25.616h16.243v25.616z"/></svg>