<?xml version="1.0" encoding="utf-8"?>
<!-- Generator: Adobe Illustrator 18.0.0, SVG Export Plug-In . SVG Version: 6.00 Build 0)  -->
<!DOCTYPE svg PUBLIC "-//W3C//DTD SVG 1.1//EN" "http://www.w3.org/Graphics/SVG/1.1/DTD/svg11.dtd">
<svg version="1.1" id="Layer_1" xmlns="http://www.w3.org/2000/svg" xmlns:xlink="http://www.w3.org/1999/xlink" x="0px" y="0px"
	 width="70px" height="70px" viewBox="0 0 70 70" enable-background="new 0 0 70 70" xml:space="preserve">
<g>
	<rect x="29" y="26.4" fill="#898989" width="8.9" height="2.9"/>
	<rect x="38.6" y="26.4" fill="#898989" width="0.7" height="2.9"/>
	<path fill="#898989" d="M50.3,23.3H33.7l-3.4-4.7H17.7c-1,0-1.8,0.8-1.8,1.8v28l4.9-12.7v-9.3c0-0.4,0.3-0.7,0.7-0.7h7.1h9.7h1.1
		c0.4,0,0.7,0.3,0.7,0.7v2.9h12v-4.2C52.1,24.1,51.3,23.3,50.3,23.3z"/>
	<path fill="#898989" d="M21.5,33.8l1.1-2.9h0c-0.2,0-0.4-0.2-0.4-0.4s0.2-0.4,0.4-0.4H23c0.2-0.3,0.5-0.6,0.9-0.7h-1.2
		c-0.2,0-0.4-0.2-0.4-0.4s0.2-0.4,0.4-0.4h4.5c0.2,0,0.4,0.2,0.4,0.4c0,0.1,0,0.2-0.1,0.3h0.9v-2.9h-6.7V33.8z M22.6,27.2h4.5
		c0.2,0,0.4,0.2,0.4,0.4s-0.2,0.4-0.4,0.4h-4.5c-0.2,0-0.4-0.2-0.4-0.4S22.4,27.2,22.6,27.2z"/>
</g>
<path fill="#898989" d="M25.3,30.6c-0.2,0-0.3,0.1-0.4,0.3l-7.7,19.2v0.7c0,0.5,0,0.7,0.4,0.7h30c0.8,0,1.5-0.5,1.6-1.2l6.9-18.9
	v-0.7H25.3z M25.3,30.6"/>
</svg>
