<svg xmlns="http://www.w3.org/2000/svg" width="70" height="70" xml:space="preserve"><g fill="#898989"><path d="M29 26.4h8.9v2.9H29zM38.6 26.4h.7v2.9h-.7z"/><path d="M50.3 23.3H33.7l-3.4-4.7H17.7c-1 0-1.8.8-1.8 1.8v28l4.9-12.7v-9.3c0-.4.3-.7.7-.7h17.9c.4 0 .7.3.7.7v2.9h12v-4.2c0-1-.8-1.8-1.8-1.8z"/><path d="m21.5 33.8 1.1-2.9c-.2 0-.4-.2-.4-.4s.2-.4.4-.4h.4c.2-.3.5-.6.9-.7h-1.2c-.2 0-.4-.2-.4-.4s.2-.4.4-.4h4.5c.2 0 .4.2.4.4 0 .1 0 .2-.1.3h.9v-2.9h-6.7v7.4zm1.1-6.6h4.5c.2 0 .4.2.4.4s-.2.4-.4.4h-4.5c-.2 0-.4-.2-.4-.4s.2-.4.4-.4z"/></g><path fill="#898989" d="M25.3 30.6c-.2 0-.3.1-.4.3l-7.7 19.2v.7c0 .5 0 .7.4.7h30c.8 0 1.5-.5 1.6-1.2l6.9-18.9v-.7H25.3zm0 0"/></svg>