<svg xmlns="http://www.w3.org/2000/svg" viewBox="0 0 607 367" xml:space="preserve"><path fill="#F4F4F4" d="M298.8 9c-91.9 0-172.4 32-205 48.5-16.9 8.6-41 24.9-60.1 48.4-19 23.5-33 54.3-29.1 91.7 5 48 27.1 87.1 50.6 114.7C67 326.1 79.1 337 89.6 344.8s19.4 12.4 25.1 13.5c8.1 1.6 18.2 1.7 28-1.9 9.8-3.6 19.3-11 26.1-24.4 13.4-26.4 21.1-52.3 48-66 27-13.8 62.1-16.4 69.6-16.4h33.4c7.5 0 42.6 2.6 69.6 16.4l.2.1c26.8 13.7 34.4 39.6 47.8 65.9 6.8 13.3 16.3 20.8 26.1 24.4s19.9 3.5 28 1.9c5.7-1.1 14.6-5.7 25.1-13.5 10.5-7.8 22.6-18.7 34.4-32.5 23.5-27.6 45.6-66.7 50.6-114.7 3.9-37.4-10-68.2-29.1-91.7-19-23.5-43.2-39.8-60.1-48.4C479.8 41 399.3 9 307.4 9h-8.6zm0 2h8.6c91.5 0 171.7 31.9 204.1 48.3 16.7 8.5 40.7 24.6 59.5 47.8 18.8 23.2 32.4 53.5 28.6 90.2-4.9 47.5-26.8 86.2-50.1 113.6-11.6 13.7-23.6 24.5-34 32.2-10.4 7.7-19.3 12.1-24.3 13.1-7.8 1.5-17.6 1.6-27-1.8-9.4-3.5-18.4-10.5-25-23.4-13.3-26.2-21.2-52.8-48.9-66.9-27.6-14-62.6-16.6-70.5-16.6h-33.4c-7.9 0-42.9 2.5-70.5 16.6-27.7 14.1-35.5 40.7-48.9 66.9-6.6 12.9-15.6 19.9-25 23.4s-19.1 3.4-27 1.8c-5-1-13.9-5.4-24.3-13.1-10.4-7.7-22.4-18.5-34-32.2-23.3-27.4-45.1-66.1-50.1-113.6-3.8-36.8 9.8-67 28.6-90.3C54 83.8 78 67.6 94.7 59.2 127.1 42.9 207.3 11 298.8 11z"/><path fill="#F4F4F4" d="M143.5 68.8c-51.2 0-92.7 41.5-92.7 92.7s41.5 92.7 92.7 92.7 92.7-41.5 92.7-92.7-41.5-92.7-92.7-92.7zm0 2c50.1 0 90.7 40.6 90.7 90.7s-40.6 90.7-90.7 90.7-90.7-40.6-90.7-90.7 40.6-90.7 90.7-90.7z"/><path fill="#F4F4F4" d="M143.5 88.3c-40.4 0-73.1 32.7-73.1 73.1s32.7 73.1 73.1 73.1c40.4 0 73.1-32.8 73.1-73.1.1-40.3-32.7-73.1-73.1-73.1zm0 2c39.3 0 71.1 31.8 71.1 71.1s-31.8 71.1-71.1 71.1-71.1-31.8-71.1-71.1 31.8-71.1 71.1-71.1z"/><path fill="#F4F4F4" d="M143.5 106.6c-30.3 0-54.8 24.5-54.8 54.8 0 30.3 24.5 54.8 54.8 54.8 30.3 0 54.8-24.6 54.8-54.8s-24.5-54.8-54.8-54.8zm0 2c29.2 0 52.8 23.6 52.8 52.8 0 29.2-23.7 52.8-52.8 52.8s-52.8-23.7-52.8-52.8 23.6-52.8 52.8-52.8z"/><path fill="#F4F4F4" d="M133.6 110.8c-1.8 0-3.3 1.5-3.3 3.3V142c0 2.1-.6 3.6-1.7 4.6-1.1 1-2.7 1.6-4.8 1.6H96.2c-1.8 0-3.3 1.5-3.3 3.3v19.9c0 1.8 1.5 3.3 3.3 3.3h27.6c2 0 3.6.6 4.8 1.7 1.1 1.1 1.8 2.7 1.8 4.8v27.6c0 1.8 1.5 3.3 3.3 3.3h19.9c1.8 0 3.3-1.5 3.3-3.3v-27.5c0-2.1.5-3.8 1.5-4.8 1-1.1 2.6-1.8 5.1-1.8H191c1.8 0 3.3-1.5 3.3-3.3v-19.9c0-1.8-1.5-3.3-3.3-3.3h-27.5c-2.6 0-4.2-.7-5.2-1.7s-1.5-2.5-1.5-4.6V114c0-1.8-1.5-3.3-3.3-3.3l-19.9.1zm0 2h19.9c.7 0 1.3.6 1.3 1.3V142c0 2.4.6 4.5 2 6s3.7 2.3 6.6 2.3h27.5c.7 0 1.3.6 1.3 1.3v19.9c0 .7-.6 1.3-1.3 1.3h-27.5c-2.9 0-5.1.9-6.6 2.4s-2 3.8-2 6.2v27.5c0 .7-.6 1.3-1.3 1.3h-19.9c-.7 0-1.3-.6-1.3-1.3v-27.6c0-2.6-.9-4.7-2.4-6.2s-3.7-2.3-6.1-2.3H96.2c-.7 0-1.3-.6-1.3-1.3v-19.9c0-.7.6-1.3 1.3-1.3h27.6c2.5 0 4.7-.7 6.2-2.2 1.5-1.4 2.3-3.5 2.3-6.1v-27.9c0-.8.6-1.3 1.3-1.3z"/><path fill="#F4F4F4" d="M154.8 126.1c0 12.6 10.8 24.1 24.2 24.1v-2c-12.2 0-22.2-10.7-22.2-22.1h-2zM178.2 125.3l-1.1.5-8.8 3.7-.7.3.6.5 5.2 4.8.5.5.3-.7 3.6-8.6.4-1zm-1.8 1.9-2.9 6.7-4.1-3.8 7-2.9zM143.5 149.6c-6.6 0-11.9 5.3-11.9 11.9s5.3 11.9 11.9 11.9 11.9-5.3 11.9-11.9-5.3-11.9-11.9-11.9zm0 2c5.5 0 9.9 4.4 9.9 9.9s-4.4 9.9-9.9 9.9-9.9-4.4-9.9-9.9 4.4-9.9 9.9-9.9zM130.3 126.1c0 12.2-10.7 22.2-22.1 22.2v2c12.6 0 24.1-10.8 24.1-24.2h-2zM107.4 126.8l.5 1.1 3.7 8.7.3.7.5-.6 4.8-5.2.5-.5-.7-.3-8.6-3.6-1-.3zm1.9 1.8 6.8 2.9-3.8 4.1-3-7zM108.2 172.7v2c12.2 0 22.2 10.7 22.2 22.1h2c-.1-12.5-10.9-24.1-24.2-24.1zM113.2 187.3l-.3.7-3.6 8.6-.5 1.1 1.1-.5 8.8-3.7.7-.3-.6-.5-5.2-4.8-.4-.6zm.4 1.7 4.1 3.8-6.9 2.9 2.8-6.7zM178.9 172.7c-12.6 0-24.1 10.8-24.1 24.2h2c0-12.2 10.7-22.2 22.1-22.2v-2zM175.2 185.5l-.5.6-4.8 5.2-.5.5.7.3 8.6 3.6 1.1.5-.5-1.1-3.7-8.8-.4-.8zm-.3 1.8 2.9 6.9-6.8-2.9 3.9-4zM507.5 90.9c-4.1.1-8.4.3-12.9.7-18 1.6-39 5.9-58.4 15-14.5 6.8-30.9 17.2-45 28-14.1 10.8-25.9 22-31 30.8-5.2 8.9-5.8 20.5-3.8 31.5s6.5 21.4 12.2 28c11.2 13 30.6 20.3 55.3 13.7 12.3-3.3 20.2-8.2 28.4-13.9 8.2-5.7 16.7-12.3 30.5-19.1 27.7-13.7 51.3-18.8 64.1-22.9 6.5-2.1 13.2-5.7 18.3-12.4 5.1-6.6 8.6-16.2 8.8-30.1.2-14-5.7-24.9-13.4-32.6s-17.4-12.4-25.1-14.4c-5.8-1.5-15.8-2.5-28-2.3zm.1 2c12.1-.2 21.9.8 27.4 2.2 7.4 1.8 16.8 6.4 24.2 13.8 7.4 7.4 13 17.7 12.8 31.2-.2 13.6-3.5 22.7-8.4 28.9-4.8 6.2-11.1 9.7-17.4 11.7-12.6 4.1-36.4 9.2-64.2 23l-.2.1c-14 6.9-22.7 13.6-30.8 19.3-8.1 5.7-15.7 10.4-27.8 13.7-24.1 6.4-42.5-.7-53.3-13.1-5.3-6.2-9.8-16.3-11.8-27-1.9-10.7-1.2-21.9 3.6-30.2s16.5-19.5 30.5-30.3 30.3-21 44.6-27.7c19.1-9 39.9-13.3 57.7-14.8 4.8-.5 9.1-.7 13.1-.8z"/><path fill="#F4F4F4" d="M522.6 103.5c-8.5-.3-17.5 1.4-26.2 4.8-23 8.9-51.8 20.3-65.3 27.2-10.8 5.5-25 11.4-37.2 19.1-12.1 7.7-22.2 17.4-24.2 30.8-3.9 26.4 19.4 45.9 44.1 41.3 12.2-2.3 20.5-7.2 29-13.1 8.5-5.9 17.4-12.9 31-19.6 13.7-6.7 28.2-11.5 40.9-15.3 12.7-3.9 23.5-6.8 29.8-9.8 6.5-3.1 12.4-9.8 15.3-18.2 2.9-8.4 2.7-18.6-3.1-28.5-5.8-9.9-15.1-15.6-25.8-17.8-2.7-.5-5.5-.8-8.3-.9zm0 2c2.7.1 5.4.4 7.9.9 10.2 2 19 7.4 24.5 16.8s5.7 18.9 3 26.9-8.3 14.3-14.2 17.1c-6 2.8-16.8 5.8-29.6 9.6-12.7 3.9-27.4 8.7-41.2 15.4-13.8 6.7-22.9 13.9-31.3 19.8-8.5 5.9-16.4 10.6-28.2 12.8-23.4 4.4-45.4-13.9-41.8-39 1.8-12.5 11.3-21.8 23.3-29.4 11.9-7.6 26.1-13.4 37-19 13.3-6.8 42.2-18.2 65.2-27.1 8.5-3.4 17.2-5 25.4-4.8z"/><path fill="#F4F4F4" d="M407.1 158.8c-16.9 0-30.6 13.7-30.6 30.6 0 16.9 13.7 30.6 30.6 30.6 16.9 0 30.6-13.7 30.6-30.6 0-16.9-13.7-30.6-30.6-30.6zm0 2c15.8 0 28.6 12.8 28.6 28.6S422.9 218 407.1 218s-28.6-12.8-28.6-28.6 12.8-28.6 28.6-28.6z"/><path fill="#F4F4F4" d="M407.1 164.4c-13.8 0-24.9 11.2-24.9 25s11.2 25 24.9 25c13.8 0 25-11.2 25-25s-11.2-25-25-25zm0 2c12.7 0 23 10.3 23 23s-10.3 23-23 23-22.9-10.3-22.9-23 10.2-23 22.9-23zM463.8 129.4c-16.9 0-30.6 13.7-30.6 30.6s13.7 30.6 30.6 30.6c16.9 0 30.6-13.7 30.6-30.6s-13.7-30.6-30.6-30.6zm0 2c15.8 0 28.6 12.8 28.6 28.6s-12.8 28.6-28.6 28.6-28.6-12.8-28.6-28.6 12.8-28.6 28.6-28.6z"/><path fill="#F4F4F4" d="M463.8 135.1c-13.8 0-25 11.2-25 24.9s11.2 25 25 25 24.9-11.2 24.9-25-11.2-24.9-24.9-24.9zm0 2c12.7 0 22.9 10.2 22.9 22.9s-10.2 23-22.9 23-23-10.3-23-23 10.3-22.9 23-22.9zM523.8 107.8c-16.9 0-30.6 13.7-30.6 30.6s13.7 30.6 30.6 30.6c16.9 0 30.6-13.7 30.6-30.6 0-16.9-13.7-30.6-30.6-30.6zm0 2c15.8 0 28.6 12.8 28.6 28.6S539.6 167 523.8 167s-28.6-12.8-28.6-28.6 12.8-28.6 28.6-28.6z"/><path fill="#F4F4F4" d="M523.8 113.4c-13.8 0-24.9 11.2-24.9 25s11.2 25 24.9 25c13.8 0 25-11.2 25-25s-11.3-25-25-25zm0 2c12.7 0 23 10.3 23 23s-10.3 23-23 23-22.9-10.3-22.9-23 10.2-23 22.9-23zM446.9 59.3c-1.9-.1-3.8.1-5.7.8l-41.1 14.1c-7.5 2.6-11.6 10.9-9 18.4 2.6 7.6 10.9 11.6 18.4 9l41.1-14.2c7.6-2.6 11.6-10.9 9-18.4-1.9-5.6-7.1-9.3-12.7-9.7zm-.1 2c4.9.3 9.3 3.5 10.9 8.4 2.3 6.5-1.2 13.6-7.7 15.8l-41.1 14.2c-6.5 2.3-13.6-1.2-15.8-7.7-2.2-6.5 1.2-13.6 7.7-15.9L441.9 62c1.6-.6 3.3-.8 4.9-.7z"/><path fill="#F4F4F4" d="M445.8 65.8c-1.1-.1-2.2 0-3.3.4L402.8 80c-4.3 1.5-6.5 6.2-5.1 10.4 1.5 4.3 6.2 6.6 10.4 5.1l39.8-13.7c4.3-1.5 6.6-6.2 5.1-10.4-1.1-3.3-4-5.3-7.2-5.6zm-.1 2c2.4.2 4.6 1.7 5.5 4.2 1.1 3.3-.6 6.8-3.8 7.9l-39.8 13.7c-3.3 1.1-6.8-.6-7.9-3.8-1.1-3.3.6-6.8 3.8-7.9l39.8-13.7c.8-.3 1.6-.4 2.4-.4z"/></svg>