<?xml version="1.0" encoding="utf-8"?>
<!-- Generator: Adobe Illustrator 18.0.0, SVG Export Plug-In . SVG Version: 6.00 Build 0)  -->
<!DOCTYPE svg PUBLIC "-//W3C//DTD SVG 1.1//EN" "http://www.w3.org/Graphics/SVG/1.1/DTD/svg11.dtd">
<svg version="1.1"
	 id="Layer_3" xmlns:cc="http://creativecommons.org/ns#" xmlns:dc="http://purl.org/dc/elements/1.1/" xmlns:rdf="http://www.w3.org/1999/02/22-rdf-syntax-ns#"
	 xmlns="http://www.w3.org/2000/svg" xmlns:xlink="http://www.w3.org/1999/xlink" x="0px" y="0px" viewBox="0 0 607 367"
	 enable-background="new 0 0 607 367" xml:space="preserve">
<path id="path3" fill="#F4F4F4" d="M298.8,9c-91.9,0-172.4,32-205,48.5c-16.9,8.6-41,24.9-60.1,48.4c-19,23.5-33,54.3-29.1,91.7
	c5,48,27.1,87.1,50.6,114.7C67,326.1,79.1,337,89.6,344.8s19.4,12.4,25.1,13.5c8.1,1.6,18.2,1.7,28-1.9c9.8-3.6,19.3-11,26.1-24.4
	c13.4-26.4,21.1-52.3,48-66c27-13.8,62.1-16.4,69.6-16.4h33.4c7.5,0,42.6,2.6,69.6,16.4l0.2,0.1c26.8,13.7,34.4,39.6,47.8,65.9
	c6.8,13.3,16.3,20.8,26.1,24.4s19.9,3.5,28,1.9c5.7-1.1,14.6-5.7,25.1-13.5c10.5-7.8,22.6-18.7,34.4-32.5
	c23.5-27.6,45.6-66.7,50.6-114.7c3.9-37.4-10-68.2-29.1-91.7c-19-23.5-43.2-39.8-60.1-48.4C479.8,41,399.3,9,307.4,9L298.8,9
	L298.8,9z M298.8,11h8.6c91.5,0,171.7,31.9,204.1,48.3c16.7,8.5,40.7,24.6,59.5,47.8c18.8,23.2,32.4,53.5,28.6,90.2
	c-4.9,47.5-26.8,86.2-50.1,113.6c-11.6,13.7-23.6,24.5-34,32.2c-10.4,7.7-19.3,12.1-24.3,13.1c-7.8,1.5-17.6,1.6-27-1.8
	c-9.4-3.5-18.4-10.5-25-23.4c-13.3-26.2-21.2-52.8-48.9-66.9c-27.6-14-62.6-16.6-70.5-16.6h-33.4c-7.9,0-42.9,2.5-70.5,16.6l0,0
	c-27.7,14.1-35.5,40.7-48.9,66.9c-6.6,12.9-15.6,19.9-25,23.4c-9.4,3.5-19.1,3.4-27,1.8c-5-1-13.9-5.4-24.3-13.1
	c-10.4-7.7-22.4-18.5-34-32.2c-23.3-27.4-45.1-66.1-50.1-113.6c-3.8-36.8,9.8-67,28.6-90.3c18.8-23.2,42.8-39.4,59.5-47.8
	C127.1,42.9,207.3,11,298.8,11L298.8,11z"/>
<path id="circle5" fill="#F4F4F4" d="M143.5,68.8c-51.2,0-92.7,41.5-92.7,92.7s41.5,92.7,92.7,92.7s92.7-41.5,92.7-92.7
	S194.7,68.8,143.5,68.8z M143.5,70.8c50.1,0,90.7,40.6,90.7,90.7s-40.6,90.7-90.7,90.7s-90.7-40.6-90.7-90.7S93.4,70.8,143.5,70.8z"
	/>
<path id="circle7" fill="#F4F4F4" d="M143.5,88.3c-40.4,0-73.1,32.7-73.1,73.1s32.7,73.1,73.1,73.1c40.4,0,73.1-32.8,73.1-73.1
	C216.7,121.1,183.9,88.3,143.5,88.3z M143.5,90.3c39.3,0,71.1,31.8,71.1,71.1s-31.8,71.1-71.1,71.1s-71.1-31.8-71.1-71.1
	S104.2,90.3,143.5,90.3z"/>
<path id="circle9" fill="#F4F4F4" d="M143.5,106.6c-30.3,0-54.8,24.5-54.8,54.8c0,30.3,24.5,54.8,54.8,54.8
	c30.3,0,54.8-24.6,54.8-54.8S173.8,106.6,143.5,106.6z M143.5,108.6c29.2,0,52.8,23.6,52.8,52.8c0,29.2-23.7,52.8-52.8,52.8
	s-52.8-23.7-52.8-52.8S114.3,108.6,143.5,108.6z"/>
<path id="path11" fill="#F4F4F4" d="M133.6,110.8c-1.8,0-3.3,1.5-3.3,3.3v27.9c0,2.1-0.6,3.6-1.7,4.6c-1.1,1-2.7,1.6-4.8,1.6H96.2
	c-1.8,0-3.3,1.5-3.3,3.3v19.9c0,1.8,1.5,3.3,3.3,3.3h27.6c2,0,3.6,0.6,4.8,1.7c1.1,1.1,1.8,2.7,1.8,4.8v27.6c0,1.8,1.5,3.3,3.3,3.3
	h19.9c1.8,0,3.3-1.5,3.3-3.3v-27.5c0-2.1,0.5-3.8,1.5-4.8c1-1.1,2.6-1.8,5.1-1.8h27.5c1.8,0,3.3-1.5,3.3-3.3v-19.9
	c0-1.8-1.5-3.3-3.3-3.3h-27.5c-2.6,0-4.2-0.7-5.2-1.7c-1-1-1.5-2.5-1.5-4.6v-27.9c0-1.8-1.5-3.3-3.3-3.3L133.6,110.8L133.6,110.8z
	 M133.6,112.8h19.9c0.7,0,1.3,0.6,1.3,1.3v27.9c0,2.4,0.6,4.5,2,6c1.4,1.5,3.7,2.3,6.6,2.3h27.5c0.7,0,1.3,0.6,1.3,1.3v19.9
	c0,0.7-0.6,1.3-1.3,1.3h-27.5c-2.9,0-5.1,0.9-6.6,2.4s-2,3.8-2,6.2v27.5c0,0.7-0.6,1.3-1.3,1.3h-19.9c-0.7,0-1.3-0.6-1.3-1.3v-27.6
	c0-2.6-0.9-4.7-2.4-6.2c-1.5-1.5-3.7-2.3-6.1-2.3H96.2c-0.7,0-1.3-0.6-1.3-1.3v-19.9c0-0.7,0.6-1.3,1.3-1.3h27.6
	c2.5,0,4.7-0.7,6.2-2.2c1.5-1.4,2.3-3.5,2.3-6.1v-27.9C132.3,113.3,132.9,112.8,133.6,112.8L133.6,112.8z"/>
<path id="path13" fill="#F4F4F4" d="M154.8,126.1c0,12.6,10.8,24.1,24.2,24.1v-2c-12.2,0-22.2-10.7-22.2-22.1L154.8,126.1
	L154.8,126.1z"/>
<path id="polygon15" fill="#F4F4F4" d="M178.2,125.3l-1.1,0.5l-8.8,3.7l-0.7,0.3l0.6,0.5l5.2,4.8l0.5,0.5l0.3-0.7l3.6-8.6
	L178.2,125.3L178.2,125.3z M176.4,127.2l-2.9,6.7l-4.1-3.8L176.4,127.2z"/>
<path id="circle17" fill="#F4F4F4" d="M143.5,149.6c-6.6,0-11.9,5.3-11.9,11.9s5.3,11.9,11.9,11.9s11.9-5.3,11.9-11.9
	S150.1,149.6,143.5,149.6z M143.5,151.6c5.5,0,9.9,4.4,9.9,9.9s-4.4,9.9-9.9,9.9c-5.5,0-9.9-4.4-9.9-9.9S138,151.6,143.5,151.6z"/>
<path id="path19" fill="#F4F4F4" d="M130.3,126.1c0,12.2-10.7,22.2-22.1,22.2v2c12.6,0,24.1-10.8,24.1-24.2
	C132.3,126.1,130.3,126.1,130.3,126.1z"/>
<path id="polygon21" fill="#F4F4F4" d="M107.4,126.8l0.5,1.1l3.7,8.7l0.3,0.7l0.5-0.6l4.8-5.2l0.5-0.5l-0.7-0.3l-8.6-3.6
	L107.4,126.8L107.4,126.8z M109.3,128.6l6.8,2.9l-3.8,4.1L109.3,128.6z"/>
<path id="path23" fill="#F4F4F4" d="M108.2,172.7v2c12.2,0,22.2,10.7,22.2,22.1h2C132.3,184.3,121.5,172.7,108.2,172.7z"/>
<path id="polygon25" fill="#F4F4F4" d="M113.2,187.3l-0.3,0.7l-3.6,8.6l-0.5,1.1l1.1-0.5l8.8-3.7l0.7-0.3l-0.6-0.5l-5.2-4.8
	L113.2,187.3L113.2,187.3z M113.6,189l4.1,3.8l-6.9,2.9L113.6,189z"/>
<path id="path27" fill="#F4F4F4" d="M178.9,172.7c-12.6,0-24.1,10.8-24.1,24.2h2c0-12.2,10.7-22.2,22.1-22.2V172.7z"/>
<path id="polygon29" fill="#F4F4F4" d="M175.2,185.5l-0.5,0.6l-4.8,5.2l-0.5,0.5l0.7,0.3l8.6,3.6l1.1,0.5l-0.5-1.1l-3.7-8.8
	L175.2,185.5L175.2,185.5z M174.9,187.3l2.9,6.9l-6.8-2.9L174.9,187.3z"/>
<path id="path31" fill="#F4F4F4" d="M507.5,90.9c-4.1,0.1-8.4,0.3-12.9,0.7c-18,1.6-39,5.9-58.4,15c-14.5,6.8-30.9,17.2-45,28
	c-14.1,10.8-25.9,22-31,30.8c-5.2,8.9-5.8,20.5-3.8,31.5c2,11,6.5,21.4,12.2,28c11.2,13,30.6,20.3,55.3,13.7
	c12.3-3.3,20.2-8.2,28.4-13.9c8.2-5.7,16.7-12.3,30.5-19.1c27.7-13.7,51.3-18.8,64.1-22.9c6.5-2.1,13.2-5.7,18.3-12.4
	c5.1-6.6,8.6-16.2,8.8-30.1c0.2-14-5.7-24.9-13.4-32.6s-17.4-12.4-25.1-14.4C529.7,91.7,519.7,90.7,507.5,90.9L507.5,90.9z
	 M507.6,92.9c12.1-0.2,21.9,0.8,27.4,2.2c7.4,1.8,16.8,6.4,24.2,13.8c7.4,7.4,13,17.7,12.8,31.2c-0.2,13.6-3.5,22.7-8.4,28.9
	c-4.8,6.2-11.1,9.7-17.4,11.7c-12.6,4.1-36.4,9.2-64.2,23l-0.2,0.1c-14,6.9-22.7,13.6-30.8,19.3c-8.1,5.7-15.7,10.4-27.8,13.7
	c-24.1,6.4-42.5-0.7-53.3-13.1c-5.3-6.2-9.8-16.3-11.8-27c-1.9-10.7-1.2-21.9,3.6-30.2c4.8-8.3,16.5-19.5,30.5-30.3
	s30.3-21,44.6-27.7c19.1-9,39.9-13.3,57.7-14.8C499.3,93.2,503.6,93,507.6,92.9L507.6,92.9z"/>
<path id="path33" fill="#F4F4F4" d="M522.6,103.5c-8.5-0.3-17.5,1.4-26.2,4.8c-23,8.9-51.8,20.3-65.3,27.2
	c-10.8,5.5-25,11.4-37.2,19.1c-12.1,7.7-22.2,17.4-24.2,30.8c-3.9,26.4,19.4,45.9,44.1,41.3c12.2-2.3,20.5-7.2,29-13.1
	c8.5-5.9,17.4-12.9,31-19.6c13.7-6.7,28.2-11.5,40.9-15.3c12.7-3.9,23.5-6.8,29.8-9.8c6.5-3.1,12.4-9.8,15.3-18.2
	c2.9-8.4,2.7-18.6-3.1-28.5c-5.8-9.9-15.1-15.6-25.8-17.8C528.2,103.9,525.4,103.6,522.6,103.5L522.6,103.5z M522.6,105.5
	c2.7,0.1,5.4,0.4,7.9,0.9c10.2,2,19,7.4,24.5,16.8c5.5,9.4,5.7,18.9,3,26.9c-2.7,8-8.3,14.3-14.2,17.1c-6,2.8-16.8,5.8-29.6,9.6
	c-12.7,3.9-27.4,8.7-41.2,15.4c-13.8,6.7-22.9,13.9-31.3,19.8c-8.5,5.9-16.4,10.6-28.2,12.8c-23.4,4.4-45.4-13.9-41.8-39
	c1.8-12.5,11.3-21.8,23.3-29.4c11.9-7.6,26.1-13.4,37-19c13.3-6.8,42.2-18.2,65.2-27.1C505.7,106.9,514.4,105.3,522.6,105.5
	L522.6,105.5z"/>
<path id="circle35" fill="#F4F4F4" d="M407.1,158.8c-16.9,0-30.6,13.7-30.6,30.6c0,16.9,13.7,30.6,30.6,30.6
	c16.9,0,30.6-13.7,30.6-30.6C437.7,172.5,424,158.8,407.1,158.8z M407.1,160.8c15.8,0,28.6,12.8,28.6,28.6
	c0,15.8-12.8,28.6-28.6,28.6c-15.8,0-28.6-12.8-28.6-28.6C378.5,173.6,391.3,160.8,407.1,160.8z"/>
<path id="circle37" fill="#F4F4F4" d="M407.1,164.4c-13.8,0-24.9,11.2-24.9,25c0,13.8,11.2,25,24.9,25c13.8,0,25-11.2,25-25
	C432.1,175.6,420.9,164.4,407.1,164.4z M407.1,166.4c12.7,0,23,10.3,23,23c0,12.7-10.3,23-23,23c-12.7,0-22.9-10.3-22.9-23
	C384.2,176.7,394.4,166.4,407.1,166.4z"/>
<path id="circle39" fill="#F4F4F4" d="M463.8,129.4c-16.9,0-30.6,13.7-30.6,30.6s13.7,30.6,30.6,30.6c16.9,0,30.6-13.7,30.6-30.6
	S480.7,129.4,463.8,129.4z M463.8,131.4c15.8,0,28.6,12.8,28.6,28.6c0,15.8-12.8,28.6-28.6,28.6c-15.8,0-28.6-12.8-28.6-28.6
	S448,131.4,463.8,131.4z"/>
<path id="circle41" fill="#F4F4F4" d="M463.8,135.1c-13.8,0-25,11.2-25,24.9s11.2,25,25,25c13.8,0,24.9-11.2,24.9-25
	S477.5,135.1,463.8,135.1z M463.8,137.1c12.7,0,22.9,10.2,22.9,22.9c0,12.7-10.2,23-22.9,23c-12.7,0-23-10.3-23-23
	C440.8,147.3,451.1,137.1,463.8,137.1z"/>
<path id="circle43" fill="#F4F4F4" d="M523.8,107.8c-16.9,0-30.6,13.7-30.6,30.6s13.7,30.6,30.6,30.6c16.9,0,30.6-13.7,30.6-30.6
	C554.4,121.5,540.7,107.8,523.8,107.8z M523.8,109.8c15.8,0,28.6,12.8,28.6,28.6c0,15.8-12.8,28.6-28.6,28.6
	c-15.8,0-28.6-12.8-28.6-28.6C495.2,122.6,508,109.8,523.8,109.8z"/>
<path id="circle45" fill="#F4F4F4" d="M523.8,113.4c-13.8,0-24.9,11.2-24.9,25s11.2,25,24.9,25c13.8,0,25-11.2,25-25
	S537.5,113.4,523.8,113.4z M523.8,115.4c12.7,0,23,10.3,23,23s-10.3,23-23,23c-12.7,0-22.9-10.3-22.9-23S511.1,115.4,523.8,115.4z"
	/>
<path id="path47" fill="#F4F4F4" d="M446.9,59.3c-1.9-0.1-3.8,0.1-5.7,0.8l-41.1,14.1c-7.5,2.6-11.6,10.9-9,18.4
	c2.6,7.6,10.9,11.6,18.4,9l41.1-14.2c7.6-2.6,11.6-10.9,9-18.4C457.7,63.4,452.5,59.7,446.9,59.3L446.9,59.3z M446.8,61.3
	c4.9,0.3,9.3,3.5,10.9,8.4c2.3,6.5-1.2,13.6-7.7,15.8l-41.1,14.2c-6.5,2.3-13.6-1.2-15.8-7.7c-2.2-6.5,1.2-13.6,7.7-15.9L441.9,62
	C443.5,61.4,445.2,61.2,446.8,61.3L446.8,61.3z"/>
<path id="path49" fill="#F4F4F4" d="M445.8,65.8c-1.1-0.1-2.2,0-3.3,0.4L402.8,80c-4.3,1.5-6.5,6.2-5.1,10.4
	c1.5,4.3,6.2,6.6,10.4,5.1l39.8-13.7c4.3-1.5,6.6-6.2,5.1-10.4C451.9,68.1,449,66.1,445.8,65.8C445.8,65.8,445.8,65.8,445.8,65.8z
	 M445.7,67.8c2.4,0.2,4.6,1.7,5.5,4.2c1.1,3.3-0.6,6.8-3.8,7.9l-39.8,13.7c-3.3,1.1-6.8-0.6-7.9-3.8c-1.1-3.3,0.6-6.8,3.8-7.9
	l39.8-13.7C444.1,67.9,444.9,67.8,445.7,67.8L445.7,67.8L445.7,67.8z"/>
</svg>
