<svg xmlns="http://www.w3.org/2000/svg" viewBox="0 0 566.9 167.5" xml:space="preserve"><g fill="#c3c6c5"><path d="m34 108.9-.1-41.6h5.4v49.8h-5.4L5.2 75.2l.1 41.9H0V67.3h5.7L34 108.9zM45.3 67.3h26.4v4.9H50.8v17.3h20.8v4.9H50.8v17.8h20.9v4.9H45.3V67.3zM74.2 92.4c0-15.3 11.9-25.9 26-25.9 14.6 0 26 11.2 26 25.8 0 14.6-11.3 25.8-26 25.8-14.7-.1-26-11.5-26-25.7zm5.6-.2c0 11.7 8.8 20.9 20.5 20.9 11.8 0 20.4-9.5 20.4-20.9 0-11.4-8.6-20.9-20.5-20.9-11.7.1-20.4 9.4-20.4 20.9zM172.2 80.3c-1.5-2.2-3.4-4-5.6-5.4-3.2-2.2-7.1-3.5-11.6-3.5-10.9 0-20.4 8.3-20.4 20.8 0 12.7 9.6 21 20.5 21 5.2 0 9.9-1.8 13.3-4.5 3.5-2.8 5.9-6.5 6.7-10.4H148v-4.6h33.6c-.1 2.9-.7 6.5-2.2 9.6-4.3 9.4-14.3 14.8-24.3 14.8-14.5 0-26-11.2-26-25.9 0-14.9 11.7-25.7 26.1-25.7 10.1 0 19.4 5.7 23.4 13.8h-6.4zM184.3 67.3h27.6v4.9h-22.1v17.3h21.9v4.9h-21.9v17.8h22.1v4.9h-27.6V67.3zM214.1 92.4c0-15.3 11.9-25.9 26-25.9 14.6 0 26 11.2 26 25.8 0 14.6-11.3 25.8-26 25.8-14.8-.1-26-11.5-26-25.7zm5.5-.2c0 11.7 8.8 20.9 20.5 20.9 11.8 0 20.4-9.5 20.4-20.9 0-11.4-8.6-20.9-20.5-20.9-11.7.1-20.4 9.4-20.4 20.9z"/></g><g fill="#c3c6c5"><path d="M327.5 92.4c0-15.3 11.9-25.9 26-25.9 14.6 0 26 11.2 26 25.8 0 14.6-11.3 25.8-26 25.8-14.8-.1-26-11.5-26-25.7zm5.5-.2c0 11.7 8.8 20.9 20.5 20.9 11.8 0 20.4-9.5 20.4-20.9 0-11.4-8.6-20.9-20.5-20.9-11.7.1-20.4 9.4-20.4 20.9zM435 103.7c-3.2 7.7-11.9 14.3-22.9 14.3-14.7 0-26-11.4-26-25.8 0-14.2 11-25.8 25.9-25.8 12.3 0 20.1 8.2 22.9 14.5h-6c-1.7-3-7.3-9.6-17-9.6-11.6 0-20.4 9.2-20.4 20.8 0 11.8 8.8 20.9 20.4 20.9 10.4 0 15.7-7.5 17-9.4l6.1.1zM489.6 67.3h27.6v4.9h-22.1v17.3H517v4.9h-21.9v17.8h22.1v4.9h-27.6V67.3zM545.2 72.3h-16v-4.9h37.7v4.9h-16.1v44.9h-5.6V72.3z"/></g><path fill="#F10000" d="M214.2 155.5c-2.1 7-8.6 12-16.5 12-10.3 0-17.7-8.2-17.7-17.6 0-9 7-17.5 17.7-17.5 9.7 0 15.2 7.2 16.6 12.1h-7.2c-1-2.3-4.1-6.1-9.4-6.2-6.6 0-10.8 5.5-10.8 11.5 0 6.2 4.4 11.6 10.9 11.6 6 0 8.8-4.7 9.4-6l7 .1zM232.5 150.2c0-10.8 8.3-17.8 17.7-17.8 10.2 0 17.8 7.9 17.8 17.5s-7.5 17.5-17.8 17.5c-10.4.1-17.7-8.1-17.7-17.2zm6.8-.3c0 6.2 4.4 11.5 11 11.5 6.8 0 10.9-5.9 10.9-11.5 0-5.7-4-11.6-10.9-11.6-6.8.1-11 5.7-11 11.6zM288 133.1h6.8v27.8h11.1v6H288v-33.8zM322.6 150.2c0-10.8 8.3-17.8 17.7-17.8 10.2 0 17.8 7.9 17.8 17.5s-7.5 17.5-17.8 17.5c-10.4.1-17.7-8.1-17.7-17.2zm6.8-.3c0 6.2 4.4 11.5 11 11.5 6.8 0 10.9-5.9 10.9-11.5 0-5.7-4-11.6-10.9-11.6-6.8.1-11 5.7-11 11.6z"/><path fill="#c3c6c5" d="M475.6 117.1h6.9l-25.9-25 23.8-24.8h-6.1l-26.1 27v-27h-5.5v49.8h5.5v-16.2l5.1-5.3 22.3 21.5z"/><path fill="#F10000" d="M385.8 133.1c3.8.1 7.2.3 10.2 2.8.8.6 1.5 1.5 2 2.3 1.6 2.4 1.7 5.1 1.7 6 0 .8-.1 3.1-1.4 5.2-.3.5-.8 1.3-1.8 2.2-1.1 1-2.3 1.5-2.7 1.7-.8.3-1.7.6-3.5 1l9.9 13.2h-7.6l-9.5-13v13h-6.9v-34.4h9.6zm-2.7 16.3h4.5c.7 0 3.2-.1 4.8-2 .4-.5 1.1-1.5 1.1-3.2 0-.5 0-1.9-.9-3.1-1.5-2-3.8-2.2-6.2-2.3h-3.3v10.6z"/><path fill="none" d="M302.8 120.9c-10.8-21.6-21.6-43-32.5-64.6.1 0 .1-.1.2-.1 2.7-1.4 5.4-2.8 8.1-4.1 3.8-1.9 7.6-3.9 11.4-5.8 4-2.1 8.2-3.3 12.8-3.1 3.1.1 5.9 1 8.4 2.9 2.2 1.7 3.7 3.8 4.9 6.3 1.1 2.3 1.9 4.8 2 7.4.1 3.6-1 6.9-3 10-1.3 2-2.8 3.9-4.5 5.6-1.2 1.1-2.5 2.2-3.7 3.3-4.6-3.2-9-6.4-13.5-9.6.9-3.1 1.7-6.2 2.5-9.3h12.9V50c-6.7.1-13.3.1-19.9.2-2.4 6.8-4.8 13.6-7.2 20.3 7.7 6.4 15.4 12.8 23.2 19.2 3.1-1.2 6-2.6 8.7-4.4 4.4-2.8 8-6.4 10.7-10.9 2.5-4.2 3.7-8.7 3.8-13.6 0-3-.4-5.9-1.3-8.8-1.2-3.8-3-7.3-5.8-10.2-5.2-5.4-11.6-8.4-19.1-8.6-4.5-.2-8.7.8-12.6 2.8-1.8.9-3.5 1.9-5.3 2.7-4 1.9-8 3.8-12.1 5.7-3.5 1.7-7.1 3.4-10.6 5-1.2.6-2.4 1.1-3.6 1.7 12 24.6 24.1 49.1 36.1 73.6 3-1.2 5.9-2.4 9-3.8z"/><path fill="#F10000" d="M302.8 120.9c-3 1.3-6 2.6-9.1 3.9-12-24.5-24.1-49.1-36.1-73.6 1.2-.6 2.4-1.1 3.6-1.7 3.5-1.7 7.1-3.4 10.6-5 4-1.9 8.1-3.8 12.1-5.7 1.8-.9 3.6-1.8 5.3-2.7 4-2 8.2-3 12.6-2.8 7.5.3 13.9 3.2 19.1 8.6 2.8 2.9 4.6 6.3 5.8 10.2.9 2.9 1.3 5.8 1.3 8.8-.1 4.8-1.3 9.4-3.8 13.6-2.7 4.5-6.3 8-10.7 10.9-2.7 1.8-5.6 3.2-8.7 4.4-7.7-6.4-15.4-12.8-23.2-19.2 2.4-6.8 4.8-13.5 7.2-20.3 6.6-.1 13.2-.1 19.9-.2v9.8h-12.9c-.8 3.1-1.7 6.2-2.5 9.3l13.5 9.6c1.2-1.1 2.5-2.2 3.7-3.3 1.7-1.7 3.2-3.5 4.5-5.6 2-3.1 3-6.3 3-10 0-2.6-.9-5-2-7.4-1.2-2.5-2.7-4.6-4.9-6.3-2.5-1.9-5.3-2.8-8.4-2.9-4.5-.1-8.7 1.1-12.8 3.1-3.8 2-7.6 3.9-11.4 5.8-2.7 1.4-5.4 2.8-8.1 4.1-.1 0-.1.1-.2.1 10.9 21.5 21.8 43 32.6 64.5zM310.4 26.5c-2.2-.4-4.3-.9-6.4-1.3 1.3-8.4 2.5-16.8 3.8-25.2 3.9.6 7.8 1.1 11.8 1.7-3.1 8.3-6.1 16.6-9.2 24.8z"/><path fill="#07B8F9" d="M345.5 19.7c2.1 3.4 4.1 6.7 6.2 10.1-6.8 4.2-13.6 8.4-20.5 12.7-1.4-2.1-2.8-4.2-4.3-6.4 6.3-5.5 12.4-10.9 18.6-16.4z"/><path fill="#069211" d="M329.1 6.5c3 2.1 6 4.1 9 6.2-5.4 6.4-10.7 12.8-16.1 19.2-1.9-1.2-3.8-2.3-5.7-3.5 4.2-7.3 8.5-14.6 12.8-21.9z"/><g fill="#c3c6c5"><path d="M412.1 158.4h-2v-1.6h5.8v1.6h-2v7.5h-1.8v-7.5zM416.9 166v-9.2h2.5l2.4 6.6 2.3-6.6h2.5v9.2h-1.7l.1-7.3-2.6 7.3h-1.2l-2.6-7.3.1 7.3h-1.8z"/></g></svg>