<?xml version="1.0" encoding="utf-8"?>
<!-- Generator: Adobe Illustrator 18.0.0, SVG Export Plug-In . SVG Version: 6.00 Build 0)  -->
<!DOCTYPE svg PUBLIC "-//W3C//DTD SVG 1.1//EN" "http://www.w3.org/Graphics/SVG/1.1/DTD/svg11.dtd">
<svg version="1.1" id="svg2" xmlns:svg="http://www.w3.org/2000/svg"
	 xmlns="http://www.w3.org/2000/svg" xmlns:xlink="http://www.w3.org/1999/xlink" x="0px" y="0px" viewBox="0 0 566.9 86.5"
	 enable-background="new 0 0 566.9 86.5" xml:space="preserve">
<g>
	<g id="g4387">
		<g id="path1922">
			<polygon fill="#081FB8" points="55.3,42.1 55.3,23.7 94.7,23.7 77,42.1 			"/>
			<path fill="#7b7d7f" d="M92.4,24.7L76.6,41.1H56.3V24.7H92.4 M97.1,22.7h-4.7h-36h-2v2v16.5v2h2h20.3h0.9l0.6-0.6L93.8,26
				L97.1,22.7L97.1,22.7z"/>
		</g>
		<g id="path3805">
			<polygon fill="#CD1C33" points="55.3,62.8 55.3,44.4 77,44.4 94.7,62.8 			"/>
			<path fill="#7b7d7f" d="M76.5,45.4l15.8,16.5h-36V45.4H76.5 M77.4,43.4h-0.9H56.3h-2v2v16.5v2h2h36H97l-3.2-3.4L78,44L77.4,43.4
				L77.4,43.4z"/>
		</g>
		<path id="path4382" fill="#081FB8" stroke="#FFFFFF" stroke-width="2" stroke-miterlimit="10" d="M55.5,1.7v20.7
			c-3.7-2.3-7.8-3.4-12.3-3.4c-4.3,0-8.3,1.1-12,3.3c-3.7,2.2-6.6,5.1-8.7,8.9c-2.1,3.7-3.2,7.7-3.2,12c0,4.3,1.1,8.3,3.2,12
			c2.1,3.7,5,6.6,8.7,8.7c3.7,2.1,7.7,3.2,12,3.2c4.5,0,8.6-1.1,12.3-3.3v20.8c-4,1.2-8.1,1.8-12.3,1.8c-7.7,0-14.9-1.9-21.6-5.8
			C15,76.7,9.7,71.4,5.8,64.8C1.9,58.1,0,50.9,0,43.1c0-5.8,1.1-11.3,3.4-16.6c2.3-5.3,5.4-10,9.4-13.9c4-4,8.6-7.1,13.8-9.3
			C31.8,1.1,37.3,0,43.2,0C47.3,0,51.4,0.6,55.5,1.7"/>
	</g>
	<g id="g4407">
		<path id="path4040" fill="#081FB8" stroke="#FFFFFF" stroke-width="2" stroke-miterlimit="10" d="M566.3,28.6
			c0.3,0.3,0.5,0.8,0.6,1.6c0,0.4,0.1,1.3,0.1,1.9c0,2.1-0.1,3-0.6,3.5c-0.5,0.5-1.4,0.7-4,0.7c-2.2,0-3.7-0.1-4.3-0.2
			c-0.7-0.1-1.2-0.7-1.3-1.3c-0.1-0.5-0.2-1.3-0.2-2.7c0-2.2,0.2-3.1,0.8-3.6c0.4-0.3,0.9-0.4,2-0.5c0.5,0,1.9-0.1,2.6-0.1
			C564.8,27.9,565.7,28.1,566.3,28.6 M557.5,32c0,1.9,0,2.6,0.4,2.9c0.3,0.3,0.6,0.4,1.5,0.4l2.4,0.1c1.3,0,2.7-0.1,3.1-0.2
			c0.4-0.1,0.7-0.4,0.9-0.9c0.1-0.5,0.1-1.3,0.1-2.3c0-1.8-0.1-2.5-0.4-2.8c-0.4-0.4-0.9-0.5-4.2-0.5
			C557.5,28.8,557.5,28.9,557.5,32 M558.5,29.7h3.8c1.8,0,1.8,0,2.1,0.2c0.4,0.2,0.6,0.6,0.6,1.4c0,1-0.2,1.3-0.9,1.4
			c0.5,0.1,0.7,0.2,0.8,0.5c0,0.2,0.1,0.3,0.1,1v0.5h-1.7v-0.3c0-0.9,0-0.9-1-0.9h-2.1v1.2h-1.7L558.5,29.7L558.5,29.7z M562.3,32
			c1,0,1,0,1-0.5c0-0.5,0-0.5-1-0.5h-2.1V32L562.3,32L562.3,32z"/>
		<g id="path4340">
			<path fill="#081FB8" d="M129.9,60.5c-9.8,0-13.8-0.7-17-3.1c-3.3-2.3-4.4-5.9-4.4-14.3c0-7.8,1-11.2,4-13.6
				c3.1-2.6,7.3-3.3,18-3.3c10.5,0,15.1,0.9,18.2,3.4c2.7,2.1,3.7,4.8,3.8,10.9l0,1H139l-0.1-0.9c-0.3-2.6-1.6-3.8-8.4-3.8
				c-7.8,0-8.5,1.1-8.5,6.7c0,4,0.6,4.9,2.1,5.5c1.2,0.5,3.6,0.8,6.5,0.8c7,0,7.9-1,8.2-3.6l0.1-0.9l13.6,0l0,1
				c-0.2,5.5-0.9,7.8-3.1,10C146.2,59.6,142.2,60.5,129.9,60.5z"/>
			<path fill="#7b7d7f" d="M130.4,27.1c10.2,0,14.7,0.8,17.6,3.2c2.5,1.9,3.3,4.4,3.5,10.1h-11.7c-0.4-3.5-2.7-4.7-9.4-4.7
				c-8,0-9.5,1.2-9.5,7.7c0,4,0.6,5.6,2.7,6.4c1.4,0.6,3.8,0.9,6.9,0.9c6.8,0,8.7-0.9,9.2-4.4l11.7,0c-0.2,5.1-0.8,7.4-2.8,9.4
				c-2.9,3-6.7,3.8-18.8,3.8c-9.4,0-13.4-0.7-16.4-2.9c-3-2.1-4-5.4-4-13.5c0-7.4,0.9-10.7,3.6-12.9C116,27.8,120,27.1,130.4,27.1
				 M130.4,25.1c-10.9,0-15.3,0.8-18.6,3.6c-3.7,3-4.4,7.3-4.4,14.4c0,7.7,0.8,12.3,4.8,15.2c3.4,2.5,7.5,3.2,17.6,3.2
				c11.7,0,16.6-0.7,20.2-4.4c2.7-2.7,3.2-5.7,3.4-10.7l0.1-2.1l-2.1,0l-11.7,0l-1.7,0l-0.3,1.7c-0.3,1.7-0.4,2.7-7.2,2.7
				c-2.7,0-5-0.3-6.1-0.7c-0.8-0.3-1.5-0.6-1.5-4.6c0-2.8,0.3-4.1,1-4.7c1.1-0.9,3.9-1,6.5-1c7.1,0,7.3,1.4,7.4,2.9l0.2,1.8h1.8
				h11.7h2.1l-0.1-2.1c-0.2-5.5-0.9-9-4.2-11.6C146,26,141.4,25.1,130.4,25.1L130.4,25.1z"/>
		</g>
		<path id="path4342" fill="#081FB8" stroke="#FFFFFF" stroke-width="2" stroke-miterlimit="10" d="M193.4,30c3.1,2.3,4,5.1,4,12.8
			c0,8.4-0.8,11.3-3.6,13.6c-2.9,2.4-6.8,3.1-18.1,3.1c-11.5,0-15.3-0.7-18.2-3.1c-2.9-2.3-3.6-5.2-3.6-14.1c0-7.2,0.9-10.1,4-12.3
			c2.8-2.1,7.3-2.8,17.8-2.8C186.1,27.2,190.6,27.9,193.4,30 M165.3,43.5c0,4.1,0.5,5.5,2.6,6.3c1.4,0.6,4,1,7.7,1
			c8.7,0,10.2-1.1,10.2-7.6c0-4.2-0.7-5.6-2.8-6.5c-1.5-0.6-4.2-0.9-7.4-0.9C166.9,35.8,165.3,37,165.3,43.5"/>
		<g id="path4344">
			<path fill="#081FB8" d="M198.7,59.7V27h12.8v3.1c2.3-2.6,6.1-3.9,12-3.9c6.9,0,11.1,1.6,13.9,5.4c2.3-3.8,6.3-5.4,13.3-5.4
				c6.6,0,10.7,1.3,13.5,4.3c3,3.1,3.5,6.2,3.5,13.9v15.4h-13.5V44.3c-0.1-5.2-0.3-5.3-1-6.1c-0.9-1-2.7-1.4-5.7-1.4
				c-3.2,0-5.1,0.5-6.1,1.6c-1,1.1-1.4,2.4-1.4,7.6v13.7h-13.5V44.3c0-4.7-0.1-5.3-1-6.1c-0.8-0.9-2.7-1.4-5.6-1.4
				c-3.2,0-5.2,0.5-6.3,1.6c-1.1,1.1-1.4,2.8-1.4,7.6v13.7H198.7z"/>
			<path fill="#7b7d7f" d="M250.7,27.2c6.4,0,10.2,1.2,12.8,4c2.7,2.7,3.3,5.3,3.3,13.2v14.4h-11.5V44.3c-0.1-5.1-0.2-5.7-1.3-6.8
				c-1.1-1.2-3.1-1.7-6.5-1.7c-3.5,0-5.6,0.6-6.8,2c-1.3,1.4-1.7,3.2-1.7,8.2v12.7h-11.5V44.3c0-4.8-0.1-5.6-1.2-6.8
				c-1.1-1.2-3.1-1.7-6.4-1.7c-3.5,0-5.7,0.6-7,1.9c-1.3,1.3-1.7,3.3-1.7,8.3v12.7h-11.5V28h10.8v4.6h0.6c1.7-3.7,5.6-5.4,12.4-5.4
				c7.4,0,11.5,1.9,14,6.4C239.5,29,243.2,27.2,250.7,27.2 M250.7,25.2c-6.6,0-10.8,1.4-13.4,4.7c-2.9-3.3-7.3-4.7-13.8-4.7
				c-3.4,0-7.8,0.3-11,2.6V26h-2h-10.8h-2v2v30.7v2h2h11.5h2v-2V46c0-4.9,0.4-6.2,1.1-6.9c0.9-0.9,2.7-1.3,5.6-1.3
				c3.3,0,4.5,0.6,4.9,1c0.5,0.6,0.7,0.8,0.7,5.5v14.4v2h2H239h2v-2V46c0-4.8,0.4-6,1.2-6.9l0,0l0,0c0.7-0.9,2.5-1.3,5.3-1.3
				c2.7,0,4.3,0.4,5,1.1c0.5,0.5,0.7,0.7,0.8,5.4l0,14.3v2h2h11.5h2v-2V44.3c0-8-0.6-11.2-3.8-14.6
				C261.9,26.5,257.7,25.2,250.7,25.2L250.7,25.2z"/>
		</g>
		<g id="path4346">
			<path fill="#081FB8" d="M268.5,59.7V27h12.8V30c2.3-2.6,6.1-3.8,12-3.8c6.9,0,11.1,1.6,13.9,5.4c2.3-3.8,6.3-5.4,13.4-5.4
				c6.6,0,10.6,1.3,13.5,4.3c3,3.1,3.5,6.2,3.5,13.9v15.4H324V44.3c0-5.2-0.2-5.3-1-6.1c-1-1-2.8-1.4-5.8-1.4
				c-3.1,0-5.1,0.5-6.1,1.6c-1,1.1-1.4,2.4-1.4,7.6v13.7h-13.5V44.3c0-4.7-0.1-5.3-1-6.1c-0.8-0.9-2.7-1.4-5.6-1.4
				c-3.2,0-5.2,0.5-6.3,1.6c-1.1,1.1-1.4,2.8-1.4,7.6v13.7H268.5z"/>
			<path fill="#7b7d7f" d="M320.5,27.2c6.4,0,10.1,1.2,12.8,4c2.7,2.7,3.3,5.3,3.3,13.2v14.4H325V44.3c0-5.1-0.2-5.7-1.3-6.8
				c-1.2-1.2-3.1-1.7-6.5-1.7c-3.4,0-5.6,0.6-6.8,2c-1.3,1.4-1.7,3.2-1.7,8.2v12.7h-11.5V44.3c0-4.8-0.1-5.6-1.2-6.8
				c-1.1-1.2-3.1-1.7-6.4-1.7c-3.4,0-5.7,0.6-7,1.9c-1.3,1.3-1.7,3.3-1.7,8.3v12.7h-11.5V28h10.8v4.6h0.5c1.7-3.7,5.6-5.4,12.4-5.4
				c7.4,0,11.5,1.9,14,6.4C309.2,29,312.9,27.2,320.5,27.2 M320.5,25.2c-6.7,0-10.8,1.4-13.4,4.7c-2.9-3.3-7.2-4.7-13.8-4.7
				c-3.4,0-7.7,0.3-11,2.6V26h-2h-10.8h-2v2v30.7v2h2h11.5h2v-2V46c0-4.9,0.4-6.2,1.1-6.9c0.9-0.9,2.7-1.3,5.6-1.3
				c3.3,0,4.5,0.6,4.9,1c0.5,0.6,0.7,0.8,0.7,5.5v14.4v2h2h11.5h2v-2V46c0-4.8,0.4-6,1.2-6.9c0.8-0.9,2.6-1.3,5.4-1.3
				c3.6,0,4.6,0.6,5.1,1.1c0.5,0.5,0.6,0.6,0.7,5.4l0,14.3v2h2h11.5h2v-2V44.3c0-8-0.6-11.2-3.8-14.6
				C331.7,26.5,327.4,25.2,320.5,25.2L320.5,25.2z"/>
		</g>
		<path id="path4348" fill="#081FB8" stroke="#FFFFFF" stroke-width="2" stroke-miterlimit="10" d="M378.6,30
			c3.1,2.3,3.9,5.1,3.9,12.8c0,8.4-0.8,11.3-3.6,13.6c-2.9,2.4-6.7,3.1-18.1,3.1c-11.5,0-15.3-0.7-18.2-3.1
			c-2.8-2.3-3.6-5.2-3.6-14.1c0-7.2,0.9-10.1,4-12.3c2.8-2.1,7.3-2.8,17.8-2.8C371.3,27.2,375.7,27.9,378.6,30 M350.5,43.5
			c0,4.1,0.5,5.5,2.6,6.3c1.4,0.6,4,1,7.7,1c8.7,0,10.2-1.1,10.2-7.6c0-4.2-0.6-5.6-2.8-6.5c-1.4-0.6-4.2-0.9-7.4-0.9
			C352,35.8,350.5,37,350.5,43.5"/>
		<path id="path4350" fill="#081FB8" stroke="#FFFFFF" stroke-width="2" stroke-miterlimit="10" d="M428.3,58.7h-10.8v-4h-0.6
			c-2.2,3.7-5.3,4.8-13.6,4.8c-8.3,0-12.3-0.9-14.9-3.3c-2.5-2.3-3.3-5.5-3.3-13.1c0-7.8,1.2-11.5,4.5-13.6c2.8-1.8,6-2.3,13.9-2.3
			c8.1,0,10.7,1,12.9,4.9h0.5V15.4h11.5L428.3,58.7L428.3,58.7L428.3,58.7z M396.6,43c0,6.7,1.3,7.8,9.9,7.8c4.2,0,7.3-0.5,8.7-1.4
			c1.3-0.9,1.7-2.5,1.7-6c0-6.3-1.5-7.5-9.7-7.5C398.1,35.7,396.6,36.8,396.6,43"/>
		<path id="path4352" fill="#081FB8" stroke="#FFFFFF" stroke-width="2" stroke-miterlimit="10" d="M469.9,30c3.1,2.3,4,5.1,4,12.8
			c0,8.4-0.8,11.3-3.6,13.6c-2.9,2.4-6.8,3.1-18.1,3.1c-11.5,0-15.3-0.7-18.2-3.1c-2.9-2.3-3.6-5.2-3.6-14.1
			c0-7.2,0.9-10.1,3.9-12.3c2.9-2.1,7.4-2.8,17.8-2.8C462.7,27.2,467.1,27.9,469.9,30 M441.9,43.5c0,4.1,0.5,5.5,2.6,6.3
			c1.4,0.6,4,1,7.7,1c8.7,0,10.2-1.1,10.2-7.6c0-4.2-0.6-5.6-2.8-6.5c-1.4-0.6-4.2-0.9-7.4-0.9C443.5,35.8,441.9,37,441.9,43.5"/>
		<g id="path4354">
			<path fill="#081FB8" d="M475.3,59.7V27h12.8v3.2c2.3-2.8,5.7-4,11.4-4c9.7,0,13.4,3.6,13.4,13.3v3.1h-12.8v-1c0-4-0.8-4.8-5-4.8
				c-2.3,0-4.2,0.7-5.1,1.8c-0.9,1.2-1.2,2.4-1.2,7.3v13.7H475.3z"/>
			<path fill="#7b7d7f" d="M499.5,27.2c9.2,0,12.4,3.1,12.4,12.3v2.1h-10.8c0-4.6-1.3-5.8-6-5.8c-2.6,0-4.8,0.8-5.9,2.2
				c-1.1,1.5-1.4,3.2-1.4,7.9v12.7h-11.5V28h10.9v4.6h0.6C489.8,28.7,493.1,27.2,499.5,27.2 M499.5,25.2c-4.7,0-8,0.8-10.4,2.6V26
				h-2h-10.9h-2v2v30.7v2h2h11.5h2v-2V45.9c0-4.6,0.3-5.8,1-6.7c0.7-0.9,2.3-1.4,4.2-1.4c3.8,0,4,0.5,4,3.8v2h2h10.8h2v-2v-2.1
				C513.9,29.2,509.8,25.2,499.5,25.2L499.5,25.2z"/>
		</g>
		<g id="path4356">
			<path fill="#081FB8" d="M533.6,60.5c-9,0-13.5-0.8-16.5-3.1c-3.3-2.5-4.3-5.7-4.3-14c0-8.7,1-11.9,4.5-14.4
				c3.3-2.3,7.2-2.9,17.4-2.9c10.7,0,14.4,0.7,17.4,3.1c3,2.5,4.1,6.3,4.1,13.4c0,0.4,0,1.8,0,3.1l0,1h-30c0.1,2.3,0.5,2.8,1.1,3.2
				c1,0.7,3.3,1.1,7.2,1.1c7.8,0,7.9-0.7,8.2-2.4l0.1-0.8l13.4,0l-0.1,1.1C555.1,58.7,549.3,60.5,533.6,60.5z M542.7,38.5
				c-0.1-1.4-0.2-1.7-0.6-2c-0.8-0.9-3-1.3-7.2-1.3c-7,0-8.3,0.8-8.6,3.3H542.7z"/>
			<path fill="#7b7d7f" d="M534.8,27.1c10.3,0,14,0.6,16.8,2.9c2.7,2.3,3.8,5.7,3.8,12.7c0,0.4,0,1.8,0,3.1h-30c0,3.1,0.4,4.2,1.5,5
				c1.2,0.9,3.6,1.3,7.8,1.3c7.3,0,8.7-0.5,9.2-3.3l11.4,0c-0.9,8.5-5.1,10.6-21.5,10.6c-8.9,0-13.1-0.8-15.9-2.9
				c-3-2.3-3.9-5.3-3.9-13.2c0-8.2,0.9-11.3,4.1-13.6C520.9,27.8,524.7,27.1,534.8,27.1 M525.2,39.5h18.5c-0.1-2.4-0.2-3-0.9-3.7
				c-1.1-1.1-3.4-1.6-7.9-1.6C527.2,34.3,525.4,35.2,525.2,39.5 M534.8,25.1c-10.5,0-14.5,0.7-18,3.1c-4.2,3-5,7.3-5,15.2
				c0,7.6,0.7,11.8,4.7,14.8c3.2,2.4,7.7,3.3,17.1,3.3c15.7,0,22.4-1.7,23.5-12.4l0.2-2.2l-0.1,0l0-1c0-0.9,0-2,0-3.2
				c0-7.5-1.3-11.5-4.5-14.2C549.6,25.8,545.7,25.1,534.8,25.1L534.8,25.1z M527.7,37.5c0.7-0.9,2.4-1.3,7.3-1.3
				c4.9,0,6.1,0.6,6.5,0.9c0.1,0.1,0.1,0.1,0.2,0.3H527.7L527.7,37.5z M527.3,47.8h14.5l-0.1,0.7c-0.2,0.9-0.3,0.9-0.7,1.1
				c-1.2,0.4-3.8,0.5-6.5,0.5c-3.5,0-5.7-0.3-6.6-0.9C527.7,49,527.4,48.8,527.3,47.8L527.3,47.8z"/>
		</g>
	</g>
</g>
</svg>
