<svg xmlns="http://www.w3.org/2000/svg" viewBox="0 0 566.9 86.5" xml:space="preserve"><path fill="#081FB8" d="M55.3 42.1V23.7h39.4L77 42.1z"/><path fill="#c3c6c5" d="M92.4 24.7 76.6 41.1H56.3V24.7h36.1m4.7-2H54.4v20.5h23.2l.6-.6L93.8 26l3.3-3.3z"/><path fill="#CD1C33" d="M55.3 62.8V44.4H77l17.7 18.4z"/><path fill="#c3c6c5" d="m76.5 45.4 15.8 16.5h-36V45.4h20.2m.9-2H54.3v20.5H97l-3.2-3.4L78 44l-.6-.6z"/><path fill="#081FB8" stroke="#FFF" stroke-width="2" stroke-miterlimit="10" d="M55.5 1.7v20.7c-3.7-2.3-7.8-3.4-12.3-3.4-4.3 0-8.3 1.1-12 3.3-3.7 2.2-6.6 5.1-8.7 8.9-2.1 3.7-3.2 7.7-3.2 12s1.1 8.3 3.2 12c2.1 3.7 5 6.6 8.7 8.7 3.7 2.1 7.7 3.2 12 3.2 4.5 0 8.6-1.1 12.3-3.3v20.8c-4 1.2-8.1 1.8-12.3 1.8-7.7 0-14.9-1.9-21.6-5.8C15 76.7 9.7 71.4 5.8 64.8 1.9 58.1 0 50.9 0 43.1c0-5.8 1.1-11.3 3.4-16.6 2.3-5.3 5.4-10 9.4-13.9 4-4 8.6-7.1 13.8-9.3C31.8 1.1 37.3 0 43.2 0c4.1 0 8.2.6 12.3 1.7M566.3 28.6c.3.3.5.8.6 1.6 0 .4.1 1.3.1 1.9 0 2.1-.1 3-.6 3.5s-1.4.7-4 .7c-2.2 0-3.7-.1-4.3-.2-.7-.1-1.2-.7-1.3-1.3-.1-.5-.2-1.3-.2-2.7 0-2.2.2-3.1.8-3.6.4-.3.9-.4 2-.5.5 0 1.9-.1 2.6-.1 2.8 0 3.7.2 4.3.7m-8.8 3.4c0 1.9 0 2.6.4 2.9.3.3.6.4 1.5.4l2.4.1c1.3 0 2.7-.1 3.1-.2.4-.1.7-.4.9-.9.1-.5.1-1.3.1-2.3 0-1.8-.1-2.5-.4-2.8-.4-.4-.9-.5-4.2-.5-3.8.1-3.8.2-3.8 3.3m1-2.3h3.8c1.8 0 1.8 0 2.1.2.4.2.6.6.6 1.4 0 1-.2 1.3-.9 1.4.5.1.7.2.8.5 0 .2.1.3.1 1v.5h-1.7v-.3c0-.9 0-.9-1-.9h-2.1v1.2h-1.7v-5zm3.8 2.3c1 0 1 0 1-.5s0-.5-1-.5h-2.1v1h2.1z"/><path fill="#081FB8" d="M129.9 60.5c-9.8 0-13.8-.7-17-3.1-3.3-2.3-4.4-5.9-4.4-14.3 0-7.8 1-11.2 4-13.6 3.1-2.6 7.3-3.3 18-3.3 10.5 0 15.1.9 18.2 3.4 2.7 2.1 3.7 4.8 3.8 10.9v1H139l-.1-.9c-.3-2.6-1.6-3.8-8.4-3.8-7.8 0-8.5 1.1-8.5 6.7 0 4 .6 4.9 2.1 5.5 1.2.5 3.6.8 6.5.8 7 0 7.9-1 8.2-3.6l.1-.9h13.6v1c-.2 5.5-.9 7.8-3.1 10-3.2 3.3-7.2 4.2-19.5 4.2z"/><path fill="#c3c6c5" d="M130.4 27.1c10.2 0 14.7.8 17.6 3.2 2.5 1.9 3.3 4.4 3.5 10.1h-11.7c-.4-3.5-2.7-4.7-9.4-4.7-8 0-9.5 1.2-9.5 7.7 0 4 .6 5.6 2.7 6.4 1.4.6 3.8.9 6.9.9 6.8 0 8.7-.9 9.2-4.4h11.7c-.2 5.1-.8 7.4-2.8 9.4-2.9 3-6.7 3.8-18.8 3.8-9.4 0-13.4-.7-16.4-2.9-3-2.1-4-5.4-4-13.5 0-7.4.9-10.7 3.6-12.9 3-2.4 7-3.1 17.4-3.1m0-2c-10.9 0-15.3.8-18.6 3.6-3.7 3-4.4 7.3-4.4 14.4 0 7.7.8 12.3 4.8 15.2 3.4 2.5 7.5 3.2 17.6 3.2 11.7 0 16.6-.7 20.2-4.4 2.7-2.7 3.2-5.7 3.4-10.7l.1-2.1H138l-.3 1.7c-.3 1.7-.4 2.7-7.2 2.7-2.7 0-5-.3-6.1-.7-.8-.3-1.5-.6-1.5-4.6 0-2.8.3-4.1 1-4.7 1.1-.9 3.9-1 6.5-1 7.1 0 7.3 1.4 7.4 2.9l.2 1.8h15.6l-.1-2.1c-.2-5.5-.9-9-4.2-11.6-3.3-2.7-7.9-3.6-18.9-3.6z"/><path fill="#081FB8" stroke="#FFF" stroke-width="2" stroke-miterlimit="10" d="M193.4 30c3.1 2.3 4 5.1 4 12.8 0 8.4-.8 11.3-3.6 13.6-2.9 2.4-6.8 3.1-18.1 3.1-11.5 0-15.3-.7-18.2-3.1-2.9-2.3-3.6-5.2-3.6-14.1 0-7.2.9-10.1 4-12.3 2.8-2.1 7.3-2.8 17.8-2.8 10.4 0 14.9.7 17.7 2.8m-28.1 13.5c0 4.1.5 5.5 2.6 6.3 1.4.6 4 1 7.7 1 8.7 0 10.2-1.1 10.2-7.6 0-4.2-.7-5.6-2.8-6.5-1.5-.6-4.2-.9-7.4-.9-8.7 0-10.3 1.2-10.3 7.7"/><path fill="#081FB8" d="M198.7 59.7V27h12.8v3.1c2.3-2.6 6.1-3.9 12-3.9 6.9 0 11.1 1.6 13.9 5.4 2.3-3.8 6.3-5.4 13.3-5.4 6.6 0 10.7 1.3 13.5 4.3 3 3.1 3.5 6.2 3.5 13.9v15.4h-13.5V44.3c-.1-5.2-.3-5.3-1-6.1-.9-1-2.7-1.4-5.7-1.4-3.2 0-5.1.5-6.1 1.6S240 40.8 240 46v13.7h-13.5V44.3c0-4.7-.1-5.3-1-6.1-.8-.9-2.7-1.4-5.6-1.4-3.2 0-5.2.5-6.3 1.6-1.1 1.1-1.4 2.8-1.4 7.6v13.7h-13.5z"/><path fill="#c3c6c5" d="M250.7 27.2c6.4 0 10.2 1.2 12.8 4 2.7 2.7 3.3 5.3 3.3 13.2v14.4h-11.5V44.3c-.1-5.1-.2-5.7-1.3-6.8-1.1-1.2-3.1-1.7-6.5-1.7-3.5 0-5.6.6-6.8 2-1.3 1.4-1.7 3.2-1.7 8.2v12.7h-11.5V44.3c0-4.8-.1-5.6-1.2-6.8-1.1-1.2-3.1-1.7-6.4-1.7-3.5 0-5.7.6-7 1.9-1.3 1.3-1.7 3.3-1.7 8.3v12.7h-11.5V28h10.8v4.6h.6c1.7-3.7 5.6-5.4 12.4-5.4 7.4 0 11.5 1.9 14 6.4 2-4.6 5.7-6.4 13.2-6.4m0-2c-6.6 0-10.8 1.4-13.4 4.7-2.9-3.3-7.3-4.7-13.8-4.7-3.4 0-7.8.3-11 2.6V26h-14.8v34.7h15.5V46c0-4.9.4-6.2 1.1-6.9.9-.9 2.7-1.3 5.6-1.3 3.3 0 4.5.6 4.9 1 .5.6.7.8.7 5.5v16.4H241V46c0-4.8.4-6 1.2-6.9.7-.9 2.5-1.3 5.3-1.3 2.7 0 4.3.4 5 1.1.5.5.7.7.8 5.4v16.3h15.5V44.3c0-8-.6-11.2-3.8-14.6-3.1-3.2-7.3-4.5-14.3-4.5z"/><path fill="#081FB8" d="M268.5 59.7V27h12.8v3c2.3-2.6 6.1-3.8 12-3.8 6.9 0 11.1 1.6 13.9 5.4 2.3-3.8 6.3-5.4 13.4-5.4 6.6 0 10.6 1.3 13.5 4.3 3 3.1 3.5 6.2 3.5 13.9v15.4H324V44.3c0-5.2-.2-5.3-1-6.1-1-1-2.8-1.4-5.8-1.4-3.1 0-5.1.5-6.1 1.6s-1.4 2.4-1.4 7.6v13.7h-13.5V44.3c0-4.7-.1-5.3-1-6.1-.8-.9-2.7-1.4-5.6-1.4-3.2 0-5.2.5-6.3 1.6-1.1 1.1-1.4 2.8-1.4 7.6v13.7h-13.4z"/><path fill="#c3c6c5" d="M320.5 27.2c6.4 0 10.1 1.2 12.8 4 2.7 2.7 3.3 5.3 3.3 13.2v14.4H325V44.3c0-5.1-.2-5.7-1.3-6.8-1.2-1.2-3.1-1.7-6.5-1.7s-5.6.6-6.8 2c-1.3 1.4-1.7 3.2-1.7 8.2v12.7h-11.5V44.3c0-4.8-.1-5.6-1.2-6.8-1.1-1.2-3.1-1.7-6.4-1.7-3.4 0-5.7.6-7 1.9-1.3 1.3-1.7 3.3-1.7 8.3v12.7h-11.5V28h10.8v4.6h.5c1.7-3.7 5.6-5.4 12.4-5.4 7.4 0 11.5 1.9 14 6.4 2.1-4.6 5.8-6.4 13.4-6.4m0-2c-6.7 0-10.8 1.4-13.4 4.7-2.9-3.3-7.2-4.7-13.8-4.7-3.4 0-7.7.3-11 2.6V26h-14.8v34.7H283V46c0-4.9.4-6.2 1.1-6.9.9-.9 2.7-1.3 5.6-1.3 3.3 0 4.5.6 4.9 1 .5.6.7.8.7 5.5v16.4h15.5V46c0-4.8.4-6 1.2-6.9.8-.9 2.6-1.3 5.4-1.3 3.6 0 4.6.6 5.1 1.1.5.5.6.6.7 5.4v16.3h15.5V44.3c0-8-.6-11.2-3.8-14.6-3.2-3.2-7.5-4.5-14.4-4.5z"/><path fill="#081FB8" stroke="#FFF" stroke-width="2" stroke-miterlimit="10" d="M378.6 30c3.1 2.3 3.9 5.1 3.9 12.8 0 8.4-.8 11.3-3.6 13.6-2.9 2.4-6.7 3.1-18.1 3.1-11.5 0-15.3-.7-18.2-3.1-2.8-2.3-3.6-5.2-3.6-14.1 0-7.2.9-10.1 4-12.3 2.8-2.1 7.3-2.8 17.8-2.8s14.9.7 17.8 2.8m-28.1 13.5c0 4.1.5 5.5 2.6 6.3 1.4.6 4 1 7.7 1 8.7 0 10.2-1.1 10.2-7.6 0-4.2-.6-5.6-2.8-6.5-1.4-.6-4.2-.9-7.4-.9-8.8 0-10.3 1.2-10.3 7.7M428.3 58.7h-10.8v-4h-.6c-2.2 3.7-5.3 4.8-13.6 4.8s-12.3-.9-14.9-3.3c-2.5-2.3-3.3-5.5-3.3-13.1 0-7.8 1.2-11.5 4.5-13.6 2.8-1.8 6-2.3 13.9-2.3 8.1 0 10.7 1 12.9 4.9h.5V15.4h11.5l-.1 43.3zM396.6 43c0 6.7 1.3 7.8 9.9 7.8 4.2 0 7.3-.5 8.7-1.4 1.3-.9 1.7-2.5 1.7-6 0-6.3-1.5-7.5-9.7-7.5-9.1-.2-10.6.9-10.6 7.1M469.9 30c3.1 2.3 4 5.1 4 12.8 0 8.4-.8 11.3-3.6 13.6-2.9 2.4-6.8 3.1-18.1 3.1-11.5 0-15.3-.7-18.2-3.1-2.9-2.3-3.6-5.2-3.6-14.1 0-7.2.9-10.1 3.9-12.3 2.9-2.1 7.4-2.8 17.8-2.8 10.6 0 15 .7 17.8 2.8m-28 13.5c0 4.1.5 5.5 2.6 6.3 1.4.6 4 1 7.7 1 8.7 0 10.2-1.1 10.2-7.6 0-4.2-.6-5.6-2.8-6.5-1.4-.6-4.2-.9-7.4-.9-8.7 0-10.3 1.2-10.3 7.7"/><path fill="#081FB8" d="M475.3 59.7V27h12.8v3.2c2.3-2.8 5.7-4 11.4-4 9.7 0 13.4 3.6 13.4 13.3v3.1h-12.8v-1c0-4-.8-4.8-5-4.8-2.3 0-4.2.7-5.1 1.8-.9 1.2-1.2 2.4-1.2 7.3v13.7h-13.5z"/><path fill="#c3c6c5" d="M499.5 27.2c9.2 0 12.4 3.1 12.4 12.3v2.1h-10.8c0-4.6-1.3-5.8-6-5.8-2.6 0-4.8.8-5.9 2.2-1.1 1.5-1.4 3.2-1.4 7.9v12.7h-11.5V28h10.9v4.6h.6c2-3.9 5.3-5.4 11.7-5.4m0-2c-4.7 0-8 .8-10.4 2.6V26h-14.9v34.7h15.5V45.9c0-4.6.3-5.8 1-6.7.7-.9 2.3-1.4 4.2-1.4 3.8 0 4 .5 4 3.8v2h14.8v-4.1c.2-10.3-3.9-14.3-14.2-14.3z"/><path fill="#081FB8" d="M533.6 60.5c-9 0-13.5-.8-16.5-3.1-3.3-2.5-4.3-5.7-4.3-14 0-8.7 1-11.9 4.5-14.4 3.3-2.3 7.2-2.9 17.4-2.9 10.7 0 14.4.7 17.4 3.1 3 2.5 4.1 6.3 4.1 13.4v4.1h-30c.1 2.3.5 2.8 1.1 3.2 1 .7 3.3 1.1 7.2 1.1 7.8 0 7.9-.7 8.2-2.4l.1-.8h13.4l-.1 1.1c-1 9.8-6.8 11.6-22.5 11.6zm9.1-22c-.1-1.4-.2-1.7-.6-2-.8-.9-3-1.3-7.2-1.3-7 0-8.3.8-8.6 3.3h16.4z"/><path fill="#c3c6c5" d="M534.8 27.1c10.3 0 14 .6 16.8 2.9 2.7 2.3 3.8 5.7 3.8 12.7v3.1h-30c0 3.1.4 4.2 1.5 5 1.2.9 3.6 1.3 7.8 1.3 7.3 0 8.7-.5 9.2-3.3h11.4c-.9 8.5-5.1 10.6-21.5 10.6-8.9 0-13.1-.8-15.9-2.9-3-2.3-3.9-5.3-3.9-13.2 0-8.2.9-11.3 4.1-13.6 2.8-1.9 6.6-2.6 16.7-2.6m-9.6 12.4h18.5c-.1-2.4-.2-3-.9-3.7-1.1-1.1-3.4-1.6-7.9-1.6-7.7.1-9.5 1-9.7 5.3m9.6-14.4c-10.5 0-14.5.7-18 3.1-4.2 3-5 7.3-5 15.2 0 7.6.7 11.8 4.7 14.8 3.2 2.4 7.7 3.3 17.1 3.3 15.7 0 22.4-1.7 23.5-12.4l.2-2.2h-.1v-4.2c0-7.5-1.3-11.5-4.5-14.2-3.1-2.7-7-3.4-17.9-3.4zm-7.1 12.4c.7-.9 2.4-1.3 7.3-1.3s6.1.6 6.5.9c.1.1.1.1.2.3h-14v.1zm-.4 10.3h14.5l-.1.7c-.2.9-.3.9-.7 1.1-1.2.4-3.8.5-6.5.5-3.5 0-5.7-.3-6.6-.9-.2-.2-.5-.4-.6-1.4z"/></svg>