<?xml version="1.0" encoding="utf-8"?>
<!-- Generator: Adobe Illustrator 18.0.0, SVG Export Plug-In . SVG Version: 6.00 Build 0)  -->
<!DOCTYPE svg PUBLIC "-//W3C//DTD SVG 1.1//EN" "http://www.w3.org/Graphics/SVG/1.1/DTD/svg11.dtd">
<svg version="1.1"
	 id="svg2" xmlns:svg="http://www.w3.org/2000/svg" xmlns:inkscape="http://www.inkscape.org/namespaces/inkscape" xmlns:rdf="http://www.w3.org/1999/02/22-rdf-syntax-ns#" xmlns:dc="http://purl.org/dc/elements/1.1/" xmlns:sodipodi="http://sodipodi.sourceforge.net/DTD/sodipodi-0.dtd" xmlns:cc="http://web.resource.org/cc/" sodipodi:version="0.32" sodipodi:docbase="C:\Documents and Settings\Matias\Desktop" inkscape:version="0.44.1" sodipodi:docname="Figura1.svg"
	 xmlns="http://www.w3.org/2000/svg" xmlns:xlink="http://www.w3.org/1999/xlink" x="0px" y="0px" viewBox="0 0 566.9 98.6"
	 enable-background="new 0 0 566.9 98.6" xml:space="preserve">
<sodipodi:namedview  width="1000px" height="200px" inkscape:cy="-180.96718" borderopacity="1.0" gridtolerance="10.0" objecttolerance="10.0" id="base" guidetolerance="10.0" bordercolor="#666666" pagecolor="#ffffff" inkscape:cx="652.10241" inkscape:zoom="0.70710678" inkscape:window-height="844" inkscape:current-layer="_42677040" inkscape:pageshadow="2" inkscape:pageopacity="0.0" inkscape:window-width="1440" inkscape:window-y="-4" inkscape:window-x="-4">
	</sodipodi:namedview>
<g>
	<g id="_43443024">
		<polygon fill="#2E3192" points="494.6,96.2 501,49.1 479.1,1.8 504.4,1.8 515.3,26.9 531.7,1.8 557.7,1.8 523.5,55 518,96.2 		"/>
		<path fill="#FFFFFF" d="M555.9,2.8l-33.4,51.9l-5.4,40.5h-21.4L502,49L480.6,2.8h23.1L515.1,29l17.1-26.2H555.9 M559.6,0.8h-3.7
			h-23.7h-1.1l-0.6,0.9l-15.1,23.1L505.6,2L505,0.8h-1.3h-23.1h-3.1l1.3,2.8L500,49.3l-6.2,45.6l-0.3,2.3h2.3h21.4h1.8l0.2-1.7
			l5.4-40l33.1-51.5L559.6,0.8L559.6,0.8z"/>
	</g>
	<g id="_43441624">
		<polygon fill="#2E3192" points="255.9,96.2 269.1,1.8 325,1.8 321.5,24.3 289.1,24.3 287.3,37.2 315.3,37.2 312.1,59.7 
			283.9,59.7 282.2,73.6 314.7,73.6 311.6,96.2 		"/>
		<path fill="#FFFFFF" d="M323.8,2.8l-3.1,20.5h-32.5l-2,14.8h27.9l-2.9,20.5H283l-2,16h32.5l-2.9,20.5h-53.6l12.8-92.4H323.8
			 M326.1,0.8h-2.3h-53.9h-1.7l-0.2,1.7l-12.8,92.4l-0.3,2.3h2.3h53.6h1.7l0.2-1.7l2.9-20.5l0.3-2.3h-2.3h-30.2l1.5-12h26.5h1.7
			l0.2-1.7l2.9-20.5l0.3-2.3h-2.3h-25.7l1.5-10.8h30.8h1.7l0.3-1.7l3.1-20.5L326.1,0.8L326.1,0.8z"/>
	</g>
	<g id="_43775888">
		<path fill="#2E3192" d="M55.6,97.7c-0.7,0-1.4,0-2.1-0.1l-0.5,0c-9.3,0-23.7-3.9-33.6-15c-7.2-8.1-10.4-18.5-9.1-30
			C14.6,14.7,46.9,1.2,75.6,1.2c7.7,0,14.9,1,20.4,2.9l0.8,0.3l-3.5,21.7l-1.1-0.4c-6-2-12.1-2.9-18.1-2.9
			c-24.7,0-40.7,16.2-41.4,31.1c-0.3,6.3,1.4,11.3,4.9,14.9c4.9,5.1,12.4,6.3,14.9,6.3c3,0,8.4-0.4,11.1-1.6l0.8-4.6H48.4l2.8-20.2
			h39.1l-3.1,23.1L115,1.8h28.9l9,72.3l23.9-72.3h23.5l7,45.9l18-45.9h26.1l5.8,94.4h-22.5l-3.2-49.4l-19.1,49.4h-20.1l-7.5-46.9
			l-15.2,46.9H133l-3.4-27.4h-17.8l-10.5,27.4H77.5l1.1-3.4C73.8,94.8,64.7,97.7,55.6,97.7z M127.1,48.6l-1.7-13.9l-5.2,13.9H127.1z
			"/>
		<path fill="#FFFFFF" d="M75.6,2.2c7.9,0,15,1.1,20.1,2.9l-3.1,19.7c-6.4-2.1-12.6-3-18.4-3c-23.8,0-41.7,15.6-42.4,32.1
			C31,74.4,50.1,76.1,52.7,76.1c2.6,0,9.1-0.3,12-2l1.1-6.3H49.5l2.6-18.2h37.1l-4,29.9l30.5-76.7H143l9.4,75.8l25.1-75.8h22
			l7.4,48.8L226,2.8h24.5l5.7,92.4h-20.5l-3.4-53l-20.5,53h-18.5l-8-50.2L169,95.2h-35.1l-3.4-27.4h-19.4l-10.5,27.4H78.9l1.4-4.3
			c-4,2.1-14.7,5.8-24.7,5.8c-0.7,0-1.4,0-2.1-0.1c-0.2,0-0.4,0-0.5,0c-18.2,0-45-14.3-41.7-43.9C15.8,13.8,50,2.2,75.6,2.2
			 M118.8,49.6h9.4l-2.3-19.1L118.8,49.6 M75.6,0.2l0,2L75.6,0.2c-8.9,0-26,1.4-41.2,11C19.9,20.4,11.4,34.3,9.3,52.5
			C8,64.3,11.2,74.9,18.6,83.3C28.7,94.6,43.4,98.6,53,98.6c0.2,0,0.3,0,0.5,0c0.7,0,1.4,0.1,2.1,0.1c7.6,0,15.9-2,21.4-4.1l0,0
			l-0.9,2.6h2.8h21.7h1.4l0.5-1.3l10.1-26.1h16.2l3.2,25.6l0.2,1.8h1.8H169h1.5l0.4-1.4l13.7-42.3l6.7,42l0.3,1.7h1.7h18.5h1.4
			l0.5-1.3l17.3-44.6l2.8,44l0.1,1.9h1.9h20.5h2.1l-0.1-2.1l-5.7-92.4l-0.1-1.9h-1.9H226h-1.4l-0.5,1.3l-16.4,41.8l-6.3-41.4
			l-0.3-1.7h-1.7h-22h-1.4l-0.5,1.4l-22.3,67.4l-8.3-67l-0.2-1.8H143h-27.4h-1.4l-0.5,1.3L89.3,63.7l1.9-13.9l0.3-2.3h-2.3H52.1
			h-1.7l-0.2,1.7l-2.6,18.2l-0.3,2.3h2.3h13.9l-0.5,2.9c-2.3,0.9-6.7,1.3-10.2,1.3c-0.1,0-8.7-0.2-14.2-5.9
			c-3.3-3.4-4.9-8.2-4.6-14.2c0.3-7.5,4.6-15.1,11.7-20.7c7.7-6.1,17.8-9.4,28.6-9.4c5.9,0,11.8,1,17.8,2.9l2.2,0.7l0.4-2.3
			l3.1-19.7L98,3.7l-1.6-0.5C90.8,1.3,83.4,0.2,75.6,0.2L75.6,0.2z M121.7,47.6l3.2-8.7l1,8.7H121.7L121.7,47.6z"/>
	</g>
	<g id="_44102912">
		<path fill="#2E3192" d="M448.4,96.5c-1.6,0-3.1-0.1-4.7-0.3c-6.2-0.8-17.7-3.7-25.3-14.4c-6.7-9.4-8.4-22-5.2-37.6
			c8.3-40.2,35-43.3,42.9-43.3c0.5,0,0.9,0,1.4,0c10.6,0.4,19.5,4.6,25.8,12.1c7.9,9.5,10.9,23.4,8.5,40.4
			C487.8,83.1,467.1,96.5,448.4,96.5C448.4,96.5,448.4,96.5,448.4,96.5z M454.8,22.6c-5.5,0-16.6,5.7-19.7,27.1
			c-1.3,9.1-0.3,15.8,3.1,20.1c2.8,3.6,6.7,4.7,9.4,5c0.4,0,0.8,0.1,1.2,0.1c3,0,17.9-1.2,21.1-25.4c1.3-10-0.1-17.5-4.1-22.1
			c-3.8-4.3-8.7-4.7-10.6-4.7C455.1,22.6,455,22.6,454.8,22.6z"/>
		<path fill="#FFFFFF" d="M456.2,1.9c0.5,0,0.9,0,1.4,0c21.7,0.9,37.9,18.2,33.4,51.3c-4.2,30.3-25.4,42.2-42.5,42.2
			c-1.5,0-3.1-0.1-4.5-0.3c-17.7-2.3-36.8-16.3-29.7-50.8C421.1,11,441.4,1.9,456.2,1.9 M448.8,75.9c6.2,0,19.2-4,22.1-26.3
			c3.1-23.9-9.7-27.9-15.7-27.9c-0.1,0-0.3,0-0.4,0c-6.4,0-17.6,6.5-20.7,27.9c-3.1,22,8,25.7,13.4,26.2
			C447.9,75.8,448.4,75.9,448.8,75.9 M456.2-0.1c-9.1,0-18.1,3.3-25.2,9.2c-9.2,7.6-15.5,19.4-18.7,34.9
			c-3.3,15.9-1.5,28.8,5.4,38.4c5.8,8.1,15,13.4,26,14.8c1.6,0.2,3.2,0.3,4.8,0.3c19.1,0,40.3-13.6,44.5-43.9
			c2.4-17.3-0.6-31.5-8.7-41.2c-6.4-7.7-15.6-12-26.5-12.4C457.1-0.1,456.7-0.1,456.2-0.1L456.2-0.1z M448.8,73.9
			c-0.4,0-0.7,0-1.1-0.1c-2.6-0.3-6.2-1.3-8.8-4.6c-3.2-4.1-4.1-10.6-2.9-19.4c3-20.7,13.5-26.2,18.7-26.2c0.1,0,0.2,0,0.3,0l0,0h0
			c1.8,0,6.4,0.4,9.8,4.4c3.8,4.4,5.1,11.5,3.9,21.3C465.9,72.7,451.7,73.9,448.8,73.9L448.8,73.9z"/>
	</g>
	<g id="_44104296">
		<path fill="#2E3192" d="M350.3,1.8h40.2c5.4,0,11.8,3.3,16.4,8.4c4.6,5.2,6.8,11.6,6,18.1c-1.5,13.1-5.4,15.6-8.6,17.6
			c-0.1,0-0.1,0.1-0.2,0.1c6.3,6.1,8.6,13.9,7.1,24c-2,13.1-12.7,26.2-32.1,26.2l-41.9,0L350.3,1.8z M378.6,73.7
			c8.8,0,10-7.4,10.1-8.2c0.1-0.9-0.4-2.4-1.5-3.7c-0.8-0.9-2.2-2-4.3-2h-17.4l-2,14H378.6z M379.4,37.2c8.1,0,9.6-5,9.8-7.1
			c0.1-0.9-0.4-2.4-1.5-3.7c-0.8-0.9-2.2-2-4.3-2h-13.1l-1.7,12.8H379.4z"/>
		<path fill="#FFFFFF" d="M390.5,2.8c9.4,0,23.1,10.8,21.4,25.4c-1.7,14.5-6.3,15.4-9.4,17.7c4.8,4.3,9.7,11.1,7.7,23.9
			c-2,12.8-12.5,25.4-31.1,25.4l-40.8,0l12.8-92.4H390.5 M367.4,38.2h12c8.8,0,10.6-5.7,10.8-8c0.3-2.3-2.3-6.8-6.8-6.8h-14
			L367.4,38.2 M362.3,74.7h16.3c8.8,0,10.8-6.8,11.1-9.1c0.3-2.3-2.3-6.8-6.8-6.8h-18.2L362.3,74.7 M390.5,0.8h-39.3h-1.7l-0.2,1.7
			l-12.8,92.4l-0.3,2.3l2.3,0l40.8,0c19.9,0,31-13.6,33.1-27.1c1.5-9.9-0.6-17.8-6.5-24c3.7-2.5,6.8-6,8.2-17.7
			c0.8-6.8-1.4-13.5-6.3-18.9C402.9,4.2,396.2,0.8,390.5,0.8L390.5,0.8z M371.2,25.3h12.2c1.7,0,2.9,0.9,3.6,1.7
			c1,1.1,1.4,2.4,1.3,2.9c-0.2,1.9-1.6,6.2-8.8,6.2h-9.7L371.2,25.3L371.2,25.3z M366.3,60.7h16.5c1.7,0,2.9,0.9,3.6,1.7
			c1,1.1,1.3,2.4,1.3,2.9c-0.2,1.2-1.3,7.4-9.1,7.4h-13.9L366.3,60.7L366.3,60.7z"/>
	</g>
	<g id="_42975192">
		<path fill="#2E3192" d="M530.6,92.6l-2.3-3.7H528v3.7h-3V82.5h4.5c0.8,0,1.6,0,2.5,0.5c0.9,0.5,1.4,1.5,1.4,2.6
			c0,1.4-0.7,2.4-1.9,2.9l2.6,4H530.6z M529.2,86.1c1.2,0,1.2-0.2,1.2-0.5c0-0.2,0-0.4-1.1-0.4H528v0.9L529.2,86.1z"/>
		<path fill="#FFFFFF" d="M529.5,83.5c0.7,0,1.4,0,2,0.4c0.6,0.3,0.9,1.1,0.9,1.7c0,1.6-1.1,2.2-2.6,2.2l2.4,3.7h-1.2l-2.3-3.7H527
			v-0.8l1.5,0c0.2,0,0.4,0,0.7,0c1,0,2.2-0.1,2.2-1.5c0-1.2-1.1-1.4-2.1-1.4H527h0v7.4h-1v-8.1H529.5 M529.5,81.5H526h-2v2v8.1v2h2
			h1h2V92l0.4,0.7l0.6,0.9h1.1h1.2h3.7l-2-3.1l-1.1-1.6c0.9-0.7,1.5-1.9,1.5-3.2c0-1.5-0.7-2.8-1.9-3.5
			C531.5,81.6,530.5,81.5,529.5,81.5L529.5,81.5z"/>
	</g>
	<g id="_44106160">
		<path fill="#2E3192" d="M528.7,95.8c-4.5,0-8.2-3.7-8.2-8.2c0-4.5,3.7-8.2,8.2-8.2c0,0,0,0,0,0c2.2,0,4.3,0.9,5.8,2.4
			c1.5,1.5,2.4,3.6,2.4,5.8C536.9,92.1,533.2,95.8,528.7,95.8L528.7,95.8z M528.7,82.2c-3,0-5.4,2.4-5.4,5.3c0,3,2.4,5.4,5.4,5.4
			c2.9,0,5.3-2.4,5.3-5.4C534,84.6,531.6,82.2,528.7,82.2z"/>
		<path fill="#FFFFFF" d="M528.7,80.3c4,0,7.2,3.2,7.2,7.2c0,4-3.2,7.2-7.2,7.2c-4,0-7.2-3.2-7.2-7.2
			C521.5,83.6,524.7,80.3,528.7,80.3v0.9c-3.5,0-6.4,2.8-6.4,6.3c0,3.5,2.8,6.4,6.4,6.4c3.5,0,6.3-2.8,6.3-6.4
			c0-3.5-2.8-6.3-6.3-6.3V80.3L528.7,80.3 M528.7,78.3h-2v0.2c-4.1,0.9-7.2,4.6-7.2,9c0,5.1,4.1,9.2,9.2,9.2c5.1,0,9.2-4.1,9.2-9.2
			c0-4.4-3.1-8.1-7.2-9v-0.2h-1.9C528.8,78.3,528.7,78.3,528.7,78.3L528.7,78.3z M528.7,83.2c2.4,0,4.3,1.9,4.3,4.3
			c0,2.4-1.9,4.4-4.3,4.4c-2.4,0-4.4-2-4.4-4.4C524.3,85.2,526.3,83.2,528.7,83.2L528.7,83.2z"/>
	</g>
	<g id="_42975192_1_">
		<path fill="#2E3192" d="M527,84.2h2.3c1,0,2.1,0.2,2.1,1.4c0,1.6-1.8,1.5-2.9,1.5l-1.5,0v0.8h1.8l2.3,3.7h1.2l-2.4-3.7
			c1.4,0,2.6-0.6,2.6-2.2c0-0.7-0.3-1.4-0.9-1.7c-0.6-0.4-1.3-0.4-2-0.4H526v8.1h1L527,84.2L527,84.2z"/>
	</g>
</g>
</svg>
