<svg xmlns="http://www.w3.org/2000/svg" viewBox="0 0 566.9 98.6" xml:space="preserve"><path fill="#3071c6" d="m494.6 96.2 6.4-47.1-21.9-47.3h25.3l10.9 25.1 16.4-25.1h26L523.5 55 518 96.2z"/><path fill="#c3c6c5" fill-opacity="0" d="m555.9 2.8-33.4 51.9-5.4 40.5h-21.4L502 49 480.6 2.8h23.1L515.1 29l17.1-26.2h23.7m3.7-2h-28.5l-.6.9-15.1 23.1L505.6 2 505 .8H477.5l1.3 2.8L500 49.3l-6.2 45.6-.3 2.3H519l.2-1.7 5.4-40L557.7 4l1.9-3.2z"/><path fill="#3071c6" d="m255.9 96.2 13.2-94.4H325l-3.5 22.5h-32.4l-1.8 12.9h28l-3.2 22.5h-28.2l-1.7 13.9h32.5l-3.1 22.6z"/><path fill="#c3c6c5" fill-opacity="0" d="m323.8 2.8-3.1 20.5h-32.5l-2 14.8h27.9l-2.9 20.5H283l-2 16h32.5l-2.9 20.5H257l12.8-92.4h54m2.3-1.9h-57.9l-.2 1.7-12.8 92.4-.3 2.3h57.6l.2-1.7 2.9-20.5.3-2.3h-32.5l1.5-12h28.2l.2-1.7 2.9-20.5.3-2.3h-28l1.5-10.8h32.5l.3-1.7 3.1-20.5.2-2.4z"/><path fill="#3071c6" d="M55.6 97.7c-.7 0-1.4 0-2.1-.1H53c-9.3 0-23.7-3.9-33.6-15-7.2-8.1-10.4-18.5-9.1-30C14.6 14.7 46.9 1.2 75.6 1.2c7.7 0 14.9 1 20.4 2.9l.8.3-3.5 21.7-1.1-.4c-6-2-12.1-2.9-18.1-2.9-24.7 0-40.7 16.2-41.4 31.1-.3 6.3 1.4 11.3 4.9 14.9 4.9 5.1 12.4 6.3 14.9 6.3 3 0 8.4-.4 11.1-1.6l.8-4.6h-16l2.8-20.2h39.1l-3.1 23.1 27.8-70h28.9l9 72.3 23.9-72.3h23.5l7 45.9 18-45.9h26.1l5.8 94.4h-22.5l-3.2-49.4-19.1 49.4h-20.1l-7.5-46.9-15.2 46.9H133l-3.4-27.4h-17.8l-10.5 27.4H77.5l1.1-3.4c-4.8 2-13.9 4.9-23 4.9zm71.5-49.1-1.7-13.9-5.2 13.9h6.9z"/><path fill="#c3c6c5" fill-opacity="0" d="M75.6 2.2c7.9 0 15 1.1 20.1 2.9l-3.1 19.7c-6.4-2.1-12.6-3-18.4-3-23.8 0-41.7 15.6-42.4 32.1-.8 20.5 18.3 22.2 20.9 22.2 2.6 0 9.1-.3 12-2l1.1-6.3H49.5l2.6-18.2h37.1l-4 29.9 30.5-76.7H143l9.4 75.8 25.1-75.8h22l7.4 48.8L226 2.8h24.5l5.7 92.4h-20.5l-3.4-53-20.5 53h-18.5l-8-50.2L169 95.2h-35.1l-3.4-27.4h-19.4l-10.5 27.4H78.9l1.4-4.3c-4 2.1-14.7 5.8-24.7 5.8-.7 0-1.4 0-2.1-.1H53c-18.2 0-45-14.3-41.7-43.9C15.8 13.8 50 2.2 75.6 2.2m43.2 47.4h9.4l-2.3-19.1-7.1 19.1M75.6.2v2-2c-8.9 0-26 1.4-41.2 11-14.5 9.2-23 23.1-25.1 41.3-1.3 11.8 1.9 22.4 9.3 30.8C28.7 94.6 43.4 98.6 53 98.6h.5c.7 0 1.4.1 2.1.1 7.6 0 15.9-2 21.4-4.1l-.9 2.6H102l.5-1.3 10.1-26.1h16.2l3.2 25.6.2 1.8h38.3l.4-1.4 13.7-42.3 6.7 42 .3 1.7H213.2l.5-1.3L231 51.3l2.8 44 .1 1.9h24.5l-.1-2.1-5.7-92.4-.1-1.9h-27.9l-.5 1.3-16.4 41.8-6.3-41.4-.3-1.7H176l-.5 1.4-22.3 67.4-8.3-67-.2-1.8H114.2l-.5 1.3-24.4 61.6 1.9-13.9.3-2.3H50.4l-.2 1.7-2.6 18.2-.3 2.3h16.2l-.5 2.9c-2.3.9-6.7 1.3-10.2 1.3-.1 0-8.7-.2-14.2-5.9-3.3-3.4-4.9-8.2-4.6-14.2.3-7.5 4.6-15.1 11.7-20.7 7.7-6.1 17.8-9.4 28.6-9.4 5.9 0 11.8 1 17.8 2.9l2.2.7.4-2.3 3.1-19.7.2-1.6-1.6-.5c-5.6-1.9-13-3-20.8-3zm46.1 47.4 3.2-8.7 1 8.7h-4.2z"/><path fill="#3071c6" d="M448.4 96.5c-1.6 0-3.1-.1-4.7-.3-6.2-.8-17.7-3.7-25.3-14.4-6.7-9.4-8.4-22-5.2-37.6C421.5 4 448.2.9 456.1.9h1.4c10.6.4 19.5 4.6 25.8 12.1 7.9 9.5 10.9 23.4 8.5 40.4-4 29.7-24.7 43.1-43.4 43.1zm6.4-73.9c-5.5 0-16.6 5.7-19.7 27.1-1.3 9.1-.3 15.8 3.1 20.1 2.8 3.6 6.7 4.7 9.4 5 .4 0 .8.1 1.2.1 3 0 17.9-1.2 21.1-25.4 1.3-10-.1-17.5-4.1-22.1-3.8-4.3-8.7-4.7-10.6-4.7-.1-.1-.2-.1-.4-.1z"/><path fill="#c3c6c5" fill-opacity="0" d="M456.2 1.9h1.4c21.7.9 37.9 18.2 33.4 51.3-4.2 30.3-25.4 42.2-42.5 42.2-1.5 0-3.1-.1-4.5-.3-17.7-2.3-36.8-16.3-29.7-50.8 6.8-33.3 27.1-42.4 41.9-42.4m-7.4 74c6.2 0 19.2-4 22.1-26.3 3.1-23.9-9.7-27.9-15.7-27.9h-.4c-6.4 0-17.6 6.5-20.7 27.9-3.1 22 8 25.7 13.4 26.2.4 0 .9.1 1.3.1m7.4-76c-9.1 0-18.1 3.3-25.2 9.2-9.2 7.6-15.5 19.4-18.7 34.9-3.3 15.9-1.5 28.8 5.4 38.4 5.8 8.1 15 13.4 26 14.8 1.6.2 3.2.3 4.8.3 19.1 0 40.3-13.6 44.5-43.9 2.4-17.3-.6-31.5-8.7-41.2-6.4-7.7-15.6-12-26.5-12.4-.7-.1-1.1-.1-1.6-.1zm-7.4 74c-.4 0-.7 0-1.1-.1-2.6-.3-6.2-1.3-8.8-4.6-3.2-4.1-4.1-10.6-2.9-19.4 3-20.7 13.5-26.2 18.7-26.2h.3c1.8 0 6.4.4 9.8 4.4 3.8 4.4 5.1 11.5 3.9 21.3-2.8 23.4-17 24.6-19.9 24.6z"/><path fill="#3071c6" d="M350.3 1.8h40.2c5.4 0 11.8 3.3 16.4 8.4 4.6 5.2 6.8 11.6 6 18.1-1.5 13.1-5.4 15.6-8.6 17.6-.1 0-.1.1-.2.1 6.3 6.1 8.6 13.9 7.1 24-2 13.1-12.7 26.2-32.1 26.2h-41.9l13.1-94.4zm28.3 71.9c8.8 0 10-7.4 10.1-8.2.1-.9-.4-2.4-1.5-3.7-.8-.9-2.2-2-4.3-2h-17.4l-2 14h15.1zm.8-36.5c8.1 0 9.6-5 9.8-7.1.1-.9-.4-2.4-1.5-3.7-.8-.9-2.2-2-4.3-2h-13.1l-1.7 12.8h10.8z"/><path fill="#c3c6c5" fill-opacity="0" d="M390.5 2.8c9.4 0 23.1 10.8 21.4 25.4-1.7 14.5-6.3 15.4-9.4 17.7 4.8 4.3 9.7 11.1 7.7 23.9-2 12.8-12.5 25.4-31.1 25.4h-40.8l12.8-92.4h39.4m-23.1 35.4h12c8.8 0 10.6-5.7 10.8-8 .3-2.3-2.3-6.8-6.8-6.8h-14l-2 14.8m-5.1 36.5h16.3c8.8 0 10.8-6.8 11.1-9.1.3-2.3-2.3-6.8-6.8-6.8h-18.2l-2.4 15.9M390.5.8h-41l-.2 1.7-12.8 92.4-.3 2.3H379.3c19.9 0 31-13.6 33.1-27.1 1.5-9.9-.6-17.8-6.5-24 3.7-2.5 6.8-6 8.2-17.7.8-6.8-1.4-13.5-6.3-18.9-4.9-5.3-11.6-8.7-17.3-8.7zm-19.3 24.5h12.2c1.7 0 2.9.9 3.6 1.7 1 1.1 1.4 2.4 1.3 2.9-.2 1.9-1.6 6.2-8.8 6.2h-9.7l1.4-10.8zm-4.9 35.4h16.5c1.7 0 2.9.9 3.6 1.7 1 1.1 1.3 2.4 1.3 2.9-.2 1.2-1.3 7.4-9.1 7.4h-13.9l1.6-12z"/><path fill="#3071c6" d="m530.6 92.6-2.3-3.7h-.3v3.7h-3V82.5h4.5c.8 0 1.6 0 2.5.5.9.5 1.4 1.5 1.4 2.6 0 1.4-.7 2.4-1.9 2.9l2.6 4h-3.5zm-1.4-6.5c1.2 0 1.2-.2 1.2-.5 0-.2 0-.4-1.1-.4H528v.9h1.2z"/><path fill="#c3c6c5" fill-opacity="0" d="M529.5 83.5c.7 0 1.4 0 2 .4.6.3.9 1.1.9 1.7 0 1.6-1.1 2.2-2.6 2.2l2.4 3.7H531l-2.3-3.7H527V87h2.2c1 0 2.2-.1 2.2-1.5 0-1.2-1.1-1.4-2.1-1.4H527v7.4h-1v-8.1h3.5m0-1.9H524v12.1h5V92l.4.7.6.9h6l-2-3.1-1.1-1.6c.9-.7 1.5-1.9 1.5-3.2 0-1.5-.7-2.8-1.9-3.5-1-.6-2-.7-3-.7z"/><path fill="#3071c6" d="M528.7 95.8c-4.5 0-8.2-3.7-8.2-8.2 0-4.5 3.7-8.2 8.2-8.2 2.2 0 4.3.9 5.8 2.4s2.4 3.6 2.4 5.8c0 4.5-3.7 8.2-8.2 8.2zm0-13.6c-3 0-5.4 2.4-5.4 5.3 0 3 2.4 5.4 5.4 5.4 2.9 0 5.3-2.4 5.3-5.4 0-2.9-2.4-5.3-5.3-5.3z"/><path fill="#c3c6c5" fill-opacity="0" d="M528.7 80.3c4 0 7.2 3.2 7.2 7.2s-3.2 7.2-7.2 7.2-7.2-3.2-7.2-7.2c0-3.9 3.2-7.2 7.2-7.2v.9c-3.5 0-6.4 2.8-6.4 6.3s2.8 6.4 6.4 6.4c3.5 0 6.3-2.8 6.3-6.4 0-3.5-2.8-6.3-6.3-6.3v-.9m0-2h-2v.2c-4.1.9-7.2 4.6-7.2 9 0 5.1 4.1 9.2 9.2 9.2s9.2-4.1 9.2-9.2c0-4.4-3.1-8.1-7.2-9v-.2h-2zm0 4.9c2.4 0 4.3 1.9 4.3 4.3s-1.9 4.4-4.3 4.4-4.4-2-4.4-4.4c0-2.3 2-4.3 4.4-4.3z"/><path fill="#3071c6" d="M527 84.2h2.3c1 0 2.1.2 2.1 1.4 0 1.6-1.8 1.5-2.9 1.5H527v.8h1.8l2.3 3.7h1.2l-2.4-3.7c1.4 0 2.6-.6 2.6-2.2 0-.7-.3-1.4-.9-1.7-.6-.4-1.3-.4-2-.4H526v8.1h1v-7.5z"/></svg>