<svg xmlns="http://www.w3.org/2000/svg" viewBox="0 0 566.9 72.7" xml:space="preserve"><g fill="#c3c6c5"><path d="M122.9 3.1c2.8-3.6 8.6-4.2 12-1.2 1.4 1.2 2.4 2.8 2.9 4.6 6.4 21.9 12.8 43.8 19.1 65.7h-11.3c-1.8-6-3.5-12.1-5.3-18.1h-21.8c-1.8 6-3.5 12.1-5.3 18.2H102c6.1-20.9 12.1-41.8 18.2-62.7.8-2.2 1.1-4.7 2.7-6.5m6.6 13.5c-2.7 9.1-5.3 18.2-7.9 27.3h15.8c-2.6-9.2-5.2-18.2-7.9-27.3zM202.1 3.6c2-2.8 5.7-4.2 9.1-3.3 3.1.7 5.4 3.3 6.2 6.3 6.4 21.9 12.7 43.8 19.1 65.7h-11.3c-1.8-6-3.5-12.1-5.2-18.2h-21.8c-1.7 6.1-3.5 12.1-5.3 18.1h-11.2c6-21 12.2-42 18.3-63 .6-1.9.8-4 2.1-5.6m-1 40.2h15.8c-2.6-9.1-5.3-18.2-7.9-27.3-2.6 9.1-5.2 18.2-7.9 27.3zM148.5.2h40.8v11h-15v61.1h-10.8V11.2h-15V.2zM248.4.6c1-.4 2.1-.5 3.2-.5h12.9c7.2.1 14.1 4.6 17.2 11.1 2.2 4.2 2.4 9.1 1.8 13.8-.4 4.8-2.4 9.7-6.1 12.9-2 1.8-4.4 2.8-6.5 4.4-1.2.9-1.2 2.6-.6 3.8 5.7 8.8 11.6 17.4 17.4 26.1H275c-5.6-8.4-11.1-16.8-16.6-25.1-1.6-2.4-2.1-5.5-1.1-8.3.8-2.1 2.6-3.6 4.6-4.4 3.9-1.5 7.7-3.8 9.8-7.5 1.6-2.7 1.5-6.1.8-9.1-.9-3.9-4.7-7-8.7-6.8h-8.3c-1.3 0-2.4 1.1-2.4 2.3v58.8h-10.8V8.7c0-3.5 2.6-7 6.1-8.1zM293.4.2h11.4v72.1h-11.4V.2zM32.2 0h5.5v12.9c0 3.6-.1 7.2-.2 10.7-.3 5.2-.7 10.4-1.5 15.5-.6 3.5-1.8 6.9-3.3 10.1-2.5 5.2-6.3 9.6-10.7 13.3-3.9 3.4-8.6 5.9-13.4 7.6-2.8 1-5.6 1.7-8.5 2.1V61.4c3.5-.5 6.8-1.8 10-3.4 3.7-2 7-4.6 9.8-7.7 2.9-3.2 5.2-6.9 7-10.8 2.1-4.5 3.2-9.4 3.9-14.3.8-6.2 1.2-12.5 1.3-18.8.1-2.1 0-4.3.1-6.4zM39.8 0h10.1v72.3H39.8V0zM52.2 0h5.4c-.1 7.3.2 14.7 1.1 22 .7 5.7 1.7 11.4 4 16.7 2.1 5.1 5.2 9.9 9.2 13.7 3.8 3.7 8.5 6.5 13.5 8.1 1.4.5 2.9.8 4.3 1v10.8c-2.9-.4-5.7-1.1-8.5-2.1-3.2-1.2-6.3-2.6-9.2-4.5-2.1-1.4-4.1-3-5.9-4.7-3.1-2.8-5.8-6-7.8-9.6-1.6-2.8-2.8-5.9-3.7-9-.8-3.1-1.2-6.4-1.5-9.6-.6-7-.9-13.9-.8-20.9-.1-4-.1-8-.1-11.9z"/><path d="M32.2 0v6.4c-.2 6.3-.6 12.6-1.5 18.8-.8 4.9-1.9 9.8-3.9 14.3-1.8 3.9-4.1 7.6-7 10.8C17 53.4 13.7 56 10 58c-3.1 1.6-6.5 2.9-10 3.4v10.8c2.9-.4 5.8-1.1 8.5-2.1 4.9-1.7 9.5-4.2 13.4-7.6 4.4-3.7 8.2-8.1 10.7-13.3 1.5-3.2 2.7-6.6 3.3-10.1.9-5.1 1.2-10.3 1.4-15.5.1-3.6.3-7.2.2-10.7V0h-5.3M39.8 0v72.2h10.1V-.1c-3.3.1-6.7.1-10.1.1M52.2 0v11.8c0 7 .2 14 .8 20.9.3 3.2.7 6.4 1.5 9.6.9 3.1 2.1 6.2 3.7 9 2.1 3.6 4.8 6.8 7.8 9.6 1.9 1.7 3.8 3.3 5.9 4.7 2.9 1.9 6.1 3.4 9.3 4.5 2.7.9 5.6 1.7 8.5 2.1V61.4c-1.5-.2-2.9-.6-4.3-1-5.1-1.6-9.7-4.4-13.5-8.1-4-3.8-7.1-8.6-9.2-13.7-2.3-5.3-3.3-11-4-16.7-.9-7.3-1.1-14.7-1.1-22-1.8.1-3.6.1-5.4.1M437.9 34.5c5.3-3.1 8.6-8.4 8.6-14.2C446.5 6.5 431.9.2 418.4.2c-13.6 0-28.1 6.3-28.1 20.1 0 5.9 3.3 11.1 8.6 14.2-7.7 3.5-11.9 9.4-11.9 16.8 0 13.9 15.7 21.2 31.3 21.2s31.3-7.3 31.3-21.2c0-7.4-4.2-13.3-11.7-16.8zm-19.6-8.8c-3.5 0-6.3-2.2-6.3-5s2.8-5 6.3-5 6.3 2.2 6.3 5-2.8 5-6.3 5zm0 17.8c3.8 0 7 2.6 7 5.7s-3.1 5.6-7 5.6-7-2.5-7-5.6c0-3.2 3.2-5.7 7-5.7z"/><path d="M498.2 11.9C492.5 4.2 484 .2 473.7.2S454.9 4.3 449.2 12c-4.9 6.5-7.5 15.2-7.5 24.5 0 18.1 9.9 36.3 32.1 36.3s32.1-18.2 32.1-36.3c-.1-9.4-2.8-18.1-7.7-24.6zm-24.5 39.3c-7.7 0-8.6-10-8.6-14.9 0-4.8.8-14.7 8.6-14.7 7.7 0 8.6 9.9 8.6 14.7 0 4.9-.9 14.9-8.6 14.9z"/><path d="M559.4 11.9C553.6 4.2 545.1.1 534.9.1s-18.8 4.1-24.5 11.8c-4.9 6.5-7.5 15.2-7.5 24.5 0 18.1 9.9 36.3 32.1 36.3 22.1 0 32.1-18.2 32.1-36.3-.2-9.3-2.8-18-7.7-24.5zm-24.5 39.3c-7.7 0-8.6-10-8.6-14.9 0-4.8.8-14.7 8.6-14.7 7.7 0 8.6 9.9 8.6 14.7-.1 4.9-.9 14.9-8.6 14.9zM336.5 1.2v22h30.2l-22.5 49.2h25.4l30.3-71.2z"/></g></svg>