<?xml version="1.0" encoding="utf-8"?>
<!-- Generator: Adobe Illustrator 18.0.0, SVG Export Plug-In . SVG Version: 6.00 Build 0)  -->
<!DOCTYPE svg PUBLIC "-//W3C//DTD SVG 1.1//EN" "http://www.w3.org/Graphics/SVG/1.1/DTD/svg11.dtd">
<svg version="1.1" id="Layer_1" xmlns="http://www.w3.org/2000/svg" xmlns:xlink="http://www.w3.org/1999/xlink" x="0px" y="0px"
	 viewBox="0 0 566.9 70.5" enable-background="new 0 0 566.9 70.5" xml:space="preserve">
<path fill="#c3c6c5" d="M562.3,16.2c-3.1-5.4-7.7-10.4-13.6-13C543.9,1,537.6,0,529.9,0l-27.7,0h-6.7l-0.3,2.3
	c-0.2,1.3-0.5,1.7-0.6,1.8c-0.2,0.2-0.4,0.3-0.6,0.3c-0.2,0-1.1-0.2-4.3-1.4c-5.1-2-10-3-14.6-3c-6.3,0-12.3,1.6-17.9,4.7
	c-5.6,3.1-10.1,7.6-13.4,13.2c-3.3,5.6-5,11.7-5,18c0,6,1.5,11.7,4.5,17c3,5.4,7.3,9.5,12.9,12.4c5.4,2.8,11.7,4.2,18.7,4.2
	c5.3,0,10.1-0.9,14.1-2.6c4-1.8,7.9-4.6,11.6-8.4l0.7-0.8V44.1l-4.7,5.5c-3.3,3.9-6.5,6.6-9.4,8.1c-2.8,1.5-5.9,2.2-9.3,2.2
	c-4.1,0-7.4-1-9.8-2.9c-2.5-2-4.4-4.9-5.6-8.9c-1.3-4.2-2-9-2-14.2c0-5.2,0.9-10,2.6-14.2c1.3-3.1,3.3-5.5,6-7.5
	c2.8-1.9,5.7-2.8,9-2.8c4,0,7.4,1.3,10.6,3.8c3.1,2.6,5.3,6.4,6.5,11.3l0.5,2.1h6.5V6.9h2.2c1.5,0,2.3,0.3,2.7,0.5
	c0.7,0.4,0.8,0.7,0.9,0.8c0,0.2,0.3,2.6,0.3,6.4V55c0,3.4-0.2,4.4-0.2,4.7c-0.2,0.4-0.5,0.7-1,1c-0.3,0.2-1,0.5-2.7,0.5h-4.7v6.9
	h30.1c4.2,0,7.2-0.2,9.2-0.6c4.4-0.8,8.2-2,11.2-3.6c3.2-1.6,6-3.7,8.4-6.3c2.4-2.6,4.4-5.9,5.9-9.9c1.5-3.9,2.3-8.9,2.3-13.5
	C566.9,27.6,565.4,21.5,562.3,16.2z M540.4,55.3c-2.1,2.8-5.2,4.1-9.4,4.1c-1.5,0-2.1-0.3-2.2-0.3c0,0,0,0,0,0
	c0-0.3-0.2-1.2-0.2-3.6V8.7c4,0.1,6,0.7,7,1.1c2.5,1.1,4.6,4,6.2,7.1c2.2,4.3,3.4,10.2,3.4,17.6C545.3,43.7,543.7,51.1,540.4,55.3z"
	/>
<path fill="#c3c6c5" d="M215.9,24.5c-2.7,0-4.9,0.9-6.8,2.8c-1.9,1.9-2.8,4.1-2.8,6.8c0,2.6,0.9,4.9,2.8,6.7
	c1.9,1.9,4.1,2.8,6.8,2.8c2.6,0,4.9-0.9,6.7-2.8c1.9-1.9,2.8-4.1,2.8-6.7c0-2.7-0.9-4.9-2.8-6.8C220.8,25.4,218.6,24.5,215.9,24.5z
	 M398.4,1.1c-9.9-0.4-18.2,2.7-25,9.3c-6.8,6.6-10.1,14.9-10.1,24.8c0,8.8,2.6,16.5,7.8,22.9c6.6,8.2,15.9,12.2,27.9,12.2
	c12,0,21.3-4.3,27.9-12.8c5-6.4,7.5-13.9,7.5-22.4c0-9.9-3.3-18.2-10-24.8C417.7,3.8,409.1,0.7,398.4,1.1z M414.1,54.2
	c-1.6,4.6-3.9,8-6.8,10.1c-2.3,1.6-5.1,2.5-8.5,2.5c-5,0-8.9-1.9-11.7-5.7c-4-5.5-6-13.9-6-25.3c0-9.6,1.3-17,3.9-22.1
	c3.2-6.2,7.8-9.4,14-9.4c3.3,0,6.2,0.9,8.8,2.7c2.5,1.8,4.6,4.9,6.3,9.3c1.6,4.4,2.5,11,2.5,19.9C416.6,43.5,415.7,49.6,414.1,54.2z
	 M302.4,40.9h-32.5v1.7h1.7c1.6,0,3,0.3,4.1,0.9c1.1,0.6,1.9,1.3,2.2,2.1c0.4,0.8,0.5,2.5,0.5,5.2v13.9c-1.8,0.7-3.5,1.2-5.2,1.5
	c-1.7,0.3-3.3,0.5-4.9,0.5c-4.6,0-8.6-1.1-12-3.4c-3.4-2.3-5.8-5.8-7.3-10.7c-1.5-4.8-2.3-10.5-2.3-16.9c0-5.3,0.7-10.5,2.1-15.5
	c1.4-5,3.7-9,7.1-11.8c3.3-2.8,7.5-4.2,12.5-4.2c5.2,0,10.1,1.7,14.5,5c4.4,3.4,7.7,8.3,9.9,14.7h1.7V0.5h-1.7
	c-0.7,1.9-1.4,3.2-2.2,3.9c-0.8,0.7-1.6,1-2.6,1c-0.6,0-2.5-0.6-5.8-1.9c-3.2-1.2-5.6-2-7-2.3c-2.7-0.5-5.7-0.8-9-0.8
	c-10.7,0-19.7,3.5-26.7,10.4c-7.1,6.9-10.6,15.4-10.6,25.5c0,5.6,1.2,10.7,3.5,15.2c1.8,3.5,4.3,6.7,7.5,9.5
	c3.2,2.8,6.9,5.1,11.1,6.8c4.2,1.7,9.5,2.6,15.8,2.6c5,0,9.8-0.5,14.4-1.4c4.6-1,9.1-2.4,13.4-4.3V50.9c0-2.5,0.1-4,0.4-4.6
	c0.5-1.2,1.3-2,2.2-2.6c1-0.5,2.7-0.9,5.1-1V40.9z M166.6,1.1c-9.9-0.4-18.2,2.7-25,9.3c-6.8,6.6-10.1,14.9-10.1,24.8
	c0,8.8,2.6,16.5,7.8,22.9c6.6,8.2,15.9,12.2,27.9,12.2c12,0,21.3-4.3,27.9-12.8c5-6.4,7.5-13.9,7.5-22.4c0-9.9-3.3-18.2-10-24.8
	C185.9,3.8,177.2,0.7,166.6,1.1z M182.3,54.2c-1.6,4.6-3.9,8-6.8,10.1c-2.3,1.6-5.1,2.5-8.5,2.5c-5,0-8.9-1.9-11.7-5.7
	c-4-5.5-6-13.9-6-25.3c0-9.6,1.3-17,3.9-22.1c3.2-6.2,7.8-9.4,13.9-9.4c3.3,0,6.3,0.9,8.8,2.7c2.5,1.8,4.6,4.9,6.3,9.3
	c1.6,4.4,2.5,11,2.5,19.9C184.7,43.5,183.9,49.6,182.3,54.2z M350.6,61c-3.8,2.9-8.8,4.3-15,4.3h-4c-1.9,0-3.3-0.3-4.1-0.8
	c-0.9-0.5-1.4-1.2-1.8-2c-0.3-0.8-0.5-3.1-0.5-6.8V36.9c3.2,0,5.6,0.4,7.3,1.3c1.7,0.8,3.2,2.5,4.4,4.9c1.3,2.4,2.1,5.6,2.5,9.4h1.9
	V17.4h-1.9c-0.5,5.2-1.7,9.1-3.7,11.8c-1.9,2.7-5,4-9.2,4h-1.3V5.9h6.9c5.1,0,8.5,0.3,10.4,0.9c3.2,1,5.6,2.5,7.3,4.6
	c1.7,2.1,3.1,5.6,4,10.4h1.9V2h-56v1.7h2.2c2.2,0,3.9,0.5,5.1,1.4c0.9,0.6,1.5,1.5,1.8,2.7c0.2,0.7,0.2,2.6,0.2,5.6v44.1
	c0,3.4-0.2,5.5-0.5,6.3c-0.5,1.1-1.1,1.9-2,2.4c-1.2,0.7-2.7,1-4.7,1h-2.2V69h57.8l3-21.3h-1.8C357.1,53.7,354.4,58.1,350.6,61z
	 M118.8,61c-3.8,2.9-8.8,4.3-15,4.3h-4c-1.9,0-3.3-0.3-4.1-0.8c-0.9-0.5-1.4-1.2-1.8-2c-0.3-0.8-0.5-3.1-0.5-6.8V36.9
	c3.2,0,5.6,0.4,7.3,1.3c1.7,0.8,3.2,2.5,4.4,4.9c1.3,2.4,2.1,5.6,2.5,9.4h1.9V17.4h-1.9c-0.5,5.2-1.7,9.1-3.7,11.8
	c-1.9,2.7-5,4-9.2,4h-1.3V5.9h6.9c5.1,0,8.5,0.3,10.4,0.9c3.2,1,5.6,2.5,7.3,4.6c1.7,2.1,3.1,5.6,4,10.4h1.9V2h-77v1.7
	c3.7-0.1,6.4,0.9,8,2.8c1.2,1.4,1.7,4.2,1.7,8.2v28.7L23.7,2H0v1.7c2,0.1,3.6,0.4,4.7,1S7,6.5,8.4,8.3l1.4,1.8v47.3
	c0,3.6-0.7,6.2-2.2,7.7c-1.4,1.5-4,2.3-7.7,2.3V69h23.8v-1.7h-1.6c-2.3,0-4.3-0.7-6-2c-1.8-1.4-2.6-4-2.6-7.9V14.7l45.1,55.8h1.7
	V14.8c0-3.2,0.3-5.4,0.8-6.7c0.5-1.3,1.3-2.3,2.3-2.8c1-0.6,2.9-1.1,5.7-1.4h1.1c2.2,0,3.9,0.5,5.1,1.4c0.9,0.6,1.5,1.5,1.8,2.7
	c0.2,0.7,0.2,2.6,0.2,5.6v44.1c0,3.4-0.2,5.5-0.5,6.3c-0.5,1.1-1.1,1.9-2,2.4c-1.2,0.7-2.7,1-4.7,1h-2.2V69h57.8l3-21.3h-1.8
	C125.3,53.7,122.5,58.1,118.8,61z"/>
<path fill="#211915" d="M560,17.5c-2.8-5-7-9.5-12.4-11.9c-4.5-2-10.4-3-17.7-3h-27.4v1.6h2c1.7,0,3.1,0.3,4.1,0.9
	c1,0.6,1.7,1.3,2,2.1c0.3,0.8,0.5,4.2,0.5,7.4V55c0,3.2-0.1,5.1-0.4,5.8c-0.5,1-1.2,1.7-2.1,2.3c-0.9,0.6-2.3,0.8-4.1,0.8h-2v1.6
	h27.4c3.9,0,6.8-0.2,8.7-0.5c4.2-0.8,7.7-1.9,10.6-3.3c2.9-1.4,5.4-3.3,7.6-5.7c2.2-2.4,4-5.4,5.4-9c1.4-3.6,2.1-8.2,2.1-12.5
	C564.3,28.1,562.8,22.5,560,17.5z M542.5,56.9C539.8,60.3,536,62,531,62c-1.5,0-2.7-0.2-3.5-0.7c-0.6-0.3-1-0.7-1.2-1.3
	c-0.2-0.6-0.4-2.1-0.4-4.7V6c5,0,8.6,0.4,10.8,1.4c3.1,1.3,5.6,4.7,7.5,8.3c2.5,4.7,3.7,11,3.7,18.9
	C547.9,44.4,546.1,52.2,542.5,56.9z"/>
<path fill="#211915" d="M499.6,24h-1.7c-1.3-5.6-3.8-9.8-7.4-12.8c-3.6-3-7.7-4.4-12.3-4.4c-3.8,0-7.3,1.1-10.5,3.3
	c-3.2,2.2-5.5,5.1-7,8.6c-1.9,4.6-2.8,9.6-2.8,15.2c0,5.5,0.7,10.5,2.1,15c1.4,4.5,3.6,7.9,6.5,10.2c2.9,2.3,6.8,3.5,11.5,3.5
	c3.9,0,7.4-0.8,10.6-2.5c3.2-1.7,6.6-4.6,10.1-8.7v5.3c-3.4,3.6-7,6.2-10.7,7.8c-3.7,1.6-8.1,2.4-13.1,2.4c-6.5,0-12.4-1.3-17.4-3.9
	c-5.1-2.6-9-6.4-11.8-11.3c-2.8-4.9-4.1-10.1-4.1-15.7c0-5.9,1.5-11.4,4.6-16.7c3.1-5.2,7.2-9.3,12.4-12.2
	c5.2-2.9,10.7-4.3,16.6-4.3c4.3,0,8.9,0.9,13.7,2.8c2.8,1.1,4.5,1.6,5.3,1.6c1,0,1.8-0.4,2.5-1.1c0.7-0.7,1.2-1.8,1.4-3.4h1.7
	L499.6,24L499.6,24z"/>
</svg>
