<svg xmlns="http://www.w3.org/2000/svg" viewBox="0 0 566.9 300" xml:space="preserve"><g fill="#CCC"><path d="M355.8 28.1c0 15.5 13 28 29.1 28 16.7 0 29.8-12.3 29.8-28S401.6 0 384.9 0c-16.1 0-29.1 12.6-29.1 28.1M360.6 84.2h49.6v160.6h-49.6zM456.7 28.1c0 15.5 13.1 28 29.1 28 16.7 0 29.8-12.3 29.8-28S502.5 0 485.8 0c-16.1 0-29.1 12.6-29.1 28.1M461.5 84.2h49.7v160.6h-49.7zM281.7 13.5l-43.5 170.7S204.9 56.1 199.5 37.9c-5.4-18.2-16.6-26.2-32.4-26.2-15.8 0-27 8-32.4 26.2C129.3 56.1 96 184.2 96 184.2L52.4 13.5H0s50.4 182.1 57.2 203.2c5.3 16.5 17.9 29.9 36.6 29.9 21.4 0 31.4-15.6 36-29.9C134.4 202.5 167 82.2 167 82.2s32.6 120.3 37.2 134.5c4.6 14.3 14.6 29.9 36 29.9 18.7 0 31.3-13.5 36.7-29.9 6.8-21.1 57.2-203.2 57.2-203.2h-52.4zM526.2 223.1h17.1v3.2h-6.7v18.5h-3.7v-18.5h-6.7zM545.9 223.1h5.2l5.2 17.4 5.4-17.4h5.2v21.7h-3.4v-17.9l-5.4 17.9h-3.6l-5.3-17.9v17.9h-3.3z"/></g></svg>