<?xml version="1.0" encoding="utf-8"?>
<!-- Generator: Adobe Illustrator 18.0.0, SVG Export Plug-In . SVG Version: 6.00 Build 0)  -->
<!DOCTYPE svg PUBLIC "-//W3C//DTD SVG 1.1//EN" "http://www.w3.org/Graphics/SVG/1.1/DTD/svg11.dtd">
<svg version="1.1" id="svg1354" xmlns:svg="http://www.w3.org/2000/svg"
	 xmlns="http://www.w3.org/2000/svg" xmlns:xlink="http://www.w3.org/1999/xlink" x="0px" y="0px" viewBox="0 0 566.9 300"
	 enable-background="new 0 0 566.9 300" xml:space="preserve">
<g>
	<path fill="#CCCCCC" d="M355.8,28.1c0,15.5,13,28,29.1,28c16.7,0,29.8-12.3,29.8-28c0-15.7-13.1-28.1-29.8-28.1
		C368.8,0,355.8,12.6,355.8,28.1"/>
	<rect x="360.6" y="84.2" fill="#CCCCCC" width="49.6" height="160.6"/>
	<path fill="#CCCCCC" d="M456.7,28.1c0,15.5,13.1,28,29.1,28c16.7,0,29.8-12.3,29.8-28c0-15.7-13.1-28.1-29.8-28.1
		C469.7,0,456.7,12.6,456.7,28.1"/>
	<rect x="461.5" y="84.2" fill="#CCCCCC" width="49.7" height="160.6"/>
	<path fill="#CCCCCC" d="M281.7,13.5l-43.5,170.7c0,0-33.3-128.1-38.7-146.3c-5.4-18.2-16.6-26.2-32.4-26.2c-15.8,0-27,8-32.4,26.2
		C129.3,56.1,96,184.2,96,184.2L52.4,13.5H0c0,0,50.4,182.1,57.2,203.2c5.3,16.5,17.9,29.9,36.6,29.9c21.4,0,31.4-15.6,36-29.9
		c4.6-14.2,37.2-134.5,37.2-134.5s32.6,120.3,37.2,134.5c4.6,14.3,14.6,29.9,36,29.9c18.7,0,31.3-13.5,36.7-29.9
		c6.8-21.1,57.2-203.2,57.2-203.2S281.7,13.5,281.7,13.5z"/>
	<polygon fill="#CCCCCC" points="526.2,223.1 543.3,223.1 543.3,226.3 536.6,226.3 536.6,244.8 532.9,244.8 532.9,226.3 
		526.2,226.3 	"/>
	<polygon fill="#CCCCCC" points="545.9,223.1 551.1,223.1 556.3,240.5 561.7,223.1 566.9,223.1 566.9,244.8 563.5,244.8 
		563.5,226.9 558.1,244.8 554.5,244.8 549.2,226.9 549.2,244.8 545.9,244.8 	"/>
</g>
</svg>
