<?xml version="1.0" encoding="utf-8"?>
<!-- Generator: Adobe Illustrator 18.0.0, SVG Export Plug-In . SVG Version: 6.00 Build 0)  -->
<!DOCTYPE svg PUBLIC "-//W3C//DTD SVG 1.1//EN" "http://www.w3.org/Graphics/SVG/1.1/DTD/svg11.dtd">
<svg version="1.1" id="svg101576" xmlns:svg="http://www.w3.org/2000/svg"
	 xmlns="http://www.w3.org/2000/svg" xmlns:xlink="http://www.w3.org/1999/xlink" x="0px" y="0px" viewBox="0 0 566.9 78.3"
	 enable-background="new 0 0 566.9 78.3" xml:space="preserve">
<g>
	<path id="path100608" fill="#999999" d="M347.9,70.4c0,0.8-0.7,1.6-1.5,1.6h-29.1c-0.8,0-1.5-0.7-1.5-1.6v-21
		c0-0.8,0.7-1.5,1.5-1.5h29.1c0.8,0,1.5,0.7,1.5,1.5V70.4z M346.6,41.5H317c-4.3,0-7.8,3.5-7.8,7.8v21.1c0,4.2,3.5,7.8,7.8,7.8h29.6
		c4.3,0,7.8-3.6,7.8-7.8V49.4C354.4,45,350.9,41.5,346.6,41.5"/>
	<path id="path100618" fill="#FFFFFF" d="M6.8,10c0,0,0,26.8,0,27.2c-0.4,0-6.4,0-6.8,0C0,36.7,0,0.8,0,0.4c0.4,0,5.6,0,5.8,0
		l27.5,26.8c0,0,0-26.3,0-26.8c0.4,0,5.4,0,5.4,0s1,0,1.3,0c0,0.4,0,36.3,0,36.7c-0.4,0-5.1,0-5.3,0L6.8,10"/>
	<path id="path100622" fill="#FFFFFF" d="M74.9,10c0,0,0,26.8,0,27.2c-0.4,0-6.4,0-6.8,0c0-0.4,0-36.3,0-36.7c0.4,0,5.6,0,5.8,0
		l27.5,26.8c0,0,0-26.3,0-26.8c0.4,0,5.5,0,5.5,0s1,0,1.3,0c0,0.4,0,36.3,0,36.7c-0.4,0-5.1,0-5.3,0L74.9,10"/>
	<path id="path100626" fill="#FFFFFF" d="M216.2,10c0,0,0,26.8,0,27.2c-0.4,0-6.4,0-6.8,0c0-0.4,0-36.3,0-36.7c0.4,0,5.6,0,5.8,0
		l27.5,26.8c0,0,0-26.3,0-26.8c0.4,0,5.4,0,5.4,0s1,0,1.3,0c0,0.4,0,36.3,0,36.7c-0.4,0-5.1,0-5.3,0L216.2,10"/>
	<path id="path100630" fill="#FFFFFF" d="M56.2,0.4c0,0,1,0,1.3,0c0,0.4,0,36.3,0,36.7c-0.4,0-6.4,0-6.8,0c0-0.4,0-36.3,0-36.7
		C51.1,0.4,56.2,0.4,56.2,0.4"/>
	<path id="path100634" fill="#FFFFFF" d="M154.5,0.4c0,0,0.9,0,1.2,0c0,0.3,0,6,0,6.3c-0.4,0-16.4,0-16.4,0s0,30,0,30.4
		c-0.4,0-6.7,0-7.1,0c0-0.4,0-30.4,0-30.4s-16,0-16.4,0c0-0.3,0-6,0-6.3C116.3,0.4,154.5,0.4,154.5,0.4"/>
	<path id="path100638" fill="#FFFFFF" d="M198,0.4c0,0,1,0,1.3,0c0,0.3,0,6,0,6.3c-0.4,0-29.1,0-29.1,0V15c0,0,22.2,0,22.5,0
		c0,0.4,0,5.9,0,6.3c-0.4,0-22.5,0-22.5,0v9.6c0,0,28.7,0,29.1,0c0,0.3,0,5.9,0,6.3c-0.4,0-35.5,0-35.9,0c0-0.4,0-36.3,0-36.7
		C163.8,0.4,198,0.4,198,0.4"/>
	<path id="path100642" fill="#FFFFFF" d="M287.2,30.8h-20.9V6.7h20.9c6.5,0,8.9,6.5,8.9,12C296.1,24.3,293.7,30.8,287.2,30.8z
		 M298.4,5.8c-2.7-3.6-6.6-5.4-11.3-5.4c0,0-26.8,0-27.2,0c0,0.4,0,36.3,0,36.7c0.4,0,27.2,0,27.2,0c4.8,0,8.7-1.9,11.3-5.4
		c2.5-3.2,3.8-7.7,3.8-13C302.2,13.5,300.9,9.1,298.4,5.8"/>
	<path id="path100646" fill="#FFFFFF" d="M347.9,29.3c0,0.7-0.7,1.5-1.5,1.5h-29.1c-0.8,0-1.5-0.7-1.5-1.5V8.2
		c0-0.8,0.7-1.5,1.5-1.5h29.1c0.8,0,1.5,0.7,1.5,1.5V29.3z M346.6,0.4H317c-4.3,0-7.8,3.5-7.8,7.8v21.1c0,4.3,3.5,7.8,7.8,7.8h29.6
		c4.3,0,7.8-3.5,7.8-7.8V8.2C354.4,3.9,350.9,0.4,346.6,0.4"/>
	<path id="path100656" fill="#FFFFFF" d="M470,62.7c7,2.8,21.9,5.1,33.5,5.1c12.7,0,18-4.3,18-9.8c0-5-4.9-7.8-18.9-13
		c-18.8-6.9-32.5-12.4-32.5-24.8C470.1,7.6,486.6,0,511.9,0c13.6,0,18.2,0.8,26.8,2.4l0.1,12.1c-8.5-1.6-16-4.3-27.6-4.3
		c-12.5,0-17.8,4-17.8,8.1c0,5.9,8.2,8.7,22.6,13.9c20,7.1,31.1,12.6,31.1,24.7c0,12.5-13.9,21.4-45.4,21.4
		c-12.9,0-21.8-0.8-31.7-2.5L470,62.7"/>
	<path id="path100660" fill="#FFFFFF" d="M403.1,10.7h-15v56.7h15c23,0,37.4-9.9,37.4-28.3C440.6,20.8,426.1,10.7,403.1,10.7z
		 M443.3,72.6c-7.4,3.3-21.4,5.5-33.6,5.5h-46.7V0.2h46.7c12.2,0,26.2,2.2,33.6,5.5c18,8.1,23.9,21.2,23.9,33.5
		C467.2,51.4,461.3,64.5,443.3,72.6"/>
	<path id="path100678" fill="#FFFFFF" d="M551.8,66.5h-3v-1.1h7.3v1.1h-3v8.7h-1.3V66.5"/>
	<path id="path100682" fill="#FFFFFF" d="M565.4,70.9c-0.1-1.3-0.2-3-0.2-4.2h0c-0.3,1.2-0.7,2.4-1.2,3.7l-1.7,4.8h-1l-1.6-4.7
		c-0.5-1.4-0.8-2.7-1.1-3.8h0c0,1.2-0.1,2.9-0.2,4.3l-0.3,4.2h-1.2l0.7-9.8h1.6l1.7,4.7c0.4,1.2,0.7,2.3,1,3.3h0
		c0.3-1,0.6-2.1,1.1-3.3l1.8-4.7h1.6l0.6,9.8h-1.3L565.4,70.9"/>
</g>
</svg>
