<svg xmlns="http://www.w3.org/2000/svg" viewBox="0 0 566.9 78.3" xml:space="preserve"><path fill="#999" d="M347.9 70.4c0 .8-.7 1.6-1.5 1.6h-29.1c-.8 0-1.5-.7-1.5-1.6v-21c0-.8.7-1.5 1.5-1.5h29.1c.8 0 1.5.7 1.5 1.5v21zm-1.3-28.9H317c-4.3 0-7.8 3.5-7.8 7.8v21.1c0 4.2 3.5 7.8 7.8 7.8h29.6c4.3 0 7.8-3.6 7.8-7.8v-21c0-4.4-3.5-7.9-7.8-7.9"/><path fill="#c3c6c5" d="M6.8 10v27.2H0V.4h5.8l27.5 26.8V.4H40v36.7h-5.3L6.8 10M74.9 10v27.2h-6.8V.5h5.8l27.5 26.8V.5h6.8v36.7h-5.3L74.9 10M216.2 10v27.2h-6.8V.5h5.8l27.5 26.8V.5h6.7v36.7h-5.3L216.2 10M56.2.4h1.3v36.7h-6.8V.4h5.5M154.5.4h1.2v6.3h-16.4v30.4h-7.1V6.7h-16.4V.4h38.7M198 .4h1.3v6.3h-29.1V15h22.5v6.3h-22.5v9.6h29.1v6.3h-35.9V.5c.4-.1 34.6-.1 34.6-.1M287.2 30.8h-20.9V6.7h20.9c6.5 0 8.9 6.5 8.9 12 0 5.6-2.4 12.1-8.9 12.1zm11.2-25c-2.7-3.6-6.6-5.4-11.3-5.4h-27.2v36.7h27.2c4.8 0 8.7-1.9 11.3-5.4 2.5-3.2 3.8-7.7 3.8-13 0-5.2-1.3-9.6-3.8-12.9M347.9 29.3c0 .7-.7 1.5-1.5 1.5h-29.1c-.8 0-1.5-.7-1.5-1.5V8.2c0-.8.7-1.5 1.5-1.5h29.1c.8 0 1.5.7 1.5 1.5v21.1zM346.6.4H317c-4.3 0-7.8 3.5-7.8 7.8v21.1c0 4.3 3.5 7.8 7.8 7.8h29.6c4.3 0 7.8-3.5 7.8-7.8V8.2c0-4.3-3.5-7.8-7.8-7.8M470 62.7c7 2.8 21.9 5.1 33.5 5.1 12.7 0 18-4.3 18-9.8 0-5-4.9-7.8-18.9-13-18.8-6.9-32.5-12.4-32.5-24.8C470.1 7.6 486.6 0 511.9 0c13.6 0 18.2.8 26.8 2.4l.1 12.1c-8.5-1.6-16-4.3-27.6-4.3-12.5 0-17.8 4-17.8 8.1 0 5.9 8.2 8.7 22.6 13.9 20 7.1 31.1 12.6 31.1 24.7 0 12.5-13.9 21.4-45.4 21.4-12.9 0-21.8-.8-31.7-2.5V62.7M403.1 10.7h-15v56.7h15c23 0 37.4-9.9 37.4-28.3.1-18.3-14.4-28.4-37.4-28.4zm40.2 61.9c-7.4 3.3-21.4 5.5-33.6 5.5H363V.2h46.7c12.2 0 26.2 2.2 33.6 5.5 18 8.1 23.9 21.2 23.9 33.5 0 12.2-5.9 25.3-23.9 33.4M551.8 66.5h-3v-1.1h7.3v1.1h-3v8.7h-1.3v-8.7M565.4 70.9c-.1-1.3-.2-3-.2-4.2-.3 1.2-.7 2.4-1.2 3.7l-1.7 4.8h-1l-1.6-4.7c-.5-1.4-.8-2.7-1.1-3.8 0 1.2-.1 2.9-.2 4.3l-.3 4.2h-1.2l.7-9.8h1.6l1.7 4.7c.4 1.2.7 2.3 1 3.3.3-1 .6-2.1 1.1-3.3l1.8-4.7h1.6l.6 9.8h-1.3l-.3-4.3"/></svg>