<svg xmlns="http://www.w3.org/2000/svg" viewBox="0 0 239.8 78.8" xml:space="preserve"><g fill="#c3c6c5"><path d="M159.34 16.823c.424.042.806.042 1.23.085 3.093.211 6.059.932 8.855 2.372 1.992 1.017 3.73 2.373 5.297 3.941 1.695 1.737 3.093 3.644 4.153 5.848.762 1.61 1.313 3.305 1.695 5.042.466 2.119.593 4.28.508 6.483-.127 3.475-.932 6.822-2.542 9.916a21.51 21.51 0 0 1-4.407 5.72c-2.84 2.712-6.187 4.45-10.043 5.254-1.44.297-2.839.509-4.322.551-.084 0-.127 0-.212.043h-1.695c-.38-.043-.762-.043-1.101-.085-4.45-.339-8.517-1.695-12.034-4.492-2.797-2.203-4.958-4.915-6.441-8.135-.763-1.653-1.271-3.348-1.61-5.128a24.182 24.182 0 0 1-.382-6.059c.212-4.28 1.356-8.305 3.814-11.822 2.924-4.153 6.737-7.119 11.61-8.517a23.57 23.57 0 0 1 4.577-.848c.508-.042.974-.042 1.483-.084.084 0 .17 0 .254-.043l1.314-.042zm-.677 39.407c1.567 0 3.093-.127 4.618-.508 3.263-.805 5.975-2.5 8.136-5.085 2.203-2.627 3.347-5.72 3.644-9.11.127-1.145.127-2.331.042-3.475-.084-1.271-.254-2.5-.593-3.729-1.06-3.814-3.178-6.864-6.483-9.068-2.458-1.652-5.212-2.415-8.178-2.542-1.61-.085-3.22 0-4.788.296-2.754.509-5.255 1.653-7.373 3.517-2.076 1.822-3.56 3.983-4.492 6.568-.678 1.95-.974 3.983-1.017 6.06-.042 1.61.085 3.178.424 4.745.636 2.84 1.907 5.34 3.898 7.458 1.738 1.865 3.856 3.22 6.272 4.068 1.991.593 3.94.805 5.89.805M239.765 61.06c-.169.424-.296.467-.762.467h-4.492c-.508 0-.72-.212-.72-.72V18.093c0-.55.212-.72.763-.72h4.491c.17 0 .381.084.551.17.085.041.127.211.17.338v43.179z"/><path d="M118.069 35.255c.762 1.017 1.483 1.992 2.246 2.966 1.567 2.12 3.178 4.195 4.745 6.314 2.034 2.712 4.068 5.424 6.102 8.093 1.992 2.628 3.983 5.297 5.975 7.924.17.212.212.382.127.636-.127.212-.297.296-.55.296h-5.848c-.297 0-.551-.084-.763-.38-3.475-4.62-6.95-9.28-10.424-13.9-1.992-2.627-3.94-5.254-5.932-7.88 0-.043-.043-.043-.043-.086-.254.212-.466.424-.72.678-1.61 1.483-3.178 3.009-4.788 4.492-.89.805-1.78 1.653-2.67 2.458-.127.084-.17.211-.17.381v13.602c0 .424-.211.635-.635.635h-4.703c-.382 0-.594-.211-.636-.635V18.094c0-.55.212-.72.72-.72h4.577c.423 0 .635.211.635.635V39.154c.34-.34.678-.636.975-.933 1.907-1.78 3.771-3.559 5.678-5.296 2.458-2.33 4.958-4.661 7.415-6.95l6.23-5.847c.889-.805 1.737-1.653 2.626-2.458a.862.862 0 0 1 .636-.254h6.568c.381 0 .593.127.678.424.085.212-.043.423-.17.55-.635.594-1.27 1.187-1.906 1.823-1.145 1.059-2.246 2.118-3.39 3.178-1.568 1.483-3.136 2.923-4.661 4.407l-4.789 4.533c-.974.933-2.034 1.907-3.135 2.924M187.9 39.45V18.01c0-.381.212-.593.594-.635h18.347c2.797 0 5.466.635 8.009 1.78a18.934 18.934 0 0 1 5.89 4.11c2.754 2.839 4.618 6.186 5.508 10.042.509 2.203.72 4.492.678 6.737-.084 3.051-.593 6.018-1.737 8.857-.975 2.372-2.373 4.491-4.11 6.356-2.67 2.881-5.933 4.745-9.746 5.678a22.097 22.097 0 0 1-5 .593h-17.67c-.085 0-.212 0-.297-.043a.45.45 0 0 1-.381-.38c0-.128-.042-.213-.042-.34-.043-7.076-.043-14.195-.043-21.314m5.975 16.399h12.119c.72 0 1.44-.043 2.118-.085a12.788 12.788 0 0 0 4.195-1.102c1.738-.805 3.22-1.991 4.492-3.432a15.97 15.97 0 0 0 2.797-4.492 17.676 17.676 0 0 0 1.27-5.508c.128-1.737.086-3.475-.169-5.17a16.153 16.153 0 0 0-1.991-5.72c-1.144-1.992-2.585-3.687-4.45-5-2.245-1.568-4.788-2.288-7.5-2.33h-12.881v32.839z"/></g><g fill="#31AFE1"><path d="M79.085 40.043c-.254.848-.805 1.441-1.398 2.034-4.026 3.984-8.009 8.009-11.992 11.992-1.44 1.44-2.966 1.44-4.45 0-4.11-4.153-8.262-8.263-12.372-12.415-1.399-1.399-1.399-2.966 0-4.365L61.33 24.831c1.356-1.356 2.923-1.356 4.28 0l12.076 12.077c.593.593 1.144 1.186 1.398 2.034v1.101zM39.254 78.773c-.805-.254-1.44-.848-2.034-1.44-3.983-4.026-8.009-8.01-11.992-12.035-1.44-1.44-1.44-2.966 0-4.407 4.153-4.152 8.263-8.305 12.416-12.415 1.398-1.399 2.966-1.399 4.322 0 4.152 4.152 8.263 8.305 12.415 12.415 1.441 1.44 1.441 2.966 0 4.407L42.262 77.417c-.593.593-1.186 1.102-1.991 1.313l-1.017.043zM24.72 29.577c0-4.619.042-9.237-.043-13.814 0-1.313.297-2.372 1.314-3.262.805-.72 1.525-1.526 2.33-2.289l9.11-9.11c1.442-1.44 2.967-1.44 4.408 0 4.11 4.153 8.263 8.263 12.373 12.416 1.398 1.44 1.398 2.966 0 4.406L39.55 32.586c-4.323 4.322-8.645 8.644-12.924 12.966-.805.805-1.526.593-1.78-.508-.085-.34-.085-.72-.085-1.06-.042-4.83-.042-9.619-.042-14.407M14.847 39.535v12.67c0 .381-.085.847-.212 1.186-.297.72-.805.805-1.356.254l-5.848-5.847L.694 41.06c-.932-.932-.932-2.203 0-3.178 4.11-4.195 8.263-8.347 12.415-12.542.255-.297.551-.636.975-.466.424.17.636.55.678 1.017.042.254.085.55.085.847v12.797z"/></g></svg>