<svg xmlns="http://www.w3.org/2000/svg" width="239.76" height="78.763" xml:space="preserve"><g clip-rule="evenodd"><path d="M502.527 236.387c.955.061 1.912.119 2.867.186 7.334.506 14.344 2.226 20.895 5.629 4.678 2.433 8.826 5.58 12.529 9.334 4.018 4.076 7.342 8.645 9.846 13.8 1.836 3.784 3.111 7.754 3.994 11.86 1.082 5.034 1.438 10.131 1.225 15.258-.346 8.226-2.166 16.091-6.045 23.411-2.707 5.106-6.234 9.588-10.432 13.55-6.729 6.355-14.615 10.499-23.676 12.42-3.354.709-6.736 1.154-10.162 1.262-.156.006-.309.05-.465.076h-4.031c-.877-.063-1.754-.123-2.627-.187-10.494-.76-20.072-4.003-28.371-10.606-6.551-5.211-11.68-11.571-15.18-19.203-1.779-3.879-2.969-7.946-3.762-12.134-.898-4.737-1.182-9.52-.943-14.324.506-10.118 3.17-19.563 9.041-27.935 6.869-9.793 15.852-16.758 27.447-20.125 3.535-1.026 7.137-1.71 10.809-1.992 1.164-.091 2.332-.136 3.496-.207.191-.011.379-.047.568-.073h2.977zm-1.594 93.058c3.73-.031 7.34-.336 10.881-1.211 7.711-1.904 14.125-5.905 19.221-12.005 5.205-6.225 7.912-13.459 8.646-21.479a54.59 54.59 0 0 0 .117-8.248c-.178-2.987-.57-5.945-1.363-8.835-2.477-9.025-7.545-16.226-15.332-21.436-5.826-3.893-12.342-5.676-19.293-6.021-3.799-.186-7.576-.015-11.32.665-6.545 1.189-12.369 3.891-17.387 8.287-4.865 4.265-8.383 9.443-10.559 15.534-1.65 4.608-2.309 9.379-2.377 14.251-.057 3.785.209 7.544 1.033 11.241 1.492 6.673 4.492 12.564 9.176 17.585 4.135 4.429 9.053 7.616 14.781 9.567 4.499 1.534 9.145 2.055 13.776 2.105M692.285 340.774c-.395.953-.697 1.147-1.775 1.147-3.52 0-7.041.002-10.564 0-1.24 0-1.697-.46-1.697-1.708v-100.83c0-1.293.455-1.745 1.768-1.746 3.521 0 7.043-.012 10.561.019.436.003.91.175 1.281.405.225.14.291.537.428.821v101.892z" style="fill-rule:evenodd" transform="matrix(.42374 0 0 .42374 -53.586 -83.348)"/><path d="M405.102 279.938c1.776 2.358 3.536 4.696 5.294 7.034l11.191 14.873c4.798 6.378 9.593 12.752 14.392 19.127 4.701 6.248 9.4 12.498 14.107 18.74.35.46.5.929.25 1.462-.254.539-.746.713-1.301.745-.254.015-.51.002-.768.002-4.338 0-8.674-.003-13.012.006-.742.001-1.285-.248-1.75-.866-8.18-10.933-16.378-21.854-24.574-32.779-4.654-6.201-9.311-12.402-13.968-18.604-.037-.052-.082-.097-.148-.175l-1.685 1.569c-3.775 3.528-7.548 7.06-11.322 10.591-2.081 1.943-4.162 3.888-6.254 5.819-.27.248-.381.495-.381.863.01 10.562.008 21.127.008 31.688 0 .127.004.256 0 .385-.027.967-.52 1.494-1.487 1.498-3.698.014-7.394.011-11.091.001-.938-.004-1.432-.532-1.451-1.473-.002-.11 0-.224 0-.336V239.379c0-1.274.46-1.739 1.724-1.739l10.131-.001c.223 0 .448-.007.672.001.978.045 1.458.527 1.501 1.5.007.145.001.289.001.432v49.459c.838-.782 1.595-1.484 2.347-2.19 4.458-4.182 8.912-8.367 13.372-12.547 5.848-5.48 11.7-10.958 17.549-16.44 4.902-4.597 9.801-9.197 14.7-13.795 2.066-1.939 4.138-3.87 6.197-5.814.43-.406.92-.605 1.509-.605l15.509.001c.881 0 1.377.32 1.563.979.154.544-.055.967-.436 1.331-1.498 1.423-2.992 2.845-4.492 4.261-2.654 2.502-5.316 5.001-7.969 7.503a10912.78 10912.78 0 0 0-11.035 10.405c-3.771 3.557-7.535 7.12-11.305 10.675-2.513 2.372-5.032 4.736-7.588 7.143M569.923 289.792v-50.223c0-.146 0-.289.002-.434.02-.948.498-1.442 1.438-1.496.064-.004.129-.001.191-.001 14.359.001 28.715-.034 43.072.021 6.604.023 12.922 1.508 18.949 4.203 5.244 2.345 9.852 5.615 13.852 9.729 6.521 6.696 10.852 14.596 12.98 23.708 1.227 5.247 1.732 10.559 1.621 15.934-.15 7.22-1.404 14.23-4.141 20.938-2.285 5.601-5.557 10.574-9.68 14.988-6.328 6.778-14.016 11.233-23.023 13.416-3.887.941-7.824 1.36-11.824 1.356-13.908-.021-27.816-.008-41.727-.01-.238 0-.479-.017-.713-.052-.514-.083-.832-.391-.924-.902a4.474 4.474 0 0 1-.07-.807c-.003-16.79-.003-33.578-.003-50.368m14.047 38.707h.619c9.348 0 18.693.008 28.041-.011a65.922 65.922 0 0 0 5.029-.203c3.473-.273 6.783-1.194 9.949-2.643 4.139-1.896 7.615-4.656 10.609-8.066a38.313 38.313 0 0 0 6.621-10.612c1.73-4.151 2.66-8.482 3.004-12.96a53.483 53.483 0 0 0-.426-12.2 38.726 38.726 0 0 0-4.689-13.496c-2.672-4.673-6.121-8.674-10.549-11.765-5.301-3.702-11.254-5.423-17.68-5.454-10.004-.048-20.008-.015-30.01-.017h-.52v77.427z" style="fill-rule:evenodd" transform="matrix(.42374 0 0 .42374 -53.586 -83.348)"/><path d="M313.057 291.184c-.602 1.953-1.921 3.383-3.333 4.79-9.465 9.433-18.9 18.897-28.345 28.349-3.403 3.405-7.04 3.396-10.457-.024-9.748-9.755-19.497-19.51-29.24-29.267-3.32-3.323-3.318-6.953.01-10.283 9.799-9.815 19.601-19.625 29.404-29.433 3.189-3.192 6.937-3.194 10.126-.004 9.503 9.505 18.992 19.023 28.513 28.512 1.413 1.407 2.728 2.842 3.323 4.797v2.563zM219.101 382.575c-1.944-.617-3.352-1.962-4.753-3.372-9.425-9.474-18.878-18.916-28.322-28.371-3.379-3.384-3.382-6.993-.011-10.369 9.773-9.781 19.547-19.563 29.324-29.343 3.25-3.251 6.974-3.264 10.206-.029 9.775 9.779 19.549 19.563 29.321 29.347 3.357 3.362 3.366 7.045.024 10.389-9.526 9.538-19.066 19.062-28.57 28.617-1.36 1.366-2.759 2.596-4.655 3.132h-2.564zM184.799 266.464c0-10.877.098-21.754-.063-32.628-.045-3.147.706-5.605 3.11-7.682 1.932-1.671 3.647-3.599 5.458-5.414 7.166-7.173 14.329-14.344 21.497-21.515 3.37-3.37 7.006-3.367 10.374.002 9.749 9.751 19.495 19.505 29.243 29.259 3.349 3.353 3.346 7.037-.002 10.389-11.527 11.543-23.059 23.082-34.589 34.621-10.182 10.194-20.362 20.386-30.545 30.576-1.887 1.889-3.559 1.448-4.244-1.169-.211-.81-.229-1.685-.229-2.532-.014-11.301-.01-22.605-.01-33.907M161.487 290.03c0 9.98.014 19.964-.021 29.944-.004.947-.154 1.951-.494 2.832-.666 1.732-1.916 1.947-3.224.641-4.591-4.582-9.169-9.179-13.75-13.768-5.296-5.304-10.594-10.609-15.887-15.917-2.191-2.197-2.2-5.245-.018-7.453 9.748-9.859 19.498-19.717 29.252-29.574.645-.651 1.252-1.535 2.349-1.121 1.047.396 1.461 1.341 1.609 2.388.094.649.167 1.31.168 1.965.01 10.021.006 20.041.006 30.063h.01z" style="fill:#31afe1;fill-rule:evenodd" transform="matrix(.42374 0 0 .42374 -53.586 -83.348)"/></g></svg>