<svg xmlns="http://www.w3.org/2000/svg" viewBox="0 0 566.9 170.1" xml:space="preserve"><path fill="#C6C6C6" d="M240.6 77.3c-14.9 14.9-14.9 39 0 53.9 14.9 14.9 39 14.9 53.9 0 12.9-12.9 14.6-32.7 5.2-47.4l-20.5 20.5c0 3-1.2 5.9-3.4 8.2-4.6 4.6-11.9 4.6-16.5 0s-4.6-11.9 0-16.5 11.9-4.6 16.5 0l.4.4 18.7-18.7-.4-.4c-14.9-14.9-39-14.9-53.9 0z"/><path fill="#c3c6c5" d="m92.1 142.2 92.1-104.8h-38.4L86.9 97.3c-1.8 1.8-4.7 1.8-6.5 0-1.8-1.8-1.8-4.8 0-6.6l52.4-53.3H0l92.1 104.8z"/><path fill="#C6C6C6" d="m503.1 104-31.9 37.5h26.1l24.8-25.3c1.4-1.5 3.8-1.5 5.2 0 1.4 1.5 1.4 3.8 0 5.3l-19.6 20h59.2L535 104l31.9-37.5h-26.1L516 91.8c-1.4 1.5-3.8 1.5-5.2 0-1.4-1.5-1.4-3.8 0-5.3l19.6-20h-59.2l31.9 37.5zM356.3 66.5v75h23.9V92.8h18.1l22.3-26.3h-26.1l-24.8 25.3c-1.4 1.5-3.8 1.5-5.2 0-1.4-1.5-1.4-3.8 0-5.3l19.6-20h-27.8z"/><path fill="#C6C6C6" d="M338.5 66.9H353l23.9-24.7h-38.4V0l-58.4 66.9h25.5l17.5-16.2c1.4-1.5 3.8-1.5 5.2 0 1.4 1.5 1.4 3.8 0 5.3l-13.8 14v71.6h23.9l.1-74.7zM158.9 77.3c-14.9 14.9-14.9 39 0 53.9 14.9 14.9 39 14.9 53.9 0 12.9-12.9 14.6-32.7 5.2-47.4l-20.5 20.5c0 3-1.2 5.9-3.4 8.2-3.7 3.7-9.4 4.4-13.8 2L215 79.8c-.6-.7-4.4-4.5-5.6-5.4-14.9-11.9-36.7-11-50.5 2.9zm16.2 31.4c-1.8-4.2-.9-9.3 2.5-12.7s8.5-4.3 12.7-2.5l-15.2 15.2zM418.7 77.3c-14.9 14.9-14.9 39 0 53.9 14.9 14.9 39 14.9 53.9 0 12.9-12.9 14.6-32.7 5.2-47.4l-20.5 20.5c0 3-1.1 5.9-3.4 8.2-3.7 3.7-9.4 4.4-13.8 2l34.7-34.7c-.6-.7-4.4-4.5-5.6-5.4-14.9-11.9-36.7-11-50.5 2.9zm16.1 31.4c-1.8-4.2-.9-9.3 2.5-12.7s8.5-4.3 12.7-2.5l-15.2 15.2z"/></svg>