<?xml version="1.0" encoding="utf-8"?>
<!-- Generator: Adobe Illustrator 18.0.0, SVG Export Plug-In . SVG Version: 6.00 Build 0)  -->
<!DOCTYPE svg PUBLIC "-//W3C//DTD SVG 1.1//EN" "http://www.w3.org/Graphics/SVG/1.1/DTD/svg11.dtd">
<svg version="1.1" id="Ebene_1" xmlns="http://www.w3.org/2000/svg" xmlns:xlink="http://www.w3.org/1999/xlink" x="0px" y="0px"
	 viewBox="0 0 566.9 170.1" enable-background="new 0 0 566.9 170.1" xml:space="preserve">
<path fill="#C6C6C6" d="M240.6,77.3c-14.9,14.9-14.9,39,0,53.9c14.9,14.9,39,14.9,53.9,0c12.9-12.9,14.6-32.7,5.2-47.4l-20.5,20.5
	c0,3-1.2,5.9-3.4,8.2c-4.6,4.6-11.9,4.6-16.5,0c-4.6-4.6-4.6-11.9,0-16.5c4.6-4.6,11.9-4.6,16.5,0l0.4,0.4l18.7-18.7l-0.4-0.4
	C279.6,62.4,255.5,62.4,240.6,77.3z"/>
<path fill="#7b7d7f" d="M92.1,142.2l92.1-104.8h-38.4L86.9,97.3c-1.8,1.8-4.7,1.8-6.5,0c-1.8-1.8-1.8-4.8,0-6.6l52.4-53.3H0
	L92.1,142.2z"/>
<path fill="#C6C6C6" d="M503.1,104l-31.9,37.5h26.1l24.8-25.3c1.4-1.5,3.8-1.5,5.2,0c1.4,1.5,1.4,3.8,0,5.3l-19.6,20h59.2L535,104
	l31.9-37.5h-26.1L516,91.8c-1.4,1.5-3.8,1.5-5.2,0c-1.4-1.5-1.4-3.8,0-5.3l19.6-20h-59.2L503.1,104z"/>
<path fill="#C6C6C6" d="M356.3,66.5v75h23.9V92.8h18.1l22.3-26.3h-26.1l-24.8,25.3c-1.4,1.5-3.8,1.5-5.2,0c-1.4-1.5-1.4-3.8,0-5.3
	l19.6-20L356.3,66.5L356.3,66.5z"/>
<path fill="#C6C6C6" d="M338.5,66.9H353l23.9-24.7h-38.4V0l-58.4,66.9h25.5l17.5-16.2c1.4-1.5,3.8-1.5,5.2,0c1.4,1.5,1.4,3.8,0,5.3
	l-13.8,14v71.6h23.9L338.5,66.9L338.5,66.9z"/>
<path fill="#C6C6C6" d="M158.9,77.3c-14.9,14.9-14.9,39,0,53.9c14.9,14.9,39,14.9,53.9,0c12.9-12.9,14.6-32.7,5.2-47.4l-20.5,20.5
	c0,3-1.2,5.9-3.4,8.2c-3.7,3.7-9.4,4.4-13.8,2l34.7-34.7c-0.6-0.7-4.4-4.5-5.6-5.4C194.5,62.5,172.7,63.4,158.9,77.3z M175.1,108.7
	c-1.8-4.2-0.9-9.3,2.5-12.7s8.5-4.3,12.7-2.5L175.1,108.7z"/>
<path fill="#C6C6C6" d="M418.7,77.3c-14.9,14.9-14.9,39,0,53.9c14.9,14.9,39,14.9,53.9,0c12.9-12.9,14.6-32.7,5.2-47.4l-20.5,20.5
	c0,3-1.1,5.9-3.4,8.2c-3.7,3.7-9.4,4.4-13.8,2l34.7-34.7c-0.6-0.7-4.4-4.5-5.6-5.4C454.3,62.5,432.5,63.4,418.7,77.3z M434.8,108.7
	c-1.8-4.2-0.9-9.3,2.5-12.7s8.5-4.3,12.7-2.5L434.8,108.7z"/>
</svg>
