<svg xmlns="http://www.w3.org/2000/svg" viewBox="0 0 566.9 476.3" xml:space="preserve"><path fill="red" d="M353.8 82.6c2.5-.2 5-.3 7.6-.3 55.9 0 103.8 54.1 107.4 81.7.4 2.9.6 5.5.8 7.7C468.9 96.6 351.7 0 257.6 0 184.9 0 151 29.4 139.8 62.5c-16.7 41.7 5.3 101.1 56.8 143.4 5.4 4.4 10.9 8.5 16.5 12.3-2.5.2-5 .3-7.6.3-55.9 0-103.8-54.1-107.4-81.7-.4-2.9-.6-5.5-.8-7.7.7 75.1 117.9 171.7 212 171.7 72.7 0 106.6-29.4 117.8-62.5 16.7-41.7-5.3-101.1-56.8-143.4-5.4-4.4-10.9-8.5-16.5-12.3zM249 207.5c-41.4-34-55.3-84.1-31.9-112.4 23.5-28.4 76.3-25.1 118.7 7.9 42.1 32.8 58.3 82.6 36.7 112.3 8.9-17.9-.9-44.7-24-62.8-25-19.6-56.1-21.6-69.9-4.7-13.8 16.8-5.6 46.6 18.8 66.8 18.8 15.6 41.7 21.1 58.1 15.4-27.8 14.6-71.4 6.3-106.5-22.5z"/><path fill="#F0373F" d="M298.8 390.8c-4.5-1.3-9.6 5-13.9 14.7-3.9 16.1-12.4 40-13 56.4-.3 7.3 6.5 9.4 11.1 11 14.5 5.1 22.9.1 27.2-5.1 3.1-3.7-.2-6.9-4-5.7-5.6 1.6-12.3 2.8-13.7-2.6-1.5-5.9 6.7-30.2 12.4-48.3 3.1-9.9 5.7-18.1-6.1-20.4z"/><path fill="#F5A023" d="M223.8 419.4c-9.8 1-29.3 6.2-29.3 31.4 0 1.2-3.6 28.4 31.6 25.3 35.1-3.2 41.1-25.3 41.1-25.3s8.7-29.2-12.6-28.4c-13 .5-19 6.3-19 6.3s8.7 1.7 10.6 7.9c3.6 11.8 2.2 31.8-16.9 30-19.2-1.8-9.8-27.2-3.8-40 2.1-4.5 1.6-7.5-1.7-7.2z"/><path fill="#7487BF" d="M340.7 419.4c-9.8 1-29.3 6.2-29.3 31.4 0 1.2-3.5 28.4 31.6 25.3 35.1-3.2 41.1-25.3 41.1-25.3s8.7-29.2-12.6-28.4c-13 .5-19 6.3-19 6.3s8.7 1.7 10.6 7.9c3.6 11.8 2.2 31.8-16.9 30-19.2-1.8-9.8-27.2-3.8-40 2.1-4.5 1.6-7.5-1.7-7.2z"/><path fill="#019EE3" d="M109.3 438.1c-1.6-31.2 41.5-45.2 56.9-46.4 15.4-1.2 31.6 2.2 31.6 2.2s-2.4 30.8-9.5 31.6c-7.1.8-5.5-23.3-19-22.1-24.6 2.2-34.5 29-34.7 37.9-.1 4.3 1.2 23.7 19 22.1 17.8-1.6 21.7-11.1 25.3-12.6 3.6-1.6 10.4-4.7 9.5 3.2-2 17.4-34.7 22.1-34.7 22.1s-42.4 2.3-44.4-38z"/><path fill="#DA72A3" d="M399.9 472.9c-15 .8-6.7-17.4-3.2-28.4 3.6-11.1 2.9-23.2 15.8-22.1 14.2 1.2 3.2 19 3.2 19s21.6-23.7 41.1-22.1c4.7.4-9.5 31.6-9.5 31.6s-3.6-11.5-12.6-9.5c-26.2 5.6-19.8 30.7-34.8 31.5z"/><g fill="#c3c6c5"><path d="m0 367.5 9.6-40.4 9.7-7.6h9.6l-9.6 40.3 9.6-5.8 7.7-28.7 5.8-5.8H56l-9.7 40.3 9.7-7.7 5.7-25 7.8-7.6h11.6l-9.7 38.4-11.5 9.6zM391 367.5l4.9-23.1 8.7-8.3h11.2l-6.6 25.3 9.7-5.8 2.5-13.1 6.4-6.4h13.5l-6.6 25.3 9.1-6.1 2.6-10.9 8.4-8.3h10.1l-5.6 21.8-13.2 9.6zM315.6 367.5l9.7-9.6h41.5s3.6 1.1 5.6-3.5c1.9-4.2-1.8-4.2-1.8-4.2h-19.3s-5.5-1.3-5.6-8.1c-.1-16.7 13.6-21.1 13.6-21.1H400l-8.1 8h-21.3s-6.8 1.9-6.9 7.6c-.1 2.6 3.1 2 3.1 2h17.3s10 1.7 7.7 12.5c-3 14.2-13.5 16.3-13.5 16.3h-62.7v.1z"/><path d="M282.6 367.5H300l5.3-19.9c.6-2.3 6.7-4.9 5.1-4.7-1.6.3 5.5-1.1 5.5-1.1s2.2.6 3.4 2.2c1.2 1.5-1.1 3.8-1.4 5.5-.3 1.8 1.9 1.9 1.9 1.9h9.7s5.2-1.9 6.6-3.9c1.4-2 3.1-4 3.1-5.7 0-1.7-3.8-3.9-3.8-3.9l-3.9-1.9h-28.9s-13.9 7.9-15.5 9.6c-.7.6-4.5 21.9-4.5 21.9zM80.1 345.5c-1.3 1.5-5.7 15.1-4.7 17.3 1 2.1 6.3 4.7 6.3 4.7h28.2s13.2-8.2 14.2-9.4c1-1.2 4.7-14.4 4.7-15.7 0-1.4-3.2-6.3-3.2-6.3h-33s-11.2 7.8-12.5 9.4zm22-3.2h8.7s-1 10.4-3.2 13.4c-2.2 2.9-7.1 5.5-7.1 5.5s-5.5.6-6.2 0c-.8-.6-.2-6.3-.2-6.3s.7-6.1 1.8-7.9c.9-1.7 6.2-4.7 6.2-4.7zM185.3 345.5c-1.3 1.5-5.7 15.1-4.7 17.3 1 2.1 6.3 4.7 6.3 4.7h39.3s1.3-6.2 2.9-12.6c1.5-5.9 3.4-15 3.4-15.7 0-1.4 9.8-13.7 9.8-13.7h-17.1l-8.6 10.6h-18.7c-.1 0-11.2 7.8-12.6 9.4zm22-3.2h8.6s-.9 10.4-3.2 13.4c-2.1 2.9-7.1 5.5-7.1 5.5s-5.5.6-6.3 0c-.7-.6-.2-6.3-.2-6.3s.7-6.1 1.8-7.9c1.1-1.7 6.4-4.7 6.4-4.7zM124.6 367.5l8.9-31.4h37.7s5 .5 6.7 3.3c1.8 2.8 1.2 7.6 1.2 7.6l-5.1 20.4h-15.7s1.8-10 3.6-17.3c1.8-7.3-3.2-7.9-3.2-7.9h-9.4l-5.4 18.8s-4.7 5.5-6.7 6.3h-12.6zM511.3 367.5l10-31.4H559s4.9.5 6.7 3.3c1.8 2.8 1.2 7.6 1.2 7.6l-5.3 20.4h-17.2s2.9-8.4 4.7-15.7c1.8-7.2-2.6-9.4-2.6-9.4H537l-5.3 18.8s-4.3 5.5-6.3 6.3l-14.1.1zM237.1 345.5c-1.4 1.5-5.6 15.1-4.7 17.3.9 2.1 6.3 4.7 6.3 4.7h28.2s5.6-3.5 9.8-6.3c0 0-24 .2-25.5 0-.7-.1-.4-3-.4-4.7h19.3s3.7-.8 9.3-5.4c5.6-4.6 6.3-5.1 6.3-8.7 0-3.6-3.2-6.3-3.2-6.3h-33c.2 0-11.1 7.8-12.4 9.4zm22-3.2h12.7s-1.4 4.8-8.3 7.9h-10.6c-1-2.7 1.5-4.9 2.9-6.1 1.4-1.3 3.3-1.8 3.3-1.8zM490.8 367.5s5.3-16.9 7-22.3c.8-2.9-1.1-2.8-4.8-2.8s-6.4.8-11.6 9.4c-6 10 8.9 12.8 8.9 12.8l-1.1 2.9H472s-9.4.4-9.4-11c0-14 17.9-20.4 17.9-20.4h37.7l-10 31.4h-17.4z"/></g></svg>