<svg version="1.2" baseProfile="tiny" xmlns="http://www.w3.org/2000/svg" width="598.189" height="350.26" xml:space="preserve"><path fill="#F4F4F4" d="M44.422 69.395c-9.927 0-19.207 9.291-19.207 19.207v177.707c0 11.615 9.539 19.236 19.207 19.235H558.35c5.957 0 10.788-1.469 14.13-4.671s5.077-8.073 5.077-14.564V88.601c0-9.591-7.604-19.208-19.208-19.208H44.42l.002.002zm0 1.856H558.35c10.586 0 17.351 8.739 17.351 17.35v177.707c0 6.165-1.599 10.452-4.497 13.229s-7.195 4.149-12.854 4.149H44.422c-8.711-.01-17.361-6.787-17.361-17.389V88.6c0-8.726 8.613-17.35 17.35-17.35l.011.001z"/><path fill="#F4F4F4" d="M62.729 102.556c-1.368 0-2.612.754-3.598 1.741-.986.985-1.77 2.229-1.77 3.598V243.47c0 1.368.785 2.641 1.77 3.627.986.985 2.229 1.74 3.598 1.74h480.396c1.368 0 2.611-.755 3.597-1.74.986-.986 1.741-2.259 1.741-3.627V107.895c0-1.369-.755-2.612-1.741-3.598-.985-.985-2.229-1.741-3.597-1.741H62.729zm0 1.857h480.396c.586 0 1.554.451 2.292 1.189.737.738 1.188 1.705 1.188 2.292V243.47c0 .586-.451 1.554-1.188 2.292-.738.738-1.706 1.219-2.292 1.219H62.729c-.586 0-1.555-.48-2.292-1.219-.741-.742-1.222-1.708-1.222-2.293V107.894c0-.586.481-1.555 1.218-2.292.738-.738 1.706-1.189 2.292-1.189h.004z"/><path fill="#F4F4F4" d="M135.083 105.806c-1.088 0-2.053.167-2.728.841-.674.674-.841 1.639-.841 2.727v21.324c0 1.088.167 2.053.841 2.728.674.675 1.639.87 2.728.87h21.324c1.088 0 2.053-.195 2.728-.87s.87-1.64.87-2.728v-21.324c0-1.089-.196-2.053-.87-2.727-.674-.675-1.64-.841-2.728-.841h-21.324zm0 1.856h21.324c.867 0 1.258.155 1.422.319s.319.526.319 1.393v21.324c0 .867-.154 1.258-.319 1.422-.164.164-.556.319-1.422.319h-21.324c-.867 0-1.229-.155-1.393-.319-.158-.164-.315-.555-.315-1.423v-21.324c0-.867.155-1.229.319-1.393.164-.164.525-.319 1.393-.319l-.004.001z"/><path fill="#F4F4F4" d="M162.796 105.806c-1.088 0-2.024.167-2.698.841-.674.674-.87 1.638-.87 2.727v21.324c0 1.088.196 2.053.87 2.728s1.61.87 2.698.87h21.353c1.088 0 2.024-.195 2.698-.87.675-.675.871-1.64.871-2.728v-21.324c0-1.089-.196-2.053-.871-2.727-.674-.675-1.61-.841-2.698-.841h-21.353zm0 1.856h21.353c.867 0 1.229.155 1.393.319.165.164.319.526.319 1.393v21.324c0 .867-.155 1.258-.319 1.422-.164.164-.526.319-1.393.319h-21.353c-.866 0-1.229-.155-1.393-.319-.165-.164-.319-.556-.319-1.422v-21.324c0-.867.155-1.229.319-1.393s.526-.319 1.393-.319z"/><path fill="#F4F4F4" d="M190.527 105.806c-1.088 0-2.053.167-2.727.841-.675.674-.871 1.638-.871 2.727v21.324c0 1.088.196 2.053.871 2.728.674.675 1.639.87 2.727.87h21.324c1.089 0 2.053-.195 2.728-.87.674-.675.841-1.64.841-2.728v-21.324c0-1.088-.167-2.053-.841-2.727-.674-.675-1.639-.841-2.728-.841h-21.324zm0 1.856h21.324c.868 0 1.229.155 1.393.319.164.164.319.526.319 1.393v21.324c0 .867-.155 1.258-.319 1.422-.165.164-.526.319-1.393.319h-21.324c-.866 0-1.257-.155-1.422-.319-.164-.164-.319-.556-.319-1.422v-21.324c0-.867.155-1.229.319-1.393.165-.164.556-.319 1.422-.319z"/><path fill="#F4F4F4" d="M218.241 105.806c-1.088 0-2.053.167-2.728.841-.674.674-.87 1.638-.87 2.727v21.324c0 1.088.196 2.053.87 2.728s1.639.87 2.728.87h21.324c1.088 0 2.053-.195 2.727-.87s.871-1.64.871-2.728v-21.324c0-1.089-.196-2.053-.871-2.727-.674-.675-1.639-.841-2.727-.841h-21.324zm0 1.856h21.324c.866 0 1.257.155 1.422.319.164.164.319.526.319 1.393v21.324c0 .867-.155 1.258-.319 1.422-.165.164-.556.319-1.422.319h-21.324c-.867 0-1.258-.155-1.422-.319-.165-.164-.319-.556-.319-1.422v-21.324c0-.867.155-1.229.319-1.393s.555-.319 1.422-.319z"/><path fill="#F4F4F4" d="M245.944 105.806c-1.088 0-2.053.167-2.728.841-.674.674-.87 1.639-.87 2.727v21.324c0 1.088.196 2.053.87 2.728s1.639.87 2.728.87h21.324c1.088 0 2.053-.195 2.728-.87.674-.675.87-1.64.87-2.728v-21.324c0-1.088-.196-2.053-.87-2.727-.675-.675-1.64-.841-2.728-.841h-21.324zm0 1.856h21.324c.867 0 1.258.155 1.422.319.164.164.319.526.319 1.393v21.324c0 .867-.155 1.258-.319 1.422s-.555.319-1.422.319h-21.324c-.867 0-1.229-.155-1.393-.319s-.348-.555-.348-1.422v-21.324c0-.867.184-1.229.348-1.393.164-.164.526-.319 1.393-.319z"/><path fill="#F4F4F4" d="M273.647 105.806c-1.088 0-2.023.167-2.698.841-.674.674-.87 1.638-.87 2.727v21.324c0 1.088.196 2.053.87 2.728.675.675 1.61.87 2.698.87h21.354c1.088 0 2.024-.195 2.698-.87s.871-1.64.871-2.728v-21.324c0-1.089-.196-2.053-.871-2.727-.674-.675-1.61-.841-2.698-.841h-21.354zm0 1.856h21.354c.867 0 1.228.155 1.393.319.164.164.319.526.319 1.393v21.324c0 .867-.155 1.258-.319 1.422-.165.164-.526.319-1.393.319h-21.354c-.866 0-1.229-.155-1.393-.319-.158-.164-.315-.556-.315-1.423v-21.324c0-.867.155-1.229.319-1.393s.526-.319 1.393-.319l-.004.001z"/><path fill="#F4F4F4" d="M301.36 105.806c-1.088 0-2.023.167-2.698.841-.674.674-.87 1.639-.87 2.727v21.324c0 1.088.196 2.053.87 2.728.675.675 1.61.87 2.698.87h21.354c1.088 0 2.023-.195 2.698-.87.674-.675.87-1.64.87-2.728v-21.324c0-1.089-.195-2.053-.87-2.727-.675-.675-1.61-.841-2.698-.841H301.36zm0 1.856h21.354c.867 0 1.229.155 1.393.319s.319.526.319 1.393v21.324c0 .867-.155 1.258-.319 1.422s-.526.319-1.393.319H301.36c-.866 0-1.229-.155-1.393-.319s-.319-.555-.319-1.422v-21.324c0-.867.155-1.229.319-1.393s.527-.319 1.393-.319z"/><path fill="#F4F4F4" d="M329.093 105.806c-1.088 0-2.053.167-2.728.841-.675.674-.87 1.638-.87 2.727v21.324c0 1.088.195 2.053.87 2.728.674.675 1.64.87 2.728.87h21.324c1.088 0 2.053-.195 2.727-.87.675-.675.871-1.64.871-2.728v-21.324c0-1.089-.196-2.053-.871-2.727-.674-.675-1.639-.841-2.727-.841h-21.324zm0 1.856h21.324c.866 0 1.229.155 1.393.319s.348.526.348 1.393v21.324c0 .867-.184 1.258-.348 1.422s-.527.319-1.393.319h-21.324c-.867 0-1.258-.155-1.422-.319s-.319-.556-.319-1.422v-21.324c0-.867.155-1.229.319-1.393s.555-.319 1.422-.319z"/><path fill="#F4F4F4" d="M356.805 105.806c-1.088 0-2.052.167-2.727.841-.675.674-.87 1.638-.87 2.727v21.324c0 1.088.195 2.053.87 2.728s1.639.87 2.727.87h21.325c1.088 0 2.053-.195 2.727-.87.668-.674.863-1.639.863-2.727v-21.325c0-1.088-.195-2.053-.87-2.727-.674-.674-1.64-.841-2.728-.841h-21.324.007zm0 1.856h21.325c.866 0 1.257.155 1.421.319.165.164.319.526.319 1.393v21.324c0 .867-.154 1.258-.319 1.422-.164.164-.555.319-1.421.319h-21.325c-.866 0-1.257-.155-1.421-.319s-.319-.556-.319-1.422v-21.324c0-.867.155-1.229.319-1.393s.554-.319 1.421-.319z"/><path fill="#F4F4F4" d="M384.509 105.806c-1.088 0-2.053.167-2.728.841-.675.674-.841 1.638-.841 2.727v21.324c0 1.088.166 2.053.841 2.728s1.64.87 2.728.87h21.324c1.088 0 2.053-.195 2.728-.87s.87-1.64.87-2.728v-21.324c0-1.089-.195-2.053-.87-2.727-.675-.675-1.64-.841-2.728-.841h-21.324zm0 1.856h21.324c.867 0 1.258.155 1.422.319s.319.526.319 1.393v21.324c0 .867-.155 1.258-.319 1.422s-.555.319-1.422.319h-21.324c-.867 0-1.229-.155-1.393-.319s-.319-.556-.319-1.422v-21.324c0-.867.155-1.229.319-1.393s.526-.319 1.393-.319z"/><path fill="#F4F4F4" d="M412.212 105.806c-1.087 0-2.023.167-2.697.841-.669.673-.863 1.638-.863 2.726v21.325c0 1.088.195 2.053.87 2.727.675.675 1.61.87 2.698.87h21.354c1.087 0 2.023-.195 2.698-.87.674-.674.87-1.639.87-2.727v-21.325c0-1.088-.196-2.053-.87-2.727-.675-.674-1.611-.841-2.698-.841H412.22l-.008.001zm0 1.856h21.354c.866 0 1.229.155 1.393.319s.319.526.319 1.393v21.324c0 .867-.155 1.258-.319 1.422s-.526.319-1.393.319h-21.354c-.865 0-1.227-.155-1.393-.319-.157-.165-.315-.556-.315-1.423v-21.324c0-.867.155-1.229.319-1.393s.527-.319 1.393-.319l-.004.001z"/><path fill="#F4F4F4" d="M439.953 105.806c-1.088 0-2.053.167-2.728.841-.674.674-.87 1.638-.87 2.727v21.324c0 1.088.196 2.053.87 2.728.675.675 1.64.87 2.728.87h21.324c1.089 0 2.053-.195 2.728-.87s.842-1.64.842-2.728v-21.324c0-1.089-.167-2.053-.842-2.727-.675-.675-1.639-.841-2.728-.841h-21.324zm0 1.856h21.324c.867 0 1.229.155 1.393.319.165.164.319.526.319 1.393v21.324c0 .867-.154 1.258-.319 1.422-.164.164-.525.319-1.393.319h-21.324c-.866 0-1.258-.155-1.422-.319s-.318-.556-.318-1.422v-21.324c0-.867.154-1.229.318-1.393s.556-.319 1.422-.319zM121.129 133.31c-1.088 0-2.053.196-2.727.87s-.871 1.64-.871 2.728v21.324c0 1.088.196 2.053.871 2.728.674.674 1.639.87 2.727.87h21.325c1.088 0 2.053-.196 2.727-.87.675-.675.871-1.64.871-2.728v-21.324c0-1.088-.196-2.054-.871-2.728-.674-.674-1.639-.87-2.727-.87h-21.325zm0 1.857h21.325c.866 0 1.257.184 1.421.348s.319.526.319 1.393v21.324c0 .867-.155 1.258-.319 1.422s-.555.319-1.421.319h-21.325c-.867 0-1.229-.155-1.393-.319s-.348-.555-.348-1.422v-21.324c0-.866.184-1.229.348-1.393.164-.164.527-.348 1.393-.348z"/><path fill="#F4F4F4" d="M148.842 133.31c-1.088 0-2.053.196-2.727.87s-.841 1.64-.841 2.728v21.324c0 1.088.167 2.053.841 2.728.674.674 1.64.87 2.727.87h21.325c1.088 0 2.053-.196 2.727-.87.668-.676.863-1.64.863-2.729v-21.324c0-1.088-.196-2.053-.87-2.728-.674-.673-1.639-.87-2.728-.87h-21.324l.007.001zm0 1.857h21.325c.867 0 1.257.184 1.421.348.165.164.319.526.319 1.393v21.324c0 .867-.155 1.258-.319 1.422-.164.164-.555.319-1.421.319h-21.325c-.866 0-1.229-.155-1.393-.319s-.319-.555-.319-1.422v-21.324c0-.866.155-1.229.319-1.393.165-.164.527-.348 1.393-.348z"/><path fill="#F4F4F4" d="M176.545 133.31c-1.088 0-2.023.196-2.698.87-.674.675-.87 1.64-.87 2.728v21.324c0 1.088.196 2.053.87 2.728.675.675 1.61.87 2.698.87h21.354c1.088 0 2.023-.196 2.698-.87.674-.675.87-1.64.87-2.728v-21.324c0-1.088-.196-2.054-.87-2.728-.674-.674-1.61-.87-2.698-.87h-21.354zm0 1.857h21.354c.866 0 1.229.184 1.393.348s.319.526.319 1.393v21.324c0 .867-.155 1.258-.319 1.422s-.526.319-1.393.319h-21.354c-.867 0-1.229-.155-1.393-.319-.164-.164-.319-.555-.319-1.422v-21.324c0-.866.155-1.229.319-1.393s.527-.348 1.393-.348z"/><path fill="#F4F4F4" d="M204.286 133.31c-1.088 0-2.053.196-2.727.87-.678.674-.873 1.639-.873 2.727v21.324c0 1.089.196 2.054.87 2.728.675.675 1.64.87 2.728.87h21.324c1.088 0 2.053-.195 2.728-.87.674-.674.841-1.639.841-2.728v-21.324c0-1.088-.167-2.053-.841-2.728-.674-.673-1.639-.87-2.728-.87h-21.324l.002.001zm0 1.857h21.325c.867 0 1.229.184 1.393.348.165.164.319.526.319 1.393v21.324c0 .867-.154 1.258-.319 1.422-.164.164-.526.319-1.393.319h-21.325c-.866 0-1.257-.155-1.421-.319-.167-.164-.325-.556-.325-1.422v-21.324c0-.866.155-1.229.319-1.393.164-.164.555-.348 1.421-.348h.006z"/><path fill="#F4F4F4" d="M231.99 133.31c-1.088 0-2.052.196-2.727.87-.674.675-.87 1.64-.87 2.728v21.324c0 1.088.196 2.053.87 2.728.675.675 1.639.87 2.727.87h21.325c1.088 0 2.053-.195 2.727-.87.675-.675.871-1.64.871-2.728v-21.324c0-1.088-.196-2.053-.871-2.728-.674-.674-1.639-.87-2.727-.87H231.99zm0 1.857h21.325c.867 0 1.257.184 1.421.348.165.164.319.526.319 1.393v21.324c0 .867-.155 1.258-.319 1.422-.164.164-.554.319-1.421.319H231.99c-.867 0-1.257-.155-1.421-.319-.164-.164-.319-.555-.319-1.422v-21.324c0-.866.155-1.229.319-1.393s.554-.348 1.421-.348z"/><path fill="#F4F4F4" d="M259.693 133.31c-1.088 0-2.052.196-2.727.87-.674.674-.87 1.64-.87 2.728v21.324c0 1.088.196 2.053.87 2.728.675.674 1.64.87 2.727.87h21.325c1.088 0 2.053-.196 2.727-.87.675-.675.87-1.64.87-2.728v-21.324c0-1.088-.195-2.054-.87-2.728-.674-.674-1.639-.87-2.727-.87h-21.325zm0 1.857h21.325c.866 0 1.257.184 1.421.348.165.164.319.526.319 1.393v21.324c0 .867-.155 1.258-.319 1.422s-.555.319-1.421.319h-21.325c-.866 0-1.229-.155-1.393-.319s-.348-.555-.348-1.422v-21.324c0-.866.184-1.229.348-1.393.165-.164.527-.348 1.393-.348z"/><path fill="#F4F4F4" d="M287.407 133.31c-1.089 0-2.024.196-2.698.87-.675.675-.871 1.64-.871 2.728v21.324c0 1.088.196 2.053.871 2.728.674.674 1.609.87 2.698.87h21.353c1.088 0 2.023-.196 2.698-.87.675-.675.87-1.64.87-2.728v-21.324c0-1.088-.195-2.054-.87-2.728s-1.61-.87-2.698-.87h-21.353zm0 1.857h21.353c.867 0 1.229.184 1.393.348.165.164.319.526.319 1.393v21.324c0 .867-.155 1.258-.319 1.422s-.525.319-1.393.319h-21.353c-.867 0-1.229-.155-1.393-.319-.165-.164-.319-.555-.319-1.422v-21.324c0-.866.154-1.229.319-1.393.165-.164.526-.348 1.393-.348z"/><path fill="#F4F4F4" d="M315.11 133.31c-1.088 0-2.024.196-2.698.87s-.871 1.64-.871 2.728v21.324c0 1.088.197 2.053.871 2.728.674.674 1.61.87 2.698.87h21.354c1.088 0 2.023-.196 2.697-.87.675-.675.871-1.64.871-2.728v-21.324c0-1.088-.196-2.054-.871-2.728-.674-.674-1.609-.87-2.697-.87H315.11zm0 1.857h21.354c.866 0 1.229.184 1.393.348.165.164.318.526.318 1.393v21.324c0 .867-.154 1.258-.318 1.422s-.526.319-1.393.319H315.11c-.866 0-1.229-.155-1.393-.319s-.319-.555-.319-1.422v-21.324c0-.866.155-1.229.319-1.393.166-.164.527-.348 1.393-.348z"/><path fill="#F4F4F4" d="M342.842 133.31c-1.088 0-2.053.196-2.728.87-.674.674-.87 1.64-.87 2.728v21.324c0 1.088.196 2.053.87 2.728.675.674 1.64.87 2.728.87h21.324c1.088 0 2.053-.196 2.728-.87.675-.675.841-1.64.841-2.728v-21.324c0-1.088-.166-2.054-.841-2.728-.674-.674-1.64-.87-2.728-.87h-21.324zm0 1.857h21.324c.867 0 1.229.184 1.393.348s.319.526.319 1.393v21.324c0 .867-.155 1.258-.319 1.422s-.525.319-1.393.319h-21.324c-.866 0-1.258-.155-1.422-.319-.157-.164-.315-.556-.315-1.422v-21.324c0-.866.155-1.229.319-1.393s.556-.348 1.422-.348h-.004z"/><path fill="#F4F4F4" d="M370.555 133.31c-1.088 0-2.053.196-2.728.87-.674.674-.87 1.64-.87 2.728v21.324c0 1.088.196 2.053.87 2.728.675.674 1.641.87 2.728.87h21.325c1.087 0 2.053-.196 2.728-.87.673-.675.87-1.64.87-2.728v-21.324c0-1.088-.197-2.054-.87-2.728-.675-.674-1.64-.87-2.728-.87h-21.325zm0 1.857h21.325c.866 0 1.257.184 1.421.348.165.164.319.526.319 1.393v21.324c0 .867-.155 1.258-.319 1.422s-.555.319-1.421.319h-21.325c-.866 0-1.229-.155-1.393-.319s-.349-.555-.349-1.422v-21.324c0-.866.185-1.229.349-1.393.165-.164.526-.348 1.393-.348z"/><path fill="#F4F4F4" d="M398.258 133.31c-1.088 0-2.053.196-2.727.87s-.842 1.64-.842 2.728v21.324c0 1.088.168 2.053.842 2.728.674.674 1.64.87 2.727.87h21.325c1.088 0 2.053-.196 2.728-.87.674-.675.87-1.64.87-2.728v-21.324c0-1.088-.196-2.054-.87-2.728-.675-.674-1.639-.87-2.728-.87h-21.325zm0 1.857h21.325c.866 0 1.257.184 1.422.348.164.164.319.526.319 1.393v21.324c0 .867-.156 1.258-.319 1.422-.165.164-.556.319-1.422.319h-21.325c-.865 0-1.229-.155-1.393-.319s-.319-.555-.319-1.422v-21.324c0-.866.155-1.229.319-1.393.165-.164.528-.348 1.393-.348z"/><path fill="#F4F4F4" d="M425.972 133.31c-1.088 0-2.024.196-2.698.87-.675.674-.87 1.64-.87 2.728v21.324c0 1.088.195 2.053.87 2.728.675.674 1.61.87 2.698.87h21.354c1.087 0 2.023-.196 2.697-.87.675-.675.87-1.64.87-2.728v-21.324c0-1.088-.195-2.054-.87-2.728-.674-.674-1.61-.87-2.697-.87h-21.354zm0 1.857h21.354c.866 0 1.228.184 1.393.348.164.164.319.526.319 1.393v21.324c0 .867-.155 1.258-.319 1.422-.165.164-.526.319-1.393.319h-21.354c-.867 0-1.229-.155-1.393-.319s-.319-.555-.319-1.422v-21.324c0-.866.154-1.229.319-1.393.164-.164.525-.348 1.393-.348z"/><path fill="#F4F4F4" d="M453.619 133.31c-1.087 0-2.053.196-2.728.87-.674.674-.87 1.64-.87 2.728v21.324c0 1.089.196 2.053.87 2.728.675.674 1.641.87 2.728.87h35.192c1.088 0 2.023-.196 2.698-.87.675-.675.87-1.64.87-2.728v-21.324c0-1.088-.196-2.054-.87-2.728-.675-.674-1.61-.87-2.698-.87h-35.192zm0 1.857h35.192c.866 0 1.228.184 1.393.348.164.164.319.526.319 1.393v21.324c0 .867-.155 1.258-.319 1.422s-.526.319-1.393.319h-35.192c-.866 0-1.257-.155-1.422-.319-.164-.164-.319-.555-.319-1.422v-21.324c0-.866.155-1.229.319-1.393.165-.165.556-.348 1.422-.348z"/><path fill="#F4F4F4" d="M467.657 105.806c-1.088 0-2.053.167-2.728.841-.675.674-.87 1.638-.87 2.727v21.324c0 1.088.195 2.053.87 2.728s1.64.87 2.728.87h21.324c1.088 0 2.053-.195 2.728-.87.674-.675.87-1.64.87-2.728v-21.324c0-1.089-.196-2.053-.87-2.727-.675-.675-1.64-.841-2.728-.841h-21.324zm0 1.856h21.324c.867 0 1.229.155 1.393.319s.348.526.348 1.393v21.324c0 .867-.184 1.258-.348 1.422s-.525.319-1.393.319h-21.324c-.866 0-1.258-.155-1.422-.319s-.319-.556-.319-1.422v-21.324c0-.867.155-1.229.319-1.393s.555-.319 1.422-.319zM127.136 161.249c-1.088 0-2.053.196-2.728.87-.674.675-.87 1.61-.87 2.698v21.354c0 1.088.196 2.023.87 2.698.675.674 1.64.87 2.728.87h21.325c1.088 0 2.053-.196 2.727-.87.674-.675.841-1.611.841-2.698v-21.354c0-1.088-.167-2.024-.841-2.698s-1.639-.87-2.727-.87h-21.325zm0 1.857h21.325c.866 0 1.228.154 1.392.318.165.164.319.526.319 1.393v21.354c0 .866-.155 1.229-.319 1.393-.164.164-.525.319-1.392.319h-21.325c-.866 0-1.257-.155-1.422-.319-.164-.165-.319-.526-.319-1.393v-21.354c0-.866.155-1.229.319-1.393.164-.163.556-.318 1.422-.318z"/><path fill="#F4F4F4" d="M154.839 161.249c-1.088 0-2.053.196-2.727.87-.674.675-.871 1.61-.871 2.698v21.354c0 1.088.196 2.023.871 2.698.674.674 1.639.87 2.727.87h21.325c1.088 0 2.053-.196 2.727-.87.674-.675.87-1.61.87-2.698v-21.354c0-1.088-.196-2.024-.87-2.698s-1.639-.87-2.727-.87h-21.325zm0 1.857h21.325c.866 0 1.257.154 1.421.318.165.164.319.526.319 1.393v21.354c0 .866-.154 1.228-.319 1.393-.164.164-.555.319-1.421.319h-21.325c-.866 0-1.257-.155-1.422-.319-.164-.165-.319-.526-.319-1.393v-21.354c0-.866.155-1.229.319-1.393.165-.163.556-.318 1.422-.318z"/><path fill="#F4F4F4" d="M182.552 161.249c-1.088 0-2.053.196-2.727.87-.674.675-.841 1.61-.841 2.698v21.354c0 1.088.167 2.023.841 2.698.674.674 1.639.87 2.727.87h21.325c1.088 0 2.053-.196 2.727-.87.674-.675.871-1.61.871-2.698v-21.354c0-1.088-.196-2.024-.871-2.698-.674-.674-1.639-.87-2.727-.87h-21.325zm0 1.857h21.325c.866 0 1.257.154 1.421.318.165.164.319.526.319 1.393v21.354c0 .866-.155 1.228-.319 1.393-.165.164-.555.319-1.421.319h-21.325c-.866 0-1.229-.155-1.393-.319-.165-.165-.319-.526-.319-1.393v-21.354c0-.866.154-1.229.319-1.393.165-.163.527-.318 1.393-.318z"/><path fill="#F4F4F4" d="M210.256 161.249c-1.088 0-2.024.196-2.698.87-.674.675-.871 1.61-.871 2.698v21.354c0 1.088.196 2.023.871 2.698.674.674 1.61.87 2.698.87h21.354c1.088 0 2.024-.196 2.698-.87.675-.675.871-1.61.871-2.698v-21.354c0-1.088-.196-2.024-.871-2.698-.674-.674-1.61-.87-2.698-.87h-21.354zm0 1.857h21.354c.867 0 1.229.154 1.393.318.165.164.319.526.319 1.393v21.354c0 .866-.155 1.228-.319 1.393-.164.164-.526.319-1.393.319h-21.354c-.866 0-1.229-.155-1.393-.319-.165-.165-.319-.526-.319-1.393v-21.354c0-.866.154-1.229.319-1.393.164-.163.527-.318 1.393-.318z"/><path fill="#F4F4F4" d="M237.997 161.249c-1.088 0-2.053.196-2.728.87-.674.675-.87 1.61-.87 2.698v21.354c0 1.088.196 2.023.87 2.698.674.674 1.64.87 2.728.87h21.324c1.088 0 2.024-.196 2.698-.87.674-.675.871-1.61.871-2.698v-21.354c0-1.088-.196-2.024-.871-2.698-.674-.674-1.61-.87-2.698-.87h-21.324zm0 1.857h21.324c.866 0 1.228.154 1.393.318s.319.526.319 1.393v21.354c0 .866-.155 1.228-.319 1.393-.165.164-.526.319-1.393.319h-21.324c-.866 0-1.258-.155-1.422-.319-.165-.165-.319-.526-.319-1.393v-21.354c0-.866.154-1.229.319-1.393.164-.163.556-.318 1.422-.318z"/><path fill="#F4F4F4" d="M265.701 161.249c-1.088 0-2.053.196-2.727.87-.675.675-.871 1.61-.871 2.698v21.354c0 1.088.196 2.023.871 2.698.674.674 1.639.87 2.727.87h21.325c1.088 0 2.053-.196 2.727-.87.675-.675.871-1.61.871-2.698v-21.354c0-1.088-.196-2.024-.871-2.698-.674-.674-1.639-.87-2.727-.87h-21.325zm0 1.857h21.325c.866 0 1.228.154 1.393.318.164.164.348.526.348 1.393v21.354c0 .866-.184 1.228-.348 1.393-.164.164-.526.319-1.393.319h-21.325c-.866 0-1.257-.155-1.422-.319-.165-.165-.319-.526-.319-1.393v-21.354c0-.866.154-1.229.319-1.393s.555-.318 1.422-.318z"/><path fill="#F4F4F4" d="M293.413 161.249c-1.088 0-2.053.196-2.727.87-.675.675-.871 1.61-.871 2.698v21.354c0 1.088.196 2.023.871 2.698.674.674 1.639.87 2.727.87h21.325c1.088 0 2.053-.196 2.728-.87.673-.675.87-1.61.87-2.698v-21.354c0-1.088-.197-2.024-.87-2.698-.675-.674-1.64-.87-2.728-.87h-21.325zm0 1.857h21.325c.866 0 1.258.154 1.422.318s.319.526.319 1.393v21.354c0 .866-.155 1.228-.319 1.393-.165.164-.556.319-1.422.319h-21.325c-.866 0-1.228-.155-1.393-.319-.163-.165-.349-.526-.349-1.393v-21.354c0-.866.186-1.229.349-1.393.166-.163.527-.318 1.393-.318z"/><path fill="#F4F4F4" d="M321.117 161.249c-1.088 0-2.024.196-2.698.87-.674.675-.87 1.61-.87 2.698v21.354c0 1.088.196 2.023.87 2.698.674.674 1.61.87 2.698.87h21.354c1.088 0 2.024-.196 2.697-.87.675-.675.87-1.61.87-2.698v-21.354c0-1.088-.195-2.024-.87-2.698-.673-.674-1.61-.87-2.697-.87h-21.354zm0 1.857h21.354c.866 0 1.228.154 1.393.318.164.164.319.526.319 1.393v21.354c0 .866-.155 1.228-.319 1.393-.165.164-.526.319-1.393.319h-21.354c-.866 0-1.229-.155-1.393-.319-.165-.165-.319-.526-.319-1.393v-21.354c0-.866.154-1.229.319-1.393.165-.163.527-.318 1.393-.318z"/><path fill="#F4F4F4" d="M348.821 161.249c-1.088 0-2.024.196-2.698.87-.675.675-.87 1.61-.87 2.698v21.354c0 1.088.195 2.023.87 2.698.674.674 1.61.87 2.698.87h21.354c1.088 0 2.023-.196 2.698-.87.673-.675.87-1.61.87-2.698v-21.354c0-1.088-.197-2.024-.87-2.698-.675-.674-1.611-.87-2.698-.87h-21.354zm0 1.857h21.354c.865 0 1.228.154 1.393.318.164.164.319.526.319 1.393v21.354c0 .866-.155 1.228-.319 1.393-.165.164-.527.319-1.393.319h-21.354c-.867 0-1.229-.155-1.393-.319-.165-.165-.319-.526-.319-1.393v-21.354c0-.866.154-1.229.319-1.393.165-.163.526-.318 1.393-.318z"/><path fill="#F4F4F4" d="M376.562 161.249c-1.088 0-2.053.196-2.727.87-.675.675-.871 1.61-.871 2.698v21.354c0 1.088.196 2.023.871 2.698.674.674 1.639.87 2.727.87h21.325c1.088 0 2.053-.196 2.727-.87.674-.675.842-1.61.842-2.698v-21.354c0-1.088-.168-2.024-.842-2.698s-1.639-.87-2.727-.87h-21.325zm0 1.857h21.325c.865 0 1.229.154 1.393.318s.319.526.319 1.393v21.354c0 .866-.155 1.228-.319 1.393-.164.164-.527.319-1.393.319h-21.325c-.866 0-1.257-.155-1.421-.319-.164-.165-.319-.526-.319-1.393v-21.354c0-.866.155-1.229.319-1.393s.554-.318 1.421-.318z"/><path fill="#F4F4F4" d="M404.266 161.249c-1.088 0-2.054.196-2.728.87-.674.675-.87 1.61-.87 2.698v21.354c0 1.088.196 2.023.87 2.698.674.674 1.64.87 2.728.87h21.324c1.088 0 2.053-.196 2.728-.87.674-.675.87-1.61.87-2.698v-21.354c0-1.088-.196-2.024-.87-2.698-.675-.674-1.64-.87-2.728-.87h-21.324zm0 1.857h21.324c.866 0 1.258.154 1.422.318s.319.526.319 1.393v21.354c0 .866-.155 1.228-.319 1.393-.164.164-.556.319-1.422.319h-21.324c-.867 0-1.258-.155-1.422-.319-.164-.165-.319-.526-.319-1.393v-21.354c0-.866.155-1.229.319-1.393s.554-.318 1.422-.318z"/><path fill="#F4F4F4" d="M431.97 161.249c-1.089 0-2.054.196-2.728.87-.675.675-.842 1.61-.842 2.698v21.354c0 1.088.167 2.023.842 2.698.674.674 1.639.87 2.728.87h21.324c1.088 0 2.053-.196 2.727-.87.674-.675.871-1.61.871-2.698v-21.354c0-1.088-.197-2.024-.871-2.698s-1.639-.87-2.727-.87H431.97zm0 1.857h21.324c.865 0 1.258.154 1.422.318s.318.526.318 1.393v21.354c0 .866-.154 1.228-.318 1.393-.164.164-.557.319-1.422.319H431.97c-.867 0-1.229-.155-1.393-.319-.166-.165-.319-.526-.319-1.393v-21.354c0-.866.153-1.229.319-1.393.164-.163.526-.318 1.393-.318z"/><path fill="#F4F4F4" d="M459.682 161.249c-1.088 0-2.023.196-2.698.87-.674.675-.87 1.61-.87 2.698v21.354c0 1.088.196 2.023.87 2.698.675.674 1.61.87 2.698.87h21.354c1.088 0 2.024-.196 2.698-.87.674-.675.871-1.61.871-2.698v-21.354c0-1.088-.197-2.024-.871-2.698s-1.61-.87-2.698-.87h-21.354zm0 1.857h21.354c.866 0 1.229.154 1.393.318s.319.526.319 1.393v21.354c0 .866-.155 1.228-.319 1.393-.164.164-.526.319-1.393.319h-21.354c-.866 0-1.229-.155-1.393-.319-.164-.165-.319-.526-.319-1.393v-21.354c0-.866.155-1.229.319-1.393s.526-.318 1.393-.318zM127.136 188.982c-1.088 0-2.053.167-2.728.842-.674.674-.87 1.638-.87 2.728v21.324c0 1.088.196 2.053.87 2.727.675.674 1.64.871 2.728.871h37.833c1.088 0 2.053-.197 2.728-.871.674-.674.87-1.639.87-2.727v-21.324c0-1.09-.196-2.054-.87-2.728-.675-.675-1.639-.842-2.728-.842h-37.833zm0 1.858h37.833c.867 0 1.258.154 1.422.318.164.165.319.526.319 1.394v21.324c0 .866-.155 1.257-.319 1.422-.164.164-.555.318-1.422.318h-37.833c-.866 0-1.258-.154-1.422-.318-.164-.165-.319-.556-.319-1.422v-21.324c0-.867.155-1.229.319-1.394.164-.164.556-.318 1.422-.318z"/><path fill="#F4F4F4" d="M171.356 188.982c-1.088 0-2.053.167-2.728.842-.674.674-.841 1.638-.841 2.728v21.324c0 1.088.167 2.053.841 2.727.675.674 1.639.871 2.728.871h21.353c1.088 0 2.024-.197 2.698-.871s.871-1.639.871-2.727v-21.324c0-1.09-.196-2.054-.871-2.728-.674-.675-1.61-.842-2.698-.842h-21.353zm0 1.858h21.353c.867 0 1.229.154 1.393.318.164.165.319.526.319 1.394v21.324c0 .866-.155 1.257-.319 1.422-.165.164-.526.318-1.393.318h-21.353c-.867 0-1.229-.154-1.393-.318-.164-.165-.319-.556-.319-1.422v-21.324c0-.867.155-1.229.319-1.394.164-.164.526-.318 1.393-.318zM127.229 216.491c-1.088 0-2.053.196-2.727.871-.674.673-.871 1.639-.871 2.727v21.324c0 1.088.196 2.053.871 2.728.674.674 1.639.87 2.727.87h21.324c1.089 0 2.053-.196 2.728-.87.674-.675.841-1.64.841-2.728v-21.324c0-1.088-.167-2.054-.841-2.727-.674-.675-1.639-.871-2.728-.871h-21.324zm0 1.858h21.324c.867 0 1.229.153 1.393.318.165.164.319.556.319 1.422v21.324c0 .866-.154 1.257-.319 1.422-.165.164-.526.319-1.393.319h-21.324c-.866 0-1.257-.155-1.421-.319-.167-.157-.325-.558-.325-1.421V220.09c0-.866.155-1.258.319-1.422.165-.164.556-.318 1.422-.318l.005-.001z"/><path fill="#F4F4F4" d="M196.125 216.491c-1.088 0-2.023.196-2.698.871-.674.673-.871 1.639-.871 2.727v21.324c0 1.088.196 2.053.871 2.728.675.674 1.611.87 2.698.87h216.003c1.088 0 2.053-.196 2.728-.87.674-.675.87-1.64.87-2.728v-21.324c0-1.088-.196-2.054-.87-2.727-.675-.675-1.64-.871-2.728-.871H196.125zm0 1.858h216.003c.866 0 1.258.153 1.422.318.164.164.319.556.319 1.422v21.324c0 .866-.155 1.257-.319 1.422-.164.164-.556.319-1.422.319H196.125c-.866 0-1.228-.155-1.393-.319-.164-.165-.319-.556-.319-1.422v-21.324c0-.866.155-1.258.319-1.422.165-.165.527-.318 1.393-.318z"/><path fill="#F4F4F4" d="M199.06 188.982c-1.088 0-2.024.167-2.698.842-.674.674-.871 1.638-.871 2.728v21.324c0 1.088.196 2.053.871 2.727.674.675 1.61.871 2.698.871h21.354c1.088 0 2.023-.197 2.698-.871.674-.674.87-1.639.87-2.727v-21.324c0-1.09-.196-2.054-.87-2.728-.675-.675-1.61-.842-2.698-.842H199.06zm0 1.858h21.354c.866 0 1.229.154 1.393.318.164.165.319.526.319 1.394v21.324c0 .866-.155 1.257-.319 1.422-.164.164-.526.318-1.393.318H199.06c-.867 0-1.229-.154-1.393-.318-.164-.165-.319-.556-.319-1.422v-21.324c0-.868.155-1.229.319-1.394s.526-.318 1.393-.318z"/><path fill="#F4F4F4" d="M226.791 188.982c-1.088 0-2.053.167-2.727.842-.674.674-.871 1.638-.871 2.728v21.324c0 1.088.196 2.053.871 2.727s1.639.871 2.727.871h21.325c1.087 0 2.053-.197 2.727-.871.675-.674.841-1.639.841-2.727v-21.324c0-1.09-.167-2.054-.841-2.728-.674-.675-1.64-.842-2.727-.842h-21.325zm0 1.858h21.325c.866 0 1.229.154 1.393.318.164.165.319.526.319 1.394v21.324c0 .866-.155 1.257-.319 1.422-.164.164-.526.318-1.393.318h-21.325c-.867 0-1.257-.154-1.421-.318-.164-.165-.319-.556-.319-1.422v-21.324c0-.867.155-1.229.319-1.394.164-.164.554-.318 1.421-.318z"/><path fill="#F4F4F4" d="M254.504 188.982c-1.088 0-2.053.167-2.727.842-.675.674-.871 1.638-.871 2.728v21.324c0 1.088.196 2.053.871 2.727.674.675 1.639.871 2.727.871h21.324c1.089 0 2.054-.196 2.728-.871.675-.674.87-1.639.87-2.727v-21.324c0-1.09-.195-2.054-.87-2.728-.674-.675-1.639-.842-2.728-.842h-21.324zm0 1.858h21.324c.867 0 1.258.154 1.422.318s.319.525.319 1.394v21.324c0 .866-.155 1.257-.319 1.422-.164.164-.555.318-1.422.318h-21.324c-.867 0-1.257-.154-1.422-.318-.164-.165-.319-.556-.319-1.422v-21.324c0-.868.155-1.229.319-1.394.165-.164.555-.318 1.422-.318z"/><path fill="#F4F4F4" d="M282.208 188.982c-1.089 0-2.053.167-2.728.842-.675.674-.842 1.638-.842 2.728v21.324c0 1.088.167 2.053.842 2.727s1.639.871 2.728.871h21.324c1.088 0 2.054-.197 2.727-.871.675-.674.871-1.639.871-2.727v-21.324c0-1.09-.196-2.054-.871-2.728-.673-.675-1.639-.842-2.727-.842h-21.324zm0 1.858h21.324c.866 0 1.258.154 1.422.318.164.165.318.526.318 1.394v21.324c0 .866-.154 1.257-.318 1.422-.164.164-.556.318-1.422.318h-21.324c-.867 0-1.229-.154-1.393-.318-.164-.165-.319-.556-.319-1.422v-21.324c0-.867.155-1.229.319-1.394.164-.164.526-.318 1.393-.318z"/><path fill="#F4F4F4" d="M309.92 188.982c-1.087 0-2.023.167-2.697.842-.674.674-.87 1.638-.87 2.728v21.324c0 1.088.196 2.053.87 2.727s1.61.871 2.697.871h21.354c1.088 0 2.024-.197 2.698-.871.675-.674.871-1.639.871-2.727v-21.324c0-1.09-.196-2.054-.871-2.728-.674-.675-1.61-.842-2.698-.842H309.92zm0 1.858h21.354c.867 0 1.229.154 1.393.318.164.165.319.526.319 1.394v21.324c0 .866-.155 1.257-.319 1.422-.164.164-.525.318-1.393.318H309.92c-.865 0-1.229-.154-1.393-.318-.164-.165-.318-.556-.318-1.422v-21.324c0-.867.154-1.229.318-1.394.164-.164.528-.318 1.393-.318z"/><path fill="#F4F4F4" d="M337.624 188.982c-1.088 0-2.023.167-2.698.842-.675.674-.87 1.638-.87 2.728v21.324c0 1.088.195 2.053.87 2.727s1.61.871 2.698.871h21.354c1.088 0 2.023-.197 2.698-.871s.87-1.639.87-2.727v-21.324c0-1.09-.195-2.054-.87-2.728-.675-.675-1.61-.842-2.698-.842h-21.354zm0 1.858h21.354c.867 0 1.229.154 1.393.318.164.165.319.526.319 1.394v21.324c0 .866-.155 1.257-.319 1.422-.164.164-.525.318-1.393.318h-21.354c-.866 0-1.229-.154-1.393-.318-.164-.165-.319-.556-.319-1.422v-21.324c0-.867.155-1.229.319-1.394.165-.164.527-.318 1.393-.318z"/><path fill="#F4F4F4" d="M365.364 188.982c-1.088 0-2.052.167-2.727.842-.674.674-.87 1.638-.87 2.728v21.324c0 1.088.196 2.053.87 2.727.675.675 1.639.871 2.727.871h21.325c1.088 0 2.054-.197 2.728-.871s.87-1.639.87-2.727v-21.324c0-1.09-.196-2.054-.87-2.728-.674-.675-1.64-.842-2.728-.842h-21.325zm0 1.858h21.325c.866 0 1.229.154 1.393.318.164.165.348.526.348 1.394v21.324c0 .866-.184 1.257-.348 1.422-.164.164-.526.318-1.393.318h-21.325c-.866 0-1.257-.154-1.421-.318-.158-.158-.315-.548-.315-1.421v-21.325c0-.866.154-1.229.318-1.393s.556-.318 1.422-.318l-.004-.001z"/><path fill="#F4F4F4" d="M393.068 188.982c-1.087 0-2.053.167-2.728.842-.674.674-.87 1.638-.87 2.728v21.324c0 1.088.196 2.053.87 2.727.675.674 1.641.871 2.728.871h21.324c1.088 0 2.054-.197 2.728-.871.675-.674.87-1.639.87-2.727v-21.324c0-1.09-.195-2.054-.87-2.728-.674-.675-1.64-.842-2.728-.842h-21.324zm0 1.858h21.324c.867 0 1.258.154 1.422.318.164.165.319.526.319 1.394v21.324c0 .866-.155 1.257-.319 1.422-.164.164-.555.318-1.422.318h-21.324c-.866 0-1.229-.154-1.393-.318-.164-.165-.349-.556-.349-1.422v-21.324c0-.867.185-1.229.349-1.394.165-.164.527-.318 1.393-.318z"/><path fill="#F4F4F4" d="M420.772 188.982c-1.088 0-2.053.167-2.728.842-.675.674-.842 1.638-.842 2.728v21.324c0 1.088.167 2.053.842 2.727s1.64.871 2.728.871h21.324c1.088 0 2.054-.197 2.727-.871.675-.674.871-1.639.871-2.727v-21.324c0-1.09-.196-2.054-.871-2.728-.673-.675-1.639-.842-2.727-.842h-21.324zm0 1.858h21.324c.867 0 1.258.154 1.422.318.164.165.318.526.318 1.394v21.324c0 .866-.154 1.257-.318 1.422-.164.164-.555.318-1.422.318h-21.324c-.866 0-1.229-.154-1.393-.318-.164-.165-.319-.556-.319-1.422v-21.324c0-.867.155-1.229.319-1.394.165-.164.527-.318 1.393-.318z"/><path fill="#F4F4F4" d="M448.485 188.982c-1.088 0-2.024.167-2.697.842-.675.674-.871 1.638-.871 2.728v21.324c0 1.088.196 2.053.871 2.727.673.674 1.609.871 2.697.871h32.552c1.087 0 2.053-.197 2.728-.871.674-.674.841-1.639.841-2.727v-21.324c0-1.09-.167-2.054-.841-2.728-.675-.675-1.641-.842-2.728-.842h-32.552zm0 1.858h32.552c.866 0 1.229.154 1.393.318.164.165.319.526.319 1.394v21.324c0 .866-.155 1.257-.319 1.422-.164.164-.526.318-1.393.318h-32.552c-.866 0-1.229-.154-1.393-.318-.165-.165-.318-.556-.318-1.422v-21.324c0-.867.153-1.229.318-1.394.165-.164.527-.318 1.393-.318z"/></svg>