<svg xmlns="http://www.w3.org/2000/svg" viewBox="0 0 564.7 165.9" xml:space="preserve"><path fill="green" d="M92.6 29.6c6.2-6.8 9.4-16.3 9.8-29.1V0l-.4.1c-21.7 4.4-32.9 18-33.3 40.4v.4l.4-.1c10.4-1.5 18-5.2 23.5-11.2z"/><path fill="#00F" d="m17.9 144.8.4.6c3.6 5.2 7.7 10.2 12.2 15 3.4 3.6 8.9 5.6 15.5 5.6 4.8 0 9.7-1.1 12.9-2.9 6.6-3.7 10.1-3.7 12.7-3.8h1.9c.6 0 1.1-.1 1.8-.1 2.3 0 5.7.4 11.8 3.9 4.3 1.8 8.5 2.7 12.4 2.7 10.7 0 20.1-6.7 28.6-20.4l.4-.6H17.9z"/><path fill="green" d="M129.7 59c1.4-1.4 3-2.8 4.6-4.2l.3-.2-.2-.3c-8.1-9.9-19.1-15.3-31.9-15.5h-.6c-6.5 0-12.2 1.2-16.6 3.5-5.7 3-9.9 3.6-9.9 3.7H70.5c-1.8-.2-6.4-1-10.2-3-5.1-2.7-10.8-4.2-16.4-4.2h-.4C28.5 38.9 16 46.2 8.3 59h121.4z"/><path fill="#FF0" d="M117.2 80.2c1.5-7.1 5.4-14 11.9-20.6l.6-.6H8.2l-.1.2C4.4 65.4 2 72.5.8 80.2h116.4z"/><path fill="#F60" d="M120.1 101.2c-2.9-6-4.4-13-2.9-20.5l.1-.4H.8v.3c-1 6.7-1 13.7-.1 20.7l119.4-.1z"/><path fill="red" d="M6.4 123.2h133.1l.8-1.7-.3-.2c-6.4-3.2-14.9-10.1-19.8-20l-.1-.2H.7l.1.4c.7 6.2 2.4 13.6 5.6 21.7z"/><path fill="purple" d="M17.9 144.8h110.6c4.2-6.8 7.7-14.4 10.8-21l.2-.5H6.4l.2.5c2.9 7.2 6.7 14.2 11.3 21z"/><path fill="gray" d="M373.9 38.5v78.1h18.6V38.5h-18.6zm122.7 0V49h10.9c1.4 0 2.4 1.1 2.4 2.5v52.1c0 1.4-1.1 2.5-2.4 2.5h-10.9v10.5H526V38.5h-29.4zm38.5 0v78.1h29.4v-10.5h-10.9c-1.4 0-2.4-1.1-2.4-2.5V51.5c0-1.4 1.1-2.5 2.4-2.5h10.9V38.5h-29.4zM157.2 57.3c-8.8 0-16 2.9-22 8.9-6.1 6-8.9 12.7-8.9 20.4 0 7.6 3 14.4 9.4 20.7 6.4 6.3 13.5 9.3 21.8 9.3h12v-13.7h-4.9c-4.7 0-9-1.5-12.3-4.6-3.3-3-5.1-7.1-5.1-11.5 0-4.5 1.8-8.6 5-11.5 3.3-2.9 7.4-4.3 12.1-4.3h12.9c1.4 0 2.4 1.1 2.4 2.5v43.1h18.6V57.3h-41zm53.1 0v78.1h18.6V73.6c0-1.4 1.1-2.5 2.4-2.5h12.1c5.1 0 9.6 1.8 13.2 5.2 3.3 3.2 5.1 7.1 5.1 11.4 0 4.5-2 8.4-5.5 11.2-3.5 2.7-7.9 4.1-12.8 4.1h-4.3v13.7h12.5c8.7 0 15.9-2.8 21.9-8.5 6-5.7 8.9-12.4 8.9-20.6 0-8.5-2.9-15.5-8.9-21.4-6-6-13-8.8-21.5-8.8l-41.7-.1zm81.8 0v78.1h18.6V73.6c0-1.4 1.1-2.5 2.4-2.5h12.1c5.1 0 9.6 1.8 13.2 5.2 3.3 3.2 5.1 7.1 5.1 11.4 0 4.5-2 8.5-5.6 11.2-3.5 2.7-7.9 4.1-12.7 4.1h-4.3v13.7h12.5c8.7 0 15.8-2.8 21.9-8.5 6-5.7 8.9-12.4 8.9-20.6 0-8.5-2.9-15.5-8.9-21.4-6-6-13-8.8-21.5-8.8l-41.7-.1zm146.7 0c-9.9 0-18.4 3-25.7 9.1-7.3 6.1-10.7 12.7-10.7 20.3 0 9.1 3.5 16.2 10.9 21.9 6.9 5.4 15.3 8.1 25.4 8.1h37.2V103h-35.3c-4.7 0-8.9-1.6-12.2-4.6-3.4-3.1-5.2-7.2-5.2-11.8 0-4.4 1.8-8.3 5-11.2 3.3-2.9 7.5-4.3 12.4-4.3h12.1c.9 0 1.8.6 2.2 1.4.4.9.3 1.9-.3 2.7l-13.4 17.3h20.3l14.4-19.7V57.3h-37.1z"/><path fill="#DDD" d="M373.7 38.4V117h19V38.4h-19zm122.7 0v10.9h11.1c.6 0 1.2.2 1.6.7.4.4.7 1 .6 1.6v52.1c0 .6-.2 1.2-.6 1.6-.4.4-1 .7-1.6.7h-11.1v11h29.8V38.4h-29.8zm38.5 0V117h29.8v-11h-11.1c-.6 0-1.2-.2-1.6-.7-.4-.4-.7-1-.6-1.6v-52c0-.6.2-1.2.6-1.6.4-.4 1-.7 1.6-.7h11.1v-11h-29.8zM157.2 57.2c-8.9 0-16.1 2.9-22.2 8.9-6.1 6.1-9 12.8-9 20.6 0 7.7 3 14.5 9.5 20.9 6.4 6.3 13.6 9.4 21.9 9.4h12.2v-14.2h-5.1c-4.7 0-8.9-1.5-12.1-4.5-3.3-3-5-6.9-5-11.4s1.7-8.4 5-11.3c3.2-2.8 7.3-4.3 12-4.3h12.9c.6 0 1.2.2 1.6.7.4.4.7 1 .7 1.6V117h19V57.2h-41.4zm52.9 0v78.6h19V73.7c0-.6.2-1.2.6-1.6s1-.7 1.6-.7h12.1c5 0 9.5 1.7 13 5.1 3.3 3.1 5.1 7 5.1 11.3 0 4.4-2 8.3-5.5 11-3.5 2.7-7.8 4-12.6 4h-4.5V117h12.7c8.8 0 16-2.8 22.1-8.6 6.1-5.7 9-12.5 9-20.7 0-8.6-2.9-15.6-9-21.6-6.1-6-13.1-8.9-21.6-8.9h-42zm81.8 0v78.6h19V73.7c0-.6.2-1.2.6-1.6.4-.4 1-.7 1.6-.7h12.1c5 0 9.5 1.7 13 5.1 3.3 3.1 5.1 7 5.1 11.3 0 4.4-2 8.3-5.5 11-3.5 2.7-7.8 4-12.6 4h-4.5V117h12.7c8.8 0 16-2.8 22.1-8.6 6.1-5.7 9-12.5 9-20.7 0-8.6-2.9-15.6-9-21.6-6.1-6-13.1-8.9-21.6-8.9h-42zm146.9 0c-10 0-18.5 3-25.8 9.2-7.4 6.2-10.8 12.8-10.8 20.4 0 9.2 3.5 16.3 10.9 22.1 7 5.4 15.4 8.1 25.6 8.1h37.4v-14.2h-35.5c-4.6 0-8.8-1.6-12.1-4.6-3.3-3-5.1-7.1-5.1-11.6 0-4.3 1.7-8.2 4.9-11 3.2-2.8 7.4-4.2 12.3-4.2h12.1c.9 0 1.6.5 2 1.3.4.8.3 1.7-.3 2.4l-13.7 17.7h20.9l14.5-19.9V57.2h-37.3z"/></svg>