<?xml version="1.0" encoding="utf-8"?>
<!-- Generator: Adobe Illustrator 18.0.0, SVG Export Plug-In . SVG Version: 6.00 Build 0)  -->
<!DOCTYPE svg PUBLIC "-//W3C//DTD SVG 1.1//EN" "http://www.w3.org/Graphics/SVG/1.1/DTD/svg11.dtd">
<svg version="1.1" id="Ebene_1" xmlns="http://www.w3.org/2000/svg" xmlns:xlink="http://www.w3.org/1999/xlink" x="0px" y="0px"
	 viewBox="0 0 566.9 124.2" enable-background="new 0 0 566.9 124.2" xml:space="preserve">
<g id="underneath_1_">
</g>
<g id="BOTTOM_LEFT_LINE">
</g>
<g>
	<g>
		<g id="Layer_6">
			<line fill="none" x1="29.2" y1="99.1" x2="28.1" y2="98.3"/>
		</g>
		<g id="_x33_D_PART">
			
				<linearGradient id="SVGID_1_" gradientUnits="userSpaceOnUse" x1="24.4146" y1="-438.8721" x2="104.7434" y2="-425.5092" gradientTransform="matrix(1 0 0 -1 -4.900000e-003 -347.4258)">
				<stop  offset="3.680000e-002" style="stop-color:#FFFFFF"/>
				<stop  offset="0.8957" style="stop-color:#898CBF"/>
			</linearGradient>
			<polygon fill="url(#SVGID_1_)" points="89.5,62.4 89.5,82.6 53.7,103.2 18.2,82.6 16.6,83.7 53.7,105.4 91.1,83.8 91.1,61.5 			
				"/>
		</g>
		<g id="black_line_thing">
			<polygon fill="#7A7EAE" points="89.5,82.5 91.1,83.7 91.1,83.8 91,83.9 89.3,82.7 89.5,82.6 			"/>
		</g>
		<g id="dark_purple_top_line">
			
				<linearGradient id="SVGID_2_" gradientUnits="userSpaceOnUse" x1="28.4609" y1="723.1633" x2="54.0489" y2="723.1633" gradientTransform="matrix(1 0 0 1 -4.490000e-002 -668.0103)">
				<stop  offset="0" style="stop-color:#6E70A9"/>
				<stop  offset="0.9693" style="stop-color:#514A8E"/>
			</linearGradient>
			<polygon fill="url(#SVGID_2_)" points="54,62.2 28.8,47.5 28.4,47.9 53.7,62.9 			"/>
			
				<linearGradient id="SVGID_3_" gradientUnits="userSpaceOnUse" x1="53.8574" y1="730.3193" x2="54.185" y2="730.3193" gradientTransform="matrix(1 0 0 1 -4.490000e-002 -668.0103)">
				<stop  offset="0" style="stop-color:#6E70A9"/>
				<stop  offset="0.9693" style="stop-color:#514A8E"/>
			</linearGradient>
			<polygon fill="url(#SVGID_3_)" points="53.9,62.2 54.1,62.2 54.1,62.4 53.8,62.4 			"/>
		</g>
		<g id="top_black_line">
			<polygon fill="#120F22" points="54,62.9 54,62.2 107.6,31.2 107.8,31.6 			"/>
		</g>
		<g id="LOGO_DARK_LINES">
			<polygon fill="#453D76" points="54,124.2 54.4,105.7 91.6,84.3 91.7,61.3 91.1,61.3 91.1,83.8 53.7,105.4 53.6,124.2 			"/>
		</g>
		<g id="LOGO">
			
				<linearGradient id="SVGID_4_" gradientUnits="userSpaceOnUse" x1="64.0845" y1="-414.326" x2="108.7263" y2="-443.6315" gradientTransform="matrix(1 0 0 -1 -4.900000e-003 -347.4258)">
				<stop  offset="0" style="stop-color:#4C5284"/>
				<stop  offset="1" style="stop-color:#8789BC"/>
			</linearGradient>
			<polygon fill="url(#SVGID_4_)" points="54,91.2 54,62.9 107.8,31.6 107.8,93.2 54,124.2 54,105.6 91.4,84.1 91.4,61.3 78.8,68.6 
				78.8,76.6 			"/>
		</g>
		<g id="BOTTOM_LAIN_LEFT_LIGHT_LINE">
			
				<linearGradient id="SVGID_5_" gradientUnits="userSpaceOnUse" x1="53.4638" y1="-470.9988" x2="53.1528" y2="-451.0955" gradientTransform="matrix(1 0 0 -1 -4.900000e-003 -347.4258)">
				<stop  offset="0.1104" style="stop-color:#4C407E"/>
				<stop  offset="0.8896" style="stop-color:#666699"/>
				<stop  offset="1" style="stop-color:#A7B3D9"/>
				<stop  offset="1" style="stop-color:#9BA5CD"/>
			</linearGradient>
			<polyline fill="url(#SVGID_5_)" points="53.4,124.2 53.7,124.2 53.7,105.4 52.6,104.8 53.4,124.2 			"/>
		</g>
		<g id="underneath">
			<polyline fill="#2D2868" points="16.5,40.7 16.8,40.9 16.9,83.5 16.6,83.7 16.5,83.6 16.5,40.7 			"/>
		</g>
		<g id="LEFT_3D_PURPLE_SHADOW">
			<polygon fill="#453D76" points="18.2,82.6 16.6,83.7 16.6,40.8 54,19.2 54,21.3 18.3,42 			"/>
		</g>
		<g id="MAIN_DARK_PURPLE_LINE">
			<polygon fill="#453D76" points="54,62.1 54,91.2 53.7,91.4 53.7,62.9 53.7,62 			"/>
		</g>
		<g id="logo_LEFT_side">
			
				<linearGradient id="SVGID_6_" gradientUnits="userSpaceOnUse" x1="4.8236" y1="-427.1322" x2="66.0258" y2="-410.123" gradientTransform="matrix(1 0 0 -1 -4.900000e-003 -347.4258)">
				<stop  offset="0.2331" style="stop-color:#666699"/>
				<stop  offset="0.7239" style="stop-color:#A7B3D9"/>
			</linearGradient>
			<polygon fill="url(#SVGID_6_)" points="28.4,47.9 28.4,76.8 53.7,91.4 53.7,62.9 			"/>
			
				<linearGradient id="SVGID_7_" gradientUnits="userSpaceOnUse" x1="5.8822" y1="-430.9311" x2="67.0801" y2="-413.9232" gradientTransform="matrix(1 0 0 -1 -4.900000e-003 -347.4258)">
				<stop  offset="0.2331" style="stop-color:#666699"/>
				<stop  offset="0.9907" style="stop-color:#A7B3D9"/>
			</linearGradient>
			<polygon fill="url(#SVGID_7_)" points="53.4,123.9 53.4,105.3 16.6,83.7 16.6,41 0,31.2 0,93.3 53.4,124.2 			"/>
		</g>
		<g id="left_purple_line">
			<rect x="16.3" y="40.8" fill="#2D2868" width="0.3" height="42.9"/>
			<polygon fill="#2D2868" points="16.6,40.8 0.2,31 0,31.2 16.5,40.9 			"/>
		</g>
		<g id="BOTTOM_PURPLE_LINE">
			
				<linearGradient id="SVGID_8_" gradientUnits="userSpaceOnUse" x1="19.586" y1="-433.8141" x2="43.9209" y2="-446.8357" gradientTransform="matrix(1 0 0 -1 -4.900000e-003 -347.4258)">
				<stop  offset="0" style="stop-color:#6E70A9"/>
				<stop  offset="0.9693" style="stop-color:#514A8E"/>
			</linearGradient>
			<polygon fill="url(#SVGID_8_)" points="53.4,105.3 53.4,105.6 16.3,84 16.3,83.7 16.6,83.7 			"/>
		</g>
		<g id="top_middle_light_line">
			
				<linearGradient id="SVGID_9_" gradientUnits="userSpaceOnUse" x1="55.7345" y1="-369.655" x2="71.1849" y2="-377.1714" gradientTransform="matrix(1 0 0 -1 -4.900000e-003 -347.4258)">
				<stop  offset="3.680000e-002" style="stop-color:#9EA5D3"/>
				<stop  offset="0.9018" style="stop-color:#7675AE"/>
			</linearGradient>
			<polygon fill="url(#SVGID_9_)" points="54,19.2 77.9,33.1 77.9,35.2 54,21.3 			"/>
		</g>
		<g id="top_right">
			<polygon fill="#484592" points="77.9,33.1 77.9,35.2 94.5,25.5 94.5,23.6 			"/>
		</g>
		<g id="MAIN_TOP">
			<path fill="none" d="M0,31.2"/>
			
				<linearGradient id="SVGID_10_" gradientUnits="userSpaceOnUse" x1="0.2189" y1="-378.4178" x2="0.2189" y2="-378.4178" gradientTransform="matrix(1 0 0 -1 -4.900000e-003 -347.4258)">
				<stop  offset="0.2331" style="stop-color:#666699"/>
				<stop  offset="0.9907" style="stop-color:#A7B3D9"/>
			</linearGradient>
			<path fill="url(#SVGID_10_)" d="M0.2,31"/>
			
				<linearGradient id="SVGID_11_" gradientUnits="userSpaceOnUse" x1="49.3864" y1="-351.9471" x2="45.7419" y2="-392.4421" gradientTransform="matrix(1 0 0 -1 -4.900000e-003 -347.4258)">
				<stop  offset="0" style="stop-color:#AAACD2"/>
				<stop  offset="0.6258" style="stop-color:#FCFAFB"/>
			</linearGradient>
			<polygon fill="url(#SVGID_11_)" points="53.8,0 94.5,23.6 77.9,33.1 54,19.2 16.6,40.8 0.2,31 			"/>
			
				<linearGradient id="SVGID_12_" gradientUnits="userSpaceOnUse" x1="71.7796" y1="-347.2654" x2="68.135" y2="-387.7612" gradientTransform="matrix(1 0 0 -1 -4.900000e-003 -347.4258)">
				<stop  offset="0.6743" style="stop-color:#AAACD2"/>
				<stop  offset="1" style="stop-color:#FCFAFB"/>
			</linearGradient>
			<polygon fill="url(#SVGID_12_)" points="28.8,47.5 53.7,33.4 77.4,46.8 106.2,30.2 107.6,31.2 54,62.2 			"/>
		</g>
	</g>
	<g>
		<path id="path23497" fill="#7b7d7f" d="M373.5,21.2v-4.9h-14.1c-1.8,0-3.5,0.4-5.1,1.1c-1.5,0.7-2.7,1.7-3.6,2.9
			c-0.9,1.2-1.3,2.5-1.4,4v15.3c0.1,1.4,0.5,2.7,1.3,3.9c0.9,1.2,2.1,2.1,3.5,2.9c1.5,0.7,3.1,1.1,5.1,1.1h14.3v-4.9h-13.7
			c-1.1,0-2.1-0.3-3-0.9c-0.8-0.6-1.3-1.3-1.3-2.3v-5.7h18.1v-5.1h-18.1v-4.1c0-1,0.5-1.8,1.3-2.4c0.9-0.6,1.9-0.9,3-0.9L373.5,21.2
			"/>
		<path id="path23501" fill="#7b7d7f" d="M458,16.2v31.3h15.1c1.9-0.1,3.6-0.4,5.1-1.1c1.6-0.8,2.8-1.7,3.7-2.9
			c0.9-1.2,1.3-2.6,1.4-4.1V24.3c-0.1-1.5-0.5-2.8-1.4-4c-0.9-1.2-2.1-2.2-3.7-2.9c-1.5-0.7-3.2-1.1-5.1-1.1L458,16.2L458,16.2z
			 M475.8,22.1c0.9,0.6,1.3,1.4,1.4,2.4v14.8c-0.1,1-0.5,1.8-1.4,2.4c-0.8,0.7-1.8,1-2.9,1h-8.8V21h8.8C474,21,475,21.3,475.8,22.1"
			/>
		<path id="path23503" fill="#7b7d7f" d="M532,17.3c-1.5-0.7-3.2-1-5.1-1.1h-5.5c-1.9,0.1-3.6,0.4-5.1,1.1c-1.6,0.8-2.8,1.7-3.7,2.9
			c-0.9,1.2-1.4,2.6-1.4,4.1v15.4c0,1.5,0.5,2.8,1.4,4c0.9,1.2,2.1,2.2,3.7,2.9c1.5,0.7,3.2,1.1,5.1,1.1h5.5c1.9,0,3.6-0.4,5.1-1.1
			c1.6-0.7,2.8-1.7,3.7-2.9c0.9-1.2,1.4-2.6,1.4-4V24.2c-0.1-1.5-0.5-2.9-1.4-4.1C534.7,19,533.5,18.1,532,17.3z M529.6,22
			c0.9,0.7,1.4,1.5,1.4,2.4v15.1c0,0.9-0.5,1.7-1.4,2.4c-0.8,0.6-1.8,1-2.9,1h-5.1c-1.1,0-2.1-0.4-3-1c-0.8-0.7-1.3-1.5-1.3-2.4
			V24.3c0-0.9,0.5-1.7,1.3-2.4c0.9-0.6,1.9-0.9,3-1h5.1C527.8,21.1,528.8,21.4,529.6,22"/>
		<path id="path23515" fill="#7b7d7f" d="M169.3,16.2h-6.2v20l-10.5-20h-8.4v31.3h6.2V23.1l12.8,24.4h6.1L169.3,16.2"/>
		<path id="path23515_1_" fill="#7b7d7f" d="M269.7,16.2h-6.2v20l-10.5-20h-8.4v31.3h6.2V23.1l12.8,24.4h6.1V16.2"/>
		<path id="path23515_2_" fill="#7b7d7f" d="M428.3,16.2h-6.2v20l-10.5-20h-8.4v31.3h6.2V23.1l12.8,24.4h6.1V16.2"/>
		<path id="path23517" fill="#7b7d7f" d="M210.5,47.5V16.2h-7.1v31.3H210.5L210.5,47.5"/>
		<path id="path23521" fill="#7b7d7f" d="M296.9,16.2v4.9h10.4v26.4h6.7V21.2h10.5v-4.9L296.9,16.2L296.9,16.2"/>
	</g>
	<g>
		<path id="path23505" fill="#7b7d7f" d="M543.9,69v-8.5h-42.7v40.2h43.1v-9.1h-31.9v-7.6h18.3v-8.5h-18.3V69H543.9L543.9,69"/>
		<path id="path23507" fill="#7b7d7f" d="M496.4,68.8c0.1-2.8-0.7-5-2.4-6.3c-1.6-1.4-4.1-2.1-7.5-2.1h-35.1v40.3H484
			c8.6-0.1,12.7-2.9,12.7-8.6v-4.9c0-3.4-1.5-5.9-4.6-7.3c2.8-1.3,4.2-3.5,4.2-6.6L496.4,68.8L496.4,68.8z M485.5,69
			c0.4,0.4,0.6,0.8,0.5,1.4V74c0.1,0.5-0.1,1-0.5,1.3l-2.8,0.5h-20.1v-7.3h20.1C484.2,68.6,485.2,68.8,485.5,69L485.5,69z
			 M462.6,91.9V84h20.2c1.5,0,2.4,0.2,2.9,0.5c0.4,0.4,0.6,1,0.6,2v2.9c0,0.9-0.2,1.6-0.6,1.9c-0.5,0.4-1.4,0.6-2.9,0.6H462.6"/>
		<path id="path23509" fill="#7b7d7f" d="M446.6,60.5h-11.3v31.2H411V60.5h-11.2v30.3c-0.1,2.5,0.3,4.5,1,6c0.6,1.4,1.8,2.5,3.4,3.1
			c1.6,0.7,3.7,1,6.5,0.9h25.1c2.8,0.1,5-0.2,6.6-0.9c1.6-0.6,2.7-1.7,3.4-3.1c0.7-1.5,1-3.5,1-6L446.6,60.5"/>
		<path id="path23511" fill="#7b7d7f" d="M394.1,64.6c-0.7-1.5-1.9-2.5-3.4-3.2c-1.6-0.6-3.8-0.9-6.5-0.9h-24.6
			c-2.8,0-4.9,0.3-6.5,0.9c-1.6,0.7-2.8,1.7-3.4,3.2c-0.7,1.5-1.1,3.5-1,6v20.2c-0.1,2.5,0.3,4.5,1,6c0.6,1.4,1.8,2.5,3.4,3.1
			c1.6,0.7,3.7,1,6.5,0.9h24.6c2.7,0.1,4.9-0.2,6.5-0.9c1.5-0.6,2.7-1.7,3.4-3.1c0.6-1.5,1-3.5,1-6v-7.4l-11.3,0.1v8.2h-23.9V69.4
			h23.9v7.2h11.3v-6C395.1,68,394.7,66,394.1,64.6"/>
		<path id="path23513" fill="#7b7d7f" d="M340.5,69v-8.5h-42.7v40.2h43.1v-9.1H309v-7.6h18.3v-8.5H309V69H340.5L340.5,69"/>
		<path id="path23523" fill="#7b7d7f" d="M282.4,60.5l-17.1,28.5l-17-28.5H238v33.2l-20-33.2h-10.1l-24,40.2H214v-9.1h-13.4l12.4-20
			l16.8,29.1h18.5V79.2l12.8,21.5h8.3l12.9-21.5v21.5h10.4V60.5L282.4,60.5L282.4,60.5"/>
		<path id="path23525" fill="#7b7d7f" d="M184.8,69.3v-8.8h-37.9c-2.7,0-4.9,0.3-6.5,0.9c-1.6,0.7-2.7,1.7-3.4,3.2
			c-0.7,1.5-1,3.5-1,6v20.2c0,2.5,0.3,4.5,1,6c0.7,1.4,1.8,2.5,3.4,3.1c1.6,0.7,3.8,1,6.5,0.9h27.6c4,0.1,6.8-0.6,8.5-2.1
			c1.6-1.6,2.4-4.2,2.3-7.9V76.6h-26.1V85h15.1v6.7h-27V69.3H184.8"/>
	</g>
	<g>
		<path id="path23527" fill="#7b7d7f" d="M566.9,92h-1.7l-2,6.4c-0.3,0.5-0.5,1-0.5,1.4c-0.2-0.3-0.3-0.7-0.5-1.2L560,92h-1.7v9.2h1
			v-7.8l2.7,7.8h1l2.7-7.6v7.6h1.2V92"/>
		<path id="path23529" fill="#7b7d7f" d="M554,93.2h2.9V92h-7.1v1.2h3.1v8h1.2L554,93.2"/>
	</g>
</g>
</svg>
