<svg xmlns="http://www.w3.org/2000/svg" viewBox="0 0 566.9 124.2" xml:space="preserve"><path fill="none" d="m29.2 99.1-1.1-.8"/><linearGradient id="a" gradientUnits="userSpaceOnUse" x1="24.415" y1="-438.872" x2="104.743" y2="-425.509" gradientTransform="matrix(1 0 0 -1 -.005 -347.426)"><stop offset=".037" style="stop-color:#fff"/><stop offset=".896" style="stop-color:#898cbf"/></linearGradient><path fill="url(#a)" d="M89.5 62.4v20.2l-35.8 20.6-35.5-20.6-1.6 1.1 37.1 21.7 37.4-21.6V61.5z"/><path fill="#7A7EAE" d="m89.5 82.5 1.6 1.2v.1l-.1.1-1.7-1.2.2-.1z"/><linearGradient id="b" gradientUnits="userSpaceOnUse" x1="28.461" y1="723.163" x2="54.049" y2="723.163" gradientTransform="translate(-.045 -668.01)"><stop offset="0" style="stop-color:#6e70a9"/><stop offset=".969" style="stop-color:#514a8e"/></linearGradient><path fill="url(#b)" d="M54 62.2 28.8 47.5l-.4.4 25.3 15z"/><linearGradient id="c" gradientUnits="userSpaceOnUse" x1="53.857" y1="730.319" x2="54.185" y2="730.319" gradientTransform="translate(-.045 -668.01)"><stop offset="0" style="stop-color:#6e70a9"/><stop offset=".969" style="stop-color:#514a8e"/></linearGradient><path fill="url(#c)" d="M53.9 62.2h.2v.2h-.3z"/><path fill="#120F22" d="M54 62.9v-.7l53.6-31 .2.4z"/><path fill="#453D76" d="m54 124.2.4-18.5 37.2-21.4.1-23h-.6v22.5l-37.4 21.6-.1 18.8z"/><linearGradient id="d" gradientUnits="userSpaceOnUse" x1="64.085" y1="-414.326" x2="108.726" y2="-443.632" gradientTransform="matrix(1 0 0 -1 -.005 -347.426)"><stop offset="0" style="stop-color:#4c5284"/><stop offset="1" style="stop-color:#8789bc"/></linearGradient><path fill="url(#d)" d="M54 91.2V62.9l53.8-31.3v61.6l-53.8 31v-18.6l37.4-21.5V61.3l-12.6 7.3v8z"/><linearGradient id="e" gradientUnits="userSpaceOnUse" x1="53.464" y1="-470.999" x2="53.153" y2="-451.096" gradientTransform="matrix(1 0 0 -1 -.005 -347.426)"><stop offset=".11" style="stop-color:#4c407e"/><stop offset=".89" style="stop-color:#669"/><stop offset="1" style="stop-color:#a7b3d9"/><stop offset="1" style="stop-color:#9ba5cd"/></linearGradient><path fill="url(#e)" d="M53.4 124.2h.3v-18.8l-1.1-.6.8 19.4"/><path fill="#2D2868" d="m16.5 40.7.3.2.1 42.6-.3.2-.1-.1V40.7"/><path fill="#453D76" d="m18.2 82.6-1.6 1.1V40.8L54 19.2v2.1L18.3 42zM54 62.1v29.1l-.3.2V62z"/><linearGradient id="f" gradientUnits="userSpaceOnUse" x1="4.824" y1="-427.132" x2="66.026" y2="-410.123" gradientTransform="matrix(1 0 0 -1 -.005 -347.426)"><stop offset=".233" style="stop-color:#669"/><stop offset=".724" style="stop-color:#a7b3d9"/></linearGradient><path fill="url(#f)" d="M28.4 47.9v28.9l25.3 14.6V62.9z"/><linearGradient id="g" gradientUnits="userSpaceOnUse" x1="5.882" y1="-430.931" x2="67.08" y2="-413.923" gradientTransform="matrix(1 0 0 -1 -.005 -347.426)"><stop offset=".233" style="stop-color:#669"/><stop offset=".991" style="stop-color:#a7b3d9"/></linearGradient><path fill="url(#g)" d="M53.4 123.9v-18.6L16.6 83.7V41L0 31.2v62.1l53.4 30.9z"/><g fill="#2D2868"><path d="M16.3 40.8h.3v42.9h-.3z"/><path d="M16.6 40.8.2 31l-.2.2 16.5 9.7z"/></g><linearGradient id="h" gradientUnits="userSpaceOnUse" x1="19.586" y1="-433.814" x2="43.921" y2="-446.836" gradientTransform="matrix(1 0 0 -1 -.005 -347.426)"><stop offset="0" style="stop-color:#6e70a9"/><stop offset=".969" style="stop-color:#514a8e"/></linearGradient><path fill="url(#h)" d="M53.4 105.3v.3L16.3 84v-.3h.3z"/><linearGradient id="i" gradientUnits="userSpaceOnUse" x1="55.734" y1="-369.655" x2="71.185" y2="-377.171" gradientTransform="matrix(1 0 0 -1 -.005 -347.426)"><stop offset=".037" style="stop-color:#9ea5d3"/><stop offset=".902" style="stop-color:#7675ae"/></linearGradient><path fill="url(#i)" d="m54 19.2 23.9 13.9v2.1L54 21.3z"/><path fill="#484592" d="M77.9 33.1v2.1l16.6-9.7v-1.9z"/><linearGradient id="j" gradientUnits="userSpaceOnUse" x1=".219" y1="-378.418" x2=".219" y2="-378.418" gradientTransform="matrix(1 0 0 -1 -.005 -347.426)"><stop offset=".233" style="stop-color:#669"/><stop offset=".991" style="stop-color:#a7b3d9"/></linearGradient><linearGradient id="k" gradientUnits="userSpaceOnUse" x1="49.386" y1="-351.947" x2="45.742" y2="-392.442" gradientTransform="matrix(1 0 0 -1 -.005 -347.426)"><stop offset="0" style="stop-color:#aaacd2"/><stop offset=".626" style="stop-color:#fcfafb"/></linearGradient><path fill="url(#k)" d="m53.8 0 40.7 23.6-16.6 9.5L54 19.2 16.6 40.8.2 31z"/><linearGradient id="l" gradientUnits="userSpaceOnUse" x1="71.78" y1="-347.265" x2="68.135" y2="-387.761" gradientTransform="matrix(1 0 0 -1 -.005 -347.426)"><stop offset=".674" style="stop-color:#aaacd2"/><stop offset="1" style="stop-color:#fcfafb"/></linearGradient><path fill="url(#l)" d="m28.8 47.5 24.9-14.1 23.7 13.4 28.8-16.6 1.4 1-53.6 31z"/><g fill="#c3c6c5"><path d="M373.5 21.2v-4.9h-14.1c-1.8 0-3.5.4-5.1 1.1-1.5.7-2.7 1.7-3.6 2.9-.9 1.2-1.3 2.5-1.4 4v15.3c.1 1.4.5 2.7 1.3 3.9.9 1.2 2.1 2.1 3.5 2.9 1.5.7 3.1 1.1 5.1 1.1h14.3v-4.9h-13.7c-1.1 0-2.1-.3-3-.9-.8-.6-1.3-1.3-1.3-2.3v-5.7h18.1v-5.1h-18.1v-4.1c0-1 .5-1.8 1.3-2.4.9-.6 1.9-.9 3-.9h13.7M458 16.2v31.3h15.1c1.9-.1 3.6-.4 5.1-1.1 1.6-.8 2.8-1.7 3.7-2.9.9-1.2 1.3-2.6 1.4-4.1V24.3c-.1-1.5-.5-2.8-1.4-4-.9-1.2-2.1-2.2-3.7-2.9-1.5-.7-3.2-1.1-5.1-1.1l-15.1-.1zm17.8 5.9c.9.6 1.3 1.4 1.4 2.4v14.8c-.1 1-.5 1.8-1.4 2.4-.8.7-1.8 1-2.9 1h-8.8V21h8.8c1.1 0 2.1.3 2.9 1.1M532 17.3c-1.5-.7-3.2-1-5.1-1.1h-5.5c-1.9.1-3.6.4-5.1 1.1-1.6.8-2.8 1.7-3.7 2.9-.9 1.2-1.4 2.6-1.4 4.1v15.4c0 1.5.5 2.8 1.4 4 .9 1.2 2.1 2.2 3.7 2.9 1.5.7 3.2 1.1 5.1 1.1h5.5c1.9 0 3.6-.4 5.1-1.1 1.6-.7 2.8-1.7 3.7-2.9.9-1.2 1.4-2.6 1.4-4V24.2c-.1-1.5-.5-2.9-1.4-4.1-1-1.1-2.2-2-3.7-2.8zm-2.4 4.7c.9.7 1.4 1.5 1.4 2.4v15.1c0 .9-.5 1.7-1.4 2.4-.8.6-1.8 1-2.9 1h-5.1c-1.1 0-2.1-.4-3-1-.8-.7-1.3-1.5-1.3-2.4V24.3c0-.9.5-1.7 1.3-2.4.9-.6 1.9-.9 3-1h5.1c1.1.2 2.1.5 2.9 1.1M169.3 16.2h-6.2v20l-10.5-20h-8.4v31.3h6.2V23.1l12.8 24.4h6.1V16.2M269.7 16.2h-6.2v20l-10.5-20h-8.4v31.3h6.2V23.1l12.8 24.4h6.1V16.2M428.3 16.2h-6.2v20l-10.5-20h-8.4v31.3h6.2V23.1l12.8 24.4h6.1V16.2M210.5 47.5V16.2h-7.1v31.3h7.1M296.9 16.2v4.9h10.4v26.4h6.7V21.2h10.5v-4.9l-27.6-.1"/></g><g fill="#c3c6c5"><path d="M543.9 69v-8.5h-42.7v40.2h43.1v-9.1h-31.9V84h18.3v-8.5h-18.3V69h31.5M496.4 68.8c.1-2.8-.7-5-2.4-6.3-1.6-1.4-4.1-2.1-7.5-2.1h-35.1v40.3H484c8.6-.1 12.7-2.9 12.7-8.6v-4.9c0-3.4-1.5-5.9-4.6-7.3 2.8-1.3 4.2-3.5 4.2-6.6l.1-4.5zm-10.9.2c.4.4.6.8.5 1.4V74c.1.5-.1 1-.5 1.3l-2.8.5h-20.1v-7.3h20.1c1.5.1 2.5.3 2.8.5zm-22.9 22.9V84h20.2c1.5 0 2.4.2 2.9.5.4.4.6 1 .6 2v2.9c0 .9-.2 1.6-.6 1.9-.5.4-1.4.6-2.9.6h-20.2M446.6 60.5h-11.3v31.2H411V60.5h-11.2v30.3c-.1 2.5.3 4.5 1 6 .6 1.4 1.8 2.5 3.4 3.1 1.6.7 3.7 1 6.5.9h25.1c2.8.1 5-.2 6.6-.9 1.6-.6 2.7-1.7 3.4-3.1.7-1.5 1-3.5 1-6l-.2-30.3M394.1 64.6c-.7-1.5-1.9-2.5-3.4-3.2-1.6-.6-3.8-.9-6.5-.9h-24.6c-2.8 0-4.9.3-6.5.9-1.6.7-2.8 1.7-3.4 3.2-.7 1.5-1.1 3.5-1 6v20.2c-.1 2.5.3 4.5 1 6 .6 1.4 1.8 2.5 3.4 3.1 1.6.7 3.7 1 6.5.9h24.6c2.7.1 4.9-.2 6.5-.9 1.5-.6 2.7-1.7 3.4-3.1.6-1.5 1-3.5 1-6v-7.4l-11.3.1v8.2h-23.9V69.4h23.9v7.2h11.3v-6c0-2.6-.4-4.6-1-6M340.5 69v-8.5h-42.7v40.2h43.1v-9.1H309V84h18.3v-8.5H309V69h31.5M282.4 60.5 265.3 89l-17-28.5H238v33.2l-20-33.2h-10.1l-24 40.2H214v-9.1h-13.4l12.4-20 16.8 29.1h18.5V79.2l12.8 21.5h8.3l12.9-21.5v21.5h10.4V60.5h-10.3M184.8 69.3v-8.8h-37.9c-2.7 0-4.9.3-6.5.9-1.6.7-2.7 1.7-3.4 3.2-.7 1.5-1 3.5-1 6v20.2c0 2.5.3 4.5 1 6 .7 1.4 1.8 2.5 3.4 3.1 1.6.7 3.8 1 6.5.9h27.6c4 .1 6.8-.6 8.5-2.1 1.6-1.6 2.4-4.2 2.3-7.9V76.6h-26.1V85h15.1v6.7h-27V69.3h37.5"/></g><g fill="#c3c6c5"><path d="M566.9 92h-1.7l-2 6.4c-.3.5-.5 1-.5 1.4-.2-.3-.3-.7-.5-1.2L560 92h-1.7v9.2h1v-7.8l2.7 7.8h1l2.7-7.6v7.6h1.2V92M554 93.2h2.9V92h-7.1v1.2h3.1v8h1.2l-.1-8"/></g></svg>