<svg xmlns="http://www.w3.org/2000/svg" viewBox="0 0 566.9 97.9" xml:space="preserve"><path fill="#c3c6c5" d="M90.9 60 57.7 40.1h14.8c9.9 0 18-8 18-18v-4c0-9.9-8-18-18-18H0V60h11.6V10.6h59.3c4.8 0 8.6 3.9 8.6 8.6v1.9c0 4.8-3.9 8.6-8.6 8.6H20.4L70.9 60h20z"/><path d="M11.6 10.6h59.3M72.5.2H0"/><path fill="#c3c6c5" d="m198 10.6 38.8-.1V.2h-93.4v59.9h93.4V49.8h-81.9V10.6zM446.5.2v59.9h93.4V49.8H458V.2z"/><path fill="#c3c6c5" d="M162.7 25h58.7v10.3h-58.7zM340.7 0l-63.1 59.8h15L341 14l23 20.5h-32.7l-10.9 10.3h55.3l16.8 15h15.6z"/><path fill="#F01B20" d="M109.4 19.4h19v19h-19z"/><path fill="#23B14D" d="M255.7 19.4h19v19h-19z"/><path fill="#2993C3" d="M405.9 19.4h19v19h-19z"/><path fill="#c3c6c5" d="M0 70.8h539.9v3.8H0z"/><g fill="#c3c6c5"><path d="M321.3 82.5h7.1l5.3 9.8 5.3-9.8h7.1v15.2h-4.5V86.8l-6.1 10.9H332l-6.1-10.9v10.9h-4.5V82.5zM350.1 82.5h4.6v8.8c0 1.9.7 2.7 2.6 2.7h4.6c1.9 0 2.6-.8 2.6-2.7v-8.8h4.6v9.8c0 3.8-1.9 5.6-6.2 5.6h-6.7c-4.3 0-6.2-1.8-6.2-5.6l.1-9.8zM373.1 82.5h4.6v11.3h10.4v3.9H373l.1-15.2zM387.6 82.5h17.7v3.8h-6.5v11.4h-4.6V86.3h-6.5l-.1-3.8zM408.4 82.5h4.6v15.2h-4.6V82.5zM417.3 82.5H430c4.4 0 5.5 2.2 5.5 5.2V89c0 2.3-1 4.9-4.3 4.9H422v3.8h-4.6l-.1-15.2zm4.7 7.6h7.2c1.1 0 1.5-.7 1.5-1.6v-.6c0-1-.5-1.6-1.9-1.6H422v3.8zM438.8 82.5h4.6v11.3h10.4v3.9h-15.1l.1-15.2zM463.4 82.5h6.1l8.3 15.2h-5.2l-1.4-2.7h-9.4l-1.4 2.7h-5.2l8.2-15.2zm.1 9.2h5.9l-3-5.7-2.9 5.7zM484.6 92.4l-8.4-9.9h5.6l5.1 6.2 5.1-6.2h5.6l-8.4 9.9v5.3h-4.6v-5.3zM500.2 82.5h16.6V86h-11.9v2.4h11.3v3.1h-11.3V94H517v3.6h-16.9l.1-15.1zM520.7 82.5h14c3.6 0 4.5 1.8 4.5 4.5v1c0 2-.5 3.2-2.6 3.7 1.4.3 2.5.9 2.5 3.3v2.6h-4.6v-1.8c0-1.6-.5-2.1-1.9-2.1h-7.3v3.9h-4.6V82.5zm4.6 7.5h7.7c1.3 0 1.7-.5 1.7-1.6v-.5c0-1.3-.7-1.6-2.1-1.6h-7.3V90z"/></g><g fill="#c3c6c5"><path d="M91 82.5h4.6v15.2H91V82.5zM99.8 82.5h7.2l8.7 11v-11h4.6v15.2h-7.2l-8.7-11v11h-4.6V82.5zM123.3 82.5H141v3.8h-6.5v11.4h-4.6V86.3h-6.5l-.1-3.8zM143.9 82.5h16.6V86h-11.9v2.4h11.3v3.1h-11.3V94h12.2v3.6h-16.9V82.5zM164.4 82.5h14c3.6 0 4.5 1.8 4.5 4.5v1c0 2-.5 3.2-2.6 3.7 1.4.3 2.5.9 2.5 3.3v2.6h-4.6v-1.8c0-1.6-.5-2.1-1.9-2.1H169v3.9h-4.6V82.5zm4.7 7.5h7.7c1.3 0 1.7-.5 1.7-1.6v-.5c0-1.3-.7-1.6-2.1-1.6h-7.3V90zM193.7 82.5h6.1l8.3 15.2h-5.2l-1.4-2.7H192l-1.4 2.7h-5.2l8.3-15.2zm.1 9.2h5.9l-3-5.7-2.9 5.7zM210.2 87.8c0-4.4 2.5-5.5 6.7-5.5h5.5c6.6 0 7.5 1.4 7.4 5.7h-4.6v-.4c0-1.1-.8-1.4-2.2-1.4h-5.1c-2.4 0-2.9 1.2-2.9 3v1.6c0 2.2.5 3 2.7 3h5c2.1 0 2.7-.2 2.7-2.1h4.6v1.4c0 2.6-.9 4.6-5.6 4.6h-7.5c-4.2 0-6.7-1-6.7-5.5v-4.4zM232.5 82.5h17.7v3.8h-6.5v11.4H239V86.3h-6.5v-3.8zM253.3 82.5h4.6v15.2h-4.6V82.5zM260.8 82.5h5.1l5.9 11.3 5.9-11.3h5.1l-8.1 15.2H269l-8.2-15.2zM285.3 82.5h16.6V86H290v2.4h11.3v3.1H290V94h12.2v3.6h-16.9V82.5z"/></g><g fill="#c3c6c5"><path d="M0 92.3h4.4v.7c0 1.3.4 1.6 2 1.6H12c1.4 0 1.6-.4 1.6-1.4 0-1-.3-1.5-1.7-1.5H7.1v-3.1h4.3c1.5 0 1.8-.4 1.8-1.5 0-1.2-.7-1.5-2.1-1.5H6.5c-1.5 0-2 .3-2 1.4v.6H.2v-.8c0-4.1 2-4.5 7.7-4.5H11c5.4 0 6.7.8 6.7 4.2 0 2.6-.4 2.9-2.5 3.5v.1c2.4.4 2.8 1.2 2.8 3.6 0 3-1 4.1-5.3 4.1H5c-2.7 0-5-.8-5-3.9v-1.6zM21.9 82.5h14c4.6 0 6.3 1.5 6.3 5.3v4.6c0 3.7-1.6 5.3-6.3 5.3h-14V82.5zm4.7 11.3h8.2c2 0 2.8-.6 2.8-2.7V89c0-2.2-.8-2.7-2.8-2.7h-8.3c.1 0 .1 7.5.1 7.5zM45.5 87.8c0-4.4 2.5-5.5 6.7-5.5h7.5c4.2 0 6.7 1 6.7 5.5v4.5c0 4.4-2.5 5.5-6.7 5.5h-7.5c-4.2 0-6.7-1-6.7-5.5v-4.5zm4.8 3.1c0 2.2.5 3 2.7 3h5.9c2.2 0 2.7-.8 2.7-3v-1.6c0-1.9-.5-3-2.9-3h-5.4c-2.4 0-2.9 1.2-2.9 3v1.6z"/></g><g fill="#c3c6c5"><path d="M72.8 90.5h-2.2v-6.3h-2.1v-1.9H75v1.9h-2.2v6.3zM78.3 90.5h-2.2v-8.1h3.4l1.6 5.1h.1l1.5-5.1h3.5v8.1H84l.2-6.2h-.1L82 90.5h-1.9L78 84.3h-.1l.4 6.2z"/></g><g fill="#c3c6c5"><path d="M548.8 90.7h-2.2v-6.3h-2.1v-1.9h6.5v1.9h-2.2v6.3zM554.3 90.7h-2.2v-8.1h3.4l1.6 5.1h.1l1.5-5.1h3.5v8.1H560l.2-6.2h-.1l-2.1 6.2h-1.9l-2.1-6.2.3 6.2z"/></g><g fill="#c3c6c5"><path d="M549.9 60.1h-2.8v-7.9h-2.6v-2.4h8.2v2.4h-2.8v7.9zM556.9 60.1h-2.8V49.8h4.4l2 6.5h.1l1.9-6.5h4.5v10.3h-2.8l.3-7.9h-.1l-2.6 7.9h-2.4l-2.6-7.9h-.1l.2 7.9z"/></g></svg>